  0
SECTION
  2
HEADER
  9
$ACADVER
  1
AC1024
  9
$ACADMAINTVER
 70
6
  9
$DWGCODEPAGE
  3
ANSI_1252
  9
$LASTSAVEDBY
  1
ezdxf
  9
$INSBASE
 10
0.0
 20
0.0
 30
0.0
  9
$EXTMIN
 10
1e+20
 20
1e+20
 30
1e+20
  9
$EXTMAX
 10
-1e+20
 20
-1e+20
 30
-1e+20
  9
$LIMMIN
 10
0.0
 20
0.0
  9
$LIMMAX
 10
420.0
 20
297.0
  9
$ORTHOMODE
 70
0
  9
$REGENMODE
 70
1
  9
$FILLMODE
 70
1
  9
$QTEXTMODE
 70
0
  9
$MIRRTEXT
 70
1
  9
$LTSCALE
 40
1.0
  9
$ATTMODE
 70
1
  9
$TEXTSIZE
 40
2.5
  9
$TRACEWID
 40
1.0
  9
$TEXTSTYLE
  7
Standard
  9
$CLAYER
  8
0
  9
$CELTYPE
  6
ByLayer
  9
$CECOLOR
 62
256
  9
$CELTSCALE
 40
1.0
  9
$DISPSILH
 70
0
  9
$DIMSCALE
 40
1.0
  9
$DIMASZ
 40
2.5
  9
$DIMEXO
 40
0.625
  9
$DIMDLI
 40
3.75
  9
$DIMRND
 40
0.0
  9
$DIMDLE
 40
0.0
  9
$DIMEXE
 40
1.25
  9
$DIMTP
 40
0.0
  9
$DIMTM
 40
0.0
  9
$DIMTXT
 40
2.5
  9
$DIMCEN
 40
2.5
  9
$DIMTSZ
 40
0.0
  9
$DIMTOL
 70
0
  9
$DIMLIM
 70
0
  9
$DIMTIH
 70
0
  9
$DIMTOH
 70
0
  9
$DIMSE1
 70
0
  9
$DIMSE2
 70
0
  9
$DIMTAD
 70
1
  9
$DIMZIN
 70
8
  9
$DIMBLK
  1

  9
$DIMASO
 70
1
  9
$DIMSHO
 70
1
  9
$DIMPOST
  1

  9
$DIMAPOST
  1

  9
$DIMALT
 70
0
  9
$DIMALTD
 70
3
  9
$DIMALTF
 40
0.03937007874
  9
$DIMLFAC
 40
1.0
  9
$DIMTOFL
 70
1
  9
$DIMTVP
 40
0.0
  9
$DIMTIX
 70
0
  9
$DIMSOXD
 70
0
  9
$DIMSAH
 70
0
  9
$DIMBLK1
  1

  9
$DIMBLK2
  1

  9
$DIMSTYLE
  2
ISO-25
  9
$DIMCLRD
 70
0
  9
$DIMCLRE
 70
0
  9
$DIMCLRT
 70
0
  9
$DIMTFAC
 40
1.0
  9
$DIMGAP
 40
0.625
  9
$DIMJUST
 70
0
  9
$DIMSD1
 70
0
  9
$DIMSD2
 70
0
  9
$DIMTOLJ
 70
0
  9
$DIMTZIN
 70
8
  9
$DIMALTZ
 70
0
  9
$DIMALTTZ
 70
0
  9
$DIMUPT
 70
0
  9
$DIMDEC
 70
2
  9
$DIMTDEC
 70
2
  9
$DIMALTU
 70
2
  9
$DIMALTTD
 70
3
  9
$DIMTXSTY
  7
Standard
  9
$DIMAUNIT
 70
0
  9
$DIMADEC
 70
0
  9
$DIMALTRND
 40
0.0
  9
$DIMAZIN
 70
0
  9
$DIMDSEP
 70
44
  9
$DIMATFIT
 70
3
  9
$DIMFRAC
 70
0
  9
$DIMLDRBLK
  1

  9
$DIMLUNIT
 70
2
  9
$DIMLWD
 70
-2
  9
$DIMLWE
 70
-2
  9
$DIMTMOVE
 70
0
  9
$DIMFXL
 40
1.0
  9
$DIMFXLON
 70
0
  9
$DIMJOGANG
 40
0.785398163397
  9
$DIMTFILL
 70
0
  9
$DIMTFILLCLR
 70
0
  9
$DIMARCSYM
 70
0
  9
$DIMLTYPE
  6

  9
$DIMLTEX1
  6

  9
$DIMLTEX2
  6

  9
$DIMTXTDIRECTION
 70
0
  9
$LUNITS
 70
2
  9
$LUPREC
 70
4
  9
$SKETCHINC
 40
1.0
  9
$FILLETRAD
 40
10.0
  9
$AUNITS
 70
0
  9
$AUPREC
 70
2
  9
$MENU
  1
.
  9
$ELEVATION
 40
0.0
  9
$PELEVATION
 40
0.0
  9
$THICKNESS
 40
0.0
  9
$LIMCHECK
 70
0
  9
$CHAMFERA
 40
0.0
  9
$CHAMFERB
 40
0.0
  9
$CHAMFERC
 40
0.0
  9
$CHAMFERD
 40
0.0
  9
$SKPOLY
 70
0
  9
$TDCREATE
 40
2460767.0487152776
  9
$TDUCREATE
 40
2458532.153996898
  9
$TDUPDATE
 40
2460767.0487152776
  9
$TDUUPDATE
 40
2458532.1544311
  9
$TDINDWG
 40
0.0
  9
$TDUSRTIMER
 40
0.0
  9
$USRTIMER
 70
1
  9
$ANGBASE
 50
0.0
  9
$ANGDIR
 70
0
  9
$PDMODE
 70
0
  9
$PDSIZE
 40
0.0
  9
$PLINEWID
 40
0.0
  9
$SPLFRAME
 70
0
  9
$SPLINETYPE
 70
6
  9
$SPLINESEGS
 70
8
  9
$HANDSEED
  5
135
  9
$SURFTAB1
 70
6
  9
$SURFTAB2
 70
6
  9
$SURFTYPE
 70
6
  9
$SURFU
 70
6
  9
$SURFV
 70
6
  9
$UCSBASE
  2

  9
$UCSNAME
  2

  9
$UCSORG
 10
0.0
 20
0.0
 30
0.0
  9
$UCSXDIR
 10
1.0
 20
0.0
 30
0.0
  9
$UCSYDIR
 10
0.0
 20
1.0
 30
0.0
  9
$UCSORTHOREF
  2

  9
$UCSORTHOVIEW
 70
0
  9
$UCSORGTOP
 10
0.0
 20
0.0
 30
0.0
  9
$UCSORGBOTTOM
 10
0.0
 20
0.0
 30
0.0
  9
$UCSORGLEFT
 10
0.0
 20
0.0
 30
0.0
  9
$UCSORGRIGHT
 10
0.0
 20
0.0
 30
0.0
  9
$UCSORGFRONT
 10
0.0
 20
0.0
 30
0.0
  9
$UCSORGBACK
 10
0.0
 20
0.0
 30
0.0
  9
$PUCSBASE
  2

  9
$PUCSNAME
  2

  9
$PUCSORG
 10
0.0
 20
0.0
 30
0.0
  9
$PUCSXDIR
 10
1.0
 20
0.0
 30
0.0
  9
$PUCSYDIR
 10
0.0
 20
1.0
 30
0.0
  9
$PUCSORTHOREF
  2

  9
$PUCSORTHOVIEW
 70
0
  9
$PUCSORGTOP
 10
0.0
 20
0.0
 30
0.0
  9
$PUCSORGBOTTOM
 10
0.0
 20
0.0
 30
0.0
  9
$PUCSORGLEFT
 10
0.0
 20
0.0
 30
0.0
  9
$PUCSORGRIGHT
 10
0.0
 20
0.0
 30
0.0
  9
$PUCSORGFRONT
 10
0.0
 20
0.0
 30
0.0
  9
$PUCSORGBACK
 10
0.0
 20
0.0
 30
0.0
  9
$USERI1
 70
0
  9
$USERI2
 70
0
  9
$USERI3
 70
0
  9
$USERI4
 70
0
  9
$USERI5
 70
0
  9
$USERR1
 40
0.0
  9
$USERR2
 40
0.0
  9
$USERR3
 40
0.0
  9
$USERR4
 40
0.0
  9
$USERR5
 40
0.0
  9
$WORLDVIEW
 70
1
  9
$SHADEDGE
 70
3
  9
$SHADEDIF
 70
70
  9
$TILEMODE
 70
1
  9
$MAXACTVP
 70
64
  9
$PINSBASE
 10
0.0
 20
0.0
 30
0.0
  9
$PLIMCHECK
 70
0
  9
$PEXTMIN
 10
1e+20
 20
1e+20
 30
1e+20
  9
$PEXTMAX
 10
-1e+20
 20
-1e+20
 30
-1e+20
  9
$PLIMMIN
 10
0.0
 20
0.0
  9
$PLIMMAX
 10
420.0
 20
297.0
  9
$UNITMODE
 70
0
  9
$VISRETAIN
 70
1
  9
$PLINEGEN
 70
0
  9
$PSLTSCALE
 70
1
  9
$TREEDEPTH
 70
3020
  9
$CMLSTYLE
  2
Standard
  9
$CMLJUST
 70
0
  9
$CMLSCALE
 40
20.0
  9
$PROXYGRAPHICS
 70
1
  9
$MEASUREMENT
 70
1
  9
$CELWEIGHT
370
-1
  9
$ENDCAPS
280
0
  9
$JOINSTYLE
280
0
  9
$LWDISPLAY
290
0
  9
$INSUNITS
 70
6
  9
$HYPERLINKBASE
  1

  9
$STYLESHEET
  1

  9
$XEDIT
290
1
  9
$CEPSNTYPE
380
0
  9
$PSTYLEMODE
290
1
  9
$FINGERPRINTGUID
  2
{25A18019-E02E-4714-92DC-8A3E6CF26A02}
  9
$VERSIONGUID
  2
{F61D10A5-972A-45C5-80D6-BBAC6B6DF884}
  9
$EXTNAMES
290
1
  9
$PSVPSCALE
 40
0.0
  9
$OLESTARTUP
290
0
  9
$SORTENTS
280
127
  9
$INDEXCTL
280
0
  9
$HIDETEXT
280
1
  9
$XCLIPFRAME
280
1
  9
$HALOGAP
280
0
  9
$OBSCOLOR
 70
257
  9
$OBSLTYPE
280
0
  9
$INTERSECTIONDISPLAY
280
0
  9
$INTERSECTIONCOLOR
 70
257
  9
$DIMASSOC
280
2
  9
$PROJECTNAME
  1

  9
$CAMERADISPLAY
290
0
  9
$LENSLENGTH
 40
50.0
  9
$CAMERAHEIGHT
 40
0.0
  9
$STEPSPERSEC
 40
24.0
  9
$STEPSIZE
 40
100.0
  9
$3DDWFPREC
 40
2.0
  9
$PSOLWIDTH
 40
0.005
  9
$PSOLHEIGHT
 40
0.08
  9
$LOFTANG1
 40
1.570796326795
  9
$LOFTANG2
 40
1.570796326795
  9
$LOFTMAG1
 40
0.0
  9
$LOFTMAG2
 40
0.0
  9
$LOFTPARAM
 70
7
  9
$LOFTNORMALS
280
1
  9
$LATITUDE
 40
37.795
  9
$LONGITUDE
 40
-122.394
  9
$NORTHDIRECTION
 40
0.0
  9
$TIMEZONE
 70
-8000
  9
$LIGHTGLYPHDISPLAY
280
1
  9
$TILEMODELIGHTSYNCH
280
1
  9
$CMATERIAL
347
20
  9
$SOLIDHIST
280
0
  9
$SHOWHIST
280
1
  9
$DWFFRAME
280
2
  9
$DGNFRAME
280
2
  9
$REALWORLDSCALE
290
1
  9
$INTERFERECOLOR
 62
256
  9
$CSHADOW
280
0
  9
$SHADOWPLANELOCATION
 40
0.0
  0
ENDSEC
  0
SECTION
  2
CLASSES
  0
CLASS
  1
ACDBDICTIONARYWDFLT
  2
AcDbDictionaryWithDefault
  3
ObjectDBX Classes
 90
0
 91
0
280
0
281
0
  0
CLASS
  1
SUN
  2
AcDbSun
  3
SCENEOE
 90
1153
 91
0
280
0
281
0
  0
CLASS
  1
VISUALSTYLE
  2
AcDbVisualStyle
  3
ObjectDBX Classes
 90
4095
 91
0
280
0
281
0
  0
CLASS
  1
MATERIAL
  2
AcDbMaterial
  3
ObjectDBX Classes
 90
1153
 91
0
280
0
281
0
  0
CLASS
  1
SCALE
  2
AcDbScale
  3
ObjectDBX Classes
 90
1153
 91
0
280
0
281
0
  0
CLASS
  1
TABLESTYLE
  2
AcDbTableStyle
  3
ObjectDBX Classes
 90
4095
 91
0
280
0
281
0
  0
CLASS
  1
MLEADERSTYLE
  2
AcDbMLeaderStyle
  3
ACDB_MLEADERSTYLE_CLASS
 90
4095
 91
0
280
0
281
0
  0
CLASS
  1
DICTIONARYVAR
  2
AcDbDictionaryVar
  3
ObjectDBX Classes
 90
0
 91
0
280
0
281
0
  0
CLASS
  1
CELLSTYLEMAP
  2
AcDbCellStyleMap
  3
ObjectDBX Classes
 90
1152
 91
0
280
0
281
0
  0
CLASS
  1
MENTALRAYRENDERSETTINGS
  2
AcDbMentalRayRenderSettings
  3
SCENEOE
 90
1024
 91
0
280
0
281
0
  0
CLASS
  1
ACDBDETAILVIEWSTYLE
  2
AcDbDetailViewStyle
  3
ObjectDBX Classes
 90
1025
 91
0
280
0
281
0
  0
CLASS
  1
ACDBSECTIONVIEWSTYLE
  2
AcDbSectionViewStyle
  3
ObjectDBX Classes
 90
1025
 91
0
280
0
281
0
  0
CLASS
  1
RASTERVARIABLES
  2
AcDbRasterVariables
  3
ISM
 90
0
 91
0
280
0
281
0
  0
CLASS
  1
LAYOUT
  2
AcDbLayout
  3
ObjectDBX Classes
 90
0
 91
0
280
0
281
0
  0
CLASS
  1
ACDBPLACEHOLDER
  2
AcDbPlaceHolder
  3
ObjectDBX Classes
 90
0
 91
0
280
0
281
0
  0
ENDSEC
  0
SECTION
  2
TABLES
  0
TABLE
  2
VPORT
  5
8
330
0
100
AcDbSymbolTable
 70
1
  0
VPORT
  5
23
330
8
100
AcDbSymbolTableRecord
100
AcDbViewportTableRecord
  2
*Active
 70
0
 10
0.0
 20
0.0
 11
1.0
 21
1.0
 12
0.0
 22
0.0
 13
0.0
 23
0.0
 14
0.5
 24
0.5
 15
0.5
 25
0.5
 16
0.0
 26
0.0
 36
1.0
 17
0.0
 27
0.0
 37
0.0
 40
1000.0
 41
1.34
 42
50.0
 43
0.0
 44
0.0
 50
0.0
 51
0.0
 71
0
 72
1000
 73
1
 74
3
 75
0
 76
0
 77
0
 78
0
281
0
 65
0
146
0.0
  0
ENDTAB
  0
TABLE
  2
LTYPE
  5
2
330
0
100
AcDbSymbolTable
 70
3
  0
LTYPE
  5
24
330
2
100
AcDbSymbolTableRecord
100
AcDbLinetypeTableRecord
  2
ByBlock
 70
0
  3

 72
65
 73
0
 40
0.0
  0
LTYPE
  5
25
330
2
100
AcDbSymbolTableRecord
100
AcDbLinetypeTableRecord
  2
ByLayer
 70
0
  3

 72
65
 73
0
 40
0.0
  0
LTYPE
  5
26
330
2
100
AcDbSymbolTableRecord
100
AcDbLinetypeTableRecord
  2
Continuous
 70
0
  3

 72
65
 73
0
 40
0.0
  0
ENDTAB
  0
TABLE
  2
LAYER
  5
1
330
0
100
AcDbSymbolTable
 70
2
  0
LAYER
  5
27
330
1
100
AcDbSymbolTableRecord
100
AcDbLayerTableRecord
  2
0
 70
0
 62
7
  6
Continuous
370
-3
390
13
347
21
  0
LAYER
  5
28
330
1
100
AcDbSymbolTableRecord
100
AcDbLayerTableRecord
  2
Defpoints
 70
0
 62
7
  6
Continuous
290
0
370
-3
390
13
347
21
  0
ENDTAB
  0
TABLE
  2
STYLE
  5
5
330
0
100
AcDbSymbolTable
 70
1
  0
STYLE
  5
29
330
5
100
AcDbSymbolTableRecord
100
AcDbTextStyleTableRecord
  2
Standard
 70
0
 40
0.0
 41
1.0
 50
0.0
 71
0
 42
2.5
  3
txt
  4

  0
ENDTAB
  0
TABLE
  2
VIEW
  5
7
330
0
100
AcDbSymbolTable
 70
0
  0
ENDTAB
  0
TABLE
  2
UCS
  5
6
330
0
100
AcDbSymbolTable
 70
0
  0
ENDTAB
  0
TABLE
  2
APPID
  5
3
330
0
100
AcDbSymbolTable
 70
3
  0
APPID
  5
2A
330
3
100
AcDbSymbolTableRecord
100
AcDbRegAppTableRecord
  2
ACAD
 70
0
  0
APPID
  5
132
330
3
100
AcDbSymbolTableRecord
100
AcDbRegAppTableRecord
  2
HATCHBACKGROUNDCOLOR
 70
0
  0
APPID
  5
133
330
3
100
AcDbSymbolTableRecord
100
AcDbRegAppTableRecord
  2
EZDXF
 70
0
  0
ENDTAB
  0
TABLE
  2
DIMSTYLE
  5
4
330
0
100
AcDbSymbolTable
 70
1
100
AcDbDimStyleTable
  0
DIMSTYLE
105
2B
330
4
100
AcDbSymbolTableRecord
100
AcDbDimStyleTableRecord
  2
Standard
 70
0
 40
1.0
 41
2.5
 42
0.625
 43
3.75
 44
1.25
 45
0.0
 46
0.0
 47
0.0
 48
0.0
 49
2.5
140
2.5
141
2.5
142
0.0
143
0.03937007874
144
1.0
145
0.0
146
1.0
147
0.625
148
0.0
 69
0
 70
0
 71
0
 72
0
 73
0
 74
0
 75
0
 76
0
 77
1
 78
8
 79
3
170
0
171
3
172
1
173
0
174
0
175
0
176
0
177
0
178
0
179
2
271
2
272
2
273
2
274
3
275
0
276
0
277
2
278
44
279
0
280
0
281
0
282
0
283
0
284
8
285
0
286
0
288
0
289
3
290
0
371
-2
372
-2
  0
ENDTAB
  0
TABLE
  2
BLOCK_RECORD
  5
9
330
0
100
AcDbSymbolTable
 70
3
  0
BLOCK_RECORD
  5
17
330
9
100
AcDbSymbolTableRecord
100
AcDbBlockTableRecord
  2
*Model_Space
340
1A
 70
0
280
1
281
0
  0
BLOCK_RECORD
  5
1B
330
9
100
AcDbSymbolTableRecord
100
AcDbBlockTableRecord
  2
*Paper_Space
340
1E
 70
0
280
1
281
0
  0
BLOCK_RECORD
  5
2F
330
9
100
AcDbSymbolTableRecord
100
AcDbBlockTableRecord
  2
FLAG
340
0
 70
0
280
1
281
0
  0
ENDTAB
  0
ENDSEC
  0
SECTION
  2
BLOCKS
  0
BLOCK
  5
18
330
17
100
AcDbEntity
  8
0
100
AcDbBlockBegin
  2
*Model_Space
 70
0
 10
0.0
 20
0.0
 30
0.0
  3
*Model_Space
  1

  0
ENDBLK
  5
19
330
17
100
AcDbEntity
  8
0
100
AcDbBlockEnd
  0
BLOCK
  5
1C
330
1B
100
AcDbEntity
  8
0
100
AcDbBlockBegin
  2
*Paper_Space
 70
0
 10
0.0
 20
0.0
 30
0.0
  3
*Paper_Space
  1

  0
ENDBLK
  5
1D
330
1B
100
AcDbEntity
  8
0
100
AcDbBlockEnd
  0
BLOCK
  5
30
330
2F
100
AcDbEntity
  8
0
100
AcDbBlockBegin
  2
FLAG
 70
2
 10
0.0
 20
0.0
 30
0.0
  3
FLAG
  1

  0
TEXT
  5
32
330
2F
100
AcDbEntity
  8
0
 62
3
100
AcDbText
 10
0.0
 20
-0.5
 30
0.0
 40
0.5
  1
NAME:
100
AcDbText
  0
ATTDEF
  5
33
330
2F
100
AcDbEntity
  8
0
 62
3
100
AcDbText
 10
1.5
 20
-0.5
 30
0.0
 40
0.5
  1

100
AcDbAttributeDefinition
  3

  2
NAME
 70
0
  0
TEXT
  5
34
330
2F
100
AcDbEntity
  8
0
 62
4
100
AcDbText
 10
0.0
 20
-1.0
 30
0.0
 40
0.25
  1
XPOS:
100
AcDbText
  0
ATTDEF
  5
35
330
2F
100
AcDbEntity
  8
0
 62
4
100
AcDbText
 10
1.5
 20
-1.0
 30
0.0
 40
0.25
  1

100
AcDbAttributeDefinition
  3

  2
XPOS
 70
0
  0
TEXT
  5
36
330
2F
100
AcDbEntity
  8
0
 62
4
100
AcDbText
 10
0.0
 20
-1.5
 30
0.0
 40
0.25
  1
YPOS:
100
AcDbText
  0
ATTDEF
  5
37
330
2F
100
AcDbEntity
  8
0
 62
4
100
AcDbText
 10
1.5
 20
-1.5
 30
0.0
 40
0.25
  1

100
AcDbAttributeDefinition
  3

  2
YPOS
 70
0
  0
ENDBLK
  5
31
330
2F
100
AcDbEntity
  8
0
100
AcDbBlockEnd
  0
ENDSEC
  0
SECTION
  2
ENTITIES
  0
INSERT
  5
38
330
17
100
AcDbEntity
  8
0
100
AcDbBlockReference
 66
1
  2
FLAG
 10
-8.0
 20
58.0
 30
0.0
 41
1.9684924899570868
 42
1.9684924899570868
 43
1.9684924899570868
 50
15.0
  0
ATTRIB
  5
3A
330
17
100
AcDbEntity
  8
0
 62
3
100
AcDbText
 10
-4.893131724370475
 20
57.81351615236045
 30
0.0
 40
0.9842462449785434
  1
P(1)
 50
15.000000000000002
 11
-4.893131724370475
 21
57.81351615236045
 31
0.0
100
AcDbAttribute
  2
NAME
 70
0
  0
ATTRIB
  5
3B
330
17
100
AcDbEntity
  8
0
 62
4
100
AcDbText
 10
-4.638390051099387
 20
56.86280728490764
 30
0.0
 40
0.4921231224892717
  1
= -8.000
 50
15.000000000000002
 11
-4.638390051099387
 21
56.86280728490764
 31
0.0
100
AcDbAttribute
  2
XPOS
 70
0
  0
ATTRIB
  5
3C
330
17
100
AcDbEntity
  8
0
 62
4
100
AcDbText
 10
-4.383648377828298
 20
55.91209841745483
 30
0.0
 40
0.4921231224892717
  1
= 58.000
 50
15.000000000000002
 11
-4.383648377828298
 21
55.91209841745483
 31
0.0
100
AcDbAttribute
  2
YPOS
 70
0
  0
SEQEND
  5
39
330
38
100
AcDbEntity
  8
0
  0
INSERT
  5
3D
330
17
100
AcDbEntity
  8
0
100
AcDbBlockReference
 66
1
  2
FLAG
 10
-15.0
 20
36.0
 30
0.0
 41
0.957602765257578
 42
0.957602765257578
 43
0.957602765257578
 50
15.0
  0
ATTRIB
  5
3F
330
17
100
AcDbEntity
  8
0
 62
3
100
AcDbText
 10
-13.488617219922066
 20
35.90928212879319
 30
0.0
 40
0.4788013826287891
  1
P(2)
 50
14.999999999999998
 11
-13.488617219922066
 21
35.90928212879319
 31
0.0
100
AcDbAttribute
  2
NAME
 70
0
  0
ATTRIB
  5
40
330
17
100
AcDbEntity
  8
0
 62
4
100
AcDbText
 10
-13.364694303276316
 20
35.44679550764913
 30
0.0
 40
0.23940069131439454
  1
= -15.000
 50
14.999999999999998
 11
-13.364694303276316
 21
35.44679550764913
 31
0.0
100
AcDbAttribute
  2
XPOS
 70
0
  0
ATTRIB
  5
41
330
17
100
AcDbEntity
  8
0
 62
4
100
AcDbText
 10
-13.240771386630566
 20
34.98430888650506
 30
0.0
 40
0.23940069131439454
  1
= 36.000
 50
14.999999999999998
 11
-13.240771386630566
 21
34.98430888650506
 31
0.0
100
AcDbAttribute
  2
YPOS
 70
0
  0
SEQEND
  5
3E
330
3D
100
AcDbEntity
  8
0
  0
INSERT
  5
42
330
17
100
AcDbEntity
  8
0
100
AcDbBlockReference
 66
1
  2
FLAG
 10
-19.0
 20
-34.0
 30
0.0
 41
0.9762397426249185
 42
0.9762397426249185
 43
0.9762397426249185
 50
15.0
  0
ATTRIB
  5
44
330
17
100
AcDbEntity
  8
0
 62
3
100
AcDbText
 10
-17.459202510934542
 20
-34.092483433059634
 30
0.0
 40
0.48811987131245926
  1
P(3)
 50
14.999999999999996
 11
-17.459202510934542
 21
-34.092483433059634
 31
0.0
100
AcDbAttribute
  2
NAME
 70
0
  0
ATTRIB
  5
45
330
17
100
AcDbEntity
  8
0
 62
4
100
AcDbText
 10
-17.332867791945887
 20
-34.56397102308524
 30
0.0
 40
0.24405993565622963
  1
= -19.000
 50
14.999999999999996
 11
-17.332867791945887
 21
-34.56397102308524
 31
0.0
100
AcDbAttribute
  2
XPOS
 70
0
  0
ATTRIB
  5
46
330
17
100
AcDbEntity
  8
0
 62
4
100
AcDbText
 10
-17.206533072957228
 20
-35.03545861311083
 30
0.0
 40
0.24405993565622963
  1
= -34.000
 50
14.999999999999996
 11
-17.206533072957228
 21
-35.03545861311083
 31
0.0
100
AcDbAttribute
  2
YPOS
 70
0
  0
SEQEND
  5
43
330
42
100
AcDbEntity
  8
0
  0
INSERT
  5
47
330
17
100
AcDbEntity
  8
0
100
AcDbBlockReference
 66
1
  2
FLAG
 10
31.0
 20
-73.0
 30
0.0
 41
1.918566085342455
 42
1.918566085342455
 43
1.918566085342455
 50
15.0
  0
ATTRIB
  5
49
330
17
100
AcDbEntity
  8
0
 62
3
100
AcDbText
 10
34.0280695179991
 20
-73.18175410237568
 30
0.0
 40
0.9592830426712275
  1
P(4)
 50
14.999999999999998
 11
34.0280695179991
 21
-73.18175410237568
 31
0.0
100
AcDbAttribute
  2
NAME
 70
0
  0
ATTRIB
  5
4A
330
17
100
AcDbEntity
  8
0
 62
4
100
AcDbText
 10
34.276350239086305
 20
-74.10835036801296
 30
0.0
 40
0.4796415213356138
  1
= 31.000
 50
14.999999999999998
 11
34.276350239086305
 21
-74.10835036801296
 31
0.0
100
AcDbAttribute
  2
XPOS
 70
0
  0
ATTRIB
  5
4B
330
17
100
AcDbEntity
  8
0
 62
4
100
AcDbText
 10
34.52463096017351
 20
-75.03494663365026
 30
0.0
 40
0.4796415213356138
  1
= -73.000
 50
14.999999999999998
 11
34.52463096017351
 21
-75.03494663365026
 31
0.0
100
AcDbAttribute
  2
YPOS
 70
0
  0
SEQEND
  5
48
330
47
100
AcDbEntity
  8
0
  0
INSERT
  5
4C
330
17
100
AcDbEntity
  8
0
100
AcDbBlockReference
 66
1
  2
FLAG
 10
50.0
 20
-32.0
 30
0.0
 41
1.032719872115952
 42
1.032719872115952
 43
1.032719872115952
 50
15.0
  0
ATTRIB
  5
4E
330
17
100
AcDbEntity
  8
0
 62
3
100
AcDbText
 10
51.629939979277836
 20
-32.0978340411602
 30
0.0
 40
0.516359936057976
  1
P(5)
 50
14.999999999999998
 11
51.629939979277836
 21
-32.0978340411602
 31
0.0
100
AcDbAttribute
  2
NAME
 70
0
  0
ATTRIB
  5
4F
330
17
100
AcDbEntity
  8
0
 62
4
100
AcDbText
 10
51.76358376485756
 20
-32.59659943905957
 30
0.0
 40
0.258179968028988
  1
= 50.000
 50
14.999999999999998
 11
51.76358376485756
 21
-32.59659943905957
 31
0.0
100
AcDbAttribute
  2
XPOS
 70
0
  0
ATTRIB
  5
50
330
17
100
AcDbEntity
  8
0
 62
4
100
AcDbText
 10
51.897227550437286
 20
-33.09536483695894
 30
0.0
 40
0.258179968028988
  1
= -32.000
 50
14.999999999999998
 11
51.897227550437286
 21
-33.09536483695894
 31
0.0
100
AcDbAttribute
  2
YPOS
 70
0
  0
SEQEND
  5
4D
330
4C
100
AcDbEntity
  8
0
  0
INSERT
  5
51
330
17
100
AcDbEntity
  8
0
100
AcDbBlockReference
 66
1
  2
FLAG
 10
0.0
 20
85.0
 30
0.0
 41
0.910038170924429
 42
0.910038170924429
 43
0.910038170924429
 50
15.0
  0
ATTRIB
  5
53
330
17
100
AcDbEntity
  8
0
 62
3
100
AcDbText
 10
1.4363116635099096
 20
84.91378812950587
 30
0.0
 40
0.4550190854622145
  1
P(6)
 50
14.999999999999998
 11
1.4363116635099096
 21
84.91378812950587
 31
0.0
100
AcDbAttribute
  2
NAME
 70
0
  0
ATTRIB
  5
54
330
17
100
AcDbEntity
  8
0
 62
4
100
AcDbText
 10
1.5540792687126623
 20
84.47427344340349
 30
0.0
 40
0.22750954273110724
  1
= 0.000
 50
14.999999999999998
 11
1.5540792687126623
 21
84.47427344340349
 31
0.0
100
AcDbAttribute
  2
XPOS
 70
0
  0
ATTRIB
  5
55
330
17
100
AcDbEntity
  8
0
 62
4
100
AcDbText
 10
1.6718468739154149
 20
84.0347587573011
 30
0.0
 40
0.22750954273110724
  1
= 85.000
 50
14.999999999999998
 11
1.6718468739154149
 21
84.0347587573011
 31
0.0
100
AcDbAttribute
  2
YPOS
 70
0
  0
SEQEND
  5
52
330
51
100
AcDbEntity
  8
0
  0
INSERT
  5
56
330
17
100
AcDbEntity
  8
0
100
AcDbBlockReference
 66
1
  2
FLAG
 10
82.0
 20
31.0
 30
0.0
 41
1.2400250752907
 42
1.2400250752907
 43
1.2400250752907
 50
15.0
  0
ATTRIB
  5
58
330
17
100
AcDbEntity
  8
0
 62
3
100
AcDbText
 10
83.95712942114896
 20
30.882527036100214
 30
0.0
 40
0.62001253764535
  1
P(7)
 50
14.999999999999998
 11
83.95712942114896
 21
30.882527036100214
 31
0.0
100
AcDbAttribute
  2
NAME
 70
0
  0
ATTRIB
  5
59
330
17
100
AcDbEntity
  8
0
 62
4
100
AcDbText
 10
84.11760047409392
 20
30.28364091336555
 30
0.0
 40
0.310006268822675
  1
= 82.000
 50
14.999999999999998
 11
84.11760047409392
 21
30.28364091336555
 31
0.0
100
AcDbAttribute
  2
XPOS
 70
0
  0
ATTRIB
  5
5A
330
17
100
AcDbEntity
  8
0
 62
4
100
AcDbText
 10
84.27807152703888
 20
29.68475479063088
 30
0.0
 40
0.310006268822675
  1
= 31.000
 50
14.999999999999998
 11
84.27807152703888
 21
29.68475479063088
 31
0.0
100
AcDbAttribute
  2
YPOS
 70
0
  0
SEQEND
  5
57
330
56
100
AcDbEntity
  8
0
  0
INSERT
  5
5B
330
17
100
AcDbEntity
  8
0
100
AcDbBlockReference
 66
1
  2
FLAG
 10
44.0
 20
-93.0
 30
0.0
 41
1.4080959490875196
 42
1.4080959490875196
 43
1.4080959490875196
 50
15.0
  0
ATTRIB
  5
5D
330
17
100
AcDbEntity
  8
0
 62
3
100
AcDbText
 10
46.22239538915276
 20
-93.13339504812498
 30
0.0
 40
0.7040479745437598
  1
P(8)
 50
14.999999999999998
 11
46.22239538915276
 21
-93.13339504812498
 31
0.0
100
AcDbAttribute
  2
NAME
 70
0
  0
ATTRIB
  5
5E
330
17
100
AcDbEntity
  8
0
 62
4
100
AcDbText
 10
46.404616413630535
 20
-93.81345316968331
 30
0.0
 40
0.3520239872718799
  1
= 44.000
 50
14.999999999999998
 11
46.404616413630535
 21
-93.81345316968331
 31
0.0
100
AcDbAttribute
  2
XPOS
 70
0
  0
ATTRIB
  5
5F
330
17
100
AcDbEntity
  8
0
 62
4
100
AcDbText
 10
46.58683743810832
 20
-94.49351129124165
 30
0.0
 40
0.3520239872718799
  1
= -93.000
 50
14.999999999999998
 11
46.58683743810832
 21
-94.49351129124165
 31
0.0
100
AcDbAttribute
  2
YPOS
 70
0
  0
SEQEND
  5
5C
330
5B
100
AcDbEntity
  8
0
  0
INSERT
  5
60
330
17
100
AcDbEntity
  8
0
100
AcDbBlockReference
 66
1
  2
FLAG
 10
54.0
 20
-98.0
 30
0.0
 41
2.111590153289653
 42
2.111590153289653
 43
2.111590153289653
 50
15.0
  0
ATTRIB
  5
62
330
17
100
AcDbEntity
  8
0
 62
3
100
AcDbText
 10
57.33271906896141
 20
-98.2000401111166
 30
0.0
 40
1.0557950766448265
  1
P(9)
 50
14.999999999999998
 11
57.33271906896141
 21
-98.2000401111166
 31
0.0
100
AcDbAttribute
  2
NAME
 70
0
  0
ATTRIB
  5
63
330
17
100
AcDbEntity
  8
0
 62
4
100
AcDbText
 10
57.60597894252257
 20
-99.2198598429167
 30
0.0
 40
0.5278975383224133
  1
= 54.000
 50
14.999999999999998
 11
57.60597894252257
 21
-99.2198598429167
 31
0.0
100
AcDbAttribute
  2
XPOS
 70
0
  0
ATTRIB
  5
64
330
17
100
AcDbEntity
  8
0
 62
4
100
AcDbText
 10
57.87923881608372
 20
-100.23967957471679
 30
0.0
 40
0.5278975383224133
  1
= -98.000
 50
14.999999999999998
 11
57.87923881608372
 21
-100.23967957471679
 31
0.0
100
AcDbAttribute
  2
YPOS
 70
0
  0
SEQEND
  5
61
330
60
100
AcDbEntity
  8
0
  0
INSERT
  5
65
330
17
100
AcDbEntity
  8
0
100
AcDbBlockReference
 66
1
  2
FLAG
 10
29.0
 20
-91.0
 30
0.0
 41
1.2536158549203351
 42
1.2536158549203351
 43
1.2536158549203351
 50
15.0
  0
ATTRIB
  5
67
330
17
100
AcDbEntity
  8
0
 62
3
100
AcDbText
 10
30.978579725017433
 20
-91.11876047751271
 30
0.0
 40
0.6268079274601676
  1
P(10)
 50
14.999999999999998
 11
30.978579725017433
 21
-91.11876047751271
 31
0.0
100
AcDbAttribute
  2
NAME
 70
0
  0
ATTRIB
  5
68
330
17
100
AcDbEntity
  8
0
 62
4
100
AcDbText
 10
31.140809554265363
 20
-91.7242104427692
 30
0.0
 40
0.3134039637300838
  1
= 29.000
 50
14.999999999999998
 11
31.140809554265363
 21
-91.7242104427692
 31
0.0
100
AcDbAttribute
  2
XPOS
 70
0
  0
ATTRIB
  5
69
330
17
100
AcDbEntity
  8
0
 62
4
100
AcDbText
 10
31.303039383513294
 20
-92.32966040802572
 30
0.0
 40
0.3134039637300838
  1
= -91.000
 50
14.999999999999998
 11
31.303039383513294
 21
-92.32966040802572
 31
0.0
100
AcDbAttribute
  2
YPOS
 70
0
  0
SEQEND
  5
66
330
65
100
AcDbEntity
  8
0
  0
INSERT
  5
6A
330
17
100
AcDbEntity
  8
0
100
AcDbBlockReference
 66
1
  2
FLAG
 10
21.0
 20
70.0
 30
0.0
 41
1.6400480272309528
 42
1.6400480272309528
 43
1.6400480272309528
 50
15.0
  0
ATTRIB
  5
6C
330
17
100
AcDbEntity
  8
0
 62
3
100
AcDbText
 10
23.588484950950317
 20
69.84463112356687
 30
0.0
 40
0.8200240136154763
  1
P(11)
 50
14.999999999999998
 41
1.0000000000000002
 11
23.588484950950317
 21
69.84463112356687
 31
0.0
100
AcDbAttribute
  2
NAME
 70
0
  0
ATTRIB
  5
6D
330
17
100
AcDbEntity
  8
0
 62
4
100
AcDbText
 10
23.80072278311541
 20
69.05254875063846
 30
0.0
 40
0.41001200680773814
  1
= 21.000
 50
14.999999999999998
 41
1.0000000000000002
 11
23.80072278311541
 21
69.05254875063846
 31
0.0
100
AcDbAttribute
  2
XPOS
 70
0
  0
ATTRIB
  5
6E
330
17
100
AcDbEntity
  8
0
 62
4
100
AcDbText
 10
24.012960615280505
 20
68.26046637771006
 30
0.0
 40
0.41001200680773814
  1
= 70.000
 50
14.999999999999998
 41
1.0000000000000002
 11
24.012960615280505
 21
68.26046637771006
 31
0.0
100
AcDbAttribute
  2
YPOS
 70
0
  0
SEQEND
  5
6B
330
6A
100
AcDbEntity
  8
0
  0
INSERT
  5
6F
330
17
100
AcDbEntity
  8
0
100
AcDbBlockReference
 66
1
  2
FLAG
 10
7.0
 20
-8.0
 30
0.0
 41
1.9326971839561637
 42
1.9326971839561637
 43
1.9326971839561637
 50
15.0
  0
ATTRIB
  5
71
330
17
100
AcDbEntity
  8
0
 62
3
100
AcDbText
 10
10.050372606381051
 20
-8.183092802753908
 30
0.0
 40
0.9663485919780819
  1
P(12)
 50
14.999999999999998
 11
10.050372606381051
 21
-8.183092802753908
 31
0.0
100
AcDbAttribute
  2
NAME
 70
0
  0
ATTRIB
  5
72
330
17
100
AcDbEntity
  8
0
 62
4
100
AcDbText
 10
10.300482026192984
 20
-9.116513864943615
 30
0.0
 40
0.48317429598904094
  1
= 7.000
 50
14.999999999999998
 11
10.300482026192984
 21
-9.116513864943615
 31
0.0
100
AcDbAttribute
  2
XPOS
 70
0
  0
ATTRIB
  5
73
330
17
100
AcDbEntity
  8
0
 62
4
100
AcDbText
 10
10.550591446004917
 20
-10.049934927133322
 30
0.0
 40
0.48317429598904094
  1
= -8.000
 50
14.999999999999998
 11
10.550591446004917
 21
-10.049934927133322
 31
0.0
100
AcDbAttribute
  2
YPOS
 70
0
  0
SEQEND
  5
70
330
6F
100
AcDbEntity
  8
0
  0
INSERT
  5
74
330
17
100
AcDbEntity
  8
0
100
AcDbBlockReference
 66
1
  2
FLAG
 10
-28.0
 20
-58.0
 30
0.0
 41
0.952593302064902
 42
0.952593302064902
 43
0.952593302064902
 50
15.0
  0
ATTRIB
  5
76
330
17
100
AcDbEntity
  8
0
 62
3
100
AcDbText
 10
-26.496523646972545
 20
-58.09024330299
 30
0.0
 40
0.476296651032451
  1
P(13)
 50
14.999999999999998
 41
1.0000000000000002
 11
-26.496523646972545
 21
-58.09024330299
 31
0.0
100
AcDbAttribute
  2
NAME
 70
0
  0
ATTRIB
  5
77
330
17
100
AcDbEntity
  8
0
 62
4
100
AcDbText
 10
-26.373249002566794
 20
-58.55031053919723
 30
0.0
 40
0.2381483255162255
  1
= -28.000
 50
14.999999999999998
 41
1.0000000000000002
 11
-26.373249002566794
 21
-58.55031053919723
 31
0.0
100
AcDbAttribute
  2
XPOS
 70
0
  0
ATTRIB
  5
78
330
17
100
AcDbEntity
  8
0
 62
4
100
AcDbText
 10
-26.249974358161047
 20
-59.010377775404464
 30
0.0
 40
0.2381483255162255
  1
= -58.000
 50
14.999999999999998
 41
1.0000000000000002
 11
-26.249974358161047
 21
-59.010377775404464
 31
0.0
100
AcDbAttribute
  2
YPOS
 70
0
  0
SEQEND
  5
75
330
74
100
AcDbEntity
  8
0
  0
INSERT
  5
79
330
17
100
AcDbEntity
  8
0
100
AcDbBlockReference
 66
1
  2
FLAG
 10
99.0
 20
-10.0
 30
0.0
 41
2.1268292633234935
 42
2.1268292633234935
 43
2.1268292633234935
 50
15.0
  0
ATTRIB
  5
7B
330
17
100
AcDbEntity
  8
0
 62
3
100
AcDbText
 10
102.35677092984201
 20
-10.201483778231532
 30
0.0
 40
1.0634146316617468
  1
P(14)
 50
14.999999999999996
 11
102.35677092984201
 21
-10.201483778231532
 31
0.0
100
AcDbAttribute
  2
NAME
 70
0
  0
ATTRIB
  5
7C
330
17
100
AcDbEntity
  8
0
 62
4
100
AcDbText
 10
102.63200288935676
 20
-11.22866343500729
 30
0.0
 40
0.5317073158308734
  1
= 99.000
 50
14.999999999999996
 11
102.63200288935676
 21
-11.22866343500729
 31
0.0
100
AcDbAttribute
  2
XPOS
 70
0
  0
ATTRIB
  5
7D
330
17
100
AcDbEntity
  8
0
 62
4
100
AcDbText
 10
102.9072348488715
 20
-12.255843091783047
 30
0.0
 40
0.5317073158308734
  1
= -10.000
 50
14.999999999999996
 11
102.9072348488715
 21
-12.255843091783047
 31
0.0
100
AcDbAttribute
  2
YPOS
 70
0
  0
SEQEND
  5
7A
330
79
100
AcDbEntity
  8
0
  0
INSERT
  5
7E
330
17
100
AcDbEntity
  8
0
100
AcDbBlockReference
 66
1
  2
FLAG
 10
-85.0
 20
-27.0
 30
0.0
 41
1.205664777404526
 42
1.205664777404526
 43
1.205664777404526
 50
15.0
  0
ATTRIB
  5
80
330
17
100
AcDbEntity
  8
0
 62
3
100
AcDbText
 10
-83.09710137728607
 20
-27.114217863568673
 30
0.0
 40
0.602832388702263
  1
P(15)
 50
14.999999999999998
 11
-83.09710137728607
 21
-27.114217863568673
 31
0.0
100
AcDbAttribute
  2
NAME
 70
0
  0
ATTRIB
  5
81
330
17
100
AcDbEntity
  8
0
 62
4
100
AcDbText
 10
-82.94107687408528
 20
-27.69650923673972
 30
0.0
 40
0.3014161943511315
  1
= -85.000
 50
14.999999999999998
 11
-82.94107687408528
 21
-27.69650923673972
 31
0.0
100
AcDbAttribute
  2
XPOS
 70
0
  0
ATTRIB
  5
82
330
17
100
AcDbEntity
  8
0
 62
4
100
AcDbText
 10
-82.78505237088449
 20
-28.278800609910764
 30
0.0
 40
0.3014161943511315
  1
= -27.000
 50
14.999999999999998
 11
-82.78505237088449
 21
-28.278800609910764
 31
0.0
100
AcDbAttribute
  2
YPOS
 70
0
  0
SEQEND
  5
7F
330
7E
100
AcDbEntity
  8
0
  0
INSERT
  5
83
330
17
100
AcDbEntity
  8
0
100
AcDbBlockReference
 66
1
  2
FLAG
 10
-3.0
 20
12.0
 30
0.0
 41
0.524386104304676
 42
0.524386104304676
 43
0.524386104304676
 50
15.0
  0
ATTRIB
  5
85
330
17
100
AcDbEntity
  8
0
 62
3
100
AcDbText
 10
-2.172362322966917
 20
11.950322625624251
 30
0.0
 40
0.262193052152338
  1
P(16)
 50
14.999999999999998
 11
-2.172362322966917
 21
11.950322625624251
 31
0.0
100
AcDbAttribute
  2
NAME
 70
0
  0
ATTRIB
  5
86
330
17
100
AcDbEntity
  8
0
 62
4
100
AcDbText
 10
-2.104501767576333
 20
11.697063585076751
 30
0.0
 40
0.131096526076169
  1
= -3.000
 50
14.999999999999998
 11
-2.104501767576333
 21
11.697063585076751
 31
0.0
100
AcDbAttribute
  2
XPOS
 70
0
  0
ATTRIB
  5
87
330
17
100
AcDbEntity
  8
0
 62
4
100
AcDbText
 10
-2.03664121218575
 20
11.44380454452925
 30
0.0
 40
0.131096526076169
  1
= 12.000
 50
14.999999999999998
 11
-2.03664121218575
 21
11.44380454452925
 31
0.0
100
AcDbAttribute
  2
YPOS
 70
0
  0
SEQEND
  5
84
330
83
100
AcDbEntity
  8
0
  0
INSERT
  5
88
330
17
100
AcDbEntity
  8
0
100
AcDbBlockReference
 66
1
  2
FLAG
 10
-97.0
 20
78.0
 30
0.0
 41
2.1340972030709926
 42
2.1340972030709926
 43
2.1340972030709926
 50
15.0
  0
ATTRIB
  5
8A
330
17
100
AcDbEntity
  8
0
 62
3
100
AcDbText
 10
-93.6317580934863
 20
77.79782769825343
 30
0.0
 40
1.0670486015354963
  1
P(17)
 50
14.999999999999998
 41
1.0000000000000002
 11
-93.6317580934863
 21
77.79782769825343
 31
0.0
100
AcDbAttribute
  2
NAME
 70
0
  0
ATTRIB
  5
8B
330
17
100
AcDbEntity
  8
0
 62
4
100
AcDbText
 10
-93.3555855933589
 20
76.76713789612465
 30
0.0
 40
0.5335243007677481
  1
= -97.000
 50
14.999999999999998
 41
1.0000000000000002
 11
-93.3555855933589
 21
76.76713789612465
 31
0.0
100
AcDbAttribute
  2
XPOS
 70
0
  0
ATTRIB
  5
8C
330
17
100
AcDbEntity
  8
0
 62
4
100
AcDbText
 10
-93.0794130932315
 20
75.73644809399589
 30
0.0
 40
0.5335243007677481
  1
= 78.000
 50
14.999999999999998
 41
1.0000000000000002
 11
-93.0794130932315
 21
75.73644809399589
 31
0.0
100
AcDbAttribute
  2
YPOS
 70
0
  0
SEQEND
  5
89
330
88
100
AcDbEntity
  8
0
  0
INSERT
  5
8D
330
17
100
AcDbEntity
  8
0
100
AcDbBlockReference
 66
1
  2
FLAG
 10
-35.0
 20
20.0
 30
0.0
 41
1.5936507838766762
 42
1.5936507838766762
 43
1.5936507838766762
 50
15.0
  0
ATTRIB
  5
8F
330
17
100
AcDbEntity
  8
0
 62
3
100
AcDbText
 10
-32.48474373759663
 20
19.84902653604862
 30
0.0
 40
0.796825391938338
  1
P(18)
 50
14.999999999999998
 11
-32.48474373759663
 21
19.84902653604862
 31
0.0
100
AcDbAttribute
  2
NAME
 70
0
  0
ATTRIB
  5
90
330
17
100
AcDbEntity
  8
0
 62
4
100
AcDbText
 10
-32.278510150541706
 20
19.079352310932467
 30
0.0
 40
0.398412695969169
  1
= -35.000
 50
14.999999999999998
 11
-32.278510150541706
 21
19.079352310932467
 31
0.0
100
AcDbAttribute
  2
XPOS
 70
0
  0
ATTRIB
  5
91
330
17
100
AcDbEntity
  8
0
 62
4
100
AcDbText
 10
-32.07227656348678
 20
18.30967808581632
 30
0.0
 40
0.398412695969169
  1
= 20.000
 50
14.999999999999998
 11
-32.07227656348678
 21
18.30967808581632
 31
0.0
100
AcDbAttribute
  2
YPOS
 70
0
  0
SEQEND
  5
8E
330
8D
100
AcDbEntity
  8
0
  0
INSERT
  5
92
330
17
100
AcDbEntity
  8
0
100
AcDbBlockReference
 66
1
  2
FLAG
 10
-11.0
 20
-67.0
 30
0.0
 41
1.1706393214417663
 42
1.1706393214417663
 43
1.1706393214417663
 50
15.0
  0
ATTRIB
  5
94
330
17
100
AcDbEntity
  8
0
 62
3
100
AcDbText
 10
-9.152381993557322
 20
-67.11089974992252
 30
0.0
 40
0.585319660720883
  1
P(19)
 50
15.000000000000002
 41
1.0000000000000002
 11
-9.152381993557322
 21
-67.11089974992252
 31
0.0
100
AcDbAttribute
  2
NAME
 70
0
  0
ATTRIB
  5
95
330
17
100
AcDbEntity
  8
0
 62
4
100
AcDbText
 10
-9.00089011788981
 20
-67.67627512684759
 30
0.0
 40
0.2926598303604415
  1
= -11.000
 50
15.000000000000002
 41
1.0000000000000002
 11
-9.00089011788981
 21
-67.67627512684759
 31
0.0
100
AcDbAttribute
  2
XPOS
 70
0
  0
ATTRIB
  5
96
330
17
100
AcDbEntity
  8
0
 62
4
100
AcDbText
 10
-8.8493982422223
 20
-68.24165050377263
 30
0.0
 40
0.2926598303604415
  1
= -67.000
 50
15.000000000000002
 41
1.0000000000000002
 11
-8.8493982422223
 21
-68.24165050377263
 31
0.0
100
AcDbAttribute
  2
YPOS
 70
0
  0
SEQEND
  5
93
330
92
100
AcDbEntity
  8
0
  0
INSERT
  5
97
330
17
100
AcDbEntity
  8
0
100
AcDbBlockReference
 66
1
  2
FLAG
 10
-17.0
 20
35.0
 30
0.0
 41
1.9908329318483997
 42
1.9908329318483997
 43
1.9908329318483997
 50
15.0
  0
ATTRIB
  5
99
330
17
100
AcDbEntity
  8
0
 62
3
100
AcDbText
 10
-13.857871843761442
 20
34.8113997452199
 30
0.0
 40
0.9954164659241999
  1
P(20)
 50
14.999999999999998
 11
-13.857871843761442
 21
34.8113997452199
 31
0.0
100
AcDbAttribute
  2
NAME
 70
0
  0
ATTRIB
  5
9A
330
17
100
AcDbEntity
  8
0
 62
4
100
AcDbText
 10
-13.600239104571614
 20
33.849901272870326
 30
0.0
 40
0.49770823296209993
  1
= -17.000
 50
14.999999999999998
 11
-13.600239104571614
 21
33.849901272870326
 31
0.0
100
AcDbAttribute
  2
XPOS
 70
0
  0
ATTRIB
  5
9B
330
17
100
AcDbEntity
  8
0
 62
4
100
AcDbText
 10
-13.342606365381787
 20
32.88840280052075
 30
0.0
 40
0.49770823296209993
  1
= 35.000
 50
14.999999999999998
 11
-13.342606365381787
 21
32.88840280052075
 31
0.0
100
AcDbAttribute
  2
YPOS
 70
0
  0
SEQEND
  5
98
330
97
100
AcDbEntity
  8
0
  0
INSERT
  5
9C
330
17
100
AcDbEntity
  8
0
100
AcDbBlockReference
 66
1
  2
FLAG
 10
-24.0
 20
-66.0
 30
0.0
 41
1.3684117433867455
 42
1.3684117433867455
 43
1.3684117433867455
 50
15.0
  0
ATTRIB
  5
9E
330
17
100
AcDbEntity
  8
0
 62
3
100
AcDbText
 10
-21.840238123733023
 20
-66.1296355908716
 30
0.0
 40
0.6842058716933728
  1
P(21)
 50
14.999999999999998
 11
-21.840238123733023
 21
-66.1296355908716
 31
0.0
100
AcDbAttribute
  2
NAME
 70
0
  0
ATTRIB
  5
9F
330
17
100
AcDbEntity
  8
0
 62
4
100
AcDbText
 10
-21.663152613367807
 20
-66.79052771283885
 30
0.0
 40
0.3421029358466864
  1
= -24.000
 50
14.999999999999998
 11
-21.663152613367807
 21
-66.79052771283885
 31
0.0
100
AcDbAttribute
  2
XPOS
 70
0
  0
ATTRIB
  5
A0
330
17
100
AcDbEntity
  8
0
 62
4
100
AcDbText
 10
-21.48606710300259
 20
-67.45141983480612
 30
0.0
 40
0.3421029358466864
  1
= -66.000
 50
14.999999999999998
 11
-21.48606710300259
 21
-67.45141983480612
 31
0.0
100
AcDbAttribute
  2
YPOS
 70
0
  0
SEQEND
  5
9D
330
9C
100
AcDbEntity
  8
0
  0
INSERT
  5
A1
330
17
100
AcDbEntity
  8
0
100
AcDbBlockReference
 66
1
  2
FLAG
 10
95.0
 20
49.0
 30
0.0
 41
0.6947700742504985
 42
0.6947700742504985
 43
0.6947700742504985
 50
15.0
  0
ATTRIB
  5
A3
330
17
100
AcDbEntity
  8
0
 62
3
100
AcDbText
 10
96.09655440066865
 20
48.934181411749314
 30
0.0
 40
0.34738503712524926
  1
P(22)
 50
14.999999999999998
 11
96.09655440066865
 21
48.934181411749314
 31
0.0
100
AcDbAttribute
  2
NAME
 70
0
  0
ATTRIB
  5
A4
330
17
100
AcDbEntity
  8
0
 62
4
100
AcDbText
 10
96.18646426426032
 20
48.59863323272365
 30
0.0
 40
0.17369251856262463
  1
= 95.000
 50
14.999999999999998
 11
96.18646426426032
 21
48.59863323272365
 31
0.0
100
AcDbAttribute
  2
XPOS
 70
0
  0
ATTRIB
  5
A5
330
17
100
AcDbEntity
  8
0
 62
4
100
AcDbText
 10
96.27637412785198
 20
48.263085053697985
 30
0.0
 40
0.17369251856262463
  1
= 49.000
 50
14.999999999999998
 11
96.27637412785198
 21
48.263085053697985
 31
0.0
100
AcDbAttribute
  2
YPOS
 70
0
  0
SEQEND
  5
A2
330
A1
100
AcDbEntity
  8
0
  0
INSERT
  5
A6
330
17
100
AcDbEntity
  8
0
100
AcDbBlockReference
 66
1
  2
FLAG
 10
-80.0
 20
-72.0
 30
0.0
 41
0.5157573023045758
 42
0.5157573023045758
 43
0.5157573023045758
 50
15.0
  0
ATTRIB
  5
A8
330
17
100
AcDbEntity
  8
0
 62
3
100
AcDbText
 10
-79.18598114616668
 20
-72.0488599304659
 30
0.0
 40
0.2578786511522879
  1
P(23)
 50
14.999999999999998
 11
-79.18598114616668
 21
-72.0488599304659
 31
0.0
100
AcDbAttribute
  2
NAME
 70
0
  0
ATTRIB
  5
A9
330
17
100
AcDbEntity
  8
0
 62
4
100
AcDbText
 10
-79.11923723992312
 20
-72.29795157966248
 30
0.0
 40
0.12893932557614396
  1
= -80.000
 50
14.999999999999998
 11
-79.11923723992312
 21
-72.29795157966248
 31
0.0
100
AcDbAttribute
  2
XPOS
 70
0
  0
ATTRIB
  5
AA
330
17
100
AcDbEntity
  8
0
 62
4
100
AcDbText
 10
-79.05249333367956
 20
-72.54704322885907
 30
0.0
 40
0.12893932557614396
  1
= -72.000
 50
14.999999999999998
 11
-79.05249333367956
 21
-72.54704322885907
 31
0.0
100
AcDbAttribute
  2
YPOS
 70
0
  0
SEQEND
  5
A7
330
A6
100
AcDbEntity
  8
0
  0
INSERT
  5
AB
330
17
100
AcDbEntity
  8
0
100
AcDbBlockReference
 66
1
  2
FLAG
 10
27.0
 20
-93.0
 30
0.0
 41
2.289903029880289
 42
2.289903029880289
 43
2.289903029880289
 50
15.0
  0
ATTRIB
  5
AD
330
17
100
AcDbEntity
  8
0
 62
3
100
AcDbText
 10
30.614149972173934
 20
-93.216932464773
 30
0.0
 40
1.1449515149401446
  1
P(24)
 50
14.999999999999998
 11
30.614149972173934
 21
-93.216932464773
 31
0.0
100
AcDbAttribute
  2
NAME
 70
0
  0
ATTRIB
  5
AE
330
17
100
AcDbEntity
  8
0
 62
4
100
AcDbText
 10
30.910485229959423
 20
-94.32287070290248
 30
0.0
 40
0.5724757574700723
  1
= 27.000
 50
14.999999999999998
 11
30.910485229959423
 21
-94.32287070290248
 31
0.0
100
AcDbAttribute
  2
XPOS
 70
0
  0
ATTRIB
  5
AF
330
17
100
AcDbEntity
  8
0
 62
4
100
AcDbText
 10
31.206820487744917
 20
-95.42880894103196
 30
0.0
 40
0.5724757574700723
  1
= -93.000
 50
14.999999999999998
 11
31.206820487744917
 21
-95.42880894103196
 31
0.0
100
AcDbAttribute
  2
YPOS
 70
0
  0
SEQEND
  5
AC
330
AB
100
AcDbEntity
  8
0
  0
INSERT
  5
B0
330
17
100
AcDbEntity
  8
0
100
AcDbBlockReference
 66
1
  2
FLAG
 10
85.0
 20
-18.0
 30
0.0
 41
2.0772783060703643
 42
2.0772783060703643
 43
2.0772783060703643
 50
15.0
  0
ATTRIB
  5
B2
330
17
100
AcDbEntity
  8
0
 62
3
100
AcDbText
 10
88.27856474012971
 20
-18.196789600727715
 30
0.0
 40
1.0386391530351822
  1
P(25)
 50
14.999999999999998
 11
88.27856474012971
 21
-18.196789600727715
 31
0.0
100
AcDbAttribute
  2
NAME
 70
0
  0
ATTRIB
  5
B3
330
17
100
AcDbEntity
  8
0
 62
4
100
AcDbText
 10
88.54738433392437
 20
-19.2000379828394
 30
0.0
 40
0.5193195765175911
  1
= 85.000
 50
14.999999999999998
 11
88.54738433392437
 21
-19.2000379828394
 31
0.0
100
AcDbAttribute
  2
XPOS
 70
0
  0
ATTRIB
  5
B4
330
17
100
AcDbEntity
  8
0
 62
4
100
AcDbText
 10
88.81620392771903
 20
-20.20328636495109
 30
0.0
 40
0.5193195765175911
  1
= -18.000
 50
14.999999999999998
 11
88.81620392771903
 21
-20.20328636495109
 31
0.0
100
AcDbAttribute
  2
YPOS
 70
0
  0
SEQEND
  5
B1
330
B0
100
AcDbEntity
  8
0
  0
INSERT
  5
B5
330
17
100
AcDbEntity
  8
0
100
AcDbBlockReference
 66
1
  2
FLAG
 10
-12.0
 20
13.0
 30
0.0
 41
2.19132610218519
 42
2.19132610218519
 43
2.19132610218519
 50
15.0
  0
ATTRIB
  5
B7
330
17
100
AcDbEntity
  8
0
 62
3
100
AcDbText
 10
-8.54143382147905
 20
12.792406155952683
 30
0.0
 40
1.095663051092595
  1
P(26)
 50
15.000000000000002
 11
-8.54143382147905
 21
12.792406155952683
 31
0.0
100
AcDbAttribute
  2
NAME
 70
0
  0
ATTRIB
  5
B8
330
17
100
AcDbEntity
  8
0
 62
4
100
AcDbText
 10
-8.257855356841151
 20
11.734076917991667
 30
0.0
 40
0.5478315255462975
  1
= -12.000
 50
15.000000000000002
 11
-8.257855356841151
 21
11.734076917991667
 31
0.0
100
AcDbAttribute
  2
XPOS
 70
0
  0
ATTRIB
  5
B9
330
17
100
AcDbEntity
  8
0
 62
4
100
AcDbText
 10
-7.974276892203251
 20
10.67574768003065
 30
0.0
 40
0.5478315255462975
  1
= 13.000
 50
15.000000000000002
 11
-7.974276892203251
 21
10.67574768003065
 31
0.0
100
AcDbAttribute
  2
YPOS
 70
0
  0
SEQEND
  5
B6
330
B5
100
AcDbEntity
  8
0
  0
INSERT
  5
BA
330
17
100
AcDbEntity
  8
0
100
AcDbBlockReference
 66
1
  2
FLAG
 10
69.0
 20
38.0
 30
0.0
 41
0.941479343858272
 42
0.941479343858272
 43
0.941479343858272
 50
15.0
  0
ATTRIB
  5
BC
330
17
100
AcDbEntity
  8
0
 62
3
100
AcDbText
 10
70.48593521210616
 20
37.91080957056652
 30
0.0
 40
0.47073967192913607
  1
P(27)
 50
14.999999999999998
 11
70.48593521210616
 21
37.91080957056652
 31
0.0
100
AcDbAttribute
  2
NAME
 70
0
  0
ATTRIB
  5
BD
330
17
100
AcDbEntity
  8
0
 62
4
100
AcDbText
 10
70.60777160448673
 20
37.456109963991324
 30
0.0
 40
0.23536983596456804
  1
= 69.000
 50
14.999999999999998
 11
70.60777160448673
 21
37.456109963991324
 31
0.0
100
AcDbAttribute
  2
XPOS
 70
0
  0
ATTRIB
  5
BE
330
17
100
AcDbEntity
  8
0
 62
4
100
AcDbText
 10
70.7296079968673
 20
37.001410357416134
 30
0.0
 40
0.23536983596456804
  1
= 38.000
 50
14.999999999999998
 11
70.7296079968673
 21
37.001410357416134
 31
0.0
100
AcDbAttribute
  2
YPOS
 70
0
  0
SEQEND
  5
BB
330
BA
100
AcDbEntity
  8
0
  0
INSERT
  5
BF
330
17
100
AcDbEntity
  8
0
100
AcDbBlockReference
 66
1
  2
FLAG
 10
61.0
 20
40.0
 30
0.0
 41
1.1237724669327178
 42
1.1237724669327178
 43
1.1237724669327178
 50
15.0
  0
ATTRIB
  5
C1
330
17
100
AcDbEntity
  8
0
 62
3
100
AcDbText
 10
62.77364813142635
 20
39.8935401508646
 30
0.0
 40
0.5618862334663589
  1
P(28)
 50
14.999999999999998
 11
62.77364813142635
 21
39.8935401508646
 31
0.0
100
AcDbAttribute
  2
NAME
 70
0
  0
ATTRIB
  5
C2
330
17
100
AcDbEntity
  8
0
 62
4
100
AcDbText
 10
62.91907498982837
 20
39.35079972652316
 30
0.0
 40
0.28094311673317945
  1
= 61.000
 50
14.999999999999998
 11
62.91907498982837
 21
39.35079972652316
 31
0.0
100
AcDbAttribute
  2
XPOS
 70
0
  0
ATTRIB
  5
C3
330
17
100
AcDbEntity
  8
0
 62
4
100
AcDbText
 10
63.06450184823038
 20
38.80805930218171
 30
0.0
 40
0.28094311673317945
  1
= 40.000
 50
14.999999999999998
 11
63.06450184823038
 21
38.80805930218171
 31
0.0
100
AcDbAttribute
  2
YPOS
 70
0
  0
SEQEND
  5
C0
330
BF
100
AcDbEntity
  8
0
  0
INSERT
  5
C4
330
17
100
AcDbEntity
  8
0
100
AcDbBlockReference
 66
1
  2
FLAG
 10
-46.0
 20
4.0
 30
0.0
 41
0.8758171306590292
 42
0.8758171306590292
 43
0.8758171306590292
 50
15.0
  0
ATTRIB
  5
C6
330
17
100
AcDbEntity
  8
0
 62
3
100
AcDbText
 10
-44.617699344864285
 20
3.9170300373574274
 30
0.0
 40
0.4379085653295146
  1
P(29)
 50
14.999999999999998
 11
-44.617699344864285
 21
3.9170300373574274
 31
0.0
100
AcDbAttribute
  2
NAME
 70
0
  0
ATTRIB
  5
C7
330
17
100
AcDbEntity
  8
0
 62
4
100
AcDbText
 10
-44.504360268143486
 20
3.494042844552456
 30
0.0
 40
0.2189542826647573
  1
= -46.000
 50
14.999999999999998
 11
-44.504360268143486
 21
3.494042844552456
 31
0.0
100
AcDbAttribute
  2
XPOS
 70
0
  0
ATTRIB
  5
C8
330
17
100
AcDbEntity
  8
0
 62
4
100
AcDbText
 10
-44.39102119142269
 20
3.071055651747484
 30
0.0
 40
0.2189542826647573
  1
= 4.000
 50
14.999999999999998
 11
-44.39102119142269
 21
3.071055651747484
 31
0.0
100
AcDbAttribute
  2
YPOS
 70
0
  0
SEQEND
  5
C5
330
C4
100
AcDbEntity
  8
0
  0
INSERT
  5
C9
330
17
100
AcDbEntity
  8
0
100
AcDbBlockReference
 66
1
  2
FLAG
 10
-81.0
 20
100.0
 30
0.0
 41
1.8628685363008564
 42
1.8628685363008564
 43
1.8628685363008564
 50
15.0
  0
ATTRIB
  5
CB
330
17
100
AcDbEntity
  8
0
 62
3
100
AcDbText
 10
-78.05983782685007
 20
99.82352236847822
 30
0.0
 40
0.9314342681504282
  1
P(30)
 50
14.999999999999998
 11
-78.05983782685007
 21
99.82352236847822
 31
0.0
100
AcDbAttribute
  2
NAME
 70
0
  0
ATTRIB
  5
CC
330
17
100
AcDbEntity
  8
0
 62
4
100
AcDbText
 10
-77.81876489899162
 20
98.92382595338107
 30
0.0
 40
0.4657171340752141
  1
= -81.000
 50
14.999999999999998
 11
-77.81876489899162
 21
98.92382595338107
 31
0.0
100
AcDbAttribute
  2
XPOS
 70
0
  0
ATTRIB
  5
CD
330
17
100
AcDbEntity
  8
0
 62
4
100
AcDbText
 10
-77.57769197113315
 20
98.02412953828392
 30
0.0
 40
0.4657171340752141
  1
= 100.000
 50
14.999999999999998
 11
-77.57769197113315
 21
98.02412953828392
 31
0.0
100
AcDbAttribute
  2
YPOS
 70
0
  0
SEQEND
  5
CA
330
C9
100
AcDbEntity
  8
0
  0
INSERT
  5
CE
330
17
100
AcDbEntity
  8
0
100
AcDbBlockReference
 66
1
  2
FLAG
 10
32.0
 20
21.0
 30
0.0
 41
1.257788360049055
 42
1.257788360049055
 43
1.257788360049055
 50
15.0
  0
ATTRIB
  5
D0
330
17
100
AcDbEntity
  8
0
 62
3
100
AcDbText
 10
33.98516518261022
 20
20.880844242944864
 30
0.0
 40
0.6288941800245275
  1
P(31)
 50
14.999999999999998
 11
33.98516518261022
 21
20.880844242944864
 31
0.0
100
AcDbAttribute
  2
NAME
 70
0
  0
ATTRIB
  5
D1
330
17
100
AcDbEntity
  8
0
 62
4
100
AcDbText
 10
34.147934973754694
 20
20.273379112456286
 30
0.0
 40
0.31444709001226373
  1
= 32.000
 50
14.999999999999998
 11
34.147934973754694
 21
20.273379112456286
 31
0.0
100
AcDbAttribute
  2
XPOS
 70
0
  0
ATTRIB
  5
D2
330
17
100
AcDbEntity
  8
0
 62
4
100
AcDbText
 10
34.31070476489918
 20
19.66591398196771
 30
0.0
 40
0.31444709001226373
  1
= 21.000
 50
14.999999999999998
 11
34.31070476489918
 21
19.66591398196771
 31
0.0
100
AcDbAttribute
  2
YPOS
 70
0
  0
SEQEND
  5
CF
330
CE
100
AcDbEntity
  8
0
  0
INSERT
  5
D3
330
17
100
AcDbEntity
  8
0
100
AcDbBlockReference
 66
1
  2
FLAG
 10
-92.0
 20
-21.0
 30
0.0
 41
1.0543738884165017
 42
1.0543738884165017
 43
1.0543738884165017
 50
15.0
  0
ATTRIB
  5
D5
330
17
100
AcDbEntity
  8
0
 62
3
100
AcDbText
 10
-90.33588352443002
 20
-21.09988542022168
 30
0.0
 40
0.5271869442082509
  1
P(32)
 50
14.999999999999998
 11
-90.33588352443002
 21
-21.09988542022168
 31
0.0
100
AcDbAttribute
  2
NAME
 70
0
  0
ATTRIB
  5
D6
330
17
100
AcDbEntity
  8
0
 62
4
100
AcDbText
 10
-90.19943750293952
 20
-21.60910890491484
 30
0.0
 40
0.2635934721041254
  1
= -92.000
 50
14.999999999999998
 11
-90.19943750293952
 21
-21.60910890491484
 31
0.0
100
AcDbAttribute
  2
XPOS
 70
0
  0
ATTRIB
  5
D7
330
17
100
AcDbEntity
  8
0
 62
4
100
AcDbText
 10
-90.06299148144902
 20
-22.118332389608003
 30
0.0
 40
0.2635934721041254
  1
= -21.000
 50
14.999999999999998
 11
-90.06299148144902
 21
-22.118332389608003
 31
0.0
100
AcDbAttribute
  2
YPOS
 70
0
  0
SEQEND
  5
D4
330
D3
100
AcDbEntity
  8
0
  0
INSERT
  5
D8
330
17
100
AcDbEntity
  8
0
100
AcDbBlockReference
 66
1
  2
FLAG
 10
-30.0
 20
17.0
 30
0.0
 41
1.6151314144519207
 42
1.6151314144519207
 43
1.6151314144519207
 50
15.0
  0
ATTRIB
  5
DA
330
17
100
AcDbEntity
  8
0
 62
3
100
AcDbText
 10
-27.450840895693382
 20
16.846991582570343
 30
0.0
 40
0.8075657072259603
  1
P(33)
 50
14.999999999999998
 11
-27.450840895693382
 21
16.846991582570343
 31
0.0
100
AcDbAttribute
  2
NAME
 70
0
  0
ATTRIB
  5
DB
330
17
100
AcDbEntity
  8
0
 62
4
100
AcDbText
 10
-27.241827510491618
 20
16.066943009535393
 30
0.0
 40
0.40378285361298016
  1
= -30.000
 50
14.999999999999998
 11
-27.241827510491618
 21
16.066943009535393
 31
0.0
100
AcDbAttribute
  2
XPOS
 70
0
  0
ATTRIB
  5
DC
330
17
100
AcDbEntity
  8
0
 62
4
100
AcDbText
 10
-27.03281412528985
 20
15.28689443650044
 30
0.0
 40
0.40378285361298016
  1
= 17.000
 50
14.999999999999998
 11
-27.03281412528985
 21
15.28689443650044
 31
0.0
100
AcDbAttribute
  2
YPOS
 70
0
  0
SEQEND
  5
D9
330
D8
100
AcDbEntity
  8
0
  0
INSERT
  5
DD
330
17
100
AcDbEntity
  8
0
100
AcDbBlockReference
 66
1
  2
FLAG
 10
-19.0
 20
-47.0
 30
0.0
 41
1.972525633517383
 42
1.972525633517383
 43
1.972525633517383
 50
15.0
  0
ATTRIB
  5
DF
330
17
100
AcDbEntity
  8
0
 62
3
100
AcDbText
 10
-15.886766220898924
 20
-47.186865924855
 30
0.0
 40
0.9862628167586915
  1
P(34)
 50
14.999999999999998
 11
-15.886766220898924
 21
-47.186865924855
 31
0.0
100
AcDbAttribute
  2
NAME
 70
0
  0
ATTRIB
  5
E0
330
17
100
AcDbEntity
  8
0
 62
4
100
AcDbText
 10
-15.631502620445318
 20
-48.13952265107083
 30
0.0
 40
0.49313140837934577
  1
= -19.000
 50
14.999999999999998
 11
-15.631502620445318
 21
-48.13952265107083
 31
0.0
100
AcDbAttribute
  2
XPOS
 70
0
  0
ATTRIB
  5
E1
330
17
100
AcDbEntity
  8
0
 62
4
100
AcDbText
 10
-15.37623901999171
 20
-49.09217937728665
 30
0.0
 40
0.49313140837934577
  1
= -47.000
 50
14.999999999999998
 11
-15.37623901999171
 21
-49.09217937728665
 31
0.0
100
AcDbAttribute
  2
YPOS
 70
0
  0
SEQEND
  5
DE
330
DD
100
AcDbEntity
  8
0
  0
INSERT
  5
E2
330
17
100
AcDbEntity
  8
0
100
AcDbBlockReference
 66
1
  2
FLAG
 10
-36.0
 20
85.0
 30
0.0
 41
1.1793744474271353
 42
1.1793744474271353
 43
1.1793744474271353
 50
15.0
  0
ATTRIB
  5
E4
330
17
100
AcDbEntity
  8
0
 62
3
100
AcDbText
 10
-34.1385953593964
 20
84.88827273363447
 30
0.0
 40
0.5896872237135675
  1
P(35)
 50
14.999999999999998
 41
1.0000000000000002
 11
-34.1385953593964
 21
84.88827273363447
 31
0.0
100
AcDbAttribute
  2
NAME
 70
0
  0
ATTRIB
  5
E5
330
17
100
AcDbEntity
  8
0
 62
4
100
AcDbText
 10
-33.985973075245695
 20
84.31867861481683
 30
0.0
 40
0.29484361185678376
  1
= -36.000
 50
14.999999999999998
 41
1.0000000000000002
 11
-33.985973075245695
 21
84.31867861481683
 31
0.0
100
AcDbAttribute
  2
XPOS
 70
0
  0
ATTRIB
  5
E6
330
17
100
AcDbEntity
  8
0
 62
4
100
AcDbText
 10
-33.83335079109499
 20
83.7490844959992
 30
0.0
 40
0.29484361185678376
  1
= 85.000
 50
14.999999999999998
 41
1.0000000000000002
 11
-33.83335079109499
 21
83.7490844959992
 31
0.0
100
AcDbAttribute
  2
YPOS
 70
0
  0
SEQEND
  5
E3
330
E2
100
AcDbEntity
  8
0
  0
INSERT
  5
E7
330
17
100
AcDbEntity
  8
0
100
AcDbBlockReference
 66
1
  2
FLAG
 10
-51.0
 20
-46.0
 30
0.0
 41
1.8265744058040896
 42
1.8265744058040896
 43
1.8265744058040896
 50
15.0
  0
ATTRIB
  5
E9
330
17
100
AcDbEntity
  8
0
 62
3
100
AcDbText
 10
-48.117120789933374
 20
-46.17303933082401
 30
0.0
 40
0.9132872029020448
  1
P(36)
 50
14.999999999999998
 11
-48.117120789933374
 21
-46.17303933082401
 31
0.0
100
AcDbAttribute
  2
NAME
 70
0
  0
ATTRIB
  5
EA
330
17
100
AcDbEntity
  8
0
 62
4
100
AcDbText
 10
-47.88074466817391
 20
-47.055207026926404
 30
0.0
 40
0.4566436014510224
  1
= -51.000
 50
14.999999999999998
 11
-47.88074466817391
 21
-47.055207026926404
 31
0.0
100
AcDbAttribute
  2
XPOS
 70
0
  0
ATTRIB
  5
EB
330
17
100
AcDbEntity
  8
0
 62
4
100
AcDbText
 10
-47.644368546414455
 20
-47.93737472302879
 30
0.0
 40
0.4566436014510224
  1
= -46.000
 50
14.999999999999998
 11
-47.644368546414455
 21
-47.93737472302879
 31
0.0
100
AcDbAttribute
  2
YPOS
 70
0
  0
SEQEND
  5
E8
330
E7
100
AcDbEntity
  8
0
  0
INSERT
  5
EC
330
17
100
AcDbEntity
  8
0
100
AcDbBlockReference
 66
1
  2
FLAG
 10
66.0
 20
5.0
 30
0.0
 41
1.0283087182074964
 42
1.0283087182074964
 43
1.0283087182074964
 50
15.0
  0
ATTRIB
  5
EE
330
17
100
AcDbEntity
  8
0
 62
3
100
AcDbText
 10
67.62297786273078
 20
4.902583846618177
 30
0.0
 40
0.5141543591037482
  1
P(37)
 50
14.999999999999998
 11
67.62297786273078
 21
4.902583846618177
 31
0.0
100
AcDbAttribute
  2
NAME
 70
0
  0
ATTRIB
  5
EF
330
17
100
AcDbEntity
  8
0
 62
4
100
AcDbText
 10
67.75605080298931
 20
4.405948872460764
 30
0.0
 40
0.2570771795518741
  1
= 66.000
 50
14.999999999999998
 11
67.75605080298931
 21
4.405948872460764
 31
0.0
100
AcDbAttribute
  2
XPOS
 70
0
  0
ATTRIB
  5
F0
330
17
100
AcDbEntity
  8
0
 62
4
100
AcDbText
 10
67.88912374324784
 20
3.909313898303349
 30
0.0
 40
0.2570771795518741
  1
= 5.000
 50
14.999999999999998
 11
67.88912374324784
 21
3.909313898303349
 31
0.0
100
AcDbAttribute
  2
YPOS
 70
0
  0
SEQEND
  5
ED
330
EC
100
AcDbEntity
  8
0
  0
INSERT
  5
F1
330
17
100
AcDbEntity
  8
0
100
AcDbBlockReference
 66
1
  2
FLAG
 10
-71.0
 20
-33.0
 30
0.0
 41
2.2269575510100585
 42
2.2269575510100585
 43
2.2269575510100585
 50
15.0
  0
ATTRIB
  5
F3
330
17
100
AcDbEntity
  8
0
 62
3
100
AcDbText
 10
-67.48519676772676
 20
-33.210969366030625
 30
0.0
 40
1.1134787755050293
  1
P(38)
 50
14.999999999999998
 11
-67.48519676772676
 21
-33.210969366030625
 31
0.0
100
AcDbAttribute
  2
NAME
 70
0
  0
ATTRIB
  5
F4
330
17
100
AcDbEntity
  8
0
 62
4
100
AcDbText
 10
-67.19700725430862
 20
-34.28650727231566
 30
0.0
 40
0.5567393877525146
  1
= -71.000
 50
14.999999999999998
 11
-67.19700725430862
 21
-34.28650727231566
 31
0.0
100
AcDbAttribute
  2
XPOS
 70
0
  0
ATTRIB
  5
F5
330
17
100
AcDbEntity
  8
0
 62
4
100
AcDbText
 10
-66.90881774089048
 20
-35.3620451786007
 30
0.0
 40
0.5567393877525146
  1
= -33.000
 50
14.999999999999998
 11
-66.90881774089048
 21
-35.3620451786007
 31
0.0
100
AcDbAttribute
  2
YPOS
 70
0
  0
SEQEND
  5
F2
330
F1
100
AcDbEntity
  8
0
  0
INSERT
  5
F6
330
17
100
AcDbEntity
  8
0
100
AcDbBlockReference
 66
1
  2
FLAG
 10
-97.0
 20
11.0
 30
0.0
 41
0.7686628448951041
 42
0.7686628448951041
 43
0.7686628448951041
 50
15.0
  0
ATTRIB
  5
F8
330
17
100
AcDbEntity
  8
0
 62
3
100
AcDbText
 10
-95.78682076784972
 20
10.927181228485802
 30
0.0
 40
0.38433142244755203
  1
P(39)
 50
14.999999999999998
 11
-95.78682076784972
 21
10.927181228485802
 31
0.0
100
AcDbAttribute
  2
NAME
 70
0
  0
ATTRIB
  5
F9
330
17
100
AcDbEntity
  8
0
 62
4
100
AcDbText
 10
-95.68734847608894
 20
10.555945581689297
 30
0.0
 40
0.19216571122377601
  1
= -97.000
 50
14.999999999999998
 11
-95.68734847608894
 21
10.555945581689297
 31
0.0
100
AcDbAttribute
  2
XPOS
 70
0
  0
ATTRIB
  5
FA
330
17
100
AcDbEntity
  8
0
 62
4
100
AcDbText
 10
-95.58787618432818
 20
10.184709934892792
 30
0.0
 40
0.19216571122377601
  1
= 11.000
 50
14.999999999999998
 11
-95.58787618432818
 21
10.184709934892792
 31
0.0
100
AcDbAttribute
  2
YPOS
 70
0
  0
SEQEND
  5
F7
330
F6
100
AcDbEntity
  8
0
  0
INSERT
  5
FB
330
17
100
AcDbEntity
  8
0
100
AcDbBlockReference
 66
1
  2
FLAG
 10
-75.0
 20
5.0
 30
0.0
 41
1.58015402530251
 42
1.58015402530251
 43
1.58015402530251
 50
15.0
  0
ATTRIB
  5
FD
330
17
100
AcDbEntity
  8
0
 62
3
100
AcDbText
 10
-72.50604564819666
 20
4.850305142638388
 30
0.0
 40
0.790077012651255
  1
P(40)
 50
14.999999999999998
 11
-72.50604564819666
 21
4.850305142638388
 31
0.0
100
AcDbAttribute
  2
NAME
 70
0
  0
ATTRIB
  5
FE
330
17
100
AcDbEntity
  8
0
 62
4
100
AcDbText
 10
-72.30155867022481
 20
4.087149351361226
 30
0.0
 40
0.3950385063256275
  1
= -75.000
 50
14.999999999999998
 11
-72.30155867022481
 21
4.087149351361226
 31
0.0
100
AcDbAttribute
  2
XPOS
 70
0
  0
ATTRIB
  5
FF
330
17
100
AcDbEntity
  8
0
 62
4
100
AcDbText
 10
-72.09707169225297
 20
3.3239935600840638
 30
0.0
 40
0.3950385063256275
  1
= 5.000
 50
14.999999999999998
 11
-72.09707169225297
 21
3.3239935600840638
 31
0.0
100
AcDbAttribute
  2
YPOS
 70
0
  0
SEQEND
  5
FC
330
FB
100
AcDbEntity
  8
0
  0
INSERT
  5
100
330
17
100
AcDbEntity
  8
0
100
AcDbBlockReference
 66
1
  2
FLAG
 10
42.0
 20
-72.0
 30
0.0
 41
1.0975973494190099
 42
1.0975973494190099
 43
1.0975973494190099
 50
15.0
  0
ATTRIB
  5
102
330
17
100
AcDbEntity
  8
0
 62
3
100
AcDbText
 10
43.73233598894721
 20
-72.1039801665096
 30
0.0
 40
0.5487986747095049
  1
P(41)
 50
14.999999999999998
 11
43.73233598894721
 21
-72.1039801665096
 31
0.0
100
AcDbAttribute
  2
NAME
 70
0
  0
ATTRIB
  5
103
330
17
100
AcDbEntity
  8
0
 62
4
100
AcDbText
 10
43.87437553788906
 20
-72.63407897984472
 30
0.0
 40
0.27439933735475247
  1
= 42.000
 50
14.999999999999998
 11
43.87437553788906
 21
-72.63407897984472
 31
0.0
100
AcDbAttribute
  2
XPOS
 70
0
  0
ATTRIB
  5
104
330
17
100
AcDbEntity
  8
0
 62
4
100
AcDbText
 10
44.016415086830904
 20
-73.16417779317985
 30
0.0
 40
0.27439933735475247
  1
= -72.000
 50
14.999999999999998
 11
44.016415086830904
 21
-73.16417779317985
 31
0.0
100
AcDbAttribute
  2
YPOS
 70
0
  0
SEQEND
  5
101
330
100
100
AcDbEntity
  8
0
  0
INSERT
  5
105
330
17
100
AcDbEntity
  8
0
100
AcDbBlockReference
 66
1
  2
FLAG
 10
54.0
 20
87.0
 30
0.0
 41
1.8749271037336692
 42
1.8749271037336692
 43
1.8749271037336692
 50
15.0
  0
ATTRIB
  5
107
330
17
100
AcDbEntity
  8
0
 62
3
100
AcDbText
 10
56.959194189171164
 20
86.82238000798492
 30
0.0
 40
0.9374635518668346
  1
P(42)
 50
14.999999999999998
 11
56.959194189171164
 21
86.82238000798492
 31
0.0
100
AcDbAttribute
  2
NAME
 70
0
  0
ATTRIB
  5
108
330
17
100
AcDbEntity
  8
0
 62
4
100
AcDbText
 10
57.201827610483754
 20
85.91685975203205
 30
0.0
 40
0.4687317759334173
  1
= 54.000
 50
14.999999999999998
 11
57.201827610483754
 21
85.91685975203205
 31
0.0
100
AcDbAttribute
  2
XPOS
 70
0
  0
ATTRIB
  5
109
330
17
100
AcDbEntity
  8
0
 62
4
100
AcDbText
 10
57.444461031796344
 20
85.0113394960792
 30
0.0
 40
0.4687317759334173
  1
= 87.000
 50
14.999999999999998
 11
57.444461031796344
 21
85.0113394960792
 31
0.0
100
AcDbAttribute
  2
YPOS
 70
0
  0
SEQEND
  5
106
330
105
100
AcDbEntity
  8
0
  0
INSERT
  5
10A
330
17
100
AcDbEntity
  8
0
100
AcDbBlockReference
 66
1
  2
FLAG
 10
-94.0
 20
-74.0
 30
0.0
 41
1.0077992869694878
 42
1.0077992869694878
 43
1.0077992869694878
 50
15.0
  0
ATTRIB
  5
10C
330
17
100
AcDbEntity
  8
0
 62
3
100
AcDbText
 10
-92.40939213694648
 20
-74.0954732058371
 30
0.0
 40
0.5038996434847439
  1
P(43)
 50
14.999999999999998
 11
-92.40939213694648
 21
-74.0954732058371
 31
0.0
100
AcDbAttribute
  2
NAME
 70
0
  0
ATTRIB
  5
10D
330
17
100
AcDbEntity
  8
0
 62
4
100
AcDbText
 10
-92.27897331239225
 20
-74.58220288533687
 30
0.0
 40
0.25194982174237196
  1
= -94.000
 50
14.999999999999998
 11
-92.27897331239225
 21
-74.58220288533687
 31
0.0
100
AcDbAttribute
  2
XPOS
 70
0
  0
ATTRIB
  5
10E
330
17
100
AcDbEntity
  8
0
 62
4
100
AcDbText
 10
-92.14855448783803
 20
-75.06893256483664
 30
0.0
 40
0.25194982174237196
  1
= -74.000
 50
14.999999999999998
 11
-92.14855448783803
 21
-75.06893256483664
 31
0.0
100
AcDbAttribute
  2
YPOS
 70
0
  0
SEQEND
  5
10B
330
10A
100
AcDbEntity
  8
0
  0
INSERT
  5
10F
330
17
100
AcDbEntity
  8
0
100
AcDbBlockReference
 66
1
  2
FLAG
 10
-24.0
 20
-63.0
 30
0.0
 41
1.0209725893832804
 42
1.0209725893832804
 43
1.0209725893832804
 50
15.0
  0
ATTRIB
  5
111
330
17
100
AcDbEntity
  8
0
 62
3
100
AcDbText
 10
-22.388600736642182
 20
-63.09672117001922
 30
0.0
 40
0.5104862946916402
  1
P(44)
 50
14.999999999999998
 11
-22.388600736642182
 21
-63.09672117001922
 31
0.0
100
AcDbAttribute
  2
NAME
 70
0
  0
ATTRIB
  5
112
330
17
100
AcDbEntity
  8
0
 62
4
100
AcDbText
 10
-22.25647716131217
 20
-63.58981306602849
 30
0.0
 40
0.2552431473458201
  1
= -24.000
 50
14.999999999999998
 11
-22.25647716131217
 21
-63.58981306602849
 31
0.0
100
AcDbAttribute
  2
XPOS
 70
0
  0
ATTRIB
  5
113
330
17
100
AcDbEntity
  8
0
 62
4
100
AcDbText
 10
-22.124353585982156
 20
-64.08290496203776
 30
0.0
 40
0.2552431473458201
  1
= -63.000
 50
14.999999999999998
 11
-22.124353585982156
 21
-64.08290496203776
 31
0.0
100
AcDbAttribute
  2
YPOS
 70
0
  0
SEQEND
  5
110
330
10F
100
AcDbEntity
  8
0
  0
INSERT
  5
114
330
17
100
AcDbEntity
  8
0
100
AcDbBlockReference
 66
1
  2
FLAG
 10
83.0
 20
-64.0
 30
0.0
 41
1.1605913426308114
 42
1.1605913426308114
 43
1.1605913426308114
 50
15.0
  0
ATTRIB
  5
116
330
17
100
AcDbEntity
  8
0
 62
3
100
AcDbText
 10
84.83175929894888
 20
-64.10994786122636
 30
0.0
 40
0.5802956713154058
  1
P(45)
 50
14.999999999999996
 11
84.83175929894888
 21
-64.10994786122636
 31
0.0
100
AcDbAttribute
  2
NAME
 70
0
  0
ATTRIB
  5
117
330
17
100
AcDbEntity
  8
0
 62
4
100
AcDbText
 10
84.98195087047587
 20
-64.67047043703367
 30
0.0
 40
0.2901478356577029
  1
= 83.000
 50
14.999999999999996
 11
84.98195087047587
 21
-64.67047043703367
 31
0.0
100
AcDbAttribute
  2
XPOS
 70
0
  0
ATTRIB
  5
118
330
17
100
AcDbEntity
  8
0
 62
4
100
AcDbText
 10
85.13214244200284
 20
-65.23099301284097
 30
0.0
 40
0.2901478356577029
  1
= -64.000
 50
14.999999999999996
 11
85.13214244200284
 21
-65.23099301284097
 31
0.0
100
AcDbAttribute
  2
YPOS
 70
0
  0
SEQEND
  5
115
330
114
100
AcDbEntity
  8
0
  0
INSERT
  5
119
330
17
100
AcDbEntity
  8
0
100
AcDbBlockReference
 66
1
  2
FLAG
 10
8.0
 20
77.0
 30
0.0
 41
1.2829166868063697
 42
1.2829166868063697
 43
1.2829166868063697
 50
15.0
  0
ATTRIB
  5
11B
330
17
100
AcDbEntity
  8
0
 62
3
100
AcDbText
 10
10.024825177057872
 20
76.87846372735623
 30
0.0
 40
0.6414583434031849
  1
P(46)
 50
14.999999999999998
 11
10.024825177057872
 21
76.87846372735623
 31
0.0
100
AcDbAttribute
  2
NAME
 70
0
  0
ATTRIB
  5
11C
330
17
100
AcDbEntity
  8
0
 62
4
100
AcDbText
 10
10.190846812970529
 20
76.2588625469745
 30
0.0
 40
0.32072917170159243
  1
= 8.000
 50
14.999999999999998
 11
10.190846812970529
 21
76.2588625469745
 31
0.0
100
AcDbAttribute
  2
XPOS
 70
0
  0
ATTRIB
  5
11D
330
17
100
AcDbEntity
  8
0
 62
4
100
AcDbText
 10
10.356868448883187
 20
75.63926136659276
 30
0.0
 40
0.32072917170159243
  1
= 77.000
 50
14.999999999999998
 11
10.356868448883187
 21
75.63926136659276
 31
0.0
100
AcDbAttribute
  2
YPOS
 70
0
  0
SEQEND
  5
11A
330
119
100
AcDbEntity
  8
0
  0
INSERT
  5
11E
330
17
100
AcDbEntity
  8
0
100
AcDbBlockReference
 66
1
  2
FLAG
 10
-85.0
 20
-92.0
 30
0.0
 41
1.5579976864073553
 42
1.5579976864073553
 43
1.5579976864073553
 50
15.0
  0
ATTRIB
  5
120
330
17
100
AcDbEntity
  8
0
 62
3
100
AcDbText
 10
-82.54101495936683
 20
-92.14759589109791
 30
0.0
 40
0.7789988432036776
  1
P(47)
 50
14.999999999999998
 11
-82.54101495936683
 21
-92.14759589109791
 31
0.0
100
AcDbAttribute
  2
NAME
 70
0
  0
ATTRIB
  5
121
330
17
100
AcDbEntity
  8
0
 62
4
100
AcDbText
 10
-82.33939522263289
 20
-92.90005099239765
 30
0.0
 40
0.3894994216018388
  1
= -85.000
 50
14.999999999999998
 11
-82.33939522263289
 21
-92.90005099239765
 31
0.0
100
AcDbAttribute
  2
XPOS
 70
0
  0
ATTRIB
  5
122
330
17
100
AcDbEntity
  8
0
 62
4
100
AcDbText
 10
-82.13777548589894
 20
-93.65250609369738
 30
0.0
 40
0.3894994216018388
  1
= -92.000
 50
14.999999999999998
 11
-82.13777548589894
 21
-93.65250609369738
 31
0.0
100
AcDbAttribute
  2
YPOS
 70
0
  0
SEQEND
  5
11F
330
11E
100
AcDbEntity
  8
0
  0
INSERT
  5
123
330
17
100
AcDbEntity
  8
0
100
AcDbBlockReference
 66
1
  2
FLAG
 10
12.0
 20
0.0
 30
0.0
 41
2.4038635945479063
 42
2.4038635945479063
 43
2.4038635945479063
 50
15.0
  0
ATTRIB
  5
125
330
17
100
AcDbEntity
  8
0
 62
3
100
AcDbText
 10
15.794013733323645
 20
-0.22772844427854477
 30
0.0
 40
1.2019317972739532
  1
P(48)
 50
14.999999999999998
 11
15.794013733323645
 21
-0.22772844427854477
 31
0.0
100
AcDbAttribute
  2
NAME
 70
0
  0
ATTRIB
  5
126
330
17
100
AcDbEntity
  8
0
 62
4
100
AcDbText
 10
16.105096573372446
 20
-1.388705408703493
 30
0.0
 40
0.6009658986369766
  1
= 12.000
 50
14.999999999999998
 11
16.105096573372446
 21
-1.388705408703493
 31
0.0
100
AcDbAttribute
  2
XPOS
 70
0
  0
ATTRIB
  5
127
330
17
100
AcDbEntity
  8
0
 62
4
100
AcDbText
 10
16.416179413421247
 20
-2.549682373128441
 30
0.0
 40
0.6009658986369766
  1
= 0.000
 50
14.999999999999998
 11
16.416179413421247
 21
-2.549682373128441
 31
0.0
100
AcDbAttribute
  2
YPOS
 70
0
  0
SEQEND
  5
124
330
123
100
AcDbEntity
  8
0
  0
INSERT
  5
128
330
17
100
AcDbEntity
  8
0
100
AcDbBlockReference
 66
1
  2
FLAG
 10
36.0
 20
84.0
 30
0.0
 41
1.3467773097438285
 42
1.3467773097438285
 43
1.3467773097438285
 50
15.0
  0
ATTRIB
  5
12A
330
17
100
AcDbEntity
  8
0
 62
3
100
AcDbText
 10
38.125616287249336
 20
83.87241393303962
 30
0.0
 40
0.6733886548719142
  1
P(49)
 50
14.999999999999998
 11
38.125616287249336
 21
83.87241393303962
 31
0.0
100
AcDbAttribute
  2
NAME
 70
0
  0
ATTRIB
  5
12B
330
17
100
AcDbEntity
  8
0
 62
4
100
AcDbText
 10
38.299902095886154
 20
83.22197044016879
 30
0.0
 40
0.3366943274359571
  1
= 36.000
 50
14.999999999999998
 11
38.299902095886154
 21
83.22197044016879
 31
0.0
100
AcDbAttribute
  2
XPOS
 70
0
  0
ATTRIB
  5
12C
330
17
100
AcDbEntity
  8
0
 62
4
100
AcDbText
 10
38.47418790452297
 20
82.57152694729794
 30
0.0
 40
0.3366943274359571
  1
= 84.000
 50
14.999999999999998
 11
38.47418790452297
 21
82.57152694729794
 31
0.0
100
AcDbAttribute
  2
YPOS
 70
0
  0
SEQEND
  5
129
330
128
100
AcDbEntity
  8
0
  0
INSERT
  5
12D
330
17
100
AcDbEntity
  8
0
100
AcDbBlockReference
 66
1
  2
FLAG
 10
-29.0
 20
90.0
 30
0.0
 41
2.081507209334924
 42
2.081507209334924
 43
2.081507209334924
 50
15.0
  0
ATTRIB
  5
12F
330
17
100
AcDbEntity
  8
0
 62
3
100
AcDbText
 10
-25.714760789197726
 20
89.80280977688938
 30
0.0
 40
1.040753604667462
  1
P(50)
 50
14.999999999999998
 11
-25.714760789197726
 21
89.80280977688938
 31
0.0
100
AcDbAttribute
  2
NAME
 70
0
  0
ATTRIB
  5
130
330
17
100
AcDbEntity
  8
0
 62
4
100
AcDbText
 10
-25.44539393505069
 20
88.79751899133763
 30
0.0
 40
0.520376802333731
  1
= -29.000
 50
14.999999999999998
 11
-25.44539393505069
 21
88.79751899133763
 31
0.0
100
AcDbAttribute
  2
XPOS
 70
0
  0
ATTRIB
  5
131
330
17
100
AcDbEntity
  8
0
 62
4
100
AcDbText
 10
-25.17602708090365
 20
87.79222820578589
 30
0.0
 40
0.520376802333731
  1
= 90.000
 50
14.999999999999998
 11
-25.17602708090365
 21
87.79222820578589
 31
0.0
100
AcDbAttribute
  2
YPOS
 70
0
  0
SEQEND
  5
12E
330
12D
100
AcDbEntity
  8
0
  0
ENDSEC
  0
SECTION
  2
OBJECTS
  0
DICTIONARY
  5
A
330
0
100
AcDbDictionary
280
0
281
1
  3
ACAD_COLOR
350
B
  3
ACAD_GROUP
350
C
  3
ACAD_LAYOUT
350
D
  3
ACAD_MATERIAL
350
E
  3
ACAD_MLEADERSTYLE
350
F
  3
ACAD_MLINESTYLE
350
10
  3
ACAD_PLOTSETTINGS
350
11
  3
ACAD_PLOTSTYLENAME
350
12
  3
ACAD_SCALELIST
350
14
  3
ACAD_TABLESTYLE
350
15
  3
ACAD_VISUALSTYLE
350
16
  3
EZDXF_META
350
2D
  0
DICTIONARY
  5
B
330
A
100
AcDbDictionary
280
0
281
1
  0
DICTIONARY
  5
C
330
A
100
AcDbDictionary
280
0
281
1
  0
DICTIONARY
  5
D
330
A
100
AcDbDictionary
280
0
281
1
  3
Model
350
1A
  3
Layout1
350
1E
  0
DICTIONARY
  5
E
330
A
100
AcDbDictionary
280
0
281
1
  3
ByBlock
350
1F
  3
ByLayer
350
20
  3
Global
350
21
  0
DICTIONARY
  5
F
330
A
100
AcDbDictionary
280
0
281
1
  3
Standard
350
2C
  0
DICTIONARY
  5
10
330
A
100
AcDbDictionary
280
0
281
1
  3
Standard
350
22
  0
DICTIONARY
  5
11
330
A
100
AcDbDictionary
280
0
281
1
  0
ACDBDICTIONARYWDFLT
  5
12
330
A
100
AcDbDictionary
280
0
281
1
  3
Normal
350
13
100
AcDbDictionaryWithDefault
340
13
  0
ACDBPLACEHOLDER
  5
13
330
12
  0
DICTIONARY
  5
14
330
A
100
AcDbDictionary
280
0
281
1
  0
DICTIONARY
  5
15
330
A
100
AcDbDictionary
280
0
281
1
  0
DICTIONARY
  5
16
330
A
100
AcDbDictionary
280
0
281
1
  0
LAYOUT
  5
1A
330
D
100
AcDbPlotSettings
  1

  4
A3
  6

 40
7.5
 41
20.0
 42
7.5
 43
20.0
 44
420.0
 45
297.0
 46
0.0
 47
0.0
 48
0.0
 49
0.0
140
0.0
141
0.0
142
1.0
143
1.0
 70
1024
 72
1
 73
0
 74
5
  7

 75
16
 76
0
 77
2
 78
300
147
1.0
148
0.0
149
0.0
100
AcDbLayout
  1
Model
 70
1
 71
0
 10
0.0
 20
0.0
 11
420.0
 21
297.0
 12
0.0
 22
0.0
 32
0.0
 14
1e+20
 24
1e+20
 34
1e+20
 15
-1e+20
 25
-1e+20
 35
-1e+20
146
0.0
 13
0.0
 23
0.0
 33
0.0
 16
1.0
 26
0.0
 36
0.0
 17
0.0
 27
1.0
 37
0.0
 76
1
330
17
  0
LAYOUT
  5
1E
330
D
100
AcDbPlotSettings
  1

  4
A3
  6

 40
7.5
 41
20.0
 42
7.5
 43
20.0
 44
420.0
 45
297.0
 46
0.0
 47
0.0
 48
0.0
 49
0.0
140
0.0
141
0.0
142
1.0
143
1.0
 70
0
 72
1
 73
0
 74
5
  7

 75
16
 76
0
 77
2
 78
300
147
1.0
148
0.0
149
0.0
100
AcDbLayout
  1
Layout1
 70
1
 71
1
 10
0.0
 20
0.0
 11
420.0
 21
297.0
 12
0.0
 22
0.0
 32
0.0
 14
1e+20
 24
1e+20
 34
1e+20
 15
-1e+20
 25
-1e+20
 35
-1e+20
146
0.0
 13
0.0
 23
0.0
 33
0.0
 16
1.0
 26
0.0
 36
0.0
 17
0.0
 27
1.0
 37
0.0
 76
1
330
1B
  0
MATERIAL
  5
1F
102
{ACAD_REACTORS
330
E
102
}
330
E
100
AcDbMaterial
  1
ByBlock
  2

 70
0
 40
1.0
 71
1
 41
1.0
 91
-1023410177
 42
1.0
 72
1
  3

 73
1
 74
1
 75
1
 44
0.5
 73
0
 45
1.0
 46
1.0
 77
1
  4

 78
1
 79
1
170
1
 48
1.0
171
1
  6

172
1
173
1
174
1
140
1.0
141
1.0
175
1
  7

176
1
177
1
178
1
143
1.0
179
1
  8

270
1
271
1
272
1
145
1.0
146
1.0
273
1
  9

274
1
275
1
276
1
 42
1.0
 72
1
  3

 73
1
 74
1
 75
1
 94
63
  0
MATERIAL
  5
20
102
{ACAD_REACTORS
330
E
102
}
330
E
100
AcDbMaterial
  1
ByLayer
  2

 70
0
 40
1.0
 71
1
 41
1.0
 91
-1023410177
 42
1.0
 72
1
  3

 73
1
 74
1
 75
1
 44
0.5
 73
0
 45
1.0
 46
1.0
 77
1
  4

 78
1
 79
1
170
1
 48
1.0
171
1
  6

172
1
173
1
174
1
140
1.0
141
1.0
175
1
  7

176
1
177
1
178
1
143
1.0
179
1
  8

270
1
271
1
272
1
145
1.0
146
1.0
273
1
  9

274
1
275
1
276
1
 42
1.0
 72
1
  3

 73
1
 74
1
 75
1
 94
63
  0
MATERIAL
  5
21
102
{ACAD_REACTORS
330
E
102
}
330
E
100
AcDbMaterial
  1
Global
  2

 70
0
 40
1.0
 71
1
 41
1.0
 91
-1023410177
 42
1.0
 72
1
  3

 73
1
 74
1
 75
1
 44
0.5
 73
0
 45
1.0
 46
1.0
 77
1
  4

 78
1
 79
1
170
1
 48
1.0
171
1
  6

172
1
173
1
174
1
140
1.0
141
1.0
175
1
  7

176
1
177
1
178
1
143
1.0
179
1
  8

270
1
271
1
272
1
145
1.0
146
1.0
273
1
  9

274
1
275
1
276
1
 42
1.0
 72
1
  3

 73
1
 74
1
 75
1
 94
63
  0
MLINESTYLE
  5
22
102
{ACAD_REACTORS
330
10
102
}
330
10
100
AcDbMlineStyle
  2
Standard
 70
0
  3

 62
256
 51
90.0
 52
90.0
 71
2
 49
0.5
 62
256
  6
BYLAYER
 49
-0.5
 62
256
  6
BYLAYER
  0
MLEADERSTYLE
  5
2C
102
{ACAD_REACTORS
330
F
102
}
330
F
100
AcDbMLeaderStyle
179
2
170
2
171
1
172
0
 90
2
 40
0.0
 41
0.0
173
1
 91
-1056964608
 92
-2
290
1
 42
2.0
291
1
 43
8.0
  3
Standard
 44
4.0
300

342
29
174
1
175
1
176
0
178
1
 93
-1056964608
 45
4.0
292
0
297
0
 46
4.0
 94
-1056964608
 47
1.0
 49
1.0
140
1.0
294
1
141
0.0
177
0
142
1.0
295
0
296
0
143
3.75
271
0
272
9
273
9
  0
DICTIONARY
  5
2D
330
A
100
AcDbDictionary
280
1
281
1
  3
CREATED_BY_EZDXF
350
2E
  3
WRITTEN_BY_EZDXF
350
134
  0
DICTIONARYVAR
  5
2E
330
2D
100
DictionaryVariables
280
0
  1
1.3.5 @ 2025-03-31T22:10:09.948651+00:00
  0
DICTIONARYVAR
  5
134
330
2D
100
DictionaryVariables
280
0
  1
1.3.5 @ 2025-03-31T22:10:09.958653+00:00
  0
ENDSEC
  0
EOF
