  0
SECTION
  2
HEADER
  9
$ACADVER
  1
AC1024
  9
$ACADMAINTVER
 70
6
  9
$DWGCODEPAGE
  3
ANSI_1252
  9
$LASTSAVEDBY
  1
ezdxf
  9
$INSBASE
 10
0.0
 20
0.0
 30
0.0
  9
$EXTMIN
 10
1e+20
 20
1e+20
 30
1e+20
  9
$EXTMAX
 10
-1e+20
 20
-1e+20
 30
-1e+20
  9
$LIMMIN
 10
0.0
 20
0.0
  9
$LIMMAX
 10
420.0
 20
297.0
  9
$ORTHOMODE
 70
0
  9
$REGENMODE
 70
1
  9
$FILLMODE
 70
1
  9
$QTEXTMODE
 70
0
  9
$MIRRTEXT
 70
1
  9
$LTSCALE
 40
1.0
  9
$ATTMODE
 70
1
  9
$TEXTSIZE
 40
2.5
  9
$TRACEWID
 40
1.0
  9
$TEXTSTYLE
  7
Standard
  9
$CLAYER
  8
0
  9
$CELTYPE
  6
ByLayer
  9
$CECOLOR
 62
256
  9
$CELTSCALE
 40
1.0
  9
$DISPSILH
 70
0
  9
$DIMSCALE
 40
1.0
  9
$DIMASZ
 40
2.5
  9
$DIMEXO
 40
0.625
  9
$DIMDLI
 40
3.75
  9
$DIMRND
 40
0.0
  9
$DIMDLE
 40
0.0
  9
$DIMEXE
 40
1.25
  9
$DIMTP
 40
0.0
  9
$DIMTM
 40
0.0
  9
$DIMTXT
 40
2.5
  9
$DIMCEN
 40
2.5
  9
$DIMTSZ
 40
0.0
  9
$DIMTOL
 70
0
  9
$DIMLIM
 70
0
  9
$DIMTIH
 70
0
  9
$DIMTOH
 70
0
  9
$DIMSE1
 70
0
  9
$DIMSE2
 70
0
  9
$DIMTAD
 70
1
  9
$DIMZIN
 70
8
  9
$DIMBLK
  1

  9
$DIMASO
 70
1
  9
$DIMSHO
 70
1
  9
$DIMPOST
  1

  9
$DIMAPOST
  1

  9
$DIMALT
 70
0
  9
$DIMALTD
 70
3
  9
$DIMALTF
 40
0.03937007874
  9
$DIMLFAC
 40
1.0
  9
$DIMTOFL
 70
1
  9
$DIMTVP
 40
0.0
  9
$DIMTIX
 70
0
  9
$DIMSOXD
 70
0
  9
$DIMSAH
 70
0
  9
$DIMBLK1
  1

  9
$DIMBLK2
  1

  9
$DIMSTYLE
  2
ISO-25
  9
$DIMCLRD
 70
0
  9
$DIMCLRE
 70
0
  9
$DIMCLRT
 70
0
  9
$DIMTFAC
 40
1.0
  9
$DIMGAP
 40
0.625
  9
$DIMJUST
 70
0
  9
$DIMSD1
 70
0
  9
$DIMSD2
 70
0
  9
$DIMTOLJ
 70
0
  9
$DIMTZIN
 70
8
  9
$DIMALTZ
 70
0
  9
$DIMALTTZ
 70
0
  9
$DIMUPT
 70
0
  9
$DIMDEC
 70
2
  9
$DIMTDEC
 70
2
  9
$DIMALTU
 70
2
  9
$DIMALTTD
 70
3
  9
$DIMTXSTY
  7
Standard
  9
$DIMAUNIT
 70
0
  9
$DIMADEC
 70
0
  9
$DIMALTRND
 40
0.0
  9
$DIMAZIN
 70
0
  9
$DIMDSEP
 70
44
  9
$DIMATFIT
 70
3
  9
$DIMFRAC
 70
0
  9
$DIMLDRBLK
  1

  9
$DIMLUNIT
 70
2
  9
$DIMLWD
 70
-2
  9
$DIMLWE
 70
-2
  9
$DIMTMOVE
 70
0
  9
$DIMFXL
 40
1.0
  9
$DIMFXLON
 70
0
  9
$DIMJOGANG
 40
0.785398163397
  9
$DIMTFILL
 70
0
  9
$DIMTFILLCLR
 70
0
  9
$DIMARCSYM
 70
0
  9
$DIMLTYPE
  6

  9
$DIMLTEX1
  6

  9
$DIMLTEX2
  6

  9
$DIMTXTDIRECTION
 70
0
  9
$LUNITS
 70
2
  9
$LUPREC
 70
4
  9
$SKETCHINC
 40
1.0
  9
$FILLETRAD
 40
10.0
  9
$AUNITS
 70
0
  9
$AUPREC
 70
2
  9
$MENU
  1
.
  9
$ELEVATION
 40
0.0
  9
$PELEVATION
 40
0.0
  9
$THICKNESS
 40
0.0
  9
$LIMCHECK
 70
0
  9
$CHAMFERA
 40
0.0
  9
$CHAMFERB
 40
0.0
  9
$CHAMFERC
 40
0.0
  9
$CHAMFERD
 40
0.0
  9
$SKPOLY
 70
0
  9
$TDCREATE
 40
2460766.8878703704
  9
$TDUCREATE
 40
2458532.153996898
  9
$TDUPDATE
 40
2460766.8878703704
  9
$TDUUPDATE
 40
2458532.1544311
  9
$TDINDWG
 40
0.0
  9
$TDUSRTIMER
 40
0.0
  9
$USRTIMER
 70
1
  9
$ANGBASE
 50
0.0
  9
$ANGDIR
 70
0
  9
$PDMODE
 70
0
  9
$PDSIZE
 40
0.0
  9
$PLINEWID
 40
0.0
  9
$SPLFRAME
 70
0
  9
$SPLINETYPE
 70
6
  9
$SPLINESEGS
 70
8
  9
$HANDSEED
  5
132
  9
$SURFTAB1
 70
6
  9
$SURFTAB2
 70
6
  9
$SURFTYPE
 70
6
  9
$SURFU
 70
6
  9
$SURFV
 70
6
  9
$UCSBASE
  2

  9
$UCSNAME
  2

  9
$UCSORG
 10
0.0
 20
0.0
 30
0.0
  9
$UCSXDIR
 10
1.0
 20
0.0
 30
0.0
  9
$UCSYDIR
 10
0.0
 20
1.0
 30
0.0
  9
$UCSORTHOREF
  2

  9
$UCSORTHOVIEW
 70
0
  9
$UCSORGTOP
 10
0.0
 20
0.0
 30
0.0
  9
$UCSORGBOTTOM
 10
0.0
 20
0.0
 30
0.0
  9
$UCSORGLEFT
 10
0.0
 20
0.0
 30
0.0
  9
$UCSORGRIGHT
 10
0.0
 20
0.0
 30
0.0
  9
$UCSORGFRONT
 10
0.0
 20
0.0
 30
0.0
  9
$UCSORGBACK
 10
0.0
 20
0.0
 30
0.0
  9
$PUCSBASE
  2

  9
$PUCSNAME
  2

  9
$PUCSORG
 10
0.0
 20
0.0
 30
0.0
  9
$PUCSXDIR
 10
1.0
 20
0.0
 30
0.0
  9
$PUCSYDIR
 10
0.0
 20
1.0
 30
0.0
  9
$PUCSORTHOREF
  2

  9
$PUCSORTHOVIEW
 70
0
  9
$PUCSORGTOP
 10
0.0
 20
0.0
 30
0.0
  9
$PUCSORGBOTTOM
 10
0.0
 20
0.0
 30
0.0
  9
$PUCSORGLEFT
 10
0.0
 20
0.0
 30
0.0
  9
$PUCSORGRIGHT
 10
0.0
 20
0.0
 30
0.0
  9
$PUCSORGFRONT
 10
0.0
 20
0.0
 30
0.0
  9
$PUCSORGBACK
 10
0.0
 20
0.0
 30
0.0
  9
$USERI1
 70
0
  9
$USERI2
 70
0
  9
$USERI3
 70
0
  9
$USERI4
 70
0
  9
$USERI5
 70
0
  9
$USERR1
 40
0.0
  9
$USERR2
 40
0.0
  9
$USERR3
 40
0.0
  9
$USERR4
 40
0.0
  9
$USERR5
 40
0.0
  9
$WORLDVIEW
 70
1
  9
$SHADEDGE
 70
3
  9
$SHADEDIF
 70
70
  9
$TILEMODE
 70
1
  9
$MAXACTVP
 70
64
  9
$PINSBASE
 10
0.0
 20
0.0
 30
0.0
  9
$PLIMCHECK
 70
0
  9
$PEXTMIN
 10
1e+20
 20
1e+20
 30
1e+20
  9
$PEXTMAX
 10
-1e+20
 20
-1e+20
 30
-1e+20
  9
$PLIMMIN
 10
0.0
 20
0.0
  9
$PLIMMAX
 10
420.0
 20
297.0
  9
$UNITMODE
 70
0
  9
$VISRETAIN
 70
1
  9
$PLINEGEN
 70
0
  9
$PSLTSCALE
 70
1
  9
$TREEDEPTH
 70
3020
  9
$CMLSTYLE
  2
Standard
  9
$CMLJUST
 70
0
  9
$CMLSCALE
 40
20.0
  9
$PROXYGRAPHICS
 70
1
  9
$MEASUREMENT
 70
1
  9
$CELWEIGHT
370
-1
  9
$ENDCAPS
280
0
  9
$JOINSTYLE
280
0
  9
$LWDISPLAY
290
0
  9
$INSUNITS
 70
6
  9
$HYPERLINKBASE
  1

  9
$STYLESHEET
  1

  9
$XEDIT
290
1
  9
$CEPSNTYPE
380
0
  9
$PSTYLEMODE
290
1
  9
$FINGERPRINTGUID
  2
{643AF618-A6C6-469B-8F72-A75E2AD8C832}
  9
$VERSIONGUID
  2
{1042DE26-03F6-4FF2-85A3-192A4FFBAB73}
  9
$EXTNAMES
290
1
  9
$PSVPSCALE
 40
0.0
  9
$OLESTARTUP
290
0
  9
$SORTENTS
280
127
  9
$INDEXCTL
280
0
  9
$HIDETEXT
280
1
  9
$XCLIPFRAME
280
1
  9
$HALOGAP
280
0
  9
$OBSCOLOR
 70
257
  9
$OBSLTYPE
280
0
  9
$INTERSECTIONDISPLAY
280
0
  9
$INTERSECTIONCOLOR
 70
257
  9
$DIMASSOC
280
2
  9
$PROJECTNAME
  1

  9
$CAMERADISPLAY
290
0
  9
$LENSLENGTH
 40
50.0
  9
$CAMERAHEIGHT
 40
0.0
  9
$STEPSPERSEC
 40
24.0
  9
$STEPSIZE
 40
100.0
  9
$3DDWFPREC
 40
2.0
  9
$PSOLWIDTH
 40
0.005
  9
$PSOLHEIGHT
 40
0.08
  9
$LOFTANG1
 40
1.570796326795
  9
$LOFTANG2
 40
1.570796326795
  9
$LOFTMAG1
 40
0.0
  9
$LOFTMAG2
 40
0.0
  9
$LOFTPARAM
 70
7
  9
$LOFTNORMALS
280
1
  9
$LATITUDE
 40
37.795
  9
$LONGITUDE
 40
-122.394
  9
$NORTHDIRECTION
 40
0.0
  9
$TIMEZONE
 70
-8000
  9
$LIGHTGLYPHDISPLAY
280
1
  9
$TILEMODELIGHTSYNCH
280
1
  9
$CMATERIAL
347
20
  9
$SOLIDHIST
280
0
  9
$SHOWHIST
280
1
  9
$DWFFRAME
280
2
  9
$DGNFRAME
280
2
  9
$REALWORLDSCALE
290
1
  9
$INTERFERECOLOR
 62
256
  9
$CSHADOW
280
0
  9
$SHADOWPLANELOCATION
 40
0.0
  0
ENDSEC
  0
SECTION
  2
CLASSES
  0
CLASS
  1
ACDBDICTIONARYWDFLT
  2
AcDbDictionaryWithDefault
  3
ObjectDBX Classes
 90
0
 91
0
280
0
281
0
  0
CLASS
  1
SUN
  2
AcDbSun
  3
SCENEOE
 90
1153
 91
0
280
0
281
0
  0
CLASS
  1
VISUALSTYLE
  2
AcDbVisualStyle
  3
ObjectDBX Classes
 90
4095
 91
0
280
0
281
0
  0
CLASS
  1
MATERIAL
  2
AcDbMaterial
  3
ObjectDBX Classes
 90
1153
 91
0
280
0
281
0
  0
CLASS
  1
SCALE
  2
AcDbScale
  3
ObjectDBX Classes
 90
1153
 91
0
280
0
281
0
  0
CLASS
  1
TABLESTYLE
  2
AcDbTableStyle
  3
ObjectDBX Classes
 90
4095
 91
0
280
0
281
0
  0
CLASS
  1
MLEADERSTYLE
  2
AcDbMLeaderStyle
  3
ACDB_MLEADERSTYLE_CLASS
 90
4095
 91
0
280
0
281
0
  0
CLASS
  1
DICTIONARYVAR
  2
AcDbDictionaryVar
  3
ObjectDBX Classes
 90
0
 91
0
280
0
281
0
  0
CLASS
  1
CELLSTYLEMAP
  2
AcDbCellStyleMap
  3
ObjectDBX Classes
 90
1152
 91
0
280
0
281
0
  0
CLASS
  1
MENTALRAYRENDERSETTINGS
  2
AcDbMentalRayRenderSettings
  3
SCENEOE
 90
1024
 91
0
280
0
281
0
  0
CLASS
  1
ACDBDETAILVIEWSTYLE
  2
AcDbDetailViewStyle
  3
ObjectDBX Classes
 90
1025
 91
0
280
0
281
0
  0
CLASS
  1
ACDBSECTIONVIEWSTYLE
  2
AcDbSectionViewStyle
  3
ObjectDBX Classes
 90
1025
 91
0
280
0
281
0
  0
CLASS
  1
RASTERVARIABLES
  2
AcDbRasterVariables
  3
ISM
 90
0
 91
0
280
0
281
0
  0
CLASS
  1
ACDBPLACEHOLDER
  2
AcDbPlaceHolder
  3
ObjectDBX Classes
 90
0
 91
0
280
0
281
0
  0
CLASS
  1
LAYOUT
  2
AcDbLayout
  3
ObjectDBX Classes
 90
0
 91
0
280
0
281
0
  0
ENDSEC
  0
SECTION
  2
TABLES
  0
TABLE
  2
VPORT
  5
8
330
0
100
AcDbSymbolTable
 70
1
  0
VPORT
  5
23
330
8
100
AcDbSymbolTableRecord
100
AcDbViewportTableRecord
  2
*Active
 70
0
 10
0.0
 20
0.0
 11
1.0
 21
1.0
 12
0.0
 22
0.0
 13
0.0
 23
0.0
 14
0.5
 24
0.5
 15
0.5
 25
0.5
 16
0.0
 26
0.0
 36
1.0
 17
0.0
 27
0.0
 37
0.0
 40
1000.0
 41
1.34
 42
50.0
 43
0.0
 44
0.0
 50
0.0
 51
0.0
 71
0
 72
1000
 73
1
 74
3
 75
0
 76
0
 77
0
 78
0
281
0
 65
0
146
0.0
  0
ENDTAB
  0
TABLE
  2
LTYPE
  5
2
330
0
100
AcDbSymbolTable
 70
3
  0
LTYPE
  5
24
330
2
100
AcDbSymbolTableRecord
100
AcDbLinetypeTableRecord
  2
ByBlock
 70
0
  3

 72
65
 73
0
 40
0.0
  0
LTYPE
  5
25
330
2
100
AcDbSymbolTableRecord
100
AcDbLinetypeTableRecord
  2
ByLayer
 70
0
  3

 72
65
 73
0
 40
0.0
  0
LTYPE
  5
26
330
2
100
AcDbSymbolTableRecord
100
AcDbLinetypeTableRecord
  2
Continuous
 70
0
  3

 72
65
 73
0
 40
0.0
  0
ENDTAB
  0
TABLE
  2
LAYER
  5
1
330
0
100
AcDbSymbolTable
 70
2
  0
LAYER
  5
27
330
1
100
AcDbSymbolTableRecord
100
AcDbLayerTableRecord
  2
0
 70
0
 62
7
  6
Continuous
370
-3
390
13
347
21
  0
LAYER
  5
28
330
1
100
AcDbSymbolTableRecord
100
AcDbLayerTableRecord
  2
Defpoints
 70
0
 62
7
  6
Continuous
290
0
370
-3
390
13
347
21
  0
ENDTAB
  0
TABLE
  2
STYLE
  5
5
330
0
100
AcDbSymbolTable
 70
1
  0
STYLE
  5
29
330
5
100
AcDbSymbolTableRecord
100
AcDbTextStyleTableRecord
  2
Standard
 70
0
 40
0.0
 41
1.0
 50
0.0
 71
0
 42
2.5
  3
txt
  4

  0
ENDTAB
  0
TABLE
  2
VIEW
  5
7
330
0
100
AcDbSymbolTable
 70
0
  0
ENDTAB
  0
TABLE
  2
UCS
  5
6
330
0
100
AcDbSymbolTable
 70
0
  0
ENDTAB
  0
TABLE
  2
APPID
  5
3
330
0
100
AcDbSymbolTable
 70
3
  0
APPID
  5
2A
330
3
100
AcDbSymbolTableRecord
100
AcDbRegAppTableRecord
  2
ACAD
 70
0
  0
APPID
  5
12F
330
3
100
AcDbSymbolTableRecord
100
AcDbRegAppTableRecord
  2
HATCHBACKGROUNDCOLOR
 70
0
  0
APPID
  5
130
330
3
100
AcDbSymbolTableRecord
100
AcDbRegAppTableRecord
  2
EZDXF
 70
0
  0
ENDTAB
  0
TABLE
  2
DIMSTYLE
  5
4
330
0
100
AcDbSymbolTable
 70
1
100
AcDbDimStyleTable
  0
DIMSTYLE
105
2B
330
4
100
AcDbSymbolTableRecord
100
AcDbDimStyleTableRecord
  2
Standard
 70
0
 40
1.0
 41
2.5
 42
0.625
 43
3.75
 44
1.25
 45
0.0
 46
0.0
 47
0.0
 48
0.0
 49
2.5
140
2.5
141
2.5
142
0.0
143
0.03937007874
144
1.0
145
0.0
146
1.0
147
0.625
148
0.0
 69
0
 70
0
 71
0
 72
0
 73
0
 74
0
 75
0
 76
0
 77
1
 78
8
 79
3
170
0
171
3
172
1
173
0
174
0
175
0
176
0
177
0
178
0
179
2
271
2
272
2
273
2
274
3
275
0
276
0
277
2
278
44
279
0
280
0
281
0
282
0
283
0
284
8
285
0
286
0
288
0
289
3
290
0
371
-2
372
-2
  0
ENDTAB
  0
TABLE
  2
BLOCK_RECORD
  5
9
330
0
100
AcDbSymbolTable
 70
3
  0
BLOCK_RECORD
  5
17
330
9
100
AcDbSymbolTableRecord
100
AcDbBlockTableRecord
  2
*Model_Space
340
1A
 70
0
280
1
281
0
  0
BLOCK_RECORD
  5
1B
330
9
100
AcDbSymbolTableRecord
100
AcDbBlockTableRecord
  2
*Paper_Space
340
1E
 70
0
280
1
281
0
  0
BLOCK_RECORD
  5
2F
330
9
100
AcDbSymbolTableRecord
100
AcDbBlockTableRecord
  2
FLAG
340
0
 70
0
280
1
281
0
  0
ENDTAB
  0
ENDSEC
  0
SECTION
  2
BLOCKS
  0
BLOCK
  5
18
330
17
100
AcDbEntity
  8
0
100
AcDbBlockBegin
  2
*Model_Space
 70
0
 10
0.0
 20
0.0
 30
0.0
  3
*Model_Space
  1

  0
ENDBLK
  5
19
330
17
100
AcDbEntity
  8
0
100
AcDbBlockEnd
  0
BLOCK
  5
1C
330
1B
100
AcDbEntity
  8
0
100
AcDbBlockBegin
  2
*Paper_Space
 70
0
 10
0.0
 20
0.0
 30
0.0
  3
*Paper_Space
  1

  0
ENDBLK
  5
1D
330
1B
100
AcDbEntity
  8
0
100
AcDbBlockEnd
  0
BLOCK
  5
30
330
2F
100
AcDbEntity
  8
0
100
AcDbBlockBegin
  2
FLAG
 70
2
 10
0.0
 20
0.0
 30
0.0
  3
FLAG
  1

  0
ATTDEF
  5
32
330
2F
100
AcDbEntity
  8
0
 62
3
100
AcDbText
 10
0.5
 20
-0.5
 30
0.0
 40
0.5
  1

100
AcDbAttributeDefinition
  3

  2
NAME
 70
0
  0
ATTDEF
  5
33
330
2F
100
AcDbEntity
  8
0
 62
4
100
AcDbText
 10
0.5
 20
-1.0
 30
0.0
 40
0.25
  1

100
AcDbAttributeDefinition
  3

  2
XPOS
 70
0
  0
ATTDEF
  5
34
330
2F
100
AcDbEntity
  8
0
 62
4
100
AcDbText
 10
0.5
 20
-1.5
 30
0.0
 40
0.25
  1

100
AcDbAttributeDefinition
  3

  2
YPOS
 70
0
  0
ENDBLK
  5
31
330
2F
100
AcDbEntity
  8
0
100
AcDbBlockEnd
  0
ENDSEC
  0
SECTION
  2
ENTITIES
  0
INSERT
  5
35
330
17
100
AcDbEntity
  8
0
100
AcDbBlockReference
 66
1
  2
FLAG
 10
-59.0
 20
79.0
 30
0.0
 41
0.5951581482880222
 42
0.5951581482880222
 43
0.5951581482880222
 50
15.0
  0
ATTRIB
  5
37
330
17
100
AcDbEntity
  8
0
 62
3
100
AcDbText
 10
-58.63554155510867
 20
78.78957981873356
 30
0.0
 40
0.2975790741440111
  1
P(1)
 50
14.999999999999998
 11
-58.63554155510867
 21
78.78957981873356
 31
0.0
100
AcDbAttribute
  2
NAME
 70
0
  0
ATTRIB
  5
38
330
17
100
AcDbEntity
  8
0
 62
4
100
AcDbText
 10
-58.55852242329622
 20
78.50214050565467
 30
0.0
 40
0.14878953707200554
  1
x = -59.000
 50
14.999999999999998
 11
-58.55852242329622
 21
78.50214050565467
 31
0.0
100
AcDbAttribute
  2
XPOS
 70
0
  0
ATTRIB
  5
39
330
17
100
AcDbEntity
  8
0
 62
4
100
AcDbText
 10
-58.481503291483776
 20
78.21470119257577
 30
0.0
 40
0.14878953707200554
  1
y = 79.000
 50
14.999999999999998
 11
-58.481503291483776
 21
78.21470119257577
 31
0.0
100
AcDbAttribute
  2
YPOS
 70
0
  0
SEQEND
  5
36
330
35
100
AcDbEntity
  8
0
  0
INSERT
  5
3A
330
17
100
AcDbEntity
  8
0
100
AcDbBlockReference
 66
1
  2
FLAG
 10
71.0
 20
-6.0
 30
0.0
 41
0.7980695043065311
 42
0.7980695043065311
 43
0.7980695043065311
 50
15.0
  0
ATTRIB
  5
3C
330
17
100
AcDbEntity
  8
0
 62
3
100
AcDbText
 10
71.48871576620672
 20
-6.2821601791766675
 30
0.0
 40
0.39903475215326556
  1
P(2)
 50
14.999999999999998
 11
71.48871576620672
 21
-6.2821601791766675
 31
0.0
100
AcDbAttribute
  2
NAME
 70
0
  0
ATTRIB
  5
3D
330
17
100
AcDbEntity
  8
0
 62
4
100
AcDbText
 10
71.59199355972176
 20
-6.667598151868364
 30
0.0
 40
0.19951737607663278
  1
x = 71.000
 50
14.999999999999998
 11
71.59199355972176
 21
-6.667598151868364
 31
0.0
100
AcDbAttribute
  2
XPOS
 70
0
  0
ATTRIB
  5
3E
330
17
100
AcDbEntity
  8
0
 62
4
100
AcDbText
 10
71.69527135323679
 20
-7.053036124560061
 30
0.0
 40
0.19951737607663278
  1
y = -6.000
 50
14.999999999999998
 11
71.69527135323679
 21
-7.053036124560061
 31
0.0
100
AcDbAttribute
  2
YPOS
 70
0
  0
SEQEND
  5
3B
330
3A
100
AcDbEntity
  8
0
  0
INSERT
  5
3F
330
17
100
AcDbEntity
  8
0
100
AcDbBlockReference
 66
1
  2
FLAG
 10
-28.0
 20
29.0
 30
0.0
 41
1.092368976105483
 42
1.092368976105483
 43
1.092368976105483
 50
15.0
  0
ATTRIB
  5
41
330
17
100
AcDbEntity
  8
0
 62
3
100
AcDbText
 10
-27.331063349423765
 20
28.613789244719005
 30
0.0
 40
0.5461844880527414
  1
P(3)
 50
14.999999999999998
 11
-27.331063349423765
 21
28.613789244719005
 31
0.0
100
AcDbAttribute
  2
NAME
 70
0
  0
ATTRIB
  5
42
330
17
100
AcDbEntity
  8
0
 62
4
100
AcDbText
 10
-27.189700401776143
 20
28.086215541790388
 30
0.0
 40
0.2730922440263707
  1
x = -28.000
 50
14.999999999999998
 11
-27.189700401776143
 21
28.086215541790388
 31
0.0
100
AcDbAttribute
  2
XPOS
 70
0
  0
ATTRIB
  5
43
330
17
100
AcDbEntity
  8
0
 62
4
100
AcDbText
 10
-27.048337454128525
 20
27.55864183886177
 30
0.0
 40
0.2730922440263707
  1
y = 29.000
 50
14.999999999999998
 11
-27.048337454128525
 21
27.55864183886177
 31
0.0
100
AcDbAttribute
  2
YPOS
 70
0
  0
SEQEND
  5
40
330
3F
100
AcDbEntity
  8
0
  0
INSERT
  5
44
330
17
100
AcDbEntity
  8
0
100
AcDbBlockReference
 66
1
  2
FLAG
 10
-25.0
 20
-77.0
 30
0.0
 41
0.8945175023815803
 42
0.8945175023815803
 43
0.8945175023815803
 50
15.0
  0
ATTRIB
  5
46
330
17
100
AcDbEntity
  8
0
 62
3
100
AcDbText
 10
-24.452222138294072
 20
-77.31625969591204
 30
0.0
 40
0.44725875119079017
  1
P(4)
 50
14.999999999999998
 11
-24.452222138294072
 21
-77.31625969591204
 31
0.0
100
AcDbAttribute
  2
NAME
 70
0
  0
ATTRIB
  5
47
330
17
100
AcDbEntity
  8
0
 62
4
100
AcDbText
 10
-24.336463055397125
 20
-77.74827847472102
 30
0.0
 40
0.22362937559539509
  1
x = -25.000
 50
14.999999999999998
 11
-24.336463055397125
 21
-77.74827847472102
 31
0.0
100
AcDbAttribute
  2
XPOS
 70
0
  0
ATTRIB
  5
48
330
17
100
AcDbEntity
  8
0
 62
4
100
AcDbText
 10
-24.220703972500182
 20
-78.18029725353
 30
0.0
 40
0.22362937559539509
  1
y = -77.000
 50
14.999999999999998
 11
-24.220703972500182
 21
-78.18029725353
 31
0.0
100
AcDbAttribute
  2
YPOS
 70
0
  0
SEQEND
  5
45
330
44
100
AcDbEntity
  8
0
  0
INSERT
  5
49
330
17
100
AcDbEntity
  8
0
100
AcDbBlockReference
 66
1
  2
FLAG
 10
25.0
 20
98.0
 30
0.0
 41
1.6666547139365029
 42
1.6666547139365029
 43
1.6666547139365029
 50
15.0
  0
ATTRIB
  5
4B
330
17
100
AcDbEntity
  8
0
 62
3
100
AcDbText
 10
26.020613406637175
 20
97.41074857493949
 30
0.0
 40
0.8333273569682514
  1
P(5)
 50
14.999999999999998
 11
26.020613406637175
 21
97.41074857493949
 31
0.0
100
AcDbAttribute
  2
NAME
 70
0
  0
ATTRIB
  5
4C
330
17
100
AcDbEntity
  8
0
 62
4
100
AcDbText
 10
26.236294397425503
 20
96.60581615909064
 30
0.0
 40
0.4166636784841257
  1
x = 25.000
 50
14.999999999999998
 11
26.236294397425503
 21
96.60581615909064
 31
0.0
100
AcDbAttribute
  2
XPOS
 70
0
  0
ATTRIB
  5
4D
330
17
100
AcDbEntity
  8
0
 62
4
100
AcDbText
 10
26.451975388213835
 20
95.8008837432418
 30
0.0
 40
0.4166636784841257
  1
y = 98.000
 50
14.999999999999998
 11
26.451975388213835
 21
95.8008837432418
 31
0.0
100
AcDbAttribute
  2
YPOS
 70
0
  0
SEQEND
  5
4A
330
49
100
AcDbEntity
  8
0
  0
INSERT
  5
4E
330
17
100
AcDbEntity
  8
0
100
AcDbBlockReference
 66
1
  2
FLAG
 10
-2.0
 20
57.0
 30
0.0
 41
0.9746651474421246
 42
0.9746651474421246
 43
0.9746651474421246
 50
15.0
  0
ATTRIB
  5
50
330
17
100
AcDbEntity
  8
0
 62
3
100
AcDbText
 10
-1.4031419296730654
 20
56.655403832428746
 30
0.0
 40
0.4873325737210623
  1
P(6)
 50
14.999999999999998
 11
-1.4031419296730654
 21
56.655403832428746
 31
0.0
100
AcDbAttribute
  2
NAME
 70
0
  0
ATTRIB
  5
51
330
17
100
AcDbEntity
  8
0
 62
4
100
AcDbText
 10
-1.2770109782952264
 20
56.18467671347965
 30
0.0
 40
0.24366628686053116
  1
x = -2.000
 50
14.999999999999998
 11
-1.2770109782952264
 21
56.18467671347965
 31
0.0
100
AcDbAttribute
  2
XPOS
 70
0
  0
ATTRIB
  5
52
330
17
100
AcDbEntity
  8
0
 62
4
100
AcDbText
 10
-1.1508800269173871
 20
55.713949594530554
 30
0.0
 40
0.24366628686053116
  1
y = 57.000
 50
14.999999999999998
 11
-1.1508800269173871
 21
55.713949594530554
 31
0.0
100
AcDbAttribute
  2
YPOS
 70
0
  0
SEQEND
  5
4F
330
4E
100
AcDbEntity
  8
0
  0
INSERT
  5
53
330
17
100
AcDbEntity
  8
0
100
AcDbBlockReference
 66
1
  2
FLAG
 10
15.0
 20
-26.0
 30
0.0
 41
2.307506251857835
 42
2.307506251857835
 43
2.307506251857835
 50
15.0
  0
ATTRIB
  5
55
330
17
100
AcDbEntity
  8
0
 62
3
100
AcDbText
 10
16.413053223833455
 20
-26.815826659159516
 30
0.0
 40
1.1537531259289175
  1
P(7)
 50
14.999999999999998
 11
16.413053223833455
 21
-26.815826659159516
 31
0.0
100
AcDbAttribute
  2
NAME
 70
0
  0
ATTRIB
  5
56
330
17
100
AcDbEntity
  8
0
 62
4
100
AcDbText
 10
16.711666506170427
 20
-27.930266600656
 30
0.0
 40
0.5768765629644588
  1
x = 15.000
 50
14.999999999999998
 11
16.711666506170427
 21
-27.930266600656
 31
0.0
100
AcDbAttribute
  2
XPOS
 70
0
  0
ATTRIB
  5
57
330
17
100
AcDbEntity
  8
0
 62
4
100
AcDbText
 10
17.010279788507397
 20
-29.044706542152486
 30
0.0
 40
0.5768765629644588
  1
y = -26.000
 50
14.999999999999998
 11
17.010279788507397
 21
-29.044706542152486
 31
0.0
100
AcDbAttribute
  2
YPOS
 70
0
  0
SEQEND
  5
54
330
53
100
AcDbEntity
  8
0
  0
INSERT
  5
58
330
17
100
AcDbEntity
  8
0
100
AcDbBlockReference
 66
1
  2
FLAG
 10
-6.0
 20
24.0
 30
0.0
 41
1.6731432444643695
 42
1.6731432444643695
 43
1.6731432444643695
 50
15.0
  0
ATTRIB
  5
5A
330
17
100
AcDbEntity
  8
0
 62
3
100
AcDbText
 10
-4.97541319611939
 20
23.40845453297139
 30
0.0
 40
0.8365716222321847
  1
P(8)
 50
14.999999999999998
 41
1.0000000000000002
 11
-4.97541319611939
 21
23.40845453297139
 31
0.0
100
AcDbAttribute
  2
NAME
 70
0
  0
ATTRIB
  5
5B
330
17
100
AcDbEntity
  8
0
 62
4
100
AcDbText
 10
-4.758892527693389
 20
22.60038839751678
 30
0.0
 40
0.41828581111609237
  1
x = -6.000
 50
14.999999999999998
 41
1.0000000000000002
 11
-4.758892527693389
 21
22.60038839751678
 31
0.0
100
AcDbAttribute
  2
XPOS
 70
0
  0
ATTRIB
  5
5C
330
17
100
AcDbEntity
  8
0
 62
4
100
AcDbText
 10
-4.542371859267389
 20
21.79232226206217
 30
0.0
 40
0.41828581111609237
  1
y = 24.000
 50
14.999999999999998
 41
1.0000000000000002
 11
-4.542371859267389
 21
21.79232226206217
 31
0.0
100
AcDbAttribute
  2
YPOS
 70
0
  0
SEQEND
  5
59
330
58
100
AcDbEntity
  8
0
  0
INSERT
  5
5D
330
17
100
AcDbEntity
  8
0
100
AcDbBlockReference
 66
1
  2
FLAG
 10
45.0
 20
91.0
 30
0.0
 41
1.5288577973559456
 42
1.5288577973559456
 43
1.5288577973559456
 50
15.0
  0
ATTRIB
  5
5F
330
17
100
AcDbEntity
  8
0
 62
3
100
AcDbText
 10
45.936230373199365
 20
90.45946714200984
 30
0.0
 40
0.7644288986779727
  1
P(9)
 50
14.999999999999998
 41
1.0000000000000002
 11
45.936230373199365
 21
90.45946714200984
 31
0.0
100
AcDbAttribute
  2
NAME
 70
0
  0
ATTRIB
  5
60
330
17
100
AcDbEntity
  8
0
 62
4
100
AcDbText
 10
46.134079130803975
 20
89.72108552641508
 30
0.0
 40
0.38221444933898635
  1
x = 45.000
 50
14.999999999999998
 41
1.0000000000000002
 11
46.134079130803975
 21
89.72108552641508
 31
0.0
100
AcDbAttribute
  2
XPOS
 70
0
  0
ATTRIB
  5
61
330
17
100
AcDbEntity
  8
0
 62
4
100
AcDbText
 10
46.33192788840858
 20
88.98270391082032
 30
0.0
 40
0.38221444933898635
  1
y = 91.000
 50
14.999999999999998
 41
1.0000000000000002
 11
46.33192788840858
 21
88.98270391082032
 31
0.0
100
AcDbAttribute
  2
YPOS
 70
0
  0
SEQEND
  5
5E
330
5D
100
AcDbEntity
  8
0
  0
INSERT
  5
62
330
17
100
AcDbEntity
  8
0
100
AcDbBlockReference
 66
1
  2
FLAG
 10
91.0
 20
-1.0
 30
0.0
 41
0.8920886807396731
 42
0.8920886807396731
 43
0.8920886807396731
 50
15.0
  0
ATTRIB
  5
64
330
17
100
AcDbEntity
  8
0
 62
3
100
AcDbText
 10
91.5462905182812
 20
-1.315400977785392
 30
0.0
 40
0.44604434036983653
  1
P(10)
 50
14.999999999999998
 11
91.5462905182812
 21
-1.315400977785392
 31
0.0
100
AcDbAttribute
  2
NAME
 70
0
  0
ATTRIB
  5
65
330
17
100
AcDbEntity
  8
0
 62
4
100
AcDbText
 10
91.6617352885291
 20
-1.7462467258186887
 30
0.0
 40
0.22302217018491827
  1
x = 91.000
 50
14.999999999999998
 11
91.6617352885291
 21
-1.7462467258186887
 31
0.0
100
AcDbAttribute
  2
XPOS
 70
0
  0
ATTRIB
  5
66
330
17
100
AcDbEntity
  8
0
 62
4
100
AcDbText
 10
91.777180058777
 20
-2.1770924738519852
 30
0.0
 40
0.22302217018491827
  1
y = -1.000
 50
14.999999999999998
 11
91.777180058777
 21
-2.1770924738519852
 31
0.0
100
AcDbAttribute
  2
YPOS
 70
0
  0
SEQEND
  5
63
330
62
100
AcDbEntity
  8
0
  0
INSERT
  5
67
330
17
100
AcDbEntity
  8
0
100
AcDbBlockReference
 66
1
  2
FLAG
 10
-70.0
 20
-64.0
 30
0.0
 41
2.004305841121022
 42
2.004305841121022
 43
2.004305841121022
 50
15.0
  0
ATTRIB
  5
69
330
17
100
AcDbEntity
  8
0
 62
3
100
AcDbText
 10
-68.77261835019341
 20
-64.70862912591424
 30
0.0
 40
1.002152920560511
  1
P(11)
 50
14.999999999999998
 11
-68.77261835019341
 21
-64.70862912591424
 31
0.0
100
AcDbAttribute
  2
NAME
 70
0
  0
ATTRIB
  5
6A
330
17
100
AcDbEntity
  8
0
 62
4
100
AcDbText
 10
-68.51324208824724
 20
-65.67663451377466
 30
0.0
 40
0.5010764602802555
  1
x = -70.000
 50
14.999999999999998
 11
-68.51324208824724
 21
-65.67663451377466
 31
0.0
100
AcDbAttribute
  2
XPOS
 70
0
  0
ATTRIB
  5
6B
330
17
100
AcDbEntity
  8
0
 62
4
100
AcDbText
 10
-68.25386582630107
 20
-66.64463990163507
 30
0.0
 40
0.5010764602802555
  1
y = -64.000
 50
14.999999999999998
 11
-68.25386582630107
 21
-66.64463990163507
 31
0.0
100
AcDbAttribute
  2
YPOS
 70
0
  0
SEQEND
  5
68
330
67
100
AcDbEntity
  8
0
  0
INSERT
  5
6C
330
17
100
AcDbEntity
  8
0
100
AcDbBlockReference
 66
1
  2
FLAG
 10
-34.0
 20
38.0
 30
0.0
 41
1.3023767852123602
 42
1.3023767852123602
 43
1.3023767852123602
 50
15.0
  0
ATTRIB
  5
6E
330
17
100
AcDbEntity
  8
0
 62
3
100
AcDbText
 10
-33.20246035584585
 20
37.5395402717582
 30
0.0
 40
0.6511883926061801
  1
P(12)
 50
14.999999999999998
 11
-33.20246035584585
 21
37.5395402717582
 31
0.0
100
AcDbAttribute
  2
NAME
 70
0
  0
ATTRIB
  5
6F
330
17
100
AcDbEntity
  8
0
 62
4
100
AcDbText
 10
-33.03392039788967
 20
36.91054058556023
 30
0.0
 40
0.32559419630309006
  1
x = -34.000
 50
14.999999999999998
 11
-33.03392039788967
 21
36.91054058556023
 31
0.0
100
AcDbAttribute
  2
XPOS
 70
0
  0
ATTRIB
  5
70
330
17
100
AcDbEntity
  8
0
 62
4
100
AcDbText
 10
-32.865380439933496
 20
36.281540899362255
 30
0.0
 40
0.32559419630309006
  1
y = 38.000
 50
14.999999999999998
 11
-32.865380439933496
 21
36.281540899362255
 31
0.0
100
AcDbAttribute
  2
YPOS
 70
0
  0
SEQEND
  5
6D
330
6C
100
AcDbEntity
  8
0
  0
INSERT
  5
71
330
17
100
AcDbEntity
  8
0
100
AcDbBlockReference
 66
1
  2
FLAG
 10
-17.0
 20
100.0
 30
0.0
 41
1.8340551165949213
 42
1.8340551165949213
 43
1.8340551165949213
 50
15.0
  0
ATTRIB
  5
73
330
17
100
AcDbEntity
  8
0
 62
3
100
AcDbText
 10
-15.876875201050433
 20
99.35156359499292
 30
0.0
 40
0.9170275582974606
  1
P(13)
 50
14.999999999999998
 41
1.0000000000000002
 11
-15.876875201050433
 21
99.35156359499292
 31
0.0
100
AcDbAttribute
  2
NAME
 70
0
  0
ATTRIB
  5
74
330
17
100
AcDbEntity
  8
0
 62
4
100
AcDbText
 10
-15.639531004079188
 20
98.4657829930146
 30
0.0
 40
0.4585137791487303
  1
x = -17.000
 50
14.999999999999998
 41
1.0000000000000002
 11
-15.639531004079188
 21
98.4657829930146
 31
0.0
100
AcDbAttribute
  2
XPOS
 70
0
  0
ATTRIB
  5
75
330
17
100
AcDbEntity
  8
0
 62
4
100
AcDbText
 10
-15.402186807107944
 20
97.58000239103627
 30
0.0
 40
0.4585137791487303
  1
y = 100.000
 50
14.999999999999998
 41
1.0000000000000002
 11
-15.402186807107944
 21
97.58000239103627
 31
0.0
100
AcDbAttribute
  2
YPOS
 70
0
  0
SEQEND
  5
72
330
71
100
AcDbEntity
  8
0
  0
INSERT
  5
76
330
17
100
AcDbEntity
  8
0
100
AcDbBlockReference
 66
1
  2
FLAG
 10
81.0
 20
11.0
 30
0.0
 41
0.6356696000239126
 42
0.6356696000239126
 43
0.6356696000239126
 50
15.0
  0
ATTRIB
  5
78
330
17
100
AcDbEntity
  8
0
 62
3
100
AcDbText
 10
81.38926654126442
 20
10.775256857614476
 30
0.0
 40
0.3178348000119563
  1
P(14)
 50
14.999999999999998
 11
81.38926654126442
 21
10.775256857614476
 31
0.0
100
AcDbAttribute
  2
NAME
 70
0
  0
ATTRIB
  5
79
330
17
100
AcDbEntity
  8
0
 62
4
100
AcDbText
 10
81.47152824070386
 20
10.468252015789506
 30
0.0
 40
0.15891740000597815
  1
x = 81.000
 50
14.999999999999998
 11
81.47152824070386
 21
10.468252015789506
 31
0.0
100
AcDbAttribute
  2
XPOS
 70
0
  0
ATTRIB
  5
7A
330
17
100
AcDbEntity
  8
0
 62
4
100
AcDbText
 10
81.5537899401433
 20
10.161247173964536
 30
0.0
 40
0.15891740000597815
  1
y = 11.000
 50
14.999999999999998
 11
81.5537899401433
 21
10.161247173964536
 31
0.0
100
AcDbAttribute
  2
YPOS
 70
0
  0
SEQEND
  5
77
330
76
100
AcDbEntity
  8
0
  0
INSERT
  5
7B
330
17
100
AcDbEntity
  8
0
100
AcDbBlockReference
 66
1
  2
FLAG
 10
60.0
 20
26.0
 30
0.0
 41
0.7037364773238675
 42
0.7037364773238675
 43
0.7037364773238675
 50
15.0
  0
ATTRIB
  5
7D
330
17
100
AcDbEntity
  8
0
 62
3
100
AcDbText
 10
60.430948820706796
 20
25.75119158235798
 30
0.0
 40
0.35186823866193373
  1
P(15)
 50
14.999999999999998
 11
60.430948820706796
 21
25.75119158235798
 31
0.0
100
AcDbAttribute
  2
NAME
 70
0
  0
ATTRIB
  5
7E
330
17
100
AcDbEntity
  8
0
 62
4
100
AcDbText
 10
60.522019022239185
 20
25.411312963183573
 30
0.0
 40
0.17593411933096686
  1
x = 60.000
 50
14.999999999999998
 11
60.522019022239185
 21
25.411312963183573
 31
0.0
100
AcDbAttribute
  2
XPOS
 70
0
  0
ATTRIB
  5
7F
330
17
100
AcDbEntity
  8
0
 62
4
100
AcDbText
 10
60.61308922377157
 20
25.071434344009166
 30
0.0
 40
0.17593411933096686
  1
y = 26.000
 50
14.999999999999998
 11
60.61308922377157
 21
25.071434344009166
 31
0.0
100
AcDbAttribute
  2
YPOS
 70
0
  0
SEQEND
  5
7C
330
7B
100
AcDbEntity
  8
0
  0
INSERT
  5
80
330
17
100
AcDbEntity
  8
0
100
AcDbBlockReference
 66
1
  2
FLAG
 10
68.0
 20
26.0
 30
0.0
 41
0.9107701157463346
 42
0.9107701157463346
 43
0.9107701157463346
 50
15.0
  0
ATTRIB
  5
82
330
17
100
AcDbEntity
  8
0
 62
3
100
AcDbText
 10
68.55773051413853
 20
25.677994137526856
 30
0.0
 40
0.45538505787316724
  1
P(16)
 50
14.999999999999998
 41
1.0000000000000002
 11
68.55773051413853
 21
25.677994137526856
 31
0.0
100
AcDbAttribute
  2
NAME
 70
0
  0
ATTRIB
  5
83
330
17
100
AcDbEntity
  8
0
 62
4
100
AcDbText
 10
68.67559283997122
 20
25.238125949221022
 30
0.0
 40
0.22769252893658362
  1
x = 68.000
 50
14.999999999999998
 41
1.0000000000000002
 11
68.67559283997122
 21
25.238125949221022
 31
0.0
100
AcDbAttribute
  2
XPOS
 70
0
  0
ATTRIB
  5
84
330
17
100
AcDbEntity
  8
0
 62
4
100
AcDbText
 10
68.7934551658039
 20
24.798257760915185
 30
0.0
 40
0.22769252893658362
  1
y = 26.000
 50
14.999999999999998
 41
1.0000000000000002
 11
68.7934551658039
 21
24.798257760915185
 31
0.0
100
AcDbAttribute
  2
YPOS
 70
0
  0
SEQEND
  5
81
330
80
100
AcDbEntity
  8
0
  0
INSERT
  5
85
330
17
100
AcDbEntity
  8
0
100
AcDbBlockReference
 66
1
  2
FLAG
 10
86.0
 20
-25.0
 30
0.0
 41
0.9627754817782577
 42
0.9627754817782577
 43
0.9627754817782577
 50
15.0
  0
ATTRIB
  5
87
330
17
100
AcDbEntity
  8
0
 62
3
100
AcDbText
 10
86.58957716680474
 20
-25.340392535962774
 30
0.0
 40
0.48138774088912883
  1
P(17)
 50
14.999999999999998
 11
86.58957716680474
 21
-25.340392535962774
 31
0.0
100
AcDbAttribute
  2
NAME
 70
0
  0
ATTRIB
  5
88
330
17
100
AcDbEntity
  8
0
 62
4
100
AcDbText
 10
86.71416948222573
 20
-25.805377387346535
 30
0.0
 40
0.24069387044456442
  1
x = 86.000
 50
14.999999999999998
 11
86.71416948222573
 21
-25.805377387346535
 31
0.0
100
AcDbAttribute
  2
XPOS
 70
0
  0
ATTRIB
  5
89
330
17
100
AcDbEntity
  8
0
 62
4
100
AcDbText
 10
86.83876179764671
 20
-26.270362238730296
 30
0.0
 40
0.24069387044456442
  1
y = -25.000
 50
14.999999999999998
 11
86.83876179764671
 21
-26.270362238730296
 31
0.0
100
AcDbAttribute
  2
YPOS
 70
0
  0
SEQEND
  5
86
330
85
100
AcDbEntity
  8
0
  0
INSERT
  5
8A
330
17
100
AcDbEntity
  8
0
100
AcDbBlockReference
 66
1
  2
FLAG
 10
-29.0
 20
98.0
 30
0.0
 41
2.190227209861204
 42
2.190227209861204
 43
2.190227209861204
 50
15.0
  0
ATTRIB
  5
8C
330
17
100
AcDbEntity
  8
0
 62
3
100
AcDbText
 10
-27.65876522877009
 20
97.22563774378392
 30
0.0
 40
1.095113604930602
  1
P(18)
 50
14.999999999999998
 11
-27.65876522877009
 21
97.22563774378392
 31
0.0
100
AcDbAttribute
  2
NAME
 70
0
  0
ATTRIB
  5
8D
330
17
100
AcDbEntity
  8
0
 62
4
100
AcDbText
 10
-27.375328971263173
 20
96.16783923006093
 30
0.0
 40
0.547556802465301
  1
x = -29.000
 50
14.999999999999998
 11
-27.375328971263173
 21
96.16783923006093
 31
0.0
100
AcDbAttribute
  2
XPOS
 70
0
  0
ATTRIB
  5
8E
330
17
100
AcDbEntity
  8
0
 62
4
100
AcDbText
 10
-27.091892713756256
 20
95.11004071633793
 30
0.0
 40
0.547556802465301
  1
y = 98.000
 50
14.999999999999998
 11
-27.091892713756256
 21
95.11004071633793
 31
0.0
100
AcDbAttribute
  2
YPOS
 70
0
  0
SEQEND
  5
8B
330
8A
100
AcDbEntity
  8
0
  0
INSERT
  5
8F
330
17
100
AcDbEntity
  8
0
100
AcDbBlockReference
 66
1
  2
FLAG
 10
-25.0
 20
48.0
 30
0.0
 41
2.276752569016996
 42
2.276752569016996
 43
2.276752569016996
 50
15.0
  0
ATTRIB
  5
91
330
17
100
AcDbEntity
  8
0
 62
3
100
AcDbText
 10
-23.605779483834404
 20
47.19504640968209
 30
0.0
 40
1.138376284508498
  1
P(19)
 50
14.999999999999998
 11
-23.605779483834404
 21
47.19504640968209
 31
0.0
100
AcDbAttribute
  2
NAME
 70
0
  0
ATTRIB
  5
92
330
17
100
AcDbEntity
  8
0
 62
4
100
AcDbText
 10
-23.31114602091056
 20
46.095459356440344
 30
0.0
 40
0.569188142254249
  1
x = -25.000
 50
14.999999999999998
 11
-23.31114602091056
 21
46.095459356440344
 31
0.0
100
AcDbAttribute
  2
XPOS
 70
0
  0
ATTRIB
  5
93
330
17
100
AcDbEntity
  8
0
 62
4
100
AcDbText
 10
-23.016512557986715
 20
44.995872303198595
 30
0.0
 40
0.569188142254249
  1
y = 48.000
 50
14.999999999999998
 11
-23.016512557986715
 21
44.995872303198595
 31
0.0
100
AcDbAttribute
  2
YPOS
 70
0
  0
SEQEND
  5
90
330
8F
100
AcDbEntity
  8
0
  0
INSERT
  5
94
330
17
100
AcDbEntity
  8
0
100
AcDbBlockReference
 66
1
  2
FLAG
 10
79.0
 20
78.0
 30
0.0
 41
2.1234726775179333
 42
2.1234726775179333
 43
2.1234726775179333
 50
15.0
  0
ATTRIB
  5
96
330
17
100
AcDbEntity
  8
0
 62
3
100
AcDbText
 10
80.30035613566513
 20
77.24923903503135
 30
0.0
 40
1.0617363387589664
  1
P(20)
 50
14.999999999999998
 11
80.30035613566513
 21
77.24923903503135
 31
0.0
100
AcDbAttribute
  2
NAME
 70
0
  0
ATTRIB
  5
97
330
17
100
AcDbEntity
  8
0
 62
4
100
AcDbText
 10
80.57515372101336
 20
76.22368048471448
 30
0.0
 40
0.5308681693794832
  1
x = 79.000
 50
14.999999999999998
 11
80.57515372101336
 21
76.22368048471448
 31
0.0
100
AcDbAttribute
  2
XPOS
 70
0
  0
ATTRIB
  5
98
330
17
100
AcDbEntity
  8
0
 62
4
100
AcDbText
 10
80.84995130636162
 20
75.19812193439759
 30
0.0
 40
0.5308681693794832
  1
y = 78.000
 50
14.999999999999998
 11
80.84995130636162
 21
75.19812193439759
 31
0.0
100
AcDbAttribute
  2
YPOS
 70
0
  0
SEQEND
  5
95
330
94
100
AcDbEntity
  8
0
  0
INSERT
  5
99
330
17
100
AcDbEntity
  8
0
100
AcDbBlockReference
 66
1
  2
FLAG
 10
67.0
 20
-69.0
 30
0.0
 41
0.8488114889100196
 42
0.8488114889100196
 43
0.8488114889100196
 50
15.0
  0
ATTRIB
  5
9B
330
17
100
AcDbEntity
  8
0
 62
3
100
AcDbText
 10
67.51978875891041
 20
-69.30010017987867
 30
0.0
 40
0.4244057444550098
  1
P(21)
 50
14.999999999999998
 11
67.51978875891041
 21
-69.30010017987867
 31
0.0
100
AcDbAttribute
  2
NAME
 70
0
  0
ATTRIB
  5
9C
330
17
100
AcDbEntity
  8
0
 62
4
100
AcDbText
 10
67.62963304842627
 20
-69.7100446492732
 30
0.0
 40
0.2122028722275049
  1
x = 67.000
 50
14.999999999999998
 11
67.62963304842627
 21
-69.7100446492732
 31
0.0
100
AcDbAttribute
  2
XPOS
 70
0
  0
ATTRIB
  5
9D
330
17
100
AcDbEntity
  8
0
 62
4
100
AcDbText
 10
67.73947733794215
 20
-70.11998911866773
 30
0.0
 40
0.2122028722275049
  1
y = -69.000
 50
14.999999999999998
 11
67.73947733794215
 21
-70.11998911866773
 31
0.0
100
AcDbAttribute
  2
YPOS
 70
0
  0
SEQEND
  5
9A
330
99
100
AcDbEntity
  8
0
  0
INSERT
  5
9E
330
17
100
AcDbEntity
  8
0
100
AcDbBlockReference
 66
1
  2
FLAG
 10
35.0
 20
-19.0
 30
0.0
 41
0.737681702241288
 42
0.737681702241288
 43
0.737681702241288
 50
15.0
  0
ATTRIB
  5
A0
330
17
100
AcDbEntity
  8
0
 62
3
100
AcDbText
 10
35.451735940769716
 20
-19.260809867006024
 30
0.0
 40
0.368840851120644
  1
P(22)
 50
14.999999999999998
 11
35.451735940769716
 21
-19.260809867006024
 31
0.0
100
AcDbAttribute
  2
NAME
 70
0
  0
ATTRIB
  5
A1
330
17
100
AcDbEntity
  8
0
 62
4
100
AcDbText
 10
35.54719897765156
 20
-19.617082770893898
 30
0.0
 40
0.184420425560322
  1
x = 35.000
 50
14.999999999999998
 11
35.54719897765156
 21
-19.617082770893898
 31
0.0
100
AcDbAttribute
  2
XPOS
 70
0
  0
ATTRIB
  5
A2
330
17
100
AcDbEntity
  8
0
 62
4
100
AcDbText
 10
35.64266201453341
 20
-19.973355674781768
 30
0.0
 40
0.184420425560322
  1
y = -19.000
 50
14.999999999999998
 11
35.64266201453341
 21
-19.973355674781768
 31
0.0
100
AcDbAttribute
  2
YPOS
 70
0
  0
SEQEND
  5
9F
330
9E
100
AcDbEntity
  8
0
  0
INSERT
  5
A3
330
17
100
AcDbEntity
  8
0
100
AcDbBlockReference
 66
1
  2
FLAG
 10
27.0
 20
25.0
 30
0.0
 41
1.1408627517925383
 42
1.1408627517925383
 43
1.1408627517925383
 50
15.0
  0
ATTRIB
  5
A5
330
17
100
AcDbEntity
  8
0
 62
3
100
AcDbText
 10
27.698632902109804
 20
24.596644105902175
 30
0.0
 40
0.5704313758962691
  1
P(23)
 50
14.999999999999998
 11
27.698632902109804
 21
24.596644105902175
 31
0.0
100
AcDbAttribute
  2
NAME
 70
0
  0
ATTRIB
  5
A6
330
17
100
AcDbEntity
  8
0
 62
4
100
AcDbText
 10
27.846271406115793
 20
24.04564970779836
 30
0.0
 40
0.28521568794813457
  1
x = 27.000
 50
14.999999999999998
 11
27.846271406115793
 21
24.04564970779836
 31
0.0
100
AcDbAttribute
  2
XPOS
 70
0
  0
ATTRIB
  5
A7
330
17
100
AcDbEntity
  8
0
 62
4
100
AcDbText
 10
27.993909910121783
 20
23.494655309694547
 30
0.0
 40
0.28521568794813457
  1
y = 25.000
 50
14.999999999999998
 11
27.993909910121783
 21
23.494655309694547
 31
0.0
100
AcDbAttribute
  2
YPOS
 70
0
  0
SEQEND
  5
A4
330
A3
100
AcDbEntity
  8
0
  0
INSERT
  5
A8
330
17
100
AcDbEntity
  8
0
100
AcDbBlockReference
 66
1
  2
FLAG
 10
62.0
 20
-7.0
 30
0.0
 41
1.6718872516889522
 42
1.6718872516889522
 43
1.6718872516889522
 50
15.0
  0
ATTRIB
  5
AA
330
17
100
AcDbEntity
  8
0
 62
3
100
AcDbText
 10
63.02381766852551
 20
-7.591101406524299
 30
0.0
 40
0.8359436258444762
  1
P(24)
 50
14.999999999999998
 11
63.02381766852551
 21
-7.591101406524299
 31
0.0
100
AcDbAttribute
  2
NAME
 70
0
  0
ATTRIB
  5
AB
330
17
100
AcDbEntity
  8
0
 62
4
100
AcDbText
 10
63.24017579952612
 20
-8.398560944049205
 30
0.0
 40
0.4179718129222381
  1
x = 62.000
 50
14.999999999999998
 11
63.24017579952612
 21
-8.398560944049205
 31
0.0
100
AcDbAttribute
  2
XPOS
 70
0
  0
ATTRIB
  5
AC
330
17
100
AcDbEntity
  8
0
 62
4
100
AcDbText
 10
63.456533930526724
 20
-9.206020481574111
 30
0.0
 40
0.4179718129222381
  1
y = -7.000
 50
14.999999999999998
 11
63.456533930526724
 21
-9.206020481574111
 31
0.0
100
AcDbAttribute
  2
YPOS
 70
0
  0
SEQEND
  5
A9
330
A8
100
AcDbEntity
  8
0
  0
INSERT
  5
AD
330
17
100
AcDbEntity
  8
0
100
AcDbBlockReference
 66
1
  2
FLAG
 10
-42.0
 20
9.0
 30
0.0
 41
2.499344648336073
 42
2.499344648336073
 43
2.499344648336073
 50
15.0
  0
ATTRIB
  5
AF
330
17
100
AcDbEntity
  8
0
 62
3
100
AcDbText
 10
-40.46947023005519
 20
8.116348225319628
 30
0.0
 40
1.2496723241680368
  1
P(25)
 50
14.999999999999996
 11
-40.46947023005519
 21
8.116348225319628
 31
0.0
100
AcDbAttribute
  2
NAME
 70
0
  0
ATTRIB
  5
B0
330
17
100
AcDbEntity
  8
0
 62
4
100
AcDbText
 10
-40.14603123242297
 20
6.9092574530070365
 30
0.0
 40
0.6248361620840184
  1
x = -42.000
 50
14.999999999999996
 11
-40.14603123242297
 21
6.9092574530070365
 31
0.0
100
AcDbAttribute
  2
XPOS
 70
0
  0
ATTRIB
  5
B1
330
17
100
AcDbEntity
  8
0
 62
4
100
AcDbText
 10
-39.822592234790754
 20
5.702166680694445
 30
0.0
 40
0.6248361620840184
  1
y = 9.000
 50
14.999999999999996
 11
-39.822592234790754
 21
5.702166680694445
 31
0.0
100
AcDbAttribute
  2
YPOS
 70
0
  0
SEQEND
  5
AE
330
AD
100
AcDbEntity
  8
0
  0
INSERT
  5
B2
330
17
100
AcDbEntity
  8
0
100
AcDbBlockReference
 66
1
  2
FLAG
 10
89.0
 20
-56.0
 30
0.0
 41
1.6098602715768588
 42
1.6098602715768588
 43
1.6098602715768588
 50
15.0
  0
ATTRIB
  5
B4
330
17
100
AcDbEntity
  8
0
 62
3
100
AcDbText
 10
89.98583405563541
 20
-56.569171557397404
 30
0.0
 40
0.8049301357884294
  1
P(26)
 50
14.999999999999998
 41
1.0000000000000002
 11
89.98583405563541
 21
-56.569171557397404
 31
0.0
100
AcDbAttribute
  2
NAME
 70
0
  0
ATTRIB
  5
B5
330
17
100
AcDbEntity
  8
0
 62
4
100
AcDbText
 10
90.19416530475442
 20
-57.34667436391382
 30
0.0
 40
0.4024650678942147
  1
x = 89.000
 50
14.999999999999998
 41
1.0000000000000002
 11
90.19416530475442
 21
-57.34667436391382
 31
0.0
100
AcDbAttribute
  2
XPOS
 70
0
  0
ATTRIB
  5
B6
330
17
100
AcDbEntity
  8
0
 62
4
100
AcDbText
 10
90.40249655387342
 20
-58.12417717043023
 30
0.0
 40
0.4024650678942147
  1
y = -56.000
 50
14.999999999999998
 41
1.0000000000000002
 11
90.40249655387342
 21
-58.12417717043023
 31
0.0
100
AcDbAttribute
  2
YPOS
 70
0
  0
SEQEND
  5
B3
330
B2
100
AcDbEntity
  8
0
  0
INSERT
  5
B7
330
17
100
AcDbEntity
  8
0
100
AcDbBlockReference
 66
1
  2
FLAG
 10
81.0
 20
-51.0
 30
0.0
 41
0.5756123058968092
 42
0.5756123058968092
 43
0.5756123058968092
 50
15.0
  0
ATTRIB
  5
B9
330
17
100
AcDbEntity
  8
0
 62
3
100
AcDbText
 10
81.3524891097785
 20
-51.20350968241703
 30
0.0
 40
0.2878061529484046
  1
P(27)
 50
14.999999999999998
 11
81.3524891097785
 21
-51.20350968241703
 31
0.0
100
AcDbAttribute
  2
NAME
 70
0
  0
ATTRIB
  5
BA
330
17
100
AcDbEntity
  8
0
 62
4
100
AcDbText
 10
81.42697882345924
 20
-51.4815090785148
 30
0.0
 40
0.1439030764742023
  1
x = 81.000
 50
14.999999999999998
 11
81.42697882345924
 21
-51.4815090785148
 31
0.0
100
AcDbAttribute
  2
XPOS
 70
0
  0
ATTRIB
  5
BB
330
17
100
AcDbEntity
  8
0
 62
4
100
AcDbText
 10
81.50146853713997
 20
-51.75950847461256
 30
0.0
 40
0.1439030764742023
  1
y = -51.000
 50
14.999999999999998
 11
81.50146853713997
 21
-51.75950847461256
 31
0.0
100
AcDbAttribute
  2
YPOS
 70
0
  0
SEQEND
  5
B8
330
B7
100
AcDbEntity
  8
0
  0
INSERT
  5
BC
330
17
100
AcDbEntity
  8
0
100
AcDbBlockReference
 66
1
  2
FLAG
 10
-85.0
 20
97.0
 30
0.0
 41
0.5242545096600768
 42
0.5242545096600768
 43
0.5242545096600768
 50
15.0
  0
ATTRIB
  5
BE
330
17
100
AcDbEntity
  8
0
 62
3
100
AcDbText
 10
-84.67896098899496
 20
96.81464804057586
 30
0.0
 40
0.2621272548300384
  1
P(28)
 50
14.999999999999998
 11
-84.67896098899496
 21
96.81464804057586
 31
0.0
100
AcDbAttribute
  2
NAME
 70
0
  0
ATTRIB
  5
BF
330
17
100
AcDbEntity
  8
0
 62
4
100
AcDbText
 10
-84.6111174632045
 20
96.56145255536127
 30
0.0
 40
0.1310636274150192
  1
x = -85.000
 50
14.999999999999998
 11
-84.6111174632045
 21
96.56145255536127
 31
0.0
100
AcDbAttribute
  2
XPOS
 70
0
  0
ATTRIB
  5
C0
330
17
100
AcDbEntity
  8
0
 62
4
100
AcDbText
 10
-84.54327393741404
 20
96.30825707014668
 30
0.0
 40
0.1310636274150192
  1
y = 97.000
 50
14.999999999999998
 11
-84.54327393741404
 21
96.30825707014668
 31
0.0
100
AcDbAttribute
  2
YPOS
 70
0
  0
SEQEND
  5
BD
330
BC
100
AcDbEntity
  8
0
  0
INSERT
  5
C1
330
17
100
AcDbEntity
  8
0
100
AcDbBlockReference
 66
1
  2
FLAG
 10
-85.0
 20
17.0
 30
0.0
 41
1.4399067226691427
 42
1.4399067226691427
 43
1.4399067226691427
 50
15.0
  0
ATTRIB
  5
C3
330
17
100
AcDbEntity
  8
0
 62
3
100
AcDbText
 10
-84.11824081306435
 20
16.490916096062275
 30
0.0
 40
0.7199533613345713
  1
P(29)
 50
14.999999999999998
 11
-84.11824081306435
 21
16.490916096062275
 31
0.0
100
AcDbAttribute
  2
NAME
 70
0
  0
ATTRIB
  5
C4
330
17
100
AcDbEntity
  8
0
 62
4
100
AcDbText
 10
-83.93190317156538
 20
15.795494550625587
 30
0.0
 40
0.35997668066728566
  1
x = -85.000
 50
14.999999999999998
 11
-83.93190317156538
 21
15.795494550625587
 31
0.0
100
AcDbAttribute
  2
XPOS
 70
0
  0
ATTRIB
  5
C5
330
17
100
AcDbEntity
  8
0
 62
4
100
AcDbText
 10
-83.74556553006641
 20
15.1000730051889
 30
0.0
 40
0.35997668066728566
  1
y = 17.000
 50
14.999999999999998
 11
-83.74556553006641
 21
15.1000730051889
 31
0.0
100
AcDbAttribute
  2
YPOS
 70
0
  0
SEQEND
  5
C2
330
C1
100
AcDbEntity
  8
0
  0
INSERT
  5
C6
330
17
100
AcDbEntity
  8
0
100
AcDbBlockReference
 66
1
  2
FLAG
 10
2.0
 20
92.0
 30
0.0
 41
2.196819965347567
 42
2.196819965347567
 43
2.196819965347567
 50
15.0
  0
ATTRIB
  5
C8
330
17
100
AcDbEntity
  8
0
 62
3
100
AcDbText
 10
3.3452719929650403
 20
91.22330685272837
 30
0.0
 40
1.0984099826737834
  1
P(30)
 50
14.999999999999998
 11
3.3452719929650403
 21
91.22330685272837
 31
0.0
100
AcDbAttribute
  2
NAME
 70
0
  0
ATTRIB
  5
C9
330
17
100
AcDbEntity
  8
0
 62
4
100
AcDbText
 10
3.6295614158117457
 20
90.16232428261003
 30
0.0
 40
0.5492049913368917
  1
x = 2.000
 50
14.999999999999998
 11
3.6295614158117457
 21
90.16232428261003
 31
0.0
100
AcDbAttribute
  2
XPOS
 70
0
  0
ATTRIB
  5
CA
330
17
100
AcDbEntity
  8
0
 62
4
100
AcDbText
 10
3.9138508386584503
 20
89.1013417124917
 30
0.0
 40
0.5492049913368917
  1
y = 92.000
 50
14.999999999999998
 11
3.9138508386584503
 21
89.1013417124917
 31
0.0
100
AcDbAttribute
  2
YPOS
 70
0
  0
SEQEND
  5
C7
330
C6
100
AcDbEntity
  8
0
  0
INSERT
  5
CB
330
17
100
AcDbEntity
  8
0
100
AcDbBlockReference
 66
1
  2
FLAG
 10
-5.0
 20
-32.0
 30
0.0
 41
2.0325588162183856
 42
2.0325588162183856
 43
2.0325588162183856
 50
15.0
  0
ATTRIB
  5
CD
330
17
100
AcDbEntity
  8
0
 62
3
100
AcDbText
 10
-3.7553170070173865
 20
-32.71861806105426
 30
0.0
 40
1.0162794081091928
  1
P(31)
 50
14.999999999999998
 11
-3.7553170070173865
 21
-32.71861806105426
 31
0.0
100
AcDbAttribute
  2
NAME
 70
0
  0
ATTRIB
  5
CE
330
17
100
AcDbEntity
  8
0
 62
4
100
AcDbText
 10
-3.49228454105321
 20
-33.700268588072696
 30
0.0
 40
0.5081397040545964
  1
x = -5.000
 50
14.999999999999998
 11
-3.49228454105321
 21
-33.700268588072696
 31
0.0
100
AcDbAttribute
  2
XPOS
 70
0
  0
ATTRIB
  5
CF
330
17
100
AcDbEntity
  8
0
 62
4
100
AcDbText
 10
-3.229252075089034
 20
-34.681919115091134
 30
0.0
 40
0.5081397040545964
  1
y = -32.000
 50
14.999999999999998
 11
-3.229252075089034
 21
-34.681919115091134
 31
0.0
100
AcDbAttribute
  2
YPOS
 70
0
  0
SEQEND
  5
CC
330
CB
100
AcDbEntity
  8
0
  0
INSERT
  5
D0
330
17
100
AcDbEntity
  8
0
100
AcDbBlockReference
 66
1
  2
FLAG
 10
-14.0
 20
27.0
 30
0.0
 41
0.9071464865354788
 42
0.9071464865354788
 43
0.9071464865354788
 50
15.0
  0
ATTRIB
  5
D2
330
17
100
AcDbEntity
  8
0
 62
3
100
AcDbText
 10
-13.444488496507386
 20
26.679275283920607
 30
0.0
 40
0.4535732432677394
  1
P(32)
 50
14.999999999999998
 11
-13.444488496507386
 21
26.679275283920607
 31
0.0
100
AcDbAttribute
  2
NAME
 70
0
  0
ATTRIB
  5
D3
330
17
100
AcDbEntity
  8
0
 62
4
100
AcDbText
 10
-13.327095102800778
 20
26.241157174134603
 30
0.0
 40
0.2267866216338697
  1
x = -14.000
 50
14.999999999999998
 11
-13.327095102800778
 21
26.241157174134603
 31
0.0
100
AcDbAttribute
  2
XPOS
 70
0
  0
ATTRIB
  5
D4
330
17
100
AcDbEntity
  8
0
 62
4
100
AcDbText
 10
-13.209701709094167
 20
25.8030390643486
 30
0.0
 40
0.2267866216338697
  1
y = 27.000
 50
14.999999999999998
 11
-13.209701709094167
 21
25.8030390643486
 31
0.0
100
AcDbAttribute
  2
YPOS
 70
0
  0
SEQEND
  5
D1
330
D0
100
AcDbEntity
  8
0
  0
INSERT
  5
D5
330
17
100
AcDbEntity
  8
0
100
AcDbBlockReference
 66
1
  2
FLAG
 10
-53.0
 20
-85.0
 30
0.0
 41
0.5933071157220651
 42
0.5933071157220651
 43
0.5933071157220651
 50
15.0
  0
ATTRIB
  5
D7
330
17
100
AcDbEntity
  8
0
 62
3
100
AcDbText
 10
-52.63667507642963
 20
-85.20976574242665
 30
0.0
 40
0.2966535578610325
  1
P(33)
 50
14.999999999999998
 11
-52.63667507642963
 21
-85.20976574242665
 31
0.0
100
AcDbAttribute
  2
NAME
 70
0
  0
ATTRIB
  5
D8
330
17
100
AcDbEntity
  8
0
 62
4
100
AcDbText
 10
-52.55989548585777
 20
-85.49631107542517
 30
0.0
 40
0.14832677893051624
  1
x = -53.000
 50
14.999999999999998
 11
-52.55989548585777
 21
-85.49631107542517
 31
0.0
100
AcDbAttribute
  2
XPOS
 70
0
  0
ATTRIB
  5
D9
330
17
100
AcDbEntity
  8
0
 62
4
100
AcDbText
 10
-52.48311589528592
 20
-85.78285640842367
 30
0.0
 40
0.14832677893051624
  1
y = -85.000
 50
14.999999999999998
 11
-52.48311589528592
 21
-85.78285640842367
 31
0.0
100
AcDbAttribute
  2
YPOS
 70
0
  0
SEQEND
  5
D6
330
D5
100
AcDbEntity
  8
0
  0
INSERT
  5
DA
330
17
100
AcDbEntity
  8
0
100
AcDbBlockReference
 66
1
  2
FLAG
 10
90.0
 20
80.0
 30
0.0
 41
2.325690129251144
 42
2.325690129251144
 43
2.325690129251144
 50
15.0
  0
ATTRIB
  5
DC
330
17
100
AcDbEntity
  8
0
 62
3
100
AcDbText
 10
91.42418852912319
 20
79.17774436933395
 30
0.0
 40
1.162845064625572
  1
P(34)
 50
14.999999999999998
 41
1.0000000000000002
 11
91.42418852912319
 21
79.17774436933395
 31
0.0
100
AcDbAttribute
  2
NAME
 70
0
  0
ATTRIB
  5
DD
330
17
100
AcDbEntity
  8
0
 62
4
100
AcDbText
 10
91.72515497835175
 20
78.05452228943933
 30
0.0
 40
0.581422532312786
  1
x = 90.000
 50
14.999999999999998
 41
1.0000000000000002
 11
91.72515497835175
 21
78.05452228943933
 31
0.0
100
AcDbAttribute
  2
XPOS
 70
0
  0
ATTRIB
  5
DE
330
17
100
AcDbEntity
  8
0
 62
4
100
AcDbText
 10
92.02612142758034
 20
76.9313002095447
 30
0.0
 40
0.581422532312786
  1
y = 80.000
 50
14.999999999999998
 41
1.0000000000000002
 11
92.02612142758034
 21
76.9313002095447
 31
0.0
100
AcDbAttribute
  2
YPOS
 70
0
  0
SEQEND
  5
DB
330
DA
100
AcDbEntity
  8
0
  0
INSERT
  5
DF
330
17
100
AcDbEntity
  8
0
100
AcDbBlockReference
 66
1
  2
FLAG
 10
-5.0
 20
-89.0
 30
0.0
 41
1.3587109508781556
 42
1.3587109508781556
 43
1.3587109508781556
 50
15.0
  0
ATTRIB
  5
E1
330
17
100
AcDbEntity
  8
0
 62
3
100
AcDbText
 10
-4.167962865604195
 20
-89.48037686351918
 30
0.0
 40
0.6793554754390778
  1
P(35)
 50
14.999999999999998
 11
-4.167962865604195
 21
-89.48037686351918
 31
0.0
100
AcDbAttribute
  2
NAME
 70
0
  0
ATTRIB
  5
E2
330
17
100
AcDbEntity
  8
0
 62
4
100
AcDbText
 10
-3.9921327301658835
 20
-90.13658386247668
 30
0.0
 40
0.3396777377195389
  1
x = -5.000
 50
14.999999999999998
 11
-3.9921327301658835
 21
-90.13658386247668
 31
0.0
100
AcDbAttribute
  2
XPOS
 70
0
  0
ATTRIB
  5
E3
330
17
100
AcDbEntity
  8
0
 62
4
100
AcDbText
 10
-3.8163025947275724
 20
-90.79279086143417
 30
0.0
 40
0.3396777377195389
  1
y = -89.000
 50
14.999999999999998
 11
-3.8163025947275724
 21
-90.79279086143417
 31
0.0
100
AcDbAttribute
  2
YPOS
 70
0
  0
SEQEND
  5
E0
330
DF
100
AcDbEntity
  8
0
  0
INSERT
  5
E4
330
17
100
AcDbEntity
  8
0
100
AcDbBlockReference
 66
1
  2
FLAG
 10
84.0
 20
-11.0
 30
0.0
 41
1.6472063418089347
 42
1.6472063418089347
 43
1.6472063418089347
 50
15.0
  0
ATTRIB
  5
E6
330
17
100
AcDbEntity
  8
0
 62
3
100
AcDbText
 10
85.0087037596271
 20
-11.582375387153292
 30
0.0
 40
0.8236031709044673
  1
P(36)
 50
14.999999999999998
 11
85.0087037596271
 21
-11.582375387153292
 31
0.0
100
AcDbAttribute
  2
NAME
 70
0
  0
ATTRIB
  5
E7
330
17
100
AcDbEntity
  8
0
 62
4
100
AcDbText
 10
85.221867945864
 20
-12.377914960543485
 30
0.0
 40
0.41180158545223366
  1
x = 84.000
 50
14.999999999999998
 11
85.221867945864
 21
-12.377914960543485
 31
0.0
100
AcDbAttribute
  2
XPOS
 70
0
  0
ATTRIB
  5
E8
330
17
100
AcDbEntity
  8
0
 62
4
100
AcDbText
 10
85.4350321321009
 20
-13.17345453393368
 30
0.0
 40
0.41180158545223366
  1
y = -11.000
 50
14.999999999999998
 11
85.4350321321009
 21
-13.17345453393368
 31
0.0
100
AcDbAttribute
  2
YPOS
 70
0
  0
SEQEND
  5
E5
330
E4
100
AcDbEntity
  8
0
  0
INSERT
  5
E9
330
17
100
AcDbEntity
  8
0
100
AcDbBlockReference
 66
1
  2
FLAG
 10
28.0
 20
-21.0
 30
0.0
 41
1.137149598843347
 42
1.137149598843347
 43
1.137149598843347
 50
15.0
  0
ATTRIB
  5
EB
330
17
100
AcDbEntity
  8
0
 62
3
100
AcDbText
 10
28.696359069594195
 20
-21.402043096282846
 30
0.0
 40
0.5685747994216735
  1
P(37)
 50
14.999999999999998
 11
28.696359069594195
 21
-21.402043096282846
 31
0.0
100
AcDbAttribute
  2
NAME
 70
0
  0
ATTRIB
  5
EC
330
17
100
AcDbEntity
  8
0
 62
4
100
AcDbText
 10
28.843517056249873
 20
-21.95124417922137
 30
0.0
 40
0.2842873997108368
  1
x = 28.000
 50
14.999999999999998
 11
28.843517056249873
 21
-21.95124417922137
 31
0.0
100
AcDbAttribute
  2
XPOS
 70
0
  0
ATTRIB
  5
ED
330
17
100
AcDbEntity
  8
0
 62
4
100
AcDbText
 10
28.990675042905547
 20
-22.50044526215989
 30
0.0
 40
0.2842873997108368
  1
y = -21.000
 50
14.999999999999998
 11
28.990675042905547
 21
-22.50044526215989
 31
0.0
100
AcDbAttribute
  2
YPOS
 70
0
  0
SEQEND
  5
EA
330
E9
100
AcDbEntity
  8
0
  0
INSERT
  5
EE
330
17
100
AcDbEntity
  8
0
100
AcDbBlockReference
 66
1
  2
FLAG
 10
-7.0
 20
-91.0
 30
0.0
 41
2.1089035443412785
 42
2.1089035443412785
 43
2.1089035443412785
 50
15.0
  0
ATTRIB
  5
F0
330
17
100
AcDbEntity
  8
0
 62
3
100
AcDbText
 10
-5.7085655999042375
 20
-91.74560999853603
 30
0.0
 40
1.0544517721706392
  1
P(38)
 50
14.999999999999998
 11
-5.7085655999042375
 21
-91.74560999853603
 31
0.0
100
AcDbAttribute
  2
NAME
 70
0
  0
ATTRIB
  5
F1
330
17
100
AcDbEntity
  8
0
 62
4
100
AcDbText
 10
-5.435653399124371
 20
-92.76413219785192
 30
0.0
 40
0.5272258860853196
  1
x = -7.000
 50
14.999999999999998
 11
-5.435653399124371
 21
-92.76413219785192
 31
0.0
100
AcDbAttribute
  2
XPOS
 70
0
  0
ATTRIB
  5
F2
330
17
100
AcDbEntity
  8
0
 62
4
100
AcDbText
 10
-5.162741198344506
 20
-93.78265439716783
 30
0.0
 40
0.5272258860853196
  1
y = -91.000
 50
14.999999999999998
 11
-5.162741198344506
 21
-93.78265439716783
 31
0.0
100
AcDbAttribute
  2
YPOS
 70
0
  0
SEQEND
  5
EF
330
EE
100
AcDbEntity
  8
0
  0
INSERT
  5
F3
330
17
100
AcDbEntity
  8
0
100
AcDbBlockReference
 66
1
  2
FLAG
 10
-61.0
 20
-71.0
 30
0.0
 41
0.5630828752973533
 42
0.5630828752973533
 43
0.5630828752973533
 50
15.0
  0
ATTRIB
  5
F5
330
17
100
AcDbEntity
  8
0
 62
3
100
AcDbText
 10
-60.65518356815557
 20
-71.19907985974639
 30
0.0
 40
0.2815414376486767
  1
P(39)
 50
14.999999999999998
 11
-60.65518356815557
 21
-71.19907985974639
 31
0.0
100
AcDbAttribute
  2
NAME
 70
0
  0
ATTRIB
  5
F6
330
17
100
AcDbEntity
  8
0
 62
4
100
AcDbText
 10
-60.58231528210655
 20
-71.4710280055418
 30
0.0
 40
0.14077071882433834
  1
x = -61.000
 50
14.999999999999998
 11
-60.58231528210655
 21
-71.4710280055418
 31
0.0
100
AcDbAttribute
  2
XPOS
 70
0
  0
ATTRIB
  5
F7
330
17
100
AcDbEntity
  8
0
 62
4
100
AcDbText
 10
-60.50944699605753
 20
-71.7429761513372
 30
0.0
 40
0.14077071882433834
  1
y = -71.000
 50
14.999999999999998
 11
-60.50944699605753
 21
-71.7429761513372
 31
0.0
100
AcDbAttribute
  2
YPOS
 70
0
  0
SEQEND
  5
F4
330
F3
100
AcDbEntity
  8
0
  0
INSERT
  5
F8
330
17
100
AcDbEntity
  8
0
100
AcDbBlockReference
 66
1
  2
FLAG
 10
90.0
 20
-56.0
 30
0.0
 41
1.8736417882699556
 42
1.8736417882699556
 43
1.8736417882699556
 50
15.0
  0
ATTRIB
  5
FA
330
17
100
AcDbEntity
  8
0
 62
3
100
AcDbText
 10
91.1473665855043
 20
-56.66243240700009
 30
0.0
 40
0.9368208941349778
  1
P(40)
 50
14.999999999999998
 11
91.1473665855043
 21
-56.66243240700009
 31
0.0
100
AcDbAttribute
  2
NAME
 70
0
  0
ATTRIB
  5
FB
330
17
100
AcDbEntity
  8
0
 62
4
100
AcDbText
 10
91.3898336747564
 20
-57.56733190325228
 30
0.0
 40
0.4684104470674889
  1
x = 90.000
 50
14.999999999999998
 11
91.3898336747564
 21
-57.56733190325228
 31
0.0
100
AcDbAttribute
  2
XPOS
 70
0
  0
ATTRIB
  5
FC
330
17
100
AcDbEntity
  8
0
 62
4
100
AcDbText
 10
91.6323007640085
 20
-58.47223139950447
 30
0.0
 40
0.4684104470674889
  1
y = -56.000
 50
14.999999999999998
 11
91.6323007640085
 21
-58.47223139950447
 31
0.0
100
AcDbAttribute
  2
YPOS
 70
0
  0
SEQEND
  5
F9
330
F8
100
AcDbEntity
  8
0
  0
INSERT
  5
FD
330
17
100
AcDbEntity
  8
0
100
AcDbBlockReference
 66
1
  2
FLAG
 10
56.0
 20
-72.0
 30
0.0
 41
0.871427228083421
 42
0.871427228083421
 43
0.871427228083421
 50
15.0
  0
ATTRIB
  5
FF
330
17
100
AcDbEntity
  8
0
 62
3
100
AcDbText
 10
56.53363801419308
 20
-72.30809605114419
 30
0.0
 40
0.4357136140417105
  1
P(41)
 50
14.999999999999998
 11
56.53363801419308
 21
-72.30809605114419
 31
0.0
100
AcDbAttribute
  2
NAME
 70
0
  0
ATTRIB
  5
100
330
17
100
AcDbEntity
  8
0
 62
4
100
AcDbText
 10
56.64640899571752
 20
-72.72896308381283
 30
0.0
 40
0.21785680702085525
  1
x = 56.000
 50
14.999999999999998
 11
56.64640899571752
 21
-72.72896308381283
 31
0.0
100
AcDbAttribute
  2
XPOS
 70
0
  0
ATTRIB
  5
101
330
17
100
AcDbEntity
  8
0
 62
4
100
AcDbText
 10
56.75917997724196
 20
-73.14983011648147
 30
0.0
 40
0.21785680702085525
  1
y = -72.000
 50
14.999999999999998
 11
56.75917997724196
 21
-73.14983011648147
 31
0.0
100
AcDbAttribute
  2
YPOS
 70
0
  0
SEQEND
  5
FE
330
FD
100
AcDbEntity
  8
0
  0
INSERT
  5
102
330
17
100
AcDbEntity
  8
0
100
AcDbBlockReference
 66
1
  2
FLAG
 10
88.0
 20
-53.0
 30
0.0
 41
1.2332369856659402
 42
1.2332369856659402
 43
1.2332369856659402
 50
15.0
  0
ATTRIB
  5
104
330
17
100
AcDbEntity
  8
0
 62
3
100
AcDbText
 10
88.75520033670239
 20
-53.43601511768722
 30
0.0
 40
0.6166184928329701
  1
P(42)
 50
14.999999999999998
 11
88.75520033670239
 21
-53.43601511768722
 31
0.0
100
AcDbAttribute
  2
NAME
 70
0
  0
ATTRIB
  5
105
330
17
100
AcDbEntity
  8
0
 62
4
100
AcDbText
 10
88.91479294620997
 20
-54.03162284488203
 30
0.0
 40
0.30830924641648505
  1
x = 88.000
 50
14.999999999999998
 11
88.91479294620997
 21
-54.03162284488203
 31
0.0
100
AcDbAttribute
  2
XPOS
 70
0
  0
ATTRIB
  5
106
330
17
100
AcDbEntity
  8
0
 62
4
100
AcDbText
 10
89.07438555571756
 20
-54.62723057207683
 30
0.0
 40
0.30830924641648505
  1
y = -53.000
 50
14.999999999999998
 11
89.07438555571756
 21
-54.62723057207683
 31
0.0
100
AcDbAttribute
  2
YPOS
 70
0
  0
SEQEND
  5
103
330
102
100
AcDbEntity
  8
0
  0
INSERT
  5
107
330
17
100
AcDbEntity
  8
0
100
AcDbBlockReference
 66
1
  2
FLAG
 10
-39.0
 20
-97.0
 30
0.0
 41
1.144894305399448
 42
1.144894305399448
 43
1.144894305399448
 50
15.0
  0
ATTRIB
  5
109
330
17
100
AcDbEntity
  8
0
 62
3
100
AcDbText
 10
-38.298898285588294
 20
-97.4047812635449
 30
0.0
 40
0.572447152699724
  1
P(43)
 50
14.999999999999996
 11
-38.298898285588294
 21
-97.4047812635449
 31
0.0
100
AcDbAttribute
  2
NAME
 70
0
  0
ATTRIB
  5
10A
330
17
100
AcDbEntity
  8
0
 62
4
100
AcDbText
 10
-38.15073806015489
 20
-97.95772275252321
 30
0.0
 40
0.286223576349862
  1
x = -39.000
 50
14.999999999999996
 11
-38.15073806015489
 21
-97.95772275252321
 31
0.0
100
AcDbAttribute
  2
XPOS
 70
0
  0
ATTRIB
  5
10B
330
17
100
AcDbEntity
  8
0
 62
4
100
AcDbText
 10
-38.0025778347215
 20
-98.51066424150152
 30
0.0
 40
0.286223576349862
  1
y = -97.000
 50
14.999999999999996
 11
-38.0025778347215
 21
-98.51066424150152
 31
0.0
100
AcDbAttribute
  2
YPOS
 70
0
  0
SEQEND
  5
108
330
107
100
AcDbEntity
  8
0
  0
INSERT
  5
10C
330
17
100
AcDbEntity
  8
0
100
AcDbBlockReference
 66
1
  2
FLAG
 10
14.0
 20
-98.0
 30
0.0
 41
1.154918598453993
 42
1.154918598453993
 43
1.154918598453993
 50
15.0
  0
ATTRIB
  5
10E
330
17
100
AcDbEntity
  8
0
 62
3
100
AcDbText
 10
14.707240315165645
 20
-98.40832538634264
 30
0.0
 40
0.5774592992269965
  1
P(44)
 50
14.999999999999998
 11
14.707240315165645
 21
-98.40832538634264
 31
0.0
100
AcDbAttribute
  2
NAME
 70
0
  0
ATTRIB
  5
10F
330
17
100
AcDbEntity
  8
0
 62
4
100
AcDbText
 10
14.856697779577146
 20
-98.96610823709679
 30
0.0
 40
0.28872964961349823
  1
x = 14.000
 50
14.999999999999998
 11
14.856697779577146
 21
-98.96610823709679
 31
0.0
100
AcDbAttribute
  2
XPOS
 70
0
  0
ATTRIB
  5
110
330
17
100
AcDbEntity
  8
0
 62
4
100
AcDbText
 10
15.00615524398865
 20
-99.52389108785093
 30
0.0
 40
0.28872964961349823
  1
y = -98.000
 50
14.999999999999998
 11
15.00615524398865
 21
-99.52389108785093
 31
0.0
100
AcDbAttribute
  2
YPOS
 70
0
  0
SEQEND
  5
10D
330
10C
100
AcDbEntity
  8
0
  0
INSERT
  5
111
330
17
100
AcDbEntity
  8
0
100
AcDbBlockReference
 66
1
  2
FLAG
 10
-10.0
 20
23.0
 30
0.0
 41
1.1275637327898698
 42
1.1275637327898698
 43
1.1275637327898698
 50
15.0
  0
ATTRIB
  5
113
330
17
100
AcDbEntity
  8
0
 62
3
100
AcDbText
 10
-9.309511050549226
 20
22.601346019162133
 30
0.0
 40
0.5637818663949349
  1
P(45)
 50
14.999999999999996
 41
1.0000000000000002
 11
-9.309511050549226
 21
22.601346019162133
 31
0.0
100
AcDbAttribute
  2
NAME
 70
0
  0
ATTRIB
  5
114
330
17
100
AcDbEntity
  8
0
 62
4
100
AcDbText
 10
-9.16359356624277
 20
22.056774554017814
 30
0.0
 40
0.28189093319746744
  1
x = -10.000
 50
14.999999999999996
 41
1.0000000000000002
 11
-9.16359356624277
 21
22.056774554017814
 31
0.0
100
AcDbAttribute
  2
XPOS
 70
0
  0
ATTRIB
  5
115
330
17
100
AcDbEntity
  8
0
 62
4
100
AcDbText
 10
-9.017676081936317
 20
21.51220308887349
 30
0.0
 40
0.28189093319746744
  1
y = 23.000
 50
14.999999999999996
 41
1.0000000000000002
 11
-9.017676081936317
 21
21.51220308887349
 31
0.0
100
AcDbAttribute
  2
YPOS
 70
0
  0
SEQEND
  5
112
330
111
100
AcDbEntity
  8
0
  0
INSERT
  5
116
330
17
100
AcDbEntity
  8
0
100
AcDbBlockReference
 66
1
  2
FLAG
 10
-16.0
 20
6.0
 30
0.0
 41
2.213009545347953
 42
2.213009545347953
 43
2.213009545347953
 50
15.0
  0
ATTRIB
  5
118
330
17
100
AcDbEntity
  8
0
 62
3
100
AcDbText
 10
-14.64481395449723
 20
5.2175829718269515
 30
0.0
 40
1.1065047726739765
  1
P(46)
 50
14.999999999999998
 11
-14.64481395449723
 21
5.2175829718269515
 31
0.0
100
AcDbAttribute
  2
NAME
 70
0
  0
ATTRIB
  5
119
330
17
100
AcDbEntity
  8
0
 62
4
100
AcDbText
 10
-14.358429445832371
 20
4.1487814349890435
 30
0.0
 40
0.5532523863369883
  1
x = -16.000
 50
14.999999999999998
 11
-14.358429445832371
 21
4.1487814349890435
 31
0.0
100
AcDbAttribute
  2
XPOS
 70
0
  0
ATTRIB
  5
11A
330
17
100
AcDbEntity
  8
0
 62
4
100
AcDbText
 10
-14.07204493716751
 20
3.079979898151135
 30
0.0
 40
0.5532523863369883
  1
y = 6.000
 50
14.999999999999998
 11
-14.07204493716751
 21
3.079979898151135
 31
0.0
100
AcDbAttribute
  2
YPOS
 70
0
  0
SEQEND
  5
117
330
116
100
AcDbEntity
  8
0
  0
INSERT
  5
11B
330
17
100
AcDbEntity
  8
0
100
AcDbBlockReference
 66
1
  2
FLAG
 10
-49.0
 20
-23.0
 30
0.0
 41
1.9366906142104565
 42
1.9366906142104565
 43
1.9366906142104565
 50
15.0
  0
ATTRIB
  5
11D
330
17
100
AcDbEntity
  8
0
 62
3
100
AcDbText
 10
-47.81402405138676
 20
-23.684723533184275
 30
0.0
 40
0.9683453071052283
  1
P(47)
 50
14.999999999999998
 11
-47.81402405138676
 21
-23.684723533184275
 31
0.0
100
AcDbAttribute
  2
NAME
 70
0
  0
ATTRIB
  5
11E
330
17
100
AcDbEntity
  8
0
 62
4
100
AcDbText
 10
-47.56339784367228
 20
-24.620073274083037
 30
0.0
 40
0.48417265355261413
  1
x = -49.000
 50
14.999999999999998
 11
-47.56339784367228
 21
-24.620073274083037
 31
0.0
100
AcDbAttribute
  2
XPOS
 70
0
  0
ATTRIB
  5
11F
330
17
100
AcDbEntity
  8
0
 62
4
100
AcDbText
 10
-47.312771635957795
 20
-25.555423014981795
 30
0.0
 40
0.48417265355261413
  1
y = -23.000
 50
14.999999999999998
 11
-47.312771635957795
 21
-25.555423014981795
 31
0.0
100
AcDbAttribute
  2
YPOS
 70
0
  0
SEQEND
  5
11C
330
11B
100
AcDbEntity
  8
0
  0
INSERT
  5
120
330
17
100
AcDbEntity
  8
0
100
AcDbBlockReference
 66
1
  2
FLAG
 10
-50.0
 20
30.0
 30
0.0
 41
1.6831623441987273
 42
1.6831623441987273
 43
1.6831623441987273
 50
15.0
  0
ATTRIB
  5
122
330
17
100
AcDbEntity
  8
0
 62
3
100
AcDbText
 10
-48.96927777561158
 20
29.404912246289616
 30
0.0
 40
0.8415811720993637
  1
P(48)
 50
14.999999999999998
 11
-48.96927777561158
 21
29.404912246289616
 31
0.0
100
AcDbAttribute
  2
NAME
 70
0
  0
ATTRIB
  5
123
330
17
100
AcDbEntity
  8
0
 62
4
100
AcDbText
 10
-48.75146054027257
 20
28.592007257240216
 30
0.0
 40
0.42079058604968184
  1
x = -50.000
 50
14.999999999999998
 11
-48.75146054027257
 21
28.592007257240216
 31
0.0
100
AcDbAttribute
  2
XPOS
 70
0
  0
ATTRIB
  5
124
330
17
100
AcDbEntity
  8
0
 62
4
100
AcDbText
 10
-48.53364330493355
 20
27.779102268190815
 30
0.0
 40
0.42079058604968184
  1
y = 30.000
 50
14.999999999999998
 11
-48.53364330493355
 21
27.779102268190815
 31
0.0
100
AcDbAttribute
  2
YPOS
 70
0
  0
SEQEND
  5
121
330
120
100
AcDbEntity
  8
0
  0
INSERT
  5
125
330
17
100
AcDbEntity
  8
0
100
AcDbBlockReference
 66
1
  2
FLAG
 10
25.0
 20
-24.0
 30
0.0
 41
1.459844611448739
 42
1.459844611448739
 43
1.459844611448739
 50
15.0
  0
ATTRIB
  5
127
330
17
100
AcDbEntity
  8
0
 62
3
100
AcDbText
 10
25.893968600450243
 20
-24.516133012117024
 30
0.0
 40
0.7299223057243693
  1
P(49)
 50
14.999999999999998
 41
1.0000000000000002
 11
25.893968600450243
 21
-24.516133012117024
 31
0.0
100
AcDbAttribute
  2
NAME
 70
0
  0
ATTRIB
  5
128
330
17
100
AcDbEntity
  8
0
 62
4
100
AcDbText
 10
26.082886394616857
 20
-25.221183818400654
 30
0.0
 40
0.36496115286218467
  1
x = 25.000
 50
14.999999999999998
 41
1.0000000000000002
 11
26.082886394616857
 21
-25.221183818400654
 31
0.0
100
AcDbAttribute
  2
XPOS
 70
0
  0
ATTRIB
  5
129
330
17
100
AcDbEntity
  8
0
 62
4
100
AcDbText
 10
26.271804188783467
 20
-25.926234624684287
 30
0.0
 40
0.36496115286218467
  1
y = -24.000
 50
14.999999999999998
 41
1.0000000000000002
 11
26.271804188783467
 21
-25.926234624684287
 31
0.0
100
AcDbAttribute
  2
YPOS
 70
0
  0
SEQEND
  5
126
330
125
100
AcDbEntity
  8
0
  0
INSERT
  5
12A
330
17
100
AcDbEntity
  8
0
100
AcDbBlockReference
 66
1
  2
FLAG
 10
-100.0
 20
88.0
 30
0.0
 41
0.6188021114674527
 42
0.6188021114674527
 43
0.6188021114674527
 50
15.0
  0
ATTRIB
  5
12C
330
17
100
AcDbEntity
  8
0
 62
3
100
AcDbText
 10
-99.62106264378697
 20
87.78122041538441
 30
0.0
 40
0.30940105573372634
  1
P(50)
 50
14.999999999999998
 11
-99.62106264378697
 21
87.78122041538441
 31
0.0
100
AcDbAttribute
  2
NAME
 70
0
  0
ATTRIB
  5
12D
330
17
100
AcDbEntity
  8
0
 62
4
100
AcDbText
 10
-99.54098375798826
 20
87.4823619449701
 30
0.0
 40
0.15470052786686317
  1
x = -100.000
 50
14.999999999999998
 11
-99.54098375798826
 21
87.4823619449701
 31
0.0
100
AcDbAttribute
  2
XPOS
 70
0
  0
ATTRIB
  5
12E
330
17
100
AcDbEntity
  8
0
 62
4
100
AcDbText
 10
-99.46090487218954
 20
87.18350347455579
 30
0.0
 40
0.15470052786686317
  1
y = 88.000
 50
14.999999999999998
 11
-99.46090487218954
 21
87.18350347455579
 31
0.0
100
AcDbAttribute
  2
YPOS
 70
0
  0
SEQEND
  5
12B
330
12A
100
AcDbEntity
  8
0
  0
ENDSEC
  0
SECTION
  2
OBJECTS
  0
DICTIONARY
  5
A
330
0
100
AcDbDictionary
280
0
281
1
  3
ACAD_COLOR
350
B
  3
ACAD_GROUP
350
C
  3
ACAD_LAYOUT
350
D
  3
ACAD_MATERIAL
350
E
  3
ACAD_MLEADERSTYLE
350
F
  3
ACAD_MLINESTYLE
350
10
  3
ACAD_PLOTSETTINGS
350
11
  3
ACAD_PLOTSTYLENAME
350
12
  3
ACAD_SCALELIST
350
14
  3
ACAD_TABLESTYLE
350
15
  3
ACAD_VISUALSTYLE
350
16
  3
EZDXF_META
350
2D
  0
DICTIONARY
  5
B
330
A
100
AcDbDictionary
280
0
281
1
  0
DICTIONARY
  5
C
330
A
100
AcDbDictionary
280
0
281
1
  0
DICTIONARY
  5
D
330
A
100
AcDbDictionary
280
0
281
1
  3
Model
350
1A
  3
Layout1
350
1E
  0
DICTIONARY
  5
E
330
A
100
AcDbDictionary
280
0
281
1
  3
ByBlock
350
1F
  3
ByLayer
350
20
  3
Global
350
21
  0
DICTIONARY
  5
F
330
A
100
AcDbDictionary
280
0
281
1
  3
Standard
350
2C
  0
DICTIONARY
  5
10
330
A
100
AcDbDictionary
280
0
281
1
  3
Standard
350
22
  0
DICTIONARY
  5
11
330
A
100
AcDbDictionary
280
0
281
1
  0
ACDBDICTIONARYWDFLT
  5
12
330
A
100
AcDbDictionary
280
0
281
1
  3
Normal
350
13
100
AcDbDictionaryWithDefault
340
13
  0
ACDBPLACEHOLDER
  5
13
330
12
  0
DICTIONARY
  5
14
330
A
100
AcDbDictionary
280
0
281
1
  0
DICTIONARY
  5
15
330
A
100
AcDbDictionary
280
0
281
1
  0
DICTIONARY
  5
16
330
A
100
AcDbDictionary
280
0
281
1
  0
LAYOUT
  5
1A
330
D
100
AcDbPlotSettings
  1

  4
A3
  6

 40
7.5
 41
20.0
 42
7.5
 43
20.0
 44
420.0
 45
297.0
 46
0.0
 47
0.0
 48
0.0
 49
0.0
140
0.0
141
0.0
142
1.0
143
1.0
 70
1024
 72
1
 73
0
 74
5
  7

 75
16
 76
0
 77
2
 78
300
147
1.0
148
0.0
149
0.0
100
AcDbLayout
  1
Model
 70
1
 71
0
 10
0.0
 20
0.0
 11
420.0
 21
297.0
 12
0.0
 22
0.0
 32
0.0
 14
1e+20
 24
1e+20
 34
1e+20
 15
-1e+20
 25
-1e+20
 35
-1e+20
146
0.0
 13
0.0
 23
0.0
 33
0.0
 16
1.0
 26
0.0
 36
0.0
 17
0.0
 27
1.0
 37
0.0
 76
1
330
17
  0
LAYOUT
  5
1E
330
D
100
AcDbPlotSettings
  1

  4
A3
  6

 40
7.5
 41
20.0
 42
7.5
 43
20.0
 44
420.0
 45
297.0
 46
0.0
 47
0.0
 48
0.0
 49
0.0
140
0.0
141
0.0
142
1.0
143
1.0
 70
0
 72
1
 73
0
 74
5
  7

 75
16
 76
0
 77
2
 78
300
147
1.0
148
0.0
149
0.0
100
AcDbLayout
  1
Layout1
 70
1
 71
1
 10
0.0
 20
0.0
 11
420.0
 21
297.0
 12
0.0
 22
0.0
 32
0.0
 14
1e+20
 24
1e+20
 34
1e+20
 15
-1e+20
 25
-1e+20
 35
-1e+20
146
0.0
 13
0.0
 23
0.0
 33
0.0
 16
1.0
 26
0.0
 36
0.0
 17
0.0
 27
1.0
 37
0.0
 76
1
330
1B
  0
MATERIAL
  5
1F
102
{ACAD_REACTORS
330
E
102
}
330
E
100
AcDbMaterial
  1
ByBlock
  2

 70
0
 40
1.0
 71
1
 41
1.0
 91
-1023410177
 42
1.0
 72
1
  3

 73
1
 74
1
 75
1
 44
0.5
 73
0
 45
1.0
 46
1.0
 77
1
  4

 78
1
 79
1
170
1
 48
1.0
171
1
  6

172
1
173
1
174
1
140
1.0
141
1.0
175
1
  7

176
1
177
1
178
1
143
1.0
179
1
  8

270
1
271
1
272
1
145
1.0
146
1.0
273
1
  9

274
1
275
1
276
1
 42
1.0
 72
1
  3

 73
1
 74
1
 75
1
 94
63
  0
MATERIAL
  5
20
102
{ACAD_REACTORS
330
E
102
}
330
E
100
AcDbMaterial
  1
ByLayer
  2

 70
0
 40
1.0
 71
1
 41
1.0
 91
-1023410177
 42
1.0
 72
1
  3

 73
1
 74
1
 75
1
 44
0.5
 73
0
 45
1.0
 46
1.0
 77
1
  4

 78
1
 79
1
170
1
 48
1.0
171
1
  6

172
1
173
1
174
1
140
1.0
141
1.0
175
1
  7

176
1
177
1
178
1
143
1.0
179
1
  8

270
1
271
1
272
1
145
1.0
146
1.0
273
1
  9

274
1
275
1
276
1
 42
1.0
 72
1
  3

 73
1
 74
1
 75
1
 94
63
  0
MATERIAL
  5
21
102
{ACAD_REACTORS
330
E
102
}
330
E
100
AcDbMaterial
  1
Global
  2

 70
0
 40
1.0
 71
1
 41
1.0
 91
-1023410177
 42
1.0
 72
1
  3

 73
1
 74
1
 75
1
 44
0.5
 73
0
 45
1.0
 46
1.0
 77
1
  4

 78
1
 79
1
170
1
 48
1.0
171
1
  6

172
1
173
1
174
1
140
1.0
141
1.0
175
1
  7

176
1
177
1
178
1
143
1.0
179
1
  8

270
1
271
1
272
1
145
1.0
146
1.0
273
1
  9

274
1
275
1
276
1
 42
1.0
 72
1
  3

 73
1
 74
1
 75
1
 94
63
  0
MLINESTYLE
  5
22
102
{ACAD_REACTORS
330
10
102
}
330
10
100
AcDbMlineStyle
  2
Standard
 70
0
  3

 62
256
 51
90.0
 52
90.0
 71
2
 49
0.5
 62
256
  6
BYLAYER
 49
-0.5
 62
256
  6
BYLAYER
  0
MLEADERSTYLE
  5
2C
102
{ACAD_REACTORS
330
F
102
}
330
F
100
AcDbMLeaderStyle
179
2
170
2
171
1
172
0
 90
2
 40
0.0
 41
0.0
173
1
 91
-1056964608
 92
-2
290
1
 42
2.0
291
1
 43
8.0
  3
Standard
 44
4.0
300

342
29
174
1
175
1
176
0
178
1
 93
-1056964608
 45
4.0
292
0
297
0
 46
4.0
 94
-1056964608
 47
1.0
 49
1.0
140
1.0
294
1
141
0.0
177
0
142
1.0
295
0
296
0
143
3.75
271
0
272
9
273
9
  0
DICTIONARY
  5
2D
330
A
100
AcDbDictionary
280
1
281
1
  3
CREATED_BY_EZDXF
350
2E
  3
WRITTEN_BY_EZDXF
350
131
  0
DICTIONARYVAR
  5
2E
330
2D
100
DictionaryVariables
280
0
  1
1.3.5 @ 2025-03-31T18:18:32.190526+00:00
  0
DICTIONARYVAR
  5
131
330
2D
100
DictionaryVariables
280
0
  1
1.3.5 @ 2025-03-31T18:18:32.236892+00:00
  0
ENDSEC
  0
EOF
