  0
SECTION
  2
HEADER
  9
$ACADVER
  1
AC1024
  9
$ACADMAINTVER
 70
6
  9
$DWGCODEPAGE
  3
ANSI_1252
  9
$LASTSAVEDBY
  1
ezdxf
  9
$INSBASE
 10
0.0
 20
0.0
 30
0.0
  9
$EXTMIN
 10
1e+20
 20
1e+20
 30
1e+20
  9
$EXTMAX
 10
-1e+20
 20
-1e+20
 30
-1e+20
  9
$LIMMIN
 10
0.0
 20
0.0
  9
$LIMMAX
 10
420.0
 20
297.0
  9
$ORTHOMODE
 70
0
  9
$REGENMODE
 70
1
  9
$FILLMODE
 70
1
  9
$QTEXTMODE
 70
0
  9
$MIRRTEXT
 70
1
  9
$LTSCALE
 40
1.0
  9
$ATTMODE
 70
1
  9
$TEXTSIZE
 40
2.5
  9
$TRACEWID
 40
1.0
  9
$TEXTSTYLE
  7
Standard
  9
$CLAYER
  8
0
  9
$CELTYPE
  6
ByLayer
  9
$CECOLOR
 62
256
  9
$CELTSCALE
 40
1.0
  9
$DISPSILH
 70
0
  9
$DIMSCALE
 40
1.0
  9
$DIMASZ
 40
2.5
  9
$DIMEXO
 40
0.625
  9
$DIMDLI
 40
3.75
  9
$DIMRND
 40
0.0
  9
$DIMDLE
 40
0.0
  9
$DIMEXE
 40
1.25
  9
$DIMTP
 40
0.0
  9
$DIMTM
 40
0.0
  9
$DIMTXT
 40
2.5
  9
$DIMCEN
 40
2.5
  9
$DIMTSZ
 40
0.0
  9
$DIMTOL
 70
0
  9
$DIMLIM
 70
0
  9
$DIMTIH
 70
0
  9
$DIMTOH
 70
0
  9
$DIMSE1
 70
0
  9
$DIMSE2
 70
0
  9
$DIMTAD
 70
1
  9
$DIMZIN
 70
8
  9
$DIMBLK
  1

  9
$DIMASO
 70
1
  9
$DIMSHO
 70
1
  9
$DIMPOST
  1

  9
$DIMAPOST
  1

  9
$DIMALT
 70
0
  9
$DIMALTD
 70
3
  9
$DIMALTF
 40
0.03937007874
  9
$DIMLFAC
 40
1.0
  9
$DIMTOFL
 70
1
  9
$DIMTVP
 40
0.0
  9
$DIMTIX
 70
0
  9
$DIMSOXD
 70
0
  9
$DIMSAH
 70
0
  9
$DIMBLK1
  1

  9
$DIMBLK2
  1

  9
$DIMSTYLE
  2
ISO-25
  9
$DIMCLRD
 70
0
  9
$DIMCLRE
 70
0
  9
$DIMCLRT
 70
0
  9
$DIMTFAC
 40
1.0
  9
$DIMGAP
 40
0.625
  9
$DIMJUST
 70
0
  9
$DIMSD1
 70
0
  9
$DIMSD2
 70
0
  9
$DIMTOLJ
 70
0
  9
$DIMTZIN
 70
8
  9
$DIMALTZ
 70
0
  9
$DIMALTTZ
 70
0
  9
$DIMUPT
 70
0
  9
$DIMDEC
 70
2
  9
$DIMTDEC
 70
2
  9
$DIMALTU
 70
2
  9
$DIMALTTD
 70
3
  9
$DIMTXSTY
  7
Standard
  9
$DIMAUNIT
 70
0
  9
$DIMADEC
 70
0
  9
$DIMALTRND
 40
0.0
  9
$DIMAZIN
 70
0
  9
$DIMDSEP
 70
44
  9
$DIMATFIT
 70
3
  9
$DIMFRAC
 70
0
  9
$DIMLDRBLK
  1

  9
$DIMLUNIT
 70
2
  9
$DIMLWD
 70
-2
  9
$DIMLWE
 70
-2
  9
$DIMTMOVE
 70
0
  9
$DIMFXL
 40
1.0
  9
$DIMFXLON
 70
0
  9
$DIMJOGANG
 40
0.785398163397
  9
$DIMTFILL
 70
0
  9
$DIMTFILLCLR
 70
0
  9
$DIMARCSYM
 70
0
  9
$DIMLTYPE
  6

  9
$DIMLTEX1
  6

  9
$DIMLTEX2
  6

  9
$DIMTXTDIRECTION
 70
0
  9
$LUNITS
 70
2
  9
$LUPREC
 70
4
  9
$SKETCHINC
 40
1.0
  9
$FILLETRAD
 40
10.0
  9
$AUNITS
 70
0
  9
$AUPREC
 70
2
  9
$MENU
  1
.
  9
$ELEVATION
 40
0.0
  9
$PELEVATION
 40
0.0
  9
$THICKNESS
 40
0.0
  9
$LIMCHECK
 70
0
  9
$CHAMFERA
 40
0.0
  9
$CHAMFERB
 40
0.0
  9
$CHAMFERC
 40
0.0
  9
$CHAMFERD
 40
0.0
  9
$SKPOLY
 70
0
  9
$TDCREATE
 40
2460766.8945370372
  9
$TDUCREATE
 40
2458532.153996898
  9
$TDUPDATE
 40
2460766.8945370372
  9
$TDUUPDATE
 40
2458532.1544311
  9
$TDINDWG
 40
0.0
  9
$TDUSRTIMER
 40
0.0
  9
$USRTIMER
 70
1
  9
$ANGBASE
 50
0.0
  9
$ANGDIR
 70
0
  9
$PDMODE
 70
0
  9
$PDSIZE
 40
0.0
  9
$PLINEWID
 40
0.0
  9
$SPLFRAME
 70
0
  9
$SPLINETYPE
 70
6
  9
$SPLINESEGS
 70
8
  9
$HANDSEED
  5
135
  9
$SURFTAB1
 70
6
  9
$SURFTAB2
 70
6
  9
$SURFTYPE
 70
6
  9
$SURFU
 70
6
  9
$SURFV
 70
6
  9
$UCSBASE
  2

  9
$UCSNAME
  2

  9
$UCSORG
 10
0.0
 20
0.0
 30
0.0
  9
$UCSXDIR
 10
1.0
 20
0.0
 30
0.0
  9
$UCSYDIR
 10
0.0
 20
1.0
 30
0.0
  9
$UCSORTHOREF
  2

  9
$UCSORTHOVIEW
 70
0
  9
$UCSORGTOP
 10
0.0
 20
0.0
 30
0.0
  9
$UCSORGBOTTOM
 10
0.0
 20
0.0
 30
0.0
  9
$UCSORGLEFT
 10
0.0
 20
0.0
 30
0.0
  9
$UCSORGRIGHT
 10
0.0
 20
0.0
 30
0.0
  9
$UCSORGFRONT
 10
0.0
 20
0.0
 30
0.0
  9
$UCSORGBACK
 10
0.0
 20
0.0
 30
0.0
  9
$PUCSBASE
  2

  9
$PUCSNAME
  2

  9
$PUCSORG
 10
0.0
 20
0.0
 30
0.0
  9
$PUCSXDIR
 10
1.0
 20
0.0
 30
0.0
  9
$PUCSYDIR
 10
0.0
 20
1.0
 30
0.0
  9
$PUCSORTHOREF
  2

  9
$PUCSORTHOVIEW
 70
0
  9
$PUCSORGTOP
 10
0.0
 20
0.0
 30
0.0
  9
$PUCSORGBOTTOM
 10
0.0
 20
0.0
 30
0.0
  9
$PUCSORGLEFT
 10
0.0
 20
0.0
 30
0.0
  9
$PUCSORGRIGHT
 10
0.0
 20
0.0
 30
0.0
  9
$PUCSORGFRONT
 10
0.0
 20
0.0
 30
0.0
  9
$PUCSORGBACK
 10
0.0
 20
0.0
 30
0.0
  9
$USERI1
 70
0
  9
$USERI2
 70
0
  9
$USERI3
 70
0
  9
$USERI4
 70
0
  9
$USERI5
 70
0
  9
$USERR1
 40
0.0
  9
$USERR2
 40
0.0
  9
$USERR3
 40
0.0
  9
$USERR4
 40
0.0
  9
$USERR5
 40
0.0
  9
$WORLDVIEW
 70
1
  9
$SHADEDGE
 70
3
  9
$SHADEDIF
 70
70
  9
$TILEMODE
 70
1
  9
$MAXACTVP
 70
64
  9
$PINSBASE
 10
0.0
 20
0.0
 30
0.0
  9
$PLIMCHECK
 70
0
  9
$PEXTMIN
 10
1e+20
 20
1e+20
 30
1e+20
  9
$PEXTMAX
 10
-1e+20
 20
-1e+20
 30
-1e+20
  9
$PLIMMIN
 10
0.0
 20
0.0
  9
$PLIMMAX
 10
420.0
 20
297.0
  9
$UNITMODE
 70
0
  9
$VISRETAIN
 70
1
  9
$PLINEGEN
 70
0
  9
$PSLTSCALE
 70
1
  9
$TREEDEPTH
 70
3020
  9
$CMLSTYLE
  2
Standard
  9
$CMLJUST
 70
0
  9
$CMLSCALE
 40
20.0
  9
$PROXYGRAPHICS
 70
1
  9
$MEASUREMENT
 70
1
  9
$CELWEIGHT
370
-1
  9
$ENDCAPS
280
0
  9
$JOINSTYLE
280
0
  9
$LWDISPLAY
290
0
  9
$INSUNITS
 70
6
  9
$HYPERLINKBASE
  1

  9
$STYLESHEET
  1

  9
$XEDIT
290
1
  9
$CEPSNTYPE
380
0
  9
$PSTYLEMODE
290
1
  9
$FINGERPRINTGUID
  2
{E226F3C9-11EB-4DD4-8F4A-99D7C2BD9EDA}
  9
$VERSIONGUID
  2
{172A252E-73A0-4CCC-BF90-5ED39E32183B}
  9
$EXTNAMES
290
1
  9
$PSVPSCALE
 40
0.0
  9
$OLESTARTUP
290
0
  9
$SORTENTS
280
127
  9
$INDEXCTL
280
0
  9
$HIDETEXT
280
1
  9
$XCLIPFRAME
280
1
  9
$HALOGAP
280
0
  9
$OBSCOLOR
 70
257
  9
$OBSLTYPE
280
0
  9
$INTERSECTIONDISPLAY
280
0
  9
$INTERSECTIONCOLOR
 70
257
  9
$DIMASSOC
280
2
  9
$PROJECTNAME
  1

  9
$CAMERADISPLAY
290
0
  9
$LENSLENGTH
 40
50.0
  9
$CAMERAHEIGHT
 40
0.0
  9
$STEPSPERSEC
 40
24.0
  9
$STEPSIZE
 40
100.0
  9
$3DDWFPREC
 40
2.0
  9
$PSOLWIDTH
 40
0.005
  9
$PSOLHEIGHT
 40
0.08
  9
$LOFTANG1
 40
1.570796326795
  9
$LOFTANG2
 40
1.570796326795
  9
$LOFTMAG1
 40
0.0
  9
$LOFTMAG2
 40
0.0
  9
$LOFTPARAM
 70
7
  9
$LOFTNORMALS
280
1
  9
$LATITUDE
 40
37.795
  9
$LONGITUDE
 40
-122.394
  9
$NORTHDIRECTION
 40
0.0
  9
$TIMEZONE
 70
-8000
  9
$LIGHTGLYPHDISPLAY
280
1
  9
$TILEMODELIGHTSYNCH
280
1
  9
$CMATERIAL
347
20
  9
$SOLIDHIST
280
0
  9
$SHOWHIST
280
1
  9
$DWFFRAME
280
2
  9
$DGNFRAME
280
2
  9
$REALWORLDSCALE
290
1
  9
$INTERFERECOLOR
 62
256
  9
$CSHADOW
280
0
  9
$SHADOWPLANELOCATION
 40
0.0
  0
ENDSEC
  0
SECTION
  2
CLASSES
  0
CLASS
  1
ACDBDICTIONARYWDFLT
  2
AcDbDictionaryWithDefault
  3
ObjectDBX Classes
 90
0
 91
0
280
0
281
0
  0
CLASS
  1
SUN
  2
AcDbSun
  3
SCENEOE
 90
1153
 91
0
280
0
281
0
  0
CLASS
  1
VISUALSTYLE
  2
AcDbVisualStyle
  3
ObjectDBX Classes
 90
4095
 91
0
280
0
281
0
  0
CLASS
  1
MATERIAL
  2
AcDbMaterial
  3
ObjectDBX Classes
 90
1153
 91
0
280
0
281
0
  0
CLASS
  1
SCALE
  2
AcDbScale
  3
ObjectDBX Classes
 90
1153
 91
0
280
0
281
0
  0
CLASS
  1
TABLESTYLE
  2
AcDbTableStyle
  3
ObjectDBX Classes
 90
4095
 91
0
280
0
281
0
  0
CLASS
  1
MLEADERSTYLE
  2
AcDbMLeaderStyle
  3
ACDB_MLEADERSTYLE_CLASS
 90
4095
 91
0
280
0
281
0
  0
CLASS
  1
DICTIONARYVAR
  2
AcDbDictionaryVar
  3
ObjectDBX Classes
 90
0
 91
0
280
0
281
0
  0
CLASS
  1
CELLSTYLEMAP
  2
AcDbCellStyleMap
  3
ObjectDBX Classes
 90
1152
 91
0
280
0
281
0
  0
CLASS
  1
MENTALRAYRENDERSETTINGS
  2
AcDbMentalRayRenderSettings
  3
SCENEOE
 90
1024
 91
0
280
0
281
0
  0
CLASS
  1
ACDBDETAILVIEWSTYLE
  2
AcDbDetailViewStyle
  3
ObjectDBX Classes
 90
1025
 91
0
280
0
281
0
  0
CLASS
  1
ACDBSECTIONVIEWSTYLE
  2
AcDbSectionViewStyle
  3
ObjectDBX Classes
 90
1025
 91
0
280
0
281
0
  0
CLASS
  1
RASTERVARIABLES
  2
AcDbRasterVariables
  3
ISM
 90
0
 91
0
280
0
281
0
  0
CLASS
  1
LAYOUT
  2
AcDbLayout
  3
ObjectDBX Classes
 90
0
 91
0
280
0
281
0
  0
CLASS
  1
ACDBPLACEHOLDER
  2
AcDbPlaceHolder
  3
ObjectDBX Classes
 90
0
 91
0
280
0
281
0
  0
ENDSEC
  0
SECTION
  2
TABLES
  0
TABLE
  2
VPORT
  5
8
330
0
100
AcDbSymbolTable
 70
1
  0
VPORT
  5
23
330
8
100
AcDbSymbolTableRecord
100
AcDbViewportTableRecord
  2
*Active
 70
0
 10
0.0
 20
0.0
 11
1.0
 21
1.0
 12
0.0
 22
0.0
 13
0.0
 23
0.0
 14
0.5
 24
0.5
 15
0.5
 25
0.5
 16
0.0
 26
0.0
 36
1.0
 17
0.0
 27
0.0
 37
0.0
 40
1000.0
 41
1.34
 42
50.0
 43
0.0
 44
0.0
 50
0.0
 51
0.0
 71
0
 72
1000
 73
1
 74
3
 75
0
 76
0
 77
0
 78
0
281
0
 65
0
146
0.0
  0
ENDTAB
  0
TABLE
  2
LTYPE
  5
2
330
0
100
AcDbSymbolTable
 70
3
  0
LTYPE
  5
24
330
2
100
AcDbSymbolTableRecord
100
AcDbLinetypeTableRecord
  2
ByBlock
 70
0
  3

 72
65
 73
0
 40
0.0
  0
LTYPE
  5
25
330
2
100
AcDbSymbolTableRecord
100
AcDbLinetypeTableRecord
  2
ByLayer
 70
0
  3

 72
65
 73
0
 40
0.0
  0
LTYPE
  5
26
330
2
100
AcDbSymbolTableRecord
100
AcDbLinetypeTableRecord
  2
Continuous
 70
0
  3

 72
65
 73
0
 40
0.0
  0
ENDTAB
  0
TABLE
  2
LAYER
  5
1
330
0
100
AcDbSymbolTable
 70
2
  0
LAYER
  5
27
330
1
100
AcDbSymbolTableRecord
100
AcDbLayerTableRecord
  2
0
 70
0
 62
7
  6
Continuous
370
-3
390
13
347
21
  0
LAYER
  5
28
330
1
100
AcDbSymbolTableRecord
100
AcDbLayerTableRecord
  2
Defpoints
 70
0
 62
7
  6
Continuous
290
0
370
-3
390
13
347
21
  0
ENDTAB
  0
TABLE
  2
STYLE
  5
5
330
0
100
AcDbSymbolTable
 70
1
  0
STYLE
  5
29
330
5
100
AcDbSymbolTableRecord
100
AcDbTextStyleTableRecord
  2
Standard
 70
0
 40
0.0
 41
1.0
 50
0.0
 71
0
 42
2.5
  3
txt
  4

  0
ENDTAB
  0
TABLE
  2
VIEW
  5
7
330
0
100
AcDbSymbolTable
 70
0
  0
ENDTAB
  0
TABLE
  2
UCS
  5
6
330
0
100
AcDbSymbolTable
 70
0
  0
ENDTAB
  0
TABLE
  2
APPID
  5
3
330
0
100
AcDbSymbolTable
 70
3
  0
APPID
  5
2A
330
3
100
AcDbSymbolTableRecord
100
AcDbRegAppTableRecord
  2
ACAD
 70
0
  0
APPID
  5
132
330
3
100
AcDbSymbolTableRecord
100
AcDbRegAppTableRecord
  2
HATCHBACKGROUNDCOLOR
 70
0
  0
APPID
  5
133
330
3
100
AcDbSymbolTableRecord
100
AcDbRegAppTableRecord
  2
EZDXF
 70
0
  0
ENDTAB
  0
TABLE
  2
DIMSTYLE
  5
4
330
0
100
AcDbSymbolTable
 70
1
100
AcDbDimStyleTable
  0
DIMSTYLE
105
2B
330
4
100
AcDbSymbolTableRecord
100
AcDbDimStyleTableRecord
  2
Standard
 70
0
 40
1.0
 41
2.5
 42
0.625
 43
3.75
 44
1.25
 45
0.0
 46
0.0
 47
0.0
 48
0.0
 49
2.5
140
2.5
141
2.5
142
0.0
143
0.03937007874
144
1.0
145
0.0
146
1.0
147
0.625
148
0.0
 69
0
 70
0
 71
0
 72
0
 73
0
 74
0
 75
0
 76
0
 77
1
 78
8
 79
3
170
0
171
3
172
1
173
0
174
0
175
0
176
0
177
0
178
0
179
2
271
2
272
2
273
2
274
3
275
0
276
0
277
2
278
44
279
0
280
0
281
0
282
0
283
0
284
8
285
0
286
0
288
0
289
3
290
0
371
-2
372
-2
  0
ENDTAB
  0
TABLE
  2
BLOCK_RECORD
  5
9
330
0
100
AcDbSymbolTable
 70
3
  0
BLOCK_RECORD
  5
17
330
9
100
AcDbSymbolTableRecord
100
AcDbBlockTableRecord
  2
*Model_Space
340
1A
 70
0
280
1
281
0
  0
BLOCK_RECORD
  5
1B
330
9
100
AcDbSymbolTableRecord
100
AcDbBlockTableRecord
  2
*Paper_Space
340
1E
 70
0
280
1
281
0
  0
BLOCK_RECORD
  5
2F
330
9
100
AcDbSymbolTableRecord
100
AcDbBlockTableRecord
  2
FLAG
340
0
 70
0
280
1
281
0
  0
ENDTAB
  0
ENDSEC
  0
SECTION
  2
BLOCKS
  0
BLOCK
  5
18
330
17
100
AcDbEntity
  8
0
100
AcDbBlockBegin
  2
*Model_Space
 70
0
 10
0.0
 20
0.0
 30
0.0
  3
*Model_Space
  1

  0
ENDBLK
  5
19
330
17
100
AcDbEntity
  8
0
100
AcDbBlockEnd
  0
BLOCK
  5
1C
330
1B
100
AcDbEntity
  8
0
100
AcDbBlockBegin
  2
*Paper_Space
 70
0
 10
0.0
 20
0.0
 30
0.0
  3
*Paper_Space
  1

  0
ENDBLK
  5
1D
330
1B
100
AcDbEntity
  8
0
100
AcDbBlockEnd
  0
BLOCK
  5
30
330
2F
100
AcDbEntity
  8
0
100
AcDbBlockBegin
  2
FLAG
 70
2
 10
0.0
 20
0.0
 30
0.0
  3
FLAG
  1

  0
TEXT
  5
32
330
2F
100
AcDbEntity
  8
0
 62
3
100
AcDbText
 10
0.0
 20
-0.5
 30
0.0
 40
0.5
  1
NAME:
100
AcDbText
  0
TEXT
  5
33
330
2F
100
AcDbEntity
  8
0
 62
4
100
AcDbText
 10
0.0
 20
-1.0
 30
0.0
 40
0.25
  1
X:
100
AcDbText
  0
TEXT
  5
34
330
2F
100
AcDbEntity
  8
0
 62
4
100
AcDbText
 10
0.0
 20
-1.5
 30
0.0
 40
0.25
  1
Y:
100
AcDbText
  0
ATTDEF
  5
35
330
2F
100
AcDbEntity
  8
0
 62
3
100
AcDbText
 10
0.5
 20
-0.5
 30
0.0
 40
0.5
  1

100
AcDbAttributeDefinition
  3

  2
NAME
 70
0
  0
ATTDEF
  5
36
330
2F
100
AcDbEntity
  8
0
 62
4
100
AcDbText
 10
0.5
 20
-1.0
 30
0.0
 40
0.25
  1

100
AcDbAttributeDefinition
  3

  2
XPOS
 70
0
  0
ATTDEF
  5
37
330
2F
100
AcDbEntity
  8
0
 62
4
100
AcDbText
 10
0.5
 20
-1.5
 30
0.0
 40
0.25
  1

100
AcDbAttributeDefinition
  3

  2
YPOS
 70
0
  0
ENDBLK
  5
31
330
2F
100
AcDbEntity
  8
0
100
AcDbBlockEnd
  0
ENDSEC
  0
SECTION
  2
ENTITIES
  0
INSERT
  5
38
330
17
100
AcDbEntity
  8
0
100
AcDbBlockReference
 66
1
  2
FLAG
 10
-19.0
 20
-8.0
 30
0.0
 41
1.6959341794675415
 42
1.6959341794675415
 43
1.6959341794675415
 50
15.0
  0
ATTRIB
  5
3A
330
17
100
AcDbEntity
  8
0
 62
3
100
AcDbText
 10
-17.961456655739713
 20
-8.59960327937377
 30
0.0
 40
0.8479670897337708
  1
P(1)
 50
14.999999999999998
 11
-17.961456655739713
 21
-8.59960327937377
 31
0.0
100
AcDbAttribute
  2
NAME
 70
0
  0
ATTRIB
  5
3B
330
17
100
AcDbEntity
  8
0
 62
4
100
AcDbText
 10
-17.741986623296455
 20
-9.418676591190799
 30
0.0
 40
0.4239835448668854
  1
x = -19.000
 50
14.999999999999998
 11
-17.741986623296455
 21
-9.418676591190799
 31
0.0
100
AcDbAttribute
  2
XPOS
 70
0
  0
ATTRIB
  5
3C
330
17
100
AcDbEntity
  8
0
 62
4
100
AcDbText
 10
-17.522516590853197
 20
-10.23774990300783
 30
0.0
 40
0.4239835448668854
  1
y = -8.000
 50
14.999999999999998
 11
-17.522516590853197
 21
-10.23774990300783
 31
0.0
100
AcDbAttribute
  2
YPOS
 70
0
  0
SEQEND
  5
39
330
38
100
AcDbEntity
  8
0
  0
INSERT
  5
3D
330
17
100
AcDbEntity
  8
0
100
AcDbBlockReference
 66
1
  2
FLAG
 10
20.0
 20
-90.0
 30
0.0
 41
1.418314698795643
 42
1.418314698795643
 43
1.418314698795643
 50
15.0
  0
ATTRIB
  5
3F
330
17
100
AcDbEntity
  8
0
 62
3
100
AcDbText
 10
20.868536826684636
 20
-90.50144997068747
 30
0.0
 40
0.7091573493978215
  1
P(2)
 50
14.999999999999998
 11
20.868536826684636
 21
-90.50144997068747
 31
0.0
100
AcDbAttribute
  2
NAME
 70
0
  0
ATTRIB
  5
40
330
17
100
AcDbEntity
  8
0
 62
4
100
AcDbText
 10
21.052080254683215
 20
-91.18644336937354
 30
0.0
 40
0.35457867469891075
  1
x = 20.000
 50
14.999999999999998
 11
21.052080254683215
 21
-91.18644336937354
 31
0.0
100
AcDbAttribute
  2
XPOS
 70
0
  0
ATTRIB
  5
41
330
17
100
AcDbEntity
  8
0
 62
4
100
AcDbText
 10
21.235623682681794
 20
-91.8714367680596
 30
0.0
 40
0.35457867469891075
  1
y = -90.000
 50
14.999999999999998
 11
21.235623682681794
 21
-91.8714367680596
 31
0.0
100
AcDbAttribute
  2
YPOS
 70
0
  0
SEQEND
  5
3E
330
3D
100
AcDbEntity
  8
0
  0
INSERT
  5
42
330
17
100
AcDbEntity
  8
0
100
AcDbBlockReference
 66
1
  2
FLAG
 10
-62.0
 20
-61.0
 30
0.0
 41
2.2827155229681395
 42
2.2827155229681395
 43
2.2827155229681395
 50
15.0
  0
ATTRIB
  5
44
330
17
100
AcDbEntity
  8
0
 62
3
100
AcDbText
 10
-60.6021279351994
 20
-61.80706181290528
 30
0.0
 40
1.1413577614840698
  1
P(3)
 50
14.999999999999998
 11
-60.6021279351994
 21
-61.80706181290528
 31
0.0
100
AcDbAttribute
  2
NAME
 70
0
  0
ATTRIB
  5
45
330
17
100
AcDbEntity
  8
0
 62
4
100
AcDbText
 10
-60.306722809251745
 20
-62.909528751758224
 30
0.0
 40
0.5706788807420349
  1
x = -62.000
 50
14.999999999999998
 11
-60.306722809251745
 21
-62.909528751758224
 31
0.0
100
AcDbAttribute
  2
XPOS
 70
0
  0
ATTRIB
  5
46
330
17
100
AcDbEntity
  8
0
 62
4
100
AcDbText
 10
-60.011317683304085
 20
-64.01199569061117
 30
0.0
 40
0.5706788807420349
  1
y = -61.000
 50
14.999999999999998
 11
-60.011317683304085
 21
-64.01199569061117
 31
0.0
100
AcDbAttribute
  2
YPOS
 70
0
  0
SEQEND
  5
43
330
42
100
AcDbEntity
  8
0
  0
INSERT
  5
47
330
17
100
AcDbEntity
  8
0
100
AcDbBlockReference
 66
1
  2
FLAG
 10
62.0
 20
-29.0
 30
0.0
 41
0.5973758867134658
 42
0.5973758867134658
 43
0.5973758867134658
 50
15.0
  0
ATTRIB
  5
49
330
17
100
AcDbEntity
  8
0
 62
3
100
AcDbText
 10
62.36581652677266
 20
-29.21120427020621
 30
0.0
 40
0.29868794335673293
  1
P(4)
 50
14.999999999999996
 11
62.36581652677266
 21
-29.21120427020621
 31
0.0
100
AcDbAttribute
  2
NAME
 70
0
  0
ATTRIB
  5
4A
330
17
100
AcDbEntity
  8
0
 62
4
100
AcDbText
 10
62.44312265505589
 20
-29.499714668695646
 30
0.0
 40
0.14934397167836647
  1
x = 62.000
 50
14.999999999999996
 11
62.44312265505589
 21
-29.499714668695646
 31
0.0
100
AcDbAttribute
  2
XPOS
 70
0
  0
ATTRIB
  5
4B
330
17
100
AcDbEntity
  8
0
 62
4
100
AcDbText
 10
62.52042878333911
 20
-29.788225067185078
 30
0.0
 40
0.14934397167836647
  1
y = -29.000
 50
14.999999999999996
 11
62.52042878333911
 21
-29.788225067185078
 31
0.0
100
AcDbAttribute
  2
YPOS
 70
0
  0
SEQEND
  5
48
330
47
100
AcDbEntity
  8
0
  0
INSERT
  5
4C
330
17
100
AcDbEntity
  8
0
100
AcDbBlockReference
 66
1
  2
FLAG
 10
83.0
 20
21.0
 30
0.0
 41
0.9810886086395549
 42
0.9810886086395549
 43
0.9810886086395549
 50
15.0
  0
ATTRIB
  5
4E
330
17
100
AcDbEntity
  8
0
 62
3
100
AcDbText
 10
83.60079162090601
 20
20.653132795943048
 30
0.0
 40
0.49054430431977747
  1
P(5)
 50
14.999999999999996
 11
83.60079162090601
 21
20.653132795943048
 31
0.0
100
AcDbAttribute
  2
NAME
 70
0
  0
ATTRIB
  5
4F
330
17
100
AcDbEntity
  8
0
 62
4
100
AcDbText
 10
83.72775382933052
 20
20.17930338346157
 30
0.0
 40
0.24527215215988873
  1
x = 83.000
 50
14.999999999999996
 11
83.72775382933052
 21
20.17930338346157
 31
0.0
100
AcDbAttribute
  2
XPOS
 70
0
  0
ATTRIB
  5
50
330
17
100
AcDbEntity
  8
0
 62
4
100
AcDbText
 10
83.85471603775505
 20
19.705473970980094
 30
0.0
 40
0.24527215215988873
  1
y = 21.000
 50
14.999999999999996
 11
83.85471603775505
 21
19.705473970980094
 31
0.0
100
AcDbAttribute
  2
YPOS
 70
0
  0
SEQEND
  5
4D
330
4C
100
AcDbEntity
  8
0
  0
INSERT
  5
51
330
17
100
AcDbEntity
  8
0
100
AcDbBlockReference
 66
1
  2
FLAG
 10
-72.0
 20
63.0
 30
0.0
 41
2.049687634216328
 42
2.049687634216328
 43
2.049687634216328
 50
15.0
  0
ATTRIB
  5
53
330
17
100
AcDbEntity
  8
0
 62
3
100
AcDbText
 10
-70.74482779101939
 20
62.27532598726571
 30
0.0
 40
1.024843817108164
  1
P(6)
 50
14.999999999999998
 11
-70.74482779101939
 21
62.27532598726571
 31
0.0
100
AcDbAttribute
  2
NAME
 70
0
  0
ATTRIB
  5
54
330
17
100
AcDbEntity
  8
0
 62
4
100
AcDbText
 10
-70.47957869289624
 20
61.28540287640826
 30
0.0
 40
0.512421908554082
  1
x = -72.000
 50
14.999999999999998
 11
-70.47957869289624
 21
61.28540287640826
 31
0.0
100
AcDbAttribute
  2
XPOS
 70
0
  0
ATTRIB
  5
55
330
17
100
AcDbEntity
  8
0
 62
4
100
AcDbText
 10
-70.21432959477308
 20
60.295479765550816
 30
0.0
 40
0.512421908554082
  1
y = 63.000
 50
14.999999999999998
 11
-70.21432959477308
 21
60.295479765550816
 31
0.0
100
AcDbAttribute
  2
YPOS
 70
0
  0
SEQEND
  5
52
330
51
100
AcDbEntity
  8
0
  0
INSERT
  5
56
330
17
100
AcDbEntity
  8
0
100
AcDbBlockReference
 66
1
  2
FLAG
 10
-83.0
 20
91.0
 30
0.0
 41
2.395709168774824
 42
2.395709168774824
 43
2.395709168774824
 50
15.0
  0
ATTRIB
  5
58
330
17
100
AcDbEntity
  8
0
 62
3
100
AcDbText
 10
-81.53293374109862
 20
90.15298890050427
 30
0.0
 40
1.197854584387412
  1
P(7)
 50
14.999999999999998
 11
-81.53293374109862
 21
90.15298890050427
 31
0.0
100
AcDbAttribute
  2
NAME
 70
0
  0
ATTRIB
  5
59
330
17
100
AcDbEntity
  8
0
 62
4
100
AcDbText
 10
-81.22290616139578
 20
88.9959502213057
 30
0.0
 40
0.598927292193706
  1
x = -83.000
 50
14.999999999999998
 11
-81.22290616139578
 21
88.9959502213057
 31
0.0
100
AcDbAttribute
  2
XPOS
 70
0
  0
ATTRIB
  5
5A
330
17
100
AcDbEntity
  8
0
 62
4
100
AcDbText
 10
-80.91287858169296
 20
87.83891154210716
 30
0.0
 40
0.598927292193706
  1
y = 91.000
 50
14.999999999999998
 11
-80.91287858169296
 21
87.83891154210716
 31
0.0
100
AcDbAttribute
  2
YPOS
 70
0
  0
SEQEND
  5
57
330
56
100
AcDbEntity
  8
0
  0
INSERT
  5
5B
330
17
100
AcDbEntity
  8
0
100
AcDbBlockReference
 66
1
  2
FLAG
 10
60.0
 20
54.0
 30
0.0
 41
0.8630037546379916
 42
0.8630037546379916
 43
0.8630037546379916
 50
15.0
  0
ATTRIB
  5
5D
330
17
100
AcDbEntity
  8
0
 62
3
100
AcDbText
 10
60.528479711242284
 20
53.694882096453014
 30
0.0
 40
0.4315018773189958
  1
P(8)
 50
14.999999999999998
 11
60.528479711242284
 21
53.694882096453014
 31
0.0
100
AcDbAttribute
  2
NAME
 70
0
  0
ATTRIB
  5
5E
330
17
100
AcDbEntity
  8
0
 62
4
100
AcDbText
 10
60.64016061508993
 20
53.27808328905838
 30
0.0
 40
0.2157509386594979
  1
x = 60.000
 50
14.999999999999998
 11
60.64016061508993
 21
53.27808328905838
 31
0.0
100
AcDbAttribute
  2
XPOS
 70
0
  0
ATTRIB
  5
5F
330
17
100
AcDbEntity
  8
0
 62
4
100
AcDbText
 10
60.751841518937574
 20
52.861284481663745
 30
0.0
 40
0.2157509386594979
  1
y = 54.000
 50
14.999999999999998
 11
60.751841518937574
 21
52.861284481663745
 31
0.0
100
AcDbAttribute
  2
YPOS
 70
0
  0
SEQEND
  5
5C
330
5B
100
AcDbEntity
  8
0
  0
INSERT
  5
60
330
17
100
AcDbEntity
  8
0
100
AcDbBlockReference
 66
1
  2
FLAG
 10
81.0
 20
-41.0
 30
0.0
 41
0.7015868432091896
 42
0.7015868432091896
 43
0.7015868432091896
 50
15.0
  0
ATTRIB
  5
62
330
17
100
AcDbEntity
  8
0
 62
3
100
AcDbText
 10
81.42963244402813
 20
-41.24804840721224
 30
0.0
 40
0.3507934216045948
  1
P(9)
 50
14.999999999999998
 11
81.42963244402813
 21
-41.24804840721224
 31
0.0
100
AcDbAttribute
  2
NAME
 70
0
  0
ATTRIB
  5
63
330
17
100
AcDbEntity
  8
0
 62
4
100
AcDbText
 10
81.52042446243608
 20
-41.58688883283243
 30
0.0
 40
0.1753967108022974
  1
x = 81.000
 50
14.999999999999998
 11
81.52042446243608
 21
-41.58688883283243
 31
0.0
100
AcDbAttribute
  2
XPOS
 70
0
  0
ATTRIB
  5
64
330
17
100
AcDbEntity
  8
0
 62
4
100
AcDbText
 10
81.61121648084404
 20
-41.92572925845261
 30
0.0
 40
0.1753967108022974
  1
y = -41.000
 50
14.999999999999998
 11
81.61121648084404
 21
-41.92572925845261
 31
0.0
100
AcDbAttribute
  2
YPOS
 70
0
  0
SEQEND
  5
61
330
60
100
AcDbEntity
  8
0
  0
INSERT
  5
65
330
17
100
AcDbEntity
  8
0
100
AcDbBlockReference
 66
1
  2
FLAG
 10
-9.0
 20
-79.0
 30
0.0
 41
0.5836785488338061
 42
0.5836785488338061
 43
0.5836785488338061
 50
15.0
  0
ATTRIB
  5
67
330
17
100
AcDbEntity
  8
0
 62
3
100
AcDbText
 10
-8.642571345387255
 20
-79.20636152995675
 30
0.0
 40
0.29183927441690305
  1
P(10)
 50
14.999999999999998
 11
-8.642571345387255
 21
-79.20636152995675
 31
0.0
100
AcDbAttribute
  2
NAME
 70
0
  0
ATTRIB
  5
68
330
17
100
AcDbEntity
  8
0
 62
4
100
AcDbText
 10
-8.56703778305926
 20
-79.48825662224151
 30
0.0
 40
0.14591963720845152
  1
x = -9.000
 50
14.999999999999998
 11
-8.56703778305926
 21
-79.48825662224151
 31
0.0
100
AcDbAttribute
  2
XPOS
 70
0
  0
ATTRIB
  5
69
330
17
100
AcDbEntity
  8
0
 62
4
100
AcDbText
 10
-8.491504220731265
 20
-79.77015171452625
 30
0.0
 40
0.14591963720845152
  1
y = -79.000
 50
14.999999999999998
 11
-8.491504220731265
 21
-79.77015171452625
 31
0.0
100
AcDbAttribute
  2
YPOS
 70
0
  0
SEQEND
  5
66
330
65
100
AcDbEntity
  8
0
  0
INSERT
  5
6A
330
17
100
AcDbEntity
  8
0
100
AcDbBlockReference
 66
1
  2
FLAG
 10
-97.0
 20
6.0
 30
0.0
 41
0.9918752689608124
 42
0.9918752689608124
 43
0.9918752689608124
 50
15.0
  0
ATTRIB
  5
6C
330
17
100
AcDbEntity
  8
0
 62
3
100
AcDbText
 10
-96.39260292564005
 20
5.64931913561329
 30
0.0
 40
0.4959376344804062
  1
P(11)
 50
14.999999999999998
 41
1.0000000000000002
 11
-96.39260292564005
 21
5.64931913561329
 31
0.0
100
AcDbAttribute
  2
NAME
 70
0
  0
ATTRIB
  5
6D
330
17
100
AcDbEntity
  8
0
 62
4
100
AcDbText
 10
-96.26424482065343
 20
5.170280166239957
 30
0.0
 40
0.2479688172402031
  1
x = -97.000
 50
14.999999999999998
 41
1.0000000000000002
 11
-96.26424482065343
 21
5.170280166239957
 31
0.0
100
AcDbAttribute
  2
XPOS
 70
0
  0
ATTRIB
  5
6E
330
17
100
AcDbEntity
  8
0
 62
4
100
AcDbText
 10
-96.1358867156668
 20
4.691241196866625
 30
0.0
 40
0.2479688172402031
  1
y = 6.000
 50
14.999999999999998
 41
1.0000000000000002
 11
-96.1358867156668
 21
4.691241196866625
 31
0.0
100
AcDbAttribute
  2
YPOS
 70
0
  0
SEQEND
  5
6B
330
6A
100
AcDbEntity
  8
0
  0
INSERT
  5
6F
330
17
100
AcDbEntity
  8
0
100
AcDbBlockReference
 66
1
  2
FLAG
 10
6.0
 20
-50.0
 30
0.0
 41
1.046807321100651
 42
1.046807321100651
 43
1.046807321100651
 50
15.0
  0
ATTRIB
  5
71
330
17
100
AcDbEntity
  8
0
 62
3
100
AcDbText
 10
6.6410359489265955
 20
-50.370102277673
 30
0.0
 40
0.5234036605503254
  1
P(12)
 50
14.999999999999998
 11
6.6410359489265955
 21
-50.370102277673
 31
0.0
100
AcDbAttribute
  2
NAME
 70
0
  0
ATTRIB
  5
72
330
17
100
AcDbEntity
  8
0
 62
4
100
AcDbText
 10
6.7765027845533945
 20
-50.87567139097279
 30
0.0
 40
0.2617018302751627
  1
x = 6.000
 50
14.999999999999998
 11
6.7765027845533945
 21
-50.87567139097279
 31
0.0
100
AcDbAttribute
  2
XPOS
 70
0
  0
ATTRIB
  5
73
330
17
100
AcDbEntity
  8
0
 62
4
100
AcDbText
 10
6.9119696201801935
 20
-51.38124050427259
 30
0.0
 40
0.2617018302751627
  1
y = -50.000
 50
14.999999999999998
 11
6.9119696201801935
 21
-51.38124050427259
 31
0.0
100
AcDbAttribute
  2
YPOS
 70
0
  0
SEQEND
  5
70
330
6F
100
AcDbEntity
  8
0
  0
INSERT
  5
74
330
17
100
AcDbEntity
  8
0
100
AcDbBlockReference
 66
1
  2
FLAG
 10
-27.0
 20
-91.0
 30
0.0
 41
1.788004105972357
 42
1.788004105972357
 43
1.788004105972357
 50
15.0
  0
ATTRIB
  5
76
330
17
100
AcDbEntity
  8
0
 62
3
100
AcDbText
 10
-25.905075570591627
 20
-91.63215491406122
 30
0.0
 40
0.8940020529861785
  1
P(13)
 50
14.999999999999998
 11
-25.905075570591627
 21
-91.63215491406122
 31
0.0
100
AcDbAttribute
  2
NAME
 70
0
  0
ATTRIB
  5
77
330
17
100
AcDbEntity
  8
0
 62
4
100
AcDbText
 10
-25.67369081291805
 20
-92.49569458579602
 30
0.0
 40
0.44700102649308926
  1
x = -27.000
 50
14.999999999999998
 11
-25.67369081291805
 21
-92.49569458579602
 31
0.0
100
AcDbAttribute
  2
XPOS
 70
0
  0
ATTRIB
  5
78
330
17
100
AcDbEntity
  8
0
 62
4
100
AcDbText
 10
-25.442306055244476
 20
-93.35923425753082
 30
0.0
 40
0.44700102649308926
  1
y = -91.000
 50
14.999999999999998
 11
-25.442306055244476
 21
-93.35923425753082
 31
0.0
100
AcDbAttribute
  2
YPOS
 70
0
  0
SEQEND
  5
75
330
74
100
AcDbEntity
  8
0
  0
INSERT
  5
79
330
17
100
AcDbEntity
  8
0
100
AcDbBlockReference
 66
1
  2
FLAG
 10
-73.0
 20
29.0
 30
0.0
 41
1.0450019618828148
 42
1.0450019618828148
 43
1.0450019618828148
 50
15.0
  0
ATTRIB
  5
7B
330
17
100
AcDbEntity
  8
0
 62
3
100
AcDbText
 10
-72.36006960329493
 20
28.63053601319971
 30
0.0
 40
0.5225009809414074
  1
P(14)
 50
14.999999999999998
 11
-72.36006960329493
 21
28.63053601319971
 31
0.0
100
AcDbAttribute
  2
NAME
 70
0
  0
ATTRIB
  5
7C
330
17
100
AcDbEntity
  8
0
 62
4
100
AcDbText
 10
-72.22483639834255
 20
28.12583882144703
 30
0.0
 40
0.2612504904707037
  1
x = -73.000
 50
14.999999999999998
 11
-72.22483639834255
 21
28.12583882144703
 31
0.0
100
AcDbAttribute
  2
XPOS
 70
0
  0
ATTRIB
  5
7D
330
17
100
AcDbEntity
  8
0
 62
4
100
AcDbText
 10
-72.08960319339016
 20
27.621141629694353
 30
0.0
 40
0.2612504904707037
  1
y = 29.000
 50
14.999999999999998
 11
-72.08960319339016
 21
27.621141629694353
 31
0.0
100
AcDbAttribute
  2
YPOS
 70
0
  0
SEQEND
  5
7A
330
79
100
AcDbEntity
  8
0
  0
INSERT
  5
7E
330
17
100
AcDbEntity
  8
0
100
AcDbBlockReference
 66
1
  2
FLAG
 10
-87.0
 20
-97.0
 30
0.0
 41
1.3958180871787194
 42
1.3958180871787194
 43
1.3958180871787194
 50
15.0
  0
ATTRIB
  5
80
330
17
100
AcDbEntity
  8
0
 62
3
100
AcDbText
 10
-86.14523947816612
 20
-97.49349621737345
 30
0.0
 40
0.6979090435893597
  1
P(15)
 50
14.999999999999998
 11
-86.14523947816612
 21
-97.49349621737345
 31
0.0
100
AcDbAttribute
  2
NAME
 70
0
  0
ATTRIB
  5
81
330
17
100
AcDbEntity
  8
0
 62
4
100
AcDbText
 10
-85.96460732593592
 20
-98.16762458697713
 30
0.0
 40
0.34895452179467984
  1
x = -87.000
 50
14.999999999999998
 11
-85.96460732593592
 21
-98.16762458697713
 31
0.0
100
AcDbAttribute
  2
XPOS
 70
0
  0
ATTRIB
  5
82
330
17
100
AcDbEntity
  8
0
 62
4
100
AcDbText
 10
-85.7839751737057
 20
-98.84175295658079
 30
0.0
 40
0.34895452179467984
  1
y = -97.000
 50
14.999999999999998
 11
-85.7839751737057
 21
-98.84175295658079
 31
0.0
100
AcDbAttribute
  2
YPOS
 70
0
  0
SEQEND
  5
7F
330
7E
100
AcDbEntity
  8
0
  0
INSERT
  5
83
330
17
100
AcDbEntity
  8
0
100
AcDbBlockReference
 66
1
  2
FLAG
 10
79.0
 20
-47.0
 30
0.0
 41
1.3845544245872738
 42
1.3845544245872738
 43
1.3845544245872738
 50
15.0
  0
ATTRIB
  5
85
330
17
100
AcDbEntity
  8
0
 62
3
100
AcDbText
 10
79.8478629653379
 20
-47.48951391127375
 30
0.0
 40
0.6922772122936369
  1
P(16)
 50
14.999999999999998
 11
79.8478629653379
 21
-47.48951391127375
 31
0.0
100
AcDbAttribute
  2
NAME
 70
0
  0
ATTRIB
  5
86
330
17
100
AcDbEntity
  8
0
 62
4
100
AcDbText
 10
80.02703749236997
 20
-48.158202349579575
 30
0.0
 40
0.34613860614681846
  1
x = 79.000
 50
14.999999999999998
 11
80.02703749236997
 21
-48.158202349579575
 31
0.0
100
AcDbAttribute
  2
XPOS
 70
0
  0
ATTRIB
  5
87
330
17
100
AcDbEntity
  8
0
 62
4
100
AcDbText
 10
80.20621201940205
 20
-48.8268907878854
 30
0.0
 40
0.34613860614681846
  1
y = -47.000
 50
14.999999999999998
 11
80.20621201940205
 21
-48.8268907878854
 31
0.0
100
AcDbAttribute
  2
YPOS
 70
0
  0
SEQEND
  5
84
330
83
100
AcDbEntity
  8
0
  0
INSERT
  5
88
330
17
100
AcDbEntity
  8
0
100
AcDbBlockReference
 66
1
  2
FLAG
 10
93.0
 20
43.0
 30
0.0
 41
0.6032241021649587
 42
0.6032241021649587
 43
0.6032241021649587
 50
15.0
  0
ATTRIB
  5
8A
330
17
100
AcDbEntity
  8
0
 62
3
100
AcDbText
 10
93.36939781271316
 20
42.786728073392
 30
0.0
 40
0.3016120510824793
  1
P(17)
 50
14.999999999999998
 11
93.36939781271316
 21
42.786728073392
 31
0.0
100
AcDbAttribute
  2
NAME
 70
0
  0
ATTRIB
  5
8B
330
17
100
AcDbEntity
  8
0
 62
4
100
AcDbText
 10
93.44746075576575
 20
42.49539320373141
 30
0.0
 40
0.15080602554123965
  1
x = 93.000
 50
14.999999999999998
 11
93.44746075576575
 21
42.49539320373141
 31
0.0
100
AcDbAttribute
  2
XPOS
 70
0
  0
ATTRIB
  5
8C
330
17
100
AcDbEntity
  8
0
 62
4
100
AcDbText
 10
93.52552369881832
 20
42.20405833407083
 30
0.0
 40
0.15080602554123965
  1
y = 43.000
 50
14.999999999999998
 11
93.52552369881832
 21
42.20405833407083
 31
0.0
100
AcDbAttribute
  2
YPOS
 70
0
  0
SEQEND
  5
89
330
88
100
AcDbEntity
  8
0
  0
INSERT
  5
8D
330
17
100
AcDbEntity
  8
0
100
AcDbBlockReference
 66
1
  2
FLAG
 10
-46.0
 20
-88.0
 30
0.0
 41
1.5908607446399536
 42
1.5908607446399536
 43
1.5908607446399536
 50
15.0
  0
ATTRIB
  5
8F
330
17
100
AcDbEntity
  8
0
 62
3
100
AcDbText
 10
-45.02580073095201
 20
-88.56245421022919
 30
0.0
 40
0.7954303723199768
  1
P(18)
 50
14.999999999999998
 41
1.0000000000000002
 11
-45.02580073095201
 21
-88.56245421022919
 31
0.0
100
AcDbAttribute
  2
NAME
 70
0
  0
ATTRIB
  5
90
330
17
100
AcDbEntity
  8
0
 62
4
100
AcDbText
 10
-44.81992820154261
 20
-89.33078094986779
 30
0.0
 40
0.3977151861599884
  1
x = -46.000
 50
14.999999999999998
 41
1.0000000000000002
 11
-44.81992820154261
 21
-89.33078094986779
 31
0.0
100
AcDbAttribute
  2
XPOS
 70
0
  0
ATTRIB
  5
91
330
17
100
AcDbEntity
  8
0
 62
4
100
AcDbText
 10
-44.614055672133205
 20
-90.09910768950638
 30
0.0
 40
0.3977151861599884
  1
y = -88.000
 50
14.999999999999998
 41
1.0000000000000002
 11
-44.614055672133205
 21
-90.09910768950638
 31
0.0
100
AcDbAttribute
  2
YPOS
 70
0
  0
SEQEND
  5
8E
330
8D
100
AcDbEntity
  8
0
  0
INSERT
  5
92
330
17
100
AcDbEntity
  8
0
100
AcDbBlockReference
 66
1
  2
FLAG
 10
-11.0
 20
6.0
 30
0.0
 41
1.0946732587709807
 42
1.0946732587709807
 43
1.0946732587709807
 50
15.0
  0
ATTRIB
  5
94
330
17
100
AcDbEntity
  8
0
 62
3
100
AcDbText
 10
-10.329652270235362
 20
5.612974557769731
 30
0.0
 40
0.5473366293854903
  1
P(19)
 50
14.999999999999996
 41
1.0000000000000002
 11
-10.329652270235362
 21
5.612974557769731
 31
0.0
100
AcDbAttribute
  2
NAME
 70
0
  0
ATTRIB
  5
95
330
17
100
AcDbEntity
  8
0
 62
4
100
AcDbText
 10
-10.187991126468177
 20
5.084287971772278
 30
0.0
 40
0.27366831469274516
  1
x = -11.000
 50
14.999999999999996
 41
1.0000000000000002
 11
-10.187991126468177
 21
5.084287971772278
 31
0.0
100
AcDbAttribute
  2
XPOS
 70
0
  0
ATTRIB
  5
96
330
17
100
AcDbEntity
  8
0
 62
4
100
AcDbText
 10
-10.046329982700993
 20
4.555601385774825
 30
0.0
 40
0.27366831469274516
  1
y = 6.000
 50
14.999999999999996
 41
1.0000000000000002
 11
-10.046329982700993
 21
4.555601385774825
 31
0.0
100
AcDbAttribute
  2
YPOS
 70
0
  0
SEQEND
  5
93
330
92
100
AcDbEntity
  8
0
  0
INSERT
  5
97
330
17
100
AcDbEntity
  8
0
100
AcDbBlockReference
 66
1
  2
FLAG
 10
75.0
 20
7.0
 30
0.0
 41
1.2814772100629714
 42
1.2814772100629714
 43
1.2814772100629714
 50
15.0
  0
ATTRIB
  5
99
330
17
100
AcDbEntity
  8
0
 62
3
100
AcDbText
 10
75.78474132041491
 20
6.546929387414227
 30
0.0
 40
0.6407386050314857
  1
P(20)
 50
14.999999999999998
 11
75.78474132041491
 21
6.546929387414227
 31
0.0
100
AcDbAttribute
  2
NAME
 70
0
  0
ATTRIB
  5
9A
330
17
100
AcDbEntity
  8
0
 62
4
100
AcDbText
 10
75.95057667432948
 20
5.928023420913885
 30
0.0
 40
0.32036930251574286
  1
x = 75.000
 50
14.999999999999998
 11
75.95057667432948
 21
5.928023420913885
 31
0.0
100
AcDbAttribute
  2
XPOS
 70
0
  0
ATTRIB
  5
9B
330
17
100
AcDbEntity
  8
0
 62
4
100
AcDbText
 10
76.11641202824406
 20
5.309117454413542
 30
0.0
 40
0.32036930251574286
  1
y = 7.000
 50
14.999999999999998
 11
76.11641202824406
 21
5.309117454413542
 31
0.0
100
AcDbAttribute
  2
YPOS
 70
0
  0
SEQEND
  5
98
330
97
100
AcDbEntity
  8
0
  0
INSERT
  5
9C
330
17
100
AcDbEntity
  8
0
100
AcDbBlockReference
 66
1
  2
FLAG
 10
-40.0
 20
97.0
 30
0.0
 41
0.9290380826100533
 42
0.9290380826100533
 43
0.9290380826100533
 50
15.0
  0
ATTRIB
  5
9E
330
17
100
AcDbEntity
  8
0
 62
3
100
AcDbText
 10
-39.43108268649793
 20
96.67153543590294
 30
0.0
 40
0.46451904130502664
  1
P(21)
 50
14.999999999999998
 11
-39.43108268649793
 21
96.67153543590294
 31
0.0
100
AcDbAttribute
  2
NAME
 70
0
  0
ATTRIB
  5
9F
330
17
100
AcDbEntity
  8
0
 62
4
100
AcDbText
 10
-39.310856311795426
 20
96.22284449710338
 30
0.0
 40
0.23225952065251332
  1
x = -40.000
 50
14.999999999999998
 11
-39.310856311795426
 21
96.22284449710338
 31
0.0
100
AcDbAttribute
  2
XPOS
 70
0
  0
ATTRIB
  5
A0
330
17
100
AcDbEntity
  8
0
 62
4
100
AcDbText
 10
-39.19062993709292
 20
95.77415355830381
 30
0.0
 40
0.23225952065251332
  1
y = 97.000
 50
14.999999999999998
 11
-39.19062993709292
 21
95.77415355830381
 31
0.0
100
AcDbAttribute
  2
YPOS
 70
0
  0
SEQEND
  5
9D
330
9C
100
AcDbEntity
  8
0
  0
INSERT
  5
A1
330
17
100
AcDbEntity
  8
0
100
AcDbBlockReference
 66
1
  2
FLAG
 10
-59.0
 20
-91.0
 30
0.0
 41
0.7039274458894804
 42
0.7039274458894804
 43
0.7039274458894804
 50
15.0
  0
ATTRIB
  5
A3
330
17
100
AcDbEntity
  8
0
 62
3
100
AcDbText
 10
-58.56893423540754
 20
-91.24887593522588
 30
0.0
 40
0.3519637229447402
  1
P(22)
 50
14.999999999999998
 11
-58.56893423540754
 21
-91.24887593522588
 31
0.0
100
AcDbAttribute
  2
NAME
 70
0
  0
ATTRIB
  5
A4
330
17
100
AcDbEntity
  8
0
 62
4
100
AcDbText
 10
-58.47783932072425
 20
-91.58884678513506
 30
0.0
 40
0.1759818614723701
  1
x = -59.000
 50
14.999999999999998
 11
-58.47783932072425
 21
-91.58884678513506
 31
0.0
100
AcDbAttribute
  2
XPOS
 70
0
  0
ATTRIB
  5
A5
330
17
100
AcDbEntity
  8
0
 62
4
100
AcDbText
 10
-58.38674440604097
 20
-91.92881763504424
 30
0.0
 40
0.1759818614723701
  1
y = -91.000
 50
14.999999999999998
 11
-58.38674440604097
 21
-91.92881763504424
 31
0.0
100
AcDbAttribute
  2
YPOS
 70
0
  0
SEQEND
  5
A2
330
A1
100
AcDbEntity
  8
0
  0
INSERT
  5
A6
330
17
100
AcDbEntity
  8
0
100
AcDbBlockReference
 66
1
  2
FLAG
 10
2.0
 20
-72.0
 30
0.0
 41
1.4033936914533556
 42
1.4033936914533556
 43
1.4033936914533556
 50
15.0
  0
ATTRIB
  5
A8
330
17
100
AcDbEntity
  8
0
 62
3
100
AcDbText
 10
2.8593996130754036
 20
-72.49617459795054
 30
0.0
 40
0.7016968457266778
  1
P(23)
 50
14.999999999999998
 11
2.8593996130754036
 21
-72.49617459795054
 31
0.0
100
AcDbAttribute
  2
NAME
 70
0
  0
ATTRIB
  5
A9
330
17
100
AcDbEntity
  8
0
 62
4
100
AcDbText
 10
3.0410121206378333
 20
-73.17396170346352
 30
0.0
 40
0.3508484228633389
  1
x = 2.000
 50
14.999999999999998
 11
3.0410121206378333
 21
-73.17396170346352
 31
0.0
100
AcDbAttribute
  2
XPOS
 70
0
  0
ATTRIB
  5
AA
330
17
100
AcDbEntity
  8
0
 62
4
100
AcDbText
 10
3.222624628200263
 20
-73.8517488089765
 30
0.0
 40
0.3508484228633389
  1
y = -72.000
 50
14.999999999999998
 11
3.222624628200263
 21
-73.8517488089765
 31
0.0
100
AcDbAttribute
  2
YPOS
 70
0
  0
SEQEND
  5
A7
330
A6
100
AcDbEntity
  8
0
  0
INSERT
  5
AB
330
17
100
AcDbEntity
  8
0
100
AcDbBlockReference
 66
1
  2
FLAG
 10
28.0
 20
83.0
 30
0.0
 41
2.4164607956593773
 42
2.4164607956593773
 43
2.4164607956593773
 50
15.0
  0
ATTRIB
  5
AD
330
17
100
AcDbEntity
  8
0
 62
3
100
AcDbText
 10
29.47977398320133
 20
82.1456520924589
 30
0.0
 40
1.2082303978296887
  1
P(24)
 50
14.999999999999998
 11
29.47977398320133
 21
82.1456520924589
 31
0.0
100
AcDbAttribute
  2
NAME
 70
0
  0
ATTRIB
  5
AE
330
17
100
AcDbEntity
  8
0
 62
4
100
AcDbText
 10
29.792487021031448
 20
80.9785911470877
 30
0.0
 40
0.6041151989148443
  1
x = 28.000
 50
14.999999999999998
 11
29.792487021031448
 21
80.9785911470877
 31
0.0
100
AcDbAttribute
  2
XPOS
 70
0
  0
ATTRIB
  5
AF
330
17
100
AcDbEntity
  8
0
 62
4
100
AcDbText
 10
30.10520005886157
 20
79.81153020171648
 30
0.0
 40
0.6041151989148443
  1
y = 83.000
 50
14.999999999999998
 11
30.10520005886157
 21
79.81153020171648
 31
0.0
100
AcDbAttribute
  2
YPOS
 70
0
  0
SEQEND
  5
AC
330
AB
100
AcDbEntity
  8
0
  0
INSERT
  5
B0
330
17
100
AcDbEntity
  8
0
100
AcDbBlockReference
 66
1
  2
FLAG
 10
-99.0
 20
-81.0
 30
0.0
 41
2.0647443061290653
 42
2.0647443061290653
 43
2.0647443061290653
 50
15.0
  0
ATTRIB
  5
B2
330
17
100
AcDbEntity
  8
0
 62
3
100
AcDbText
 10
-97.73560750016672
 20
-81.72999735014008
 30
0.0
 40
1.0323721530645327
  1
P(25)
 50
14.999999999999998
 11
-97.73560750016672
 21
-81.72999735014008
 31
0.0
100
AcDbAttribute
  2
NAME
 70
0
  0
ATTRIB
  5
B3
330
17
100
AcDbEntity
  8
0
 62
4
100
AcDbText
 10
-97.46840992532013
 20
-82.72719227512677
 30
0.0
 40
0.5161860765322663
  1
x = -99.000
 50
14.999999999999998
 11
-97.46840992532013
 21
-82.72719227512677
 31
0.0
100
AcDbAttribute
  2
XPOS
 70
0
  0
ATTRIB
  5
B4
330
17
100
AcDbEntity
  8
0
 62
4
100
AcDbText
 10
-97.20121235047353
 20
-83.72438720011345
 30
0.0
 40
0.5161860765322663
  1
y = -81.000
 50
14.999999999999998
 11
-97.20121235047353
 21
-83.72438720011345
 31
0.0
100
AcDbAttribute
  2
YPOS
 70
0
  0
SEQEND
  5
B1
330
B0
100
AcDbEntity
  8
0
  0
INSERT
  5
B5
330
17
100
AcDbEntity
  8
0
100
AcDbBlockReference
 66
1
  2
FLAG
 10
-98.0
 20
-69.0
 30
0.0
 41
2.308987924249611
 42
2.308987924249611
 43
2.308987924249611
 50
15.0
  0
ATTRIB
  5
B7
330
17
100
AcDbEntity
  8
0
 62
3
100
AcDbText
 10
-96.5860394408351
 20
-69.81635050945738
 30
0.0
 40
1.1544939621248056
  1
P(26)
 50
14.999999999999998
 41
1.0000000000000002
 11
-96.5860394408351
 21
-69.81635050945738
 31
0.0
100
AcDbAttribute
  2
NAME
 70
0
  0
ATTRIB
  5
B8
330
17
100
AcDbEntity
  8
0
 62
4
100
AcDbText
 10
-96.28723441598132
 20
-70.93150604376852
 30
0.0
 40
0.5772469810624028
  1
x = -98.000
 50
14.999999999999998
 41
1.0000000000000002
 11
-96.28723441598132
 21
-70.93150604376852
 31
0.0
100
AcDbAttribute
  2
XPOS
 70
0
  0
ATTRIB
  5
B9
330
17
100
AcDbEntity
  8
0
 62
4
100
AcDbText
 10
-95.98842939112755
 20
-72.04666157807966
 30
0.0
 40
0.5772469810624028
  1
y = -69.000
 50
14.999999999999998
 41
1.0000000000000002
 11
-95.98842939112755
 21
-72.04666157807966
 31
0.0
100
AcDbAttribute
  2
YPOS
 70
0
  0
SEQEND
  5
B6
330
B5
100
AcDbEntity
  8
0
  0
INSERT
  5
BA
330
17
100
AcDbEntity
  8
0
100
AcDbBlockReference
 66
1
  2
FLAG
 10
27.0
 20
46.0
 30
0.0
 41
1.1393079069901535
 42
1.1393079069901535
 43
1.1393079069901535
 50
15.0
  0
ATTRIB
  5
BC
330
17
100
AcDbEntity
  8
0
 62
3
100
AcDbText
 10
27.69768075801104
 20
45.597193826553905
 30
0.0
 40
0.5696539534950767
  1
P(27)
 50
14.999999999999998
 11
27.69768075801104
 21
45.597193826553905
 31
0.0
100
AcDbAttribute
  2
NAME
 70
0
  0
ATTRIB
  5
BD
330
17
100
AcDbEntity
  8
0
 62
4
100
AcDbText
 10
27.84511805029351
 20
45.04695036082534
 30
0.0
 40
0.2848269767475384
  1
x = 27.000
 50
14.999999999999998
 11
27.84511805029351
 21
45.04695036082534
 31
0.0
100
AcDbAttribute
  2
XPOS
 70
0
  0
ATTRIB
  5
BE
330
17
100
AcDbEntity
  8
0
 62
4
100
AcDbText
 10
27.99255534257598
 20
44.49670689509677
 30
0.0
 40
0.2848269767475384
  1
y = 46.000
 50
14.999999999999998
 11
27.99255534257598
 21
44.49670689509677
 31
0.0
100
AcDbAttribute
  2
YPOS
 70
0
  0
SEQEND
  5
BB
330
BA
100
AcDbEntity
  8
0
  0
INSERT
  5
BF
330
17
100
AcDbEntity
  8
0
100
AcDbBlockReference
 66
1
  2
FLAG
 10
61.0
 20
20.0
 30
0.0
 41
2.0516394307622328
 42
2.0516394307622328
 43
2.0516394307622328
 50
15.0
  0
ATTRIB
  5
C1
330
17
100
AcDbEntity
  8
0
 62
3
100
AcDbText
 10
62.2563674353854
 20
19.274635922979158
 30
0.0
 40
1.0258197153811164
  1
P(28)
 50
14.999999999999998
 11
62.2563674353854
 21
19.274635922979158
 31
0.0
100
AcDbAttribute
  2
NAME
 70
0
  0
ATTRIB
  5
C2
330
17
100
AcDbEntity
  8
0
 62
4
100
AcDbText
 10
62.52186911456768
 20
18.283770166776037
 30
0.0
 40
0.5129098576905582
  1
x = 61.000
 50
14.999999999999998
 11
62.52186911456768
 21
18.283770166776037
 31
0.0
100
AcDbAttribute
  2
XPOS
 70
0
  0
ATTRIB
  5
C3
330
17
100
AcDbEntity
  8
0
 62
4
100
AcDbText
 10
62.787370793749965
 20
17.292904410572916
 30
0.0
 40
0.5129098576905582
  1
y = 20.000
 50
14.999999999999998
 11
62.787370793749965
 21
17.292904410572916
 31
0.0
100
AcDbAttribute
  2
YPOS
 70
0
  0
SEQEND
  5
C0
330
BF
100
AcDbEntity
  8
0
  0
INSERT
  5
C4
330
17
100
AcDbEntity
  8
0
100
AcDbBlockReference
 66
1
  2
FLAG
 10
81.0
 20
68.0
 30
0.0
 41
2.2199164163691534
 42
2.2199164163691534
 43
2.2199164163691534
 50
15.0
  0
ATTRIB
  5
C6
330
17
100
AcDbEntity
  8
0
 62
3
100
AcDbText
 10
82.35941562293306
 20
67.21514102415901
 30
0.0
 40
1.1099582081845767
  1
P(29)
 50
14.999999999999998
 11
82.35941562293306
 21
67.21514102415901
 31
0.0
100
AcDbAttribute
  2
NAME
 70
0
  0
ATTRIB
  5
C7
330
17
100
AcDbEntity
  8
0
 62
4
100
AcDbText
 10
82.64669394647909
 20
66.143003724772
 30
0.0
 40
0.5549791040922883
  1
x = 81.000
 50
14.999999999999998
 11
82.64669394647909
 21
66.143003724772
 31
0.0
100
AcDbAttribute
  2
XPOS
 70
0
  0
ATTRIB
  5
C8
330
17
100
AcDbEntity
  8
0
 62
4
100
AcDbText
 10
82.93397227002514
 20
65.07086642538498
 30
0.0
 40
0.5549791040922883
  1
y = 68.000
 50
14.999999999999998
 11
82.93397227002514
 21
65.07086642538498
 31
0.0
100
AcDbAttribute
  2
YPOS
 70
0
  0
SEQEND
  5
C5
330
C4
100
AcDbEntity
  8
0
  0
INSERT
  5
C9
330
17
100
AcDbEntity
  8
0
100
AcDbBlockReference
 66
1
  2
FLAG
 10
-92.0
 20
-68.0
 30
0.0
 41
0.8220344464011984
 42
0.8220344464011984
 43
0.8220344464011984
 50
15.0
  0
ATTRIB
  5
CB
330
17
100
AcDbEntity
  8
0
 62
3
100
AcDbText
 10
-91.49660876383146
 20
-68.29063306570961
 30
0.0
 40
0.41101722320059925
  1
P(30)
 50
14.999999999999998
 11
-91.49660876383146
 21
-68.29063306570961
 31
0.0
100
AcDbAttribute
  2
NAME
 70
0
  0
ATTRIB
  5
CC
330
17
100
AcDbEntity
  8
0
 62
4
100
AcDbText
 10
-91.39022967860198
 20
-68.68764521664869
 30
0.0
 40
0.20550861160029962
  1
x = -92.000
 50
14.999999999999998
 11
-91.39022967860198
 21
-68.68764521664869
 31
0.0
100
AcDbAttribute
  2
XPOS
 70
0
  0
ATTRIB
  5
CD
330
17
100
AcDbEntity
  8
0
 62
4
100
AcDbText
 10
-91.28385059337252
 20
-69.08465736758777
 30
0.0
 40
0.20550861160029962
  1
y = -68.000
 50
14.999999999999998
 11
-91.28385059337252
 21
-69.08465736758777
 31
0.0
100
AcDbAttribute
  2
YPOS
 70
0
  0
SEQEND
  5
CA
330
C9
100
AcDbEntity
  8
0
  0
INSERT
  5
CE
330
17
100
AcDbEntity
  8
0
100
AcDbBlockReference
 66
1
  2
FLAG
 10
96.0
 20
19.0
 30
0.0
 41
1.1383214504546877
 42
1.1383214504546877
 43
1.1383214504546877
 50
15.0
  0
ATTRIB
  5
D0
330
17
100
AcDbEntity
  8
0
 62
3
100
AcDbText
 10
96.6970766792197
 20
18.597542591606693
 30
0.0
 40
0.5691607252273438
  1
P(31)
 50
15.000000000000002
 11
96.6970766792197
 21
18.597542591606693
 31
0.0
100
AcDbAttribute
  2
NAME
 70
0
  0
ATTRIB
  5
D1
330
17
100
AcDbEntity
  8
0
 62
4
100
AcDbText
 10
96.8443863146329
 20
18.047775547800185
 30
0.0
 40
0.2845803626136719
  1
x = 96.000
 50
15.000000000000002
 11
96.8443863146329
 21
18.047775547800185
 31
0.0
100
AcDbAttribute
  2
XPOS
 70
0
  0
ATTRIB
  5
D2
330
17
100
AcDbEntity
  8
0
 62
4
100
AcDbText
 10
96.99169595004611
 20
17.498008503993677
 30
0.0
 40
0.2845803626136719
  1
y = 19.000
 50
15.000000000000002
 11
96.99169595004611
 21
17.498008503993677
 31
0.0
100
AcDbAttribute
  2
YPOS
 70
0
  0
SEQEND
  5
CF
330
CE
100
AcDbEntity
  8
0
  0
INSERT
  5
D3
330
17
100
AcDbEntity
  8
0
100
AcDbBlockReference
 66
1
  2
FLAG
 10
24.0
 20
19.0
 30
0.0
 41
0.64991447239546
 42
0.64991447239546
 43
0.64991447239546
 50
15.0
  0
ATTRIB
  5
D5
330
17
100
AcDbEntity
  8
0
 62
3
100
AcDbText
 10
24.397989708454755
 20
18.770220534688946
 30
0.0
 40
0.32495723619773
  1
P(32)
 50
14.999999999999998
 11
24.397989708454755
 21
18.770220534688946
 31
0.0
100
AcDbAttribute
  2
NAME
 70
0
  0
ATTRIB
  5
D6
330
17
100
AcDbEntity
  8
0
 62
4
100
AcDbText
 10
24.482094830026607
 20
18.456335947806043
 30
0.0
 40
0.162478618098865
  1
x = 24.000
 50
14.999999999999998
 11
24.482094830026607
 21
18.456335947806043
 31
0.0
100
AcDbAttribute
  2
XPOS
 70
0
  0
ATTRIB
  5
D7
330
17
100
AcDbEntity
  8
0
 62
4
100
AcDbText
 10
24.566199951598456
 20
18.14245136092314
 30
0.0
 40
0.162478618098865
  1
y = 19.000
 50
14.999999999999998
 11
24.566199951598456
 21
18.14245136092314
 31
0.0
100
AcDbAttribute
  2
YPOS
 70
0
  0
SEQEND
  5
D4
330
D3
100
AcDbEntity
  8
0
  0
INSERT
  5
D8
330
17
100
AcDbEntity
  8
0
100
AcDbBlockReference
 66
1
  2
FLAG
 10
-21.0
 20
-24.0
 30
0.0
 41
1.532440414462592
 42
1.532440414462592
 43
1.532440414462592
 50
15.0
  0
ATTRIB
  5
DA
330
17
100
AcDbEntity
  8
0
 62
3
100
AcDbText
 10
-20.06157573083687
 20
-24.541799504415412
 30
0.0
 40
0.766220207231296
  1
P(33)
 50
14.999999999999998
 11
-20.06157573083687
 21
-24.541799504415412
 31
0.0
100
AcDbAttribute
  2
NAME
 70
0
  0
ATTRIB
  5
DB
330
17
100
AcDbEntity
  8
0
 62
4
100
AcDbText
 10
-19.86326334846301
 20
-25.28191139120468
 30
0.0
 40
0.383110103615648
  1
x = -21.000
 50
14.999999999999998
 11
-19.86326334846301
 21
-25.28191139120468
 31
0.0
100
AcDbAttribute
  2
XPOS
 70
0
  0
ATTRIB
  5
DC
330
17
100
AcDbEntity
  8
0
 62
4
100
AcDbText
 10
-19.66495096608915
 20
-26.022023277993952
 30
0.0
 40
0.383110103615648
  1
y = -24.000
 50
14.999999999999998
 11
-19.66495096608915
 21
-26.022023277993952
 31
0.0
100
AcDbAttribute
  2
YPOS
 70
0
  0
SEQEND
  5
D9
330
D8
100
AcDbEntity
  8
0
  0
INSERT
  5
DD
330
17
100
AcDbEntity
  8
0
100
AcDbBlockReference
 66
1
  2
FLAG
 10
-34.0
 20
-41.0
 30
0.0
 41
1.3860110329282738
 42
1.3860110329282738
 43
1.3860110329282738
 50
15.0
  0
ATTRIB
  5
DF
330
17
100
AcDbEntity
  8
0
 62
3
100
AcDbText
 10
-33.15124504786447
 20
-41.490028900091474
 30
0.0
 40
0.6930055164641369
  1
P(34)
 50
14.999999999999998
 11
-33.15124504786447
 21
-41.490028900091474
 31
0.0
100
AcDbAttribute
  2
NAME
 70
0
  0
ATTRIB
  5
E0
330
17
100
AcDbEntity
  8
0
 62
4
100
AcDbText
 10
-32.97188202184244
 20
-42.15942082620498
 30
0.0
 40
0.34650275823206844
  1
x = -34.000
 50
14.999999999999998
 11
-32.97188202184244
 21
-42.15942082620498
 31
0.0
100
AcDbAttribute
  2
XPOS
 70
0
  0
ATTRIB
  5
E1
330
17
100
AcDbEntity
  8
0
 62
4
100
AcDbText
 10
-32.792518995820416
 20
-42.828812752318484
 30
0.0
 40
0.34650275823206844
  1
y = -41.000
 50
14.999999999999998
 11
-32.792518995820416
 21
-42.828812752318484
 31
0.0
100
AcDbAttribute
  2
YPOS
 70
0
  0
SEQEND
  5
DE
330
DD
100
AcDbEntity
  8
0
  0
INSERT
  5
E2
330
17
100
AcDbEntity
  8
0
100
AcDbBlockReference
 66
1
  2
FLAG
 10
-3.0
 20
18.0
 30
0.0
 41
0.9975750703272221
 42
0.9975750703272221
 43
0.9975750703272221
 50
15.0
  0
ATTRIB
  5
E4
330
17
100
AcDbEntity
  8
0
 62
3
100
AcDbText
 10
-2.3891125243943154
 20
17.647303951514488
 30
0.0
 40
0.4987875351636111
  1
P(35)
 50
14.999999999999998
 11
-2.3891125243943154
 21
17.647303951514488
 31
0.0
100
AcDbAttribute
  2
NAME
 70
0
  0
ATTRIB
  5
E5
330
17
100
AcDbEntity
  8
0
 62
4
100
AcDbText
 10
-2.2600168108342293
 20
17.16551218946889
 30
0.0
 40
0.24939376758180554
  1
x = -3.000
 50
14.999999999999998
 11
-2.2600168108342293
 21
17.16551218946889
 31
0.0
100
AcDbAttribute
  2
XPOS
 70
0
  0
ATTRIB
  5
E6
330
17
100
AcDbEntity
  8
0
 62
4
100
AcDbText
 10
-2.1309210972741437
 20
16.68372042742329
 30
0.0
 40
0.24939376758180554
  1
y = 18.000
 50
14.999999999999998
 11
-2.1309210972741437
 21
16.68372042742329
 31
0.0
100
AcDbAttribute
  2
YPOS
 70
0
  0
SEQEND
  5
E3
330
E2
100
AcDbEntity
  8
0
  0
INSERT
  5
E7
330
17
100
AcDbEntity
  8
0
100
AcDbBlockReference
 66
1
  2
FLAG
 10
22.0
 20
81.0
 30
0.0
 41
0.582090167696929
 42
0.582090167696929
 43
0.582090167696929
 50
15.0
  0
ATTRIB
  5
E9
330
17
100
AcDbEntity
  8
0
 62
3
100
AcDbText
 10
22.356455973787142
 20
80.79420004757975
 30
0.0
 40
0.2910450838484645
  1
P(36)
 50
14.999999999999998
 11
22.356455973787142
 21
80.79420004757975
 31
0.0
100
AcDbAttribute
  2
NAME
 70
0
  0
ATTRIB
  5
EA
330
17
100
AcDbEntity
  8
0
 62
4
100
AcDbText
 10
22.431783984470584
 20
80.51307208447605
 30
0.0
 40
0.14552254192423225
  1
x = 22.000
 50
14.999999999999998
 11
22.431783984470584
 21
80.51307208447605
 31
0.0
100
AcDbAttribute
  2
XPOS
 70
0
  0
ATTRIB
  5
EB
330
17
100
AcDbEntity
  8
0
 62
4
100
AcDbText
 10
22.507111995154027
 20
80.23194412137235
 30
0.0
 40
0.14552254192423225
  1
y = 81.000
 50
14.999999999999998
 11
22.507111995154027
 21
80.23194412137235
 31
0.0
100
AcDbAttribute
  2
YPOS
 70
0
  0
SEQEND
  5
E8
330
E7
100
AcDbEntity
  8
0
  0
INSERT
  5
EC
330
17
100
AcDbEntity
  8
0
100
AcDbBlockReference
 66
1
  2
FLAG
 10
-73.0
 20
-25.0
 30
0.0
 41
2.015197889244246
 42
2.015197889244246
 43
2.015197889244246
 50
15.0
  0
ATTRIB
  5
EE
330
17
100
AcDbEntity
  8
0
 62
3
100
AcDbText
 10
-71.76594836015448
 20
-25.71248004645871
 30
0.0
 40
1.007598944622123
  1
P(37)
 50
14.999999999999998
 11
-71.76594836015448
 21
-25.71248004645871
 31
0.0
100
AcDbAttribute
  2
NAME
 70
0
  0
ATTRIB
  5
EF
330
17
100
AcDbEntity
  8
0
 62
4
100
AcDbText
 10
-71.50516256346107
 20
-26.68574588961083
 30
0.0
 40
0.5037994723110615
  1
x = -73.000
 50
14.999999999999998
 11
-71.50516256346107
 21
-26.68574588961083
 31
0.0
100
AcDbAttribute
  2
XPOS
 70
0
  0
ATTRIB
  5
F0
330
17
100
AcDbEntity
  8
0
 62
4
100
AcDbText
 10
-71.24437676676767
 20
-27.659011732762945
 30
0.0
 40
0.5037994723110615
  1
y = -25.000
 50
14.999999999999998
 11
-71.24437676676767
 21
-27.659011732762945
 31
0.0
100
AcDbAttribute
  2
YPOS
 70
0
  0
SEQEND
  5
ED
330
EC
100
AcDbEntity
  8
0
  0
INSERT
  5
F1
330
17
100
AcDbEntity
  8
0
100
AcDbBlockReference
 66
1
  2
FLAG
 10
85.0
 20
-81.0
 30
0.0
 41
2.2798784004823602
 42
2.2798784004823602
 43
2.2798784004823602
 50
15.0
  0
ATTRIB
  5
F3
330
17
100
AcDbEntity
  8
0
 62
3
100
AcDbText
 10
86.39613468919362
 20
-81.80605873863091
 30
0.0
 40
1.1399392002411801
  1
P(38)
 50
14.999999999999998
 11
86.39613468919362
 21
-81.80605873863091
 31
0.0
100
AcDbAttribute
  2
NAME
 70
0
  0
ATTRIB
  5
F4
330
17
100
AcDbEntity
  8
0
 62
4
100
AcDbText
 10
86.69117266447496
 20
-82.90715545254317
 30
0.0
 40
0.5699696001205901
  1
x = 85.000
 50
14.999999999999998
 11
86.69117266447496
 21
-82.90715545254317
 31
0.0
100
AcDbAttribute
  2
XPOS
 70
0
  0
ATTRIB
  5
F5
330
17
100
AcDbEntity
  8
0
 62
4
100
AcDbText
 10
86.98621063975632
 20
-84.00825216645543
 30
0.0
 40
0.5699696001205901
  1
y = -81.000
 50
14.999999999999998
 11
86.98621063975632
 21
-84.00825216645543
 31
0.0
100
AcDbAttribute
  2
YPOS
 70
0
  0
SEQEND
  5
F2
330
F1
100
AcDbEntity
  8
0
  0
INSERT
  5
F6
330
17
100
AcDbEntity
  8
0
100
AcDbBlockReference
 66
1
  2
FLAG
 10
-63.0
 20
-76.0
 30
0.0
 41
2.190913366441329
 42
2.190913366441329
 43
2.190913366441329
 50
15.0
  0
ATTRIB
  5
F8
330
17
100
AcDbEntity
  8
0
 62
3
100
AcDbText
 10
-61.65834504539385
 20
-76.77460484920145
 30
0.0
 40
1.0954566832206645
  1
P(39)
 50
15.000000000000002
 11
-61.65834504539385
 21
-76.77460484920145
 31
0.0
100
AcDbAttribute
  2
NAME
 70
0
  0
ATTRIB
  5
F9
330
17
100
AcDbEntity
  8
0
 62
4
100
AcDbText
 10
-61.374819992691506
 20
-77.83273475110526
 30
0.0
 40
0.5477283416103322
  1
x = -63.000
 50
15.000000000000002
 11
-61.374819992691506
 21
-77.83273475110526
 31
0.0
100
AcDbAttribute
  2
XPOS
 70
0
  0
ATTRIB
  5
FA
330
17
100
AcDbEntity
  8
0
 62
4
100
AcDbText
 10
-61.091294939989154
 20
-78.89086465300906
 30
0.0
 40
0.5477283416103322
  1
y = -76.000
 50
15.000000000000002
 11
-61.091294939989154
 21
-78.89086465300906
 31
0.0
100
AcDbAttribute
  2
YPOS
 70
0
  0
SEQEND
  5
F7
330
F6
100
AcDbEntity
  8
0
  0
INSERT
  5
FB
330
17
100
AcDbEntity
  8
0
100
AcDbBlockReference
 66
1
  2
FLAG
 10
0.0
 20
-73.0
 30
0.0
 41
0.9724399699309374
 42
0.9724399699309374
 43
0.9724399699309374
 50
15.0
  0
ATTRIB
  5
FD
330
17
100
AcDbEntity
  8
0
 62
3
100
AcDbText
 10
0.5954954329545533
 20
-73.3438094485175
 30
0.0
 40
0.48621998496546875
  1
P(40)
 50
14.999999999999998
 11
0.5954954329545533
 21
-73.3438094485175
 31
0.0
100
AcDbAttribute
  2
NAME
 70
0
  0
ATTRIB
  5
FE
330
17
100
AcDbEntity
  8
0
 62
4
100
AcDbText
 10
0.7213384251730779
 20
-73.81346188925353
 30
0.0
 40
0.24310999248273438
  1
x = 0.000
 50
14.999999999999998
 11
0.7213384251730779
 21
-73.81346188925353
 31
0.0
100
AcDbAttribute
  2
XPOS
 70
0
  0
ATTRIB
  5
FF
330
17
100
AcDbEntity
  8
0
 62
4
100
AcDbText
 10
0.8471814173916026
 20
-74.28311432998956
 30
0.0
 40
0.24310999248273438
  1
y = -73.000
 50
14.999999999999998
 11
0.8471814173916026
 21
-74.28311432998956
 31
0.0
100
AcDbAttribute
  2
YPOS
 70
0
  0
SEQEND
  5
FC
330
FB
100
AcDbEntity
  8
0
  0
INSERT
  5
100
330
17
100
AcDbEntity
  8
0
100
AcDbBlockReference
 66
1
  2
FLAG
 10
-31.0
 20
74.0
 30
0.0
 41
0.6885904862751084
 42
0.6885904862751084
 43
0.6885904862751084
 50
15.0
  0
ATTRIB
  5
102
330
17
100
AcDbEntity
  8
0
 62
3
100
AcDbText
 10
-30.57832616672276
 20
73.75654649884716
 30
0.0
 40
0.3442952431375542
  1
P(41)
 50
14.999999999999998
 11
-30.57832616672276
 21
73.75654649884716
 31
0.0
100
AcDbAttribute
  2
NAME
 70
0
  0
ATTRIB
  5
103
330
17
100
AcDbEntity
  8
0
 62
4
100
AcDbText
 10
-30.48921600066056
 20
73.42398283163213
 30
0.0
 40
0.1721476215687771
  1
x = -31.000
 50
14.999999999999998
 11
-30.48921600066056
 21
73.42398283163213
 31
0.0
100
AcDbAttribute
  2
XPOS
 70
0
  0
ATTRIB
  5
104
330
17
100
AcDbEntity
  8
0
 62
4
100
AcDbText
 10
-30.400105834598357
 20
73.09141916441709
 30
0.0
 40
0.1721476215687771
  1
y = 74.000
 50
14.999999999999998
 11
-30.400105834598357
 21
73.09141916441709
 31
0.0
100
AcDbAttribute
  2
YPOS
 70
0
  0
SEQEND
  5
101
330
100
100
AcDbEntity
  8
0
  0
INSERT
  5
105
330
17
100
AcDbEntity
  8
0
100
AcDbBlockReference
 66
1
  2
FLAG
 10
27.0
 20
43.0
 30
0.0
 41
2.1546432046289903
 42
2.1546432046289903
 43
2.1546432046289903
 50
15.0
  0
ATTRIB
  5
107
330
17
100
AcDbEntity
  8
0
 62
3
100
AcDbText
 10
28.319444107274048
 20
42.23821858948466
 30
0.0
 40
1.0773216023144951
  1
P(42)
 50
14.999999999999998
 11
28.319444107274048
 21
42.23821858948466
 31
0.0
100
AcDbAttribute
  2
NAME
 70
0
  0
ATTRIB
  5
108
330
17
100
AcDbEntity
  8
0
 62
4
100
AcDbText
 10
28.5982754556534
 20
41.19760583058997
 30
0.0
 40
0.5386608011572476
  1
x = 27.000
 50
14.999999999999998
 11
28.5982754556534
 21
41.19760583058997
 31
0.0
100
AcDbAttribute
  2
XPOS
 70
0
  0
ATTRIB
  5
109
330
17
100
AcDbEntity
  8
0
 62
4
100
AcDbText
 10
28.877106804032756
 20
40.15699307169528
 30
0.0
 40
0.5386608011572476
  1
y = 43.000
 50
14.999999999999998
 11
28.877106804032756
 21
40.15699307169528
 31
0.0
100
AcDbAttribute
  2
YPOS
 70
0
  0
SEQEND
  5
106
330
105
100
AcDbEntity
  8
0
  0
INSERT
  5
10A
330
17
100
AcDbEntity
  8
0
100
AcDbBlockReference
 66
1
  2
FLAG
 10
54.0
 20
77.0
 30
0.0
 41
1.0977124763015251
 42
1.0977124763015251
 43
1.0977124763015251
 50
15.0
  0
ATTRIB
  5
10C
330
17
100
AcDbEntity
  8
0
 62
3
100
AcDbText
 10
54.67220886280643
 20
76.61190003210706
 30
0.0
 40
0.5488562381507626
  1
P(43)
 50
14.999999999999998
 11
54.67220886280643
 21
76.61190003210706
 31
0.0
100
AcDbAttribute
  2
NAME
 70
0
  0
ATTRIB
  5
10D
330
17
100
AcDbEntity
  8
0
 62
4
100
AcDbText
 10
54.81426331026317
 20
76.08174561675737
 30
0.0
 40
0.2744281190753813
  1
x = 54.000
 50
14.999999999999998
 11
54.81426331026317
 21
76.08174561675737
 31
0.0
100
AcDbAttribute
  2
XPOS
 70
0
  0
ATTRIB
  5
10E
330
17
100
AcDbEntity
  8
0
 62
4
100
AcDbText
 10
54.95631775771991
 20
75.55159120140769
 30
0.0
 40
0.2744281190753813
  1
y = 77.000
 50
14.999999999999998
 11
54.95631775771991
 21
75.55159120140769
 31
0.0
100
AcDbAttribute
  2
YPOS
 70
0
  0
SEQEND
  5
10B
330
10A
100
AcDbEntity
  8
0
  0
INSERT
  5
10F
330
17
100
AcDbEntity
  8
0
100
AcDbBlockReference
 66
1
  2
FLAG
 10
78.0
 20
-48.0
 30
0.0
 41
1.9915683780198166
 42
1.9915683780198166
 43
1.9915683780198166
 50
15.0
  0
ATTRIB
  5
111
330
17
100
AcDbEntity
  8
0
 62
3
100
AcDbText
 10
79.21958157850271
 20
-48.70412575264725
 30
0.0
 40
0.9957841890099083
  1
P(44)
 50
14.999999999999998
 11
79.21958157850271
 21
-48.70412575264725
 31
0.0
100
AcDbAttribute
  2
NAME
 70
0
  0
ATTRIB
  5
112
330
17
100
AcDbEntity
  8
0
 62
4
100
AcDbText
 10
79.47730949143045
 20
-49.665979418222236
 30
0.0
 40
0.49789209450495414
  1
x = 78.000
 50
14.999999999999998
 11
79.47730949143045
 21
-49.665979418222236
 31
0.0
100
AcDbAttribute
  2
XPOS
 70
0
  0
ATTRIB
  5
113
330
17
100
AcDbEntity
  8
0
 62
4
100
AcDbText
 10
79.73503740435818
 20
-50.62783308379722
 30
0.0
 40
0.49789209450495414
  1
y = -48.000
 50
14.999999999999998
 11
79.73503740435818
 21
-50.62783308379722
 31
0.0
100
AcDbAttribute
  2
YPOS
 70
0
  0
SEQEND
  5
110
330
10F
100
AcDbEntity
  8
0
  0
INSERT
  5
114
330
17
100
AcDbEntity
  8
0
100
AcDbBlockReference
 66
1
  2
FLAG
 10
6.0
 20
81.0
 30
0.0
 41
0.6167230188475734
 42
0.6167230188475734
 43
0.6167230188475734
 50
15.0
  0
ATTRIB
  5
116
330
17
100
AcDbEntity
  8
0
 62
3
100
AcDbText
 10
6.377664177201352
 20
80.78195548562952
 30
0.0
 40
0.3083615094237867
  1
P(45)
 50
14.999999999999996
 11
6.377664177201352
 21
80.78195548562952
 31
0.0
100
AcDbAttribute
  2
NAME
 70
0
  0
ATTRIB
  5
117
330
17
100
AcDbEntity
  8
0
 62
4
100
AcDbText
 10
6.4574740086167886
 20
80.4841011398436
 30
0.0
 40
0.15418075471189335
  1
x = 6.000
 50
14.999999999999996
 11
6.4574740086167886
 21
80.4841011398436
 31
0.0
100
AcDbAttribute
  2
XPOS
 70
0
  0
ATTRIB
  5
118
330
17
100
AcDbEntity
  8
0
 62
4
100
AcDbText
 10
6.537283840032225
 20
80.1862467940577
 30
0.0
 40
0.15418075471189335
  1
y = 81.000
 50
14.999999999999996
 11
6.537283840032225
 21
80.1862467940577
 31
0.0
100
AcDbAttribute
  2
YPOS
 70
0
  0
SEQEND
  5
115
330
114
100
AcDbEntity
  8
0
  0
INSERT
  5
119
330
17
100
AcDbEntity
  8
0
100
AcDbBlockReference
 66
1
  2
FLAG
 10
31.0
 20
-45.0
 30
0.0
 41
1.6318560201165635
 42
1.6318560201165635
 43
1.6318560201165635
 50
15.0
  0
ATTRIB
  5
11B
330
17
100
AcDbEntity
  8
0
 62
3
100
AcDbText
 10
31.999303645743627
 20
-45.576948228872254
 30
0.0
 40
0.8159280100582817
  1
P(46)
 50
14.999999999999998
 11
31.999303645743627
 21
-45.576948228872254
 31
0.0
100
AcDbAttribute
  2
NAME
 70
0
  0
ATTRIB
  5
11C
330
17
100
AcDbEntity
  8
0
 62
4
100
AcDbText
 10
32.21048135417931
 20
-46.3650741661802
 30
0.0
 40
0.4079640050291409
  1
x = 31.000
 50
14.999999999999998
 11
32.21048135417931
 21
-46.3650741661802
 31
0.0
100
AcDbAttribute
  2
XPOS
 70
0
  0
ATTRIB
  5
11D
330
17
100
AcDbEntity
  8
0
 62
4
100
AcDbText
 10
32.42165906261499
 20
-47.15320010348814
 30
0.0
 40
0.4079640050291409
  1
y = -45.000
 50
14.999999999999998
 11
32.42165906261499
 21
-47.15320010348814
 31
0.0
100
AcDbAttribute
  2
YPOS
 70
0
  0
SEQEND
  5
11A
330
119
100
AcDbEntity
  8
0
  0
INSERT
  5
11E
330
17
100
AcDbEntity
  8
0
100
AcDbBlockReference
 66
1
  2
FLAG
 10
12.0
 20
93.0
 30
0.0
 41
1.6227822810862982
 42
1.6227822810862982
 43
1.6227822810862982
 50
15.0
  0
ATTRIB
  5
120
330
17
100
AcDbEntity
  8
0
 62
3
100
AcDbText
 10
12.993747138072793
 20
92.42625982232725
 30
0.0
 40
0.8113911405431491
  1
P(47)
 50
14.999999999999998
 41
1.0000000000000002
 11
12.993747138072793
 21
92.42625982232725
 31
0.0
100
AcDbAttribute
  2
NAME
 70
0
  0
ATTRIB
  5
121
330
17
100
AcDbEntity
  8
0
 62
4
100
AcDbText
 10
13.203750618272817
 20
91.64251616445448
 30
0.0
 40
0.40569557027157455
  1
x = 12.000
 50
14.999999999999998
 41
1.0000000000000002
 11
13.203750618272817
 21
91.64251616445448
 31
0.0
100
AcDbAttribute
  2
XPOS
 70
0
  0
ATTRIB
  5
122
330
17
100
AcDbEntity
  8
0
 62
4
100
AcDbText
 10
13.41375409847284
 20
90.85877250658172
 30
0.0
 40
0.40569557027157455
  1
y = 93.000
 50
14.999999999999998
 41
1.0000000000000002
 11
13.41375409847284
 21
90.85877250658172
 31
0.0
100
AcDbAttribute
  2
YPOS
 70
0
  0
SEQEND
  5
11F
330
11E
100
AcDbEntity
  8
0
  0
INSERT
  5
123
330
17
100
AcDbEntity
  8
0
100
AcDbBlockReference
 66
1
  2
FLAG
 10
35.0
 20
62.0
 30
0.0
 41
1.180665650874762
 42
1.180665650874762
 43
1.180665650874762
 50
15.0
  0
ATTRIB
  5
125
330
17
100
AcDbEntity
  8
0
 62
3
100
AcDbText
 10
35.72300710036854
 20
61.58257165597621
 30
0.0
 40
0.590332825437381
  1
P(48)
 50
14.999999999999998
 11
35.72300710036854
 21
61.58257165597621
 31
0.0
100
AcDbAttribute
  2
NAME
 70
0
  0
ATTRIB
  5
126
330
17
100
AcDbEntity
  8
0
 62
4
100
AcDbText
 10
35.87579647854091
 20
61.01235393378005
 30
0.0
 40
0.2951664127186905
  1
x = 35.000
 50
14.999999999999998
 11
35.87579647854091
 21
61.01235393378005
 31
0.0
100
AcDbAttribute
  2
XPOS
 70
0
  0
ATTRIB
  5
127
330
17
100
AcDbEntity
  8
0
 62
4
100
AcDbText
 10
36.02858585671329
 20
60.442136211583886
 30
0.0
 40
0.2951664127186905
  1
y = 62.000
 50
14.999999999999998
 11
36.02858585671329
 21
60.442136211583886
 31
0.0
100
AcDbAttribute
  2
YPOS
 70
0
  0
SEQEND
  5
124
330
123
100
AcDbEntity
  8
0
  0
INSERT
  5
128
330
17
100
AcDbEntity
  8
0
100
AcDbBlockReference
 66
1
  2
FLAG
 10
-9.0
 20
-21.0
 30
0.0
 41
0.5127890407473059
 42
0.5127890407473059
 43
0.5127890407473059
 50
15.0
  0
ATTRIB
  5
12A
330
17
100
AcDbEntity
  8
0
 62
3
100
AcDbText
 10
-8.685982126119463
 20
-21.181298304015282
 30
0.0
 40
0.25639452037365296
  1
P(49)
 50
14.999999999999998
 11
-8.685982126119463
 21
-21.181298304015282
 31
0.0
100
AcDbAttribute
  2
NAME
 70
0
  0
ATTRIB
  5
12B
330
17
100
AcDbEntity
  8
0
 62
4
100
AcDbText
 10
-8.619622341186835
 20
-21.428956392963194
 30
0.0
 40
0.12819726018682648
  1
x = -9.000
 50
14.999999999999998
 11
-8.619622341186835
 21
-21.428956392963194
 31
0.0
100
AcDbAttribute
  2
XPOS
 70
0
  0
ATTRIB
  5
12C
330
17
100
AcDbEntity
  8
0
 62
4
100
AcDbText
 10
-8.553262556254207
 20
-21.676614481911102
 30
0.0
 40
0.12819726018682648
  1
y = -21.000
 50
14.999999999999998
 11
-8.553262556254207
 21
-21.676614481911102
 31
0.0
100
AcDbAttribute
  2
YPOS
 70
0
  0
SEQEND
  5
129
330
128
100
AcDbEntity
  8
0
  0
INSERT
  5
12D
330
17
100
AcDbEntity
  8
0
100
AcDbBlockReference
 66
1
  2
FLAG
 10
-57.0
 20
-3.0
 30
0.0
 41
1.8233021721095022
 42
1.8233021721095022
 43
1.8233021721095022
 50
15.0
  0
ATTRIB
  5
12F
330
17
100
AcDbEntity
  8
0
 62
3
100
AcDbText
 10
-55.883460007855874
 20
-3.6446346650253956
 30
0.0
 40
0.9116510860547511
  1
P(50)
 50
14.999999999999998
 11
-55.883460007855874
 21
-3.6446346650253956
 31
0.0
100
AcDbAttribute
  2
NAME
 70
0
  0
ATTRIB
  5
130
330
17
100
AcDbEntity
  8
0
 62
4
100
AcDbText
 10
-55.64750734429651
 20
-4.525221993610157
 30
0.0
 40
0.45582554302737555
  1
x = -57.000
 50
14.999999999999998
 11
-55.64750734429651
 21
-4.525221993610157
 31
0.0
100
AcDbAttribute
  2
XPOS
 70
0
  0
ATTRIB
  5
131
330
17
100
AcDbEntity
  8
0
 62
4
100
AcDbText
 10
-55.41155468073714
 20
-5.405809322194919
 30
0.0
 40
0.45582554302737555
  1
y = -3.000
 50
14.999999999999998
 11
-55.41155468073714
 21
-5.405809322194919
 31
0.0
100
AcDbAttribute
  2
YPOS
 70
0
  0
SEQEND
  5
12E
330
12D
100
AcDbEntity
  8
0
  0
ENDSEC
  0
SECTION
  2
OBJECTS
  0
DICTIONARY
  5
A
330
0
100
AcDbDictionary
280
0
281
1
  3
ACAD_COLOR
350
B
  3
ACAD_GROUP
350
C
  3
ACAD_LAYOUT
350
D
  3
ACAD_MATERIAL
350
E
  3
ACAD_MLEADERSTYLE
350
F
  3
ACAD_MLINESTYLE
350
10
  3
ACAD_PLOTSETTINGS
350
11
  3
ACAD_PLOTSTYLENAME
350
12
  3
ACAD_SCALELIST
350
14
  3
ACAD_TABLESTYLE
350
15
  3
ACAD_VISUALSTYLE
350
16
  3
EZDXF_META
350
2D
  0
DICTIONARY
  5
B
330
A
100
AcDbDictionary
280
0
281
1
  0
DICTIONARY
  5
C
330
A
100
AcDbDictionary
280
0
281
1
  0
DICTIONARY
  5
D
330
A
100
AcDbDictionary
280
0
281
1
  3
Model
350
1A
  3
Layout1
350
1E
  0
DICTIONARY
  5
E
330
A
100
AcDbDictionary
280
0
281
1
  3
ByBlock
350
1F
  3
ByLayer
350
20
  3
Global
350
21
  0
DICTIONARY
  5
F
330
A
100
AcDbDictionary
280
0
281
1
  3
Standard
350
2C
  0
DICTIONARY
  5
10
330
A
100
AcDbDictionary
280
0
281
1
  3
Standard
350
22
  0
DICTIONARY
  5
11
330
A
100
AcDbDictionary
280
0
281
1
  0
ACDBDICTIONARYWDFLT
  5
12
330
A
100
AcDbDictionary
280
0
281
1
  3
Normal
350
13
100
AcDbDictionaryWithDefault
340
13
  0
ACDBPLACEHOLDER
  5
13
330
12
  0
DICTIONARY
  5
14
330
A
100
AcDbDictionary
280
0
281
1
  0
DICTIONARY
  5
15
330
A
100
AcDbDictionary
280
0
281
1
  0
DICTIONARY
  5
16
330
A
100
AcDbDictionary
280
0
281
1
  0
LAYOUT
  5
1A
330
D
100
AcDbPlotSettings
  1

  4
A3
  6

 40
7.5
 41
20.0
 42
7.5
 43
20.0
 44
420.0
 45
297.0
 46
0.0
 47
0.0
 48
0.0
 49
0.0
140
0.0
141
0.0
142
1.0
143
1.0
 70
1024
 72
1
 73
0
 74
5
  7

 75
16
 76
0
 77
2
 78
300
147
1.0
148
0.0
149
0.0
100
AcDbLayout
  1
Model
 70
1
 71
0
 10
0.0
 20
0.0
 11
420.0
 21
297.0
 12
0.0
 22
0.0
 32
0.0
 14
1e+20
 24
1e+20
 34
1e+20
 15
-1e+20
 25
-1e+20
 35
-1e+20
146
0.0
 13
0.0
 23
0.0
 33
0.0
 16
1.0
 26
0.0
 36
0.0
 17
0.0
 27
1.0
 37
0.0
 76
1
330
17
  0
LAYOUT
  5
1E
330
D
100
AcDbPlotSettings
  1

  4
A3
  6

 40
7.5
 41
20.0
 42
7.5
 43
20.0
 44
420.0
 45
297.0
 46
0.0
 47
0.0
 48
0.0
 49
0.0
140
0.0
141
0.0
142
1.0
143
1.0
 70
0
 72
1
 73
0
 74
5
  7

 75
16
 76
0
 77
2
 78
300
147
1.0
148
0.0
149
0.0
100
AcDbLayout
  1
Layout1
 70
1
 71
1
 10
0.0
 20
0.0
 11
420.0
 21
297.0
 12
0.0
 22
0.0
 32
0.0
 14
1e+20
 24
1e+20
 34
1e+20
 15
-1e+20
 25
-1e+20
 35
-1e+20
146
0.0
 13
0.0
 23
0.0
 33
0.0
 16
1.0
 26
0.0
 36
0.0
 17
0.0
 27
1.0
 37
0.0
 76
1
330
1B
  0
MATERIAL
  5
1F
102
{ACAD_REACTORS
330
E
102
}
330
E
100
AcDbMaterial
  1
ByBlock
  2

 70
0
 40
1.0
 71
1
 41
1.0
 91
-1023410177
 42
1.0
 72
1
  3

 73
1
 74
1
 75
1
 44
0.5
 73
0
 45
1.0
 46
1.0
 77
1
  4

 78
1
 79
1
170
1
 48
1.0
171
1
  6

172
1
173
1
174
1
140
1.0
141
1.0
175
1
  7

176
1
177
1
178
1
143
1.0
179
1
  8

270
1
271
1
272
1
145
1.0
146
1.0
273
1
  9

274
1
275
1
276
1
 42
1.0
 72
1
  3

 73
1
 74
1
 75
1
 94
63
  0
MATERIAL
  5
20
102
{ACAD_REACTORS
330
E
102
}
330
E
100
AcDbMaterial
  1
ByLayer
  2

 70
0
 40
1.0
 71
1
 41
1.0
 91
-1023410177
 42
1.0
 72
1
  3

 73
1
 74
1
 75
1
 44
0.5
 73
0
 45
1.0
 46
1.0
 77
1
  4

 78
1
 79
1
170
1
 48
1.0
171
1
  6

172
1
173
1
174
1
140
1.0
141
1.0
175
1
  7

176
1
177
1
178
1
143
1.0
179
1
  8

270
1
271
1
272
1
145
1.0
146
1.0
273
1
  9

274
1
275
1
276
1
 42
1.0
 72
1
  3

 73
1
 74
1
 75
1
 94
63
  0
MATERIAL
  5
21
102
{ACAD_REACTORS
330
E
102
}
330
E
100
AcDbMaterial
  1
Global
  2

 70
0
 40
1.0
 71
1
 41
1.0
 91
-1023410177
 42
1.0
 72
1
  3

 73
1
 74
1
 75
1
 44
0.5
 73
0
 45
1.0
 46
1.0
 77
1
  4

 78
1
 79
1
170
1
 48
1.0
171
1
  6

172
1
173
1
174
1
140
1.0
141
1.0
175
1
  7

176
1
177
1
178
1
143
1.0
179
1
  8

270
1
271
1
272
1
145
1.0
146
1.0
273
1
  9

274
1
275
1
276
1
 42
1.0
 72
1
  3

 73
1
 74
1
 75
1
 94
63
  0
MLINESTYLE
  5
22
102
{ACAD_REACTORS
330
10
102
}
330
10
100
AcDbMlineStyle
  2
Standard
 70
0
  3

 62
256
 51
90.0
 52
90.0
 71
2
 49
0.5
 62
256
  6
BYLAYER
 49
-0.5
 62
256
  6
BYLAYER
  0
MLEADERSTYLE
  5
2C
102
{ACAD_REACTORS
330
F
102
}
330
F
100
AcDbMLeaderStyle
179
2
170
2
171
1
172
0
 90
2
 40
0.0
 41
0.0
173
1
 91
-1056964608
 92
-2
290
1
 42
2.0
291
1
 43
8.0
  3
Standard
 44
4.0
300

342
29
174
1
175
1
176
0
178
1
 93
-1056964608
 45
4.0
292
0
297
0
 46
4.0
 94
-1056964608
 47
1.0
 49
1.0
140
1.0
294
1
141
0.0
177
0
142
1.0
295
0
296
0
143
3.75
271
0
272
9
273
9
  0
DICTIONARY
  5
2D
330
A
100
AcDbDictionary
280
1
281
1
  3
CREATED_BY_EZDXF
350
2E
  3
WRITTEN_BY_EZDXF
350
134
  0
DICTIONARYVAR
  5
2E
330
2D
100
DictionaryVariables
280
0
  1
1.3.5 @ 2025-03-31T18:28:08.573958+00:00
  0
DICTIONARYVAR
  5
134
330
2D
100
DictionaryVariables
280
0
  1
1.3.5 @ 2025-03-31T18:28:08.592958+00:00
  0
ENDSEC
  0
EOF
