  0
SECTION
  2
HEADER
  9
$ACADVER
  1
AC1024
  9
$ACADMAINTVER
 70
6
  9
$DWGCODEPAGE
  3
ANSI_1252
  9
$LASTSAVEDBY
  1
ezdxf
  9
$INSBASE
 10
0.0
 20
0.0
 30
0.0
  9
$EXTMIN
 10
1e+20
 20
1e+20
 30
1e+20
  9
$EXTMAX
 10
-1e+20
 20
-1e+20
 30
-1e+20
  9
$LIMMIN
 10
0.0
 20
0.0
  9
$LIMMAX
 10
420.0
 20
297.0
  9
$ORTHOMODE
 70
0
  9
$REGENMODE
 70
1
  9
$FILLMODE
 70
1
  9
$QTEXTMODE
 70
0
  9
$MIRRTEXT
 70
1
  9
$LTSCALE
 40
1.0
  9
$ATTMODE
 70
1
  9
$TEXTSIZE
 40
2.5
  9
$TRACEWID
 40
1.0
  9
$TEXTSTYLE
  7
Standard
  9
$CLAYER
  8
0
  9
$CELTYPE
  6
ByLayer
  9
$CECOLOR
 62
256
  9
$CELTSCALE
 40
1.0
  9
$DISPSILH
 70
0
  9
$DIMSCALE
 40
1.0
  9
$DIMASZ
 40
2.5
  9
$DIMEXO
 40
0.625
  9
$DIMDLI
 40
3.75
  9
$DIMRND
 40
0.0
  9
$DIMDLE
 40
0.0
  9
$DIMEXE
 40
1.25
  9
$DIMTP
 40
0.0
  9
$DIMTM
 40
0.0
  9
$DIMTXT
 40
2.5
  9
$DIMCEN
 40
2.5
  9
$DIMTSZ
 40
0.0
  9
$DIMTOL
 70
0
  9
$DIMLIM
 70
0
  9
$DIMTIH
 70
0
  9
$DIMTOH
 70
0
  9
$DIMSE1
 70
0
  9
$DIMSE2
 70
0
  9
$DIMTAD
 70
1
  9
$DIMZIN
 70
8
  9
$DIMBLK
  1

  9
$DIMASO
 70
1
  9
$DIMSHO
 70
1
  9
$DIMPOST
  1

  9
$DIMAPOST
  1

  9
$DIMALT
 70
0
  9
$DIMALTD
 70
3
  9
$DIMALTF
 40
0.03937007874
  9
$DIMLFAC
 40
1.0
  9
$DIMTOFL
 70
1
  9
$DIMTVP
 40
0.0
  9
$DIMTIX
 70
0
  9
$DIMSOXD
 70
0
  9
$DIMSAH
 70
0
  9
$DIMBLK1
  1

  9
$DIMBLK2
  1

  9
$DIMSTYLE
  2
ISO-25
  9
$DIMCLRD
 70
0
  9
$DIMCLRE
 70
0
  9
$DIMCLRT
 70
0
  9
$DIMTFAC
 40
1.0
  9
$DIMGAP
 40
0.625
  9
$DIMJUST
 70
0
  9
$DIMSD1
 70
0
  9
$DIMSD2
 70
0
  9
$DIMTOLJ
 70
0
  9
$DIMTZIN
 70
8
  9
$DIMALTZ
 70
0
  9
$DIMALTTZ
 70
0
  9
$DIMUPT
 70
0
  9
$DIMDEC
 70
2
  9
$DIMTDEC
 70
2
  9
$DIMALTU
 70
2
  9
$DIMALTTD
 70
3
  9
$DIMTXSTY
  7
Standard
  9
$DIMAUNIT
 70
0
  9
$DIMADEC
 70
0
  9
$DIMALTRND
 40
0.0
  9
$DIMAZIN
 70
0
  9
$DIMDSEP
 70
44
  9
$DIMATFIT
 70
3
  9
$DIMFRAC
 70
0
  9
$DIMLDRBLK
  1

  9
$DIMLUNIT
 70
2
  9
$DIMLWD
 70
-2
  9
$DIMLWE
 70
-2
  9
$DIMTMOVE
 70
0
  9
$DIMFXL
 40
1.0
  9
$DIMFXLON
 70
0
  9
$DIMJOGANG
 40
0.785398163397
  9
$DIMTFILL
 70
0
  9
$DIMTFILLCLR
 70
0
  9
$DIMARCSYM
 70
0
  9
$DIMLTYPE
  6

  9
$DIMLTEX1
  6

  9
$DIMLTEX2
  6

  9
$DIMTXTDIRECTION
 70
0
  9
$LUNITS
 70
2
  9
$LUPREC
 70
4
  9
$SKETCHINC
 40
1.0
  9
$FILLETRAD
 40
10.0
  9
$AUNITS
 70
0
  9
$AUPREC
 70
2
  9
$MENU
  1
.
  9
$ELEVATION
 40
0.0
  9
$PELEVATION
 40
0.0
  9
$THICKNESS
 40
0.0
  9
$LIMCHECK
 70
0
  9
$CHAMFERA
 40
0.0
  9
$CHAMFERB
 40
0.0
  9
$CHAMFERC
 40
0.0
  9
$CHAMFERD
 40
0.0
  9
$SKPOLY
 70
0
  9
$TDCREATE
 40
2460766.8969907407
  9
$TDUCREATE
 40
2458532.153996898
  9
$TDUPDATE
 40
2460766.8969907407
  9
$TDUUPDATE
 40
2458532.1544311
  9
$TDINDWG
 40
0.0
  9
$TDUSRTIMER
 40
0.0
  9
$USRTIMER
 70
1
  9
$ANGBASE
 50
0.0
  9
$ANGDIR
 70
0
  9
$PDMODE
 70
0
  9
$PDSIZE
 40
0.0
  9
$PLINEWID
 40
0.0
  9
$SPLFRAME
 70
0
  9
$SPLINETYPE
 70
6
  9
$SPLINESEGS
 70
8
  9
$HANDSEED
  5
135
  9
$SURFTAB1
 70
6
  9
$SURFTAB2
 70
6
  9
$SURFTYPE
 70
6
  9
$SURFU
 70
6
  9
$SURFV
 70
6
  9
$UCSBASE
  2

  9
$UCSNAME
  2

  9
$UCSORG
 10
0.0
 20
0.0
 30
0.0
  9
$UCSXDIR
 10
1.0
 20
0.0
 30
0.0
  9
$UCSYDIR
 10
0.0
 20
1.0
 30
0.0
  9
$UCSORTHOREF
  2

  9
$UCSORTHOVIEW
 70
0
  9
$UCSORGTOP
 10
0.0
 20
0.0
 30
0.0
  9
$UCSORGBOTTOM
 10
0.0
 20
0.0
 30
0.0
  9
$UCSORGLEFT
 10
0.0
 20
0.0
 30
0.0
  9
$UCSORGRIGHT
 10
0.0
 20
0.0
 30
0.0
  9
$UCSORGFRONT
 10
0.0
 20
0.0
 30
0.0
  9
$UCSORGBACK
 10
0.0
 20
0.0
 30
0.0
  9
$PUCSBASE
  2

  9
$PUCSNAME
  2

  9
$PUCSORG
 10
0.0
 20
0.0
 30
0.0
  9
$PUCSXDIR
 10
1.0
 20
0.0
 30
0.0
  9
$PUCSYDIR
 10
0.0
 20
1.0
 30
0.0
  9
$PUCSORTHOREF
  2

  9
$PUCSORTHOVIEW
 70
0
  9
$PUCSORGTOP
 10
0.0
 20
0.0
 30
0.0
  9
$PUCSORGBOTTOM
 10
0.0
 20
0.0
 30
0.0
  9
$PUCSORGLEFT
 10
0.0
 20
0.0
 30
0.0
  9
$PUCSORGRIGHT
 10
0.0
 20
0.0
 30
0.0
  9
$PUCSORGFRONT
 10
0.0
 20
0.0
 30
0.0
  9
$PUCSORGBACK
 10
0.0
 20
0.0
 30
0.0
  9
$USERI1
 70
0
  9
$USERI2
 70
0
  9
$USERI3
 70
0
  9
$USERI4
 70
0
  9
$USERI5
 70
0
  9
$USERR1
 40
0.0
  9
$USERR2
 40
0.0
  9
$USERR3
 40
0.0
  9
$USERR4
 40
0.0
  9
$USERR5
 40
0.0
  9
$WORLDVIEW
 70
1
  9
$SHADEDGE
 70
3
  9
$SHADEDIF
 70
70
  9
$TILEMODE
 70
1
  9
$MAXACTVP
 70
64
  9
$PINSBASE
 10
0.0
 20
0.0
 30
0.0
  9
$PLIMCHECK
 70
0
  9
$PEXTMIN
 10
1e+20
 20
1e+20
 30
1e+20
  9
$PEXTMAX
 10
-1e+20
 20
-1e+20
 30
-1e+20
  9
$PLIMMIN
 10
0.0
 20
0.0
  9
$PLIMMAX
 10
420.0
 20
297.0
  9
$UNITMODE
 70
0
  9
$VISRETAIN
 70
1
  9
$PLINEGEN
 70
0
  9
$PSLTSCALE
 70
1
  9
$TREEDEPTH
 70
3020
  9
$CMLSTYLE
  2
Standard
  9
$CMLJUST
 70
0
  9
$CMLSCALE
 40
20.0
  9
$PROXYGRAPHICS
 70
1
  9
$MEASUREMENT
 70
1
  9
$CELWEIGHT
370
-1
  9
$ENDCAPS
280
0
  9
$JOINSTYLE
280
0
  9
$LWDISPLAY
290
0
  9
$INSUNITS
 70
6
  9
$HYPERLINKBASE
  1

  9
$STYLESHEET
  1

  9
$XEDIT
290
1
  9
$CEPSNTYPE
380
0
  9
$PSTYLEMODE
290
1
  9
$FINGERPRINTGUID
  2
{4191247E-7C8D-4990-94A1-C041602D5302}
  9
$VERSIONGUID
  2
{D5A1C49C-AD2A-4972-B86F-93743B169571}
  9
$EXTNAMES
290
1
  9
$PSVPSCALE
 40
0.0
  9
$OLESTARTUP
290
0
  9
$SORTENTS
280
127
  9
$INDEXCTL
280
0
  9
$HIDETEXT
280
1
  9
$XCLIPFRAME
280
1
  9
$HALOGAP
280
0
  9
$OBSCOLOR
 70
257
  9
$OBSLTYPE
280
0
  9
$INTERSECTIONDISPLAY
280
0
  9
$INTERSECTIONCOLOR
 70
257
  9
$DIMASSOC
280
2
  9
$PROJECTNAME
  1

  9
$CAMERADISPLAY
290
0
  9
$LENSLENGTH
 40
50.0
  9
$CAMERAHEIGHT
 40
0.0
  9
$STEPSPERSEC
 40
24.0
  9
$STEPSIZE
 40
100.0
  9
$3DDWFPREC
 40
2.0
  9
$PSOLWIDTH
 40
0.005
  9
$PSOLHEIGHT
 40
0.08
  9
$LOFTANG1
 40
1.570796326795
  9
$LOFTANG2
 40
1.570796326795
  9
$LOFTMAG1
 40
0.0
  9
$LOFTMAG2
 40
0.0
  9
$LOFTPARAM
 70
7
  9
$LOFTNORMALS
280
1
  9
$LATITUDE
 40
37.795
  9
$LONGITUDE
 40
-122.394
  9
$NORTHDIRECTION
 40
0.0
  9
$TIMEZONE
 70
-8000
  9
$LIGHTGLYPHDISPLAY
280
1
  9
$TILEMODELIGHTSYNCH
280
1
  9
$CMATERIAL
347
20
  9
$SOLIDHIST
280
0
  9
$SHOWHIST
280
1
  9
$DWFFRAME
280
2
  9
$DGNFRAME
280
2
  9
$REALWORLDSCALE
290
1
  9
$INTERFERECOLOR
 62
256
  9
$CSHADOW
280
0
  9
$SHADOWPLANELOCATION
 40
0.0
  0
ENDSEC
  0
SECTION
  2
CLASSES
  0
CLASS
  1
ACDBDICTIONARYWDFLT
  2
AcDbDictionaryWithDefault
  3
ObjectDBX Classes
 90
0
 91
0
280
0
281
0
  0
CLASS
  1
SUN
  2
AcDbSun
  3
SCENEOE
 90
1153
 91
0
280
0
281
0
  0
CLASS
  1
VISUALSTYLE
  2
AcDbVisualStyle
  3
ObjectDBX Classes
 90
4095
 91
0
280
0
281
0
  0
CLASS
  1
MATERIAL
  2
AcDbMaterial
  3
ObjectDBX Classes
 90
1153
 91
0
280
0
281
0
  0
CLASS
  1
SCALE
  2
AcDbScale
  3
ObjectDBX Classes
 90
1153
 91
0
280
0
281
0
  0
CLASS
  1
TABLESTYLE
  2
AcDbTableStyle
  3
ObjectDBX Classes
 90
4095
 91
0
280
0
281
0
  0
CLASS
  1
MLEADERSTYLE
  2
AcDbMLeaderStyle
  3
ACDB_MLEADERSTYLE_CLASS
 90
4095
 91
0
280
0
281
0
  0
CLASS
  1
DICTIONARYVAR
  2
AcDbDictionaryVar
  3
ObjectDBX Classes
 90
0
 91
0
280
0
281
0
  0
CLASS
  1
CELLSTYLEMAP
  2
AcDbCellStyleMap
  3
ObjectDBX Classes
 90
1152
 91
0
280
0
281
0
  0
CLASS
  1
MENTALRAYRENDERSETTINGS
  2
AcDbMentalRayRenderSettings
  3
SCENEOE
 90
1024
 91
0
280
0
281
0
  0
CLASS
  1
ACDBDETAILVIEWSTYLE
  2
AcDbDetailViewStyle
  3
ObjectDBX Classes
 90
1025
 91
0
280
0
281
0
  0
CLASS
  1
ACDBSECTIONVIEWSTYLE
  2
AcDbSectionViewStyle
  3
ObjectDBX Classes
 90
1025
 91
0
280
0
281
0
  0
CLASS
  1
RASTERVARIABLES
  2
AcDbRasterVariables
  3
ISM
 90
0
 91
0
280
0
281
0
  0
CLASS
  1
ACDBPLACEHOLDER
  2
AcDbPlaceHolder
  3
ObjectDBX Classes
 90
0
 91
0
280
0
281
0
  0
CLASS
  1
LAYOUT
  2
AcDbLayout
  3
ObjectDBX Classes
 90
0
 91
0
280
0
281
0
  0
ENDSEC
  0
SECTION
  2
TABLES
  0
TABLE
  2
VPORT
  5
8
330
0
100
AcDbSymbolTable
 70
1
  0
VPORT
  5
23
330
8
100
AcDbSymbolTableRecord
100
AcDbViewportTableRecord
  2
*Active
 70
0
 10
0.0
 20
0.0
 11
1.0
 21
1.0
 12
0.0
 22
0.0
 13
0.0
 23
0.0
 14
0.5
 24
0.5
 15
0.5
 25
0.5
 16
0.0
 26
0.0
 36
1.0
 17
0.0
 27
0.0
 37
0.0
 40
1000.0
 41
1.34
 42
50.0
 43
0.0
 44
0.0
 50
0.0
 51
0.0
 71
0
 72
1000
 73
1
 74
3
 75
0
 76
0
 77
0
 78
0
281
0
 65
0
146
0.0
  0
ENDTAB
  0
TABLE
  2
LTYPE
  5
2
330
0
100
AcDbSymbolTable
 70
3
  0
LTYPE
  5
24
330
2
100
AcDbSymbolTableRecord
100
AcDbLinetypeTableRecord
  2
ByBlock
 70
0
  3

 72
65
 73
0
 40
0.0
  0
LTYPE
  5
25
330
2
100
AcDbSymbolTableRecord
100
AcDbLinetypeTableRecord
  2
ByLayer
 70
0
  3

 72
65
 73
0
 40
0.0
  0
LTYPE
  5
26
330
2
100
AcDbSymbolTableRecord
100
AcDbLinetypeTableRecord
  2
Continuous
 70
0
  3

 72
65
 73
0
 40
0.0
  0
ENDTAB
  0
TABLE
  2
LAYER
  5
1
330
0
100
AcDbSymbolTable
 70
2
  0
LAYER
  5
27
330
1
100
AcDbSymbolTableRecord
100
AcDbLayerTableRecord
  2
0
 70
0
 62
7
  6
Continuous
370
-3
390
13
347
21
  0
LAYER
  5
28
330
1
100
AcDbSymbolTableRecord
100
AcDbLayerTableRecord
  2
Defpoints
 70
0
 62
7
  6
Continuous
290
0
370
-3
390
13
347
21
  0
ENDTAB
  0
TABLE
  2
STYLE
  5
5
330
0
100
AcDbSymbolTable
 70
1
  0
STYLE
  5
29
330
5
100
AcDbSymbolTableRecord
100
AcDbTextStyleTableRecord
  2
Standard
 70
0
 40
0.0
 41
1.0
 50
0.0
 71
0
 42
2.5
  3
txt
  4

  0
ENDTAB
  0
TABLE
  2
VIEW
  5
7
330
0
100
AcDbSymbolTable
 70
0
  0
ENDTAB
  0
TABLE
  2
UCS
  5
6
330
0
100
AcDbSymbolTable
 70
0
  0
ENDTAB
  0
TABLE
  2
APPID
  5
3
330
0
100
AcDbSymbolTable
 70
3
  0
APPID
  5
2A
330
3
100
AcDbSymbolTableRecord
100
AcDbRegAppTableRecord
  2
ACAD
 70
0
  0
APPID
  5
132
330
3
100
AcDbSymbolTableRecord
100
AcDbRegAppTableRecord
  2
HATCHBACKGROUNDCOLOR
 70
0
  0
APPID
  5
133
330
3
100
AcDbSymbolTableRecord
100
AcDbRegAppTableRecord
  2
EZDXF
 70
0
  0
ENDTAB
  0
TABLE
  2
DIMSTYLE
  5
4
330
0
100
AcDbSymbolTable
 70
1
100
AcDbDimStyleTable
  0
DIMSTYLE
105
2B
330
4
100
AcDbSymbolTableRecord
100
AcDbDimStyleTableRecord
  2
Standard
 70
0
 40
1.0
 41
2.5
 42
0.625
 43
3.75
 44
1.25
 45
0.0
 46
0.0
 47
0.0
 48
0.0
 49
2.5
140
2.5
141
2.5
142
0.0
143
0.03937007874
144
1.0
145
0.0
146
1.0
147
0.625
148
0.0
 69
0
 70
0
 71
0
 72
0
 73
0
 74
0
 75
0
 76
0
 77
1
 78
8
 79
3
170
0
171
3
172
1
173
0
174
0
175
0
176
0
177
0
178
0
179
2
271
2
272
2
273
2
274
3
275
0
276
0
277
2
278
44
279
0
280
0
281
0
282
0
283
0
284
8
285
0
286
0
288
0
289
3
290
0
371
-2
372
-2
  0
ENDTAB
  0
TABLE
  2
BLOCK_RECORD
  5
9
330
0
100
AcDbSymbolTable
 70
3
  0
BLOCK_RECORD
  5
17
330
9
100
AcDbSymbolTableRecord
100
AcDbBlockTableRecord
  2
*Model_Space
340
1A
 70
0
280
1
281
0
  0
BLOCK_RECORD
  5
1B
330
9
100
AcDbSymbolTableRecord
100
AcDbBlockTableRecord
  2
*Paper_Space
340
1E
 70
0
280
1
281
0
  0
BLOCK_RECORD
  5
2F
330
9
100
AcDbSymbolTableRecord
100
AcDbBlockTableRecord
  2
FLAG
340
0
 70
0
280
1
281
0
  0
ENDTAB
  0
ENDSEC
  0
SECTION
  2
BLOCKS
  0
BLOCK
  5
18
330
17
100
AcDbEntity
  8
0
100
AcDbBlockBegin
  2
*Model_Space
 70
0
 10
0.0
 20
0.0
 30
0.0
  3
*Model_Space
  1

  0
ENDBLK
  5
19
330
17
100
AcDbEntity
  8
0
100
AcDbBlockEnd
  0
BLOCK
  5
1C
330
1B
100
AcDbEntity
  8
0
100
AcDbBlockBegin
  2
*Paper_Space
 70
0
 10
0.0
 20
0.0
 30
0.0
  3
*Paper_Space
  1

  0
ENDBLK
  5
1D
330
1B
100
AcDbEntity
  8
0
100
AcDbBlockEnd
  0
BLOCK
  5
30
330
2F
100
AcDbEntity
  8
0
100
AcDbBlockBegin
  2
FLAG
 70
2
 10
0.0
 20
0.0
 30
0.0
  3
FLAG
  1

  0
TEXT
  5
32
330
2F
100
AcDbEntity
  8
0
 62
3
100
AcDbText
 10
0.0
 20
-0.5
 30
0.0
 40
0.5
  1
NAME:
100
AcDbText
  0
ATTDEF
  5
33
330
2F
100
AcDbEntity
  8
0
 62
3
100
AcDbText
 10
1.5
 20
-0.5
 30
0.0
 40
0.5
  1

100
AcDbAttributeDefinition
  3

  2
NAME
 70
0
  0
TEXT
  5
34
330
2F
100
AcDbEntity
  8
0
 62
4
100
AcDbText
 10
0.0
 20
-1.0
 30
0.0
 40
0.25
  1
XPOS:
100
AcDbText
  0
ATTDEF
  5
35
330
2F
100
AcDbEntity
  8
0
 62
4
100
AcDbText
 10
1.5
 20
-1.0
 30
0.0
 40
0.25
  1

100
AcDbAttributeDefinition
  3

  2
XPOS
 70
0
  0
TEXT
  5
36
330
2F
100
AcDbEntity
  8
0
 62
4
100
AcDbText
 10
0.0
 20
-1.5
 30
0.0
 40
0.25
  1
YPOS:
100
AcDbText
  0
ATTDEF
  5
37
330
2F
100
AcDbEntity
  8
0
 62
4
100
AcDbText
 10
1.5
 20
-1.5
 30
0.0
 40
0.25
  1

100
AcDbAttributeDefinition
  3

  2
YPOS
 70
0
  0
ENDBLK
  5
31
330
2F
100
AcDbEntity
  8
0
100
AcDbBlockEnd
  0
ENDSEC
  0
SECTION
  2
ENTITIES
  0
INSERT
  5
38
330
17
100
AcDbEntity
  8
0
100
AcDbBlockReference
 66
1
  2
FLAG
 10
9.0
 20
39.0
 30
0.0
 41
1.266413636075476
 42
1.266413636075476
 43
1.266413636075476
 50
15.0
  0
ATTRIB
  5
3A
330
17
100
AcDbEntity
  8
0
 62
3
100
AcDbText
 10
10.998778440771854
 20
38.88002713306582
 30
0.0
 40
0.633206818037738
  1
P(1)
 50
14.999999999999998
 11
10.998778440771854
 21
38.88002713306582
 31
0.0
100
AcDbAttribute
  2
NAME
 70
0
  0
ATTRIB
  5
3B
330
17
100
AcDbEntity
  8
0
 62
4
100
AcDbText
 10
11.162664424768787
 20
38.26839631414085
 30
0.0
 40
0.316603409018869
  1
= 9.000
 50
14.999999999999998
 11
11.162664424768787
 21
38.26839631414085
 31
0.0
100
AcDbAttribute
  2
XPOS
 70
0
  0
ATTRIB
  5
3C
330
17
100
AcDbEntity
  8
0
 62
4
100
AcDbText
 10
11.32655040876572
 20
37.65676549521588
 30
0.0
 40
0.316603409018869
  1
= 39.000
 50
14.999999999999998
 11
11.32655040876572
 21
37.65676549521588
 31
0.0
100
AcDbAttribute
  2
YPOS
 70
0
  0
SEQEND
  5
39
330
38
100
AcDbEntity
  8
0
  0
INSERT
  5
3D
330
17
100
AcDbEntity
  8
0
100
AcDbBlockReference
 66
1
  2
FLAG
 10
2.0
 20
95.0
 30
0.0
 41
2.1760198463705787
 42
2.1760198463705787
 43
2.1760198463705787
 50
15.0
  0
ATTRIB
  5
3F
330
17
100
AcDbEntity
  8
0
 62
3
100
AcDbText
 10
5.4344083415712525
 20
94.79385618407919
 30
0.0
 40
1.0880099231852893
  1
P(2)
 50
14.999999999999998
 11
5.4344083415712525
 21
94.79385618407919
 31
0.0
100
AcDbAttribute
  2
NAME
 70
0
  0
ATTRIB
  5
40
330
17
100
AcDbEntity
  8
0
 62
4
100
AcDbText
 10
5.716006030952136
 20
93.74291930001574
 30
0.0
 40
0.5440049615926447
  1
= 2.000
 50
14.999999999999998
 11
5.716006030952136
 21
93.74291930001574
 31
0.0
100
AcDbAttribute
  2
XPOS
 70
0
  0
ATTRIB
  5
41
330
17
100
AcDbEntity
  8
0
 62
4
100
AcDbText
 10
5.99760372033302
 20
92.69198241595228
 30
0.0
 40
0.5440049615926447
  1
= 95.000
 50
14.999999999999998
 11
5.99760372033302
 21
92.69198241595228
 31
0.0
100
AcDbAttribute
  2
YPOS
 70
0
  0
SEQEND
  5
3E
330
3D
100
AcDbEntity
  8
0
  0
INSERT
  5
42
330
17
100
AcDbEntity
  8
0
100
AcDbBlockReference
 66
1
  2
FLAG
 10
78.0
 20
39.0
 30
0.0
 41
1.5854198422100212
 42
1.5854198422100212
 43
1.5854198422100212
 50
15.0
  0
ATTRIB
  5
44
330
17
100
AcDbEntity
  8
0
 62
3
100
AcDbText
 10
80.50226538147639
 20
38.84980628892018
 30
0.0
 40
0.7927099211050107
  1
P(3)
 50
14.999999999999998
 11
80.50226538147639
 21
38.84980628892018
 31
0.0
100
AcDbAttribute
  2
NAME
 70
0
  0
ATTRIB
  5
45
330
17
100
AcDbEntity
  8
0
 62
4
100
AcDbText
 10
80.70743380630009
 20
38.08410730336928
 30
0.0
 40
0.39635496055250535
  1
= 78.000
 50
14.999999999999998
 11
80.70743380630009
 21
38.08410730336928
 31
0.0
100
AcDbAttribute
  2
XPOS
 70
0
  0
ATTRIB
  5
46
330
17
100
AcDbEntity
  8
0
 62
4
100
AcDbText
 10
80.91260223112378
 20
37.31840831781838
 30
0.0
 40
0.39635496055250535
  1
= 39.000
 50
14.999999999999998
 11
80.91260223112378
 21
37.31840831781838
 31
0.0
100
AcDbAttribute
  2
YPOS
 70
0
  0
SEQEND
  5
43
330
42
100
AcDbEntity
  8
0
  0
INSERT
  5
47
330
17
100
AcDbEntity
  8
0
100
AcDbBlockReference
 66
1
  2
FLAG
 10
85.0
 20
-83.0
 30
0.0
 41
2.266029100883535
 42
2.266029100883535
 43
2.266029100883535
 50
15.0
  0
ATTRIB
  5
49
330
17
100
AcDbEntity
  8
0
 62
3
100
AcDbText
 10
88.57646979153161
 20
-83.2146707837352
 30
0.0
 40
1.1330145504417672
  1
P(4)
 50
14.999999999999998
 11
88.57646979153161
 21
-83.2146707837352
 31
0.0
100
AcDbAttribute
  2
NAME
 70
0
  0
ATTRIB
  5
4A
330
17
100
AcDbEntity
  8
0
 62
4
100
AcDbText
 10
88.86971553556421
 20
-84.3090787995682
 30
0.0
 40
0.5665072752208836
  1
= 85.000
 50
14.999999999999998
 11
88.86971553556421
 21
-84.3090787995682
 31
0.0
100
AcDbAttribute
  2
XPOS
 70
0
  0
ATTRIB
  5
4B
330
17
100
AcDbEntity
  8
0
 62
4
100
AcDbText
 10
89.1629612795968
 20
-85.40348681540121
 30
0.0
 40
0.5665072752208836
  1
= -83.000
 50
14.999999999999998
 11
89.1629612795968
 21
-85.40348681540121
 31
0.0
100
AcDbAttribute
  2
YPOS
 70
0
  0
SEQEND
  5
48
330
47
100
AcDbEntity
  8
0
  0
INSERT
  5
4C
330
17
100
AcDbEntity
  8
0
100
AcDbBlockReference
 66
1
  2
FLAG
 10
76.0
 20
4.0
 30
0.0
 41
2.026312326455879
 42
2.026312326455879
 43
2.026312326455879
 50
15.0
  0
ATTRIB
  5
4E
330
17
100
AcDbEntity
  8
0
 62
3
100
AcDbText
 10
79.19812522308382
 20
3.808038627993357
 30
0.0
 40
1.0131561632279396
  1
P(5)
 50
14.999999999999998
 11
79.19812522308382
 21
3.808038627993357
 31
0.0
100
AcDbAttribute
  2
NAME
 70
0
  0
ATTRIB
  5
4F
330
17
100
AcDbEntity
  8
0
 62
4
100
AcDbText
 10
79.4603493337902
 20
2.8294049238675476
 30
0.0
 40
0.5065780816139698
  1
= 76.000
 50
14.999999999999998
 11
79.4603493337902
 21
2.8294049238675476
 31
0.0
100
AcDbAttribute
  2
XPOS
 70
0
  0
ATTRIB
  5
50
330
17
100
AcDbEntity
  8
0
 62
4
100
AcDbText
 10
79.72257344449659
 20
1.8507712197417376
 30
0.0
 40
0.5065780816139698
  1
= 4.000
 50
14.999999999999998
 11
79.72257344449659
 21
1.8507712197417376
 31
0.0
100
AcDbAttribute
  2
YPOS
 70
0
  0
SEQEND
  5
4D
330
4C
100
AcDbEntity
  8
0
  0
INSERT
  5
51
330
17
100
AcDbEntity
  8
0
100
AcDbBlockReference
 66
1
  2
FLAG
 10
19.0
 20
0.0
 30
0.0
 41
0.8196041140746428
 42
0.8196041140746428
 43
0.8196041140746428
 50
15.0
  0
ATTRIB
  5
53
330
17
100
AcDbEntity
  8
0
 62
3
100
AcDbText
 10
20.29357974875965
 20
-0.07764465930838982
 30
0.0
 40
0.4098020570373214
  1
P(6)
 50
14.999999999999998
 11
20.29357974875965
 21
-0.07764465930838982
 31
0.0
100
AcDbAttribute
  2
NAME
 70
0
  0
ATTRIB
  5
54
330
17
100
AcDbEntity
  8
0
 62
4
100
AcDbText
 10
20.3996443258431
 20
-0.4734830498671244
 30
0.0
 40
0.2049010285186607
  1
= 19.000
 50
14.999999999999998
 11
20.3996443258431
 21
-0.4734830498671244
 31
0.0
100
AcDbAttribute
  2
XPOS
 70
0
  0
ATTRIB
  5
55
330
17
100
AcDbEntity
  8
0
 62
4
100
AcDbText
 10
20.50570890292655
 20
-0.869321440425859
 30
0.0
 40
0.2049010285186607
  1
= 0.000
 50
14.999999999999998
 11
20.50570890292655
 21
-0.869321440425859
 31
0.0
100
AcDbAttribute
  2
YPOS
 70
0
  0
SEQEND
  5
52
330
51
100
AcDbEntity
  8
0
  0
INSERT
  5
56
330
17
100
AcDbEntity
  8
0
100
AcDbBlockReference
 66
1
  2
FLAG
 10
31.0
 20
41.0
 30
0.0
 41
2.1871267289320246
 42
2.1871267289320246
 43
2.1871267289320246
 50
15.0
  0
ATTRIB
  5
58
330
17
100
AcDbEntity
  8
0
 62
3
100
AcDbText
 10
34.451938315014054
 20
40.79280398082929
 30
0.0
 40
1.0935633644660123
  1
P(7)
 50
15.000000000000002
 11
34.451938315014054
 21
40.79280398082929
 31
0.0
100
AcDbAttribute
  2
NAME
 70
0
  0
ATTRIB
  5
59
330
17
100
AcDbEntity
  8
0
 62
4
100
AcDbText
 10
34.73497334076425
 20
39.736502884408004
 30
0.0
 40
0.5467816822330062
  1
= 31.000
 50
15.000000000000002
 11
34.73497334076425
 21
39.736502884408004
 31
0.0
100
AcDbAttribute
  2
XPOS
 70
0
  0
ATTRIB
  5
5A
330
17
100
AcDbEntity
  8
0
 62
4
100
AcDbText
 10
35.01800836651444
 20
38.68020178798672
 30
0.0
 40
0.5467816822330062
  1
= 41.000
 50
15.000000000000002
 11
35.01800836651444
 21
38.68020178798672
 31
0.0
100
AcDbAttribute
  2
YPOS
 70
0
  0
SEQEND
  5
57
330
56
100
AcDbEntity
  8
0
  0
INSERT
  5
5B
330
17
100
AcDbEntity
  8
0
100
AcDbBlockReference
 66
1
  2
FLAG
 10
12.0
 20
59.0
 30
0.0
 41
0.944718783958691
 42
0.944718783958691
 43
0.944718783958691
 50
15.0
  0
ATTRIB
  5
5D
330
17
100
AcDbEntity
  8
0
 62
3
100
AcDbText
 10
13.491048014786456
 20
58.910502684328854
 30
0.0
 40
0.4723593919793455
  1
P(8)
 50
14.999999999999998
 11
13.491048014786456
 21
58.910502684328854
 31
0.0
100
AcDbAttribute
  2
NAME
 70
0
  0
ATTRIB
  5
5E
330
17
100
AcDbEntity
  8
0
 62
4
100
AcDbText
 10
13.613303621563757
 20
58.454238548325804
 30
0.0
 40
0.23617969598967276
  1
= 12.000
 50
14.999999999999998
 11
13.613303621563757
 21
58.454238548325804
 31
0.0
100
AcDbAttribute
  2
XPOS
 70
0
  0
ATTRIB
  5
5F
330
17
100
AcDbEntity
  8
0
 62
4
100
AcDbText
 10
13.735559228341058
 20
57.99797441232275
 30
0.0
 40
0.23617969598967276
  1
= 59.000
 50
14.999999999999998
 11
13.735559228341058
 21
57.99797441232275
 31
0.0
100
AcDbAttribute
  2
YPOS
 70
0
  0
SEQEND
  5
5C
330
5B
100
AcDbEntity
  8
0
  0
INSERT
  5
60
330
17
100
AcDbEntity
  8
0
100
AcDbBlockReference
 66
1
  2
FLAG
 10
-93.0
 20
79.0
 30
0.0
 41
2.3271729440240465
 42
2.3271729440240465
 43
2.3271729440240465
 50
15.0
  0
ATTRIB
  5
62
330
17
100
AcDbEntity
  8
0
 62
3
100
AcDbText
 10
-89.32702698710865
 20
78.7795367943041
 30
0.0
 40
1.163586472012023
  1
P(9)
 50
14.999999999999998
 41
1.0000000000000002
 11
-89.32702698710865
 21
78.7795367943041
 31
0.0
100
AcDbAttribute
  2
NAME
 70
0
  0
ATTRIB
  5
63
330
17
100
AcDbEntity
  8
0
 62
4
100
AcDbText
 10
-89.02586864752828
 20
77.6555985698671
 30
0.0
 40
0.5817932360060115
  1
= -93.000
 50
14.999999999999998
 41
1.0000000000000002
 11
-89.02586864752828
 21
77.6555985698671
 31
0.0
100
AcDbAttribute
  2
XPOS
 70
0
  0
ATTRIB
  5
64
330
17
100
AcDbEntity
  8
0
 62
4
100
AcDbText
 10
-88.72471030794793
 20
76.5316603454301
 30
0.0
 40
0.5817932360060115
  1
= 79.000
 50
14.999999999999998
 41
1.0000000000000002
 11
-88.72471030794793
 21
76.5316603454301
 31
0.0
100
AcDbAttribute
  2
YPOS
 70
0
  0
SEQEND
  5
61
330
60
100
AcDbEntity
  8
0
  0
INSERT
  5
65
330
17
100
AcDbEntity
  8
0
100
AcDbBlockReference
 66
1
  2
FLAG
 10
-55.0
 20
-66.0
 30
0.0
 41
2.1684762787299494
 42
2.1684762787299494
 43
2.1684762787299494
 50
15.0
  0
ATTRIB
  5
67
330
17
100
AcDbEntity
  8
0
 62
3
100
AcDbText
 10
-51.57749765812512
 20
-66.2054291809777
 30
0.0
 40
1.0842381393649747
  1
P(10)
 50
14.999999999999998
 11
-51.57749765812512
 21
-66.2054291809777
 31
0.0
100
AcDbAttribute
  2
NAME
 70
0
  0
ATTRIB
  5
68
330
17
100
AcDbEntity
  8
0
 62
4
100
AcDbText
 10
-51.29687617823094
 20
-67.25272280163794
 30
0.0
 40
0.5421190696824874
  1
= -55.000
 50
14.999999999999998
 11
-51.29687617823094
 21
-67.25272280163794
 31
0.0
100
AcDbAttribute
  2
XPOS
 70
0
  0
ATTRIB
  5
69
330
17
100
AcDbEntity
  8
0
 62
4
100
AcDbText
 10
-51.016254698336766
 20
-68.30001642229817
 30
0.0
 40
0.5421190696824874
  1
= -66.000
 50
14.999999999999998
 11
-51.016254698336766
 21
-68.30001642229817
 31
0.0
100
AcDbAttribute
  2
YPOS
 70
0
  0
SEQEND
  5
66
330
65
100
AcDbEntity
  8
0
  0
INSERT
  5
6A
330
17
100
AcDbEntity
  8
0
100
AcDbBlockReference
 66
1
  2
FLAG
 10
77.0
 20
82.0
 30
0.0
 41
1.0201453941659717
 42
1.0201453941659717
 43
1.0201453941659717
 50
15.0
  0
ATTRIB
  5
6C
330
17
100
AcDbEntity
  8
0
 62
3
100
AcDbText
 10
78.61009370258401
 20
81.90335719377828
 30
0.0
 40
0.5100726970829859
  1
P(11)
 50
14.999999999999998
 11
78.61009370258401
 21
81.90335719377828
 31
0.0
100
AcDbAttribute
  2
NAME
 70
0
  0
ATTRIB
  5
6D
330
17
100
AcDbEntity
  8
0
 62
4
100
AcDbText
 10
78.7421102309759
 20
81.41066480238091
 30
0.0
 40
0.25503634854149293
  1
= 77.000
 50
14.999999999999998
 11
78.7421102309759
 21
81.41066480238091
 31
0.0
100
AcDbAttribute
  2
XPOS
 70
0
  0
ATTRIB
  5
6E
330
17
100
AcDbEntity
  8
0
 62
4
100
AcDbText
 10
78.87412675936778
 20
80.91797241098352
 30
0.0
 40
0.25503634854149293
  1
= 82.000
 50
14.999999999999998
 11
78.87412675936778
 21
80.91797241098352
 31
0.0
100
AcDbAttribute
  2
YPOS
 70
0
  0
SEQEND
  5
6B
330
6A
100
AcDbEntity
  8
0
  0
INSERT
  5
6F
330
17
100
AcDbEntity
  8
0
100
AcDbBlockReference
 66
1
  2
FLAG
 10
-54.0
 20
29.0
 30
0.0
 41
2.1398165582565465
 42
2.1398165582565465
 43
2.1398165582565465
 50
15.0
  0
ATTRIB
  5
71
330
17
100
AcDbEntity
  8
0
 62
3
100
AcDbText
 10
-50.62273124513726
 20
28.79728587888329
 30
0.0
 40
1.069908279128273
  1
P(12)
 50
14.999999999999998
 41
1.0000000000000002
 11
-50.62273124513726
 21
28.79728587888329
 31
0.0
100
AcDbAttribute
  2
NAME
 70
0
  0
ATTRIB
  5
72
330
17
100
AcDbEntity
  8
0
 62
4
100
AcDbText
 10
-50.345818605986004
 20
27.7638338403128
 30
0.0
 40
0.5349541395641365
  1
= -54.000
 50
14.999999999999998
 41
1.0000000000000002
 11
-50.345818605986004
 21
27.7638338403128
 31
0.0
100
AcDbAttribute
  2
XPOS
 70
0
  0
ATTRIB
  5
73
330
17
100
AcDbEntity
  8
0
 62
4
100
AcDbText
 10
-50.06890596683474
 20
26.730381801742304
 30
0.0
 40
0.5349541395641365
  1
= 29.000
 50
14.999999999999998
 41
1.0000000000000002
 11
-50.06890596683474
 21
26.730381801742304
 31
0.0
100
AcDbAttribute
  2
YPOS
 70
0
  0
SEQEND
  5
70
330
6F
100
AcDbEntity
  8
0
  0
INSERT
  5
74
330
17
100
AcDbEntity
  8
0
100
AcDbBlockReference
 66
1
  2
FLAG
 10
-94.0
 20
60.0
 30
0.0
 41
2.4723494438731315
 42
2.4723494438731315
 43
2.4723494438731315
 50
15.0
  0
ATTRIB
  5
76
330
17
100
AcDbEntity
  8
0
 62
3
100
AcDbText
 10
-90.0978951697158
 20
59.76578359361025
 30
0.0
 40
1.2361747219365657
  1
P(13)
 50
14.999999999999998
 11
-90.0978951697158
 21
59.76578359361025
 31
0.0
100
AcDbAttribute
  2
NAME
 70
0
  0
ATTRIB
  5
77
330
17
100
AcDbEntity
  8
0
 62
4
100
AcDbText
 10
-89.7779496086043
 20
58.571730503886016
 30
0.0
 40
0.6180873609682829
  1
= -94.000
 50
14.999999999999998
 11
-89.7779496086043
 21
58.571730503886016
 31
0.0
100
AcDbAttribute
  2
XPOS
 70
0
  0
ATTRIB
  5
78
330
17
100
AcDbEntity
  8
0
 62
4
100
AcDbText
 10
-89.4580040474928
 20
57.37767741416178
 30
0.0
 40
0.6180873609682829
  1
= 60.000
 50
14.999999999999998
 11
-89.4580040474928
 21
57.37767741416178
 31
0.0
100
AcDbAttribute
  2
YPOS
 70
0
  0
SEQEND
  5
75
330
74
100
AcDbEntity
  8
0
  0
INSERT
  5
79
330
17
100
AcDbEntity
  8
0
100
AcDbBlockReference
 66
1
  2
FLAG
 10
-29.0
 20
-83.0
 30
0.0
 41
1.5002063338424143
 42
1.5002063338424143
 43
1.5002063338424143
 50
15.0
  0
ATTRIB
  5
7B
330
17
100
AcDbEntity
  8
0
 62
3
100
AcDbText
 10
-26.632226950677833
 20
-83.14212106513764
 30
0.0
 40
0.7501031669212072
  1
P(14)
 50
14.999999999999998
 41
1.0000000000000002
 11
-26.632226950677833
 21
-83.14212106513764
 31
0.0
100
AcDbAttribute
  2
NAME
 70
0
  0
ATTRIB
  5
7C
330
17
100
AcDbEntity
  8
0
 62
4
100
AcDbText
 10
-26.43808596528691
 20
-83.86666508644805
 30
0.0
 40
0.3750515834606036
  1
= -29.000
 50
14.999999999999998
 41
1.0000000000000002
 11
-26.43808596528691
 21
-83.86666508644805
 31
0.0
100
AcDbAttribute
  2
XPOS
 70
0
  0
ATTRIB
  5
7D
330
17
100
AcDbEntity
  8
0
 62
4
100
AcDbText
 10
-26.243944979895986
 20
-84.59120910775847
 30
0.0
 40
0.3750515834606036
  1
= -83.000
 50
14.999999999999998
 41
1.0000000000000002
 11
-26.243944979895986
 21
-84.59120910775847
 31
0.0
100
AcDbAttribute
  2
YPOS
 70
0
  0
SEQEND
  5
7A
330
79
100
AcDbEntity
  8
0
  0
INSERT
  5
7E
330
17
100
AcDbEntity
  8
0
100
AcDbBlockReference
 66
1
  2
FLAG
 10
37.0
 20
-65.0
 30
0.0
 41
2.348294859848576
 42
2.348294859848576
 43
2.348294859848576
 50
15.0
  0
ATTRIB
  5
80
330
17
100
AcDbEntity
  8
0
 62
3
100
AcDbText
 10
40.706309695927
 20
-65.22246417656706
 30
0.0
 40
1.174147429924288
  1
P(15)
 50
14.999999999999998
 11
40.706309695927
 21
-65.22246417656706
 31
0.0
100
AcDbAttribute
  2
NAME
 70
0
  0
ATTRIB
  5
81
330
17
100
AcDbEntity
  8
0
 62
4
100
AcDbText
 10
41.01020141254958
 20
-66.35660350300186
 30
0.0
 40
0.587073714962144
  1
= 37.000
 50
14.999999999999998
 11
41.01020141254958
 21
-66.35660350300186
 31
0.0
100
AcDbAttribute
  2
XPOS
 70
0
  0
ATTRIB
  5
82
330
17
100
AcDbEntity
  8
0
 62
4
100
AcDbText
 10
41.314093129172164
 20
-67.49074282943667
 30
0.0
 40
0.587073714962144
  1
= -65.000
 50
14.999999999999998
 11
41.314093129172164
 21
-67.49074282943667
 31
0.0
100
AcDbAttribute
  2
YPOS
 70
0
  0
SEQEND
  5
7F
330
7E
100
AcDbEntity
  8
0
  0
INSERT
  5
83
330
17
100
AcDbEntity
  8
0
100
AcDbBlockReference
 66
1
  2
FLAG
 10
-90.0
 20
-44.0
 30
0.0
 41
1.482715323142344
 42
1.482715323142344
 43
1.482715323142344
 50
15.0
  0
ATTRIB
  5
85
330
17
100
AcDbEntity
  8
0
 62
3
100
AcDbText
 10
-87.65983298246611
 20
-44.140464065687
 30
0.0
 40
0.741357661571172
  1
P(16)
 50
14.999999999999998
 11
-87.65983298246611
 21
-44.140464065687
 31
0.0
100
AcDbAttribute
  2
NAME
 70
0
  0
ATTRIB
  5
86
330
17
100
AcDbEntity
  8
0
 62
4
100
AcDbText
 10
-87.46795550041882
 20
-44.856560577515864
 30
0.0
 40
0.370678830785586
  1
= -90.000
 50
14.999999999999998
 11
-87.46795550041882
 21
-44.856560577515864
 31
0.0
100
AcDbAttribute
  2
XPOS
 70
0
  0
ATTRIB
  5
87
330
17
100
AcDbEntity
  8
0
 62
4
100
AcDbText
 10
-87.27607801837154
 20
-45.57265708934473
 30
0.0
 40
0.370678830785586
  1
= -44.000
 50
14.999999999999998
 11
-87.27607801837154
 21
-45.57265708934473
 31
0.0
100
AcDbAttribute
  2
YPOS
 70
0
  0
SEQEND
  5
84
330
83
100
AcDbEntity
  8
0
  0
INSERT
  5
88
330
17
100
AcDbEntity
  8
0
100
AcDbBlockReference
 66
1
  2
FLAG
 10
-12.0
 20
61.0
 30
0.0
 41
1.884593753652959
 42
1.884593753652959
 43
1.884593753652959
 50
15.0
  0
ATTRIB
  5
8A
330
17
100
AcDbEntity
  8
0
 62
3
100
AcDbText
 10
-9.025548954062007
 20
60.82146424423173
 30
0.0
 40
0.9422968768264796
  1
P(17)
 50
14.999999999999998
 11
-9.025548954062007
 21
60.82146424423173
 31
0.0
100
AcDbAttribute
  2
NAME
 70
0
  0
ATTRIB
  5
8B
330
17
100
AcDbEntity
  8
0
 62
4
100
AcDbText
 10
-8.78166457619869
 20
59.9112753548735
 30
0.0
 40
0.4711484384132398
  1
= -12.000
 50
14.999999999999998
 11
-8.78166457619869
 21
59.9112753548735
 31
0.0
100
AcDbAttribute
  2
XPOS
 70
0
  0
ATTRIB
  5
8C
330
17
100
AcDbEntity
  8
0
 62
4
100
AcDbText
 10
-8.537780198335373
 20
59.00108646551527
 30
0.0
 40
0.4711484384132398
  1
= 61.000
 50
14.999999999999998
 11
-8.537780198335373
 21
59.00108646551527
 31
0.0
100
AcDbAttribute
  2
YPOS
 70
0
  0
SEQEND
  5
89
330
88
100
AcDbEntity
  8
0
  0
INSERT
  5
8D
330
17
100
AcDbEntity
  8
0
100
AcDbBlockReference
 66
1
  2
FLAG
 10
-81.0
 20
-91.0
 30
0.0
 41
2.4535228777163436
 42
2.4535228777163436
 43
2.4535228777163436
 50
15.0
  0
ATTRIB
  5
8F
330
17
100
AcDbEntity
  8
0
 62
3
100
AcDbText
 10
-77.1276091063602
 20
-91.23243288396705
 30
0.0
 40
1.2267614388581718
  1
P(18)
 50
14.999999999999998
 11
-77.1276091063602
 21
-91.23243288396705
 31
0.0
100
AcDbAttribute
  2
NAME
 70
0
  0
ATTRIB
  5
90
330
17
100
AcDbEntity
  8
0
 62
4
100
AcDbText
 10
-76.81009988218634
 20
-92.4173934404557
 30
0.0
 40
0.6133807194290859
  1
= -81.000
 50
14.999999999999998
 11
-76.81009988218634
 21
-92.4173934404557
 31
0.0
100
AcDbAttribute
  2
XPOS
 70
0
  0
ATTRIB
  5
91
330
17
100
AcDbEntity
  8
0
 62
4
100
AcDbText
 10
-76.49259065801246
 20
-93.60235399694434
 30
0.0
 40
0.6133807194290859
  1
= -91.000
 50
14.999999999999998
 11
-76.49259065801246
 21
-93.60235399694434
 31
0.0
100
AcDbAttribute
  2
YPOS
 70
0
  0
SEQEND
  5
8E
330
8D
100
AcDbEntity
  8
0
  0
INSERT
  5
92
330
17
100
AcDbEntity
  8
0
100
AcDbBlockReference
 66
1
  2
FLAG
 10
50.0
 20
35.0
 30
0.0
 41
1.839228204078159
 42
1.839228204078159
 43
1.839228204078159
 50
15.0
  0
ATTRIB
  5
94
330
17
100
AcDbEntity
  8
0
 62
3
100
AcDbText
 10
52.9028506778901
 20
34.82576191987852
 30
0.0
 40
0.9196141020390795
  1
P(19)
 50
14.999999999999998
 11
52.9028506778901
 21
34.82576191987852
 31
0.0
100
AcDbAttribute
  2
NAME
 70
0
  0
ATTRIB
  5
95
330
17
100
AcDbEntity
  8
0
 62
4
100
AcDbText
 10
53.14086432164267
 20
33.93748290849935
 30
0.0
 40
0.4598070510195397
  1
= 50.000
 50
14.999999999999998
 11
53.14086432164267
 21
33.93748290849935
 31
0.0
100
AcDbAttribute
  2
XPOS
 70
0
  0
ATTRIB
  5
96
330
17
100
AcDbEntity
  8
0
 62
4
100
AcDbText
 10
53.37887796539523
 20
33.049203897120165
 30
0.0
 40
0.4598070510195397
  1
= 35.000
 50
14.999999999999998
 11
53.37887796539523
 21
33.049203897120165
 31
0.0
100
AcDbAttribute
  2
YPOS
 70
0
  0
SEQEND
  5
93
330
92
100
AcDbEntity
  8
0
  0
INSERT
  5
97
330
17
100
AcDbEntity
  8
0
100
AcDbBlockReference
 66
1
  2
FLAG
 10
-72.0
 20
-93.0
 30
0.0
 41
1.7759382212387669
 42
1.7759382212387669
 43
1.7759382212387669
 50
15.0
  0
ATTRIB
  5
99
330
17
100
AcDbEntity
  8
0
 62
3
100
AcDbText
 10
-69.19703979202636
 20
-93.16824234502107
 30
0.0
 40
0.8879691106193834
  1
P(20)
 50
14.999999999999998
 11
-69.19703979202636
 21
-93.16824234502107
 31
0.0
100
AcDbAttribute
  2
NAME
 70
0
  0
ATTRIB
  5
9A
330
17
100
AcDbEntity
  8
0
 62
4
100
AcDbText
 10
-68.96721647473532
 20
-94.02595464191526
 30
0.0
 40
0.4439845553096917
  1
= -72.000
 50
14.999999999999998
 11
-68.96721647473532
 21
-94.02595464191526
 31
0.0
100
AcDbAttribute
  2
XPOS
 70
0
  0
ATTRIB
  5
9B
330
17
100
AcDbEntity
  8
0
 62
4
100
AcDbText
 10
-68.73739315744427
 20
-94.88366693880945
 30
0.0
 40
0.4439845553096917
  1
= -93.000
 50
14.999999999999998
 11
-68.73739315744427
 21
-94.88366693880945
 31
0.0
100
AcDbAttribute
  2
YPOS
 70
0
  0
SEQEND
  5
98
330
97
100
AcDbEntity
  8
0
  0
INSERT
  5
9C
330
17
100
AcDbEntity
  8
0
100
AcDbBlockReference
 66
1
  2
FLAG
 10
-19.0
 20
-33.0
 30
0.0
 41
1.634702170665057
 42
1.634702170665057
 43
1.634702170665057
 50
15.0
  0
ATTRIB
  5
9E
330
17
100
AcDbEntity
  8
0
 62
3
100
AcDbText
 10
-16.41995240517646
 20
-33.154862440210266
 30
0.0
 40
0.8173510853325286
  1
P(21)
 50
14.999999999999998
 11
-16.41995240517646
 21
-33.154862440210266
 31
0.0
100
AcDbAttribute
  2
NAME
 70
0
  0
ATTRIB
  5
9F
330
17
100
AcDbEntity
  8
0
 62
4
100
AcDbText
 10
-16.208406377757186
 20
-33.944362962678355
 30
0.0
 40
0.4086755426662643
  1
= -19.000
 50
14.999999999999998
 11
-16.208406377757186
 21
-33.944362962678355
 31
0.0
100
AcDbAttribute
  2
XPOS
 70
0
  0
ATTRIB
  5
A0
330
17
100
AcDbEntity
  8
0
 62
4
100
AcDbText
 10
-15.99686035033791
 20
-34.73386348514644
 30
0.0
 40
0.4086755426662643
  1
= -33.000
 50
14.999999999999998
 11
-15.99686035033791
 21
-34.73386348514644
 31
0.0
100
AcDbAttribute
  2
YPOS
 70
0
  0
SEQEND
  5
9D
330
9C
100
AcDbEntity
  8
0
  0
INSERT
  5
A1
330
17
100
AcDbEntity
  8
0
100
AcDbBlockReference
 66
1
  2
FLAG
 10
87.0
 20
-5.0
 30
0.0
 41
2.101197550207947
 42
2.101197550207947
 43
2.101197550207947
 50
15.0
  0
ATTRIB
  5
A3
330
17
100
AcDbEntity
  8
0
 62
3
100
AcDbText
 10
90.31631644158006
 20
-5.199055574665723
 30
0.0
 40
1.0505987751039736
  1
P(22)
 50
14.999999999999998
 11
90.31631644158006
 21
-5.199055574665723
 31
0.0
100
AcDbAttribute
  2
NAME
 70
0
  0
ATTRIB
  5
A4
330
17
100
AcDbEntity
  8
0
 62
4
100
AcDbText
 10
90.58823141333835
 20
-6.213856064606312
 30
0.0
 40
0.5252993875519868
  1
= 87.000
 50
14.999999999999998
 11
90.58823141333835
 21
-6.213856064606312
 31
0.0
100
AcDbAttribute
  2
XPOS
 70
0
  0
ATTRIB
  5
A5
330
17
100
AcDbEntity
  8
0
 62
4
100
AcDbText
 10
90.86014638509663
 20
-7.228656554546901
 30
0.0
 40
0.5252993875519868
  1
= -5.000
 50
14.999999999999998
 11
90.86014638509663
 21
-7.228656554546901
 31
0.0
100
AcDbAttribute
  2
YPOS
 70
0
  0
SEQEND
  5
A2
330
A1
100
AcDbEntity
  8
0
  0
INSERT
  5
A6
330
17
100
AcDbEntity
  8
0
100
AcDbBlockReference
 66
1
  2
FLAG
 10
-35.0
 20
-26.0
 30
0.0
 41
1.7054913524920379
 42
1.7054913524920379
 43
1.7054913524920379
 50
15.0
  0
ATTRIB
  5
A8
330
17
100
AcDbEntity
  8
0
 62
3
100
AcDbText
 10
-32.3082259625316
 20
-26.161568607018474
 30
0.0
 40
0.8527456762460189
  1
P(23)
 50
14.999999999999998
 11
-32.3082259625316
 21
-26.161568607018474
 31
0.0
100
AcDbAttribute
  2
NAME
 70
0
  0
ATTRIB
  5
A9
330
17
100
AcDbEntity
  8
0
 62
4
100
AcDbText
 10
-32.08751914089031
 20
-26.98525767896084
 30
0.0
 40
0.42637283812300947
  1
= -35.000
 50
14.999999999999998
 11
-32.08751914089031
 21
-26.98525767896084
 31
0.0
100
AcDbAttribute
  2
XPOS
 70
0
  0
ATTRIB
  5
AA
330
17
100
AcDbEntity
  8
0
 62
4
100
AcDbText
 10
-31.866812319249007
 20
-27.808946750903203
 30
0.0
 40
0.42637283812300947
  1
= -26.000
 50
14.999999999999998
 11
-31.866812319249007
 21
-27.808946750903203
 31
0.0
100
AcDbAttribute
  2
YPOS
 70
0
  0
SEQEND
  5
A7
330
A6
100
AcDbEntity
  8
0
  0
INSERT
  5
AB
330
17
100
AcDbEntity
  8
0
100
AcDbBlockReference
 66
1
  2
FLAG
 10
14.0
 20
-55.0
 30
0.0
 41
1.7216123314457612
 42
1.7216123314457612
 43
1.7216123314457612
 50
15.0
  0
ATTRIB
  5
AD
330
17
100
AcDbEntity
  8
0
 62
3
100
AcDbText
 10
16.71721775053255
 20
-55.163095817408326
 30
0.0
 40
0.8608061657228806
  1
P(24)
 50
14.999999999999998
 11
16.71721775053255
 21
-55.163095817408326
 31
0.0
100
AcDbAttribute
  2
NAME
 70
0
  0
ATTRIB
  5
AE
330
17
100
AcDbEntity
  8
0
 62
4
100
AcDbText
 10
16.94001078036331
 20
-55.99457072430892
 30
0.0
 40
0.4304030828614403
  1
= 14.000
 50
14.999999999999998
 11
16.94001078036331
 21
-55.99457072430892
 31
0.0
100
AcDbAttribute
  2
XPOS
 70
0
  0
ATTRIB
  5
AF
330
17
100
AcDbEntity
  8
0
 62
4
100
AcDbText
 10
17.16280381019407
 20
-56.82604563120952
 30
0.0
 40
0.4304030828614403
  1
= -55.000
 50
14.999999999999998
 11
17.16280381019407
 21
-56.82604563120952
 31
0.0
100
AcDbAttribute
  2
YPOS
 70
0
  0
SEQEND
  5
AC
330
AB
100
AcDbEntity
  8
0
  0
INSERT
  5
B0
330
17
100
AcDbEntity
  8
0
100
AcDbBlockReference
 66
1
  2
FLAG
 10
57.0
 20
99.0
 30
0.0
 41
1.5326018871544445
 42
1.5326018871544445
 43
1.5326018871544445
 50
15.0
  0
ATTRIB
  5
B2
330
17
100
AcDbEntity
  8
0
 62
3
100
AcDbText
 10
59.41890289481058
 20
98.85480996332254
 30
0.0
 40
0.7663009435772222
  1
P(25)
 50
14.999999999999998
 41
1.0000000000000002
 11
59.41890289481058
 21
98.85480996332254
 31
0.0
100
AcDbAttribute
  2
NAME
 70
0
  0
ATTRIB
  5
B3
330
17
100
AcDbEntity
  8
0
 62
4
100
AcDbText
 10
59.6172361732884
 20
98.1146200912116
 30
0.0
 40
0.3831504717886111
  1
= 57.000
 50
14.999999999999998
 41
1.0000000000000002
 11
59.6172361732884
 21
98.1146200912116
 31
0.0
100
AcDbAttribute
  2
XPOS
 70
0
  0
ATTRIB
  5
B4
330
17
100
AcDbEntity
  8
0
 62
4
100
AcDbText
 10
59.815569451766216
 20
97.37443021910069
 30
0.0
 40
0.3831504717886111
  1
= 99.000
 50
14.999999999999998
 41
1.0000000000000002
 11
59.815569451766216
 21
97.37443021910069
 31
0.0
100
AcDbAttribute
  2
YPOS
 70
0
  0
SEQEND
  5
B1
330
B0
100
AcDbEntity
  8
0
  0
INSERT
  5
B5
330
17
100
AcDbEntity
  8
0
100
AcDbBlockReference
 66
1
  2
FLAG
 10
-42.0
 20
18.0
 30
0.0
 41
1.8330771379237343
 42
1.8330771379237343
 43
1.8330771379237343
 50
15.0
  0
ATTRIB
  5
B7
330
17
100
AcDbEntity
  8
0
 62
3
100
AcDbText
 10
-39.106857539130786
 20
17.826344637104732
 30
0.0
 40
0.9165385689618671
  1
P(26)
 50
14.999999999999998
 11
-39.106857539130786
 21
17.826344637104732
 31
0.0
100
AcDbAttribute
  2
NAME
 70
0
  0
ATTRIB
  5
B8
330
17
100
AcDbEntity
  8
0
 62
4
100
AcDbText
 10
-38.86963990191244
 20
16.941036362554442
 30
0.0
 40
0.45826928448093357
  1
= -42.000
 50
14.999999999999998
 11
-38.86963990191244
 21
16.941036362554442
 31
0.0
100
AcDbAttribute
  2
XPOS
 70
0
  0
ATTRIB
  5
B9
330
17
100
AcDbEntity
  8
0
 62
4
100
AcDbText
 10
-38.6324222646941
 20
16.055728088004148
 30
0.0
 40
0.45826928448093357
  1
= 18.000
 50
14.999999999999998
 11
-38.6324222646941
 21
16.055728088004148
 31
0.0
100
AcDbAttribute
  2
YPOS
 70
0
  0
SEQEND
  5
B6
330
B5
100
AcDbEntity
  8
0
  0
INSERT
  5
BA
330
17
100
AcDbEntity
  8
0
100
AcDbBlockReference
 66
1
  2
FLAG
 10
85.0
 20
-91.0
 30
0.0
 41
0.6938808260544655
 42
0.6938808260544655
 43
0.6938808260544655
 50
15.0
  0
ATTRIB
  5
BC
330
17
100
AcDbEntity
  8
0
 62
3
100
AcDbText
 10
86.09515090178638
 20
-91.06573434590486
 30
0.0
 40
0.3469404130272328
  1
P(27)
 50
14.999999999999998
 11
86.09515090178638
 21
-91.06573434590486
 31
0.0
100
AcDbAttribute
  2
NAME
 70
0
  0
ATTRIB
  5
BD
330
17
100
AcDbEntity
  8
0
 62
4
100
AcDbText
 10
86.18494568819357
 20
-91.40085305103125
 30
0.0
 40
0.1734702065136164
  1
= 85.000
 50
14.999999999999998
 11
86.18494568819357
 21
-91.40085305103125
 31
0.0
100
AcDbAttribute
  2
XPOS
 70
0
  0
ATTRIB
  5
BE
330
17
100
AcDbEntity
  8
0
 62
4
100
AcDbText
 10
86.27474047460075
 20
-91.73597175615765
 30
0.0
 40
0.1734702065136164
  1
= -91.000
 50
14.999999999999998
 11
86.27474047460075
 21
-91.73597175615765
 31
0.0
100
AcDbAttribute
  2
YPOS
 70
0
  0
SEQEND
  5
BB
330
BA
100
AcDbEntity
  8
0
  0
INSERT
  5
BF
330
17
100
AcDbEntity
  8
0
100
AcDbBlockReference
 66
1
  2
FLAG
 10
88.0
 20
17.0
 30
0.0
 41
1.191580648393238
 42
1.191580648393238
 43
1.191580648393238
 50
15.0
  0
ATTRIB
  5
C1
330
17
100
AcDbEntity
  8
0
 62
3
100
AcDbText
 10
89.88066966637385
 20
16.88711638717502
 30
0.0
 40
0.5957903241966191
  1
P(28)
 50
14.999999999999998
 11
89.88066966637385
 21
16.88711638717502
 31
0.0
100
AcDbAttribute
  2
NAME
 70
0
  0
ATTRIB
  5
C2
330
17
100
AcDbEntity
  8
0
 62
4
100
AcDbText
 10
90.03487154916374
 20
16.31162712598037
 30
0.0
 40
0.2978951620983096
  1
= 88.000
 50
14.999999999999998
 11
90.03487154916374
 21
16.31162712598037
 31
0.0
100
AcDbAttribute
  2
XPOS
 70
0
  0
ATTRIB
  5
C3
330
17
100
AcDbEntity
  8
0
 62
4
100
AcDbText
 10
90.18907343195363
 20
15.736137864785718
 30
0.0
 40
0.2978951620983096
  1
= 17.000
 50
14.999999999999998
 11
90.18907343195363
 21
15.736137864785718
 31
0.0
100
AcDbAttribute
  2
YPOS
 70
0
  0
SEQEND
  5
C0
330
BF
100
AcDbEntity
  8
0
  0
INSERT
  5
C4
330
17
100
AcDbEntity
  8
0
100
AcDbBlockReference
 66
1
  2
FLAG
 10
-96.0
 20
71.0
 30
0.0
 41
2.2740843566469797
 42
2.2740843566469797
 43
2.2740843566469797
 50
15.0
  0
ATTRIB
  5
C6
330
17
100
AcDbEntity
  8
0
 62
3
100
AcDbText
 10
-92.41081661229711
 20
70.7845661068823
 30
0.0
 40
1.1370421783234899
  1
P(29)
 50
15.000000000000002
 11
-92.41081661229711
 21
70.7845661068823
 31
0.0
100
AcDbAttribute
  2
NAME
 70
0
  0
ATTRIB
  5
C7
330
17
100
AcDbEntity
  8
0
 62
4
100
AcDbText
 10
-92.11652844146214
 20
69.68626770125965
 30
0.0
 40
0.5685210891617449
  1
= -96.000
 50
15.000000000000002
 11
-92.11652844146214
 21
69.68626770125965
 31
0.0
100
AcDbAttribute
  2
XPOS
 70
0
  0
ATTRIB
  5
C8
330
17
100
AcDbEntity
  8
0
 62
4
100
AcDbText
 10
-91.82224027062716
 20
68.58796929563701
 30
0.0
 40
0.5685210891617449
  1
= 71.000
 50
15.000000000000002
 11
-91.82224027062716
 21
68.58796929563701
 31
0.0
100
AcDbAttribute
  2
YPOS
 70
0
  0
SEQEND
  5
C5
330
C4
100
AcDbEntity
  8
0
  0
INSERT
  5
C9
330
17
100
AcDbEntity
  8
0
100
AcDbBlockReference
 66
1
  2
FLAG
 10
34.0
 20
-66.0
 30
0.0
 41
1.50202547324627
 42
1.50202547324627
 43
1.50202547324627
 50
15.0
  0
ATTRIB
  5
CB
330
17
100
AcDbEntity
  8
0
 62
3
100
AcDbText
 10
36.37064419388158
 20
-66.14229340011842
 30
0.0
 40
0.751012736623135
  1
P(30)
 50
14.999999999999998
 11
36.37064419388158
 21
-66.14229340011842
 31
0.0
100
AcDbAttribute
  2
NAME
 70
0
  0
ATTRIB
  5
CC
330
17
100
AcDbEntity
  8
0
 62
4
100
AcDbText
 10
36.56502059323421
 20
-66.86771599829474
 30
0.0
 40
0.3755063683115675
  1
= 34.000
 50
14.999999999999998
 11
36.56502059323421
 21
-66.86771599829474
 31
0.0
100
AcDbAttribute
  2
XPOS
 70
0
  0
ATTRIB
  5
CD
330
17
100
AcDbEntity
  8
0
 62
4
100
AcDbText
 10
36.759396992586844
 20
-67.59313859647105
 30
0.0
 40
0.3755063683115675
  1
= -66.000
 50
14.999999999999998
 11
36.759396992586844
 21
-67.59313859647105
 31
0.0
100
AcDbAttribute
  2
YPOS
 70
0
  0
SEQEND
  5
CA
330
C9
100
AcDbEntity
  8
0
  0
INSERT
  5
CE
330
17
100
AcDbEntity
  8
0
100
AcDbBlockReference
 66
1
  2
FLAG
 10
-78.0
 20
40.0
 30
0.0
 41
1.5979129629391857
 42
1.5979129629391857
 43
1.5979129629391857
 50
15.0
  0
ATTRIB
  5
D0
330
17
100
AcDbEntity
  8
0
 62
3
100
AcDbText
 10
-75.47801674779
 20
39.84862276130477
 30
0.0
 40
0.798956481469593
  1
P(31)
 50
14.999999999999998
 11
-75.47801674779
 21
39.84862276130477
 31
0.0
100
AcDbAttribute
  2
NAME
 70
0
  0
ATTRIB
  5
D1
330
17
100
AcDbEntity
  8
0
 62
4
100
AcDbText
 10
-75.27123159417756
 20
39.07689006177225
 30
0.0
 40
0.3994782407347965
  1
= -78.000
 50
14.999999999999998
 11
-75.27123159417756
 21
39.07689006177225
 31
0.0
100
AcDbAttribute
  2
XPOS
 70
0
  0
ATTRIB
  5
D2
330
17
100
AcDbEntity
  8
0
 62
4
100
AcDbText
 10
-75.06444644056513
 20
38.30515736223972
 30
0.0
 40
0.3994782407347965
  1
= 40.000
 50
14.999999999999998
 11
-75.06444644056513
 21
38.30515736223972
 31
0.0
100
AcDbAttribute
  2
YPOS
 70
0
  0
SEQEND
  5
CF
330
CE
100
AcDbEntity
  8
0
  0
INSERT
  5
D3
330
17
100
AcDbEntity
  8
0
100
AcDbBlockReference
 66
1
  2
FLAG
 10
13.0
 20
2.0
 30
0.0
 41
1.709831626703108
 42
1.709831626703108
 43
1.709831626703108
 50
15.0
  0
ATTRIB
  5
D5
330
17
100
AcDbEntity
  8
0
 62
3
100
AcDbText
 10
15.698624284712267
 20
1.8380202199448914
 30
0.0
 40
0.854915813351554
  1
P(32)
 50
14.999999999999998
 11
15.698624284712267
 21
1.8380202199448914
 31
0.0
100
AcDbAttribute
  2
NAME
 70
0
  0
ATTRIB
  5
D6
330
17
100
AcDbEntity
  8
0
 62
4
100
AcDbText
 10
15.919892779166961
 20
1.0122349565257007
 30
0.0
 40
0.427457906675777
  1
= 13.000
 50
14.999999999999998
 11
15.919892779166961
 21
1.0122349565257007
 31
0.0
100
AcDbAttribute
  2
XPOS
 70
0
  0
ATTRIB
  5
D7
330
17
100
AcDbEntity
  8
0
 62
4
100
AcDbText
 10
16.141161273621655
 20
0.18644969310651005
 30
0.0
 40
0.427457906675777
  1
= 2.000
 50
14.999999999999998
 11
16.141161273621655
 21
0.18644969310651005
 31
0.0
100
AcDbAttribute
  2
YPOS
 70
0
  0
SEQEND
  5
D4
330
D3
100
AcDbEntity
  8
0
  0
INSERT
  5
D8
330
17
100
AcDbEntity
  8
0
100
AcDbBlockReference
 66
1
  2
FLAG
 10
79.0
 20
24.0
 30
0.0
 41
1.8203864210557508
 42
1.8203864210557508
 43
1.8203864210557508
 50
15.0
  0
ATTRIB
  5
DA
330
17
100
AcDbEntity
  8
0
 62
3
100
AcDbText
 10
81.87311272449314
 20
23.82754688386103
 30
0.0
 40
0.9101932105278754
  1
P(33)
 50
14.999999999999998
 11
81.87311272449314
 21
23.82754688386103
 31
0.0
100
AcDbAttribute
  2
NAME
 70
0
  0
ATTRIB
  5
DB
330
17
100
AcDbEntity
  8
0
 62
4
100
AcDbText
 10
82.10868806210075
 20
22.94836775489919
 30
0.0
 40
0.4550966052639377
  1
= 79.000
 50
14.999999999999998
 11
82.10868806210075
 21
22.94836775489919
 31
0.0
100
AcDbAttribute
  2
XPOS
 70
0
  0
ATTRIB
  5
DC
330
17
100
AcDbEntity
  8
0
 62
4
100
AcDbText
 10
82.34426339970838
 20
22.069188625937354
 30
0.0
 40
0.4550966052639377
  1
= 24.000
 50
14.999999999999998
 11
82.34426339970838
 21
22.069188625937354
 31
0.0
100
AcDbAttribute
  2
YPOS
 70
0
  0
SEQEND
  5
D9
330
D8
100
AcDbEntity
  8
0
  0
INSERT
  5
DD
330
17
100
AcDbEntity
  8
0
100
AcDbBlockReference
 66
1
  2
FLAG
 10
-95.0
 20
-75.0
 30
0.0
 41
0.5335840359742112
 42
0.5335840359742112
 43
0.5335840359742112
 50
15.0
  0
ATTRIB
  5
DF
330
17
100
AcDbEntity
  8
0
 62
3
100
AcDbText
 10
-94.15784524339904
 20
-75.05054873441233
 30
0.0
 40
0.2667920179871056
  1
P(34)
 50
14.999999999999998
 11
-94.15784524339904
 21
-75.05054873441233
 31
0.0
100
AcDbAttribute
  2
NAME
 70
0
  0
ATTRIB
  5
E0
330
17
100
AcDbEntity
  8
0
 62
4
100
AcDbText
 10
-94.08879438806264
 20
-75.30825003483386
 30
0.0
 40
0.1333960089935528
  1
= -95.000
 50
14.999999999999998
 11
-94.08879438806264
 21
-75.30825003483386
 31
0.0
100
AcDbAttribute
  2
XPOS
 70
0
  0
ATTRIB
  5
E1
330
17
100
AcDbEntity
  8
0
 62
4
100
AcDbText
 10
-94.01974353272624
 20
-75.56595133525538
 30
0.0
 40
0.1333960089935528
  1
= -75.000
 50
14.999999999999998
 11
-94.01974353272624
 21
-75.56595133525538
 31
0.0
100
AcDbAttribute
  2
YPOS
 70
0
  0
SEQEND
  5
DE
330
DD
100
AcDbEntity
  8
0
  0
INSERT
  5
E2
330
17
100
AcDbEntity
  8
0
100
AcDbBlockReference
 66
1
  2
FLAG
 10
78.0
 20
-25.0
 30
0.0
 41
2.012204409342437
 42
2.012204409342437
 43
2.012204409342437
 50
15.0
  0
ATTRIB
  5
E4
330
17
100
AcDbEntity
  8
0
 62
3
100
AcDbText
 10
81.17585872202345
 20
-25.190624867712664
 30
0.0
 40
1.0061022046712185
  1
P(35)
 50
14.999999999999996
 11
81.17585872202345
 21
-25.190624867712664
 31
0.0
100
AcDbAttribute
  2
NAME
 70
0
  0
ATTRIB
  5
E5
330
17
100
AcDbEntity
  8
0
 62
4
100
AcDbText
 10
81.436257133912
 20
-26.162444971090963
 30
0.0
 40
0.5030511023356092
  1
= 78.000
 50
14.999999999999996
 11
81.436257133912
 21
-26.162444971090963
 31
0.0
100
AcDbAttribute
  2
XPOS
 70
0
  0
ATTRIB
  5
E6
330
17
100
AcDbEntity
  8
0
 62
4
100
AcDbText
 10
81.69665554580054
 20
-27.134265074469262
 30
0.0
 40
0.5030511023356092
  1
= -25.000
 50
14.999999999999996
 11
81.69665554580054
 21
-27.134265074469262
 31
0.0
100
AcDbAttribute
  2
YPOS
 70
0
  0
SEQEND
  5
E3
330
E2
100
AcDbEntity
  8
0
  0
INSERT
  5
E7
330
17
100
AcDbEntity
  8
0
100
AcDbBlockReference
 66
1
  2
FLAG
 10
-55.0
 20
-26.0
 30
0.0
 41
1.4104612457105397
 42
1.4104612457105397
 43
1.4104612457105397
 50
15.0
  0
ATTRIB
  5
E9
330
17
100
AcDbEntity
  8
0
 62
3
100
AcDbText
 10
-52.77387146729805
 20
-26.13361912295246
 30
0.0
 40
0.7052306228552698
  1
P(36)
 50
14.999999999999998
 11
-52.77387146729805
 21
-26.13361912295246
 31
0.0
100
AcDbAttribute
  2
NAME
 70
0
  0
ATTRIB
  5
EA
330
17
100
AcDbEntity
  8
0
 62
4
100
AcDbText
 10
-52.591344350913594
 20
-26.814819595058292
 30
0.0
 40
0.3526153114276349
  1
= -55.000
 50
14.999999999999998
 11
-52.591344350913594
 21
-26.814819595058292
 31
0.0
100
AcDbAttribute
  2
XPOS
 70
0
  0
ATTRIB
  5
EB
330
17
100
AcDbEntity
  8
0
 62
4
100
AcDbText
 10
-52.40881723452914
 20
-27.49602006716412
 30
0.0
 40
0.3526153114276349
  1
= -26.000
 50
14.999999999999998
 11
-52.40881723452914
 21
-27.49602006716412
 31
0.0
100
AcDbAttribute
  2
YPOS
 70
0
  0
SEQEND
  5
E8
330
E7
100
AcDbEntity
  8
0
  0
INSERT
  5
EC
330
17
100
AcDbEntity
  8
0
100
AcDbBlockReference
 66
1
  2
FLAG
 10
12.0
 20
12.0
 30
0.0
 41
0.725462619860826
 42
0.725462619860826
 43
0.725462619860826
 50
15.0
  0
ATTRIB
  5
EE
330
17
100
AcDbEntity
  8
0
 62
3
100
AcDbText
 10
13.144996392061326
 20
11.931273773529478
 30
0.0
 40
0.362731309930413
  1
P(37)
 50
14.999999999999998
 11
13.144996392061326
 21
11.931273773529478
 31
0.0
100
AcDbAttribute
  2
NAME
 70
0
  0
ATTRIB
  5
EF
330
17
100
AcDbEntity
  8
0
 62
4
100
AcDbText
 10
13.238878163326303
 20
11.580902233264027
 30
0.0
 40
0.1813656549652065
  1
= 12.000
 50
14.999999999999998
 11
13.238878163326303
 21
11.580902233264027
 31
0.0
100
AcDbAttribute
  2
XPOS
 70
0
  0
ATTRIB
  5
F0
330
17
100
AcDbEntity
  8
0
 62
4
100
AcDbText
 10
13.332759934591278
 20
11.230530692998578
 30
0.0
 40
0.1813656549652065
  1
= 12.000
 50
14.999999999999998
 11
13.332759934591278
 21
11.230530692998578
 31
0.0
100
AcDbAttribute
  2
YPOS
 70
0
  0
SEQEND
  5
ED
330
EC
100
AcDbEntity
  8
0
  0
INSERT
  5
F1
330
17
100
AcDbEntity
  8
0
100
AcDbBlockReference
 66
1
  2
FLAG
 10
44.0
 20
-18.0
 30
0.0
 41
1.8254688235099925
 42
1.8254688235099925
 43
1.8254688235099925
 50
15.0
  0
ATTRIB
  5
F3
330
17
100
AcDbEntity
  8
0
 62
3
100
AcDbText
 10
46.88113427145338
 20
-18.172934594208993
 30
0.0
 40
0.9127344117549963
  1
P(38)
 50
14.999999999999998
 11
46.88113427145338
 21
-18.172934594208993
 31
0.0
100
AcDbAttribute
  2
NAME
 70
0
  0
ATTRIB
  5
F4
330
17
100
AcDbEntity
  8
0
 62
4
100
AcDbText
 10
47.117367320336015
 20
-19.054568335065905
 30
0.0
 40
0.4563672058774981
  1
= 44.000
 50
14.999999999999998
 11
47.117367320336015
 21
-19.054568335065905
 31
0.0
100
AcDbAttribute
  2
XPOS
 70
0
  0
ATTRIB
  5
F5
330
17
100
AcDbEntity
  8
0
 62
4
100
AcDbText
 10
47.353600369218654
 20
-19.936202075922818
 30
0.0
 40
0.4563672058774981
  1
= -18.000
 50
14.999999999999998
 11
47.353600369218654
 21
-19.936202075922818
 31
0.0
100
AcDbAttribute
  2
YPOS
 70
0
  0
SEQEND
  5
F2
330
F1
100
AcDbEntity
  8
0
  0
INSERT
  5
F6
330
17
100
AcDbEntity
  8
0
100
AcDbBlockReference
 66
1
  2
FLAG
 10
15.0
 20
28.0
 30
0.0
 41
2.2170225253969162
 42
2.2170225253969162
 43
2.2170225253969162
 50
15.0
  0
ATTRIB
  5
F8
330
17
100
AcDbEntity
  8
0
 62
3
100
AcDbText
 10
18.499122798615243
 20
27.789971822118268
 30
0.0
 40
1.1085112626984581
  1
P(39)
 50
15.000000000000002
 11
18.499122798615243
 21
27.789971822118268
 31
0.0
100
AcDbAttribute
  2
NAME
 70
0
  0
ATTRIB
  5
F9
330
17
100
AcDbEntity
  8
0
 62
4
100
AcDbText
 10
18.78602662511225
 20
26.71923216474552
 30
0.0
 40
0.5542556313492291
  1
= 15.000
 50
15.000000000000002
 11
18.78602662511225
 21
26.71923216474552
 31
0.0
100
AcDbAttribute
  2
XPOS
 70
0
  0
ATTRIB
  5
FA
330
17
100
AcDbEntity
  8
0
 62
4
100
AcDbText
 10
19.072930451609253
 20
25.648492507372772
 30
0.0
 40
0.5542556313492291
  1
= 28.000
 50
15.000000000000002
 11
19.072930451609253
 21
25.648492507372772
 31
0.0
100
AcDbAttribute
  2
YPOS
 70
0
  0
SEQEND
  5
F7
330
F6
100
AcDbEntity
  8
0
  0
INSERT
  5
FB
330
17
100
AcDbEntity
  8
0
100
AcDbBlockReference
 66
1
  2
FLAG
 10
32.0
 20
36.0
 30
0.0
 41
2.2925394003249338
 42
2.2925394003249338
 43
2.2925394003249338
 50
15.0
  0
ATTRIB
  5
FD
330
17
100
AcDbEntity
  8
0
 62
3
100
AcDbText
 10
35.618310951064664
 20
35.78281778039845
 30
0.0
 40
1.1462697001624669
  1
P(40)
 50
14.999999999999998
 11
35.618310951064664
 21
35.78281778039845
 31
0.0
100
AcDbAttribute
  2
NAME
 70
0
  0
ATTRIB
  5
FE
330
17
100
AcDbEntity
  8
0
 62
4
100
AcDbText
 10
35.91498738029067
 20
34.6756062731189
 30
0.0
 40
0.5731348500812334
  1
= 32.000
 50
14.999999999999998
 11
35.91498738029067
 21
34.6756062731189
 31
0.0
100
AcDbAttribute
  2
XPOS
 70
0
  0
ATTRIB
  5
FF
330
17
100
AcDbEntity
  8
0
 62
4
100
AcDbText
 10
36.211663809516665
 20
33.568394765839344
 30
0.0
 40
0.5731348500812334
  1
= 36.000
 50
14.999999999999998
 11
36.211663809516665
 21
33.568394765839344
 31
0.0
100
AcDbAttribute
  2
YPOS
 70
0
  0
SEQEND
  5
FC
330
FB
100
AcDbEntity
  8
0
  0
INSERT
  5
100
330
17
100
AcDbEntity
  8
0
100
AcDbBlockReference
 66
1
  2
FLAG
 10
37.0
 20
1.0
 30
0.0
 41
1.038703062216744
 42
1.038703062216744
 43
1.038703062216744
 50
15.0
  0
ATTRIB
  5
102
330
17
100
AcDbEntity
  8
0
 62
3
100
AcDbText
 10
38.63938323781504
 20
0.9015991452416559
 30
0.0
 40
0.519351531108372
  1
P(41)
 50
14.999999999999998
 11
38.63938323781504
 21
0.9015991452416559
 31
0.0
100
AcDbAttribute
  2
NAME
 70
0
  0
ATTRIB
  5
103
330
17
100
AcDbEntity
  8
0
 62
4
100
AcDbText
 10
38.773801305169044
 20
0.3999440884213088
 30
0.0
 40
0.259675765554186
  1
= 37.000
 50
14.999999999999998
 11
38.773801305169044
 21
0.3999440884213088
 31
0.0
100
AcDbAttribute
  2
XPOS
 70
0
  0
ATTRIB
  5
104
330
17
100
AcDbEntity
  8
0
 62
4
100
AcDbText
 10
38.90821937252304
 20
-0.10171096839903804
 30
0.0
 40
0.259675765554186
  1
= 1.000
 50
14.999999999999998
 11
38.90821937252304
 21
-0.10171096839903804
 31
0.0
100
AcDbAttribute
  2
YPOS
 70
0
  0
SEQEND
  5
101
330
100
100
AcDbEntity
  8
0
  0
INSERT
  5
105
330
17
100
AcDbEntity
  8
0
100
AcDbBlockReference
 66
1
  2
FLAG
 10
-29.0
 20
-52.0
 30
0.0
 41
2.280246696971842
 42
2.280246696971842
 43
2.280246696971842
 50
15.0
  0
ATTRIB
  5
107
330
17
100
AcDbEntity
  8
0
 62
3
100
AcDbText
 10
-25.401090601272617
 20
-52.216017678395076
 30
0.0
 40
1.140123348485921
  1
P(42)
 50
15.000000000000002
 11
-25.401090601272617
 21
-52.216017678395076
 31
0.0
100
AcDbAttribute
  2
NAME
 70
0
  0
ATTRIB
  5
108
330
17
100
AcDbEntity
  8
0
 62
4
100
AcDbText
 10
-25.106004964918405
 20
-53.3172922658528
 30
0.0
 40
0.5700616742429605
  1
= -29.000
 50
15.000000000000002
 11
-25.106004964918405
 21
-53.3172922658528
 31
0.0
100
AcDbAttribute
  2
XPOS
 70
0
  0
ATTRIB
  5
109
330
17
100
AcDbEntity
  8
0
 62
4
100
AcDbText
 10
-24.81091932856419
 20
-54.41856685331052
 30
0.0
 40
0.5700616742429605
  1
= -52.000
 50
15.000000000000002
 11
-24.81091932856419
 21
-54.41856685331052
 31
0.0
100
AcDbAttribute
  2
YPOS
 70
0
  0
SEQEND
  5
106
330
105
100
AcDbEntity
  8
0
  0
INSERT
  5
10A
330
17
100
AcDbEntity
  8
0
100
AcDbBlockReference
 66
1
  2
FLAG
 10
100.0
 20
78.0
 30
0.0
 41
1.6899747483230607
 42
1.6899747483230607
 43
1.6899747483230607
 50
15.0
  0
ATTRIB
  5
10C
330
17
100
AcDbEntity
  8
0
 62
3
100
AcDbText
 10
102.6672842080766
 20
77.83990134832172
 30
0.0
 40
0.8449873741615305
  1
P(43)
 50
14.999999999999998
 11
102.6672842080766
 21
77.83990134832172
 31
0.0
100
AcDbAttribute
  2
NAME
 70
0
  0
ATTRIB
  5
10D
330
17
100
AcDbEntity
  8
0
 62
4
100
AcDbText
 10
102.88598303338077
 20
77.02370622073092
 30
0.0
 40
0.42249368708076523
  1
= 100.000
 50
14.999999999999998
 11
102.88598303338077
 21
77.02370622073092
 31
0.0
100
AcDbAttribute
  2
XPOS
 70
0
  0
ATTRIB
  5
10E
330
17
100
AcDbEntity
  8
0
 62
4
100
AcDbText
 10
103.10468185868494
 20
76.2075110931401
 30
0.0
 40
0.42249368708076523
  1
= 78.000
 50
14.999999999999998
 11
103.10468185868494
 21
76.2075110931401
 31
0.0
100
AcDbAttribute
  2
YPOS
 70
0
  0
SEQEND
  5
10B
330
10A
100
AcDbEntity
  8
0
  0
INSERT
  5
10F
330
17
100
AcDbEntity
  8
0
100
AcDbBlockReference
 66
1
  2
FLAG
 10
52.0
 20
28.0
 30
0.0
 41
0.5738965568889154
 42
0.5738965568889154
 43
0.5738965568889154
 50
15.0
  0
ATTRIB
  5
111
330
17
100
AcDbEntity
  8
0
 62
3
100
AcDbText
 10
52.905779938296874
 20
27.94563228530373
 30
0.0
 40
0.2869482784444577
  1
P(44)
 50
15.000000000000002
 11
52.905779938296874
 21
27.94563228530373
 31
0.0
100
AcDbAttribute
  2
NAME
 70
0
  0
ATTRIB
  5
112
330
17
100
AcDbEntity
  8
0
 62
4
100
AcDbText
 10
52.98004761771768
 20
27.668461532345045
 30
0.0
 40
0.14347413922222885
  1
= 52.000
 50
15.000000000000002
 11
52.98004761771768
 21
27.668461532345045
 31
0.0
100
AcDbAttribute
  2
XPOS
 70
0
  0
ATTRIB
  5
113
330
17
100
AcDbEntity
  8
0
 62
4
100
AcDbText
 10
53.05431529713849
 20
27.391290779386356
 30
0.0
 40
0.14347413922222885
  1
= 28.000
 50
15.000000000000002
 11
53.05431529713849
 21
27.391290779386356
 31
0.0
100
AcDbAttribute
  2
YPOS
 70
0
  0
SEQEND
  5
110
330
10F
100
AcDbEntity
  8
0
  0
INSERT
  5
114
330
17
100
AcDbEntity
  8
0
100
AcDbBlockReference
 66
1
  2
FLAG
 10
63.0
 20
19.0
 30
0.0
 41
0.6713486519393377
 42
0.6713486519393377
 43
0.6713486519393377
 50
15.0
  0
ATTRIB
  5
116
330
17
100
AcDbEntity
  8
0
 62
3
100
AcDbText
 10
64.05958841054174
 20
18.936400224862428
 30
0.0
 40
0.3356743259696689
  1
P(45)
 50
14.999999999999996
 11
64.05958841054174
 21
18.936400224862428
 31
0.0
100
AcDbAttribute
  2
NAME
 70
0
  0
ATTRIB
  5
117
330
17
100
AcDbEntity
  8
0
 62
4
100
AcDbText
 10
64.14646731905464
 20
18.61216372418615
 30
0.0
 40
0.16783716298483445
  1
= 63.000
 50
14.999999999999996
 11
64.14646731905464
 21
18.61216372418615
 31
0.0
100
AcDbAttribute
  2
XPOS
 70
0
  0
ATTRIB
  5
118
330
17
100
AcDbEntity
  8
0
 62
4
100
AcDbText
 10
64.23334622756754
 20
18.28792722350987
 30
0.0
 40
0.16783716298483445
  1
= 19.000
 50
14.999999999999996
 11
64.23334622756754
 21
18.28792722350987
 31
0.0
100
AcDbAttribute
  2
YPOS
 70
0
  0
SEQEND
  5
115
330
114
100
AcDbEntity
  8
0
  0
INSERT
  5
119
330
17
100
AcDbEntity
  8
0
100
AcDbBlockReference
 66
1
  2
FLAG
 10
-29.0
 20
79.0
 30
0.0
 41
0.9343104497229044
 42
0.9343104497229044
 43
0.9343104497229044
 50
15.0
  0
ATTRIB
  5
11B
330
17
100
AcDbEntity
  8
0
 62
3
100
AcDbText
 10
-27.525379441048045
 20
78.91148871106033
 30
0.0
 40
0.4671552248614522
  1
P(46)
 50
14.999999999999998
 11
-27.525379441048045
 21
78.91148871106033
 31
0.0
100
AcDbAttribute
  2
NAME
 70
0
  0
ATTRIB
  5
11C
330
17
100
AcDbEntity
  8
0
 62
4
100
AcDbText
 10
-27.40447077183475
 20
78.46025141448078
 30
0.0
 40
0.2335776124307261
  1
= -29.000
 50
14.999999999999998
 11
-27.40447077183475
 21
78.46025141448078
 31
0.0
100
AcDbAttribute
  2
XPOS
 70
0
  0
ATTRIB
  5
11D
330
17
100
AcDbEntity
  8
0
 62
4
100
AcDbText
 10
-27.283562102621456
 20
78.00901411790122
 30
0.0
 40
0.2335776124307261
  1
= 79.000
 50
14.999999999999998
 11
-27.283562102621456
 21
78.00901411790122
 31
0.0
100
AcDbAttribute
  2
YPOS
 70
0
  0
SEQEND
  5
11A
330
119
100
AcDbEntity
  8
0
  0
INSERT
  5
11E
330
17
100
AcDbEntity
  8
0
100
AcDbBlockReference
 66
1
  2
FLAG
 10
21.0
 20
64.0
 30
0.0
 41
1.432214363100798
 42
1.432214363100798
 43
1.432214363100798
 50
15.0
  0
ATTRIB
  5
120
330
17
100
AcDbEntity
  8
0
 62
3
100
AcDbText
 10
23.260461440071747
 20
63.86432010970919
 30
0.0
 40
0.716107181550399
  1
P(47)
 50
14.999999999999998
 11
23.260461440071747
 21
63.86432010970919
 31
0.0
100
AcDbAttribute
  2
NAME
 70
0
  0
ATTRIB
  5
121
330
17
100
AcDbEntity
  8
0
 62
4
100
AcDbText
 10
23.44580361699168
 20
63.172613688658586
 30
0.0
 40
0.3580535907751995
  1
= 21.000
 50
14.999999999999998
 11
23.44580361699168
 21
63.172613688658586
 31
0.0
100
AcDbAttribute
  2
XPOS
 70
0
  0
ATTRIB
  5
122
330
17
100
AcDbEntity
  8
0
 62
4
100
AcDbText
 10
23.63114579391161
 20
62.48090726760798
 30
0.0
 40
0.3580535907751995
  1
= 64.000
 50
14.999999999999998
 11
23.63114579391161
 21
62.48090726760798
 31
0.0
100
AcDbAttribute
  2
YPOS
 70
0
  0
SEQEND
  5
11F
330
11E
100
AcDbEntity
  8
0
  0
INSERT
  5
123
330
17
100
AcDbEntity
  8
0
100
AcDbBlockReference
 66
1
  2
FLAG
 10
67.0
 20
1.0
 30
0.0
 41
2.1632382335142504
 42
2.1632382335142504
 43
2.1632382335142504
 50
15.0
  0
ATTRIB
  5
125
330
17
100
AcDbEntity
  8
0
 62
3
100
AcDbText
 10
70.41423514421474
 20
0.7950670418074548
 30
0.0
 40
1.0816191167571252
  1
P(48)
 50
14.999999999999998
 11
70.41423514421474
 21
0.7950670418074548
 31
0.0
100
AcDbAttribute
  2
NAME
 70
0
  0
ATTRIB
  5
126
330
17
100
AcDbEntity
  8
0
 62
4
100
AcDbText
 10
70.69417877117846
 20
-0.24969679727622363
 30
0.0
 40
0.5408095583785626
  1
= 67.000
 50
14.999999999999998
 11
70.69417877117846
 21
-0.24969679727622363
 31
0.0
100
AcDbAttribute
  2
XPOS
 70
0
  0
ATTRIB
  5
127
330
17
100
AcDbEntity
  8
0
 62
4
100
AcDbText
 10
70.97412239814217
 20
-1.2944606363599016
 30
0.0
 40
0.5408095583785626
  1
= 1.000
 50
14.999999999999998
 11
70.97412239814217
 21
-1.2944606363599016
 31
0.0
100
AcDbAttribute
  2
YPOS
 70
0
  0
SEQEND
  5
124
330
123
100
AcDbEntity
  8
0
  0
INSERT
  5
128
330
17
100
AcDbEntity
  8
0
100
AcDbBlockReference
 66
1
  2
FLAG
 10
-76.0
 20
21.0
 30
0.0
 41
1.1299296750818126
 42
1.1299296750818126
 43
1.1299296750818126
 50
15.0
  0
ATTRIB
  5
12A
330
17
100
AcDbEntity
  8
0
 62
3
100
AcDbText
 10
-74.21663395765326
 20
20.892956851780546
 30
0.0
 40
0.5649648375409063
  1
P(49)
 50
14.999999999999998
 11
-74.21663395765326
 21
20.892956851780546
 31
0.0
100
AcDbAttribute
  2
NAME
 70
0
  0
ATTRIB
  5
12B
330
17
100
AcDbEntity
  8
0
 62
4
100
AcDbText
 10
-74.07041029788442
 20
20.347242724254578
 30
0.0
 40
0.28248241877045316
  1
= -76.000
 50
14.999999999999998
 11
-74.07041029788442
 21
20.347242724254578
 31
0.0
100
AcDbAttribute
  2
XPOS
 70
0
  0
ATTRIB
  5
12C
330
17
100
AcDbEntity
  8
0
 62
4
100
AcDbText
 10
-73.92418663811557
 20
19.801528596728605
 30
0.0
 40
0.28248241877045316
  1
= 21.000
 50
14.999999999999998
 11
-73.92418663811557
 21
19.801528596728605
 31
0.0
100
AcDbAttribute
  2
YPOS
 70
0
  0
SEQEND
  5
129
330
128
100
AcDbEntity
  8
0
  0
INSERT
  5
12D
330
17
100
AcDbEntity
  8
0
100
AcDbBlockReference
 66
1
  2
FLAG
 10
6.0
 20
-69.0
 30
0.0
 41
0.7176301980143276
 42
0.7176301980143276
 43
0.7176301980143276
 50
15.0
  0
ATTRIB
  5
12F
330
17
100
AcDbEntity
  8
0
 62
3
100
AcDbText
 10
7.132634494273866
 20
-69.06798422711329
 30
0.0
 40
0.3588150990071638
  1
P(50)
 50
14.999999999999998
 11
7.132634494273866
 21
-69.06798422711329
 31
0.0
100
AcDbAttribute
  2
NAME
 70
0
  0
ATTRIB
  5
130
330
17
100
AcDbEntity
  8
0
 62
4
100
AcDbText
 10
7.225502675567267
 20
-69.41457299810678
 30
0.0
 40
0.1794075495035819
  1
= 6.000
 50
14.999999999999998
 11
7.225502675567267
 21
-69.41457299810678
 31
0.0
100
AcDbAttribute
  2
XPOS
 70
0
  0
ATTRIB
  5
131
330
17
100
AcDbEntity
  8
0
 62
4
100
AcDbText
 10
7.318370856860668
 20
-69.76116176910027
 30
0.0
 40
0.1794075495035819
  1
= -69.000
 50
14.999999999999998
 11
7.318370856860668
 21
-69.76116176910027
 31
0.0
100
AcDbAttribute
  2
YPOS
 70
0
  0
SEQEND
  5
12E
330
12D
100
AcDbEntity
  8
0
  0
ENDSEC
  0
SECTION
  2
OBJECTS
  0
DICTIONARY
  5
A
330
0
100
AcDbDictionary
280
0
281
1
  3
ACAD_COLOR
350
B
  3
ACAD_GROUP
350
C
  3
ACAD_LAYOUT
350
D
  3
ACAD_MATERIAL
350
E
  3
ACAD_MLEADERSTYLE
350
F
  3
ACAD_MLINESTYLE
350
10
  3
ACAD_PLOTSETTINGS
350
11
  3
ACAD_PLOTSTYLENAME
350
12
  3
ACAD_SCALELIST
350
14
  3
ACAD_TABLESTYLE
350
15
  3
ACAD_VISUALSTYLE
350
16
  3
EZDXF_META
350
2D
  0
DICTIONARY
  5
B
330
A
100
AcDbDictionary
280
0
281
1
  0
DICTIONARY
  5
C
330
A
100
AcDbDictionary
280
0
281
1
  0
DICTIONARY
  5
D
330
A
100
AcDbDictionary
280
0
281
1
  3
Model
350
1A
  3
Layout1
350
1E
  0
DICTIONARY
  5
E
330
A
100
AcDbDictionary
280
0
281
1
  3
ByBlock
350
1F
  3
ByLayer
350
20
  3
Global
350
21
  0
DICTIONARY
  5
F
330
A
100
AcDbDictionary
280
0
281
1
  3
Standard
350
2C
  0
DICTIONARY
  5
10
330
A
100
AcDbDictionary
280
0
281
1
  3
Standard
350
22
  0
DICTIONARY
  5
11
330
A
100
AcDbDictionary
280
0
281
1
  0
ACDBDICTIONARYWDFLT
  5
12
330
A
100
AcDbDictionary
280
0
281
1
  3
Normal
350
13
100
AcDbDictionaryWithDefault
340
13
  0
ACDBPLACEHOLDER
  5
13
330
12
  0
DICTIONARY
  5
14
330
A
100
AcDbDictionary
280
0
281
1
  0
DICTIONARY
  5
15
330
A
100
AcDbDictionary
280
0
281
1
  0
DICTIONARY
  5
16
330
A
100
AcDbDictionary
280
0
281
1
  0
LAYOUT
  5
1A
330
D
100
AcDbPlotSettings
  1

  4
A3
  6

 40
7.5
 41
20.0
 42
7.5
 43
20.0
 44
420.0
 45
297.0
 46
0.0
 47
0.0
 48
0.0
 49
0.0
140
0.0
141
0.0
142
1.0
143
1.0
 70
1024
 72
1
 73
0
 74
5
  7

 75
16
 76
0
 77
2
 78
300
147
1.0
148
0.0
149
0.0
100
AcDbLayout
  1
Model
 70
1
 71
0
 10
0.0
 20
0.0
 11
420.0
 21
297.0
 12
0.0
 22
0.0
 32
0.0
 14
1e+20
 24
1e+20
 34
1e+20
 15
-1e+20
 25
-1e+20
 35
-1e+20
146
0.0
 13
0.0
 23
0.0
 33
0.0
 16
1.0
 26
0.0
 36
0.0
 17
0.0
 27
1.0
 37
0.0
 76
1
330
17
  0
LAYOUT
  5
1E
330
D
100
AcDbPlotSettings
  1

  4
A3
  6

 40
7.5
 41
20.0
 42
7.5
 43
20.0
 44
420.0
 45
297.0
 46
0.0
 47
0.0
 48
0.0
 49
0.0
140
0.0
141
0.0
142
1.0
143
1.0
 70
0
 72
1
 73
0
 74
5
  7

 75
16
 76
0
 77
2
 78
300
147
1.0
148
0.0
149
0.0
100
AcDbLayout
  1
Layout1
 70
1
 71
1
 10
0.0
 20
0.0
 11
420.0
 21
297.0
 12
0.0
 22
0.0
 32
0.0
 14
1e+20
 24
1e+20
 34
1e+20
 15
-1e+20
 25
-1e+20
 35
-1e+20
146
0.0
 13
0.0
 23
0.0
 33
0.0
 16
1.0
 26
0.0
 36
0.0
 17
0.0
 27
1.0
 37
0.0
 76
1
330
1B
  0
MATERIAL
  5
1F
102
{ACAD_REACTORS
330
E
102
}
330
E
100
AcDbMaterial
  1
ByBlock
  2

 70
0
 40
1.0
 71
1
 41
1.0
 91
-1023410177
 42
1.0
 72
1
  3

 73
1
 74
1
 75
1
 44
0.5
 73
0
 45
1.0
 46
1.0
 77
1
  4

 78
1
 79
1
170
1
 48
1.0
171
1
  6

172
1
173
1
174
1
140
1.0
141
1.0
175
1
  7

176
1
177
1
178
1
143
1.0
179
1
  8

270
1
271
1
272
1
145
1.0
146
1.0
273
1
  9

274
1
275
1
276
1
 42
1.0
 72
1
  3

 73
1
 74
1
 75
1
 94
63
  0
MATERIAL
  5
20
102
{ACAD_REACTORS
330
E
102
}
330
E
100
AcDbMaterial
  1
ByLayer
  2

 70
0
 40
1.0
 71
1
 41
1.0
 91
-1023410177
 42
1.0
 72
1
  3

 73
1
 74
1
 75
1
 44
0.5
 73
0
 45
1.0
 46
1.0
 77
1
  4

 78
1
 79
1
170
1
 48
1.0
171
1
  6

172
1
173
1
174
1
140
1.0
141
1.0
175
1
  7

176
1
177
1
178
1
143
1.0
179
1
  8

270
1
271
1
272
1
145
1.0
146
1.0
273
1
  9

274
1
275
1
276
1
 42
1.0
 72
1
  3

 73
1
 74
1
 75
1
 94
63
  0
MATERIAL
  5
21
102
{ACAD_REACTORS
330
E
102
}
330
E
100
AcDbMaterial
  1
Global
  2

 70
0
 40
1.0
 71
1
 41
1.0
 91
-1023410177
 42
1.0
 72
1
  3

 73
1
 74
1
 75
1
 44
0.5
 73
0
 45
1.0
 46
1.0
 77
1
  4

 78
1
 79
1
170
1
 48
1.0
171
1
  6

172
1
173
1
174
1
140
1.0
141
1.0
175
1
  7

176
1
177
1
178
1
143
1.0
179
1
  8

270
1
271
1
272
1
145
1.0
146
1.0
273
1
  9

274
1
275
1
276
1
 42
1.0
 72
1
  3

 73
1
 74
1
 75
1
 94
63
  0
MLINESTYLE
  5
22
102
{ACAD_REACTORS
330
10
102
}
330
10
100
AcDbMlineStyle
  2
Standard
 70
0
  3

 62
256
 51
90.0
 52
90.0
 71
2
 49
0.5
 62
256
  6
BYLAYER
 49
-0.5
 62
256
  6
BYLAYER
  0
MLEADERSTYLE
  5
2C
102
{ACAD_REACTORS
330
F
102
}
330
F
100
AcDbMLeaderStyle
179
2
170
2
171
1
172
0
 90
2
 40
0.0
 41
0.0
173
1
 91
-1056964608
 92
-2
290
1
 42
2.0
291
1
 43
8.0
  3
Standard
 44
4.0
300

342
29
174
1
175
1
176
0
178
1
 93
-1056964608
 45
4.0
292
0
297
0
 46
4.0
 94
-1056964608
 47
1.0
 49
1.0
140
1.0
294
1
141
0.0
177
0
142
1.0
295
0
296
0
143
3.75
271
0
272
9
273
9
  0
DICTIONARY
  5
2D
330
A
100
AcDbDictionary
280
1
281
1
  3
CREATED_BY_EZDXF
350
2E
  3
WRITTEN_BY_EZDXF
350
134
  0
DICTIONARYVAR
  5
2E
330
2D
100
DictionaryVariables
280
0
  1
1.3.5 @ 2025-03-31T18:31:40.912788+00:00
  0
DICTIONARYVAR
  5
134
330
2D
100
DictionaryVariables
280
0
  1
1.3.5 @ 2025-03-31T18:31:40.930788+00:00
  0
ENDSEC
  0
EOF
