  0
SECTION
  2
HEADER
  9
$ACADVER
  1
AC1024
  9
$ACADMAINTVER
 70
6
  9
$DWGCODEPAGE
  3
ANSI_1252
  9
$LASTSAVEDBY
  1
ezdxf
  9
$INSBASE
 10
0.0
 20
0.0
 30
0.0
  9
$EXTMIN
 10
1e+20
 20
1e+20
 30
1e+20
  9
$EXTMAX
 10
-1e+20
 20
-1e+20
 30
-1e+20
  9
$LIMMIN
 10
0.0
 20
0.0
  9
$LIMMAX
 10
420.0
 20
297.0
  9
$ORTHOMODE
 70
0
  9
$REGENMODE
 70
1
  9
$FILLMODE
 70
1
  9
$QTEXTMODE
 70
0
  9
$MIRRTEXT
 70
1
  9
$LTSCALE
 40
1.0
  9
$ATTMODE
 70
1
  9
$TEXTSIZE
 40
2.5
  9
$TRACEWID
 40
1.0
  9
$TEXTSTYLE
  7
Standard
  9
$CLAYER
  8
0
  9
$CELTYPE
  6
ByLayer
  9
$CECOLOR
 62
256
  9
$CELTSCALE
 40
1.0
  9
$DISPSILH
 70
0
  9
$DIMSCALE
 40
1.0
  9
$DIMASZ
 40
2.5
  9
$DIMEXO
 40
0.625
  9
$DIMDLI
 40
3.75
  9
$DIMRND
 40
0.0
  9
$DIMDLE
 40
0.0
  9
$DIMEXE
 40
1.25
  9
$DIMTP
 40
0.0
  9
$DIMTM
 40
0.0
  9
$DIMTXT
 40
2.5
  9
$DIMCEN
 40
2.5
  9
$DIMTSZ
 40
0.0
  9
$DIMTOL
 70
0
  9
$DIMLIM
 70
0
  9
$DIMTIH
 70
0
  9
$DIMTOH
 70
0
  9
$DIMSE1
 70
0
  9
$DIMSE2
 70
0
  9
$DIMTAD
 70
1
  9
$DIMZIN
 70
8
  9
$DIMBLK
  1

  9
$DIMASO
 70
1
  9
$DIMSHO
 70
1
  9
$DIMPOST
  1

  9
$DIMAPOST
  1

  9
$DIMALT
 70
0
  9
$DIMALTD
 70
3
  9
$DIMALTF
 40
0.03937007874
  9
$DIMLFAC
 40
1.0
  9
$DIMTOFL
 70
1
  9
$DIMTVP
 40
0.0
  9
$DIMTIX
 70
0
  9
$DIMSOXD
 70
0
  9
$DIMSAH
 70
0
  9
$DIMBLK1
  1

  9
$DIMBLK2
  1

  9
$DIMSTYLE
  2
ISO-25
  9
$DIMCLRD
 70
0
  9
$DIMCLRE
 70
0
  9
$DIMCLRT
 70
0
  9
$DIMTFAC
 40
1.0
  9
$DIMGAP
 40
0.625
  9
$DIMJUST
 70
0
  9
$DIMSD1
 70
0
  9
$DIMSD2
 70
0
  9
$DIMTOLJ
 70
0
  9
$DIMTZIN
 70
8
  9
$DIMALTZ
 70
0
  9
$DIMALTTZ
 70
0
  9
$DIMUPT
 70
0
  9
$DIMDEC
 70
2
  9
$DIMTDEC
 70
2
  9
$DIMALTU
 70
2
  9
$DIMALTTD
 70
3
  9
$DIMTXSTY
  7
Standard
  9
$DIMAUNIT
 70
0
  9
$DIMADEC
 70
0
  9
$DIMALTRND
 40
0.0
  9
$DIMAZIN
 70
0
  9
$DIMDSEP
 70
44
  9
$DIMATFIT
 70
3
  9
$DIMFRAC
 70
0
  9
$DIMLDRBLK
  1

  9
$DIMLUNIT
 70
2
  9
$DIMLWD
 70
-2
  9
$DIMLWE
 70
-2
  9
$DIMTMOVE
 70
0
  9
$DIMFXL
 40
1.0
  9
$DIMFXLON
 70
0
  9
$DIMJOGANG
 40
0.785398163397
  9
$DIMTFILL
 70
0
  9
$DIMTFILLCLR
 70
0
  9
$DIMARCSYM
 70
0
  9
$DIMLTYPE
  6

  9
$DIMLTEX1
  6

  9
$DIMLTEX2
  6

  9
$DIMTXTDIRECTION
 70
0
  9
$LUNITS
 70
2
  9
$LUPREC
 70
4
  9
$SKETCHINC
 40
1.0
  9
$FILLETRAD
 40
10.0
  9
$AUNITS
 70
0
  9
$AUPREC
 70
2
  9
$MENU
  1
.
  9
$ELEVATION
 40
0.0
  9
$PELEVATION
 40
0.0
  9
$THICKNESS
 40
0.0
  9
$LIMCHECK
 70
0
  9
$CHAMFERA
 40
0.0
  9
$CHAMFERB
 40
0.0
  9
$CHAMFERC
 40
0.0
  9
$CHAMFERD
 40
0.0
  9
$SKPOLY
 70
0
  9
$TDCREATE
 40
2460809.662164352
  9
$TDUCREATE
 40
2458532.153996898
  9
$TDUPDATE
 40
2460809.662164352
  9
$TDUUPDATE
 40
2458532.1544311
  9
$TDINDWG
 40
0.0
  9
$TDUSRTIMER
 40
0.0
  9
$USRTIMER
 70
1
  9
$ANGBASE
 50
0.0
  9
$ANGDIR
 70
0
  9
$PDMODE
 70
0
  9
$PDSIZE
 40
0.0
  9
$PLINEWID
 40
0.0
  9
$SPLFRAME
 70
0
  9
$SPLINETYPE
 70
6
  9
$SPLINESEGS
 70
8
  9
$HANDSEED
  5
132
  9
$SURFTAB1
 70
6
  9
$SURFTAB2
 70
6
  9
$SURFTYPE
 70
6
  9
$SURFU
 70
6
  9
$SURFV
 70
6
  9
$UCSBASE
  2

  9
$UCSNAME
  2

  9
$UCSORG
 10
0.0
 20
0.0
 30
0.0
  9
$UCSXDIR
 10
1.0
 20
0.0
 30
0.0
  9
$UCSYDIR
 10
0.0
 20
1.0
 30
0.0
  9
$UCSORTHOREF
  2

  9
$UCSORTHOVIEW
 70
0
  9
$UCSORGTOP
 10
0.0
 20
0.0
 30
0.0
  9
$UCSORGBOTTOM
 10
0.0
 20
0.0
 30
0.0
  9
$UCSORGLEFT
 10
0.0
 20
0.0
 30
0.0
  9
$UCSORGRIGHT
 10
0.0
 20
0.0
 30
0.0
  9
$UCSORGFRONT
 10
0.0
 20
0.0
 30
0.0
  9
$UCSORGBACK
 10
0.0
 20
0.0
 30
0.0
  9
$PUCSBASE
  2

  9
$PUCSNAME
  2

  9
$PUCSORG
 10
0.0
 20
0.0
 30
0.0
  9
$PUCSXDIR
 10
1.0
 20
0.0
 30
0.0
  9
$PUCSYDIR
 10
0.0
 20
1.0
 30
0.0
  9
$PUCSORTHOREF
  2

  9
$PUCSORTHOVIEW
 70
0
  9
$PUCSORGTOP
 10
0.0
 20
0.0
 30
0.0
  9
$PUCSORGBOTTOM
 10
0.0
 20
0.0
 30
0.0
  9
$PUCSORGLEFT
 10
0.0
 20
0.0
 30
0.0
  9
$PUCSORGRIGHT
 10
0.0
 20
0.0
 30
0.0
  9
$PUCSORGFRONT
 10
0.0
 20
0.0
 30
0.0
  9
$PUCSORGBACK
 10
0.0
 20
0.0
 30
0.0
  9
$USERI1
 70
0
  9
$USERI2
 70
0
  9
$USERI3
 70
0
  9
$USERI4
 70
0
  9
$USERI5
 70
0
  9
$USERR1
 40
0.0
  9
$USERR2
 40
0.0
  9
$USERR3
 40
0.0
  9
$USERR4
 40
0.0
  9
$USERR5
 40
0.0
  9
$WORLDVIEW
 70
1
  9
$SHADEDGE
 70
3
  9
$SHADEDIF
 70
70
  9
$TILEMODE
 70
1
  9
$MAXACTVP
 70
64
  9
$PINSBASE
 10
0.0
 20
0.0
 30
0.0
  9
$PLIMCHECK
 70
0
  9
$PEXTMIN
 10
1e+20
 20
1e+20
 30
1e+20
  9
$PEXTMAX
 10
-1e+20
 20
-1e+20
 30
-1e+20
  9
$PLIMMIN
 10
0.0
 20
0.0
  9
$PLIMMAX
 10
420.0
 20
297.0
  9
$UNITMODE
 70
0
  9
$VISRETAIN
 70
1
  9
$PLINEGEN
 70
0
  9
$PSLTSCALE
 70
1
  9
$TREEDEPTH
 70
3020
  9
$CMLSTYLE
  2
Standard
  9
$CMLJUST
 70
0
  9
$CMLSCALE
 40
20.0
  9
$PROXYGRAPHICS
 70
1
  9
$MEASUREMENT
 70
1
  9
$CELWEIGHT
370
-1
  9
$ENDCAPS
280
0
  9
$JOINSTYLE
280
0
  9
$LWDISPLAY
290
0
  9
$INSUNITS
 70
6
  9
$HYPERLINKBASE
  1

  9
$STYLESHEET
  1

  9
$XEDIT
290
1
  9
$CEPSNTYPE
380
0
  9
$PSTYLEMODE
290
1
  9
$FINGERPRINTGUID
  2
{2390AA7A-DB59-4FA2-8F8F-989F7A9147DA}
  9
$VERSIONGUID
  2
{243B636E-CDB9-43B4-A037-C02253AFB676}
  9
$EXTNAMES
290
1
  9
$PSVPSCALE
 40
0.0
  9
$OLESTARTUP
290
0
  9
$SORTENTS
280
127
  9
$INDEXCTL
280
0
  9
$HIDETEXT
280
1
  9
$XCLIPFRAME
280
1
  9
$HALOGAP
280
0
  9
$OBSCOLOR
 70
257
  9
$OBSLTYPE
280
0
  9
$INTERSECTIONDISPLAY
280
0
  9
$INTERSECTIONCOLOR
 70
257
  9
$DIMASSOC
280
2
  9
$PROJECTNAME
  1

  9
$CAMERADISPLAY
290
0
  9
$LENSLENGTH
 40
50.0
  9
$CAMERAHEIGHT
 40
0.0
  9
$STEPSPERSEC
 40
24.0
  9
$STEPSIZE
 40
100.0
  9
$3DDWFPREC
 40
2.0
  9
$PSOLWIDTH
 40
0.005
  9
$PSOLHEIGHT
 40
0.08
  9
$LOFTANG1
 40
1.570796326795
  9
$LOFTANG2
 40
1.570796326795
  9
$LOFTMAG1
 40
0.0
  9
$LOFTMAG2
 40
0.0
  9
$LOFTPARAM
 70
7
  9
$LOFTNORMALS
280
1
  9
$LATITUDE
 40
37.795
  9
$LONGITUDE
 40
-122.394
  9
$NORTHDIRECTION
 40
0.0
  9
$TIMEZONE
 70
-8000
  9
$LIGHTGLYPHDISPLAY
280
1
  9
$TILEMODELIGHTSYNCH
280
1
  9
$CMATERIAL
347
20
  9
$SOLIDHIST
280
0
  9
$SHOWHIST
280
1
  9
$DWFFRAME
280
2
  9
$DGNFRAME
280
2
  9
$REALWORLDSCALE
290
1
  9
$INTERFERECOLOR
 62
256
  9
$CSHADOW
280
0
  9
$SHADOWPLANELOCATION
 40
0.0
  0
ENDSEC
  0
SECTION
  2
CLASSES
  0
CLASS
  1
ACDBDICTIONARYWDFLT
  2
AcDbDictionaryWithDefault
  3
ObjectDBX Classes
 90
0
 91
0
280
0
281
0
  0
CLASS
  1
SUN
  2
AcDbSun
  3
SCENEOE
 90
1153
 91
0
280
0
281
0
  0
CLASS
  1
VISUALSTYLE
  2
AcDbVisualStyle
  3
ObjectDBX Classes
 90
4095
 91
0
280
0
281
0
  0
CLASS
  1
MATERIAL
  2
AcDbMaterial
  3
ObjectDBX Classes
 90
1153
 91
0
280
0
281
0
  0
CLASS
  1
SCALE
  2
AcDbScale
  3
ObjectDBX Classes
 90
1153
 91
0
280
0
281
0
  0
CLASS
  1
TABLESTYLE
  2
AcDbTableStyle
  3
ObjectDBX Classes
 90
4095
 91
0
280
0
281
0
  0
CLASS
  1
MLEADERSTYLE
  2
AcDbMLeaderStyle
  3
ACDB_MLEADERSTYLE_CLASS
 90
4095
 91
0
280
0
281
0
  0
CLASS
  1
DICTIONARYVAR
  2
AcDbDictionaryVar
  3
ObjectDBX Classes
 90
0
 91
0
280
0
281
0
  0
CLASS
  1
CELLSTYLEMAP
  2
AcDbCellStyleMap
  3
ObjectDBX Classes
 90
1152
 91
0
280
0
281
0
  0
CLASS
  1
MENTALRAYRENDERSETTINGS
  2
AcDbMentalRayRenderSettings
  3
SCENEOE
 90
1024
 91
0
280
0
281
0
  0
CLASS
  1
ACDBDETAILVIEWSTYLE
  2
AcDbDetailViewStyle
  3
ObjectDBX Classes
 90
1025
 91
0
280
0
281
0
  0
CLASS
  1
ACDBSECTIONVIEWSTYLE
  2
AcDbSectionViewStyle
  3
ObjectDBX Classes
 90
1025
 91
0
280
0
281
0
  0
CLASS
  1
RASTERVARIABLES
  2
AcDbRasterVariables
  3
ISM
 90
0
 91
0
280
0
281
0
  0
CLASS
  1
LAYOUT
  2
AcDbLayout
  3
ObjectDBX Classes
 90
0
 91
0
280
0
281
0
  0
CLASS
  1
ACDBPLACEHOLDER
  2
AcDbPlaceHolder
  3
ObjectDBX Classes
 90
0
 91
0
280
0
281
0
  0
ENDSEC
  0
SECTION
  2
TABLES
  0
TABLE
  2
VPORT
  5
8
330
0
100
AcDbSymbolTable
 70
1
  0
VPORT
  5
23
330
8
100
AcDbSymbolTableRecord
100
AcDbViewportTableRecord
  2
*Active
 70
0
 10
0.0
 20
0.0
 11
1.0
 21
1.0
 12
0.0
 22
0.0
 13
0.0
 23
0.0
 14
0.5
 24
0.5
 15
0.5
 25
0.5
 16
0.0
 26
0.0
 36
1.0
 17
0.0
 27
0.0
 37
0.0
 40
1000.0
 41
1.34
 42
50.0
 43
0.0
 44
0.0
 50
0.0
 51
0.0
 71
0
 72
1000
 73
1
 74
3
 75
0
 76
0
 77
0
 78
0
281
0
 65
0
146
0.0
  0
ENDTAB
  0
TABLE
  2
LTYPE
  5
2
330
0
100
AcDbSymbolTable
 70
3
  0
LTYPE
  5
24
330
2
100
AcDbSymbolTableRecord
100
AcDbLinetypeTableRecord
  2
ByBlock
 70
0
  3

 72
65
 73
0
 40
0.0
  0
LTYPE
  5
25
330
2
100
AcDbSymbolTableRecord
100
AcDbLinetypeTableRecord
  2
ByLayer
 70
0
  3

 72
65
 73
0
 40
0.0
  0
LTYPE
  5
26
330
2
100
AcDbSymbolTableRecord
100
AcDbLinetypeTableRecord
  2
Continuous
 70
0
  3

 72
65
 73
0
 40
0.0
  0
ENDTAB
  0
TABLE
  2
LAYER
  5
1
330
0
100
AcDbSymbolTable
 70
2
  0
LAYER
  5
27
330
1
100
AcDbSymbolTableRecord
100
AcDbLayerTableRecord
  2
0
 70
0
 62
7
  6
Continuous
370
-3
390
13
347
21
  0
LAYER
  5
28
330
1
100
AcDbSymbolTableRecord
100
AcDbLayerTableRecord
  2
Defpoints
 70
0
 62
7
  6
Continuous
290
0
370
-3
390
13
347
21
  0
ENDTAB
  0
TABLE
  2
STYLE
  5
5
330
0
100
AcDbSymbolTable
 70
1
  0
STYLE
  5
29
330
5
100
AcDbSymbolTableRecord
100
AcDbTextStyleTableRecord
  2
Standard
 70
0
 40
0.0
 41
1.0
 50
0.0
 71
0
 42
2.5
  3
txt
  4

  0
ENDTAB
  0
TABLE
  2
VIEW
  5
7
330
0
100
AcDbSymbolTable
 70
0
  0
ENDTAB
  0
TABLE
  2
UCS
  5
6
330
0
100
AcDbSymbolTable
 70
0
  0
ENDTAB
  0
TABLE
  2
APPID
  5
3
330
0
100
AcDbSymbolTable
 70
3
  0
APPID
  5
2A
330
3
100
AcDbSymbolTableRecord
100
AcDbRegAppTableRecord
  2
ACAD
 70
0
  0
APPID
  5
12F
330
3
100
AcDbSymbolTableRecord
100
AcDbRegAppTableRecord
  2
HATCHBACKGROUNDCOLOR
 70
0
  0
APPID
  5
130
330
3
100
AcDbSymbolTableRecord
100
AcDbRegAppTableRecord
  2
EZDXF
 70
0
  0
ENDTAB
  0
TABLE
  2
DIMSTYLE
  5
4
330
0
100
AcDbSymbolTable
 70
1
100
AcDbDimStyleTable
  0
DIMSTYLE
105
2B
330
4
100
AcDbSymbolTableRecord
100
AcDbDimStyleTableRecord
  2
Standard
 70
0
 40
1.0
 41
2.5
 42
0.625
 43
3.75
 44
1.25
 45
0.0
 46
0.0
 47
0.0
 48
0.0
 49
2.5
140
2.5
141
2.5
142
0.0
143
0.03937007874
144
1.0
145
0.0
146
1.0
147
0.625
148
0.0
 69
0
 70
0
 71
0
 72
0
 73
0
 74
0
 75
0
 76
0
 77
1
 78
8
 79
3
170
0
171
3
172
1
173
0
174
0
175
0
176
0
177
0
178
0
179
2
271
2
272
2
273
2
274
3
275
0
276
0
277
2
278
44
279
0
280
0
281
0
282
0
283
0
284
8
285
0
286
0
288
0
289
3
290
0
371
-2
372
-2
  0
ENDTAB
  0
TABLE
  2
BLOCK_RECORD
  5
9
330
0
100
AcDbSymbolTable
 70
3
  0
BLOCK_RECORD
  5
17
330
9
100
AcDbSymbolTableRecord
100
AcDbBlockTableRecord
  2
*Model_Space
340
1A
 70
0
280
1
281
0
  0
BLOCK_RECORD
  5
1B
330
9
100
AcDbSymbolTableRecord
100
AcDbBlockTableRecord
  2
*Paper_Space
340
1E
 70
0
280
1
281
0
  0
BLOCK_RECORD
  5
2F
330
9
100
AcDbSymbolTableRecord
100
AcDbBlockTableRecord
  2
FLAG
340
0
 70
0
280
1
281
0
  0
ENDTAB
  0
ENDSEC
  0
SECTION
  2
BLOCKS
  0
BLOCK
  5
18
330
17
100
AcDbEntity
  8
0
100
AcDbBlockBegin
  2
*Model_Space
 70
0
 10
0.0
 20
0.0
 30
0.0
  3
*Model_Space
  1

  0
ENDBLK
  5
19
330
17
100
AcDbEntity
  8
0
100
AcDbBlockEnd
  0
BLOCK
  5
1C
330
1B
100
AcDbEntity
  8
0
100
AcDbBlockBegin
  2
*Paper_Space
 70
0
 10
0.0
 20
0.0
 30
0.0
  3
*Paper_Space
  1

  0
ENDBLK
  5
1D
330
1B
100
AcDbEntity
  8
0
100
AcDbBlockEnd
  0
BLOCK
  5
30
330
2F
100
AcDbEntity
  8
0
100
AcDbBlockBegin
  2
FLAG
 70
2
 10
0.0
 20
0.0
 30
0.0
  3
FLAG
  1

  0
ATTDEF
  5
32
330
2F
100
AcDbEntity
  8
0
 62
3
100
AcDbText
 10
0.5
 20
-0.5
 30
0.0
 40
0.5
  1

100
AcDbAttributeDefinition
  3

  2
NAME
 70
0
  0
ATTDEF
  5
33
330
2F
100
AcDbEntity
  8
0
 62
4
100
AcDbText
 10
0.5
 20
-1.0
 30
0.0
 40
0.25
  1

100
AcDbAttributeDefinition
  3

  2
XPOS
 70
0
  0
ATTDEF
  5
34
330
2F
100
AcDbEntity
  8
0
 62
4
100
AcDbText
 10
0.5
 20
-1.5
 30
0.0
 40
0.25
  1

100
AcDbAttributeDefinition
  3

  2
YPOS
 70
0
  0
ENDBLK
  5
31
330
2F
100
AcDbEntity
  8
0
100
AcDbBlockEnd
  0
ENDSEC
  0
SECTION
  2
ENTITIES
  0
INSERT
  5
35
330
17
100
AcDbEntity
  8
0
100
AcDbBlockReference
 66
1
  2
FLAG
 10
20.332045344473194
 20
56.263750921545686
 30
0.0
 50
15.0
  0
ATTRIB
  5
37
330
17
100
AcDbEntity
  8
0
100
AcDbText
 10
0.0
 20
0.0
 30
0.0
 40
2.5
  1
P(1)
100
AcDbAttribute
  2
NAME
 70
0
  0
ATTRIB
  5
38
330
17
100
AcDbEntity
  8
0
100
AcDbText
 10
0.0
 20
0.0
 30
0.0
 40
2.5
  1
x = 20.332
100
AcDbAttribute
  2
XPOS
 70
0
  0
ATTRIB
  5
39
330
17
100
AcDbEntity
  8
0
100
AcDbText
 10
0.0
 20
0.0
 30
0.0
 40
2.5
  1
y = 56.264
100
AcDbAttribute
  2
YPOS
 70
0
  0
SEQEND
  5
36
330
35
100
AcDbEntity
  8
0
  0
INSERT
  5
3A
330
17
100
AcDbEntity
  8
0
100
AcDbBlockReference
 66
1
  2
FLAG
 10
23.983572624011828
 20
45.9370386378891
 30
0.0
 50
15.0
  0
ATTRIB
  5
3C
330
17
100
AcDbEntity
  8
0
100
AcDbText
 10
0.0
 20
0.0
 30
0.0
 40
2.5
  1
P(2)
100
AcDbAttribute
  2
NAME
 70
0
  0
ATTRIB
  5
3D
330
17
100
AcDbEntity
  8
0
100
AcDbText
 10
0.0
 20
0.0
 30
0.0
 40
2.5
  1
x = 23.984
100
AcDbAttribute
  2
XPOS
 70
0
  0
ATTRIB
  5
3E
330
17
100
AcDbEntity
  8
0
100
AcDbText
 10
0.0
 20
0.0
 30
0.0
 40
2.5
  1
y = 45.937
100
AcDbAttribute
  2
YPOS
 70
0
  0
SEQEND
  5
3B
330
3A
100
AcDbEntity
  8
0
  0
INSERT
  5
3F
330
17
100
AcDbEntity
  8
0
100
AcDbBlockReference
 66
1
  2
FLAG
 10
67.40701299209093
 20
57.15570583556941
 30
0.0
 50
15.0
  0
ATTRIB
  5
41
330
17
100
AcDbEntity
  8
0
100
AcDbText
 10
0.0
 20
0.0
 30
0.0
 40
2.5
  1
P(3)
100
AcDbAttribute
  2
NAME
 70
0
  0
ATTRIB
  5
42
330
17
100
AcDbEntity
  8
0
100
AcDbText
 10
0.0
 20
0.0
 30
0.0
 40
2.5
  1
x = 67.407
100
AcDbAttribute
  2
XPOS
 70
0
  0
ATTRIB
  5
43
330
17
100
AcDbEntity
  8
0
100
AcDbText
 10
0.0
 20
0.0
 30
0.0
 40
2.5
  1
y = 57.156
100
AcDbAttribute
  2
YPOS
 70
0
  0
SEQEND
  5
40
330
3F
100
AcDbEntity
  8
0
  0
INSERT
  5
44
330
17
100
AcDbEntity
  8
0
100
AcDbBlockReference
 66
1
  2
FLAG
 10
20.273007133381004
 20
74.35495133076444
 30
0.0
 50
15.0
  0
ATTRIB
  5
46
330
17
100
AcDbEntity
  8
0
100
AcDbText
 10
0.0
 20
0.0
 30
0.0
 40
2.5
  1
P(4)
100
AcDbAttribute
  2
NAME
 70
0
  0
ATTRIB
  5
47
330
17
100
AcDbEntity
  8
0
100
AcDbText
 10
0.0
 20
0.0
 30
0.0
 40
2.5
  1
x = 20.273
100
AcDbAttribute
  2
XPOS
 70
0
  0
ATTRIB
  5
48
330
17
100
AcDbEntity
  8
0
100
AcDbText
 10
0.0
 20
0.0
 30
0.0
 40
2.5
  1
y = 74.355
100
AcDbAttribute
  2
YPOS
 70
0
  0
SEQEND
  5
45
330
44
100
AcDbEntity
  8
0
  0
INSERT
  5
49
330
17
100
AcDbEntity
  8
0
100
AcDbBlockReference
 66
1
  2
FLAG
 10
90.13667134183507
 20
63.02698132942153
 30
0.0
 50
15.0
  0
ATTRIB
  5
4B
330
17
100
AcDbEntity
  8
0
100
AcDbText
 10
0.0
 20
0.0
 30
0.0
 40
2.5
  1
P(5)
100
AcDbAttribute
  2
NAME
 70
0
  0
ATTRIB
  5
4C
330
17
100
AcDbEntity
  8
0
100
AcDbText
 10
0.0
 20
0.0
 30
0.0
 40
2.5
  1
x = 90.137
100
AcDbAttribute
  2
XPOS
 70
0
  0
ATTRIB
  5
4D
330
17
100
AcDbEntity
  8
0
100
AcDbText
 10
0.0
 20
0.0
 30
0.0
 40
2.5
  1
y = 63.027
100
AcDbAttribute
  2
YPOS
 70
0
  0
SEQEND
  5
4A
330
49
100
AcDbEntity
  8
0
  0
INSERT
  5
4E
330
17
100
AcDbEntity
  8
0
100
AcDbBlockReference
 66
1
  2
FLAG
 10
15.288110136141874
 20
70.43628206413781
 30
0.0
 50
15.0
  0
ATTRIB
  5
50
330
17
100
AcDbEntity
  8
0
100
AcDbText
 10
0.0
 20
0.0
 30
0.0
 40
2.5
  1
P(6)
100
AcDbAttribute
  2
NAME
 70
0
  0
ATTRIB
  5
51
330
17
100
AcDbEntity
  8
0
100
AcDbText
 10
0.0
 20
0.0
 30
0.0
 40
2.5
  1
x = 15.288
100
AcDbAttribute
  2
XPOS
 70
0
  0
ATTRIB
  5
52
330
17
100
AcDbEntity
  8
0
100
AcDbText
 10
0.0
 20
0.0
 30
0.0
 40
2.5
  1
y = 70.436
100
AcDbAttribute
  2
YPOS
 70
0
  0
SEQEND
  5
4F
330
4E
100
AcDbEntity
  8
0
  0
INSERT
  5
53
330
17
100
AcDbEntity
  8
0
100
AcDbBlockReference
 66
1
  2
FLAG
 10
88.19352907561863
 20
63.97220873838264
 30
0.0
 50
15.0
  0
ATTRIB
  5
55
330
17
100
AcDbEntity
  8
0
100
AcDbText
 10
0.0
 20
0.0
 30
0.0
 40
2.5
  1
P(7)
100
AcDbAttribute
  2
NAME
 70
0
  0
ATTRIB
  5
56
330
17
100
AcDbEntity
  8
0
100
AcDbText
 10
0.0
 20
0.0
 30
0.0
 40
2.5
  1
x = 88.194
100
AcDbAttribute
  2
XPOS
 70
0
  0
ATTRIB
  5
57
330
17
100
AcDbEntity
  8
0
100
AcDbText
 10
0.0
 20
0.0
 30
0.0
 40
2.5
  1
y = 63.972
100
AcDbAttribute
  2
YPOS
 70
0
  0
SEQEND
  5
54
330
53
100
AcDbEntity
  8
0
  0
INSERT
  5
58
330
17
100
AcDbEntity
  8
0
100
AcDbBlockReference
 66
1
  2
FLAG
 10
21.37577574598305
 20
47.48143950365377
 30
0.0
 50
15.0
  0
ATTRIB
  5
5A
330
17
100
AcDbEntity
  8
0
100
AcDbText
 10
0.0
 20
0.0
 30
0.0
 40
2.5
  1
P(8)
100
AcDbAttribute
  2
NAME
 70
0
  0
ATTRIB
  5
5B
330
17
100
AcDbEntity
  8
0
100
AcDbText
 10
0.0
 20
0.0
 30
0.0
 40
2.5
  1
x = 21.376
100
AcDbAttribute
  2
XPOS
 70
0
  0
ATTRIB
  5
5C
330
17
100
AcDbEntity
  8
0
100
AcDbText
 10
0.0
 20
0.0
 30
0.0
 40
2.5
  1
y = 47.481
100
AcDbAttribute
  2
YPOS
 70
0
  0
SEQEND
  5
59
330
58
100
AcDbEntity
  8
0
  0
INSERT
  5
5D
330
17
100
AcDbEntity
  8
0
100
AcDbBlockReference
 66
1
  2
FLAG
 10
17.393037836565494
 20
92.19276363229561
 30
0.0
 50
15.0
  0
ATTRIB
  5
5F
330
17
100
AcDbEntity
  8
0
100
AcDbText
 10
0.0
 20
0.0
 30
0.0
 40
2.5
  1
P(9)
100
AcDbAttribute
  2
NAME
 70
0
  0
ATTRIB
  5
60
330
17
100
AcDbEntity
  8
0
100
AcDbText
 10
0.0
 20
0.0
 30
0.0
 40
2.5
  1
x = 17.393
100
AcDbAttribute
  2
XPOS
 70
0
  0
ATTRIB
  5
61
330
17
100
AcDbEntity
  8
0
100
AcDbText
 10
0.0
 20
0.0
 30
0.0
 40
2.5
  1
y = 92.193
100
AcDbAttribute
  2
YPOS
 70
0
  0
SEQEND
  5
5E
330
5D
100
AcDbEntity
  8
0
  0
INSERT
  5
62
330
17
100
AcDbEntity
  8
0
100
AcDbBlockReference
 66
1
  2
FLAG
 10
85.2531417340525
 20
3.4179282735182226
 30
0.0
 50
15.0
  0
ATTRIB
  5
64
330
17
100
AcDbEntity
  8
0
100
AcDbText
 10
0.0
 20
0.0
 30
0.0
 40
2.5
  1
P(10)
100
AcDbAttribute
  2
NAME
 70
0
  0
ATTRIB
  5
65
330
17
100
AcDbEntity
  8
0
100
AcDbText
 10
0.0
 20
0.0
 30
0.0
 40
2.5
  1
x = 85.253
100
AcDbAttribute
  2
XPOS
 70
0
  0
ATTRIB
  5
66
330
17
100
AcDbEntity
  8
0
100
AcDbText
 10
0.0
 20
0.0
 30
0.0
 40
2.5
  1
y = 3.418
100
AcDbAttribute
  2
YPOS
 70
0
  0
SEQEND
  5
63
330
62
100
AcDbEntity
  8
0
  0
INSERT
  5
67
330
17
100
AcDbEntity
  8
0
100
AcDbBlockReference
 66
1
  2
FLAG
 10
80.55310755702801
 20
22.896571016548418
 30
0.0
 50
15.0
  0
ATTRIB
  5
69
330
17
100
AcDbEntity
  8
0
100
AcDbText
 10
0.0
 20
0.0
 30
0.0
 40
2.5
  1
P(11)
100
AcDbAttribute
  2
NAME
 70
0
  0
ATTRIB
  5
6A
330
17
100
AcDbEntity
  8
0
100
AcDbText
 10
0.0
 20
0.0
 30
0.0
 40
2.5
  1
x = 80.553
100
AcDbAttribute
  2
XPOS
 70
0
  0
ATTRIB
  5
6B
330
17
100
AcDbEntity
  8
0
100
AcDbText
 10
0.0
 20
0.0
 30
0.0
 40
2.5
  1
y = 22.897
100
AcDbAttribute
  2
YPOS
 70
0
  0
SEQEND
  5
68
330
67
100
AcDbEntity
  8
0
  0
INSERT
  5
6C
330
17
100
AcDbEntity
  8
0
100
AcDbBlockReference
 66
1
  2
FLAG
 10
61.043279499790216
 20
66.06381692524764
 30
0.0
 50
15.0
  0
ATTRIB
  5
6E
330
17
100
AcDbEntity
  8
0
100
AcDbText
 10
0.0
 20
0.0
 30
0.0
 40
2.5
  1
P(12)
100
AcDbAttribute
  2
NAME
 70
0
  0
ATTRIB
  5
6F
330
17
100
AcDbEntity
  8
0
100
AcDbText
 10
0.0
 20
0.0
 30
0.0
 40
2.5
  1
x = 61.043
100
AcDbAttribute
  2
XPOS
 70
0
  0
ATTRIB
  5
70
330
17
100
AcDbEntity
  8
0
100
AcDbText
 10
0.0
 20
0.0
 30
0.0
 40
2.5
  1
y = 66.064
100
AcDbAttribute
  2
YPOS
 70
0
  0
SEQEND
  5
6D
330
6C
100
AcDbEntity
  8
0
  0
INSERT
  5
71
330
17
100
AcDbEntity
  8
0
100
AcDbBlockReference
 66
1
  2
FLAG
 10
95.0271554837052
 20
23.251951951025262
 30
0.0
 50
15.0
  0
ATTRIB
  5
73
330
17
100
AcDbEntity
  8
0
100
AcDbText
 10
0.0
 20
0.0
 30
0.0
 40
2.5
  1
P(13)
100
AcDbAttribute
  2
NAME
 70
0
  0
ATTRIB
  5
74
330
17
100
AcDbEntity
  8
0
100
AcDbText
 10
0.0
 20
0.0
 30
0.0
 40
2.5
  1
x = 95.027
100
AcDbAttribute
  2
XPOS
 70
0
  0
ATTRIB
  5
75
330
17
100
AcDbEntity
  8
0
100
AcDbText
 10
0.0
 20
0.0
 30
0.0
 40
2.5
  1
y = 23.252
100
AcDbAttribute
  2
YPOS
 70
0
  0
SEQEND
  5
72
330
71
100
AcDbEntity
  8
0
  0
INSERT
  5
76
330
17
100
AcDbEntity
  8
0
100
AcDbBlockReference
 66
1
  2
FLAG
 10
44.923921330928565
 20
74.16397436322455
 30
0.0
 50
15.0
  0
ATTRIB
  5
78
330
17
100
AcDbEntity
  8
0
100
AcDbText
 10
0.0
 20
0.0
 30
0.0
 40
2.5
  1
P(14)
100
AcDbAttribute
  2
NAME
 70
0
  0
ATTRIB
  5
79
330
17
100
AcDbEntity
  8
0
100
AcDbText
 10
0.0
 20
0.0
 30
0.0
 40
2.5
  1
x = 44.924
100
AcDbAttribute
  2
XPOS
 70
0
  0
ATTRIB
  5
7A
330
17
100
AcDbEntity
  8
0
100
AcDbText
 10
0.0
 20
0.0
 30
0.0
 40
2.5
  1
y = 74.164
100
AcDbAttribute
  2
YPOS
 70
0
  0
SEQEND
  5
77
330
76
100
AcDbEntity
  8
0
  0
INSERT
  5
7B
330
17
100
AcDbEntity
  8
0
100
AcDbBlockReference
 66
1
  2
FLAG
 10
63.27388790823832
 20
65.20938418868545
 30
0.0
 50
15.0
  0
ATTRIB
  5
7D
330
17
100
AcDbEntity
  8
0
100
AcDbText
 10
0.0
 20
0.0
 30
0.0
 40
2.5
  1
P(15)
100
AcDbAttribute
  2
NAME
 70
0
  0
ATTRIB
  5
7E
330
17
100
AcDbEntity
  8
0
100
AcDbText
 10
0.0
 20
0.0
 30
0.0
 40
2.5
  1
x = 63.274
100
AcDbAttribute
  2
XPOS
 70
0
  0
ATTRIB
  5
7F
330
17
100
AcDbEntity
  8
0
100
AcDbText
 10
0.0
 20
0.0
 30
0.0
 40
2.5
  1
y = 65.209
100
AcDbAttribute
  2
YPOS
 70
0
  0
SEQEND
  5
7C
330
7B
100
AcDbEntity
  8
0
  0
INSERT
  5
80
330
17
100
AcDbEntity
  8
0
100
AcDbBlockReference
 66
1
  2
FLAG
 10
15.802125246396193
 20
49.670018001744296
 30
0.0
 50
15.0
  0
ATTRIB
  5
82
330
17
100
AcDbEntity
  8
0
100
AcDbText
 10
0.0
 20
0.0
 30
0.0
 40
2.5
  1
P(16)
100
AcDbAttribute
  2
NAME
 70
0
  0
ATTRIB
  5
83
330
17
100
AcDbEntity
  8
0
100
AcDbText
 10
0.0
 20
0.0
 30
0.0
 40
2.5
  1
x = 15.802
100
AcDbAttribute
  2
XPOS
 70
0
  0
ATTRIB
  5
84
330
17
100
AcDbEntity
  8
0
100
AcDbText
 10
0.0
 20
0.0
 30
0.0
 40
2.5
  1
y = 49.670
100
AcDbAttribute
  2
YPOS
 70
0
  0
SEQEND
  5
81
330
80
100
AcDbEntity
  8
0
  0
INSERT
  5
85
330
17
100
AcDbEntity
  8
0
100
AcDbBlockReference
 66
1
  2
FLAG
 10
88.10284139318534
 20
67.35971676670802
 30
0.0
 50
15.0
  0
ATTRIB
  5
87
330
17
100
AcDbEntity
  8
0
100
AcDbText
 10
0.0
 20
0.0
 30
0.0
 40
2.5
  1
P(17)
100
AcDbAttribute
  2
NAME
 70
0
  0
ATTRIB
  5
88
330
17
100
AcDbEntity
  8
0
100
AcDbText
 10
0.0
 20
0.0
 30
0.0
 40
2.5
  1
x = 88.103
100
AcDbAttribute
  2
XPOS
 70
0
  0
ATTRIB
  5
89
330
17
100
AcDbEntity
  8
0
100
AcDbText
 10
0.0
 20
0.0
 30
0.0
 40
2.5
  1
y = 67.360
100
AcDbAttribute
  2
YPOS
 70
0
  0
SEQEND
  5
86
330
85
100
AcDbEntity
  8
0
  0
INSERT
  5
8A
330
17
100
AcDbEntity
  8
0
100
AcDbBlockReference
 66
1
  2
FLAG
 10
73.40814116301978
 20
62.3341996092219
 30
0.0
 50
15.0
  0
ATTRIB
  5
8C
330
17
100
AcDbEntity
  8
0
100
AcDbText
 10
0.0
 20
0.0
 30
0.0
 40
2.5
  1
P(18)
100
AcDbAttribute
  2
NAME
 70
0
  0
ATTRIB
  5
8D
330
17
100
AcDbEntity
  8
0
100
AcDbText
 10
0.0
 20
0.0
 30
0.0
 40
2.5
  1
x = 73.408
100
AcDbAttribute
  2
XPOS
 70
0
  0
ATTRIB
  5
8E
330
17
100
AcDbEntity
  8
0
100
AcDbText
 10
0.0
 20
0.0
 30
0.0
 40
2.5
  1
y = 62.334
100
AcDbAttribute
  2
YPOS
 70
0
  0
SEQEND
  5
8B
330
8A
100
AcDbEntity
  8
0
  0
INSERT
  5
8F
330
17
100
AcDbEntity
  8
0
100
AcDbBlockReference
 66
1
  2
FLAG
 10
15.146461831499526
 20
83.14615469632989
 30
0.0
 50
15.0
  0
ATTRIB
  5
91
330
17
100
AcDbEntity
  8
0
100
AcDbText
 10
0.0
 20
0.0
 30
0.0
 40
2.5
  1
P(19)
100
AcDbAttribute
  2
NAME
 70
0
  0
ATTRIB
  5
92
330
17
100
AcDbEntity
  8
0
100
AcDbText
 10
0.0
 20
0.0
 30
0.0
 40
2.5
  1
x = 15.146
100
AcDbAttribute
  2
XPOS
 70
0
  0
ATTRIB
  5
93
330
17
100
AcDbEntity
  8
0
100
AcDbText
 10
0.0
 20
0.0
 30
0.0
 40
2.5
  1
y = 83.146
100
AcDbAttribute
  2
YPOS
 70
0
  0
SEQEND
  5
90
330
8F
100
AcDbEntity
  8
0
  0
INSERT
  5
94
330
17
100
AcDbEntity
  8
0
100
AcDbBlockReference
 66
1
  2
FLAG
 10
75.0061104971389
 20
92.42155539641792
 30
0.0
 50
15.0
  0
ATTRIB
  5
96
330
17
100
AcDbEntity
  8
0
100
AcDbText
 10
0.0
 20
0.0
 30
0.0
 40
2.5
  1
P(20)
100
AcDbAttribute
  2
NAME
 70
0
  0
ATTRIB
  5
97
330
17
100
AcDbEntity
  8
0
100
AcDbText
 10
0.0
 20
0.0
 30
0.0
 40
2.5
  1
x = 75.006
100
AcDbAttribute
  2
XPOS
 70
0
  0
ATTRIB
  5
98
330
17
100
AcDbEntity
  8
0
100
AcDbText
 10
0.0
 20
0.0
 30
0.0
 40
2.5
  1
y = 92.422
100
AcDbAttribute
  2
YPOS
 70
0
  0
SEQEND
  5
95
330
94
100
AcDbEntity
  8
0
  0
INSERT
  5
99
330
17
100
AcDbEntity
  8
0
100
AcDbBlockReference
 66
1
  2
FLAG
 10
11.381423770667254
 20
54.984317539714965
 30
0.0
 50
15.0
  0
ATTRIB
  5
9B
330
17
100
AcDbEntity
  8
0
100
AcDbText
 10
0.0
 20
0.0
 30
0.0
 40
2.5
  1
P(21)
100
AcDbAttribute
  2
NAME
 70
0
  0
ATTRIB
  5
9C
330
17
100
AcDbEntity
  8
0
100
AcDbText
 10
0.0
 20
0.0
 30
0.0
 40
2.5
  1
x = 11.381
100
AcDbAttribute
  2
XPOS
 70
0
  0
ATTRIB
  5
9D
330
17
100
AcDbEntity
  8
0
100
AcDbText
 10
0.0
 20
0.0
 30
0.0
 40
2.5
  1
y = 54.984
100
AcDbAttribute
  2
YPOS
 70
0
  0
SEQEND
  5
9A
330
99
100
AcDbEntity
  8
0
  0
INSERT
  5
9E
330
17
100
AcDbEntity
  8
0
100
AcDbBlockReference
 66
1
  2
FLAG
 10
0.13794255848580406
 20
54.43092366786389
 30
0.0
 50
15.0
  0
ATTRIB
  5
A0
330
17
100
AcDbEntity
  8
0
100
AcDbText
 10
0.0
 20
0.0
 30
0.0
 40
2.5
  1
P(22)
100
AcDbAttribute
  2
NAME
 70
0
  0
ATTRIB
  5
A1
330
17
100
AcDbEntity
  8
0
100
AcDbText
 10
0.0
 20
0.0
 30
0.0
 40
2.5
  1
x = 0.138
100
AcDbAttribute
  2
XPOS
 70
0
  0
ATTRIB
  5
A2
330
17
100
AcDbEntity
  8
0
100
AcDbText
 10
0.0
 20
0.0
 30
0.0
 40
2.5
  1
y = 54.431
100
AcDbAttribute
  2
YPOS
 70
0
  0
SEQEND
  5
9F
330
9E
100
AcDbEntity
  8
0
  0
INSERT
  5
A3
330
17
100
AcDbEntity
  8
0
100
AcDbBlockReference
 66
1
  2
FLAG
 10
67.5261017487756
 20
44.243869877509276
 30
0.0
 50
15.0
  0
ATTRIB
  5
A5
330
17
100
AcDbEntity
  8
0
100
AcDbText
 10
0.0
 20
0.0
 30
0.0
 40
2.5
  1
P(23)
100
AcDbAttribute
  2
NAME
 70
0
  0
ATTRIB
  5
A6
330
17
100
AcDbEntity
  8
0
100
AcDbText
 10
0.0
 20
0.0
 30
0.0
 40
2.5
  1
x = 67.526
100
AcDbAttribute
  2
XPOS
 70
0
  0
ATTRIB
  5
A7
330
17
100
AcDbEntity
  8
0
100
AcDbText
 10
0.0
 20
0.0
 30
0.0
 40
2.5
  1
y = 44.244
100
AcDbAttribute
  2
YPOS
 70
0
  0
SEQEND
  5
A4
330
A3
100
AcDbEntity
  8
0
  0
INSERT
  5
A8
330
17
100
AcDbEntity
  8
0
100
AcDbBlockReference
 66
1
  2
FLAG
 10
59.7803084056579
 20
78.28298772477808
 30
0.0
 50
15.0
  0
ATTRIB
  5
AA
330
17
100
AcDbEntity
  8
0
100
AcDbText
 10
0.0
 20
0.0
 30
0.0
 40
2.5
  1
P(24)
100
AcDbAttribute
  2
NAME
 70
0
  0
ATTRIB
  5
AB
330
17
100
AcDbEntity
  8
0
100
AcDbText
 10
0.0
 20
0.0
 30
0.0
 40
2.5
  1
x = 59.780
100
AcDbAttribute
  2
XPOS
 70
0
  0
ATTRIB
  5
AC
330
17
100
AcDbEntity
  8
0
100
AcDbText
 10
0.0
 20
0.0
 30
0.0
 40
2.5
  1
y = 78.283
100
AcDbAttribute
  2
YPOS
 70
0
  0
SEQEND
  5
A9
330
A8
100
AcDbEntity
  8
0
  0
INSERT
  5
AD
330
17
100
AcDbEntity
  8
0
100
AcDbBlockReference
 66
1
  2
FLAG
 10
1.6992812772390176
 20
53.953452636440225
 30
0.0
 50
15.0
  0
ATTRIB
  5
AF
330
17
100
AcDbEntity
  8
0
100
AcDbText
 10
0.0
 20
0.0
 30
0.0
 40
2.5
  1
P(25)
100
AcDbAttribute
  2
NAME
 70
0
  0
ATTRIB
  5
B0
330
17
100
AcDbEntity
  8
0
100
AcDbText
 10
0.0
 20
0.0
 30
0.0
 40
2.5
  1
x = 1.699
100
AcDbAttribute
  2
XPOS
 70
0
  0
ATTRIB
  5
B1
330
17
100
AcDbEntity
  8
0
100
AcDbText
 10
0.0
 20
0.0
 30
0.0
 40
2.5
  1
y = 53.953
100
AcDbAttribute
  2
YPOS
 70
0
  0
SEQEND
  5
AE
330
AD
100
AcDbEntity
  8
0
  0
INSERT
  5
B2
330
17
100
AcDbEntity
  8
0
100
AcDbBlockReference
 66
1
  2
FLAG
 10
24.08771148809222
 20
8.262188569495965
 30
0.0
 50
15.0
  0
ATTRIB
  5
B4
330
17
100
AcDbEntity
  8
0
100
AcDbText
 10
0.0
 20
0.0
 30
0.0
 40
2.5
  1
P(26)
100
AcDbAttribute
  2
NAME
 70
0
  0
ATTRIB
  5
B5
330
17
100
AcDbEntity
  8
0
100
AcDbText
 10
0.0
 20
0.0
 30
0.0
 40
2.5
  1
x = 24.088
100
AcDbAttribute
  2
XPOS
 70
0
  0
ATTRIB
  5
B6
330
17
100
AcDbEntity
  8
0
100
AcDbText
 10
0.0
 20
0.0
 30
0.0
 40
2.5
  1
y = 8.262
100
AcDbAttribute
  2
YPOS
 70
0
  0
SEQEND
  5
B3
330
B2
100
AcDbEntity
  8
0
  0
INSERT
  5
B7
330
17
100
AcDbEntity
  8
0
100
AcDbBlockReference
 66
1
  2
FLAG
 10
28.741618945267867
 20
48.04154948767441
 30
0.0
 50
15.0
  0
ATTRIB
  5
B9
330
17
100
AcDbEntity
  8
0
100
AcDbText
 10
0.0
 20
0.0
 30
0.0
 40
2.5
  1
P(27)
100
AcDbAttribute
  2
NAME
 70
0
  0
ATTRIB
  5
BA
330
17
100
AcDbEntity
  8
0
100
AcDbText
 10
0.0
 20
0.0
 30
0.0
 40
2.5
  1
x = 28.742
100
AcDbAttribute
  2
XPOS
 70
0
  0
ATTRIB
  5
BB
330
17
100
AcDbEntity
  8
0
100
AcDbText
 10
0.0
 20
0.0
 30
0.0
 40
2.5
  1
y = 48.042
100
AcDbAttribute
  2
YPOS
 70
0
  0
SEQEND
  5
B8
330
B7
100
AcDbEntity
  8
0
  0
INSERT
  5
BC
330
17
100
AcDbEntity
  8
0
100
AcDbBlockReference
 66
1
  2
FLAG
 10
69.33783580666152
 20
12.698759764557765
 30
0.0
 50
15.0
  0
ATTRIB
  5
BE
330
17
100
AcDbEntity
  8
0
100
AcDbText
 10
0.0
 20
0.0
 30
0.0
 40
2.5
  1
P(28)
100
AcDbAttribute
  2
NAME
 70
0
  0
ATTRIB
  5
BF
330
17
100
AcDbEntity
  8
0
100
AcDbText
 10
0.0
 20
0.0
 30
0.0
 40
2.5
  1
x = 69.338
100
AcDbAttribute
  2
XPOS
 70
0
  0
ATTRIB
  5
C0
330
17
100
AcDbEntity
  8
0
100
AcDbText
 10
0.0
 20
0.0
 30
0.0
 40
2.5
  1
y = 12.699
100
AcDbAttribute
  2
YPOS
 70
0
  0
SEQEND
  5
BD
330
BC
100
AcDbEntity
  8
0
  0
INSERT
  5
C1
330
17
100
AcDbEntity
  8
0
100
AcDbBlockReference
 66
1
  2
FLAG
 10
86.90605285874871
 20
42.68756845589516
 30
0.0
 50
15.0
  0
ATTRIB
  5
C3
330
17
100
AcDbEntity
  8
0
100
AcDbText
 10
0.0
 20
0.0
 30
0.0
 40
2.5
  1
P(29)
100
AcDbAttribute
  2
NAME
 70
0
  0
ATTRIB
  5
C4
330
17
100
AcDbEntity
  8
0
100
AcDbText
 10
0.0
 20
0.0
 30
0.0
 40
2.5
  1
x = 86.906
100
AcDbAttribute
  2
XPOS
 70
0
  0
ATTRIB
  5
C5
330
17
100
AcDbEntity
  8
0
100
AcDbText
 10
0.0
 20
0.0
 30
0.0
 40
2.5
  1
y = 42.688
100
AcDbAttribute
  2
YPOS
 70
0
  0
SEQEND
  5
C2
330
C1
100
AcDbEntity
  8
0
  0
INSERT
  5
C6
330
17
100
AcDbEntity
  8
0
100
AcDbBlockReference
 66
1
  2
FLAG
 10
67.31878274057628
 20
55.62622528786625
 30
0.0
 50
15.0
  0
ATTRIB
  5
C8
330
17
100
AcDbEntity
  8
0
100
AcDbText
 10
0.0
 20
0.0
 30
0.0
 40
2.5
  1
P(30)
100
AcDbAttribute
  2
NAME
 70
0
  0
ATTRIB
  5
C9
330
17
100
AcDbEntity
  8
0
100
AcDbText
 10
0.0
 20
0.0
 30
0.0
 40
2.5
  1
x = 67.319
100
AcDbAttribute
  2
XPOS
 70
0
  0
ATTRIB
  5
CA
330
17
100
AcDbEntity
  8
0
100
AcDbText
 10
0.0
 20
0.0
 30
0.0
 40
2.5
  1
y = 55.626
100
AcDbAttribute
  2
YPOS
 70
0
  0
SEQEND
  5
C7
330
C6
100
AcDbEntity
  8
0
  0
INSERT
  5
CB
330
17
100
AcDbEntity
  8
0
100
AcDbBlockReference
 66
1
  2
FLAG
 10
51.05516554157392
 20
90.16183947835935
 30
0.0
 50
15.0
  0
ATTRIB
  5
CD
330
17
100
AcDbEntity
  8
0
100
AcDbText
 10
0.0
 20
0.0
 30
0.0
 40
2.5
  1
P(31)
100
AcDbAttribute
  2
NAME
 70
0
  0
ATTRIB
  5
CE
330
17
100
AcDbEntity
  8
0
100
AcDbText
 10
0.0
 20
0.0
 30
0.0
 40
2.5
  1
x = 51.055
100
AcDbAttribute
  2
XPOS
 70
0
  0
ATTRIB
  5
CF
330
17
100
AcDbEntity
  8
0
100
AcDbText
 10
0.0
 20
0.0
 30
0.0
 40
2.5
  1
y = 90.162
100
AcDbAttribute
  2
YPOS
 70
0
  0
SEQEND
  5
CC
330
CB
100
AcDbEntity
  8
0
  0
INSERT
  5
D0
330
17
100
AcDbEntity
  8
0
100
AcDbBlockReference
 66
1
  2
FLAG
 10
57.9906946935216
 20
30.034255537582077
 30
0.0
 50
15.0
  0
ATTRIB
  5
D2
330
17
100
AcDbEntity
  8
0
100
AcDbText
 10
0.0
 20
0.0
 30
0.0
 40
2.5
  1
P(32)
100
AcDbAttribute
  2
NAME
 70
0
  0
ATTRIB
  5
D3
330
17
100
AcDbEntity
  8
0
100
AcDbText
 10
0.0
 20
0.0
 30
0.0
 40
2.5
  1
x = 57.991
100
AcDbAttribute
  2
XPOS
 70
0
  0
ATTRIB
  5
D4
330
17
100
AcDbEntity
  8
0
100
AcDbText
 10
0.0
 20
0.0
 30
0.0
 40
2.5
  1
y = 30.034
100
AcDbAttribute
  2
YPOS
 70
0
  0
SEQEND
  5
D1
330
D0
100
AcDbEntity
  8
0
  0
INSERT
  5
D5
330
17
100
AcDbEntity
  8
0
100
AcDbBlockReference
 66
1
  2
FLAG
 10
92.7875848477647
 20
95.86501377801709
 30
0.0
 50
15.0
  0
ATTRIB
  5
D7
330
17
100
AcDbEntity
  8
0
100
AcDbText
 10
0.0
 20
0.0
 30
0.0
 40
2.5
  1
P(33)
100
AcDbAttribute
  2
NAME
 70
0
  0
ATTRIB
  5
D8
330
17
100
AcDbEntity
  8
0
100
AcDbText
 10
0.0
 20
0.0
 30
0.0
 40
2.5
  1
x = 92.788
100
AcDbAttribute
  2
XPOS
 70
0
  0
ATTRIB
  5
D9
330
17
100
AcDbEntity
  8
0
100
AcDbText
 10
0.0
 20
0.0
 30
0.0
 40
2.5
  1
y = 95.865
100
AcDbAttribute
  2
YPOS
 70
0
  0
SEQEND
  5
D6
330
D5
100
AcDbEntity
  8
0
  0
INSERT
  5
DA
330
17
100
AcDbEntity
  8
0
100
AcDbBlockReference
 66
1
  2
FLAG
 10
79.45312295614843
 20
31.20254414747664
 30
0.0
 50
15.0
  0
ATTRIB
  5
DC
330
17
100
AcDbEntity
  8
0
100
AcDbText
 10
0.0
 20
0.0
 30
0.0
 40
2.5
  1
P(34)
100
AcDbAttribute
  2
NAME
 70
0
  0
ATTRIB
  5
DD
330
17
100
AcDbEntity
  8
0
100
AcDbText
 10
0.0
 20
0.0
 30
0.0
 40
2.5
  1
x = 79.453
100
AcDbAttribute
  2
XPOS
 70
0
  0
ATTRIB
  5
DE
330
17
100
AcDbEntity
  8
0
100
AcDbText
 10
0.0
 20
0.0
 30
0.0
 40
2.5
  1
y = 31.203
100
AcDbAttribute
  2
YPOS
 70
0
  0
SEQEND
  5
DB
330
DA
100
AcDbEntity
  8
0
  0
INSERT
  5
DF
330
17
100
AcDbEntity
  8
0
100
AcDbBlockReference
 66
1
  2
FLAG
 10
25.21288703791883
 20
92.09201100137417
 30
0.0
 50
15.0
  0
ATTRIB
  5
E1
330
17
100
AcDbEntity
  8
0
100
AcDbText
 10
0.0
 20
0.0
 30
0.0
 40
2.5
  1
P(35)
100
AcDbAttribute
  2
NAME
 70
0
  0
ATTRIB
  5
E2
330
17
100
AcDbEntity
  8
0
100
AcDbText
 10
0.0
 20
0.0
 30
0.0
 40
2.5
  1
x = 25.213
100
AcDbAttribute
  2
XPOS
 70
0
  0
ATTRIB
  5
E3
330
17
100
AcDbEntity
  8
0
100
AcDbText
 10
0.0
 20
0.0
 30
0.0
 40
2.5
  1
y = 92.092
100
AcDbAttribute
  2
YPOS
 70
0
  0
SEQEND
  5
E0
330
DF
100
AcDbEntity
  8
0
  0
INSERT
  5
E4
330
17
100
AcDbEntity
  8
0
100
AcDbBlockReference
 66
1
  2
FLAG
 10
2.0431657199069364
 20
74.47536548346856
 30
0.0
 50
15.0
  0
ATTRIB
  5
E6
330
17
100
AcDbEntity
  8
0
100
AcDbText
 10
0.0
 20
0.0
 30
0.0
 40
2.5
  1
P(36)
100
AcDbAttribute
  2
NAME
 70
0
  0
ATTRIB
  5
E7
330
17
100
AcDbEntity
  8
0
100
AcDbText
 10
0.0
 20
0.0
 30
0.0
 40
2.5
  1
x = 2.043
100
AcDbAttribute
  2
XPOS
 70
0
  0
ATTRIB
  5
E8
330
17
100
AcDbEntity
  8
0
100
AcDbText
 10
0.0
 20
0.0
 30
0.0
 40
2.5
  1
y = 74.475
100
AcDbAttribute
  2
YPOS
 70
0
  0
SEQEND
  5
E5
330
E4
100
AcDbEntity
  8
0
  0
INSERT
  5
E9
330
17
100
AcDbEntity
  8
0
100
AcDbBlockReference
 66
1
  2
FLAG
 10
67.67512781274925
 20
29.230062626889186
 30
0.0
 50
15.0
  0
ATTRIB
  5
EB
330
17
100
AcDbEntity
  8
0
100
AcDbText
 10
0.0
 20
0.0
 30
0.0
 40
2.5
  1
P(37)
100
AcDbAttribute
  2
NAME
 70
0
  0
ATTRIB
  5
EC
330
17
100
AcDbEntity
  8
0
100
AcDbText
 10
0.0
 20
0.0
 30
0.0
 40
2.5
  1
x = 67.675
100
AcDbAttribute
  2
XPOS
 70
0
  0
ATTRIB
  5
ED
330
17
100
AcDbEntity
  8
0
100
AcDbText
 10
0.0
 20
0.0
 30
0.0
 40
2.5
  1
y = 29.230
100
AcDbAttribute
  2
YPOS
 70
0
  0
SEQEND
  5
EA
330
E9
100
AcDbEntity
  8
0
  0
INSERT
  5
EE
330
17
100
AcDbEntity
  8
0
100
AcDbBlockReference
 66
1
  2
FLAG
 10
22.879733920301824
 20
78.45438490650382
 30
0.0
 50
15.0
  0
ATTRIB
  5
F0
330
17
100
AcDbEntity
  8
0
100
AcDbText
 10
0.0
 20
0.0
 30
0.0
 40
2.5
  1
P(38)
100
AcDbAttribute
  2
NAME
 70
0
  0
ATTRIB
  5
F1
330
17
100
AcDbEntity
  8
0
100
AcDbText
 10
0.0
 20
0.0
 30
0.0
 40
2.5
  1
x = 22.880
100
AcDbAttribute
  2
XPOS
 70
0
  0
ATTRIB
  5
F2
330
17
100
AcDbEntity
  8
0
100
AcDbText
 10
0.0
 20
0.0
 30
0.0
 40
2.5
  1
y = 78.454
100
AcDbAttribute
  2
YPOS
 70
0
  0
SEQEND
  5
EF
330
EE
100
AcDbEntity
  8
0
  0
INSERT
  5
F3
330
17
100
AcDbEntity
  8
0
100
AcDbBlockReference
 66
1
  2
FLAG
 10
13.684226485625961
 20
84.84948812887669
 30
0.0
 50
15.0
  0
ATTRIB
  5
F5
330
17
100
AcDbEntity
  8
0
100
AcDbText
 10
0.0
 20
0.0
 30
0.0
 40
2.5
  1
P(39)
100
AcDbAttribute
  2
NAME
 70
0
  0
ATTRIB
  5
F6
330
17
100
AcDbEntity
  8
0
100
AcDbText
 10
0.0
 20
0.0
 30
0.0
 40
2.5
  1
x = 13.684
100
AcDbAttribute
  2
XPOS
 70
0
  0
ATTRIB
  5
F7
330
17
100
AcDbEntity
  8
0
100
AcDbText
 10
0.0
 20
0.0
 30
0.0
 40
2.5
  1
y = 84.849
100
AcDbAttribute
  2
YPOS
 70
0
  0
SEQEND
  5
F4
330
F3
100
AcDbEntity
  8
0
  0
INSERT
  5
F8
330
17
100
AcDbEntity
  8
0
100
AcDbBlockReference
 66
1
  2
FLAG
 10
41.09903029781991
 20
26.372226182393355
 30
0.0
 50
15.0
  0
ATTRIB
  5
FA
330
17
100
AcDbEntity
  8
0
100
AcDbText
 10
0.0
 20
0.0
 30
0.0
 40
2.5
  1
P(40)
100
AcDbAttribute
  2
NAME
 70
0
  0
ATTRIB
  5
FB
330
17
100
AcDbEntity
  8
0
100
AcDbText
 10
0.0
 20
0.0
 30
0.0
 40
2.5
  1
x = 41.099
100
AcDbAttribute
  2
XPOS
 70
0
  0
ATTRIB
  5
FC
330
17
100
AcDbEntity
  8
0
100
AcDbText
 10
0.0
 20
0.0
 30
0.0
 40
2.5
  1
y = 26.372
100
AcDbAttribute
  2
YPOS
 70
0
  0
SEQEND
  5
F9
330
F8
100
AcDbEntity
  8
0
  0
INSERT
  5
FD
330
17
100
AcDbEntity
  8
0
100
AcDbBlockReference
 66
1
  2
FLAG
 10
12.097571922617922
 20
36.85102754331561
 30
0.0
 50
15.0
  0
ATTRIB
  5
FF
330
17
100
AcDbEntity
  8
0
100
AcDbText
 10
0.0
 20
0.0
 30
0.0
 40
2.5
  1
P(41)
100
AcDbAttribute
  2
NAME
 70
0
  0
ATTRIB
  5
100
330
17
100
AcDbEntity
  8
0
100
AcDbText
 10
0.0
 20
0.0
 30
0.0
 40
2.5
  1
x = 12.098
100
AcDbAttribute
  2
XPOS
 70
0
  0
ATTRIB
  5
101
330
17
100
AcDbEntity
  8
0
100
AcDbText
 10
0.0
 20
0.0
 30
0.0
 40
2.5
  1
y = 36.851
100
AcDbAttribute
  2
YPOS
 70
0
  0
SEQEND
  5
FE
330
FD
100
AcDbEntity
  8
0
  0
INSERT
  5
102
330
17
100
AcDbEntity
  8
0
100
AcDbBlockReference
 66
1
  2
FLAG
 10
74.97889543618331
 20
81.59264363985548
 30
0.0
 50
15.0
  0
ATTRIB
  5
104
330
17
100
AcDbEntity
  8
0
100
AcDbText
 10
0.0
 20
0.0
 30
0.0
 40
2.5
  1
P(42)
100
AcDbAttribute
  2
NAME
 70
0
  0
ATTRIB
  5
105
330
17
100
AcDbEntity
  8
0
100
AcDbText
 10
0.0
 20
0.0
 30
0.0
 40
2.5
  1
x = 74.979
100
AcDbAttribute
  2
XPOS
 70
0
  0
ATTRIB
  5
106
330
17
100
AcDbEntity
  8
0
100
AcDbText
 10
0.0
 20
0.0
 30
0.0
 40
2.5
  1
y = 81.593
100
AcDbAttribute
  2
YPOS
 70
0
  0
SEQEND
  5
103
330
102
100
AcDbEntity
  8
0
  0
INSERT
  5
107
330
17
100
AcDbEntity
  8
0
100
AcDbBlockReference
 66
1
  2
FLAG
 10
82.09649907442525
 20
20.416721193929366
 30
0.0
 50
15.0
  0
ATTRIB
  5
109
330
17
100
AcDbEntity
  8
0
100
AcDbText
 10
0.0
 20
0.0
 30
0.0
 40
2.5
  1
P(43)
100
AcDbAttribute
  2
NAME
 70
0
  0
ATTRIB
  5
10A
330
17
100
AcDbEntity
  8
0
100
AcDbText
 10
0.0
 20
0.0
 30
0.0
 40
2.5
  1
x = 82.096
100
AcDbAttribute
  2
XPOS
 70
0
  0
ATTRIB
  5
10B
330
17
100
AcDbEntity
  8
0
100
AcDbText
 10
0.0
 20
0.0
 30
0.0
 40
2.5
  1
y = 20.417
100
AcDbAttribute
  2
YPOS
 70
0
  0
SEQEND
  5
108
330
107
100
AcDbEntity
  8
0
  0
INSERT
  5
10C
330
17
100
AcDbEntity
  8
0
100
AcDbBlockReference
 66
1
  2
FLAG
 10
10.629349682399958
 20
86.93856413957461
 30
0.0
 50
15.0
  0
ATTRIB
  5
10E
330
17
100
AcDbEntity
  8
0
100
AcDbText
 10
0.0
 20
0.0
 30
0.0
 40
2.5
  1
P(44)
100
AcDbAttribute
  2
NAME
 70
0
  0
ATTRIB
  5
10F
330
17
100
AcDbEntity
  8
0
100
AcDbText
 10
0.0
 20
0.0
 30
0.0
 40
2.5
  1
x = 10.629
100
AcDbAttribute
  2
XPOS
 70
0
  0
ATTRIB
  5
110
330
17
100
AcDbEntity
  8
0
100
AcDbText
 10
0.0
 20
0.0
 30
0.0
 40
2.5
  1
y = 86.939
100
AcDbAttribute
  2
YPOS
 70
0
  0
SEQEND
  5
10D
330
10C
100
AcDbEntity
  8
0
  0
INSERT
  5
111
330
17
100
AcDbEntity
  8
0
100
AcDbBlockReference
 66
1
  2
FLAG
 10
40.76426629346743
 20
46.09672042878056
 30
0.0
 50
15.0
  0
ATTRIB
  5
113
330
17
100
AcDbEntity
  8
0
100
AcDbText
 10
0.0
 20
0.0
 30
0.0
 40
2.5
  1
P(45)
100
AcDbAttribute
  2
NAME
 70
0
  0
ATTRIB
  5
114
330
17
100
AcDbEntity
  8
0
100
AcDbText
 10
0.0
 20
0.0
 30
0.0
 40
2.5
  1
x = 40.764
100
AcDbAttribute
  2
XPOS
 70
0
  0
ATTRIB
  5
115
330
17
100
AcDbEntity
  8
0
100
AcDbText
 10
0.0
 20
0.0
 30
0.0
 40
2.5
  1
y = 46.097
100
AcDbAttribute
  2
YPOS
 70
0
  0
SEQEND
  5
112
330
111
100
AcDbEntity
  8
0
  0
INSERT
  5
116
330
17
100
AcDbEntity
  8
0
100
AcDbBlockReference
 66
1
  2
FLAG
 10
7.522210915508842
 20
94.66711530777228
 30
0.0
 50
15.0
  0
ATTRIB
  5
118
330
17
100
AcDbEntity
  8
0
100
AcDbText
 10
0.0
 20
0.0
 30
0.0
 40
2.5
  1
P(46)
100
AcDbAttribute
  2
NAME
 70
0
  0
ATTRIB
  5
119
330
17
100
AcDbEntity
  8
0
100
AcDbText
 10
0.0
 20
0.0
 30
0.0
 40
2.5
  1
x = 7.522
100
AcDbAttribute
  2
XPOS
 70
0
  0
ATTRIB
  5
11A
330
17
100
AcDbEntity
  8
0
100
AcDbText
 10
0.0
 20
0.0
 30
0.0
 40
2.5
  1
y = 94.667
100
AcDbAttribute
  2
YPOS
 70
0
  0
SEQEND
  5
117
330
116
100
AcDbEntity
  8
0
  0
INSERT
  5
11B
330
17
100
AcDbEntity
  8
0
100
AcDbBlockReference
 66
1
  2
FLAG
 10
74.12529790667686
 20
0.30641429486187866
 30
0.0
 50
15.0
  0
ATTRIB
  5
11D
330
17
100
AcDbEntity
  8
0
100
AcDbText
 10
0.0
 20
0.0
 30
0.0
 40
2.5
  1
P(47)
100
AcDbAttribute
  2
NAME
 70
0
  0
ATTRIB
  5
11E
330
17
100
AcDbEntity
  8
0
100
AcDbText
 10
0.0
 20
0.0
 30
0.0
 40
2.5
  1
x = 74.125
100
AcDbAttribute
  2
XPOS
 70
0
  0
ATTRIB
  5
11F
330
17
100
AcDbEntity
  8
0
100
AcDbText
 10
0.0
 20
0.0
 30
0.0
 40
2.5
  1
y = 0.306
100
AcDbAttribute
  2
YPOS
 70
0
  0
SEQEND
  5
11C
330
11B
100
AcDbEntity
  8
0
  0
INSERT
  5
120
330
17
100
AcDbEntity
  8
0
100
AcDbBlockReference
 66
1
  2
FLAG
 10
12.87738475814737
 20
99.11344397317987
 30
0.0
 50
15.0
  0
ATTRIB
  5
122
330
17
100
AcDbEntity
  8
0
100
AcDbText
 10
0.0
 20
0.0
 30
0.0
 40
2.5
  1
P(48)
100
AcDbAttribute
  2
NAME
 70
0
  0
ATTRIB
  5
123
330
17
100
AcDbEntity
  8
0
100
AcDbText
 10
0.0
 20
0.0
 30
0.0
 40
2.5
  1
x = 12.877
100
AcDbAttribute
  2
XPOS
 70
0
  0
ATTRIB
  5
124
330
17
100
AcDbEntity
  8
0
100
AcDbText
 10
0.0
 20
0.0
 30
0.0
 40
2.5
  1
y = 99.113
100
AcDbAttribute
  2
YPOS
 70
0
  0
SEQEND
  5
121
330
120
100
AcDbEntity
  8
0
  0
INSERT
  5
125
330
17
100
AcDbEntity
  8
0
100
AcDbBlockReference
 66
1
  2
FLAG
 10
51.74766825790438
 20
87.01297382887084
 30
0.0
 50
15.0
  0
ATTRIB
  5
127
330
17
100
AcDbEntity
  8
0
100
AcDbText
 10
0.0
 20
0.0
 30
0.0
 40
2.5
  1
P(49)
100
AcDbAttribute
  2
NAME
 70
0
  0
ATTRIB
  5
128
330
17
100
AcDbEntity
  8
0
100
AcDbText
 10
0.0
 20
0.0
 30
0.0
 40
2.5
  1
x = 51.748
100
AcDbAttribute
  2
XPOS
 70
0
  0
ATTRIB
  5
129
330
17
100
AcDbEntity
  8
0
100
AcDbText
 10
0.0
 20
0.0
 30
0.0
 40
2.5
  1
y = 87.013
100
AcDbAttribute
  2
YPOS
 70
0
  0
SEQEND
  5
126
330
125
100
AcDbEntity
  8
0
  0
INSERT
  5
12A
330
17
100
AcDbEntity
  8
0
100
AcDbBlockReference
 66
1
  2
FLAG
 10
50.78291410684154
 20
72.42248361182352
 30
0.0
 50
15.0
  0
ATTRIB
  5
12C
330
17
100
AcDbEntity
  8
0
100
AcDbText
 10
0.0
 20
0.0
 30
0.0
 40
2.5
  1
P(50)
100
AcDbAttribute
  2
NAME
 70
0
  0
ATTRIB
  5
12D
330
17
100
AcDbEntity
  8
0
100
AcDbText
 10
0.0
 20
0.0
 30
0.0
 40
2.5
  1
x = 50.783
100
AcDbAttribute
  2
XPOS
 70
0
  0
ATTRIB
  5
12E
330
17
100
AcDbEntity
  8
0
100
AcDbText
 10
0.0
 20
0.0
 30
0.0
 40
2.5
  1
y = 72.422
100
AcDbAttribute
  2
YPOS
 70
0
  0
SEQEND
  5
12B
330
12A
100
AcDbEntity
  8
0
  0
ENDSEC
  0
SECTION
  2
OBJECTS
  0
DICTIONARY
  5
A
330
0
100
AcDbDictionary
280
0
281
1
  3
ACAD_COLOR
350
B
  3
ACAD_GROUP
350
C
  3
ACAD_LAYOUT
350
D
  3
ACAD_MATERIAL
350
E
  3
ACAD_MLEADERSTYLE
350
F
  3
ACAD_MLINESTYLE
350
10
  3
ACAD_PLOTSETTINGS
350
11
  3
ACAD_PLOTSTYLENAME
350
12
  3
ACAD_SCALELIST
350
14
  3
ACAD_TABLESTYLE
350
15
  3
ACAD_VISUALSTYLE
350
16
  3
EZDXF_META
350
2D
  0
DICTIONARY
  5
B
330
A
100
AcDbDictionary
280
0
281
1
  0
DICTIONARY
  5
C
330
A
100
AcDbDictionary
280
0
281
1
  0
DICTIONARY
  5
D
330
A
100
AcDbDictionary
280
0
281
1
  3
Model
350
1A
  3
Layout1
350
1E
  0
DICTIONARY
  5
E
330
A
100
AcDbDictionary
280
0
281
1
  3
ByBlock
350
1F
  3
ByLayer
350
20
  3
Global
350
21
  0
DICTIONARY
  5
F
330
A
100
AcDbDictionary
280
0
281
1
  3
Standard
350
2C
  0
DICTIONARY
  5
10
330
A
100
AcDbDictionary
280
0
281
1
  3
Standard
350
22
  0
DICTIONARY
  5
11
330
A
100
AcDbDictionary
280
0
281
1
  0
ACDBDICTIONARYWDFLT
  5
12
330
A
100
AcDbDictionary
280
0
281
1
  3
Normal
350
13
100
AcDbDictionaryWithDefault
340
13
  0
ACDBPLACEHOLDER
  5
13
330
12
  0
DICTIONARY
  5
14
330
A
100
AcDbDictionary
280
0
281
1
  0
DICTIONARY
  5
15
330
A
100
AcDbDictionary
280
0
281
1
  0
DICTIONARY
  5
16
330
A
100
AcDbDictionary
280
0
281
1
  0
LAYOUT
  5
1A
330
D
100
AcDbPlotSettings
  1

  4
A3
  6

 40
7.5
 41
20.0
 42
7.5
 43
20.0
 44
420.0
 45
297.0
 46
0.0
 47
0.0
 48
0.0
 49
0.0
140
0.0
141
0.0
142
1.0
143
1.0
 70
1024
 72
1
 73
0
 74
5
  7

 75
16
 76
0
 77
2
 78
300
147
1.0
148
0.0
149
0.0
100
AcDbLayout
  1
Model
 70
1
 71
0
 10
0.0
 20
0.0
 11
420.0
 21
297.0
 12
0.0
 22
0.0
 32
0.0
 14
1e+20
 24
1e+20
 34
1e+20
 15
-1e+20
 25
-1e+20
 35
-1e+20
146
0.0
 13
0.0
 23
0.0
 33
0.0
 16
1.0
 26
0.0
 36
0.0
 17
0.0
 27
1.0
 37
0.0
 76
1
330
17
  0
LAYOUT
  5
1E
330
D
100
AcDbPlotSettings
  1

  4
A3
  6

 40
7.5
 41
20.0
 42
7.5
 43
20.0
 44
420.0
 45
297.0
 46
0.0
 47
0.0
 48
0.0
 49
0.0
140
0.0
141
0.0
142
1.0
143
1.0
 70
0
 72
1
 73
0
 74
5
  7

 75
16
 76
0
 77
2
 78
300
147
1.0
148
0.0
149
0.0
100
AcDbLayout
  1
Layout1
 70
1
 71
1
 10
0.0
 20
0.0
 11
420.0
 21
297.0
 12
0.0
 22
0.0
 32
0.0
 14
1e+20
 24
1e+20
 34
1e+20
 15
-1e+20
 25
-1e+20
 35
-1e+20
146
0.0
 13
0.0
 23
0.0
 33
0.0
 16
1.0
 26
0.0
 36
0.0
 17
0.0
 27
1.0
 37
0.0
 76
1
330
1B
  0
MATERIAL
  5
1F
102
{ACAD_REACTORS
330
E
102
}
330
E
100
AcDbMaterial
  1
ByBlock
  2

 70
0
 40
1.0
 71
1
 41
1.0
 91
-1023410177
 42
1.0
 72
1
  3

 73
1
 74
1
 75
1
 44
0.5
 73
0
 45
1.0
 46
1.0
 77
1
  4

 78
1
 79
1
170
1
 48
1.0
171
1
  6

172
1
173
1
174
1
140
1.0
141
1.0
175
1
  7

176
1
177
1
178
1
143
1.0
179
1
  8

270
1
271
1
272
1
145
1.0
146
1.0
273
1
  9

274
1
275
1
276
1
 42
1.0
 72
1
  3

 73
1
 74
1
 75
1
 94
63
  0
MATERIAL
  5
20
102
{ACAD_REACTORS
330
E
102
}
330
E
100
AcDbMaterial
  1
ByLayer
  2

 70
0
 40
1.0
 71
1
 41
1.0
 91
-1023410177
 42
1.0
 72
1
  3

 73
1
 74
1
 75
1
 44
0.5
 73
0
 45
1.0
 46
1.0
 77
1
  4

 78
1
 79
1
170
1
 48
1.0
171
1
  6

172
1
173
1
174
1
140
1.0
141
1.0
175
1
  7

176
1
177
1
178
1
143
1.0
179
1
  8

270
1
271
1
272
1
145
1.0
146
1.0
273
1
  9

274
1
275
1
276
1
 42
1.0
 72
1
  3

 73
1
 74
1
 75
1
 94
63
  0
MATERIAL
  5
21
102
{ACAD_REACTORS
330
E
102
}
330
E
100
AcDbMaterial
  1
Global
  2

 70
0
 40
1.0
 71
1
 41
1.0
 91
-1023410177
 42
1.0
 72
1
  3

 73
1
 74
1
 75
1
 44
0.5
 73
0
 45
1.0
 46
1.0
 77
1
  4

 78
1
 79
1
170
1
 48
1.0
171
1
  6

172
1
173
1
174
1
140
1.0
141
1.0
175
1
  7

176
1
177
1
178
1
143
1.0
179
1
  8

270
1
271
1
272
1
145
1.0
146
1.0
273
1
  9

274
1
275
1
276
1
 42
1.0
 72
1
  3

 73
1
 74
1
 75
1
 94
63
  0
MLINESTYLE
  5
22
102
{ACAD_REACTORS
330
10
102
}
330
10
100
AcDbMlineStyle
  2
Standard
 70
0
  3

 62
256
 51
90.0
 52
90.0
 71
2
 49
0.5
 62
256
  6
BYLAYER
 49
-0.5
 62
256
  6
BYLAYER
  0
MLEADERSTYLE
  5
2C
102
{ACAD_REACTORS
330
F
102
}
330
F
100
AcDbMLeaderStyle
179
2
170
2
171
1
172
0
 90
2
 40
0.0
 41
0.0
173
1
 91
-1056964608
 92
-2
290
1
 42
2.0
291
1
 43
8.0
  3
Standard
 44
4.0
300

342
29
174
1
175
1
176
0
178
1
 93
-1056964608
 45
4.0
292
0
297
0
 46
4.0
 94
-1056964608
 47
1.0
 49
1.0
140
1.0
294
1
141
0.0
177
0
142
1.0
295
0
296
0
143
3.75
271
0
272
9
273
9
  0
DICTIONARY
  5
2D
330
A
100
AcDbDictionary
280
1
281
1
  3
CREATED_BY_EZDXF
350
2E
  3
WRITTEN_BY_EZDXF
350
131
  0
DICTIONARYVAR
  5
2E
330
2D
100
DictionaryVariables
280
0
  1
1.3.5 @ 2025-05-13T12:53:31.956470+00:00
  0
DICTIONARYVAR
  5
131
330
2D
100
DictionaryVariables
280
0
  1
1.3.5 @ 2025-05-13T12:53:31.970016+00:00
  0
ENDSEC
  0
EOF
