  0
SECTION
  2
HEADER
  9
$ACADVER
  1
AC1024
  9
$ACADMAINTVER
 70
6
  9
$DWGCODEPAGE
  3
ANSI_1252
  9
$LASTSAVEDBY
  1
ezdxf
  9
$INSBASE
 10
0.0
 20
0.0
 30
0.0
  9
$EXTMIN
 10
1e+20
 20
1e+20
 30
1e+20
  9
$EXTMAX
 10
-1e+20
 20
-1e+20
 30
-1e+20
  9
$LIMMIN
 10
0.0
 20
0.0
  9
$LIMMAX
 10
420.0
 20
297.0
  9
$ORTHOMODE
 70
0
  9
$REGENMODE
 70
1
  9
$FILLMODE
 70
1
  9
$QTEXTMODE
 70
0
  9
$MIRRTEXT
 70
1
  9
$LTSCALE
 40
1.0
  9
$ATTMODE
 70
1
  9
$TEXTSIZE
 40
2.5
  9
$TRACEWID
 40
1.0
  9
$TEXTSTYLE
  7
Standard
  9
$CLAYER
  8
0
  9
$CELTYPE
  6
ByLayer
  9
$CECOLOR
 62
256
  9
$CELTSCALE
 40
1.0
  9
$DISPSILH
 70
0
  9
$DIMSCALE
 40
1.0
  9
$DIMASZ
 40
2.5
  9
$DIMEXO
 40
0.625
  9
$DIMDLI
 40
3.75
  9
$DIMRND
 40
0.0
  9
$DIMDLE
 40
0.0
  9
$DIMEXE
 40
1.25
  9
$DIMTP
 40
0.0
  9
$DIMTM
 40
0.0
  9
$DIMTXT
 40
2.5
  9
$DIMCEN
 40
2.5
  9
$DIMTSZ
 40
0.0
  9
$DIMTOL
 70
0
  9
$DIMLIM
 70
0
  9
$DIMTIH
 70
0
  9
$DIMTOH
 70
0
  9
$DIMSE1
 70
0
  9
$DIMSE2
 70
0
  9
$DIMTAD
 70
1
  9
$DIMZIN
 70
8
  9
$DIMBLK
  1

  9
$DIMASO
 70
1
  9
$DIMSHO
 70
1
  9
$DIMPOST
  1

  9
$DIMAPOST
  1

  9
$DIMALT
 70
0
  9
$DIMALTD
 70
3
  9
$DIMALTF
 40
0.03937007874
  9
$DIMLFAC
 40
1.0
  9
$DIMTOFL
 70
1
  9
$DIMTVP
 40
0.0
  9
$DIMTIX
 70
0
  9
$DIMSOXD
 70
0
  9
$DIMSAH
 70
0
  9
$DIMBLK1
  1

  9
$DIMBLK2
  1

  9
$DIMSTYLE
  2
ISO-25
  9
$DIMCLRD
 70
0
  9
$DIMCLRE
 70
0
  9
$DIMCLRT
 70
0
  9
$DIMTFAC
 40
1.0
  9
$DIMGAP
 40
0.625
  9
$DIMJUST
 70
0
  9
$DIMSD1
 70
0
  9
$DIMSD2
 70
0
  9
$DIMTOLJ
 70
0
  9
$DIMTZIN
 70
8
  9
$DIMALTZ
 70
0
  9
$DIMALTTZ
 70
0
  9
$DIMUPT
 70
0
  9
$DIMDEC
 70
2
  9
$DIMTDEC
 70
2
  9
$DIMALTU
 70
2
  9
$DIMALTTD
 70
3
  9
$DIMTXSTY
  7
Standard
  9
$DIMAUNIT
 70
0
  9
$DIMADEC
 70
0
  9
$DIMALTRND
 40
0.0
  9
$DIMAZIN
 70
0
  9
$DIMDSEP
 70
44
  9
$DIMATFIT
 70
3
  9
$DIMFRAC
 70
0
  9
$DIMLDRBLK
  1

  9
$DIMLUNIT
 70
2
  9
$DIMLWD
 70
-2
  9
$DIMLWE
 70
-2
  9
$DIMTMOVE
 70
0
  9
$DIMFXL
 40
1.0
  9
$DIMFXLON
 70
0
  9
$DIMJOGANG
 40
0.785398163397
  9
$DIMTFILL
 70
0
  9
$DIMTFILLCLR
 70
0
  9
$DIMARCSYM
 70
0
  9
$DIMLTYPE
  6

  9
$DIMLTEX1
  6

  9
$DIMLTEX2
  6

  9
$DIMTXTDIRECTION
 70
0
  9
$LUNITS
 70
2
  9
$LUPREC
 70
4
  9
$SKETCHINC
 40
1.0
  9
$FILLETRAD
 40
10.0
  9
$AUNITS
 70
0
  9
$AUPREC
 70
2
  9
$MENU
  1
.
  9
$ELEVATION
 40
0.0
  9
$PELEVATION
 40
0.0
  9
$THICKNESS
 40
0.0
  9
$LIMCHECK
 70
0
  9
$CHAMFERA
 40
0.0
  9
$CHAMFERB
 40
0.0
  9
$CHAMFERC
 40
0.0
  9
$CHAMFERD
 40
0.0
  9
$SKPOLY
 70
0
  9
$TDCREATE
 40
2460788.669212963
  9
$TDUCREATE
 40
2458532.153996898
  9
$TDUPDATE
 40
2460788.669212963
  9
$TDUUPDATE
 40
2458532.1544311
  9
$TDINDWG
 40
0.0
  9
$TDUSRTIMER
 40
0.0
  9
$USRTIMER
 70
1
  9
$ANGBASE
 50
0.0
  9
$ANGDIR
 70
0
  9
$PDMODE
 70
0
  9
$PDSIZE
 40
0.0
  9
$PLINEWID
 40
0.0
  9
$SPLFRAME
 70
0
  9
$SPLINETYPE
 70
6
  9
$SPLINESEGS
 70
8
  9
$HANDSEED
  5
142
  9
$SURFTAB1
 70
6
  9
$SURFTAB2
 70
6
  9
$SURFTYPE
 70
6
  9
$SURFU
 70
6
  9
$SURFV
 70
6
  9
$UCSBASE
  2

  9
$UCSNAME
  2

  9
$UCSORG
 10
0.0
 20
0.0
 30
0.0
  9
$UCSXDIR
 10
1.0
 20
0.0
 30
0.0
  9
$UCSYDIR
 10
0.0
 20
1.0
 30
0.0
  9
$UCSORTHOREF
  2

  9
$UCSORTHOVIEW
 70
0
  9
$UCSORGTOP
 10
0.0
 20
0.0
 30
0.0
  9
$UCSORGBOTTOM
 10
0.0
 20
0.0
 30
0.0
  9
$UCSORGLEFT
 10
0.0
 20
0.0
 30
0.0
  9
$UCSORGRIGHT
 10
0.0
 20
0.0
 30
0.0
  9
$UCSORGFRONT
 10
0.0
 20
0.0
 30
0.0
  9
$UCSORGBACK
 10
0.0
 20
0.0
 30
0.0
  9
$PUCSBASE
  2

  9
$PUCSNAME
  2

  9
$PUCSORG
 10
0.0
 20
0.0
 30
0.0
  9
$PUCSXDIR
 10
1.0
 20
0.0
 30
0.0
  9
$PUCSYDIR
 10
0.0
 20
1.0
 30
0.0
  9
$PUCSORTHOREF
  2

  9
$PUCSORTHOVIEW
 70
0
  9
$PUCSORGTOP
 10
0.0
 20
0.0
 30
0.0
  9
$PUCSORGBOTTOM
 10
0.0
 20
0.0
 30
0.0
  9
$PUCSORGLEFT
 10
0.0
 20
0.0
 30
0.0
  9
$PUCSORGRIGHT
 10
0.0
 20
0.0
 30
0.0
  9
$PUCSORGFRONT
 10
0.0
 20
0.0
 30
0.0
  9
$PUCSORGBACK
 10
0.0
 20
0.0
 30
0.0
  9
$USERI1
 70
0
  9
$USERI2
 70
0
  9
$USERI3
 70
0
  9
$USERI4
 70
0
  9
$USERI5
 70
0
  9
$USERR1
 40
0.0
  9
$USERR2
 40
0.0
  9
$USERR3
 40
0.0
  9
$USERR4
 40
0.0
  9
$USERR5
 40
0.0
  9
$WORLDVIEW
 70
1
  9
$SHADEDGE
 70
3
  9
$SHADEDIF
 70
70
  9
$TILEMODE
 70
1
  9
$MAXACTVP
 70
64
  9
$PINSBASE
 10
0.0
 20
0.0
 30
0.0
  9
$PLIMCHECK
 70
0
  9
$PEXTMIN
 10
1e+20
 20
1e+20
 30
1e+20
  9
$PEXTMAX
 10
-1e+20
 20
-1e+20
 30
-1e+20
  9
$PLIMMIN
 10
0.0
 20
0.0
  9
$PLIMMAX
 10
420.0
 20
297.0
  9
$UNITMODE
 70
0
  9
$VISRETAIN
 70
1
  9
$PLINEGEN
 70
0
  9
$PSLTSCALE
 70
1
  9
$TREEDEPTH
 70
3020
  9
$CMLSTYLE
  2
Standard
  9
$CMLJUST
 70
0
  9
$CMLSCALE
 40
20.0
  9
$PROXYGRAPHICS
 70
1
  9
$MEASUREMENT
 70
1
  9
$CELWEIGHT
370
-1
  9
$ENDCAPS
280
0
  9
$JOINSTYLE
280
0
  9
$LWDISPLAY
290
0
  9
$INSUNITS
 70
6
  9
$HYPERLINKBASE
  1

  9
$STYLESHEET
  1

  9
$XEDIT
290
1
  9
$CEPSNTYPE
380
0
  9
$PSTYLEMODE
290
1
  9
$FINGERPRINTGUID
  2
{A563933D-B651-465C-AEE4-15C48D80996F}
  9
$VERSIONGUID
  2
{C8B888B1-1DFC-49DA-B313-A94904D7D0D9}
  9
$EXTNAMES
290
1
  9
$PSVPSCALE
 40
0.0
  9
$OLESTARTUP
290
0
  9
$SORTENTS
280
127
  9
$INDEXCTL
280
0
  9
$HIDETEXT
280
1
  9
$XCLIPFRAME
280
1
  9
$HALOGAP
280
0
  9
$OBSCOLOR
 70
257
  9
$OBSLTYPE
280
0
  9
$INTERSECTIONDISPLAY
280
0
  9
$INTERSECTIONCOLOR
 70
257
  9
$DIMASSOC
280
2
  9
$PROJECTNAME
  1

  9
$CAMERADISPLAY
290
0
  9
$LENSLENGTH
 40
50.0
  9
$CAMERAHEIGHT
 40
0.0
  9
$STEPSPERSEC
 40
24.0
  9
$STEPSIZE
 40
100.0
  9
$3DDWFPREC
 40
2.0
  9
$PSOLWIDTH
 40
0.005
  9
$PSOLHEIGHT
 40
0.08
  9
$LOFTANG1
 40
1.570796326795
  9
$LOFTANG2
 40
1.570796326795
  9
$LOFTMAG1
 40
0.0
  9
$LOFTMAG2
 40
0.0
  9
$LOFTPARAM
 70
7
  9
$LOFTNORMALS
280
1
  9
$LATITUDE
 40
37.795
  9
$LONGITUDE
 40
-122.394
  9
$NORTHDIRECTION
 40
0.0
  9
$TIMEZONE
 70
-8000
  9
$LIGHTGLYPHDISPLAY
280
1
  9
$TILEMODELIGHTSYNCH
280
1
  9
$CMATERIAL
347
20
  9
$SOLIDHIST
280
0
  9
$SHOWHIST
280
1
  9
$DWFFRAME
280
2
  9
$DGNFRAME
280
2
  9
$REALWORLDSCALE
290
1
  9
$INTERFERECOLOR
 62
256
  9
$CSHADOW
280
0
  9
$SHADOWPLANELOCATION
 40
0.0
  0
ENDSEC
  0
SECTION
  2
CLASSES
  0
CLASS
  1
ACDBDICTIONARYWDFLT
  2
AcDbDictionaryWithDefault
  3
ObjectDBX Classes
 90
0
 91
0
280
0
281
0
  0
CLASS
  1
SUN
  2
AcDbSun
  3
SCENEOE
 90
1153
 91
0
280
0
281
0
  0
CLASS
  1
VISUALSTYLE
  2
AcDbVisualStyle
  3
ObjectDBX Classes
 90
4095
 91
0
280
0
281
0
  0
CLASS
  1
MATERIAL
  2
AcDbMaterial
  3
ObjectDBX Classes
 90
1153
 91
0
280
0
281
0
  0
CLASS
  1
SCALE
  2
AcDbScale
  3
ObjectDBX Classes
 90
1153
 91
0
280
0
281
0
  0
CLASS
  1
TABLESTYLE
  2
AcDbTableStyle
  3
ObjectDBX Classes
 90
4095
 91
0
280
0
281
0
  0
CLASS
  1
MLEADERSTYLE
  2
AcDbMLeaderStyle
  3
ACDB_MLEADERSTYLE_CLASS
 90
4095
 91
0
280
0
281
0
  0
CLASS
  1
DICTIONARYVAR
  2
AcDbDictionaryVar
  3
ObjectDBX Classes
 90
0
 91
0
280
0
281
0
  0
CLASS
  1
CELLSTYLEMAP
  2
AcDbCellStyleMap
  3
ObjectDBX Classes
 90
1152
 91
0
280
0
281
0
  0
CLASS
  1
MENTALRAYRENDERSETTINGS
  2
AcDbMentalRayRenderSettings
  3
SCENEOE
 90
1024
 91
0
280
0
281
0
  0
CLASS
  1
ACDBDETAILVIEWSTYLE
  2
AcDbDetailViewStyle
  3
ObjectDBX Classes
 90
1025
 91
0
280
0
281
0
  0
CLASS
  1
ACDBSECTIONVIEWSTYLE
  2
AcDbSectionViewStyle
  3
ObjectDBX Classes
 90
1025
 91
0
280
0
281
0
  0
CLASS
  1
RASTERVARIABLES
  2
AcDbRasterVariables
  3
ISM
 90
0
 91
0
280
0
281
0
  0
CLASS
  1
LAYOUT
  2
AcDbLayout
  3
ObjectDBX Classes
 90
0
 91
0
280
0
281
0
  0
CLASS
  1
ACDBPLACEHOLDER
  2
AcDbPlaceHolder
  3
ObjectDBX Classes
 90
0
 91
0
280
0
281
0
  0
ENDSEC
  0
SECTION
  2
TABLES
  0
TABLE
  2
VPORT
  5
8
330
0
100
AcDbSymbolTable
 70
1
  0
VPORT
  5
23
330
8
100
AcDbSymbolTableRecord
100
AcDbViewportTableRecord
  2
*Active
 70
0
 10
0.0
 20
0.0
 11
1.0
 21
1.0
 12
0.0
 22
0.0
 13
0.0
 23
0.0
 14
0.5
 24
0.5
 15
0.5
 25
0.5
 16
0.0
 26
0.0
 36
1.0
 17
0.0
 27
0.0
 37
0.0
 40
1000.0
 41
1.34
 42
50.0
 43
0.0
 44
0.0
 50
0.0
 51
0.0
 71
0
 72
1000
 73
1
 74
3
 75
0
 76
0
 77
0
 78
0
281
0
 65
0
146
0.0
  0
ENDTAB
  0
TABLE
  2
LTYPE
  5
2
330
0
100
AcDbSymbolTable
 70
3
  0
LTYPE
  5
24
330
2
100
AcDbSymbolTableRecord
100
AcDbLinetypeTableRecord
  2
ByBlock
 70
0
  3

 72
65
 73
0
 40
0.0
  0
LTYPE
  5
25
330
2
100
AcDbSymbolTableRecord
100
AcDbLinetypeTableRecord
  2
ByLayer
 70
0
  3

 72
65
 73
0
 40
0.0
  0
LTYPE
  5
26
330
2
100
AcDbSymbolTableRecord
100
AcDbLinetypeTableRecord
  2
Continuous
 70
0
  3

 72
65
 73
0
 40
0.0
  0
ENDTAB
  0
TABLE
  2
LAYER
  5
1
330
0
100
AcDbSymbolTable
 70
2
  0
LAYER
  5
27
330
1
100
AcDbSymbolTableRecord
100
AcDbLayerTableRecord
  2
0
 70
0
 62
7
  6
Continuous
370
-3
390
13
347
21
  0
LAYER
  5
28
330
1
100
AcDbSymbolTableRecord
100
AcDbLayerTableRecord
  2
Defpoints
 70
0
 62
7
  6
Continuous
290
0
370
-3
390
13
347
21
  0
ENDTAB
  0
TABLE
  2
STYLE
  5
5
330
0
100
AcDbSymbolTable
 70
1
  0
STYLE
  5
29
330
5
100
AcDbSymbolTableRecord
100
AcDbTextStyleTableRecord
  2
Standard
 70
0
 40
0.0
 41
1.0
 50
0.0
 71
0
 42
2.5
  3
txt
  4

  0
ENDTAB
  0
TABLE
  2
VIEW
  5
7
330
0
100
AcDbSymbolTable
 70
0
  0
ENDTAB
  0
TABLE
  2
UCS
  5
6
330
0
100
AcDbSymbolTable
 70
0
  0
ENDTAB
  0
TABLE
  2
APPID
  5
3
330
0
100
AcDbSymbolTable
 70
3
  0
APPID
  5
2A
330
3
100
AcDbSymbolTableRecord
100
AcDbRegAppTableRecord
  2
ACAD
 70
0
  0
APPID
  5
13F
330
3
100
AcDbSymbolTableRecord
100
AcDbRegAppTableRecord
  2
HATCHBACKGROUNDCOLOR
 70
0
  0
APPID
  5
140
330
3
100
AcDbSymbolTableRecord
100
AcDbRegAppTableRecord
  2
EZDXF
 70
0
  0
ENDTAB
  0
TABLE
  2
DIMSTYLE
  5
4
330
0
100
AcDbSymbolTable
 70
1
100
AcDbDimStyleTable
  0
DIMSTYLE
105
2B
330
4
100
AcDbSymbolTableRecord
100
AcDbDimStyleTableRecord
  2
Standard
 70
0
 40
1.0
 41
2.5
 42
0.625
 43
3.75
 44
1.25
 45
0.0
 46
0.0
 47
0.0
 48
0.0
 49
2.5
140
2.5
141
2.5
142
0.0
143
0.03937007874
144
1.0
145
0.0
146
1.0
147
0.625
148
0.0
 69
0
 70
0
 71
0
 72
0
 73
0
 74
0
 75
0
 76
0
 77
1
 78
8
 79
3
170
0
171
3
172
1
173
0
174
0
175
0
176
0
177
0
178
0
179
2
271
2
272
2
273
2
274
3
275
0
276
0
277
2
278
44
279
0
280
0
281
0
282
0
283
0
284
8
285
0
286
0
288
0
289
3
290
0
371
-2
372
-2
  0
ENDTAB
  0
TABLE
  2
BLOCK_RECORD
  5
9
330
0
100
AcDbSymbolTable
 70
4
  0
BLOCK_RECORD
  5
17
330
9
100
AcDbSymbolTableRecord
100
AcDbBlockTableRecord
  2
*Model_Space
340
1A
 70
0
280
1
281
0
  0
BLOCK_RECORD
  5
1B
330
9
100
AcDbSymbolTableRecord
100
AcDbBlockTableRecord
  2
*Paper_Space
340
1E
 70
0
280
1
281
0
  0
BLOCK_RECORD
  5
2F
330
9
100
AcDbSymbolTableRecord
100
AcDbBlockTableRecord
  2
FLAG
340
0
 70
0
280
1
281
0
  0
BLOCK_RECORD
  5
38
330
9
100
AcDbSymbolTableRecord
100
AcDbBlockTableRecord
  2
штамп
340
0
 70
0
280
1
281
0
  0
ENDTAB
  0
ENDSEC
  0
SECTION
  2
BLOCKS
  0
BLOCK
  5
18
330
17
100
AcDbEntity
  8
0
100
AcDbBlockBegin
  2
*Model_Space
 70
0
 10
0.0
 20
0.0
 30
0.0
  3
*Model_Space
  1

  0
ENDBLK
  5
19
330
17
100
AcDbEntity
  8
0
100
AcDbBlockEnd
  0
BLOCK
  5
1C
330
1B
100
AcDbEntity
  8
0
100
AcDbBlockBegin
  2
*Paper_Space
 70
0
 10
0.0
 20
0.0
 30
0.0
  3
*Paper_Space
  1

  0
ENDBLK
  5
1D
330
1B
100
AcDbEntity
  8
0
100
AcDbBlockEnd
  0
BLOCK
  5
30
330
2F
100
AcDbEntity
  8
0
100
AcDbBlockBegin
  2
FLAG
 70
2
 10
0.0
 20
0.0
 30
0.0
  3
FLAG
  1

  0
TEXT
  5
32
330
2F
100
AcDbEntity
  8
0
 62
3
100
AcDbText
 10
0.0
 20
-0.5
 30
0.0
 40
0.5
  1
NAME:
100
AcDbText
  0
ATTDEF
  5
33
330
2F
100
AcDbEntity
  8
0
 62
3
100
AcDbText
 10
1.5
 20
-0.5
 30
0.0
 40
0.5
  1

100
AcDbAttributeDefinition
  3

  2
NAME
 70
0
  0
TEXT
  5
34
330
2F
100
AcDbEntity
  8
0
 62
4
100
AcDbText
 10
0.0
 20
-1.0
 30
0.0
 40
0.25
  1
XPOS:
100
AcDbText
  0
ATTDEF
  5
35
330
2F
100
AcDbEntity
  8
0
 62
4
100
AcDbText
 10
1.5
 20
-1.0
 30
0.0
 40
0.25
  1

100
AcDbAttributeDefinition
  3

  2
XPOS
 70
0
  0
TEXT
  5
36
330
2F
100
AcDbEntity
  8
0
 62
4
100
AcDbText
 10
0.0
 20
-1.5
 30
0.0
 40
0.25
  1
YPOS:
100
AcDbText
  0
ATTDEF
  5
37
330
2F
100
AcDbEntity
  8
0
 62
4
100
AcDbText
 10
1.5
 20
-1.5
 30
0.0
 40
0.25
  1

100
AcDbAttributeDefinition
  3

  2
YPOS
 70
0
  0
ENDBLK
  5
31
330
2F
100
AcDbEntity
  8
0
100
AcDbBlockEnd
  0
BLOCK
  5
39
330
38
100
AcDbEntity
  8
0
100
AcDbBlockBegin
  2
штамп
 70
2
 10
0.0
 20
0.0
 30
0.0
  3
штамп
  1

  0
LWPOLYLINE
  5
3D
330
38
100
AcDbEntity
  8
F_TitleBox
 62
4
100
AcDbPolyline
 90
5
 70
1
 10
-34.0
 20
-98.0
 10
-34.0
 20
199.0
 10
176.0
 20
199.0
 10
176.0
 20
-98.0
 10
-34.0
 20
-98.0
  0
LWPOLYLINE
  5
3E
330
38
100
AcDbEntity
  8
F_TitleBox
 62
2
100
AcDbPolyline
 90
5
 70
1
 43
0.4
 10
-14.0
 20
-93.0
 10
-14.0
 20
194.0
 10
171.0
 20
194.0
 10
171.0
 20
-93.0
 10
-14.0
 20
-93.0
  0
POINT
  5
3F
330
38
100
AcDbEntity
  8
POINTS
 62
1
100
AcDbPoint
 10
0.0
 20
0.0
 30
0.0
  0
TEXT
  5
40
330
38
100
AcDbEntity
  8
0
 62
3
100
AcDbText
 10
0.0
 20
0.0
 30
0.0
 40
0.5
  1
Name:
100
AcDbText
  0
ATTDEF
  5
41
330
38
100
AcDbEntity
  8
0
 62
3
100
AcDbText
 10
1.0
 20
0.0
 30
0.0
 40
0.5
  1

100
AcDbAttributeDefinition
  3

  2
NAME
 70
0
  0
ENDBLK
  5
3A
330
38
100
AcDbEntity
  8
0
100
AcDbBlockEnd
  0
ENDSEC
  0
SECTION
  2
ENTITIES
  0
INSERT
  5
3B
330
17
100
AcDbEntity
  8
F_TitleBox
100
AcDbBlockReference
  2
штамп
 10
0.0
 20
0.0
 30
0.0
  0
INSERT
  5
42
330
17
100
AcDbEntity
  8
0
100
AcDbBlockReference
 66
1
  2
штамп
 10
10.0
 20
20.0
 30
0.0
 41
3.8
 42
3.8
 43
3.8
 50
15.0
  0
ATTRIB
  5
44
330
17
100
AcDbEntity
  8
0
 62
3
100
AcDbText
 10
13.670518139898459
 20
20.98351237138958
 30
0.0
 40
1.9
  1
Object
 50
14.999999999999998
 11
13.670518139898459
 21
20.98351237138958
 31
0.0
100
AcDbAttribute
  2
NAME
 70
0
  0
SEQEND
  5
43
330
42
100
AcDbEntity
  8
0
  0
INSERT
  5
45
330
17
100
AcDbEntity
  8
0
100
AcDbBlockReference
 66
1
  2
FLAG
 10
58.0
 20
43.0
 30
0.0
 41
0.83245430572202
 42
0.83245430572202
 43
0.83245430572202
 50
15.0
  0
ATTRIB
  5
47
330
17
100
AcDbEntity
  8
0
 62
3
100
AcDbText
 10
59.31386118390288
 20
42.92113798619646
 30
0.0
 40
0.41622715286101
  1
P(1)
 50
14.999999999999998
 11
59.31386118390288
 21
42.92113798619646
 31
0.0
100
AcDbAttribute
  2
NAME
 70
0
  0
ATTRIB
  5
48
330
17
100
AcDbEntity
  8
0
 62
4
100
AcDbText
 10
59.42158869815211
 20
42.519093429645245
 30
0.0
 40
0.208113576430505
  1
= 58.000
 50
14.999999999999998
 11
59.42158869815211
 21
42.519093429645245
 31
0.0
100
AcDbAttribute
  2
XPOS
 70
0
  0
ATTRIB
  5
49
330
17
100
AcDbEntity
  8
0
 62
4
100
AcDbText
 10
59.52931621240133
 20
42.11704887309403
 30
0.0
 40
0.208113576430505
  1
= 43.000
 50
14.999999999999998
 11
59.52931621240133
 21
42.11704887309403
 31
0.0
100
AcDbAttribute
  2
YPOS
 70
0
  0
SEQEND
  5
46
330
45
100
AcDbEntity
  8
0
  0
INSERT
  5
4A
330
17
100
AcDbEntity
  8
0
100
AcDbBlockReference
 66
1
  2
FLAG
 10
57.0
 20
43.0
 30
0.0
 41
2.1106460550317925
 42
2.1106460550317925
 43
2.1106460550317925
 50
15.0
  0
ATTRIB
  5
4C
330
17
100
AcDbEntity
  8
0
 62
3
100
AcDbText
 10
60.33122900032188
 20
42.80004932741392
 30
0.0
 40
1.0553230275158962
  1
P(2)
 50
14.999999999999998
 11
60.33122900032188
 21
42.80004932741392
 31
0.0
100
AcDbAttribute
  2
NAME
 70
0
  0
ATTRIB
  5
4D
330
17
100
AcDbEntity
  8
0
 62
4
100
AcDbText
 10
60.60436669857825
 20
41.78068556005875
 30
0.0
 40
0.5276615137579481
  1
= 57.000
 50
14.999999999999998
 11
60.60436669857825
 21
41.78068556005875
 31
0.0
100
AcDbAttribute
  2
XPOS
 70
0
  0
ATTRIB
  5
4E
330
17
100
AcDbEntity
  8
0
 62
4
100
AcDbText
 10
60.87750439683462
 20
40.761321792703576
 30
0.0
 40
0.5276615137579481
  1
= 43.000
 50
14.999999999999998
 11
60.87750439683462
 21
40.761321792703576
 31
0.0
100
AcDbAttribute
  2
YPOS
 70
0
  0
SEQEND
  5
4B
330
4A
100
AcDbEntity
  8
0
  0
INSERT
  5
4F
330
17
100
AcDbEntity
  8
0
100
AcDbBlockReference
 66
1
  2
FLAG
 10
9.0
 20
-34.0
 30
0.0
 41
0.8313552707736207
 42
0.8313552707736207
 43
0.8313552707736207
 50
15.0
  0
ATTRIB
  5
51
330
17
100
AcDbEntity
  8
0
 62
3
100
AcDbText
 10
10.312126578953961
 20
-34.078757897447026
 30
0.0
 40
0.41567763538681035
  1
P(3)
 50
14.999999999999998
 11
10.312126578953961
 21
-34.078757897447026
 31
0.0
100
AcDbAttribute
  2
NAME
 70
0
  0
ATTRIB
  5
52
330
17
100
AcDbEntity
  8
0
 62
4
100
AcDbText
 10
10.419711867615248
 20
-34.48027166087792
 30
0.0
 40
0.20783881769340518
  1
= 9.000
 50
14.999999999999998
 11
10.419711867615248
 21
-34.48027166087792
 31
0.0
100
AcDbAttribute
  2
XPOS
 70
0
  0
ATTRIB
  5
53
330
17
100
AcDbEntity
  8
0
 62
4
100
AcDbText
 10
10.527297156276536
 20
-34.88178542430881
 30
0.0
 40
0.20783881769340518
  1
= -34.000
 50
14.999999999999998
 11
10.527297156276536
 21
-34.88178542430881
 31
0.0
100
AcDbAttribute
  2
YPOS
 70
0
  0
SEQEND
  5
50
330
4F
100
AcDbEntity
  8
0
  0
INSERT
  5
54
330
17
100
AcDbEntity
  8
0
100
AcDbBlockReference
 66
1
  2
FLAG
 10
-79.0
 20
12.0
 30
0.0
 41
0.9663139217734347
 42
0.9663139217734347
 43
0.9663139217734347
 50
15.0
  0
ATTRIB
  5
56
330
17
100
AcDbEntity
  8
0
 62
3
100
AcDbText
 10
-77.47486841673322
 20
11.908456883082192
 30
0.0
 40
0.48315696088671733
  1
P(4)
 50
14.999999999999998
 11
-77.47486841673322
 21
11.908456883082192
 31
0.0
100
AcDbAttribute
  2
NAME
 70
0
  0
ATTRIB
  5
57
330
17
100
AcDbEntity
  8
0
 62
4
100
AcDbText
 10
-77.34981819348188
 20
11.441763096410373
 30
0.0
 40
0.24157848044335867
  1
= -79.000
 50
14.999999999999998
 11
-77.34981819348188
 21
11.441763096410373
 31
0.0
100
AcDbAttribute
  2
XPOS
 70
0
  0
ATTRIB
  5
58
330
17
100
AcDbEntity
  8
0
 62
4
100
AcDbText
 10
-77.22476797023054
 20
10.975069309738556
 30
0.0
 40
0.24157848044335867
  1
= 12.000
 50
14.999999999999998
 11
-77.22476797023054
 21
10.975069309738556
 31
0.0
100
AcDbAttribute
  2
YPOS
 70
0
  0
SEQEND
  5
55
330
54
100
AcDbEntity
  8
0
  0
INSERT
  5
59
330
17
100
AcDbEntity
  8
0
100
AcDbBlockReference
 66
1
  2
FLAG
 10
-89.0
 20
-5.0
 30
0.0
 41
1.6300870024749512
 42
1.6300870024749512
 43
1.6300870024749512
 50
15.0
  0
ATTRIB
  5
5B
330
17
100
AcDbEntity
  8
0
 62
3
100
AcDbText
 10
-86.42723651710968
 20
-5.154425225272448
 30
0.0
 40
0.8150435012374756
  1
P(5)
 50
14.999999999999998
 11
-86.42723651710968
 21
-5.154425225272448
 31
0.0
100
AcDbAttribute
  2
NAME
 70
0
  0
ATTRIB
  5
5C
330
17
100
AcDbEntity
  8
0
 62
4
100
AcDbText
 10
-86.21628773640236
 20
-5.941696792666792
 30
0.0
 40
0.4075217506187378
  1
= -89.000
 50
14.999999999999998
 11
-86.21628773640236
 21
-5.941696792666792
 31
0.0
100
AcDbAttribute
  2
XPOS
 70
0
  0
ATTRIB
  5
5D
330
17
100
AcDbEntity
  8
0
 62
4
100
AcDbText
 10
-86.00533895569507
 20
-6.728968360061136
 30
0.0
 40
0.4075217506187378
  1
= -5.000
 50
14.999999999999998
 11
-86.00533895569507
 21
-6.728968360061136
 31
0.0
100
AcDbAttribute
  2
YPOS
 70
0
  0
SEQEND
  5
5A
330
59
100
AcDbEntity
  8
0
  0
INSERT
  5
5E
330
17
100
AcDbEntity
  8
0
100
AcDbBlockReference
 66
1
  2
FLAG
 10
69.0
 20
-7.0
 30
0.0
 41
0.9109867330134018
 42
0.9109867330134018
 43
0.9109867330134018
 50
15.0
  0
ATTRIB
  5
60
330
17
100
AcDbEntity
  8
0
 62
3
100
AcDbText
 10
70.43780877740632
 20
-7.086301731902784
 30
0.0
 40
0.4554933665067009
  1
P(6)
 50
14.999999999999998
 11
70.43780877740632
 21
-7.086301731902784
 31
0.0
100
AcDbAttribute
  2
NAME
 70
0
  0
ATTRIB
  5
61
330
17
100
AcDbEntity
  8
0
 62
4
100
AcDbText
 10
70.55569913557612
 20
-7.526274538314959
 30
0.0
 40
0.22774668325335046
  1
= 69.000
 50
14.999999999999998
 11
70.55569913557612
 21
-7.526274538314959
 31
0.0
100
AcDbAttribute
  2
XPOS
 70
0
  0
ATTRIB
  5
62
330
17
100
AcDbEntity
  8
0
 62
4
100
AcDbText
 10
70.67358949374591
 20
-7.966247344727133
 30
0.0
 40
0.22774668325335046
  1
= -7.000
 50
14.999999999999998
 11
70.67358949374591
 21
-7.966247344727133
 31
0.0
100
AcDbAttribute
  2
YPOS
 70
0
  0
SEQEND
  5
5F
330
5E
100
AcDbEntity
  8
0
  0
INSERT
  5
63
330
17
100
AcDbEntity
  8
0
100
AcDbBlockReference
 66
1
  2
FLAG
 10
44.0
 20
94.0
 30
0.0
 41
1.0086351454735283
 42
1.0086351454735283
 43
1.0086351454735283
 50
15.0
  0
ATTRIB
  5
65
330
17
100
AcDbEntity
  8
0
 62
3
100
AcDbText
 10
45.59192709707772
 20
93.9044476096546
 30
0.0
 40
0.5043175727367641
  1
P(7)
 50
14.999999999999998
 11
45.59192709707772
 21
93.9044476096546
 31
0.0
100
AcDbAttribute
  2
NAME
 70
0
  0
ATTRIB
  5
66
330
17
100
AcDbEntity
  8
0
 62
4
100
AcDbText
 10
45.72245408968187
 20
93.41731424149674
 30
0.0
 40
0.25215878636838207
  1
= 44.000
 50
14.999999999999998
 11
45.72245408968187
 21
93.41731424149674
 31
0.0
100
AcDbAttribute
  2
XPOS
 70
0
  0
ATTRIB
  5
67
330
17
100
AcDbEntity
  8
0
 62
4
100
AcDbText
 10
45.85298108228602
 20
92.93018087333888
 30
0.0
 40
0.25215878636838207
  1
= 94.000
 50
14.999999999999998
 11
45.85298108228602
 21
92.93018087333888
 31
0.0
100
AcDbAttribute
  2
YPOS
 70
0
  0
SEQEND
  5
64
330
63
100
AcDbEntity
  8
0
  0
INSERT
  5
68
330
17
100
AcDbEntity
  8
0
100
AcDbBlockReference
 66
1
  2
FLAG
 10
20.0
 20
34.0
 30
0.0
 41
2.1454691937019845
 42
2.1454691937019845
 43
2.1454691937019845
 50
15.0
  0
ATTRIB
  5
6A
330
17
100
AcDbEntity
  8
0
 62
3
100
AcDbText
 10
23.386190299561907
 20
33.79675038016407
 30
0.0
 40
1.0727345968509923
  1
P(8)
 50
14.999999999999998
 11
23.386190299561907
 21
33.79675038016407
 31
0.0
100
AcDbAttribute
  2
NAME
 70
0
  0
ATTRIB
  5
6B
330
17
100
AcDbEntity
  8
0
 62
4
100
AcDbText
 10
23.663834443567318
 20
32.760568328311905
 30
0.0
 40
0.5363672984254961
  1
= 20.000
 50
14.999999999999998
 11
23.663834443567318
 21
32.760568328311905
 31
0.0
100
AcDbAttribute
  2
XPOS
 70
0
  0
ATTRIB
  5
6C
330
17
100
AcDbEntity
  8
0
 62
4
100
AcDbText
 10
23.941478587572732
 20
31.72438627645974
 30
0.0
 40
0.5363672984254961
  1
= 34.000
 50
14.999999999999998
 11
23.941478587572732
 21
31.72438627645974
 31
0.0
100
AcDbAttribute
  2
YPOS
 70
0
  0
SEQEND
  5
69
330
68
100
AcDbEntity
  8
0
  0
INSERT
  5
6D
330
17
100
AcDbEntity
  8
0
100
AcDbBlockReference
 66
1
  2
FLAG
 10
66.0
 20
-73.0
 30
0.0
 41
1.2060305406952756
 42
1.2060305406952756
 43
1.2060305406952756
 50
15.0
  0
ATTRIB
  5
6F
330
17
100
AcDbEntity
  8
0
 62
3
100
AcDbText
 10
67.90347590628002
 20
-73.11425251391462
 30
0.0
 40
0.6030152703476378
  1
P(9)
 50
14.999999999999998
 11
67.90347590628002
 21
-73.11425251391462
 31
0.0
100
AcDbAttribute
  2
NAME
 70
0
  0
ATTRIB
  5
70
330
17
100
AcDbEntity
  8
0
 62
4
100
AcDbText
 10
68.05954774273363
 20
-73.69672053719009
 30
0.0
 40
0.3015076351738189
  1
= 66.000
 50
14.999999999999998
 11
68.05954774273363
 21
-73.69672053719009
 31
0.0
100
AcDbAttribute
  2
XPOS
 70
0
  0
ATTRIB
  5
71
330
17
100
AcDbEntity
  8
0
 62
4
100
AcDbText
 10
68.21561957918725
 20
-74.27918856046556
 30
0.0
 40
0.3015076351738189
  1
= -73.000
 50
14.999999999999998
 11
68.21561957918725
 21
-74.27918856046556
 31
0.0
100
AcDbAttribute
  2
YPOS
 70
0
  0
SEQEND
  5
6E
330
6D
100
AcDbEntity
  8
0
  0
INSERT
  5
72
330
17
100
AcDbEntity
  8
0
100
AcDbBlockReference
 66
1
  2
FLAG
 10
62.0
 20
-22.0
 30
0.0
 41
0.6073502182632868
 42
0.6073502182632868
 43
0.6073502182632868
 50
15.0
  0
ATTRIB
  5
74
330
17
100
AcDbEntity
  8
0
 62
3
100
AcDbText
 10
62.95857979390107
 20
-22.05753692541084
 30
0.0
 40
0.3036751091316434
  1
P(10)
 50
14.999999999999998
 11
62.95857979390107
 21
-22.05753692541084
 31
0.0
100
AcDbAttribute
  2
NAME
 70
0
  0
ATTRIB
  5
75
330
17
100
AcDbEntity
  8
0
 62
4
100
AcDbText
 10
63.03717669566793
 20
-22.350864556122243
 30
0.0
 40
0.1518375545658217
  1
= 62.000
 50
14.999999999999998
 11
63.03717669566793
 21
-22.350864556122243
 31
0.0
100
AcDbAttribute
  2
XPOS
 70
0
  0
ATTRIB
  5
76
330
17
100
AcDbEntity
  8
0
 62
4
100
AcDbText
 10
63.11577359743478
 20
-22.64419218683365
 30
0.0
 40
0.1518375545658217
  1
= -22.000
 50
14.999999999999998
 11
63.11577359743478
 21
-22.64419218683365
 31
0.0
100
AcDbAttribute
  2
YPOS
 70
0
  0
SEQEND
  5
73
330
72
100
AcDbEntity
  8
0
  0
INSERT
  5
77
330
17
100
AcDbEntity
  8
0
100
AcDbBlockReference
 66
1
  2
FLAG
 10
-96.0
 20
-45.0
 30
0.0
 41
2.055069010663442
 42
2.055069010663442
 43
2.055069010663442
 50
15.0
  0
ATTRIB
  5
79
330
17
100
AcDbEntity
  8
0
 62
3
100
AcDbText
 10
-92.75648815221093
 20
-45.19468561766353
 30
0.0
 40
1.027534505331721
  1
P(11)
 50
15.000000000000002
 11
-92.75648815221093
 21
-45.19468561766353
 31
0.0
100
AcDbAttribute
  2
NAME
 70
0
  0
ATTRIB
  5
7A
330
17
100
AcDbEntity
  8
0
 62
4
100
AcDbText
 10
-92.4905426527311
 20
-46.187207733766606
 30
0.0
 40
0.5137672526658605
  1
= -96.000
 50
15.000000000000002
 11
-92.4905426527311
 21
-46.187207733766606
 31
0.0
100
AcDbAttribute
  2
XPOS
 70
0
  0
ATTRIB
  5
7B
330
17
100
AcDbEntity
  8
0
 62
4
100
AcDbText
 10
-92.22459715325124
 20
-47.17972984986967
 30
0.0
 40
0.5137672526658605
  1
= -45.000
 50
15.000000000000002
 11
-92.22459715325124
 21
-47.17972984986967
 31
0.0
100
AcDbAttribute
  2
YPOS
 70
0
  0
SEQEND
  5
78
330
77
100
AcDbEntity
  8
0
  0
INSERT
  5
7C
330
17
100
AcDbEntity
  8
0
100
AcDbBlockReference
 66
1
  2
FLAG
 10
-94.0
 20
62.0
 30
0.0
 41
1.0711604439994702
 42
1.0711604439994702
 43
1.0711604439994702
 50
15.0
  0
ATTRIB
  5
7E
330
17
100
AcDbEntity
  8
0
 62
3
100
AcDbText
 10
-92.3093893329287
 20
61.898524316422126
 30
0.0
 40
0.5355802219997351
  1
P(12)
 50
14.999999999999998
 11
-92.3093893329287
 21
61.898524316422126
 31
0.0
100
AcDbAttribute
  2
NAME
 70
0
  0
ATTRIB
  5
7F
330
17
100
AcDbEntity
  8
0
 62
4
100
AcDbText
 10
-92.17077097129493
 20
61.38119354794295
 30
0.0
 40
0.26779011099986755
  1
= -94.000
 50
14.999999999999998
 11
-92.17077097129493
 21
61.38119354794295
 31
0.0
100
AcDbAttribute
  2
XPOS
 70
0
  0
ATTRIB
  5
80
330
17
100
AcDbEntity
  8
0
 62
4
100
AcDbText
 10
-92.03215260966117
 20
60.86386277946377
 30
0.0
 40
0.26779011099986755
  1
= 62.000
 50
14.999999999999998
 11
-92.03215260966117
 21
60.86386277946377
 31
0.0
100
AcDbAttribute
  2
YPOS
 70
0
  0
SEQEND
  5
7D
330
7C
100
AcDbEntity
  8
0
  0
INSERT
  5
81
330
17
100
AcDbEntity
  8
0
100
AcDbBlockReference
 66
1
  2
FLAG
 10
-82.0
 20
-11.0
 30
0.0
 41
0.6560918449846713
 42
0.6560918449846713
 43
0.6560918449846713
 50
15.0
  0
ATTRIB
  5
83
330
17
100
AcDbEntity
  8
0
 62
3
100
AcDbText
 10
-80.96449138135826
 20
-11.062154431516444
 30
0.0
 40
0.32804592249233566
  1
P(13)
 50
14.999999999999998
 11
-80.96449138135826
 21
-11.062154431516444
 31
0.0
100
AcDbAttribute
  2
NAME
 70
0
  0
ATTRIB
  5
84
330
17
100
AcDbEntity
  8
0
 62
4
100
AcDbText
 10
-80.879586848949
 20
-11.379022460260613
 30
0.0
 40
0.16402296124616783
  1
= -82.000
 50
14.999999999999998
 11
-80.879586848949
 21
-11.379022460260613
 31
0.0
100
AcDbAttribute
  2
XPOS
 70
0
  0
ATTRIB
  5
85
330
17
100
AcDbEntity
  8
0
 62
4
100
AcDbText
 10
-80.79468231653976
 20
-11.695890489004782
 30
0.0
 40
0.16402296124616783
  1
= -11.000
 50
14.999999999999998
 11
-80.79468231653976
 21
-11.695890489004782
 31
0.0
100
AcDbAttribute
  2
YPOS
 70
0
  0
SEQEND
  5
82
330
81
100
AcDbEntity
  8
0
  0
INSERT
  5
86
330
17
100
AcDbEntity
  8
0
100
AcDbBlockReference
 66
1
  2
FLAG
 10
100.0
 20
-2.0
 30
0.0
 41
0.9702194292455901
 42
0.9702194292455901
 43
0.9702194292455901
 50
15.0
  0
ATTRIB
  5
88
330
17
100
AcDbEntity
  8
0
 62
3
100
AcDbText
 10
101.53129563892226
 20
-2.091913102611993
 30
0.0
 40
0.4851097146227951
  1
P(14)
 50
14.999999999999998
 11
101.53129563892226
 21
-2.091913102611993
 31
0.0
100
AcDbAttribute
  2
NAME
 70
0
  0
ATTRIB
  5
89
330
17
100
AcDbEntity
  8
0
 62
4
100
AcDbText
 10
101.65685127203089
 20
-2.5604931045498702
 30
0.0
 40
0.24255485731139756
  1
= 100.000
 50
14.999999999999998
 11
101.65685127203089
 21
-2.5604931045498702
 31
0.0
100
AcDbAttribute
  2
XPOS
 70
0
  0
ATTRIB
  5
8A
330
17
100
AcDbEntity
  8
0
 62
4
100
AcDbText
 10
101.78240690513951
 20
-3.029073106487748
 30
0.0
 40
0.24255485731139756
  1
= -2.000
 50
14.999999999999998
 11
101.78240690513951
 21
-3.029073106487748
 31
0.0
100
AcDbAttribute
  2
YPOS
 70
0
  0
SEQEND
  5
87
330
86
100
AcDbEntity
  8
0
  0
INSERT
  5
8B
330
17
100
AcDbEntity
  8
0
100
AcDbBlockReference
 66
1
  2
FLAG
 10
-53.0
 20
-32.0
 30
0.0
 41
1.917623328402537
 42
1.917623328402537
 43
1.917623328402537
 50
15.0
  0
ATTRIB
  5
8D
330
17
100
AcDbEntity
  8
0
 62
3
100
AcDbText
 10
-49.973418433640646
 20
-32.18166479091401
 30
0.0
 40
0.9588116642012685
  1
P(15)
 50
14.999999999999998
 11
-49.973418433640646
 21
-32.18166479091401
 31
0.0
100
AcDbAttribute
  2
NAME
 70
0
  0
ATTRIB
  5
8E
330
17
100
AcDbEntity
  8
0
 62
4
100
AcDbText
 10
-49.72525971427892
 20
-33.10780573991322
 30
0.0
 40
0.47940583210063425
  1
= -53.000
 50
14.999999999999998
 11
-49.72525971427892
 21
-33.10780573991322
 31
0.0
100
AcDbAttribute
  2
XPOS
 70
0
  0
ATTRIB
  5
8F
330
17
100
AcDbEntity
  8
0
 62
4
100
AcDbText
 10
-49.47710099491719
 20
-34.03394668891243
 30
0.0
 40
0.47940583210063425
  1
= -32.000
 50
14.999999999999998
 11
-49.47710099491719
 21
-34.03394668891243
 31
0.0
100
AcDbAttribute
  2
YPOS
 70
0
  0
SEQEND
  5
8C
330
8B
100
AcDbEntity
  8
0
  0
INSERT
  5
90
330
17
100
AcDbEntity
  8
0
100
AcDbBlockReference
 66
1
  2
FLAG
 10
-81.0
 20
-63.0
 30
0.0
 41
1.9865056115695476
 42
1.9865056115695476
 43
1.9865056115695476
 50
15.0
  0
ATTRIB
  5
92
330
17
100
AcDbEntity
  8
0
 62
3
100
AcDbText
 10
-77.8647016458366
 20
-63.18819030892575
 30
0.0
 40
0.9932528057847738
  1
P(16)
 50
14.999999999999998
 11
-77.8647016458366
 21
-63.18819030892575
 31
0.0
100
AcDbAttribute
  2
NAME
 70
0
  0
ATTRIB
  5
93
330
17
100
AcDbEntity
  8
0
 62
4
100
AcDbText
 10
-77.60762890309799
 20
-64.14759884606734
 30
0.0
 40
0.4966264028923869
  1
= -81.000
 50
14.999999999999998
 11
-77.60762890309799
 21
-64.14759884606734
 31
0.0
100
AcDbAttribute
  2
XPOS
 70
0
  0
ATTRIB
  5
94
330
17
100
AcDbEntity
  8
0
 62
4
100
AcDbText
 10
-77.35055616035937
 20
-65.10700738320894
 30
0.0
 40
0.4966264028923869
  1
= -63.000
 50
14.999999999999998
 11
-77.35055616035937
 21
-65.10700738320894
 31
0.0
100
AcDbAttribute
  2
YPOS
 70
0
  0
SEQEND
  5
91
330
90
100
AcDbEntity
  8
0
  0
INSERT
  5
95
330
17
100
AcDbEntity
  8
0
100
AcDbBlockReference
 66
1
  2
FLAG
 10
-92.0
 20
64.0
 30
0.0
 41
0.8705399288238342
 42
0.8705399288238342
 43
0.8705399288238342
 50
15.0
  0
ATTRIB
  5
97
330
17
100
AcDbEntity
  8
0
 62
3
100
AcDbText
 10
-90.62602834334892
 20
63.91752996961931
 30
0.0
 40
0.4352699644119171
  1
P(17)
 50
14.999999999999998
 11
-90.62602834334892
 21
63.91752996961931
 31
0.0
100
AcDbAttribute
  2
NAME
 70
0
  0
ATTRIB
  5
98
330
17
100
AcDbEntity
  8
0
 62
4
100
AcDbText
 10
-90.51337218679802
 20
63.49709146958591
 30
0.0
 40
0.21763498220595856
  1
= -92.000
 50
14.999999999999998
 11
-90.51337218679802
 21
63.49709146958591
 31
0.0
100
AcDbAttribute
  2
XPOS
 70
0
  0
ATTRIB
  5
99
330
17
100
AcDbEntity
  8
0
 62
4
100
AcDbText
 10
-90.40071603024711
 20
63.07665296955252
 30
0.0
 40
0.21763498220595856
  1
= 64.000
 50
14.999999999999998
 11
-90.40071603024711
 21
63.07665296955252
 31
0.0
100
AcDbAttribute
  2
YPOS
 70
0
  0
SEQEND
  5
96
330
95
100
AcDbEntity
  8
0
  0
INSERT
  5
9A
330
17
100
AcDbEntity
  8
0
100
AcDbBlockReference
 66
1
  2
FLAG
 10
64.0
 20
98.0
 30
0.0
 41
1.1611003028315934
 42
1.1611003028315934
 43
1.1611003028315934
 50
15.0
  0
ATTRIB
  5
9C
330
17
100
AcDbEntity
  8
0
 62
3
100
AcDbText
 10
65.8325625899492
 20
97.89000392276213
 30
0.0
 40
0.5805501514157967
  1
P(18)
 50
14.999999999999998
 11
65.8325625899492
 21
97.89000392276213
 31
0.0
100
AcDbAttribute
  2
NAME
 70
0
  0
ATTRIB
  5
9D
330
17
100
AcDbEntity
  8
0
 62
4
100
AcDbText
 10
65.98282002577277
 20
97.32923553805358
 30
0.0
 40
0.29027507570789834
  1
= 64.000
 50
14.999999999999998
 11
65.98282002577277
 21
97.32923553805358
 31
0.0
100
AcDbAttribute
  2
XPOS
 70
0
  0
ATTRIB
  5
9E
330
17
100
AcDbEntity
  8
0
 62
4
100
AcDbText
 10
66.13307746159633
 20
96.76846715334504
 30
0.0
 40
0.29027507570789834
  1
= 98.000
 50
14.999999999999998
 11
66.13307746159633
 21
96.76846715334504
 31
0.0
100
AcDbAttribute
  2
YPOS
 70
0
  0
SEQEND
  5
9B
330
9A
100
AcDbEntity
  8
0
  0
INSERT
  5
9F
330
17
100
AcDbEntity
  8
0
100
AcDbBlockReference
 66
1
  2
FLAG
 10
-88.0
 20
-48.0
 30
0.0
 41
0.7493221683482567
 42
0.7493221683482567
 43
0.7493221683482567
 50
15.0
  0
ATTRIB
  5
A1
330
17
100
AcDbEntity
  8
0
 62
3
100
AcDbText
 10
-86.81734612402921
 20
-48.07098654518018
 30
0.0
 40
0.37466108417412836
  1
P(19)
 50
14.999999999999998
 11
-86.81734612402921
 21
-48.07098654518018
 31
0.0
100
AcDbAttribute
  2
NAME
 70
0
  0
ATTRIB
  5
A2
330
17
100
AcDbEntity
  8
0
 62
4
100
AcDbText
 10
-86.72037669998619
 20
-48.43288136248944
 30
0.0
 40
0.18733054208706418
  1
= -88.000
 50
14.999999999999998
 11
-86.72037669998619
 21
-48.43288136248944
 31
0.0
100
AcDbAttribute
  2
XPOS
 70
0
  0
ATTRIB
  5
A3
330
17
100
AcDbEntity
  8
0
 62
4
100
AcDbText
 10
-86.62340727594317
 20
-48.79477617979869
 30
0.0
 40
0.18733054208706418
  1
= -48.000
 50
14.999999999999998
 11
-86.62340727594317
 21
-48.79477617979869
 31
0.0
100
AcDbAttribute
  2
YPOS
 70
0
  0
SEQEND
  5
A0
330
9F
100
AcDbEntity
  8
0
  0
INSERT
  5
A4
330
17
100
AcDbEntity
  8
0
100
AcDbBlockReference
 66
1
  2
FLAG
 10
-62.0
 20
-56.0
 30
0.0
 41
0.6958277316833357
 42
0.6958277316833357
 43
0.6958277316833357
 50
15.0
  0
ATTRIB
  5
A6
330
17
100
AcDbEntity
  8
0
 62
3
100
AcDbText
 10
-60.90177630044332
 20
-56.06591878473534
 30
0.0
 40
0.34791386584166784
  1
P(20)
 50
14.999999999999998
 11
-60.90177630044332
 21
-56.06591878473534
 31
0.0
100
AcDbAttribute
  2
NAME
 70
0
  0
ATTRIB
  5
A7
330
17
100
AcDbEntity
  8
0
 62
4
100
AcDbText
 10
-60.81172956590825
 20
-56.40197777307587
 30
0.0
 40
0.17395693292083392
  1
= -62.000
 50
14.999999999999998
 11
-60.81172956590825
 21
-56.40197777307587
 31
0.0
100
AcDbAttribute
  2
XPOS
 70
0
  0
ATTRIB
  5
A8
330
17
100
AcDbEntity
  8
0
 62
4
100
AcDbText
 10
-60.72168283137319
 20
-56.73803676141641
 30
0.0
 40
0.17395693292083392
  1
= -56.000
 50
14.999999999999998
 11
-60.72168283137319
 21
-56.73803676141641
 31
0.0
100
AcDbAttribute
  2
YPOS
 70
0
  0
SEQEND
  5
A5
330
A4
100
AcDbEntity
  8
0
  0
INSERT
  5
A9
330
17
100
AcDbEntity
  8
0
100
AcDbBlockReference
 66
1
  2
FLAG
 10
-67.0
 20
83.0
 30
0.0
 41
1.1163250057253267
 42
1.1163250057253267
 43
1.1163250057253267
 50
15.0
  0
ATTRIB
  5
AB
330
17
100
AcDbEntity
  8
0
 62
3
100
AcDbText
 10
-65.23810618365347
 20
82.89424568122764
 30
0.0
 40
0.5581625028626633
  1
P(21)
 50
14.999999999999998
 11
-65.23810618365347
 21
82.89424568122764
 31
0.0
100
AcDbAttribute
  2
NAME
 70
0
  0
ATTRIB
  5
AC
330
17
100
AcDbEntity
  8
0
 62
4
100
AcDbText
 10
-65.09364309765053
 20
82.35510210444646
 30
0.0
 40
0.27908125143133167
  1
= -67.000
 50
14.999999999999998
 11
-65.09364309765053
 21
82.35510210444646
 31
0.0
100
AcDbAttribute
  2
XPOS
 70
0
  0
ATTRIB
  5
AD
330
17
100
AcDbEntity
  8
0
 62
4
100
AcDbText
 10
-64.94918001164758
 20
81.81595852766526
 30
0.0
 40
0.27908125143133167
  1
= 83.000
 50
14.999999999999998
 11
-64.94918001164758
 21
81.81595852766526
 31
0.0
100
AcDbAttribute
  2
YPOS
 70
0
  0
SEQEND
  5
AA
330
A9
100
AcDbEntity
  8
0
  0
INSERT
  5
AE
330
17
100
AcDbEntity
  8
0
100
AcDbBlockReference
 66
1
  2
FLAG
 10
90.0
 20
97.0
 30
0.0
 41
2.3934912181658965
 42
2.3934912181658965
 43
2.3934912181658965
 50
15.0
  0
ATTRIB
  5
B0
330
17
100
AcDbEntity
  8
0
 62
3
100
AcDbText
 10
93.77764302970726
 20
96.77325417600919
 30
0.0
 40
1.1967456090829482
  1
P(22)
 50
14.999999999999998
 11
93.77764302970726
 21
96.77325417600919
 31
0.0
100
AcDbAttribute
  2
NAME
 70
0
  0
ATTRIB
  5
B1
330
17
100
AcDbEntity
  8
0
 62
4
100
AcDbText
 10
94.08738358548075
 20
95.61728668469793
 30
0.0
 40
0.5983728045414741
  1
= 90.000
 50
14.999999999999998
 11
94.08738358548075
 21
95.61728668469793
 31
0.0
100
AcDbAttribute
  2
XPOS
 70
0
  0
ATTRIB
  5
B2
330
17
100
AcDbEntity
  8
0
 62
4
100
AcDbText
 10
94.39712414125424
 20
94.46131919338667
 30
0.0
 40
0.5983728045414741
  1
= 97.000
 50
14.999999999999998
 11
94.39712414125424
 21
94.46131919338667
 31
0.0
100
AcDbAttribute
  2
YPOS
 70
0
  0
SEQEND
  5
AF
330
AE
100
AcDbEntity
  8
0
  0
INSERT
  5
B3
330
17
100
AcDbEntity
  8
0
100
AcDbBlockReference
 66
1
  2
FLAG
 10
-20.0
 20
30.0
 30
0.0
 41
1.21152927407886
 42
1.21152927407886
 43
1.21152927407886
 50
15.0
  0
ATTRIB
  5
B5
330
17
100
AcDbEntity
  8
0
 62
3
100
AcDbText
 10
-18.087845452377554
 20
29.885226567177252
 30
0.0
 40
0.60576463703943
  1
P(23)
 50
14.999999999999998
 11
-18.087845452377554
 21
29.885226567177252
 31
0.0
100
AcDbAttribute
  2
NAME
 70
0
  0
ATTRIB
  5
B6
330
17
100
AcDbEntity
  8
0
 62
4
100
AcDbText
 10
-17.931062027462133
 20
29.300102859608245
 30
0.0
 40
0.302882318519715
  1
= -20.000
 50
14.999999999999998
 11
-17.931062027462133
 21
29.300102859608245
 31
0.0
100
AcDbAttribute
  2
XPOS
 70
0
  0
ATTRIB
  5
B7
330
17
100
AcDbEntity
  8
0
 62
4
100
AcDbText
 10
-17.774278602546712
 20
28.714979152039234
 30
0.0
 40
0.302882318519715
  1
= 30.000
 50
14.999999999999998
 11
-17.774278602546712
 21
28.714979152039234
 31
0.0
100
AcDbAttribute
  2
YPOS
 70
0
  0
SEQEND
  5
B4
330
B3
100
AcDbEntity
  8
0
  0
INSERT
  5
B8
330
17
100
AcDbEntity
  8
0
100
AcDbBlockReference
 66
1
  2
FLAG
 10
41.0
 20
-66.0
 30
0.0
 41
1.812577501930173
 42
1.812577501930173
 43
1.812577501930173
 50
15.0
  0
ATTRIB
  5
BA
330
17
100
AcDbEntity
  8
0
 62
3
100
AcDbText
 10
43.860787921009255
 20
-66.17171334329662
 30
0.0
 40
0.9062887509650865
  1
P(24)
 50
14.999999999999998
 11
43.860787921009255
 21
-66.17171334329662
 31
0.0
100
AcDbAttribute
  2
NAME
 70
0
  0
ATTRIB
  5
BB
330
17
100
AcDbEntity
  8
0
 62
4
100
AcDbText
 10
44.0953527101212
 20
-67.04712105392906
 30
0.0
 40
0.45314437548254327
  1
= 41.000
 50
14.999999999999998
 11
44.0953527101212
 21
-67.04712105392906
 31
0.0
100
AcDbAttribute
  2
XPOS
 70
0
  0
ATTRIB
  5
BC
330
17
100
AcDbEntity
  8
0
 62
4
100
AcDbText
 10
44.32991749923313
 20
-67.92252876456149
 30
0.0
 40
0.45314437548254327
  1
= -66.000
 50
14.999999999999998
 11
44.32991749923313
 21
-67.92252876456149
 31
0.0
100
AcDbAttribute
  2
YPOS
 70
0
  0
SEQEND
  5
B9
330
B8
100
AcDbEntity
  8
0
  0
INSERT
  5
BD
330
17
100
AcDbEntity
  8
0
100
AcDbBlockReference
 66
1
  2
FLAG
 10
89.0
 20
100.0
 30
0.0
 41
1.8888803224121333
 42
1.8888803224121333
 43
1.8888803224121333
 50
15.0
  0
ATTRIB
  5
BF
330
17
100
AcDbEntity
  8
0
 62
3
100
AcDbText
 10
91.98121652996048
 20
99.82105815894593
 30
0.0
 40
0.9444401612060668
  1
P(25)
 50
14.999999999999998
 11
91.98121652996048
 21
99.82105815894593
 31
0.0
100
AcDbAttribute
  2
NAME
 70
0
  0
ATTRIB
  5
C0
330
17
100
AcDbEntity
  8
0
 62
4
100
AcDbText
 10
92.2256556306403
 20
98.90879901585237
 30
0.0
 40
0.4722200806030334
  1
= 89.000
 50
14.999999999999998
 11
92.2256556306403
 21
98.90879901585237
 31
0.0
100
AcDbAttribute
  2
XPOS
 70
0
  0
ATTRIB
  5
C1
330
17
100
AcDbEntity
  8
0
 62
4
100
AcDbText
 10
92.47009473132013
 20
97.99653987275882
 30
0.0
 40
0.4722200806030334
  1
= 100.000
 50
14.999999999999998
 11
92.47009473132013
 21
97.99653987275882
 31
0.0
100
AcDbAttribute
  2
YPOS
 70
0
  0
SEQEND
  5
BE
330
BD
100
AcDbEntity
  8
0
  0
INSERT
  5
C2
330
17
100
AcDbEntity
  8
0
100
AcDbBlockReference
 66
1
  2
FLAG
 10
-19.0
 20
-84.0
 30
0.0
 41
0.5249631610883425
 42
0.5249631610883425
 43
0.5249631610883425
 50
15.0
  0
ATTRIB
  5
C4
330
17
100
AcDbEntity
  8
0
 62
3
100
AcDbText
 10
-18.17145155524819
 20
-84.04973204147247
 30
0.0
 40
0.26248158054417126
  1
P(26)
 50
14.999999999999998
 11
-18.17145155524819
 21
-84.04973204147247
 31
0.0
100
AcDbAttribute
  2
NAME
 70
0
  0
ATTRIB
  5
C5
330
17
100
AcDbEntity
  8
0
 62
4
100
AcDbText
 10
-18.10351632321475
 20
-84.30326977904525
 30
0.0
 40
0.13124079027208563
  1
= -19.000
 50
14.999999999999998
 11
-18.10351632321475
 21
-84.30326977904525
 31
0.0
100
AcDbAttribute
  2
XPOS
 70
0
  0
ATTRIB
  5
C6
330
17
100
AcDbEntity
  8
0
 62
4
100
AcDbText
 10
-18.035581091181303
 20
-84.55680751661804
 30
0.0
 40
0.13124079027208563
  1
= -84.000
 50
14.999999999999998
 11
-18.035581091181303
 21
-84.55680751661804
 31
0.0
100
AcDbAttribute
  2
YPOS
 70
0
  0
SEQEND
  5
C3
330
C2
100
AcDbEntity
  8
0
  0
INSERT
  5
C7
330
17
100
AcDbEntity
  8
0
100
AcDbBlockReference
 66
1
  2
FLAG
 10
-80.0
 20
-92.0
 30
0.0
 41
0.8828803858644905
 42
0.8828803858644905
 43
0.8828803858644905
 50
15.0
  0
ATTRIB
  5
C9
330
17
100
AcDbEntity
  8
0
 62
3
100
AcDbText
 10
-78.60655142144955
 20
-92.0836390955015
 30
0.0
 40
0.44144019293224523
  1
P(27)
 50
14.999999999999998
 11
-78.60655142144955
 21
-92.0836390955015
 31
0.0
100
AcDbAttribute
  2
NAME
 70
0
  0
ATTRIB
  5
CA
330
17
100
AcDbEntity
  8
0
 62
4
100
AcDbText
 10
-78.49229829224495
 20
-92.51003757861677
 30
0.0
 40
0.22072009646612262
  1
= -80.000
 50
14.999999999999998
 11
-78.49229829224495
 21
-92.51003757861677
 31
0.0
100
AcDbAttribute
  2
XPOS
 70
0
  0
ATTRIB
  5
CB
330
17
100
AcDbEntity
  8
0
 62
4
100
AcDbText
 10
-78.37804516304035
 20
-92.93643606173207
 30
0.0
 40
0.22072009646612262
  1
= -92.000
 50
14.999999999999998
 11
-78.37804516304035
 21
-92.93643606173207
 31
0.0
100
AcDbAttribute
  2
YPOS
 70
0
  0
SEQEND
  5
C8
330
C7
100
AcDbEntity
  8
0
  0
INSERT
  5
CC
330
17
100
AcDbEntity
  8
0
100
AcDbBlockReference
 66
1
  2
FLAG
 10
-76.0
 20
14.0
 30
0.0
 41
1.9311816127489136
 42
1.9311816127489136
 43
1.9311816127489136
 50
15.0
  0
ATTRIB
  5
CE
330
17
100
AcDbEntity
  8
0
 62
3
100
AcDbText
 10
-72.95201941702126
 20
13.817050773892454
 30
0.0
 40
0.9655908063744568
  1
P(28)
 50
14.999999999999998
 41
1.0000000000000002
 11
-72.95201941702126
 21
13.817050773892454
 31
0.0
100
AcDbAttribute
  2
NAME
 70
0
  0
ATTRIB
  5
CF
330
17
100
AcDbEntity
  8
0
 62
4
100
AcDbText
 10
-72.70210612655566
 20
12.88436167638808
 30
0.0
 40
0.4827954031872284
  1
= -76.000
 50
14.999999999999998
 41
1.0000000000000002
 11
-72.70210612655566
 21
12.88436167638808
 31
0.0
100
AcDbAttribute
  2
XPOS
 70
0
  0
ATTRIB
  5
D0
330
17
100
AcDbEntity
  8
0
 62
4
100
AcDbText
 10
-72.45219283609005
 20
11.951672578883706
 30
0.0
 40
0.4827954031872284
  1
= 14.000
 50
14.999999999999998
 41
1.0000000000000002
 11
-72.45219283609005
 21
11.951672578883706
 31
0.0
100
AcDbAttribute
  2
YPOS
 70
0
  0
SEQEND
  5
CD
330
CC
100
AcDbEntity
  8
0
  0
INSERT
  5
D1
330
17
100
AcDbEntity
  8
0
100
AcDbBlockReference
 66
1
  2
FLAG
 10
-68.0
 20
-93.0
 30
0.0
 41
1.013863309070279
 42
1.013863309070279
 43
1.013863309070279
 50
15.0
  0
ATTRIB
  5
D3
330
17
100
AcDbEntity
  8
0
 62
3
100
AcDbText
 10
-66.39982130140416
 20
-93.09604767700186
 30
0.0
 40
0.5069316545351396
  1
P(29)
 50
14.999999999999998
 11
-66.39982130140416
 21
-93.09604767700186
 31
0.0
100
AcDbAttribute
  2
NAME
 70
0
  0
ATTRIB
  5
D4
330
17
100
AcDbEntity
  8
0
 62
4
100
AcDbText
 10
-66.26861773464513
 20
-93.5857060542808
 30
0.0
 40
0.2534658272675698
  1
= -68.000
 50
14.999999999999998
 11
-66.26861773464513
 21
-93.5857060542808
 31
0.0
100
AcDbAttribute
  2
XPOS
 70
0
  0
ATTRIB
  5
D5
330
17
100
AcDbEntity
  8
0
 62
4
100
AcDbText
 10
-66.1374141678861
 20
-94.07536443155973
 30
0.0
 40
0.2534658272675698
  1
= -93.000
 50
14.999999999999998
 11
-66.1374141678861
 21
-94.07536443155973
 31
0.0
100
AcDbAttribute
  2
YPOS
 70
0
  0
SEQEND
  5
D2
330
D1
100
AcDbEntity
  8
0
  0
INSERT
  5
D6
330
17
100
AcDbEntity
  8
0
100
AcDbBlockReference
 66
1
  2
FLAG
 10
-28.0
 20
59.0
 30
0.0
 41
1.6522296496000026
 42
1.6522296496000026
 43
1.6522296496000026
 50
15.0
  0
ATTRIB
  5
D8
330
17
100
AcDbEntity
  8
0
 62
3
100
AcDbText
 10
-25.392288815636455
 20
58.84347710554473
 30
0.0
 40
0.8261148248000013
  1
P(30)
 50
14.999999999999998
 41
1.0000000000000002
 11
-25.392288815636455
 21
58.84347710554473
 31
0.0
100
AcDbAttribute
  2
NAME
 70
0
  0
ATTRIB
  5
D9
330
17
100
AcDbEntity
  8
0
 62
4
100
AcDbText
 10
-25.178474565536686
 20
58.04551146079014
 30
0.0
 40
0.41305741240000066
  1
= -28.000
 50
14.999999999999998
 41
1.0000000000000002
 11
-25.178474565536686
 21
58.04551146079014
 31
0.0
100
AcDbAttribute
  2
XPOS
 70
0
  0
ATTRIB
  5
DA
330
17
100
AcDbEntity
  8
0
 62
4
100
AcDbText
 10
-24.964660315436912
 20
57.24754581603555
 30
0.0
 40
0.41305741240000066
  1
= 59.000
 50
14.999999999999998
 41
1.0000000000000002
 11
-24.964660315436912
 21
57.24754581603555
 31
0.0
100
AcDbAttribute
  2
YPOS
 70
0
  0
SEQEND
  5
D7
330
D6
100
AcDbEntity
  8
0
  0
INSERT
  5
DB
330
17
100
AcDbEntity
  8
0
100
AcDbBlockReference
 66
1
  2
FLAG
 10
10.0
 20
4.0
 30
0.0
 41
0.8364141486915107
 42
0.8364141486915107
 43
0.8364141486915107
 50
15.0
  0
ATTRIB
  5
DD
330
17
100
AcDbEntity
  8
0
 62
3
100
AcDbText
 10
11.32011099717936
 20
3.9207628530645042
 30
0.0
 40
0.4182070743457554
  1
P(31)
 50
14.999999999999998
 11
11.32011099717936
 21
3.9207628530645042
 31
0.0
100
AcDbAttribute
  2
NAME
 70
0
  0
ATTRIB
  5
DE
330
17
100
AcDbEntity
  8
0
 62
4
100
AcDbText
 10
11.428350952816647
 20
3.5168058392171466
 30
0.0
 40
0.2091035371728777
  1
= 10.000
 50
14.999999999999998
 11
11.428350952816647
 21
3.5168058392171466
 31
0.0
100
AcDbAttribute
  2
XPOS
 70
0
  0
ATTRIB
  5
DF
330
17
100
AcDbEntity
  8
0
 62
4
100
AcDbText
 10
11.536590908453935
 20
3.112848825369789
 30
0.0
 40
0.2091035371728777
  1
= 4.000
 50
14.999999999999998
 11
11.536590908453935
 21
3.112848825369789
 31
0.0
100
AcDbAttribute
  2
YPOS
 70
0
  0
SEQEND
  5
DC
330
DB
100
AcDbEntity
  8
0
  0
INSERT
  5
E0
330
17
100
AcDbEntity
  8
0
100
AcDbBlockReference
 66
1
  2
FLAG
 10
17.0
 20
5.0
 30
0.0
 41
1.6755964895772986
 42
1.6755964895772986
 43
1.6755964895772986
 50
15.0
  0
ATTRIB
  5
E2
330
17
100
AcDbEntity
  8
0
 62
3
100
AcDbText
 10
19.644591027287788
 20
4.841263463253291
 30
0.0
 40
0.8377982447886493
  1
P(32)
 50
14.999999999999998
 11
19.644591027287788
 21
4.841263463253291
 31
0.0
100
AcDbAttribute
  2
NAME
 70
0
  0
ATTRIB
  5
E3
330
17
100
AcDbEntity
  8
0
 62
4
100
AcDbText
 10
19.861429168992554
 20
4.032012501392284
 30
0.0
 40
0.41889912239432464
  1
= 17.000
 50
14.999999999999998
 11
19.861429168992554
 21
4.032012501392284
 31
0.0
100
AcDbAttribute
  2
XPOS
 70
0
  0
ATTRIB
  5
E4
330
17
100
AcDbEntity
  8
0
 62
4
100
AcDbText
 10
20.07826731069732
 20
3.2227615395312768
 30
0.0
 40
0.41889912239432464
  1
= 5.000
 50
14.999999999999998
 11
20.07826731069732
 21
3.2227615395312768
 31
0.0
100
AcDbAttribute
  2
YPOS
 70
0
  0
SEQEND
  5
E1
330
E0
100
AcDbEntity
  8
0
  0
INSERT
  5
E5
330
17
100
AcDbEntity
  8
0
100
AcDbBlockReference
 66
1
  2
FLAG
 10
-51.0
 20
-46.0
 30
0.0
 41
1.6611111735398076
 42
1.6611111735398076
 43
1.6611111735398076
 50
15.0
  0
ATTRIB
  5
E7
330
17
100
AcDbEntity
  8
0
 62
3
100
AcDbText
 10
-48.37827112183849
 20
-46.15736427981267
 30
0.0
 40
0.8305555867699038
  1
P(33)
 50
14.999999999999998
 11
-48.37827112183849
 21
-46.15736427981267
 31
0.0
100
AcDbAttribute
  2
NAME
 70
0
  0
ATTRIB
  5
E8
330
17
100
AcDbEntity
  8
0
 62
4
100
AcDbText
 10
-48.16330751796613
 20
-46.95961937124239
 30
0.0
 40
0.4152777933849519
  1
= -51.000
 50
14.999999999999998
 11
-48.16330751796613
 21
-46.95961937124239
 31
0.0
100
AcDbAttribute
  2
XPOS
 70
0
  0
ATTRIB
  5
E9
330
17
100
AcDbEntity
  8
0
 62
4
100
AcDbText
 10
-47.94834391409378
 20
-47.76187446267211
 30
0.0
 40
0.4152777933849519
  1
= -46.000
 50
14.999999999999998
 11
-47.94834391409378
 21
-47.76187446267211
 31
0.0
100
AcDbAttribute
  2
YPOS
 70
0
  0
SEQEND
  5
E6
330
E5
100
AcDbEntity
  8
0
  0
INSERT
  5
EA
330
17
100
AcDbEntity
  8
0
100
AcDbBlockReference
 66
1
  2
FLAG
 10
-39.0
 20
-17.0
 30
0.0
 41
0.5379167242453864
 42
0.5379167242453864
 43
0.5379167242453864
 50
15.0
  0
ATTRIB
  5
EC
330
17
100
AcDbEntity
  8
0
 62
3
100
AcDbText
 10
-38.15100696903092
 20
-17.050959188799915
 30
0.0
 40
0.2689583621226932
  1
P(34)
 50
14.999999999999998
 11
-38.15100696903092
 21
-17.050959188799915
 31
0.0
100
AcDbAttribute
  2
NAME
 70
0
  0
ATTRIB
  5
ED
330
17
100
AcDbEntity
  8
0
 62
4
100
AcDbText
 10
-38.08139542257398
 20
-17.310753016970633
 30
0.0
 40
0.1344791810613466
  1
= -39.000
 50
14.999999999999998
 11
-38.08139542257398
 21
-17.310753016970633
 31
0.0
100
AcDbAttribute
  2
XPOS
 70
0
  0
ATTRIB
  5
EE
330
17
100
AcDbEntity
  8
0
 62
4
100
AcDbText
 10
-38.01178387611705
 20
-17.57054684514135
 30
0.0
 40
0.1344791810613466
  1
= -17.000
 50
14.999999999999998
 11
-38.01178387611705
 21
-17.57054684514135
 31
0.0
100
AcDbAttribute
  2
YPOS
 70
0
  0
SEQEND
  5
EB
330
EA
100
AcDbEntity
  8
0
  0
INSERT
  5
EF
330
17
100
AcDbEntity
  8
0
100
AcDbBlockReference
 66
1
  2
FLAG
 10
-74.0
 20
7.0
 30
0.0
 41
1.3850462652651794
 42
1.3850462652651794
 43
1.3850462652651794
 50
15.0
  0
ATTRIB
  5
F1
330
17
100
AcDbEntity
  8
0
 62
3
100
AcDbText
 10
-71.81398388676334
 20
6.868788548585691
 30
0.0
 40
0.6925231326325897
  1
P(35)
 50
14.999999999999998
 11
-71.81398388676334
 21
6.868788548585691
 31
0.0
100
AcDbAttribute
  2
NAME
 70
0
  0
ATTRIB
  5
F2
330
17
100
AcDbEntity
  8
0
 62
4
100
AcDbText
 10
-71.63474571086397
 20
6.199862569473263
 30
0.0
 40
0.34626156631629484
  1
= -74.000
 50
14.999999999999998
 11
-71.63474571086397
 21
6.199862569473263
 31
0.0
100
AcDbAttribute
  2
XPOS
 70
0
  0
ATTRIB
  5
F3
330
17
100
AcDbEntity
  8
0
 62
4
100
AcDbText
 10
-71.4555075349646
 20
5.5309365903608345
 30
0.0
 40
0.34626156631629484
  1
= 7.000
 50
14.999999999999998
 11
-71.4555075349646
 21
5.5309365903608345
 31
0.0
100
AcDbAttribute
  2
YPOS
 70
0
  0
SEQEND
  5
F0
330
EF
100
AcDbEntity
  8
0
  0
INSERT
  5
F4
330
17
100
AcDbEntity
  8
0
100
AcDbBlockReference
 66
1
  2
FLAG
 10
25.0
 20
-90.0
 30
0.0
 41
0.654685769955575
 42
0.654685769955575
 43
0.654685769955575
 50
15.0
  0
ATTRIB
  5
F6
330
17
100
AcDbEntity
  8
0
 62
3
100
AcDbText
 10
26.033289412867106
 20
-90.06202122791885
 30
0.0
 40
0.3273428849777875
  1
P(36)
 50
14.999999999999998
 11
26.033289412867106
 21
-90.06202122791885
 31
0.0
100
AcDbAttribute
  2
NAME
 70
0
  0
ATTRIB
  5
F7
330
17
100
AcDbEntity
  8
0
 62
4
100
AcDbText
 10
26.11801198577816
 20
-90.37821017457087
 30
0.0
 40
0.16367144248889376
  1
= 25.000
 50
14.999999999999998
 11
26.11801198577816
 21
-90.37821017457087
 31
0.0
100
AcDbAttribute
  2
XPOS
 70
0
  0
ATTRIB
  5
F8
330
17
100
AcDbEntity
  8
0
 62
4
100
AcDbText
 10
26.202734558689215
 20
-90.69439912122289
 30
0.0
 40
0.16367144248889376
  1
= -90.000
 50
14.999999999999998
 11
26.202734558689215
 21
-90.69439912122289
 31
0.0
100
AcDbAttribute
  2
YPOS
 70
0
  0
SEQEND
  5
F5
330
F4
100
AcDbEntity
  8
0
  0
INSERT
  5
F9
330
17
100
AcDbEntity
  8
0
100
AcDbBlockReference
 66
1
  2
FLAG
 10
-7.0
 20
9.0
 30
0.0
 41
0.5987514056738956
 42
0.5987514056738956
 43
0.5987514056738956
 50
15.0
  0
ATTRIB
  5
FB
330
17
100
AcDbEntity
  8
0
 62
3
100
AcDbText
 10
-6.0549916970638975
 20
8.943277677471816
 30
0.0
 40
0.2993757028369478
  1
P(37)
 50
14.999999999999998
 11
-6.0549916970638975
 21
8.943277677471816
 31
0.0
100
AcDbAttribute
  2
NAME
 70
0
  0
ATTRIB
  5
FC
330
17
100
AcDbEntity
  8
0
 62
4
100
AcDbText
 10
-5.977507563528742
 20
8.654102954338166
 30
0.0
 40
0.1496878514184739
  1
= -7.000
 50
14.999999999999998
 11
-5.977507563528742
 21
8.654102954338166
 31
0.0
100
AcDbAttribute
  2
XPOS
 70
0
  0
ATTRIB
  5
FD
330
17
100
AcDbEntity
  8
0
 62
4
100
AcDbText
 10
-5.900023429993587
 20
8.364928231204516
 30
0.0
 40
0.1496878514184739
  1
= 9.000
 50
14.999999999999998
 11
-5.900023429993587
 21
8.364928231204516
 31
0.0
100
AcDbAttribute
  2
YPOS
 70
0
  0
SEQEND
  5
FA
330
F9
100
AcDbEntity
  8
0
  0
INSERT
  5
FE
330
17
100
AcDbEntity
  8
0
100
AcDbBlockReference
 66
1
  2
FLAG
 10
31.0
 20
-27.0
 30
0.0
 41
2.038897256221719
 42
2.038897256221719
 43
2.038897256221719
 50
15.0
  0
ATTRIB
  5
100
330
17
100
AcDbEntity
  8
0
 62
3
100
AcDbText
 10
34.21798799586045
 20
-27.193153597091058
 30
0.0
 40
1.0194486281108595
  1
P(38)
 50
14.999999999999998
 11
34.21798799586045
 21
-27.193153597091058
 31
0.0
100
AcDbAttribute
  2
NAME
 70
0
  0
ATTRIB
  5
101
330
17
100
AcDbEntity
  8
0
 62
4
100
AcDbText
 10
34.48184071631917
 20
-28.177865355558296
 30
0.0
 40
0.5097243140554297
  1
= 31.000
 50
14.999999999999998
 11
34.48184071631917
 21
-28.177865355558296
 31
0.0
100
AcDbAttribute
  2
XPOS
 70
0
  0
ATTRIB
  5
102
330
17
100
AcDbEntity
  8
0
 62
4
100
AcDbText
 10
34.7456934367779
 20
-29.162577114025535
 30
0.0
 40
0.5097243140554297
  1
= -27.000
 50
14.999999999999998
 11
34.7456934367779
 21
-29.162577114025535
 31
0.0
100
AcDbAttribute
  2
YPOS
 70
0
  0
SEQEND
  5
FF
330
FE
100
AcDbEntity
  8
0
  0
INSERT
  5
103
330
17
100
AcDbEntity
  8
0
100
AcDbBlockReference
 66
1
  2
FLAG
 10
-46.0
 20
-64.0
 30
0.0
 41
2.4606735729085027
 42
2.4606735729085027
 43
2.4606735729085027
 50
15.0
  0
ATTRIB
  5
105
330
17
100
AcDbEntity
  8
0
 62
3
100
AcDbText
 10
-42.116323176566425
 20
-64.23311030039588
 30
0.0
 40
1.2303367864542516
  1
P(39)
 50
14.999999999999996
 11
-42.116323176566425
 21
-64.23311030039588
 31
0.0
100
AcDbAttribute
  2
NAME
 70
0
  0
ATTRIB
  5
106
330
17
100
AcDbEntity
  8
0
 62
4
100
AcDbText
 10
-41.797888584341834
 20
-65.42152437746554
 30
0.0
 40
0.6151683932271258
  1
= -46.000
 50
14.999999999999996
 11
-41.797888584341834
 21
-65.42152437746554
 31
0.0
100
AcDbAttribute
  2
XPOS
 70
0
  0
ATTRIB
  5
107
330
17
100
AcDbEntity
  8
0
 62
4
100
AcDbText
 10
-41.47945399211724
 20
-66.6099384545352
 30
0.0
 40
0.6151683932271258
  1
= -64.000
 50
14.999999999999996
 11
-41.47945399211724
 21
-66.6099384545352
 31
0.0
100
AcDbAttribute
  2
YPOS
 70
0
  0
SEQEND
  5
104
330
103
100
AcDbEntity
  8
0
  0
INSERT
  5
108
330
17
100
AcDbEntity
  8
0
100
AcDbBlockReference
 66
1
  2
FLAG
 10
-42.0
 20
-84.0
 30
0.0
 41
2.3308638914784385
 42
2.3308638914784385
 43
2.3308638914784385
 50
15.0
  0
ATTRIB
  5
10A
330
17
100
AcDbEntity
  8
0
 62
3
100
AcDbText
 10
-38.32120157115631
 20
-84.22081286518724
 30
0.0
 40
1.1654319457392195
  1
P(40)
 50
14.999999999999998
 11
-38.32120157115631
 21
-84.22081286518724
 31
0.0
100
AcDbAttribute
  2
NAME
 70
0
  0
ATTRIB
  5
10B
330
17
100
AcDbEntity
  8
0
 62
4
100
AcDbText
 10
-38.01956558782811
 20
-85.34653368035907
 30
0.0
 40
0.5827159728696097
  1
= -42.000
 50
14.999999999999998
 11
-38.01956558782811
 21
-85.34653368035907
 31
0.0
100
AcDbAttribute
  2
XPOS
 70
0
  0
ATTRIB
  5
10C
330
17
100
AcDbEntity
  8
0
 62
4
100
AcDbText
 10
-37.717929604499915
 20
-86.4722544955309
 30
0.0
 40
0.5827159728696097
  1
= -84.000
 50
14.999999999999998
 11
-37.717929604499915
 21
-86.4722544955309
 31
0.0
100
AcDbAttribute
  2
YPOS
 70
0
  0
SEQEND
  5
109
330
108
100
AcDbEntity
  8
0
  0
INSERT
  5
10D
330
17
100
AcDbEntity
  8
0
100
AcDbBlockReference
 66
1
  2
FLAG
 10
59.0
 20
-26.0
 30
0.0
 41
1.2556602109110344
 42
1.2556602109110344
 43
1.2556602109110344
 50
15.0
  0
ATTRIB
  5
10F
330
17
100
AcDbEntity
  8
0
 62
3
100
AcDbText
 10
60.981806328524435
 20
-26.11895414823944
 30
0.0
 40
0.6278301054555173
  1
P(41)
 50
14.999999999999998
 11
60.981806328524435
 21
-26.11895414823944
 31
0.0
100
AcDbAttribute
  2
NAME
 70
0
  0
ATTRIB
  5
110
330
17
100
AcDbEntity
  8
0
 62
4
100
AcDbText
 10
61.14430071690504
 20
-26.72539146162071
 30
0.0
 40
0.31391505272775866
  1
= 59.000
 50
14.999999999999998
 11
61.14430071690504
 21
-26.72539146162071
 31
0.0
100
AcDbAttribute
  2
XPOS
 70
0
  0
ATTRIB
  5
111
330
17
100
AcDbEntity
  8
0
 62
4
100
AcDbText
 10
61.30679510528566
 20
-27.331828775001984
 30
0.0
 40
0.31391505272775866
  1
= -26.000
 50
14.999999999999998
 11
61.30679510528566
 21
-27.331828775001984
 31
0.0
100
AcDbAttribute
  2
YPOS
 70
0
  0
SEQEND
  5
10E
330
10D
100
AcDbEntity
  8
0
  0
INSERT
  5
112
330
17
100
AcDbEntity
  8
0
100
AcDbBlockReference
 66
1
  2
FLAG
 10
-47.0
 20
-90.0
 30
0.0
 41
0.806589072512012
 42
0.806589072512012
 43
0.806589072512012
 50
15.0
  0
ATTRIB
  5
114
330
17
100
AcDbEntity
  8
0
 62
3
100
AcDbText
 10
-45.72696186871831
 20
-90.07641168786442
 30
0.0
 40
0.403294536256006
  1
P(42)
 50
14.999999999999998
 11
-45.72696186871831
 21
-90.07641168786442
 31
0.0
100
AcDbAttribute
  2
NAME
 70
0
  0
ATTRIB
  5
115
330
17
100
AcDbEntity
  8
0
 62
4
100
AcDbText
 10
-45.62258156194947
 20
-90.46596429603537
 30
0.0
 40
0.201647268128003
  1
= -47.000
 50
14.999999999999998
 11
-45.62258156194947
 21
-90.46596429603537
 31
0.0
100
AcDbAttribute
  2
XPOS
 70
0
  0
ATTRIB
  5
116
330
17
100
AcDbEntity
  8
0
 62
4
100
AcDbText
 10
-45.51820125518062
 20
-90.85551690420631
 30
0.0
 40
0.201647268128003
  1
= -90.000
 50
14.999999999999998
 11
-45.51820125518062
 21
-90.85551690420631
 31
0.0
100
AcDbAttribute
  2
YPOS
 70
0
  0
SEQEND
  5
113
330
112
100
AcDbEntity
  8
0
  0
INSERT
  5
117
330
17
100
AcDbEntity
  8
0
100
AcDbBlockReference
 66
1
  2
FLAG
 10
-9.0
 20
58.0
 30
0.0
 41
1.3280051610803647
 42
1.3280051610803647
 43
1.3280051610803647
 50
15.0
  0
ATTRIB
  5
119
330
17
100
AcDbEntity
  8
0
 62
3
100
AcDbText
 10
-6.904011762359932
 20
57.87419230025671
 30
0.0
 40
0.6640025805401824
  1
P(43)
 50
14.999999999999996
 11
-6.904011762359932
 21
57.87419230025671
 31
0.0
100
AcDbAttribute
  2
NAME
 70
0
  0
ATTRIB
  5
11A
330
17
100
AcDbEntity
  8
0
 62
4
100
AcDbText
 10
-6.732155248518913
 20
57.23281505899036
 30
0.0
 40
0.3320012902700912
  1
= -9.000
 50
14.999999999999996
 11
-6.732155248518913
 21
57.23281505899036
 31
0.0
100
AcDbAttribute
  2
XPOS
 70
0
  0
ATTRIB
  5
11B
330
17
100
AcDbEntity
  8
0
 62
4
100
AcDbText
 10
-6.560298734677893
 20
56.591437817724014
 30
0.0
 40
0.3320012902700912
  1
= 58.000
 50
14.999999999999996
 11
-6.560298734677893
 21
56.591437817724014
 31
0.0
100
AcDbAttribute
  2
YPOS
 70
0
  0
SEQEND
  5
118
330
117
100
AcDbEntity
  8
0
  0
INSERT
  5
11C
330
17
100
AcDbEntity
  8
0
100
AcDbBlockReference
 66
1
  2
FLAG
 10
16.0
 20
28.0
 30
0.0
 41
2.035832219899376
 42
2.035832219899376
 43
2.035832219899376
 50
15.0
  0
ATTRIB
  5
11E
330
17
100
AcDbEntity
  8
0
 62
3
100
AcDbText
 10
19.21315045435997
 20
27.807136767118845
 30
0.0
 40
1.017916109949688
  1
P(44)
 50
14.999999999999998
 11
19.21315045435997
 21
27.807136767118845
 31
0.0
100
AcDbAttribute
  2
NAME
 70
0
  0
ATTRIB
  5
11F
330
17
100
AcDbEntity
  8
0
 62
4
100
AcDbText
 10
19.476606529931622
 20
26.82390530752274
 30
0.0
 40
0.508958054974844
  1
= 16.000
 50
14.999999999999998
 11
19.476606529931622
 21
26.82390530752274
 31
0.0
100
AcDbAttribute
  2
XPOS
 70
0
  0
ATTRIB
  5
120
330
17
100
AcDbEntity
  8
0
 62
4
100
AcDbText
 10
19.740062605503272
 20
25.84067384792663
 30
0.0
 40
0.508958054974844
  1
= 28.000
 50
14.999999999999998
 11
19.740062605503272
 21
25.84067384792663
 31
0.0
100
AcDbAttribute
  2
YPOS
 70
0
  0
SEQEND
  5
11D
330
11C
100
AcDbEntity
  8
0
  0
INSERT
  5
121
330
17
100
AcDbEntity
  8
0
100
AcDbBlockReference
 66
1
  2
FLAG
 10
57.0
 20
-10.0
 30
0.0
 41
1.239760928076771
 42
1.239760928076771
 43
1.239760928076771
 50
15.0
  0
ATTRIB
  5
123
330
17
100
AcDbEntity
  8
0
 62
3
100
AcDbText
 10
58.95671251806031
 20
-10.117447940086361
 30
0.0
 40
0.6198804640383855
  1
P(45)
 50
14.999999999999998
 11
58.95671251806031
 21
-10.117447940086361
 31
0.0
100
AcDbAttribute
  2
NAME
 70
0
  0
ATTRIB
  5
124
330
17
100
AcDbEntity
  8
0
 62
4
100
AcDbText
 10
59.11714938784043
 20
-10.71620648951309
 30
0.0
 40
0.30994023201919274
  1
= 57.000
 50
14.999999999999998
 11
59.11714938784043
 21
-10.71620648951309
 31
0.0
100
AcDbAttribute
  2
XPOS
 70
0
  0
ATTRIB
  5
125
330
17
100
AcDbEntity
  8
0
 62
4
100
AcDbText
 10
59.277586257620555
 20
-11.314965038939818
 30
0.0
 40
0.30994023201919274
  1
= -10.000
 50
14.999999999999998
 11
59.277586257620555
 21
-11.314965038939818
 31
0.0
100
AcDbAttribute
  2
YPOS
 70
0
  0
SEQEND
  5
122
330
121
100
AcDbEntity
  8
0
  0
INSERT
  5
126
330
17
100
AcDbEntity
  8
0
100
AcDbBlockReference
 66
1
  2
FLAG
 10
56.0
 20
-37.0
 30
0.0
 41
2.2253278278458013
 42
2.2253278278458013
 43
2.2253278278458013
 50
15.0
  0
ATTRIB
  5
128
330
17
100
AcDbEntity
  8
0
 62
3
100
AcDbText
 10
59.51223104303558
 20
-37.21081497527333
 30
0.0
 40
1.1126639139229006
  1
P(46)
 50
14.999999999999998
 11
59.51223104303558
 21
-37.21081497527333
 31
0.0
100
AcDbAttribute
  2
NAME
 70
0
  0
ATTRIB
  5
129
330
17
100
AcDbEntity
  8
0
 62
4
100
AcDbText
 10
59.80020965475714
 20
-38.28556578571134
 30
0.0
 40
0.5563319569614503
  1
= 56.000
 50
14.999999999999998
 11
59.80020965475714
 21
-38.28556578571134
 31
0.0
100
AcDbAttribute
  2
XPOS
 70
0
  0
ATTRIB
  5
12A
330
17
100
AcDbEntity
  8
0
 62
4
100
AcDbText
 10
60.088188266478696
 20
-39.360316596149346
 30
0.0
 40
0.5563319569614503
  1
= -37.000
 50
14.999999999999998
 11
60.088188266478696
 21
-39.360316596149346
 31
0.0
100
AcDbAttribute
  2
YPOS
 70
0
  0
SEQEND
  5
127
330
126
100
AcDbEntity
  8
0
  0
INSERT
  5
12B
330
17
100
AcDbEntity
  8
0
100
AcDbBlockReference
 66
1
  2
FLAG
 10
7.0
 20
17.0
 30
0.0
 41
1.498459968400764
 42
1.498459968400764
 43
1.498459968400764
 50
15.0
  0
ATTRIB
  5
12D
330
17
100
AcDbEntity
  8
0
 62
3
100
AcDbText
 10
9.365016763780819
 20
16.85804437564946
 30
0.0
 40
0.749229984200382
  1
P(47)
 50
14.999999999999998
 11
9.365016763780819
 21
16.85804437564946
 31
0.0
100
AcDbAttribute
  2
NAME
 70
0
  0
ATTRIB
  5
12E
330
17
100
AcDbEntity
  8
0
 62
4
100
AcDbText
 10
9.558931752853738
 20
16.13434378408016
 30
0.0
 40
0.374614992100191
  1
= 7.000
 50
14.999999999999998
 11
9.558931752853738
 21
16.13434378408016
 31
0.0
100
AcDbAttribute
  2
XPOS
 70
0
  0
ATTRIB
  5
12F
330
17
100
AcDbEntity
  8
0
 62
4
100
AcDbText
 10
9.752846741926657
 20
15.41064319251086
 30
0.0
 40
0.374614992100191
  1
= 17.000
 50
14.999999999999998
 11
9.752846741926657
 21
15.41064319251086
 31
0.0
100
AcDbAttribute
  2
YPOS
 70
0
  0
SEQEND
  5
12C
330
12B
100
AcDbEntity
  8
0
  0
INSERT
  5
130
330
17
100
AcDbEntity
  8
0
100
AcDbBlockReference
 66
1
  2
FLAG
 10
-78.0
 20
-49.0
 30
0.0
 41
0.6600816354989871
 42
0.6600816354989871
 43
0.6600816354989871
 50
15.0
  0
ATTRIB
  5
132
330
17
100
AcDbEntity
  8
0
 62
3
100
AcDbText
 10
-76.95819430192383
 20
-49.06253240170946
 30
0.0
 40
0.33004081774949356
  1
P(48)
 50
14.999999999999998
 11
-76.95819430192383
 21
-49.06253240170946
 31
0.0
100
AcDbAttribute
  2
NAME
 70
0
  0
ATTRIB
  5
133
330
17
100
AcDbEntity
  8
0
 62
4
100
AcDbText
 10
-76.87277345262905
 20
-49.38132735130326
 30
0.0
 40
0.16502040887474678
  1
= -78.000
 50
14.999999999999998
 11
-76.87277345262905
 21
-49.38132735130326
 31
0.0
100
AcDbAttribute
  2
XPOS
 70
0
  0
ATTRIB
  5
134
330
17
100
AcDbEntity
  8
0
 62
4
100
AcDbText
 10
-76.78735260333427
 20
-49.700122300897064
 30
0.0
 40
0.16502040887474678
  1
= -49.000
 50
14.999999999999998
 11
-76.78735260333427
 21
-49.700122300897064
 31
0.0
100
AcDbAttribute
  2
YPOS
 70
0
  0
SEQEND
  5
131
330
130
100
AcDbEntity
  8
0
  0
INSERT
  5
135
330
17
100
AcDbEntity
  8
0
100
AcDbBlockReference
 66
1
  2
FLAG
 10
-56.0
 20
76.0
 30
0.0
 41
2.082424842693807
 42
2.082424842693807
 43
2.082424842693807
 50
15.0
  0
ATTRIB
  5
137
330
17
100
AcDbEntity
  8
0
 62
3
100
AcDbText
 10
-52.713312490062265
 20
75.80272284549372
 30
0.0
 40
1.0412124213469036
  1
P(49)
 50
14.999999999999998
 11
-52.713312490062265
 21
75.80272284549372
 31
0.0
100
AcDbAttribute
  2
NAME
 70
0
  0
ATTRIB
  5
138
330
17
100
AcDbEntity
  8
0
 62
4
100
AcDbText
 10
-52.44382688542037
 20
74.79698887706176
 30
0.0
 40
0.5206062106734518
  1
= -56.000
 50
14.999999999999998
 11
-52.44382688542037
 21
74.79698887706176
 31
0.0
100
AcDbAttribute
  2
XPOS
 70
0
  0
ATTRIB
  5
139
330
17
100
AcDbEntity
  8
0
 62
4
100
AcDbText
 10
-52.174341280778485
 20
73.79125490862982
 30
0.0
 40
0.5206062106734518
  1
= 76.000
 50
14.999999999999998
 11
-52.174341280778485
 21
73.79125490862982
 31
0.0
100
AcDbAttribute
  2
YPOS
 70
0
  0
SEQEND
  5
136
330
135
100
AcDbEntity
  8
0
  0
INSERT
  5
13A
330
17
100
AcDbEntity
  8
0
100
AcDbBlockReference
 66
1
  2
FLAG
 10
6.0
 20
85.0
 30
0.0
 41
1.6782043835274632
 42
1.6782043835274632
 43
1.6782043835274632
 50
15.0
  0
ATTRIB
  5
13C
330
17
100
AcDbEntity
  8
0
 62
3
100
AcDbText
 10
8.648707061776774
 20
84.84101640612681
 30
0.0
 40
0.8391021917637316
  1
P(50)
 50
14.999999999999998
 11
8.648707061776774
 21
84.84101640612681
 31
0.0
100
AcDbAttribute
  2
NAME
 70
0
  0
ATTRIB
  5
13D
330
17
100
AcDbEntity
  8
0
 62
4
100
AcDbText
 10
8.865882689792494
 20
84.03050592820647
 30
0.0
 40
0.4195510958818658
  1
= 6.000
 50
14.999999999999998
 11
8.865882689792494
 21
84.03050592820647
 31
0.0
100
AcDbAttribute
  2
XPOS
 70
0
  0
ATTRIB
  5
13E
330
17
100
AcDbEntity
  8
0
 62
4
100
AcDbText
 10
9.083058317808216
 20
83.2199954502861
 30
0.0
 40
0.4195510958818658
  1
= 85.000
 50
14.999999999999998
 11
9.083058317808216
 21
83.2199954502861
 31
0.0
100
AcDbAttribute
  2
YPOS
 70
0
  0
SEQEND
  5
13B
330
13A
100
AcDbEntity
  8
0
  0
ENDSEC
  0
SECTION
  2
OBJECTS
  0
DICTIONARY
  5
A
330
0
100
AcDbDictionary
280
0
281
1
  3
ACAD_COLOR
350
B
  3
ACAD_GROUP
350
C
  3
ACAD_LAYOUT
350
D
  3
ACAD_MATERIAL
350
E
  3
ACAD_MLEADERSTYLE
350
F
  3
ACAD_MLINESTYLE
350
10
  3
ACAD_PLOTSETTINGS
350
11
  3
ACAD_PLOTSTYLENAME
350
12
  3
ACAD_SCALELIST
350
14
  3
ACAD_TABLESTYLE
350
15
  3
ACAD_VISUALSTYLE
350
16
  3
EZDXF_META
350
2D
  0
DICTIONARY
  5
B
330
A
100
AcDbDictionary
280
0
281
1
  0
DICTIONARY
  5
C
330
A
100
AcDbDictionary
280
0
281
1
  0
DICTIONARY
  5
D
330
A
100
AcDbDictionary
280
0
281
1
  3
Model
350
1A
  3
Layout1
350
1E
  0
DICTIONARY
  5
E
330
A
100
AcDbDictionary
280
0
281
1
  3
ByBlock
350
1F
  3
ByLayer
350
20
  3
Global
350
21
  0
DICTIONARY
  5
F
330
A
100
AcDbDictionary
280
0
281
1
  3
Standard
350
2C
  0
DICTIONARY
  5
10
330
A
100
AcDbDictionary
280
0
281
1
  3
Standard
350
22
  0
DICTIONARY
  5
11
330
A
100
AcDbDictionary
280
0
281
1
  0
ACDBDICTIONARYWDFLT
  5
12
330
A
100
AcDbDictionary
280
0
281
1
  3
Normal
350
13
100
AcDbDictionaryWithDefault
340
13
  0
ACDBPLACEHOLDER
  5
13
330
12
  0
DICTIONARY
  5
14
330
A
100
AcDbDictionary
280
0
281
1
  0
DICTIONARY
  5
15
330
A
100
AcDbDictionary
280
0
281
1
  0
DICTIONARY
  5
16
330
A
100
AcDbDictionary
280
0
281
1
  0
LAYOUT
  5
1A
330
D
100
AcDbPlotSettings
  1

  4
A3
  6

 40
7.5
 41
20.0
 42
7.5
 43
20.0
 44
420.0
 45
297.0
 46
0.0
 47
0.0
 48
0.0
 49
0.0
140
0.0
141
0.0
142
1.0
143
1.0
 70
1024
 72
1
 73
0
 74
5
  7

 75
16
 76
0
 77
2
 78
300
147
1.0
148
0.0
149
0.0
100
AcDbLayout
  1
Model
 70
1
 71
0
 10
0.0
 20
0.0
 11
420.0
 21
297.0
 12
0.0
 22
0.0
 32
0.0
 14
1e+20
 24
1e+20
 34
1e+20
 15
-1e+20
 25
-1e+20
 35
-1e+20
146
0.0
 13
0.0
 23
0.0
 33
0.0
 16
1.0
 26
0.0
 36
0.0
 17
0.0
 27
1.0
 37
0.0
 76
1
330
17
  0
LAYOUT
  5
1E
330
D
100
AcDbPlotSettings
  1

  4
A3
  6

 40
7.5
 41
20.0
 42
7.5
 43
20.0
 44
420.0
 45
297.0
 46
0.0
 47
0.0
 48
0.0
 49
0.0
140
0.0
141
0.0
142
1.0
143
1.0
 70
0
 72
1
 73
0
 74
5
  7

 75
16
 76
0
 77
2
 78
300
147
1.0
148
0.0
149
0.0
100
AcDbLayout
  1
Layout1
 70
1
 71
1
 10
0.0
 20
0.0
 11
420.0
 21
297.0
 12
0.0
 22
0.0
 32
0.0
 14
1e+20
 24
1e+20
 34
1e+20
 15
-1e+20
 25
-1e+20
 35
-1e+20
146
0.0
 13
0.0
 23
0.0
 33
0.0
 16
1.0
 26
0.0
 36
0.0
 17
0.0
 27
1.0
 37
0.0
 76
1
330
1B
  0
MATERIAL
  5
1F
102
{ACAD_REACTORS
330
E
102
}
330
E
100
AcDbMaterial
  1
ByBlock
  2

 70
0
 40
1.0
 71
1
 41
1.0
 91
-1023410177
 42
1.0
 72
1
  3

 73
1
 74
1
 75
1
 44
0.5
 73
0
 45
1.0
 46
1.0
 77
1
  4

 78
1
 79
1
170
1
 48
1.0
171
1
  6

172
1
173
1
174
1
140
1.0
141
1.0
175
1
  7

176
1
177
1
178
1
143
1.0
179
1
  8

270
1
271
1
272
1
145
1.0
146
1.0
273
1
  9

274
1
275
1
276
1
 42
1.0
 72
1
  3

 73
1
 74
1
 75
1
 94
63
  0
MATERIAL
  5
20
102
{ACAD_REACTORS
330
E
102
}
330
E
100
AcDbMaterial
  1
ByLayer
  2

 70
0
 40
1.0
 71
1
 41
1.0
 91
-1023410177
 42
1.0
 72
1
  3

 73
1
 74
1
 75
1
 44
0.5
 73
0
 45
1.0
 46
1.0
 77
1
  4

 78
1
 79
1
170
1
 48
1.0
171
1
  6

172
1
173
1
174
1
140
1.0
141
1.0
175
1
  7

176
1
177
1
178
1
143
1.0
179
1
  8

270
1
271
1
272
1
145
1.0
146
1.0
273
1
  9

274
1
275
1
276
1
 42
1.0
 72
1
  3

 73
1
 74
1
 75
1
 94
63
  0
MATERIAL
  5
21
102
{ACAD_REACTORS
330
E
102
}
330
E
100
AcDbMaterial
  1
Global
  2

 70
0
 40
1.0
 71
1
 41
1.0
 91
-1023410177
 42
1.0
 72
1
  3

 73
1
 74
1
 75
1
 44
0.5
 73
0
 45
1.0
 46
1.0
 77
1
  4

 78
1
 79
1
170
1
 48
1.0
171
1
  6

172
1
173
1
174
1
140
1.0
141
1.0
175
1
  7

176
1
177
1
178
1
143
1.0
179
1
  8

270
1
271
1
272
1
145
1.0
146
1.0
273
1
  9

274
1
275
1
276
1
 42
1.0
 72
1
  3

 73
1
 74
1
 75
1
 94
63
  0
MLINESTYLE
  5
22
102
{ACAD_REACTORS
330
10
102
}
330
10
100
AcDbMlineStyle
  2
Standard
 70
0
  3

 62
256
 51
90.0
 52
90.0
 71
2
 49
0.5
 62
256
  6
BYLAYER
 49
-0.5
 62
256
  6
BYLAYER
  0
MLEADERSTYLE
  5
2C
102
{ACAD_REACTORS
330
F
102
}
330
F
100
AcDbMLeaderStyle
179
2
170
2
171
1
172
0
 90
2
 40
0.0
 41
0.0
173
1
 91
-1056964608
 92
-2
290
1
 42
2.0
291
1
 43
8.0
  3
Standard
 44
4.0
300

342
29
174
1
175
1
176
0
178
1
 93
-1056964608
 45
4.0
292
0
297
0
 46
4.0
 94
-1056964608
 47
1.0
 49
1.0
140
1.0
294
1
141
0.0
177
0
142
1.0
295
0
296
0
143
3.75
271
0
272
9
273
9
  0
DICTIONARY
  5
2D
330
A
100
AcDbDictionary
280
1
281
1
  3
CREATED_BY_EZDXF
350
2E
  3
WRITTEN_BY_EZDXF
350
141
  0
DICTIONARYVAR
  5
2E
330
2D
100
DictionaryVariables
280
0
  1
1.3.5 @ 2025-04-22T13:03:40.291327+00:00
  0
DICTIONARYVAR
  5
141
330
2D
100
DictionaryVariables
280
0
  1
1.3.5 @ 2025-04-22T13:03:40.305047+00:00
  0
ENDSEC
  0
EOF
