  0
SECTION
  2
HEADER
  9
$ACADVER
  1
AC1024
  9
$ACADMAINTVER
 70
6
  9
$DWGCODEPAGE
  3
ANSI_1252
  9
$LASTSAVEDBY
  1
ezdxf
  9
$INSBASE
 10
0.0
 20
0.0
 30
0.0
  9
$EXTMIN
 10
1e+20
 20
1e+20
 30
1e+20
  9
$EXTMAX
 10
-1e+20
 20
-1e+20
 30
-1e+20
  9
$LIMMIN
 10
0.0
 20
0.0
  9
$LIMMAX
 10
420.0
 20
297.0
  9
$ORTHOMODE
 70
0
  9
$REGENMODE
 70
1
  9
$FILLMODE
 70
1
  9
$QTEXTMODE
 70
0
  9
$MIRRTEXT
 70
1
  9
$LTSCALE
 40
1.0
  9
$ATTMODE
 70
1
  9
$TEXTSIZE
 40
2.5
  9
$TRACEWID
 40
1.0
  9
$TEXTSTYLE
  7
Standard
  9
$CLAYER
  8
0
  9
$CELTYPE
  6
ByLayer
  9
$CECOLOR
 62
256
  9
$CELTSCALE
 40
1.0
  9
$DISPSILH
 70
0
  9
$DIMSCALE
 40
1.0
  9
$DIMASZ
 40
2.5
  9
$DIMEXO
 40
0.625
  9
$DIMDLI
 40
3.75
  9
$DIMRND
 40
0.0
  9
$DIMDLE
 40
0.0
  9
$DIMEXE
 40
1.25
  9
$DIMTP
 40
0.0
  9
$DIMTM
 40
0.0
  9
$DIMTXT
 40
2.5
  9
$DIMCEN
 40
2.5
  9
$DIMTSZ
 40
0.0
  9
$DIMTOL
 70
0
  9
$DIMLIM
 70
0
  9
$DIMTIH
 70
0
  9
$DIMTOH
 70
0
  9
$DIMSE1
 70
0
  9
$DIMSE2
 70
0
  9
$DIMTAD
 70
1
  9
$DIMZIN
 70
8
  9
$DIMBLK
  1

  9
$DIMASO
 70
1
  9
$DIMSHO
 70
1
  9
$DIMPOST
  1

  9
$DIMAPOST
  1

  9
$DIMALT
 70
0
  9
$DIMALTD
 70
3
  9
$DIMALTF
 40
0.03937007874
  9
$DIMLFAC
 40
1.0
  9
$DIMTOFL
 70
1
  9
$DIMTVP
 40
0.0
  9
$DIMTIX
 70
0
  9
$DIMSOXD
 70
0
  9
$DIMSAH
 70
0
  9
$DIMBLK1
  1

  9
$DIMBLK2
  1

  9
$DIMSTYLE
  2
ISO-25
  9
$DIMCLRD
 70
0
  9
$DIMCLRE
 70
0
  9
$DIMCLRT
 70
0
  9
$DIMTFAC
 40
1.0
  9
$DIMGAP
 40
0.625
  9
$DIMJUST
 70
0
  9
$DIMSD1
 70
0
  9
$DIMSD2
 70
0
  9
$DIMTOLJ
 70
0
  9
$DIMTZIN
 70
8
  9
$DIMALTZ
 70
0
  9
$DIMALTTZ
 70
0
  9
$DIMUPT
 70
0
  9
$DIMDEC
 70
2
  9
$DIMTDEC
 70
2
  9
$DIMALTU
 70
2
  9
$DIMALTTD
 70
3
  9
$DIMTXSTY
  7
Standard
  9
$DIMAUNIT
 70
0
  9
$DIMADEC
 70
0
  9
$DIMALTRND
 40
0.0
  9
$DIMAZIN
 70
0
  9
$DIMDSEP
 70
44
  9
$DIMATFIT
 70
3
  9
$DIMFRAC
 70
0
  9
$DIMLDRBLK
  1

  9
$DIMLUNIT
 70
2
  9
$DIMLWD
 70
-2
  9
$DIMLWE
 70
-2
  9
$DIMTMOVE
 70
0
  9
$DIMFXL
 40
1.0
  9
$DIMFXLON
 70
0
  9
$DIMJOGANG
 40
0.785398163397
  9
$DIMTFILL
 70
0
  9
$DIMTFILLCLR
 70
0
  9
$DIMARCSYM
 70
0
  9
$DIMLTYPE
  6

  9
$DIMLTEX1
  6

  9
$DIMLTEX2
  6

  9
$DIMTXTDIRECTION
 70
0
  9
$LUNITS
 70
2
  9
$LUPREC
 70
4
  9
$SKETCHINC
 40
1.0
  9
$FILLETRAD
 40
10.0
  9
$AUNITS
 70
0
  9
$AUPREC
 70
2
  9
$MENU
  1
.
  9
$ELEVATION
 40
0.0
  9
$PELEVATION
 40
0.0
  9
$THICKNESS
 40
0.0
  9
$LIMCHECK
 70
0
  9
$CHAMFERA
 40
0.0
  9
$CHAMFERB
 40
0.0
  9
$CHAMFERC
 40
0.0
  9
$CHAMFERD
 40
0.0
  9
$SKPOLY
 70
0
  9
$TDCREATE
 40
2460786.171134259
  9
$TDUCREATE
 40
2458532.153996898
  9
$TDUPDATE
 40
2460786.171134259
  9
$TDUUPDATE
 40
2458532.1544311
  9
$TDINDWG
 40
0.0
  9
$TDUSRTIMER
 40
0.0
  9
$USRTIMER
 70
1
  9
$ANGBASE
 50
0.0
  9
$ANGDIR
 70
0
  9
$PDMODE
 70
0
  9
$PDSIZE
 40
0.0
  9
$PLINEWID
 40
0.0
  9
$SPLFRAME
 70
0
  9
$SPLINETYPE
 70
6
  9
$SPLINESEGS
 70
8
  9
$HANDSEED
  5
142
  9
$SURFTAB1
 70
6
  9
$SURFTAB2
 70
6
  9
$SURFTYPE
 70
6
  9
$SURFU
 70
6
  9
$SURFV
 70
6
  9
$UCSBASE
  2

  9
$UCSNAME
  2

  9
$UCSORG
 10
0.0
 20
0.0
 30
0.0
  9
$UCSXDIR
 10
1.0
 20
0.0
 30
0.0
  9
$UCSYDIR
 10
0.0
 20
1.0
 30
0.0
  9
$UCSORTHOREF
  2

  9
$UCSORTHOVIEW
 70
0
  9
$UCSORGTOP
 10
0.0
 20
0.0
 30
0.0
  9
$UCSORGBOTTOM
 10
0.0
 20
0.0
 30
0.0
  9
$UCSORGLEFT
 10
0.0
 20
0.0
 30
0.0
  9
$UCSORGRIGHT
 10
0.0
 20
0.0
 30
0.0
  9
$UCSORGFRONT
 10
0.0
 20
0.0
 30
0.0
  9
$UCSORGBACK
 10
0.0
 20
0.0
 30
0.0
  9
$PUCSBASE
  2

  9
$PUCSNAME
  2

  9
$PUCSORG
 10
0.0
 20
0.0
 30
0.0
  9
$PUCSXDIR
 10
1.0
 20
0.0
 30
0.0
  9
$PUCSYDIR
 10
0.0
 20
1.0
 30
0.0
  9
$PUCSORTHOREF
  2

  9
$PUCSORTHOVIEW
 70
0
  9
$PUCSORGTOP
 10
0.0
 20
0.0
 30
0.0
  9
$PUCSORGBOTTOM
 10
0.0
 20
0.0
 30
0.0
  9
$PUCSORGLEFT
 10
0.0
 20
0.0
 30
0.0
  9
$PUCSORGRIGHT
 10
0.0
 20
0.0
 30
0.0
  9
$PUCSORGFRONT
 10
0.0
 20
0.0
 30
0.0
  9
$PUCSORGBACK
 10
0.0
 20
0.0
 30
0.0
  9
$USERI1
 70
0
  9
$USERI2
 70
0
  9
$USERI3
 70
0
  9
$USERI4
 70
0
  9
$USERI5
 70
0
  9
$USERR1
 40
0.0
  9
$USERR2
 40
0.0
  9
$USERR3
 40
0.0
  9
$USERR4
 40
0.0
  9
$USERR5
 40
0.0
  9
$WORLDVIEW
 70
1
  9
$SHADEDGE
 70
3
  9
$SHADEDIF
 70
70
  9
$TILEMODE
 70
1
  9
$MAXACTVP
 70
64
  9
$PINSBASE
 10
0.0
 20
0.0
 30
0.0
  9
$PLIMCHECK
 70
0
  9
$PEXTMIN
 10
1e+20
 20
1e+20
 30
1e+20
  9
$PEXTMAX
 10
-1e+20
 20
-1e+20
 30
-1e+20
  9
$PLIMMIN
 10
0.0
 20
0.0
  9
$PLIMMAX
 10
420.0
 20
297.0
  9
$UNITMODE
 70
0
  9
$VISRETAIN
 70
1
  9
$PLINEGEN
 70
0
  9
$PSLTSCALE
 70
1
  9
$TREEDEPTH
 70
3020
  9
$CMLSTYLE
  2
Standard
  9
$CMLJUST
 70
0
  9
$CMLSCALE
 40
20.0
  9
$PROXYGRAPHICS
 70
1
  9
$MEASUREMENT
 70
1
  9
$CELWEIGHT
370
-1
  9
$ENDCAPS
280
0
  9
$JOINSTYLE
280
0
  9
$LWDISPLAY
290
0
  9
$INSUNITS
 70
6
  9
$HYPERLINKBASE
  1

  9
$STYLESHEET
  1

  9
$XEDIT
290
1
  9
$CEPSNTYPE
380
0
  9
$PSTYLEMODE
290
1
  9
$FINGERPRINTGUID
  2
{102627DC-CF9C-4C0B-AF82-37650913B7E5}
  9
$VERSIONGUID
  2
{0A8EFDB9-5173-444C-B5D5-614B1B121CDD}
  9
$EXTNAMES
290
1
  9
$PSVPSCALE
 40
0.0
  9
$OLESTARTUP
290
0
  9
$SORTENTS
280
127
  9
$INDEXCTL
280
0
  9
$HIDETEXT
280
1
  9
$XCLIPFRAME
280
1
  9
$HALOGAP
280
0
  9
$OBSCOLOR
 70
257
  9
$OBSLTYPE
280
0
  9
$INTERSECTIONDISPLAY
280
0
  9
$INTERSECTIONCOLOR
 70
257
  9
$DIMASSOC
280
2
  9
$PROJECTNAME
  1

  9
$CAMERADISPLAY
290
0
  9
$LENSLENGTH
 40
50.0
  9
$CAMERAHEIGHT
 40
0.0
  9
$STEPSPERSEC
 40
24.0
  9
$STEPSIZE
 40
100.0
  9
$3DDWFPREC
 40
2.0
  9
$PSOLWIDTH
 40
0.005
  9
$PSOLHEIGHT
 40
0.08
  9
$LOFTANG1
 40
1.570796326795
  9
$LOFTANG2
 40
1.570796326795
  9
$LOFTMAG1
 40
0.0
  9
$LOFTMAG2
 40
0.0
  9
$LOFTPARAM
 70
7
  9
$LOFTNORMALS
280
1
  9
$LATITUDE
 40
37.795
  9
$LONGITUDE
 40
-122.394
  9
$NORTHDIRECTION
 40
0.0
  9
$TIMEZONE
 70
-8000
  9
$LIGHTGLYPHDISPLAY
280
1
  9
$TILEMODELIGHTSYNCH
280
1
  9
$CMATERIAL
347
20
  9
$SOLIDHIST
280
0
  9
$SHOWHIST
280
1
  9
$DWFFRAME
280
2
  9
$DGNFRAME
280
2
  9
$REALWORLDSCALE
290
1
  9
$INTERFERECOLOR
 62
256
  9
$CSHADOW
280
0
  9
$SHADOWPLANELOCATION
 40
0.0
  0
ENDSEC
  0
SECTION
  2
CLASSES
  0
CLASS
  1
ACDBDICTIONARYWDFLT
  2
AcDbDictionaryWithDefault
  3
ObjectDBX Classes
 90
0
 91
0
280
0
281
0
  0
CLASS
  1
SUN
  2
AcDbSun
  3
SCENEOE
 90
1153
 91
0
280
0
281
0
  0
CLASS
  1
VISUALSTYLE
  2
AcDbVisualStyle
  3
ObjectDBX Classes
 90
4095
 91
0
280
0
281
0
  0
CLASS
  1
MATERIAL
  2
AcDbMaterial
  3
ObjectDBX Classes
 90
1153
 91
0
280
0
281
0
  0
CLASS
  1
SCALE
  2
AcDbScale
  3
ObjectDBX Classes
 90
1153
 91
0
280
0
281
0
  0
CLASS
  1
TABLESTYLE
  2
AcDbTableStyle
  3
ObjectDBX Classes
 90
4095
 91
0
280
0
281
0
  0
CLASS
  1
MLEADERSTYLE
  2
AcDbMLeaderStyle
  3
ACDB_MLEADERSTYLE_CLASS
 90
4095
 91
0
280
0
281
0
  0
CLASS
  1
DICTIONARYVAR
  2
AcDbDictionaryVar
  3
ObjectDBX Classes
 90
0
 91
0
280
0
281
0
  0
CLASS
  1
CELLSTYLEMAP
  2
AcDbCellStyleMap
  3
ObjectDBX Classes
 90
1152
 91
0
280
0
281
0
  0
CLASS
  1
MENTALRAYRENDERSETTINGS
  2
AcDbMentalRayRenderSettings
  3
SCENEOE
 90
1024
 91
0
280
0
281
0
  0
CLASS
  1
ACDBDETAILVIEWSTYLE
  2
AcDbDetailViewStyle
  3
ObjectDBX Classes
 90
1025
 91
0
280
0
281
0
  0
CLASS
  1
ACDBSECTIONVIEWSTYLE
  2
AcDbSectionViewStyle
  3
ObjectDBX Classes
 90
1025
 91
0
280
0
281
0
  0
CLASS
  1
RASTERVARIABLES
  2
AcDbRasterVariables
  3
ISM
 90
0
 91
0
280
0
281
0
  0
CLASS
  1
LAYOUT
  2
AcDbLayout
  3
ObjectDBX Classes
 90
0
 91
0
280
0
281
0
  0
CLASS
  1
ACDBPLACEHOLDER
  2
AcDbPlaceHolder
  3
ObjectDBX Classes
 90
0
 91
0
280
0
281
0
  0
ENDSEC
  0
SECTION
  2
TABLES
  0
TABLE
  2
VPORT
  5
8
330
0
100
AcDbSymbolTable
 70
1
  0
VPORT
  5
23
330
8
100
AcDbSymbolTableRecord
100
AcDbViewportTableRecord
  2
*Active
 70
0
 10
0.0
 20
0.0
 11
1.0
 21
1.0
 12
0.0
 22
0.0
 13
0.0
 23
0.0
 14
0.5
 24
0.5
 15
0.5
 25
0.5
 16
0.0
 26
0.0
 36
1.0
 17
0.0
 27
0.0
 37
0.0
 40
1000.0
 41
1.34
 42
50.0
 43
0.0
 44
0.0
 50
0.0
 51
0.0
 71
0
 72
1000
 73
1
 74
3
 75
0
 76
0
 77
0
 78
0
281
0
 65
0
146
0.0
  0
ENDTAB
  0
TABLE
  2
LTYPE
  5
2
330
0
100
AcDbSymbolTable
 70
3
  0
LTYPE
  5
24
330
2
100
AcDbSymbolTableRecord
100
AcDbLinetypeTableRecord
  2
ByBlock
 70
0
  3

 72
65
 73
0
 40
0.0
  0
LTYPE
  5
25
330
2
100
AcDbSymbolTableRecord
100
AcDbLinetypeTableRecord
  2
ByLayer
 70
0
  3

 72
65
 73
0
 40
0.0
  0
LTYPE
  5
26
330
2
100
AcDbSymbolTableRecord
100
AcDbLinetypeTableRecord
  2
Continuous
 70
0
  3

 72
65
 73
0
 40
0.0
  0
ENDTAB
  0
TABLE
  2
LAYER
  5
1
330
0
100
AcDbSymbolTable
 70
2
  0
LAYER
  5
27
330
1
100
AcDbSymbolTableRecord
100
AcDbLayerTableRecord
  2
0
 70
0
 62
7
  6
Continuous
370
-3
390
13
347
21
  0
LAYER
  5
28
330
1
100
AcDbSymbolTableRecord
100
AcDbLayerTableRecord
  2
Defpoints
 70
0
 62
7
  6
Continuous
290
0
370
-3
390
13
347
21
  0
ENDTAB
  0
TABLE
  2
STYLE
  5
5
330
0
100
AcDbSymbolTable
 70
1
  0
STYLE
  5
29
330
5
100
AcDbSymbolTableRecord
100
AcDbTextStyleTableRecord
  2
Standard
 70
0
 40
0.0
 41
1.0
 50
0.0
 71
0
 42
2.5
  3
txt
  4

  0
ENDTAB
  0
TABLE
  2
VIEW
  5
7
330
0
100
AcDbSymbolTable
 70
0
  0
ENDTAB
  0
TABLE
  2
UCS
  5
6
330
0
100
AcDbSymbolTable
 70
0
  0
ENDTAB
  0
TABLE
  2
APPID
  5
3
330
0
100
AcDbSymbolTable
 70
3
  0
APPID
  5
2A
330
3
100
AcDbSymbolTableRecord
100
AcDbRegAppTableRecord
  2
ACAD
 70
0
  0
APPID
  5
13F
330
3
100
AcDbSymbolTableRecord
100
AcDbRegAppTableRecord
  2
HATCHBACKGROUNDCOLOR
 70
0
  0
APPID
  5
140
330
3
100
AcDbSymbolTableRecord
100
AcDbRegAppTableRecord
  2
EZDXF
 70
0
  0
ENDTAB
  0
TABLE
  2
DIMSTYLE
  5
4
330
0
100
AcDbSymbolTable
 70
1
100
AcDbDimStyleTable
  0
DIMSTYLE
105
2B
330
4
100
AcDbSymbolTableRecord
100
AcDbDimStyleTableRecord
  2
Standard
 70
0
 40
1.0
 41
2.5
 42
0.625
 43
3.75
 44
1.25
 45
0.0
 46
0.0
 47
0.0
 48
0.0
 49
2.5
140
2.5
141
2.5
142
0.0
143
0.03937007874
144
1.0
145
0.0
146
1.0
147
0.625
148
0.0
 69
0
 70
0
 71
0
 72
0
 73
0
 74
0
 75
0
 76
0
 77
1
 78
8
 79
3
170
0
171
3
172
1
173
0
174
0
175
0
176
0
177
0
178
0
179
2
271
2
272
2
273
2
274
3
275
0
276
0
277
2
278
44
279
0
280
0
281
0
282
0
283
0
284
8
285
0
286
0
288
0
289
3
290
0
371
-2
372
-2
  0
ENDTAB
  0
TABLE
  2
BLOCK_RECORD
  5
9
330
0
100
AcDbSymbolTable
 70
4
  0
BLOCK_RECORD
  5
17
330
9
100
AcDbSymbolTableRecord
100
AcDbBlockTableRecord
  2
*Model_Space
340
1A
 70
0
280
1
281
0
  0
BLOCK_RECORD
  5
1B
330
9
100
AcDbSymbolTableRecord
100
AcDbBlockTableRecord
  2
*Paper_Space
340
1E
 70
0
280
1
281
0
  0
BLOCK_RECORD
  5
2F
330
9
100
AcDbSymbolTableRecord
100
AcDbBlockTableRecord
  2
FLAG
340
0
 70
0
280
1
281
0
  0
BLOCK_RECORD
  5
38
330
9
100
AcDbSymbolTableRecord
100
AcDbBlockTableRecord
  2
штамп
340
0
 70
0
280
1
281
0
  0
ENDTAB
  0
ENDSEC
  0
SECTION
  2
BLOCKS
  0
BLOCK
  5
18
330
17
100
AcDbEntity
  8
0
100
AcDbBlockBegin
  2
*Model_Space
 70
0
 10
0.0
 20
0.0
 30
0.0
  3
*Model_Space
  1

  0
ENDBLK
  5
19
330
17
100
AcDbEntity
  8
0
100
AcDbBlockEnd
  0
BLOCK
  5
1C
330
1B
100
AcDbEntity
  8
0
100
AcDbBlockBegin
  2
*Paper_Space
 70
0
 10
0.0
 20
0.0
 30
0.0
  3
*Paper_Space
  1

  0
ENDBLK
  5
1D
330
1B
100
AcDbEntity
  8
0
100
AcDbBlockEnd
  0
BLOCK
  5
30
330
2F
100
AcDbEntity
  8
0
100
AcDbBlockBegin
  2
FLAG
 70
2
 10
0.0
 20
0.0
 30
0.0
  3
FLAG
  1

  0
TEXT
  5
32
330
2F
100
AcDbEntity
  8
0
 62
3
100
AcDbText
 10
0.0
 20
-0.5
 30
0.0
 40
0.5
  1
NAME:
100
AcDbText
  0
ATTDEF
  5
33
330
2F
100
AcDbEntity
  8
0
 62
3
100
AcDbText
 10
1.5
 20
-0.5
 30
0.0
 40
0.5
  1

100
AcDbAttributeDefinition
  3

  2
NAME
 70
0
  0
TEXT
  5
34
330
2F
100
AcDbEntity
  8
0
 62
4
100
AcDbText
 10
0.0
 20
-1.0
 30
0.0
 40
0.25
  1
XPOS:
100
AcDbText
  0
ATTDEF
  5
35
330
2F
100
AcDbEntity
  8
0
 62
4
100
AcDbText
 10
1.5
 20
-1.0
 30
0.0
 40
0.25
  1

100
AcDbAttributeDefinition
  3

  2
XPOS
 70
0
  0
TEXT
  5
36
330
2F
100
AcDbEntity
  8
0
 62
4
100
AcDbText
 10
0.0
 20
-1.5
 30
0.0
 40
0.25
  1
YPOS:
100
AcDbText
  0
ATTDEF
  5
37
330
2F
100
AcDbEntity
  8
0
 62
4
100
AcDbText
 10
1.5
 20
-1.5
 30
0.0
 40
0.25
  1

100
AcDbAttributeDefinition
  3

  2
YPOS
 70
0
  0
ENDBLK
  5
31
330
2F
100
AcDbEntity
  8
0
100
AcDbBlockEnd
  0
BLOCK
  5
39
330
38
100
AcDbEntity
  8
0
100
AcDbBlockBegin
  2
штамп
 70
2
 10
0.0
 20
0.0
 30
0.0
  3
штамп
  1

  0
LWPOLYLINE
  5
3D
330
38
100
AcDbEntity
  8
F_TitleBox
 62
4
100
AcDbPolyline
 90
5
 70
1
 10
-188.0
 20
-165.0
 10
-188.0
 20
132.0
 10
22.0
 20
132.0
 10
22.0
 20
-165.0
 10
-188.0
 20
-165.0
  0
LWPOLYLINE
  5
3E
330
38
100
AcDbEntity
  8
F_TitleBox
 62
2
100
AcDbPolyline
 90
5
 70
1
 43
0.4
 10
-168.0
 20
-160.0
 10
-168.0
 20
127.0
 10
17.0
 20
127.0
 10
17.0
 20
-160.0
 10
-168.0
 20
-160.0
  0
POINT
  5
3F
330
38
100
AcDbEntity
  8
POINTS
 62
1
100
AcDbPoint
 10
0.0
 20
0.0
 30
0.0
  0
TEXT
  5
40
330
38
100
AcDbEntity
  8
0
 62
3
100
AcDbText
 10
0.0
 20
0.0
 30
0.0
 40
0.5
  1
Name:
100
AcDbText
  0
ATTDEF
  5
41
330
38
100
AcDbEntity
  8
0
 62
3
100
AcDbText
 10
1.0
 20
0.0
 30
0.0
 40
0.5
  1

100
AcDbAttributeDefinition
  3

  2
NAME
 70
0
  0
ENDBLK
  5
3A
330
38
100
AcDbEntity
  8
0
100
AcDbBlockEnd
  0
ENDSEC
  0
SECTION
  2
ENTITIES
  0
INSERT
  5
3B
330
17
100
AcDbEntity
  8
F_TitleBox
100
AcDbBlockReference
  2
штамп
 10
0.0
 20
0.0
 30
0.0
  0
INSERT
  5
42
330
17
100
AcDbEntity
  8
0
100
AcDbBlockReference
 66
1
  2
штамп
 10
10.0
 20
20.0
 30
0.0
 41
3.8
 42
3.8
 43
3.8
 50
15.0
  0
ATTRIB
  5
44
330
17
100
AcDbEntity
  8
0
 62
3
100
AcDbText
 10
13.670518139898459
 20
20.98351237138958
 30
0.0
 40
1.9
  1
Object
 50
14.999999999999998
 11
13.670518139898459
 21
20.98351237138958
 31
0.0
100
AcDbAttribute
  2
NAME
 70
0
  0
SEQEND
  5
43
330
42
100
AcDbEntity
  8
0
  0
INSERT
  5
45
330
17
100
AcDbEntity
  8
0
100
AcDbBlockReference
 66
1
  2
FLAG
 10
-21.0
 20
-12.0
 30
0.0
 41
0.8869097109537247
 42
0.8869097109537247
 43
0.8869097109537247
 50
15.0
  0
ATTRIB
  5
47
330
17
100
AcDbEntity
  8
0
 62
3
100
AcDbText
 10
-19.60019194466424
 20
-12.084020810976593
 30
0.0
 40
0.4434548554768624
  1
P(1)
 50
14.999999999999998
 11
-19.60019194466424
 21
-12.084020810976593
 31
0.0
100
AcDbAttribute
  2
NAME
 70
0
  0
ATTRIB
  5
48
330
17
100
AcDbEntity
  8
0
 62
4
100
AcDbText
 10
-19.48541738242364
 20
-12.512365308674982
 30
0.0
 40
0.2217274277384312
  1
= -21.000
 50
14.999999999999998
 11
-19.48541738242364
 21
-12.512365308674982
 31
0.0
100
AcDbAttribute
  2
XPOS
 70
0
  0
ATTRIB
  5
49
330
17
100
AcDbEntity
  8
0
 62
4
100
AcDbText
 10
-19.370642820183043
 20
-12.94070980637337
 30
0.0
 40
0.2217274277384312
  1
= -12.000
 50
14.999999999999998
 11
-19.370642820183043
 21
-12.94070980637337
 31
0.0
100
AcDbAttribute
  2
YPOS
 70
0
  0
SEQEND
  5
46
330
45
100
AcDbEntity
  8
0
  0
INSERT
  5
4A
330
17
100
AcDbEntity
  8
0
100
AcDbBlockReference
 66
1
  2
FLAG
 10
-86.0
 20
-32.0
 30
0.0
 41
1.7199225951789807
 42
1.7199225951789807
 43
1.7199225951789807
 50
15.0
  0
ATTRIB
  5
4C
330
17
100
AcDbEntity
  8
0
 62
3
100
AcDbText
 10
-83.28544915728052
 20
-32.16293574134904
 30
0.0
 40
0.8599612975894905
  1
P(2)
 50
14.999999999999998
 11
-83.28544915728052
 21
-32.16293574134904
 31
0.0
100
AcDbAttribute
  2
NAME
 70
0
  0
ATTRIB
  5
4D
330
17
100
AcDbEntity
  8
0
 62
4
100
AcDbText
 10
-83.06287479541328
 20
-32.993594568299784
 30
0.0
 40
0.42998064879474523
  1
= -86.000
 50
14.999999999999998
 11
-83.06287479541328
 21
-32.993594568299784
 31
0.0
100
AcDbAttribute
  2
XPOS
 70
0
  0
ATTRIB
  5
4E
330
17
100
AcDbEntity
  8
0
 62
4
100
AcDbText
 10
-82.84030043354605
 20
-33.82425339525054
 30
0.0
 40
0.42998064879474523
  1
= -32.000
 50
14.999999999999998
 11
-82.84030043354605
 21
-33.82425339525054
 31
0.0
100
AcDbAttribute
  2
YPOS
 70
0
  0
SEQEND
  5
4B
330
4A
100
AcDbEntity
  8
0
  0
INSERT
  5
4F
330
17
100
AcDbEntity
  8
0
100
AcDbBlockReference
 66
1
  2
FLAG
 10
56.0
 20
-71.0
 30
0.0
 41
1.2063368783233417
 42
1.2063368783233417
 43
1.2063368783233417
 50
15.0
  0
ATTRIB
  5
51
330
17
100
AcDbEntity
  8
0
 62
3
100
AcDbText
 10
57.903959398425975
 20
-71.11428153460932
 30
0.0
 40
0.6031684391616708
  1
P(3)
 50
14.999999999999998
 41
1.0000000000000002
 11
57.903959398425975
 21
-71.11428153460932
 31
0.0
100
AcDbAttribute
  2
NAME
 70
0
  0
ATTRIB
  5
52
330
17
100
AcDbEntity
  8
0
 62
4
100
AcDbText
 10
58.06007087788578
 20
-71.69689750759804
 30
0.0
 40
0.3015842195808354
  1
= 56.000
 50
14.999999999999998
 41
1.0000000000000002
 11
58.06007087788578
 21
-71.69689750759804
 31
0.0
100
AcDbAttribute
  2
XPOS
 70
0
  0
ATTRIB
  5
53
330
17
100
AcDbEntity
  8
0
 62
4
100
AcDbText
 10
58.21618235734558
 20
-72.27951348058677
 30
0.0
 40
0.3015842195808354
  1
= -71.000
 50
14.999999999999998
 41
1.0000000000000002
 11
58.21618235734558
 21
-72.27951348058677
 31
0.0
100
AcDbAttribute
  2
YPOS
 70
0
  0
SEQEND
  5
50
330
4F
100
AcDbEntity
  8
0
  0
INSERT
  5
54
330
17
100
AcDbEntity
  8
0
100
AcDbBlockReference
 66
1
  2
FLAG
 10
-19.0
 20
63.0
 30
0.0
 41
1.092901688355021
 42
1.092901688355021
 43
1.092901688355021
 50
15.0
  0
ATTRIB
  5
56
330
17
100
AcDbEntity
  8
0
 62
3
100
AcDbText
 10
-17.275075164748948
 20
62.896464673867946
 30
0.0
 40
0.5464508441775107
  1
P(4)
 50
14.999999999999998
 11
-17.275075164748948
 21
62.896464673867946
 31
0.0
100
AcDbAttribute
  2
NAME
 70
0
  0
ATTRIB
  5
57
330
17
100
AcDbEntity
  8
0
 62
4
100
AcDbText
 10
-17.13364327906346
 20
62.368633690679424
 30
0.0
 40
0.27322542208875533
  1
= -19.000
 50
14.999999999999998
 11
-17.13364327906346
 21
62.368633690679424
 31
0.0
100
AcDbAttribute
  2
XPOS
 70
0
  0
ATTRIB
  5
58
330
17
100
AcDbEntity
  8
0
 62
4
100
AcDbText
 10
-16.992211393377968
 20
61.84080270749091
 30
0.0
 40
0.27322542208875533
  1
= 63.000
 50
14.999999999999998
 11
-16.992211393377968
 21
61.84080270749091
 31
0.0
100
AcDbAttribute
  2
YPOS
 70
0
  0
SEQEND
  5
55
330
54
100
AcDbEntity
  8
0
  0
INSERT
  5
59
330
17
100
AcDbEntity
  8
0
100
AcDbBlockReference
 66
1
  2
FLAG
 10
60.0
 20
-26.0
 30
0.0
 41
1.1249896011441678
 42
1.1249896011441678
 43
1.1249896011441678
 50
15.0
  0
ATTRIB
  5
5B
330
17
100
AcDbEntity
  8
0
 62
3
100
AcDbText
 10
61.77556913223688
 20
-26.106575153548295
 30
0.0
 40
0.562494800572084
  1
P(5)
 50
14.999999999999998
 11
61.77556913223688
 21
-26.106575153548295
 31
0.0
100
AcDbAttribute
  2
NAME
 70
0
  0
ATTRIB
  5
5C
330
17
100
AcDbEntity
  8
0
 62
4
100
AcDbText
 10
61.921153499396084
 20
-26.64990340857419
 30
0.0
 40
0.281247400286042
  1
= 60.000
 50
14.999999999999998
 11
61.921153499396084
 21
-26.64990340857419
 31
0.0
100
AcDbAttribute
  2
XPOS
 70
0
  0
ATTRIB
  5
5D
330
17
100
AcDbEntity
  8
0
 62
4
100
AcDbText
 10
62.066737866555286
 20
-27.193231663600088
 30
0.0
 40
0.281247400286042
  1
= -26.000
 50
14.999999999999998
 11
62.066737866555286
 21
-27.193231663600088
 31
0.0
100
AcDbAttribute
  2
YPOS
 70
0
  0
SEQEND
  5
5A
330
59
100
AcDbEntity
  8
0
  0
INSERT
  5
5E
330
17
100
AcDbEntity
  8
0
100
AcDbBlockReference
 66
1
  2
FLAG
 10
26.0
 20
-26.0
 30
0.0
 41
2.3222860226291093
 42
2.3222860226291093
 43
2.3222860226291093
 50
15.0
  0
ATTRIB
  5
60
330
17
100
AcDbEntity
  8
0
 62
3
100
AcDbText
 10
29.665259993347263
 20
-26.220000246396094
 30
0.0
 40
1.1611430113145544
  1
P(6)
 50
14.999999999999998
 41
1.0000000000000002
 11
29.665259993347263
 21
-26.220000246396094
 31
0.0
100
AcDbAttribute
  2
NAME
 70
0
  0
ATTRIB
  5
61
330
17
100
AcDbEntity
  8
0
 62
4
100
AcDbText
 10
29.96578591876316
 20
-27.341578269039882
 30
0.0
 40
0.5805715056572772
  1
= 26.000
 50
14.999999999999998
 41
1.0000000000000002
 11
29.96578591876316
 21
-27.341578269039882
 31
0.0
100
AcDbAttribute
  2
XPOS
 70
0
  0
ATTRIB
  5
62
330
17
100
AcDbEntity
  8
0
 62
4
100
AcDbText
 10
30.26631184417906
 20
-28.463156291683667
 30
0.0
 40
0.5805715056572772
  1
= -26.000
 50
14.999999999999998
 41
1.0000000000000002
 11
30.26631184417906
 21
-28.463156291683667
 31
0.0
100
AcDbAttribute
  2
YPOS
 70
0
  0
SEQEND
  5
5F
330
5E
100
AcDbEntity
  8
0
  0
INSERT
  5
63
330
17
100
AcDbEntity
  8
0
100
AcDbBlockReference
 66
1
  2
FLAG
 10
6.0
 20
-68.0
 30
0.0
 41
2.324123852387481
 42
2.324123852387481
 43
2.324123852387481
 50
15.0
  0
ATTRIB
  5
65
330
17
100
AcDbEntity
  8
0
 62
3
100
AcDbText
 10
9.668160636860726
 20
-68.22017435199538
 30
0.0
 40
1.1620619261937406
  1
P(7)
 50
14.999999999999998
 11
9.668160636860726
 21
-68.22017435199538
 31
0.0
100
AcDbAttribute
  2
NAME
 70
0
  0
ATTRIB
  5
66
330
17
100
AcDbEntity
  8
0
 62
4
100
AcDbText
 10
9.968924394948186
 20
-69.34263997825313
 30
0.0
 40
0.5810309630968703
  1
= 6.000
 50
14.999999999999998
 11
9.968924394948186
 21
-69.34263997825313
 31
0.0
100
AcDbAttribute
  2
XPOS
 70
0
  0
ATTRIB
  5
67
330
17
100
AcDbEntity
  8
0
 62
4
100
AcDbText
 10
10.269688153035645
 20
-70.46510560451088
 30
0.0
 40
0.5810309630968703
  1
= -68.000
 50
14.999999999999998
 11
10.269688153035645
 21
-70.46510560451088
 31
0.0
100
AcDbAttribute
  2
YPOS
 70
0
  0
SEQEND
  5
64
330
63
100
AcDbEntity
  8
0
  0
INSERT
  5
68
330
17
100
AcDbEntity
  8
0
100
AcDbBlockReference
 66
1
  2
FLAG
 10
48.0
 20
-81.0
 30
0.0
 41
2.063517026376541
 42
2.063517026376541
 43
2.063517026376541
 50
15.0
  0
ATTRIB
  5
6A
330
17
100
AcDbEntity
  8
0
 62
3
100
AcDbText
 10
51.25684533630627
 20
-81.1954859349028
 30
0.0
 40
1.0317585131882705
  1
P(8)
 50
14.999999999999998
 11
51.25684533630627
 21
-81.1954859349028
 31
0.0
100
AcDbAttribute
  2
NAME
 70
0
  0
ATTRIB
  5
6B
330
17
100
AcDbEntity
  8
0
 62
4
100
AcDbText
 10
51.52388408946605
 20
-82.19208812928497
 30
0.0
 40
0.5158792565941352
  1
= 48.000
 50
14.999999999999998
 11
51.52388408946605
 21
-82.19208812928497
 31
0.0
100
AcDbAttribute
  2
XPOS
 70
0
  0
ATTRIB
  5
6C
330
17
100
AcDbEntity
  8
0
 62
4
100
AcDbText
 10
51.79092284262584
 20
-83.18869032366713
 30
0.0
 40
0.5158792565941352
  1
= -81.000
 50
14.999999999999998
 11
51.79092284262584
 21
-83.18869032366713
 31
0.0
100
AcDbAttribute
  2
YPOS
 70
0
  0
SEQEND
  5
69
330
68
100
AcDbEntity
  8
0
  0
INSERT
  5
6D
330
17
100
AcDbEntity
  8
0
100
AcDbBlockReference
 66
1
  2
FLAG
 10
27.0
 20
-95.0
 30
0.0
 41
0.8323543235760056
 42
0.8323543235760056
 43
0.8323543235760056
 50
15.0
  0
ATTRIB
  5
6F
330
17
100
AcDbEntity
  8
0
 62
3
100
AcDbText
 10
28.313703382255596
 20
-95.07885254206037
 30
0.0
 40
0.4161771617880028
  1
P(9)
 50
14.999999999999998
 41
1.0000000000000002
 11
28.313703382255596
 21
-95.07885254206037
 31
0.0
100
AcDbAttribute
  2
NAME
 70
0
  0
ATTRIB
  5
70
330
17
100
AcDbEntity
  8
0
 62
4
100
AcDbText
 10
28.421417957863042
 20
-95.48084881094309
 30
0.0
 40
0.2080885808940014
  1
= 27.000
 50
14.999999999999998
 41
1.0000000000000002
 11
28.421417957863042
 21
-95.48084881094309
 31
0.0
100
AcDbAttribute
  2
XPOS
 70
0
  0
ATTRIB
  5
71
330
17
100
AcDbEntity
  8
0
 62
4
100
AcDbText
 10
28.52913253347049
 20
-95.8828450798258
 30
0.0
 40
0.2080885808940014
  1
= -95.000
 50
14.999999999999998
 41
1.0000000000000002
 11
28.52913253347049
 21
-95.8828450798258
 31
0.0
100
AcDbAttribute
  2
YPOS
 70
0
  0
SEQEND
  5
6E
330
6D
100
AcDbEntity
  8
0
  0
INSERT
  5
72
330
17
100
AcDbEntity
  8
0
100
AcDbBlockReference
 66
1
  2
FLAG
 10
96.0
 20
57.0
 30
0.0
 41
1.4423658517449527
 42
1.4423658517449527
 43
1.4423658517449527
 50
15.0
  0
ATTRIB
  5
74
330
17
100
AcDbEntity
  8
0
 62
3
100
AcDbText
 10
98.27648351695538
 20
56.86335841507673
 30
0.0
 40
0.7211829258724763
  1
P(10)
 50
15.000000000000002
 11
98.27648351695538
 21
56.86335841507673
 31
0.0
100
AcDbAttribute
  2
NAME
 70
0
  0
ATTRIB
  5
75
330
17
100
AcDbEntity
  8
0
 62
4
100
AcDbText
 10
98.46313939317393
 20
56.16674920149779
 30
0.0
 40
0.36059146293623817
  1
= 96.000
 50
15.000000000000002
 11
98.46313939317393
 21
56.16674920149779
 31
0.0
100
AcDbAttribute
  2
XPOS
 70
0
  0
ATTRIB
  5
76
330
17
100
AcDbEntity
  8
0
 62
4
100
AcDbText
 10
98.64979526939248
 20
55.47013998791885
 30
0.0
 40
0.36059146293623817
  1
= 57.000
 50
15.000000000000002
 11
98.64979526939248
 21
55.47013998791885
 31
0.0
100
AcDbAttribute
  2
YPOS
 70
0
  0
SEQEND
  5
73
330
72
100
AcDbEntity
  8
0
  0
INSERT
  5
77
330
17
100
AcDbEntity
  8
0
100
AcDbBlockReference
 66
1
  2
FLAG
 10
-68.0
 20
34.0
 30
0.0
 41
0.6872355415308495
 42
0.6872355415308495
 43
0.6872355415308495
 50
15.0
  0
ATTRIB
  5
79
330
17
100
AcDbEntity
  8
0
 62
3
100
AcDbText
 10
-66.91533733922763
 20
33.934895190775094
 30
0.0
 40
0.34361777076542477
  1
P(11)
 50
14.999999999999996
 11
-66.91533733922763
 21
33.934895190775094
 31
0.0
100
AcDbAttribute
  2
NAME
 70
0
  0
ATTRIB
  5
7A
330
17
100
AcDbEntity
  8
0
 62
4
100
AcDbText
 10
-66.82640251591786
 20
33.60298591162089
 30
0.0
 40
0.17180888538271238
  1
= -68.000
 50
14.999999999999996
 11
-66.82640251591786
 21
33.60298591162089
 31
0.0
100
AcDbAttribute
  2
XPOS
 70
0
  0
ATTRIB
  5
7B
330
17
100
AcDbEntity
  8
0
 62
4
100
AcDbText
 10
-66.7374676926081
 20
33.27107663246669
 30
0.0
 40
0.17180888538271238
  1
= 34.000
 50
14.999999999999996
 11
-66.7374676926081
 21
33.27107663246669
 31
0.0
100
AcDbAttribute
  2
YPOS
 70
0
  0
SEQEND
  5
78
330
77
100
AcDbEntity
  8
0
  0
INSERT
  5
7C
330
17
100
AcDbEntity
  8
0
100
AcDbBlockReference
 66
1
  2
FLAG
 10
-98.0
 20
-92.0
 30
0.0
 41
0.8408524115180036
 42
0.8408524115180036
 43
0.8408524115180036
 50
15.0
  0
ATTRIB
  5
7E
330
17
100
AcDbEntity
  8
0
 62
3
100
AcDbText
 10
-96.67288410031536
 20
-92.07965760285948
 30
0.0
 40
0.4204262057590018
  1
P(12)
 50
14.999999999999998
 11
-96.67288410031536
 21
-92.07965760285948
 31
0.0
100
AcDbAttribute
  2
NAME
 70
0
  0
ATTRIB
  5
7F
330
17
100
AcDbEntity
  8
0
 62
4
100
AcDbText
 10
-96.56406979120473
 20
-92.48575813305082
 30
0.0
 40
0.2102131028795009
  1
= -98.000
 50
14.999999999999998
 11
-96.56406979120473
 21
-92.48575813305082
 31
0.0
100
AcDbAttribute
  2
XPOS
 70
0
  0
ATTRIB
  5
80
330
17
100
AcDbEntity
  8
0
 62
4
100
AcDbText
 10
-96.45525548209412
 20
-92.89185866324216
 30
0.0
 40
0.2102131028795009
  1
= -92.000
 50
14.999999999999998
 11
-96.45525548209412
 21
-92.89185866324216
 31
0.0
100
AcDbAttribute
  2
YPOS
 70
0
  0
SEQEND
  5
7D
330
7C
100
AcDbEntity
  8
0
  0
INSERT
  5
81
330
17
100
AcDbEntity
  8
0
100
AcDbBlockReference
 66
1
  2
FLAG
 10
-4.0
 20
-4.0
 30
0.0
 41
0.8296838883879387
 42
0.8296838883879387
 43
0.8296838883879387
 50
15.0
  0
ATTRIB
  5
83
330
17
100
AcDbEntity
  8
0
 62
3
100
AcDbText
 10
-2.6905113609604734
 20
-4.078599560130654
 30
0.0
 40
0.41484194419396936
  1
P(13)
 50
14.999999999999998
 41
1.0000000000000002
 11
-2.6905113609604734
 21
-4.078599560130654
 31
0.0
100
AcDbAttribute
  2
NAME
 70
0
  0
ATTRIB
  5
84
330
17
100
AcDbEntity
  8
0
 62
4
100
AcDbText
 10
-2.583142365095717
 20
-4.479306107855578
 30
0.0
 40
0.20742097209698468
  1
= -4.000
 50
14.999999999999998
 41
1.0000000000000002
 11
-2.583142365095717
 21
-4.479306107855578
 31
0.0
100
AcDbAttribute
  2
XPOS
 70
0
  0
ATTRIB
  5
85
330
17
100
AcDbEntity
  8
0
 62
4
100
AcDbText
 10
-2.4757733692309607
 20
-4.880012655580501
 30
0.0
 40
0.20742097209698468
  1
= -4.000
 50
14.999999999999998
 41
1.0000000000000002
 11
-2.4757733692309607
 21
-4.880012655580501
 31
0.0
100
AcDbAttribute
  2
YPOS
 70
0
  0
SEQEND
  5
82
330
81
100
AcDbEntity
  8
0
  0
INSERT
  5
86
330
17
100
AcDbEntity
  8
0
100
AcDbBlockReference
 66
1
  2
FLAG
 10
-69.0
 20
-26.0
 30
0.0
 41
2.4159141207537793
 42
2.4159141207537793
 43
2.4159141207537793
 50
15.0
  0
ATTRIB
  5
88
330
17
100
AcDbEntity
  8
0
 62
3
100
AcDbText
 10
-65.18696694210962
 20
-26.228870042991478
 30
0.0
 40
1.2079570603768897
  1
P(14)
 50
14.999999999999998
 11
-65.18696694210962
 21
-26.228870042991478
 31
0.0
100
AcDbAttribute
  2
NAME
 70
0
  0
ATTRIB
  5
89
330
17
100
AcDbEntity
  8
0
 62
4
100
AcDbText
 10
-64.87432464921802
 20
-27.39566696465774
 30
0.0
 40
0.6039785301884448
  1
= -69.000
 50
14.999999999999998
 11
-64.87432464921802
 21
-27.39566696465774
 31
0.0
100
AcDbAttribute
  2
XPOS
 70
0
  0
ATTRIB
  5
8A
330
17
100
AcDbEntity
  8
0
 62
4
100
AcDbText
 10
-64.56168235632643
 20
-28.562463886324
 30
0.0
 40
0.6039785301884448
  1
= -26.000
 50
14.999999999999998
 11
-64.56168235632643
 21
-28.562463886324
 31
0.0
100
AcDbAttribute
  2
YPOS
 70
0
  0
SEQEND
  5
87
330
86
100
AcDbEntity
  8
0
  0
INSERT
  5
8B
330
17
100
AcDbEntity
  8
0
100
AcDbBlockReference
 66
1
  2
FLAG
 10
72.0
 20
9.0
 30
0.0
 41
0.9622274604870888
 42
0.9622274604870888
 43
0.9622274604870888
 50
15.0
  0
ATTRIB
  5
8D
330
17
100
AcDbEntity
  8
0
 62
3
100
AcDbText
 10
73.51868192852088
 20
8.908844011317527
 30
0.0
 40
0.4811137302435444
  1
P(15)
 50
14.999999999999998
 11
73.51868192852088
 21
8.908844011317527
 31
0.0
100
AcDbAttribute
  2
NAME
 70
0
  0
ATTRIB
  5
8E
330
17
100
AcDbEntity
  8
0
 62
4
100
AcDbText
 10
73.64320332476822
 20
8.444123833893014
 30
0.0
 40
0.2405568651217722
  1
= 72.000
 50
14.999999999999998
 11
73.64320332476822
 21
8.444123833893014
 31
0.0
100
AcDbAttribute
  2
XPOS
 70
0
  0
ATTRIB
  5
8F
330
17
100
AcDbEntity
  8
0
 62
4
100
AcDbText
 10
73.76772472101557
 20
7.979403656468503
 30
0.0
 40
0.2405568651217722
  1
= 9.000
 50
14.999999999999998
 11
73.76772472101557
 21
7.979403656468503
 31
0.0
100
AcDbAttribute
  2
YPOS
 70
0
  0
SEQEND
  5
8C
330
8B
100
AcDbEntity
  8
0
  0
INSERT
  5
90
330
17
100
AcDbEntity
  8
0
100
AcDbBlockReference
 66
1
  2
FLAG
 10
-69.0
 20
45.0
 30
0.0
 41
1.5558955467207416
 42
1.5558955467207416
 43
1.5558955467207416
 50
15.0
  0
ATTRIB
  5
92
330
17
100
AcDbEntity
  8
0
 62
3
100
AcDbText
 10
-66.54433276278067
 20
44.852603253729434
 30
0.0
 40
0.7779477733603708
  1
P(16)
 50
14.999999999999998
 41
1.0000000000000002
 11
-66.54433276278067
 21
44.852603253729434
 31
0.0
100
AcDbAttribute
  2
NAME
 70
0
  0
ATTRIB
  5
93
330
17
100
AcDbEntity
  8
0
 62
4
100
AcDbText
 10
-66.3429850629399
 20
44.101163407936575
 30
0.0
 40
0.3889738866801854
  1
= -69.000
 50
14.999999999999998
 41
1.0000000000000002
 11
-66.3429850629399
 21
44.101163407936575
 31
0.0
100
AcDbAttribute
  2
XPOS
 70
0
  0
ATTRIB
  5
94
330
17
100
AcDbEntity
  8
0
 62
4
100
AcDbText
 10
-66.14163736309914
 20
43.34972356214372
 30
0.0
 40
0.3889738866801854
  1
= 45.000
 50
14.999999999999998
 41
1.0000000000000002
 11
-66.14163736309914
 21
43.34972356214372
 31
0.0
100
AcDbAttribute
  2
YPOS
 70
0
  0
SEQEND
  5
91
330
90
100
AcDbEntity
  8
0
  0
INSERT
  5
95
330
17
100
AcDbEntity
  8
0
100
AcDbBlockReference
 66
1
  2
FLAG
 10
-78.0
 20
-82.0
 30
0.0
 41
1.5053053718094047
 42
1.5053053718094047
 43
1.5053053718094047
 50
15.0
  0
ATTRIB
  5
97
330
17
100
AcDbEntity
  8
0
 62
3
100
AcDbText
 10
-75.62417914791673
 20
-82.14260411916207
 30
0.0
 40
0.7526526859047024
  1
P(17)
 50
14.999999999999998
 11
-75.62417914791673
 21
-82.14260411916207
 31
0.0
100
AcDbAttribute
  2
NAME
 70
0
  0
ATTRIB
  5
98
330
17
100
AcDbEntity
  8
0
 62
4
100
AcDbText
 10
-75.42937829845704
 20
-82.86961078670326
 30
0.0
 40
0.3763263429523512
  1
= -78.000
 50
14.999999999999998
 11
-75.42937829845704
 21
-82.86961078670326
 31
0.0
100
AcDbAttribute
  2
XPOS
 70
0
  0
ATTRIB
  5
99
330
17
100
AcDbEntity
  8
0
 62
4
100
AcDbText
 10
-75.23457744899733
 20
-83.59661745424445
 30
0.0
 40
0.3763263429523512
  1
= -82.000
 50
14.999999999999998
 11
-75.23457744899733
 21
-83.59661745424445
 31
0.0
100
AcDbAttribute
  2
YPOS
 70
0
  0
SEQEND
  5
96
330
95
100
AcDbEntity
  8
0
  0
INSERT
  5
9A
330
17
100
AcDbEntity
  8
0
100
AcDbBlockReference
 66
1
  2
FLAG
 10
22.0
 20
-93.0
 30
0.0
 41
2.0221889678715548
 42
2.0221889678715548
 43
2.0221889678715548
 50
15.0
  0
ATTRIB
  5
9C
330
17
100
AcDbEntity
  8
0
 62
3
100
AcDbText
 10
25.19161733339664
 20
-93.19157074832994
 30
0.0
 40
1.0110944839357774
  1
P(18)
 50
14.999999999999998
 11
25.19161733339664
 21
-93.19157074832994
 31
0.0
100
AcDbAttribute
  2
NAME
 70
0
  0
ATTRIB
  5
9D
330
17
100
AcDbEntity
  8
0
 62
4
100
AcDbText
 10
25.453307842237322
 20
-94.16821302318192
 30
0.0
 40
0.5055472419678887
  1
= 22.000
 50
14.999999999999998
 11
25.453307842237322
 21
-94.16821302318192
 31
0.0
100
AcDbAttribute
  2
XPOS
 70
0
  0
ATTRIB
  5
9E
330
17
100
AcDbEntity
  8
0
 62
4
100
AcDbText
 10
25.714998351078005
 20
-95.1448552980339
 30
0.0
 40
0.5055472419678887
  1
= -93.000
 50
14.999999999999998
 11
25.714998351078005
 21
-95.1448552980339
 31
0.0
100
AcDbAttribute
  2
YPOS
 70
0
  0
SEQEND
  5
9B
330
9A
100
AcDbEntity
  8
0
  0
INSERT
  5
9F
330
17
100
AcDbEntity
  8
0
100
AcDbBlockReference
 66
1
  2
FLAG
 10
80.0
 20
10.0
 30
0.0
 41
2.192143110679809
 42
2.192143110679809
 43
2.192143110679809
 50
15.0
  0
ATTRIB
  5
A1
330
17
100
AcDbEntity
  8
0
 62
3
100
AcDbText
 10
83.45985566160803
 20
9.792328757187684
 30
0.0
 40
1.0960715553399045
  1
P(19)
 50
14.999999999999998
 11
83.45985566160803
 21
9.792328757187684
 31
0.0
100
AcDbAttribute
  2
NAME
 70
0
  0
ATTRIB
  5
A2
330
17
100
AcDbEntity
  8
0
 62
4
100
AcDbText
 10
83.74353985492515
 20
8.733604934424044
 30
0.0
 40
0.5480357776699523
  1
= 80.000
 50
14.999999999999998
 11
83.74353985492515
 21
8.733604934424044
 31
0.0
100
AcDbAttribute
  2
XPOS
 70
0
  0
ATTRIB
  5
A3
330
17
100
AcDbEntity
  8
0
 62
4
100
AcDbText
 10
84.02722404824225
 20
7.674881111660402
 30
0.0
 40
0.5480357776699523
  1
= 10.000
 50
14.999999999999998
 11
84.02722404824225
 21
7.674881111660402
 31
0.0
100
AcDbAttribute
  2
YPOS
 70
0
  0
SEQEND
  5
A0
330
9F
100
AcDbEntity
  8
0
  0
INSERT
  5
A4
330
17
100
AcDbEntity
  8
0
100
AcDbBlockReference
 66
1
  2
FLAG
 10
60.0
 20
49.0
 30
0.0
 41
1.2199238701522594
 42
1.2199238701522594
 43
1.2199238701522594
 50
15.0
  0
ATTRIB
  5
A6
330
17
100
AcDbEntity
  8
0
 62
3
100
AcDbText
 10
61.92540372401516
 20
48.88443131061258
 30
0.0
 40
0.6099619350761297
  1
P(20)
 50
14.999999999999998
 11
61.92540372401516
 21
48.88443131061258
 31
0.0
100
AcDbAttribute
  2
NAME
 70
0
  0
ATTRIB
  5
A7
330
17
100
AcDbEntity
  8
0
 62
4
100
AcDbText
 10
62.08327348960045
 20
48.29525332446929
 30
0.0
 40
0.30498096753806486
  1
= 60.000
 50
14.999999999999998
 11
62.08327348960045
 21
48.29525332446929
 31
0.0
100
AcDbAttribute
  2
XPOS
 70
0
  0
ATTRIB
  5
A8
330
17
100
AcDbEntity
  8
0
 62
4
100
AcDbText
 10
62.24114325518574
 20
47.706075338326
 30
0.0
 40
0.30498096753806486
  1
= 49.000
 50
14.999999999999998
 11
62.24114325518574
 21
47.706075338326
 31
0.0
100
AcDbAttribute
  2
YPOS
 70
0
  0
SEQEND
  5
A5
330
A4
100
AcDbEntity
  8
0
  0
INSERT
  5
A9
330
17
100
AcDbEntity
  8
0
100
AcDbBlockReference
 66
1
  2
FLAG
 10
-20.0
 20
44.0
 30
0.0
 41
0.5500300706106536
 42
0.5500300706106536
 43
0.5500300706106536
 50
15.0
  0
ATTRIB
  5
AB
330
17
100
AcDbEntity
  8
0
 62
3
100
AcDbText
 10
-19.131888495515796
 20
43.94789326126047
 30
0.0
 40
0.2750150353053267
  1
P(21)
 50
14.999999999999998
 41
1.0000000000000002
 11
-19.131888495515796
 21
43.94789326126047
 31
0.0
100
AcDbAttribute
  2
NAME
 70
0
  0
ATTRIB
  5
AC
330
17
100
AcDbEntity
  8
0
 62
4
100
AcDbText
 10
-19.060709366689235
 20
43.68224913604125
 30
0.0
 40
0.13750751765266336
  1
= -20.000
 50
14.999999999999998
 41
1.0000000000000002
 11
-19.060709366689235
 21
43.68224913604125
 31
0.0
100
AcDbAttribute
  2
XPOS
 70
0
  0
ATTRIB
  5
AD
330
17
100
AcDbEntity
  8
0
 62
4
100
AcDbText
 10
-18.989530237862674
 20
43.41660501082204
 30
0.0
 40
0.13750751765266336
  1
= 44.000
 50
14.999999999999998
 41
1.0000000000000002
 11
-18.989530237862674
 21
43.41660501082204
 31
0.0
100
AcDbAttribute
  2
YPOS
 70
0
  0
SEQEND
  5
AA
330
A9
100
AcDbEntity
  8
0
  0
INSERT
  5
AE
330
17
100
AcDbEntity
  8
0
100
AcDbBlockReference
 66
1
  2
FLAG
 10
-18.0
 20
44.0
 30
0.0
 41
1.143840435992798
 42
1.143840435992798
 43
1.143840435992798
 50
15.0
  0
ATTRIB
  5
B0
330
17
100
AcDbEntity
  8
0
 62
3
100
AcDbText
 10
-16.19467862788456
 20
43.891639024950365
 30
0.0
 40
0.571920217996399
  1
P(22)
 50
14.999999999999998
 11
-16.19467862788456
 21
43.891639024950365
 31
0.0
100
AcDbAttribute
  2
NAME
 70
0
  0
ATTRIB
  5
B1
330
17
100
AcDbEntity
  8
0
 62
4
100
AcDbText
 10
-16.046654783187904
 20
43.339206515810766
 30
0.0
 40
0.2859601089981995
  1
= -18.000
 50
14.999999999999998
 11
-16.046654783187904
 21
43.339206515810766
 31
0.0
100
AcDbAttribute
  2
XPOS
 70
0
  0
ATTRIB
  5
B2
330
17
100
AcDbEntity
  8
0
 62
4
100
AcDbText
 10
-15.898630938491252
 20
42.78677400667117
 30
0.0
 40
0.2859601089981995
  1
= 44.000
 50
14.999999999999998
 11
-15.898630938491252
 21
42.78677400667117
 31
0.0
100
AcDbAttribute
  2
YPOS
 70
0
  0
SEQEND
  5
AF
330
AE
100
AcDbEntity
  8
0
  0
INSERT
  5
B3
330
17
100
AcDbEntity
  8
0
100
AcDbBlockReference
 66
1
  2
FLAG
 10
3.0
 20
-72.0
 30
0.0
 41
2.19841407212721
 42
2.19841407212721
 43
2.19841407212721
 50
15.0
  0
ATTRIB
  5
B5
330
17
100
AcDbEntity
  8
0
 62
3
100
AcDbText
 10
6.469753109161441
 20
-72.20826531824063
 30
0.0
 40
1.099207036063605
  1
P(23)
 50
14.999999999999998
 11
6.469753109161441
 21
-72.20826531824063
 31
0.0
100
AcDbAttribute
  2
NAME
 70
0
  0
ATTRIB
  5
B6
330
17
100
AcDbEntity
  8
0
 62
4
100
AcDbText
 10
6.754248824605395
 20
-73.27001778281313
 30
0.0
 40
0.5496035180318025
  1
= 3.000
 50
14.999999999999998
 11
6.754248824605395
 21
-73.27001778281313
 31
0.0
100
AcDbAttribute
  2
XPOS
 70
0
  0
ATTRIB
  5
B7
330
17
100
AcDbEntity
  8
0
 62
4
100
AcDbText
 10
7.03874454004935
 20
-74.33177024738562
 30
0.0
 40
0.5496035180318025
  1
= -72.000
 50
14.999999999999998
 11
7.03874454004935
 21
-74.33177024738562
 31
0.0
100
AcDbAttribute
  2
YPOS
 70
0
  0
SEQEND
  5
B4
330
B3
100
AcDbEntity
  8
0
  0
INSERT
  5
B8
330
17
100
AcDbEntity
  8
0
100
AcDbBlockReference
 66
1
  2
FLAG
 10
-92.0
 20
-63.0
 30
0.0
 41
2.1002671293581794
 42
2.1002671293581794
 43
2.1002671293581794
 50
15.0
  0
ATTRIB
  5
BA
330
17
100
AcDbEntity
  8
0
 62
3
100
AcDbText
 10
-88.68515204003005
 20
-63.19896743185549
 30
0.0
 40
1.0501335646790897
  1
P(24)
 50
14.999999999999998
 11
-88.68515204003005
 21
-63.19896743185549
 31
0.0
100
AcDbAttribute
  2
NAME
 70
0
  0
ATTRIB
  5
BB
330
17
100
AcDbEntity
  8
0
 62
4
100
AcDbText
 10
-88.4133574735897
 20
-64.21331856303202
 30
0.0
 40
0.5250667823395448
  1
= -92.000
 50
14.999999999999998
 11
-88.4133574735897
 21
-64.21331856303202
 31
0.0
100
AcDbAttribute
  2
XPOS
 70
0
  0
ATTRIB
  5
BC
330
17
100
AcDbEntity
  8
0
 62
4
100
AcDbText
 10
-88.14156290714935
 20
-65.22766969420856
 30
0.0
 40
0.5250667823395448
  1
= -63.000
 50
14.999999999999998
 11
-88.14156290714935
 21
-65.22766969420856
 31
0.0
100
AcDbAttribute
  2
YPOS
 70
0
  0
SEQEND
  5
B9
330
B8
100
AcDbEntity
  8
0
  0
INSERT
  5
BD
330
17
100
AcDbEntity
  8
0
100
AcDbBlockReference
 66
1
  2
FLAG
 10
-35.0
 20
69.0
 30
0.0
 41
1.2967423239208455
 42
1.2967423239208455
 43
1.2967423239208455
 50
15.0
  0
ATTRIB
  5
BF
330
17
100
AcDbEntity
  8
0
 62
3
100
AcDbText
 10
-32.95335384391352
 20
68.8771539646732
 30
0.0
 40
0.6483711619604228
  1
P(25)
 50
14.999999999999998
 11
-32.95335384391352
 21
68.8771539646732
 31
0.0
100
AcDbAttribute
  2
NAME
 70
0
  0
ATTRIB
  5
C0
330
17
100
AcDbEntity
  8
0
 62
4
100
AcDbText
 10
-32.78554303890291
 20
68.25087551431457
 30
0.0
 40
0.3241855809802114
  1
= -35.000
 50
14.999999999999998
 11
-32.78554303890291
 21
68.25087551431457
 31
0.0
100
AcDbAttribute
  2
XPOS
 70
0
  0
ATTRIB
  5
C1
330
17
100
AcDbEntity
  8
0
 62
4
100
AcDbText
 10
-32.6177322338923
 20
67.62459706395595
 30
0.0
 40
0.3241855809802114
  1
= 69.000
 50
14.999999999999998
 11
-32.6177322338923
 21
67.62459706395595
 31
0.0
100
AcDbAttribute
  2
YPOS
 70
0
  0
SEQEND
  5
BE
330
BD
100
AcDbEntity
  8
0
  0
INSERT
  5
C2
330
17
100
AcDbEntity
  8
0
100
AcDbBlockReference
 66
1
  2
FLAG
 10
40.0
 20
-46.0
 30
0.0
 41
1.5078120992335708
 42
1.5078120992335708
 43
1.5078120992335708
 50
15.0
  0
ATTRIB
  5
C4
330
17
100
AcDbEntity
  8
0
 62
3
100
AcDbText
 10
42.379777215620095
 20
-46.14284159234393
 30
0.0
 40
0.7539060496167854
  1
P(26)
 50
14.999999999999998
 11
42.379777215620095
 21
-46.14284159234393
 31
0.0
100
AcDbAttribute
  2
NAME
 70
0
  0
ATTRIB
  5
C5
330
17
100
AcDbEntity
  8
0
 62
4
100
AcDbText
 10
42.57490245947892
 20
-46.87105891626435
 30
0.0
 40
0.3769530248083927
  1
= 40.000
 50
14.999999999999998
 11
42.57490245947892
 21
-46.87105891626435
 31
0.0
100
AcDbAttribute
  2
XPOS
 70
0
  0
ATTRIB
  5
C6
330
17
100
AcDbEntity
  8
0
 62
4
100
AcDbText
 10
42.77002770333775
 20
-47.59927624018477
 30
0.0
 40
0.3769530248083927
  1
= -46.000
 50
14.999999999999998
 11
42.77002770333775
 21
-47.59927624018477
 31
0.0
100
AcDbAttribute
  2
YPOS
 70
0
  0
SEQEND
  5
C3
330
C2
100
AcDbEntity
  8
0
  0
INSERT
  5
C7
330
17
100
AcDbEntity
  8
0
100
AcDbBlockReference
 66
1
  2
FLAG
 10
-27.0
 20
6.0
 30
0.0
 41
0.7475223623048233
 42
0.7475223623048233
 43
0.7475223623048233
 50
15.0
  0
ATTRIB
  5
C9
330
17
100
AcDbEntity
  8
0
 62
3
100
AcDbText
 10
-25.820186754779478
 20
5.929183958267351
 30
0.0
 40
0.37376118115241164
  1
P(27)
 50
14.999999999999998
 11
-25.820186754779478
 21
5.929183958267351
 31
0.0
100
AcDbAttribute
  2
NAME
 70
0
  0
ATTRIB
  5
CA
330
17
100
AcDbEntity
  8
0
 62
4
100
AcDbText
 10
-25.723450242777222
 20
5.5681583805279296
 30
0.0
 40
0.18688059057620582
  1
= -27.000
 50
14.999999999999998
 11
-25.723450242777222
 21
5.5681583805279296
 31
0.0
100
AcDbAttribute
  2
XPOS
 70
0
  0
ATTRIB
  5
CB
330
17
100
AcDbEntity
  8
0
 62
4
100
AcDbText
 10
-25.626713730774963
 20
5.207132802788508
 30
0.0
 40
0.18688059057620582
  1
= 6.000
 50
14.999999999999998
 11
-25.626713730774963
 21
5.207132802788508
 31
0.0
100
AcDbAttribute
  2
YPOS
 70
0
  0
SEQEND
  5
C8
330
C7
100
AcDbEntity
  8
0
  0
INSERT
  5
CC
330
17
100
AcDbEntity
  8
0
100
AcDbBlockReference
 66
1
  2
FLAG
 10
72.0
 20
25.0
 30
0.0
 41
2.2203239701056643
 42
2.2203239701056643
 43
2.2203239701056643
 50
15.0
  0
ATTRIB
  5
CE
330
17
100
AcDbEntity
  8
0
 62
3
100
AcDbText
 10
75.5043334630611
 20
24.78965906191461
 30
0.0
 40
1.1101619850528321
  1
P(28)
 50
14.999999999999998
 11
75.5043334630611
 21
24.78965906191461
 31
0.0
100
AcDbAttribute
  2
NAME
 70
0
  0
ATTRIB
  5
CF
330
17
100
AcDbEntity
  8
0
 62
4
100
AcDbText
 10
75.79166452794159
 20
23.71732492918774
 30
0.0
 40
0.5550809925264161
  1
= 72.000
 50
14.999999999999998
 11
75.79166452794159
 21
23.71732492918774
 31
0.0
100
AcDbAttribute
  2
XPOS
 70
0
  0
ATTRIB
  5
D0
330
17
100
AcDbEntity
  8
0
 62
4
100
AcDbText
 10
76.07899559282208
 20
22.64499079646087
 30
0.0
 40
0.5550809925264161
  1
= 25.000
 50
14.999999999999998
 11
76.07899559282208
 21
22.64499079646087
 31
0.0
100
AcDbAttribute
  2
YPOS
 70
0
  0
SEQEND
  5
CD
330
CC
100
AcDbEntity
  8
0
  0
INSERT
  5
D1
330
17
100
AcDbEntity
  8
0
100
AcDbBlockReference
 66
1
  2
FLAG
 10
-41.0
 20
74.0
 30
0.0
 41
0.9337224882282031
 42
0.9337224882282031
 43
0.9337224882282031
 50
15.0
  0
ATTRIB
  5
D3
330
17
100
AcDbEntity
  8
0
 62
3
100
AcDbText
 10
-39.52630741965324
 20
73.9115444112077
 30
0.0
 40
0.4668612441141016
  1
P(29)
 50
14.999999999999998
 11
-39.52630741965324
 21
73.9115444112077
 31
0.0
100
AcDbAttribute
  2
NAME
 70
0
  0
ATTRIB
  5
D4
330
17
100
AcDbEntity
  8
0
 62
4
100
AcDbText
 10
-39.40547483825626
 20
73.46059107822445
 30
0.0
 40
0.2334306220570508
  1
= -41.000
 50
14.999999999999998
 11
-39.40547483825626
 21
73.46059107822445
 31
0.0
100
AcDbAttribute
  2
XPOS
 70
0
  0
ATTRIB
  5
D5
330
17
100
AcDbEntity
  8
0
 62
4
100
AcDbText
 10
-39.28464225685927
 20
73.00963774524119
 30
0.0
 40
0.2334306220570508
  1
= 74.000
 50
14.999999999999998
 11
-39.28464225685927
 21
73.00963774524119
 31
0.0
100
AcDbAttribute
  2
YPOS
 70
0
  0
SEQEND
  5
D2
330
D1
100
AcDbEntity
  8
0
  0
INSERT
  5
D6
330
17
100
AcDbEntity
  8
0
100
AcDbBlockReference
 66
1
  2
FLAG
 10
-54.0
 20
-42.0
 30
0.0
 41
1.2901612995346308
 42
1.2901612995346308
 43
1.2901612995346308
 50
15.0
  0
ATTRIB
  5
D8
330
17
100
AcDbEntity
  8
0
 62
3
100
AcDbText
 10
-51.96374066326436
 20
-42.12222258628891
 30
0.0
 40
0.6450806497673154
  1
P(30)
 50
14.999999999999998
 11
-51.96374066326436
 21
-42.12222258628891
 31
0.0
100
AcDbAttribute
  2
NAME
 70
0
  0
ATTRIB
  5
D9
330
17
100
AcDbEntity
  8
0
 62
4
100
AcDbText
 10
-51.79678150547747
 20
-42.745322645938494
 30
0.0
 40
0.3225403248836577
  1
= -54.000
 50
14.999999999999998
 11
-51.79678150547747
 21
-42.745322645938494
 31
0.0
100
AcDbAttribute
  2
XPOS
 70
0
  0
ATTRIB
  5
DA
330
17
100
AcDbEntity
  8
0
 62
4
100
AcDbText
 10
-51.62982234769058
 20
-43.36842270558808
 30
0.0
 40
0.3225403248836577
  1
= -42.000
 50
14.999999999999998
 11
-51.62982234769058
 21
-43.36842270558808
 31
0.0
100
AcDbAttribute
  2
YPOS
 70
0
  0
SEQEND
  5
D7
330
D6
100
AcDbEntity
  8
0
  0
INSERT
  5
DB
330
17
100
AcDbEntity
  8
0
100
AcDbBlockReference
 66
1
  2
FLAG
 10
-22.0
 20
21.0
 30
0.0
 41
2.097980361577122
 42
2.097980361577122
 43
2.097980361577122
 50
15.0
  0
ATTRIB
  5
DD
330
17
100
AcDbEntity
  8
0
 62
3
100
AcDbText
 10
-18.688761241644453
 20
20.80124920359354
 30
0.0
 40
1.048990180788561
  1
P(31)
 50
14.999999999999996
 11
-18.688761241644453
 21
20.80124920359354
 31
0.0
100
AcDbAttribute
  2
NAME
 70
0
  0
ATTRIB
  5
DE
330
17
100
AcDbEntity
  8
0
 62
4
100
AcDbText
 10
-18.417262604730837
 20
19.78800249644623
 30
0.0
 40
0.5244950903942805
  1
= -22.000
 50
14.999999999999996
 11
-18.417262604730837
 21
19.78800249644623
 31
0.0
100
AcDbAttribute
  2
XPOS
 70
0
  0
ATTRIB
  5
DF
330
17
100
AcDbEntity
  8
0
 62
4
100
AcDbText
 10
-18.14576396781722
 20
18.77475578929892
 30
0.0
 40
0.5244950903942805
  1
= 21.000
 50
14.999999999999996
 11
-18.14576396781722
 21
18.77475578929892
 31
0.0
100
AcDbAttribute
  2
YPOS
 70
0
  0
SEQEND
  5
DC
330
DB
100
AcDbEntity
  8
0
  0
INSERT
  5
E0
330
17
100
AcDbEntity
  8
0
100
AcDbBlockReference
 66
1
  2
FLAG
 10
44.0
 20
-65.0
 30
0.0
 41
1.2730797349062357
 42
1.2730797349062357
 43
1.2730797349062357
 50
15.0
  0
ATTRIB
  5
E2
330
17
100
AcDbEntity
  8
0
 62
3
100
AcDbText
 10
46.00929953297066
 20
-65.12060437544389
 30
0.0
 40
0.6365398674531179
  1
P(32)
 50
14.999999999999998
 11
46.00929953297066
 21
-65.12060437544389
 31
0.0
100
AcDbAttribute
  2
NAME
 70
0
  0
ATTRIB
  5
E3
330
17
100
AcDbEntity
  8
0
 62
4
100
AcDbText
 10
46.17404817363456
 20
-65.73545467287947
 30
0.0
 40
0.31826993372655893
  1
= 44.000
 50
14.999999999999998
 11
46.17404817363456
 21
-65.73545467287947
 31
0.0
100
AcDbAttribute
  2
XPOS
 70
0
  0
ATTRIB
  5
E4
330
17
100
AcDbEntity
  8
0
 62
4
100
AcDbText
 10
46.33879681429846
 20
-66.35030497031505
 30
0.0
 40
0.31826993372655893
  1
= -65.000
 50
14.999999999999998
 11
46.33879681429846
 21
-66.35030497031505
 31
0.0
100
AcDbAttribute
  2
YPOS
 70
0
  0
SEQEND
  5
E1
330
E0
100
AcDbEntity
  8
0
  0
INSERT
  5
E5
330
17
100
AcDbEntity
  8
0
100
AcDbBlockReference
 66
1
  2
FLAG
 10
-26.0
 20
-38.0
 30
0.0
 41
1.3072225684548142
 42
1.3072225684548142
 43
1.3072225684548142
 50
15.0
  0
ATTRIB
  5
E7
330
17
100
AcDbEntity
  8
0
 62
3
100
AcDbText
 10
-23.936812892180377
 20
-38.12383887443331
 30
0.0
 40
0.6536112842274071
  1
P(33)
 50
14.999999999999998
 11
-23.936812892180377
 21
-38.12383887443331
 31
0.0
100
AcDbAttribute
  2
NAME
 70
0
  0
ATTRIB
  5
E8
330
17
100
AcDbEntity
  8
0
 62
4
100
AcDbText
 10
-23.76764584372841
 20
-38.755178894222524
 30
0.0
 40
0.32680564211370355
  1
= -26.000
 50
14.999999999999998
 11
-23.76764584372841
 21
-38.755178894222524
 31
0.0
100
AcDbAttribute
  2
XPOS
 70
0
  0
ATTRIB
  5
E9
330
17
100
AcDbEntity
  8
0
 62
4
100
AcDbText
 10
-23.59847879527644
 20
-39.386518914011745
 30
0.0
 40
0.32680564211370355
  1
= -38.000
 50
14.999999999999998
 11
-23.59847879527644
 21
-39.386518914011745
 31
0.0
100
AcDbAttribute
  2
YPOS
 70
0
  0
SEQEND
  5
E6
330
E5
100
AcDbEntity
  8
0
  0
INSERT
  5
EA
330
17
100
AcDbEntity
  8
0
100
AcDbBlockReference
 66
1
  2
FLAG
 10
66.0
 20
77.0
 30
0.0
 41
2.1240835730674084
 42
2.1240835730674084
 43
2.1240835730674084
 50
15.0
  0
ATTRIB
  5
EC
330
17
100
AcDbEntity
  8
0
 62
3
100
AcDbText
 10
69.35243741168289
 20
76.7987763329378
 30
0.0
 40
1.0620417865337042
  1
P(34)
 50
14.999999999999998
 11
69.35243741168289
 21
76.7987763329378
 31
0.0
100
AcDbAttribute
  2
NAME
 70
0
  0
ATTRIB
  5
ED
330
17
100
AcDbEntity
  8
0
 62
4
100
AcDbText
 10
69.62731405273252
 20
75.7729227427267
 30
0.0
 40
0.5310208932668521
  1
= 66.000
 50
14.999999999999998
 11
69.62731405273252
 21
75.7729227427267
 31
0.0
100
AcDbAttribute
  2
XPOS
 70
0
  0
ATTRIB
  5
EE
330
17
100
AcDbEntity
  8
0
 62
4
100
AcDbText
 10
69.90219069378215
 20
74.74706915251562
 30
0.0
 40
0.5310208932668521
  1
= 77.000
 50
14.999999999999998
 11
69.90219069378215
 21
74.74706915251562
 31
0.0
100
AcDbAttribute
  2
YPOS
 70
0
  0
SEQEND
  5
EB
330
EA
100
AcDbEntity
  8
0
  0
INSERT
  5
EF
330
17
100
AcDbEntity
  8
0
100
AcDbBlockReference
 66
1
  2
FLAG
 10
-4.0
 20
-10.0
 30
0.0
 41
1.2148702005467156
 42
1.2148702005467156
 43
1.2148702005467156
 50
15.0
  0
ATTRIB
  5
F1
330
17
100
AcDbEntity
  8
0
 62
3
100
AcDbText
 10
-2.0825724739399174
 20
-10.115089933305013
 30
0.0
 40
0.6074351002733578
  1
P(35)
 50
14.999999999999998
 11
-2.0825724739399174
 21
-10.115089933305013
 31
0.0
100
AcDbAttribute
  2
NAME
 70
0
  0
ATTRIB
  5
F2
330
17
100
AcDbEntity
  8
0
 62
4
100
AcDbText
 10
-1.9253567013254127
 20
-10.701827184453538
 30
0.0
 40
0.3037175501366789
  1
= -4.000
 50
14.999999999999998
 11
-1.9253567013254127
 21
-10.701827184453538
 31
0.0
100
AcDbAttribute
  2
XPOS
 70
0
  0
ATTRIB
  5
F3
330
17
100
AcDbEntity
  8
0
 62
4
100
AcDbText
 10
-1.7681409287109084
 20
-11.288564435602066
 30
0.0
 40
0.3037175501366789
  1
= -10.000
 50
14.999999999999998
 11
-1.7681409287109084
 21
-11.288564435602066
 31
0.0
100
AcDbAttribute
  2
YPOS
 70
0
  0
SEQEND
  5
F0
330
EF
100
AcDbEntity
  8
0
  0
INSERT
  5
F4
330
17
100
AcDbEntity
  8
0
100
AcDbBlockReference
 66
1
  2
FLAG
 10
-31.0
 20
-8.0
 30
0.0
 41
0.6002054166511255
 42
0.6002054166511255
 43
0.6002054166511255
 50
15.0
  0
ATTRIB
  5
F6
330
17
100
AcDbEntity
  8
0
 62
3
100
AcDbText
 10
-30.052696834065628
 20
-8.056860067306449
 30
0.0
 40
0.30010270832556274
  1
P(36)
 50
14.999999999999998
 11
-30.052696834065628
 21
-8.056860067306449
 31
0.0
100
AcDbAttribute
  2
NAME
 70
0
  0
ATTRIB
  5
F7
330
17
100
AcDbEntity
  8
0
 62
4
100
AcDbText
 10
-29.975024537664126
 20
-8.346737023817406
 30
0.0
 40
0.15005135416278137
  1
= -31.000
 50
14.999999999999998
 11
-29.975024537664126
 21
-8.346737023817406
 31
0.0
100
AcDbAttribute
  2
XPOS
 70
0
  0
ATTRIB
  5
F8
330
17
100
AcDbEntity
  8
0
 62
4
100
AcDbText
 10
-29.897352241262624
 20
-8.636613980328361
 30
0.0
 40
0.15005135416278137
  1
= -8.000
 50
14.999999999999998
 11
-29.897352241262624
 21
-8.636613980328361
 31
0.0
100
AcDbAttribute
  2
YPOS
 70
0
  0
SEQEND
  5
F5
330
F4
100
AcDbEntity
  8
0
  0
INSERT
  5
F9
330
17
100
AcDbEntity
  8
0
100
AcDbBlockReference
 66
1
  2
FLAG
 10
86.0
 20
94.0
 30
0.0
 41
1.020449720605992
 42
1.020449720605992
 43
1.020449720605992
 50
15.0
  0
ATTRIB
  5
FB
330
17
100
AcDbEntity
  8
0
 62
3
100
AcDbText
 10
87.61057402047538
 20
93.90332836361218
 30
0.0
 40
0.510224860302996
  1
P(37)
 50
14.999999999999998
 11
87.61057402047538
 21
93.90332836361218
 31
0.0
100
AcDbAttribute
  2
NAME
 70
0
  0
ATTRIB
  5
FC
330
17
100
AcDbEntity
  8
0
 62
4
100
AcDbText
 10
87.74262993160656
 20
93.41048899383077
 30
0.0
 40
0.255112430151498
  1
= 86.000
 50
14.999999999999998
 11
87.74262993160656
 21
93.41048899383077
 31
0.0
100
AcDbAttribute
  2
XPOS
 70
0
  0
ATTRIB
  5
FD
330
17
100
AcDbEntity
  8
0
 62
4
100
AcDbText
 10
87.87468584273775
 20
92.91764962404937
 30
0.0
 40
0.255112430151498
  1
= 94.000
 50
14.999999999999998
 11
87.87468584273775
 21
92.91764962404937
 31
0.0
100
AcDbAttribute
  2
YPOS
 70
0
  0
SEQEND
  5
FA
330
F9
100
AcDbEntity
  8
0
  0
INSERT
  5
FE
330
17
100
AcDbEntity
  8
0
100
AcDbBlockReference
 66
1
  2
FLAG
 10
-42.0
 20
-31.0
 30
0.0
 41
1.6390201476858917
 42
1.6390201476858917
 43
1.6390201476858917
 50
15.0
  0
ATTRIB
  5
100
330
17
100
AcDbEntity
  8
0
 62
3
100
AcDbText
 10
-39.41313734954918
 20
-31.15527150093718
 30
0.0
 40
0.8195100738429458
  1
P(38)
 50
14.999999999999998
 11
-39.41313734954918
 21
-31.15527150093718
 31
0.0
100
AcDbAttribute
  2
NAME
 70
0
  0
ATTRIB
  5
101
330
17
100
AcDbEntity
  8
0
 62
4
100
AcDbText
 10
-39.201032534785256
 20
-31.946857446166142
 30
0.0
 40
0.4097550369214729
  1
= -42.000
 50
14.999999999999998
 11
-39.201032534785256
 21
-31.946857446166142
 31
0.0
100
AcDbAttribute
  2
XPOS
 70
0
  0
ATTRIB
  5
102
330
17
100
AcDbEntity
  8
0
 62
4
100
AcDbText
 10
-38.98892772002133
 20
-32.73844339139511
 30
0.0
 40
0.4097550369214729
  1
= -31.000
 50
14.999999999999998
 11
-38.98892772002133
 21
-32.73844339139511
 31
0.0
100
AcDbAttribute
  2
YPOS
 70
0
  0
SEQEND
  5
FF
330
FE
100
AcDbEntity
  8
0
  0
INSERT
  5
103
330
17
100
AcDbEntity
  8
0
100
AcDbBlockReference
 66
1
  2
FLAG
 10
67.0
 20
-100.0
 30
0.0
 41
1.3301679600205072
 42
1.3301679600205072
 43
1.3301679600205072
 50
15.0
  0
ATTRIB
  5
105
330
17
100
AcDbEntity
  8
0
 62
3
100
AcDbText
 10
69.09940177944831
 20
-100.12601259108531
 30
0.0
 40
0.6650839800102536
  1
P(39)
 50
14.999999999999998
 11
69.09940177944831
 21
-100.12601259108531
 31
0.0
100
AcDbAttribute
  2
NAME
 70
0
  0
ATTRIB
  5
106
330
17
100
AcDbEntity
  8
0
 62
4
100
AcDbText
 10
69.27153818006755
 20
-100.76843438402834
 30
0.0
 40
0.3325419900051268
  1
= 67.000
 50
14.999999999999998
 11
69.27153818006755
 21
-100.76843438402834
 31
0.0
100
AcDbAttribute
  2
XPOS
 70
0
  0
ATTRIB
  5
107
330
17
100
AcDbEntity
  8
0
 62
4
100
AcDbText
 10
69.44367458068679
 20
-101.41085617697136
 30
0.0
 40
0.3325419900051268
  1
= -100.000
 50
14.999999999999998
 11
69.44367458068679
 21
-101.41085617697136
 31
0.0
100
AcDbAttribute
  2
YPOS
 70
0
  0
SEQEND
  5
104
330
103
100
AcDbEntity
  8
0
  0
INSERT
  5
108
330
17
100
AcDbEntity
  8
0
100
AcDbBlockReference
 66
1
  2
FLAG
 10
-79.0
 20
47.0
 30
0.0
 41
0.7645954554292202
 42
0.7645954554292202
 43
0.7645954554292202
 50
15.0
  0
ATTRIB
  5
10A
330
17
100
AcDbEntity
  8
0
 62
3
100
AcDbText
 10
-77.79324032157454
 20
46.92756654996471
 30
0.0
 40
0.3822977277146101
  1
P(40)
 50
14.999999999999998
 11
-77.79324032157454
 21
46.92756654996471
 31
0.0
100
AcDbAttribute
  2
NAME
 70
0
  0
ATTRIB
  5
10B
330
17
100
AcDbEntity
  8
0
 62
4
100
AcDbText
 10
-77.69429438874258
 20
46.55829530143354
 30
0.0
 40
0.19114886385730506
  1
= -79.000
 50
14.999999999999998
 11
-77.69429438874258
 21
46.55829530143354
 31
0.0
100
AcDbAttribute
  2
XPOS
 70
0
  0
ATTRIB
  5
10C
330
17
100
AcDbEntity
  8
0
 62
4
100
AcDbText
 10
-77.59534845591062
 20
46.189024052902376
 30
0.0
 40
0.19114886385730506
  1
= 47.000
 50
14.999999999999998
 11
-77.59534845591062
 21
46.189024052902376
 31
0.0
100
AcDbAttribute
  2
YPOS
 70
0
  0
SEQEND
  5
109
330
108
100
AcDbEntity
  8
0
  0
INSERT
  5
10D
330
17
100
AcDbEntity
  8
0
100
AcDbBlockReference
 66
1
  2
FLAG
 10
25.0
 20
-40.0
 30
0.0
 41
1.7976361138535435
 42
1.7976361138535435
 43
1.7976361138535435
 50
15.0
  0
ATTRIB
  5
10F
330
17
100
AcDbEntity
  8
0
 62
3
100
AcDbText
 10
27.83720595417627
 20
-40.17029788067646
 30
0.0
 40
0.8988180569267717
  1
P(41)
 50
14.999999999999998
 11
27.83720595417627
 21
-40.17029788067646
 31
0.0
100
AcDbAttribute
  2
NAME
 70
0
  0
ATTRIB
  5
110
330
17
100
AcDbEntity
  8
0
 62
4
100
AcDbText
 10
28.06983718539096
 20
-41.038489454996984
 30
0.0
 40
0.4494090284633859
  1
= 25.000
 50
14.999999999999998
 11
28.06983718539096
 21
-41.038489454996984
 31
0.0
100
AcDbAttribute
  2
XPOS
 70
0
  0
ATTRIB
  5
111
330
17
100
AcDbEntity
  8
0
 62
4
100
AcDbText
 10
28.302468416605652
 20
-41.90668102931751
 30
0.0
 40
0.4494090284633859
  1
= -40.000
 50
14.999999999999998
 11
28.302468416605652
 21
-41.90668102931751
 31
0.0
100
AcDbAttribute
  2
YPOS
 70
0
  0
SEQEND
  5
10E
330
10D
100
AcDbEntity
  8
0
  0
INSERT
  5
112
330
17
100
AcDbEntity
  8
0
100
AcDbBlockReference
 66
1
  2
FLAG
 10
-76.0
 20
-40.0
 30
0.0
 41
2.15709609420503
 42
2.15709609420503
 43
2.15709609420503
 50
15.0
  0
ATTRIB
  5
114
330
17
100
AcDbEntity
  8
0
 62
3
100
AcDbText
 10
-72.59545898358186
 20
-40.204351086645175
 30
0.0
 40
1.0785480471025153
  1
P(42)
 50
14.999999999999998
 11
-72.59545898358186
 21
-40.204351086645175
 31
0.0
100
AcDbAttribute
  2
NAME
 70
0
  0
ATTRIB
  5
115
330
17
100
AcDbEntity
  8
0
 62
4
100
AcDbText
 10
-72.3163102079336
 20
-41.24614850023513
 30
0.0
 40
0.5392740235512576
  1
= -76.000
 50
14.999999999999998
 11
-72.3163102079336
 21
-41.24614850023513
 31
0.0
100
AcDbAttribute
  2
XPOS
 70
0
  0
ATTRIB
  5
116
330
17
100
AcDbEntity
  8
0
 62
4
100
AcDbText
 10
-72.03716143228534
 20
-42.28794591382509
 30
0.0
 40
0.5392740235512576
  1
= -40.000
 50
14.999999999999998
 11
-72.03716143228534
 21
-42.28794591382509
 31
0.0
100
AcDbAttribute
  2
YPOS
 70
0
  0
SEQEND
  5
113
330
112
100
AcDbEntity
  8
0
  0
INSERT
  5
117
330
17
100
AcDbEntity
  8
0
100
AcDbBlockReference
 66
1
  2
FLAG
 10
-54.0
 20
46.0
 30
0.0
 41
2.2112044646963454
 42
2.2112044646963454
 43
2.2112044646963454
 50
15.0
  0
ATTRIB
  5
119
330
17
100
AcDbEntity
  8
0
 62
3
100
AcDbText
 10
-50.510059836476586
 20
45.79052299229076
 30
0.0
 40
1.1056022323481727
  1
P(43)
 50
14.999999999999998
 11
-50.510059836476586
 21
45.79052299229076
 31
0.0
100
AcDbAttribute
  2
NAME
 70
0
  0
ATTRIB
  5
11A
330
17
100
AcDbEntity
  8
0
 62
4
100
AcDbText
 10
-50.22390892243702
 20
44.722593242462814
 30
0.0
 40
0.5528011161740863
  1
= -54.000
 50
14.999999999999998
 11
-50.22390892243702
 21
44.722593242462814
 31
0.0
100
AcDbAttribute
  2
XPOS
 70
0
  0
ATTRIB
  5
11B
330
17
100
AcDbEntity
  8
0
 62
4
100
AcDbText
 10
-49.93775800839745
 20
43.65466349263487
 30
0.0
 40
0.5528011161740863
  1
= 46.000
 50
14.999999999999998
 11
-49.93775800839745
 21
43.65466349263487
 31
0.0
100
AcDbAttribute
  2
YPOS
 70
0
  0
SEQEND
  5
118
330
117
100
AcDbEntity
  8
0
  0
INSERT
  5
11C
330
17
100
AcDbEntity
  8
0
100
AcDbBlockReference
 66
1
  2
FLAG
 10
24.0
 20
68.0
 30
0.0
 41
2.486739651983525
 42
2.486739651983525
 43
2.486739651983525
 50
15.0
  0
ATTRIB
  5
11E
330
17
100
AcDbEntity
  8
0
 62
3
100
AcDbText
 10
27.92481687073444
 20
67.76442034666344
 30
0.0
 40
1.2433698259917625
  1
P(44)
 50
14.999999999999998
 11
27.92481687073444
 21
67.76442034666344
 31
0.0
100
AcDbAttribute
  2
NAME
 70
0
  0
ATTRIB
  5
11F
330
17
100
AcDbEntity
  8
0
 62
4
100
AcDbText
 10
28.246624661806916
 20
66.56341732010945
 30
0.0
 40
0.6216849129958812
  1
= 24.000
 50
14.999999999999998
 11
28.246624661806916
 21
66.56341732010945
 31
0.0
100
AcDbAttribute
  2
XPOS
 70
0
  0
ATTRIB
  5
120
330
17
100
AcDbEntity
  8
0
 62
4
100
AcDbText
 10
28.568432452879392
 20
65.36241429355546
 30
0.0
 40
0.6216849129958812
  1
= 68.000
 50
14.999999999999998
 11
28.568432452879392
 21
65.36241429355546
 31
0.0
100
AcDbAttribute
  2
YPOS
 70
0
  0
SEQEND
  5
11D
330
11C
100
AcDbEntity
  8
0
  0
INSERT
  5
121
330
17
100
AcDbEntity
  8
0
100
AcDbBlockReference
 66
1
  2
FLAG
 10
-55.0
 20
20.0
 30
0.0
 41
0.5601975700667032
 42
0.5601975700667032
 43
0.5601975700667032
 50
15.0
  0
ATTRIB
  5
123
330
17
100
AcDbEntity
  8
0
 62
3
100
AcDbText
 10
-54.11584114879558
 20
19.94693004985422
 30
0.0
 40
0.2800987850333516
  1
P(45)
 50
14.999999999999998
 11
-54.11584114879558
 21
19.94693004985422
 31
0.0
100
AcDbAttribute
  2
NAME
 70
0
  0
ATTRIB
  5
124
330
17
100
AcDbEntity
  8
0
 62
4
100
AcDbText
 10
-54.04334624871887
 20
19.676375399478317
 30
0.0
 40
0.1400493925166758
  1
= -55.000
 50
14.999999999999998
 11
-54.04334624871887
 21
19.676375399478317
 31
0.0
100
AcDbAttribute
  2
XPOS
 70
0
  0
ATTRIB
  5
125
330
17
100
AcDbEntity
  8
0
 62
4
100
AcDbText
 10
-53.970851348642164
 20
19.40582074910241
 30
0.0
 40
0.1400493925166758
  1
= 20.000
 50
14.999999999999998
 11
-53.970851348642164
 21
19.40582074910241
 31
0.0
100
AcDbAttribute
  2
YPOS
 70
0
  0
SEQEND
  5
122
330
121
100
AcDbEntity
  8
0
  0
INSERT
  5
126
330
17
100
AcDbEntity
  8
0
100
AcDbBlockReference
 66
1
  2
FLAG
 10
-1.0
 20
35.0
 30
0.0
 41
0.9685921133258351
 42
0.9685921133258351
 43
0.9685921133258351
 50
15.0
  0
ATTRIB
  5
128
330
17
100
AcDbEntity
  8
0
 62
3
100
AcDbText
 10
0.5287272490344108
 20
34.90824106009657
 30
0.0
 40
0.48429605666291753
  1
P(46)
 50
14.999999999999996
 11
0.5287272490344108
 21
34.90824106009657
 31
0.0
100
AcDbAttribute
  2
NAME
 70
0
  0
ATTRIB
  5
129
330
17
100
AcDbEntity
  8
0
 62
4
100
AcDbText
 10
0.6540722919668234
 20
34.44044699139591
 30
0.0
 40
0.24214802833145876
  1
= -1.000
 50
14.999999999999996
 11
0.6540722919668234
 21
34.44044699139591
 31
0.0
100
AcDbAttribute
  2
XPOS
 70
0
  0
ATTRIB
  5
12A
330
17
100
AcDbEntity
  8
0
 62
4
100
AcDbText
 10
0.7794173348992359
 20
33.97265292269524
 30
0.0
 40
0.24214802833145876
  1
= 35.000
 50
14.999999999999996
 11
0.7794173348992359
 21
33.97265292269524
 31
0.0
100
AcDbAttribute
  2
YPOS
 70
0
  0
SEQEND
  5
127
330
126
100
AcDbEntity
  8
0
  0
INSERT
  5
12B
330
17
100
AcDbEntity
  8
0
100
AcDbBlockReference
 66
1
  2
FLAG
 10
-36.0
 20
-82.0
 30
0.0
 41
0.5240575506238352
 42
0.5240575506238352
 43
0.5240575506238352
 50
15.0
  0
ATTRIB
  5
12D
330
17
100
AcDbEntity
  8
0
 62
3
100
AcDbText
 10
-35.172880878670355
 20
-82.04964624905783
 30
0.0
 40
0.2620287753119176
  1
P(47)
 50
14.999999999999998
 11
-35.172880878670355
 21
-82.04964624905783
 31
0.0
100
AcDbAttribute
  2
NAME
 70
0
  0
ATTRIB
  5
12E
330
17
100
AcDbEntity
  8
0
 62
4
100
AcDbText
 10
-35.10506284125474
 20
-82.30274661036252
 30
0.0
 40
0.1310143876559588
  1
= -36.000
 50
14.999999999999998
 11
-35.10506284125474
 21
-82.30274661036252
 31
0.0
100
AcDbAttribute
  2
XPOS
 70
0
  0
ATTRIB
  5
12F
330
17
100
AcDbEntity
  8
0
 62
4
100
AcDbText
 10
-35.03724480383913
 20
-82.5558469716672
 30
0.0
 40
0.1310143876559588
  1
= -82.000
 50
14.999999999999998
 11
-35.03724480383913
 21
-82.5558469716672
 31
0.0
100
AcDbAttribute
  2
YPOS
 70
0
  0
SEQEND
  5
12C
330
12B
100
AcDbEntity
  8
0
  0
INSERT
  5
130
330
17
100
AcDbEntity
  8
0
100
AcDbBlockReference
 66
1
  2
FLAG
 10
17.0
 20
94.0
 30
0.0
 41
1.3286962698738787
 42
1.3286962698738787
 43
1.3286962698738787
 50
15.0
  0
ATTRIB
  5
132
330
17
100
AcDbEntity
  8
0
 62
3
100
AcDbText
 10
19.09707901344771
 20
93.87412682851749
 30
0.0
 40
0.6643481349369393
  1
P(48)
 50
14.999999999999998
 11
19.09707901344771
 21
93.87412682851749
 31
0.0
100
AcDbAttribute
  2
NAME
 70
0
  0
ATTRIB
  5
133
330
17
100
AcDbEntity
  8
0
 62
4
100
AcDbText
 10
19.269024963347732
 20
93.23241580733493
 30
0.0
 40
0.33217406746846967
  1
= 17.000
 50
14.999999999999998
 11
19.269024963347732
 21
93.23241580733493
 31
0.0
100
AcDbAttribute
  2
XPOS
 70
0
  0
ATTRIB
  5
134
330
17
100
AcDbEntity
  8
0
 62
4
100
AcDbText
 10
19.440970913247753
 20
92.59070478615236
 30
0.0
 40
0.33217406746846967
  1
= 94.000
 50
14.999999999999998
 11
19.440970913247753
 21
92.59070478615236
 31
0.0
100
AcDbAttribute
  2
YPOS
 70
0
  0
SEQEND
  5
131
330
130
100
AcDbEntity
  8
0
  0
INSERT
  5
135
330
17
100
AcDbEntity
  8
0
100
AcDbBlockReference
 66
1
  2
FLAG
 10
8.0
 20
-94.0
 30
0.0
 41
1.75925522962529
 42
1.75925522962529
 43
1.75925522962529
 50
15.0
  0
ATTRIB
  5
137
330
17
100
AcDbEntity
  8
0
 62
3
100
AcDbText
 10
10.776629471305377
 20
-94.16666189272973
 30
0.0
 40
0.879627614812645
  1
P(49)
 50
14.999999999999998
 41
1.0000000000000002
 11
10.776629471305377
 21
-94.16666189272973
 31
0.0
100
AcDbAttribute
  2
NAME
 70
0
  0
ATTRIB
  5
138
330
17
100
AcDbEntity
  8
0
 62
4
100
AcDbText
 10
11.004293850616993
 20
-95.01631692339433
 30
0.0
 40
0.4398138074063225
  1
= 8.000
 50
14.999999999999998
 41
1.0000000000000002
 11
11.004293850616993
 21
-95.01631692339433
 31
0.0
100
AcDbAttribute
  2
XPOS
 70
0
  0
ATTRIB
  5
139
330
17
100
AcDbEntity
  8
0
 62
4
100
AcDbText
 10
11.231958229928608
 20
-95.8659719540589
 30
0.0
 40
0.4398138074063225
  1
= -94.000
 50
14.999999999999998
 41
1.0000000000000002
 11
11.231958229928608
 21
-95.8659719540589
 31
0.0
100
AcDbAttribute
  2
YPOS
 70
0
  0
SEQEND
  5
136
330
135
100
AcDbEntity
  8
0
  0
INSERT
  5
13A
330
17
100
AcDbEntity
  8
0
100
AcDbBlockReference
 66
1
  2
FLAG
 10
99.0
 20
-80.0
 30
0.0
 41
2.4234017351739046
 42
2.4234017351739046
 43
2.4234017351739046
 50
15.0
  0
ATTRIB
  5
13C
330
17
100
AcDbEntity
  8
0
 62
3
100
AcDbText
 10
102.82485074671608
 20
-80.22957937724286
 30
0.0
 40
1.2117008675869523
  1
P(50)
 50
14.999999999999998
 11
102.82485074671608
 21
-80.22957937724286
 31
0.0
100
AcDbAttribute
  2
NAME
 70
0
  0
ATTRIB
  5
13D
330
17
100
AcDbEntity
  8
0
 62
4
100
AcDbText
 10
103.13846200821483
 20
-81.39999253898196
 30
0.0
 40
0.6058504337934761
  1
= 99.000
 50
14.999999999999998
 11
103.13846200821483
 21
-81.39999253898196
 31
0.0
100
AcDbAttribute
  2
XPOS
 70
0
  0
ATTRIB
  5
13E
330
17
100
AcDbEntity
  8
0
 62
4
100
AcDbText
 10
103.45207326971358
 20
-82.57040570072107
 30
0.0
 40
0.6058504337934761
  1
= -80.000
 50
14.999999999999998
 11
103.45207326971358
 21
-82.57040570072107
 31
0.0
100
AcDbAttribute
  2
YPOS
 70
0
  0
SEQEND
  5
13B
330
13A
100
AcDbEntity
  8
0
  0
ENDSEC
  0
SECTION
  2
OBJECTS
  0
DICTIONARY
  5
A
330
0
100
AcDbDictionary
280
0
281
1
  3
ACAD_COLOR
350
B
  3
ACAD_GROUP
350
C
  3
ACAD_LAYOUT
350
D
  3
ACAD_MATERIAL
350
E
  3
ACAD_MLEADERSTYLE
350
F
  3
ACAD_MLINESTYLE
350
10
  3
ACAD_PLOTSETTINGS
350
11
  3
ACAD_PLOTSTYLENAME
350
12
  3
ACAD_SCALELIST
350
14
  3
ACAD_TABLESTYLE
350
15
  3
ACAD_VISUALSTYLE
350
16
  3
EZDXF_META
350
2D
  0
DICTIONARY
  5
B
330
A
100
AcDbDictionary
280
0
281
1
  0
DICTIONARY
  5
C
330
A
100
AcDbDictionary
280
0
281
1
  0
DICTIONARY
  5
D
330
A
100
AcDbDictionary
280
0
281
1
  3
Model
350
1A
  3
Layout1
350
1E
  0
DICTIONARY
  5
E
330
A
100
AcDbDictionary
280
0
281
1
  3
ByBlock
350
1F
  3
ByLayer
350
20
  3
Global
350
21
  0
DICTIONARY
  5
F
330
A
100
AcDbDictionary
280
0
281
1
  3
Standard
350
2C
  0
DICTIONARY
  5
10
330
A
100
AcDbDictionary
280
0
281
1
  3
Standard
350
22
  0
DICTIONARY
  5
11
330
A
100
AcDbDictionary
280
0
281
1
  0
ACDBDICTIONARYWDFLT
  5
12
330
A
100
AcDbDictionary
280
0
281
1
  3
Normal
350
13
100
AcDbDictionaryWithDefault
340
13
  0
ACDBPLACEHOLDER
  5
13
330
12
  0
DICTIONARY
  5
14
330
A
100
AcDbDictionary
280
0
281
1
  0
DICTIONARY
  5
15
330
A
100
AcDbDictionary
280
0
281
1
  0
DICTIONARY
  5
16
330
A
100
AcDbDictionary
280
0
281
1
  0
LAYOUT
  5
1A
330
D
100
AcDbPlotSettings
  1

  4
A3
  6

 40
7.5
 41
20.0
 42
7.5
 43
20.0
 44
420.0
 45
297.0
 46
0.0
 47
0.0
 48
0.0
 49
0.0
140
0.0
141
0.0
142
1.0
143
1.0
 70
1024
 72
1
 73
0
 74
5
  7

 75
16
 76
0
 77
2
 78
300
147
1.0
148
0.0
149
0.0
100
AcDbLayout
  1
Model
 70
1
 71
0
 10
0.0
 20
0.0
 11
420.0
 21
297.0
 12
0.0
 22
0.0
 32
0.0
 14
1e+20
 24
1e+20
 34
1e+20
 15
-1e+20
 25
-1e+20
 35
-1e+20
146
0.0
 13
0.0
 23
0.0
 33
0.0
 16
1.0
 26
0.0
 36
0.0
 17
0.0
 27
1.0
 37
0.0
 76
1
330
17
  0
LAYOUT
  5
1E
330
D
100
AcDbPlotSettings
  1

  4
A3
  6

 40
7.5
 41
20.0
 42
7.5
 43
20.0
 44
420.0
 45
297.0
 46
0.0
 47
0.0
 48
0.0
 49
0.0
140
0.0
141
0.0
142
1.0
143
1.0
 70
0
 72
1
 73
0
 74
5
  7

 75
16
 76
0
 77
2
 78
300
147
1.0
148
0.0
149
0.0
100
AcDbLayout
  1
Layout1
 70
1
 71
1
 10
0.0
 20
0.0
 11
420.0
 21
297.0
 12
0.0
 22
0.0
 32
0.0
 14
1e+20
 24
1e+20
 34
1e+20
 15
-1e+20
 25
-1e+20
 35
-1e+20
146
0.0
 13
0.0
 23
0.0
 33
0.0
 16
1.0
 26
0.0
 36
0.0
 17
0.0
 27
1.0
 37
0.0
 76
1
330
1B
  0
MATERIAL
  5
1F
102
{ACAD_REACTORS
330
E
102
}
330
E
100
AcDbMaterial
  1
ByBlock
  2

 70
0
 40
1.0
 71
1
 41
1.0
 91
-1023410177
 42
1.0
 72
1
  3

 73
1
 74
1
 75
1
 44
0.5
 73
0
 45
1.0
 46
1.0
 77
1
  4

 78
1
 79
1
170
1
 48
1.0
171
1
  6

172
1
173
1
174
1
140
1.0
141
1.0
175
1
  7

176
1
177
1
178
1
143
1.0
179
1
  8

270
1
271
1
272
1
145
1.0
146
1.0
273
1
  9

274
1
275
1
276
1
 42
1.0
 72
1
  3

 73
1
 74
1
 75
1
 94
63
  0
MATERIAL
  5
20
102
{ACAD_REACTORS
330
E
102
}
330
E
100
AcDbMaterial
  1
ByLayer
  2

 70
0
 40
1.0
 71
1
 41
1.0
 91
-1023410177
 42
1.0
 72
1
  3

 73
1
 74
1
 75
1
 44
0.5
 73
0
 45
1.0
 46
1.0
 77
1
  4

 78
1
 79
1
170
1
 48
1.0
171
1
  6

172
1
173
1
174
1
140
1.0
141
1.0
175
1
  7

176
1
177
1
178
1
143
1.0
179
1
  8

270
1
271
1
272
1
145
1.0
146
1.0
273
1
  9

274
1
275
1
276
1
 42
1.0
 72
1
  3

 73
1
 74
1
 75
1
 94
63
  0
MATERIAL
  5
21
102
{ACAD_REACTORS
330
E
102
}
330
E
100
AcDbMaterial
  1
Global
  2

 70
0
 40
1.0
 71
1
 41
1.0
 91
-1023410177
 42
1.0
 72
1
  3

 73
1
 74
1
 75
1
 44
0.5
 73
0
 45
1.0
 46
1.0
 77
1
  4

 78
1
 79
1
170
1
 48
1.0
171
1
  6

172
1
173
1
174
1
140
1.0
141
1.0
175
1
  7

176
1
177
1
178
1
143
1.0
179
1
  8

270
1
271
1
272
1
145
1.0
146
1.0
273
1
  9

274
1
275
1
276
1
 42
1.0
 72
1
  3

 73
1
 74
1
 75
1
 94
63
  0
MLINESTYLE
  5
22
102
{ACAD_REACTORS
330
10
102
}
330
10
100
AcDbMlineStyle
  2
Standard
 70
0
  3

 62
256
 51
90.0
 52
90.0
 71
2
 49
0.5
 62
256
  6
BYLAYER
 49
-0.5
 62
256
  6
BYLAYER
  0
MLEADERSTYLE
  5
2C
102
{ACAD_REACTORS
330
F
102
}
330
F
100
AcDbMLeaderStyle
179
2
170
2
171
1
172
0
 90
2
 40
0.0
 41
0.0
173
1
 91
-1056964608
 92
-2
290
1
 42
2.0
291
1
 43
8.0
  3
Standard
 44
4.0
300

342
29
174
1
175
1
176
0
178
1
 93
-1056964608
 45
4.0
292
0
297
0
 46
4.0
 94
-1056964608
 47
1.0
 49
1.0
140
1.0
294
1
141
0.0
177
0
142
1.0
295
0
296
0
143
3.75
271
0
272
9
273
9
  0
DICTIONARY
  5
2D
330
A
100
AcDbDictionary
280
1
281
1
  3
CREATED_BY_EZDXF
350
2E
  3
WRITTEN_BY_EZDXF
350
141
  0
DICTIONARYVAR
  5
2E
330
2D
100
DictionaryVariables
280
0
  1
1.3.5 @ 2025-04-20T01:06:26.354125+00:00
  0
DICTIONARYVAR
  5
141
330
2D
100
DictionaryVariables
280
0
  1
1.3.5 @ 2025-04-20T01:06:26.364125+00:00
  0
ENDSEC
  0
EOF
