  0
SECTION
  2
HEADER
  9
$ACADVER
  1
AC1024
  9
$ACADMAINTVER
 70
6
  9
$DWGCODEPAGE
  3
ANSI_1252
  9
$LASTSAVEDBY
  1
ezdxf
  9
$INSBASE
 10
0.0
 20
0.0
 30
0.0
  9
$EXTMIN
 10
1e+20
 20
1e+20
 30
1e+20
  9
$EXTMAX
 10
-1e+20
 20
-1e+20
 30
-1e+20
  9
$LIMMIN
 10
0.0
 20
0.0
  9
$LIMMAX
 10
420.0
 20
297.0
  9
$ORTHOMODE
 70
0
  9
$REGENMODE
 70
1
  9
$FILLMODE
 70
1
  9
$QTEXTMODE
 70
0
  9
$MIRRTEXT
 70
1
  9
$LTSCALE
 40
1.0
  9
$ATTMODE
 70
1
  9
$TEXTSIZE
 40
2.5
  9
$TRACEWID
 40
1.0
  9
$TEXTSTYLE
  7
Standard
  9
$CLAYER
  8
0
  9
$CELTYPE
  6
ByLayer
  9
$CECOLOR
 62
256
  9
$CELTSCALE
 40
1.0
  9
$DISPSILH
 70
0
  9
$DIMSCALE
 40
1.0
  9
$DIMASZ
 40
2.5
  9
$DIMEXO
 40
0.625
  9
$DIMDLI
 40
3.75
  9
$DIMRND
 40
0.0
  9
$DIMDLE
 40
0.0
  9
$DIMEXE
 40
1.25
  9
$DIMTP
 40
0.0
  9
$DIMTM
 40
0.0
  9
$DIMTXT
 40
2.5
  9
$DIMCEN
 40
2.5
  9
$DIMTSZ
 40
0.0
  9
$DIMTOL
 70
0
  9
$DIMLIM
 70
0
  9
$DIMTIH
 70
0
  9
$DIMTOH
 70
0
  9
$DIMSE1
 70
0
  9
$DIMSE2
 70
0
  9
$DIMTAD
 70
1
  9
$DIMZIN
 70
8
  9
$DIMBLK
  1

  9
$DIMASO
 70
1
  9
$DIMSHO
 70
1
  9
$DIMPOST
  1

  9
$DIMAPOST
  1

  9
$DIMALT
 70
0
  9
$DIMALTD
 70
3
  9
$DIMALTF
 40
0.03937007874
  9
$DIMLFAC
 40
1.0
  9
$DIMTOFL
 70
1
  9
$DIMTVP
 40
0.0
  9
$DIMTIX
 70
0
  9
$DIMSOXD
 70
0
  9
$DIMSAH
 70
0
  9
$DIMBLK1
  1

  9
$DIMBLK2
  1

  9
$DIMSTYLE
  2
ISO-25
  9
$DIMCLRD
 70
0
  9
$DIMCLRE
 70
0
  9
$DIMCLRT
 70
0
  9
$DIMTFAC
 40
1.0
  9
$DIMGAP
 40
0.625
  9
$DIMJUST
 70
0
  9
$DIMSD1
 70
0
  9
$DIMSD2
 70
0
  9
$DIMTOLJ
 70
0
  9
$DIMTZIN
 70
8
  9
$DIMALTZ
 70
0
  9
$DIMALTTZ
 70
0
  9
$DIMUPT
 70
0
  9
$DIMDEC
 70
2
  9
$DIMTDEC
 70
2
  9
$DIMALTU
 70
2
  9
$DIMALTTD
 70
3
  9
$DIMTXSTY
  7
Standard
  9
$DIMAUNIT
 70
0
  9
$DIMADEC
 70
0
  9
$DIMALTRND
 40
0.0
  9
$DIMAZIN
 70
0
  9
$DIMDSEP
 70
44
  9
$DIMATFIT
 70
3
  9
$DIMFRAC
 70
0
  9
$DIMLDRBLK
  1

  9
$DIMLUNIT
 70
2
  9
$DIMLWD
 70
-2
  9
$DIMLWE
 70
-2
  9
$DIMTMOVE
 70
0
  9
$DIMFXL
 40
1.0
  9
$DIMFXLON
 70
0
  9
$DIMJOGANG
 40
0.785398163397
  9
$DIMTFILL
 70
0
  9
$DIMTFILLCLR
 70
0
  9
$DIMARCSYM
 70
0
  9
$DIMLTYPE
  6

  9
$DIMLTEX1
  6

  9
$DIMLTEX2
  6

  9
$DIMTXTDIRECTION
 70
0
  9
$LUNITS
 70
2
  9
$LUPREC
 70
4
  9
$SKETCHINC
 40
1.0
  9
$FILLETRAD
 40
10.0
  9
$AUNITS
 70
0
  9
$AUPREC
 70
2
  9
$MENU
  1
.
  9
$ELEVATION
 40
0.0
  9
$PELEVATION
 40
0.0
  9
$THICKNESS
 40
0.0
  9
$LIMCHECK
 70
0
  9
$CHAMFERA
 40
0.0
  9
$CHAMFERB
 40
0.0
  9
$CHAMFERC
 40
0.0
  9
$CHAMFERD
 40
0.0
  9
$SKPOLY
 70
0
  9
$TDCREATE
 40
2460767.0900578704
  9
$TDUCREATE
 40
2458532.153996898
  9
$TDUPDATE
 40
2460767.0900578704
  9
$TDUUPDATE
 40
2458532.1544311
  9
$TDINDWG
 40
0.0
  9
$TDUSRTIMER
 40
0.0
  9
$USRTIMER
 70
1
  9
$ANGBASE
 50
0.0
  9
$ANGDIR
 70
0
  9
$PDMODE
 70
0
  9
$PDSIZE
 40
0.0
  9
$PLINEWID
 40
0.0
  9
$SPLFRAME
 70
0
  9
$SPLINETYPE
 70
6
  9
$SPLINESEGS
 70
8
  9
$HANDSEED
  5
142
  9
$SURFTAB1
 70
6
  9
$SURFTAB2
 70
6
  9
$SURFTYPE
 70
6
  9
$SURFU
 70
6
  9
$SURFV
 70
6
  9
$UCSBASE
  2

  9
$UCSNAME
  2

  9
$UCSORG
 10
0.0
 20
0.0
 30
0.0
  9
$UCSXDIR
 10
1.0
 20
0.0
 30
0.0
  9
$UCSYDIR
 10
0.0
 20
1.0
 30
0.0
  9
$UCSORTHOREF
  2

  9
$UCSORTHOVIEW
 70
0
  9
$UCSORGTOP
 10
0.0
 20
0.0
 30
0.0
  9
$UCSORGBOTTOM
 10
0.0
 20
0.0
 30
0.0
  9
$UCSORGLEFT
 10
0.0
 20
0.0
 30
0.0
  9
$UCSORGRIGHT
 10
0.0
 20
0.0
 30
0.0
  9
$UCSORGFRONT
 10
0.0
 20
0.0
 30
0.0
  9
$UCSORGBACK
 10
0.0
 20
0.0
 30
0.0
  9
$PUCSBASE
  2

  9
$PUCSNAME
  2

  9
$PUCSORG
 10
0.0
 20
0.0
 30
0.0
  9
$PUCSXDIR
 10
1.0
 20
0.0
 30
0.0
  9
$PUCSYDIR
 10
0.0
 20
1.0
 30
0.0
  9
$PUCSORTHOREF
  2

  9
$PUCSORTHOVIEW
 70
0
  9
$PUCSORGTOP
 10
0.0
 20
0.0
 30
0.0
  9
$PUCSORGBOTTOM
 10
0.0
 20
0.0
 30
0.0
  9
$PUCSORGLEFT
 10
0.0
 20
0.0
 30
0.0
  9
$PUCSORGRIGHT
 10
0.0
 20
0.0
 30
0.0
  9
$PUCSORGFRONT
 10
0.0
 20
0.0
 30
0.0
  9
$PUCSORGBACK
 10
0.0
 20
0.0
 30
0.0
  9
$USERI1
 70
0
  9
$USERI2
 70
0
  9
$USERI3
 70
0
  9
$USERI4
 70
0
  9
$USERI5
 70
0
  9
$USERR1
 40
0.0
  9
$USERR2
 40
0.0
  9
$USERR3
 40
0.0
  9
$USERR4
 40
0.0
  9
$USERR5
 40
0.0
  9
$WORLDVIEW
 70
1
  9
$SHADEDGE
 70
3
  9
$SHADEDIF
 70
70
  9
$TILEMODE
 70
1
  9
$MAXACTVP
 70
64
  9
$PINSBASE
 10
0.0
 20
0.0
 30
0.0
  9
$PLIMCHECK
 70
0
  9
$PEXTMIN
 10
1e+20
 20
1e+20
 30
1e+20
  9
$PEXTMAX
 10
-1e+20
 20
-1e+20
 30
-1e+20
  9
$PLIMMIN
 10
0.0
 20
0.0
  9
$PLIMMAX
 10
420.0
 20
297.0
  9
$UNITMODE
 70
0
  9
$VISRETAIN
 70
1
  9
$PLINEGEN
 70
0
  9
$PSLTSCALE
 70
1
  9
$TREEDEPTH
 70
3020
  9
$CMLSTYLE
  2
Standard
  9
$CMLJUST
 70
0
  9
$CMLSCALE
 40
20.0
  9
$PROXYGRAPHICS
 70
1
  9
$MEASUREMENT
 70
1
  9
$CELWEIGHT
370
-1
  9
$ENDCAPS
280
0
  9
$JOINSTYLE
280
0
  9
$LWDISPLAY
290
0
  9
$INSUNITS
 70
6
  9
$HYPERLINKBASE
  1

  9
$STYLESHEET
  1

  9
$XEDIT
290
1
  9
$CEPSNTYPE
380
0
  9
$PSTYLEMODE
290
1
  9
$FINGERPRINTGUID
  2
{F99B73F7-CF54-42B1-B68E-05330E8C517A}
  9
$VERSIONGUID
  2
{3D40870F-A245-477F-BAE2-C1FBA4FDFE75}
  9
$EXTNAMES
290
1
  9
$PSVPSCALE
 40
0.0
  9
$OLESTARTUP
290
0
  9
$SORTENTS
280
127
  9
$INDEXCTL
280
0
  9
$HIDETEXT
280
1
  9
$XCLIPFRAME
280
1
  9
$HALOGAP
280
0
  9
$OBSCOLOR
 70
257
  9
$OBSLTYPE
280
0
  9
$INTERSECTIONDISPLAY
280
0
  9
$INTERSECTIONCOLOR
 70
257
  9
$DIMASSOC
280
2
  9
$PROJECTNAME
  1

  9
$CAMERADISPLAY
290
0
  9
$LENSLENGTH
 40
50.0
  9
$CAMERAHEIGHT
 40
0.0
  9
$STEPSPERSEC
 40
24.0
  9
$STEPSIZE
 40
100.0
  9
$3DDWFPREC
 40
2.0
  9
$PSOLWIDTH
 40
0.005
  9
$PSOLHEIGHT
 40
0.08
  9
$LOFTANG1
 40
1.570796326795
  9
$LOFTANG2
 40
1.570796326795
  9
$LOFTMAG1
 40
0.0
  9
$LOFTMAG2
 40
0.0
  9
$LOFTPARAM
 70
7
  9
$LOFTNORMALS
280
1
  9
$LATITUDE
 40
37.795
  9
$LONGITUDE
 40
-122.394
  9
$NORTHDIRECTION
 40
0.0
  9
$TIMEZONE
 70
-8000
  9
$LIGHTGLYPHDISPLAY
280
1
  9
$TILEMODELIGHTSYNCH
280
1
  9
$CMATERIAL
347
20
  9
$SOLIDHIST
280
0
  9
$SHOWHIST
280
1
  9
$DWFFRAME
280
2
  9
$DGNFRAME
280
2
  9
$REALWORLDSCALE
290
1
  9
$INTERFERECOLOR
 62
256
  9
$CSHADOW
280
0
  9
$SHADOWPLANELOCATION
 40
0.0
  0
ENDSEC
  0
SECTION
  2
CLASSES
  0
CLASS
  1
ACDBDICTIONARYWDFLT
  2
AcDbDictionaryWithDefault
  3
ObjectDBX Classes
 90
0
 91
0
280
0
281
0
  0
CLASS
  1
SUN
  2
AcDbSun
  3
SCENEOE
 90
1153
 91
0
280
0
281
0
  0
CLASS
  1
VISUALSTYLE
  2
AcDbVisualStyle
  3
ObjectDBX Classes
 90
4095
 91
0
280
0
281
0
  0
CLASS
  1
MATERIAL
  2
AcDbMaterial
  3
ObjectDBX Classes
 90
1153
 91
0
280
0
281
0
  0
CLASS
  1
SCALE
  2
AcDbScale
  3
ObjectDBX Classes
 90
1153
 91
0
280
0
281
0
  0
CLASS
  1
TABLESTYLE
  2
AcDbTableStyle
  3
ObjectDBX Classes
 90
4095
 91
0
280
0
281
0
  0
CLASS
  1
MLEADERSTYLE
  2
AcDbMLeaderStyle
  3
ACDB_MLEADERSTYLE_CLASS
 90
4095
 91
0
280
0
281
0
  0
CLASS
  1
DICTIONARYVAR
  2
AcDbDictionaryVar
  3
ObjectDBX Classes
 90
0
 91
0
280
0
281
0
  0
CLASS
  1
CELLSTYLEMAP
  2
AcDbCellStyleMap
  3
ObjectDBX Classes
 90
1152
 91
0
280
0
281
0
  0
CLASS
  1
MENTALRAYRENDERSETTINGS
  2
AcDbMentalRayRenderSettings
  3
SCENEOE
 90
1024
 91
0
280
0
281
0
  0
CLASS
  1
ACDBDETAILVIEWSTYLE
  2
AcDbDetailViewStyle
  3
ObjectDBX Classes
 90
1025
 91
0
280
0
281
0
  0
CLASS
  1
ACDBSECTIONVIEWSTYLE
  2
AcDbSectionViewStyle
  3
ObjectDBX Classes
 90
1025
 91
0
280
0
281
0
  0
CLASS
  1
RASTERVARIABLES
  2
AcDbRasterVariables
  3
ISM
 90
0
 91
0
280
0
281
0
  0
CLASS
  1
ACDBPLACEHOLDER
  2
AcDbPlaceHolder
  3
ObjectDBX Classes
 90
0
 91
0
280
0
281
0
  0
CLASS
  1
LAYOUT
  2
AcDbLayout
  3
ObjectDBX Classes
 90
0
 91
0
280
0
281
0
  0
ENDSEC
  0
SECTION
  2
TABLES
  0
TABLE
  2
VPORT
  5
8
330
0
100
AcDbSymbolTable
 70
1
  0
VPORT
  5
23
330
8
100
AcDbSymbolTableRecord
100
AcDbViewportTableRecord
  2
*Active
 70
0
 10
0.0
 20
0.0
 11
1.0
 21
1.0
 12
0.0
 22
0.0
 13
0.0
 23
0.0
 14
0.5
 24
0.5
 15
0.5
 25
0.5
 16
0.0
 26
0.0
 36
1.0
 17
0.0
 27
0.0
 37
0.0
 40
1000.0
 41
1.34
 42
50.0
 43
0.0
 44
0.0
 50
0.0
 51
0.0
 71
0
 72
1000
 73
1
 74
3
 75
0
 76
0
 77
0
 78
0
281
0
 65
0
146
0.0
  0
ENDTAB
  0
TABLE
  2
LTYPE
  5
2
330
0
100
AcDbSymbolTable
 70
3
  0
LTYPE
  5
24
330
2
100
AcDbSymbolTableRecord
100
AcDbLinetypeTableRecord
  2
ByBlock
 70
0
  3

 72
65
 73
0
 40
0.0
  0
LTYPE
  5
25
330
2
100
AcDbSymbolTableRecord
100
AcDbLinetypeTableRecord
  2
ByLayer
 70
0
  3

 72
65
 73
0
 40
0.0
  0
LTYPE
  5
26
330
2
100
AcDbSymbolTableRecord
100
AcDbLinetypeTableRecord
  2
Continuous
 70
0
  3

 72
65
 73
0
 40
0.0
  0
ENDTAB
  0
TABLE
  2
LAYER
  5
1
330
0
100
AcDbSymbolTable
 70
2
  0
LAYER
  5
27
330
1
100
AcDbSymbolTableRecord
100
AcDbLayerTableRecord
  2
0
 70
0
 62
7
  6
Continuous
370
-3
390
13
347
21
  0
LAYER
  5
28
330
1
100
AcDbSymbolTableRecord
100
AcDbLayerTableRecord
  2
Defpoints
 70
0
 62
7
  6
Continuous
290
0
370
-3
390
13
347
21
  0
ENDTAB
  0
TABLE
  2
STYLE
  5
5
330
0
100
AcDbSymbolTable
 70
1
  0
STYLE
  5
29
330
5
100
AcDbSymbolTableRecord
100
AcDbTextStyleTableRecord
  2
Standard
 70
0
 40
0.0
 41
1.0
 50
0.0
 71
0
 42
2.5
  3
txt
  4

  0
ENDTAB
  0
TABLE
  2
VIEW
  5
7
330
0
100
AcDbSymbolTable
 70
0
  0
ENDTAB
  0
TABLE
  2
UCS
  5
6
330
0
100
AcDbSymbolTable
 70
0
  0
ENDTAB
  0
TABLE
  2
APPID
  5
3
330
0
100
AcDbSymbolTable
 70
3
  0
APPID
  5
2A
330
3
100
AcDbSymbolTableRecord
100
AcDbRegAppTableRecord
  2
ACAD
 70
0
  0
APPID
  5
13F
330
3
100
AcDbSymbolTableRecord
100
AcDbRegAppTableRecord
  2
HATCHBACKGROUNDCOLOR
 70
0
  0
APPID
  5
140
330
3
100
AcDbSymbolTableRecord
100
AcDbRegAppTableRecord
  2
EZDXF
 70
0
  0
ENDTAB
  0
TABLE
  2
DIMSTYLE
  5
4
330
0
100
AcDbSymbolTable
 70
1
100
AcDbDimStyleTable
  0
DIMSTYLE
105
2B
330
4
100
AcDbSymbolTableRecord
100
AcDbDimStyleTableRecord
  2
Standard
 70
0
 40
1.0
 41
2.5
 42
0.625
 43
3.75
 44
1.25
 45
0.0
 46
0.0
 47
0.0
 48
0.0
 49
2.5
140
2.5
141
2.5
142
0.0
143
0.03937007874
144
1.0
145
0.0
146
1.0
147
0.625
148
0.0
 69
0
 70
0
 71
0
 72
0
 73
0
 74
0
 75
0
 76
0
 77
1
 78
8
 79
3
170
0
171
3
172
1
173
0
174
0
175
0
176
0
177
0
178
0
179
2
271
2
272
2
273
2
274
3
275
0
276
0
277
2
278
44
279
0
280
0
281
0
282
0
283
0
284
8
285
0
286
0
288
0
289
3
290
0
371
-2
372
-2
  0
ENDTAB
  0
TABLE
  2
BLOCK_RECORD
  5
9
330
0
100
AcDbSymbolTable
 70
4
  0
BLOCK_RECORD
  5
17
330
9
100
AcDbSymbolTableRecord
100
AcDbBlockTableRecord
  2
*Model_Space
340
1A
 70
0
280
1
281
0
  0
BLOCK_RECORD
  5
1B
330
9
100
AcDbSymbolTableRecord
100
AcDbBlockTableRecord
  2
*Paper_Space
340
1E
 70
0
280
1
281
0
  0
BLOCK_RECORD
  5
2F
330
9
100
AcDbSymbolTableRecord
100
AcDbBlockTableRecord
  2
FLAG
340
0
 70
0
280
1
281
0
  0
BLOCK_RECORD
  5
38
330
9
100
AcDbSymbolTableRecord
100
AcDbBlockTableRecord
  2
штамп
340
0
 70
0
280
1
281
0
  0
ENDTAB
  0
ENDSEC
  0
SECTION
  2
BLOCKS
  0
BLOCK
  5
18
330
17
100
AcDbEntity
  8
0
100
AcDbBlockBegin
  2
*Model_Space
 70
0
 10
0.0
 20
0.0
 30
0.0
  3
*Model_Space
  1

  0
ENDBLK
  5
19
330
17
100
AcDbEntity
  8
0
100
AcDbBlockEnd
  0
BLOCK
  5
1C
330
1B
100
AcDbEntity
  8
0
100
AcDbBlockBegin
  2
*Paper_Space
 70
0
 10
0.0
 20
0.0
 30
0.0
  3
*Paper_Space
  1

  0
ENDBLK
  5
1D
330
1B
100
AcDbEntity
  8
0
100
AcDbBlockEnd
  0
BLOCK
  5
30
330
2F
100
AcDbEntity
  8
0
100
AcDbBlockBegin
  2
FLAG
 70
2
 10
0.0
 20
0.0
 30
0.0
  3
FLAG
  1

  0
TEXT
  5
32
330
2F
100
AcDbEntity
  8
0
 62
3
100
AcDbText
 10
0.0
 20
-0.5
 30
0.0
 40
0.5
  1
NAME:
100
AcDbText
  0
ATTDEF
  5
33
330
2F
100
AcDbEntity
  8
0
 62
3
100
AcDbText
 10
1.5
 20
-0.5
 30
0.0
 40
0.5
  1

100
AcDbAttributeDefinition
  3

  2
NAME
 70
0
  0
TEXT
  5
34
330
2F
100
AcDbEntity
  8
0
 62
4
100
AcDbText
 10
0.0
 20
-1.0
 30
0.0
 40
0.25
  1
XPOS:
100
AcDbText
  0
ATTDEF
  5
35
330
2F
100
AcDbEntity
  8
0
 62
4
100
AcDbText
 10
1.5
 20
-1.0
 30
0.0
 40
0.25
  1

100
AcDbAttributeDefinition
  3

  2
XPOS
 70
0
  0
TEXT
  5
36
330
2F
100
AcDbEntity
  8
0
 62
4
100
AcDbText
 10
0.0
 20
-1.5
 30
0.0
 40
0.25
  1
YPOS:
100
AcDbText
  0
ATTDEF
  5
37
330
2F
100
AcDbEntity
  8
0
 62
4
100
AcDbText
 10
1.5
 20
-1.5
 30
0.0
 40
0.25
  1

100
AcDbAttributeDefinition
  3

  2
YPOS
 70
0
  0
ENDBLK
  5
31
330
2F
100
AcDbEntity
  8
0
100
AcDbBlockEnd
  0
BLOCK
  5
39
330
38
100
AcDbEntity
  8
0
100
AcDbBlockBegin
  2
штамп
 70
2
 10
0.0
 20
0.0
 30
0.0
  3
штамп
  1

  0
LWPOLYLINE
  5
3D
330
38
100
AcDbEntity
  8
F_TitleBox
 62
4
100
AcDbPolyline
 90
5
 70
1
 10
-187.0
 20
-147.0
 10
-187.0
 20
150.0
 10
23.0
 20
150.0
 10
23.0
 20
-147.0
 10
-187.0
 20
-147.0
  0
LWPOLYLINE
  5
3E
330
38
100
AcDbEntity
  8
F_TitleBox
 62
2
100
AcDbPolyline
 90
5
 70
1
 43
0.4
 10
-167.0
 20
-142.0
 10
-167.0
 20
145.0
 10
18.0
 20
145.0
 10
18.0
 20
-142.0
 10
-167.0
 20
-142.0
  0
POINT
  5
3F
330
38
100
AcDbEntity
  8
POINTS
 62
1
100
AcDbPoint
 10
0.0
 20
0.0
 30
0.0
  0
TEXT
  5
40
330
38
100
AcDbEntity
  8
0
 62
3
100
AcDbText
 10
0.0
 20
0.0
 30
0.0
 40
0.5
  1
Name:
100
AcDbText
  0
ATTDEF
  5
41
330
38
100
AcDbEntity
  8
0
 62
3
100
AcDbText
 10
1.0
 20
0.0
 30
0.0
 40
0.5
  1

100
AcDbAttributeDefinition
  3

  2
NAME
 70
0
  0
ENDBLK
  5
3A
330
38
100
AcDbEntity
  8
0
100
AcDbBlockEnd
  0
ENDSEC
  0
SECTION
  2
ENTITIES
  0
INSERT
  5
3B
330
17
100
AcDbEntity
  8
F_TitleBox
100
AcDbBlockReference
  2
штамп
 10
0.0
 20
0.0
 30
0.0
  0
INSERT
  5
42
330
17
100
AcDbEntity
  8
0
100
AcDbBlockReference
 66
1
  2
штамп
 10
10.0
 20
20.0
 30
0.0
 41
3.8
 42
3.8
 43
3.8
 50
15.0
  0
ATTRIB
  5
44
330
17
100
AcDbEntity
  8
0
 62
3
100
AcDbText
 10
13.670518139898459
 20
20.98351237138958
 30
0.0
 40
1.9
  1
Object
 50
14.999999999999998
 11
13.670518139898459
 21
20.98351237138958
 31
0.0
100
AcDbAttribute
  2
NAME
 70
0
  0
SEQEND
  5
43
330
42
100
AcDbEntity
  8
0
  0
INSERT
  5
45
330
17
100
AcDbEntity
  8
0
100
AcDbBlockReference
 66
1
  2
FLAG
 10
-19.0
 20
21.0
 30
0.0
 41
1.8748798196349783
 42
1.8748798196349783
 43
1.8748798196349783
 50
15.0
  0
ATTRIB
  5
47
330
17
100
AcDbEntity
  8
0
 62
3
100
AcDbText
 10
-16.040880439239622
 20
20.82238448741306
 30
0.0
 40
0.9374399098174891
  1
P(1)
 50
14.999999999999998
 11
-16.040880439239622
 21
20.82238448741306
 31
0.0
100
AcDbAttribute
  2
NAME
 70
0
  0
ATTRIB
  5
48
330
17
100
AcDbEntity
  8
0
 62
4
100
AcDbText
 10
-15.798253136939666
 20
19.91688706792625
 30
0.0
 40
0.4687199549087446
  1
= -19.000
 50
14.999999999999998
 11
-15.798253136939666
 21
19.91688706792625
 31
0.0
100
AcDbAttribute
  2
XPOS
 70
0
  0
ATTRIB
  5
49
330
17
100
AcDbEntity
  8
0
 62
4
100
AcDbText
 10
-15.55562583463971
 20
19.011389648439444
 30
0.0
 40
0.4687199549087446
  1
= 21.000
 50
14.999999999999998
 11
-15.55562583463971
 21
19.011389648439444
 31
0.0
100
AcDbAttribute
  2
YPOS
 70
0
  0
SEQEND
  5
46
330
45
100
AcDbEntity
  8
0
  0
INSERT
  5
4A
330
17
100
AcDbEntity
  8
0
100
AcDbBlockReference
 66
1
  2
FLAG
 10
-69.0
 20
79.0
 30
0.0
 41
1.772737466391341
 42
1.772737466391341
 43
1.772737466391341
 50
15.0
  0
ATTRIB
  5
4C
330
17
100
AcDbEntity
  8
0
 62
3
100
AcDbText
 10
-66.2020915378391
 20
78.83206087639448
 30
0.0
 40
0.8863687331956706
  1
P(2)
 50
14.999999999999998
 11
-66.2020915378391
 21
78.83206087639448
 31
0.0
100
AcDbAttribute
  2
NAME
 70
0
  0
ATTRIB
  5
4D
330
17
100
AcDbEntity
  8
0
 62
4
100
AcDbText
 10
-65.97268242870466
 20
77.97589442538566
 30
0.0
 40
0.4431843665978353
  1
= -69.000
 50
14.999999999999998
 11
-65.97268242870466
 21
77.97589442538566
 31
0.0
100
AcDbAttribute
  2
XPOS
 70
0
  0
ATTRIB
  5
4E
330
17
100
AcDbEntity
  8
0
 62
4
100
AcDbText
 10
-65.74327331957022
 20
77.11972797437683
 30
0.0
 40
0.4431843665978353
  1
= 79.000
 50
14.999999999999998
 11
-65.74327331957022
 21
77.11972797437683
 31
0.0
100
AcDbAttribute
  2
YPOS
 70
0
  0
SEQEND
  5
4B
330
4A
100
AcDbEntity
  8
0
  0
INSERT
  5
4F
330
17
100
AcDbEntity
  8
0
100
AcDbBlockReference
 66
1
  2
FLAG
 10
11.0
 20
-67.0
 30
0.0
 41
1.871323846911337
 42
1.871323846911337
 43
1.871323846911337
 50
15.0
  0
ATTRIB
  5
51
330
17
100
AcDbEntity
  8
0
 62
3
100
AcDbText
 10
13.95350717519099
 20
-67.17727863983838
 30
0.0
 40
0.9356619234556685
  1
P(3)
 50
14.999999999999998
 11
13.95350717519099
 21
-67.17727863983838
 31
0.0
100
AcDbAttribute
  2
NAME
 70
0
  0
ATTRIB
  5
52
330
17
100
AcDbEntity
  8
0
 62
4
100
AcDbText
 10
14.195674300758574
 20
-68.08105865637953
 30
0.0
 40
0.4678309617278342
  1
= 11.000
 50
14.999999999999998
 11
14.195674300758574
 21
-68.08105865637953
 31
0.0
100
AcDbAttribute
  2
XPOS
 70
0
  0
ATTRIB
  5
53
330
17
100
AcDbEntity
  8
0
 62
4
100
AcDbText
 10
14.437841426326159
 20
-68.98483867292066
 30
0.0
 40
0.4678309617278342
  1
= -67.000
 50
14.999999999999998
 11
14.437841426326159
 21
-68.98483867292066
 31
0.0
100
AcDbAttribute
  2
YPOS
 70
0
  0
SEQEND
  5
50
330
4F
100
AcDbEntity
  8
0
  0
INSERT
  5
54
330
17
100
AcDbEntity
  8
0
100
AcDbBlockReference
 66
1
  2
FLAG
 10
2.0
 20
-92.0
 30
0.0
 41
1.9087044602274517
 42
1.9087044602274517
 43
1.9087044602274517
 50
15.0
  0
ATTRIB
  5
56
330
17
100
AcDbEntity
  8
0
 62
3
100
AcDbText
 10
5.012504932219743
 20
-92.18081986777493
 30
0.0
 40
0.9543522301137258
  1
P(4)
 50
14.999999999999998
 11
5.012504932219743
 21
-92.18081986777493
 31
0.0
100
AcDbAttribute
  2
NAME
 70
0
  0
ATTRIB
  5
57
330
17
100
AcDbEntity
  8
0
 62
4
100
AcDbText
 10
5.259509465109238
 20
-93.10265333421835
 30
0.0
 40
0.4771761150568629
  1
= 2.000
 50
14.999999999999998
 11
5.259509465109238
 21
-93.10265333421835
 31
0.0
100
AcDbAttribute
  2
XPOS
 70
0
  0
ATTRIB
  5
58
330
17
100
AcDbEntity
  8
0
 62
4
100
AcDbText
 10
5.506513997998734
 20
-94.02448680066176
 30
0.0
 40
0.4771761150568629
  1
= -92.000
 50
14.999999999999998
 11
5.506513997998734
 21
-94.02448680066176
 31
0.0
100
AcDbAttribute
  2
YPOS
 70
0
  0
SEQEND
  5
55
330
54
100
AcDbEntity
  8
0
  0
INSERT
  5
59
330
17
100
AcDbEntity
  8
0
100
AcDbBlockReference
 66
1
  2
FLAG
 10
-2.0
 20
-38.0
 30
0.0
 41
2.053741375138316
 42
2.053741375138316
 43
2.053741375138316
 50
15.0
  0
ATTRIB
  5
5B
330
17
100
AcDbEntity
  8
0
 62
3
100
AcDbText
 10
1.2414164429472065
 20
-38.19455984498101
 30
0.0
 40
1.026870687569158
  1
P(5)
 50
14.999999999999998
 11
1.2414164429472065
 21
-38.19455984498101
 31
0.0
100
AcDbAttribute
  2
NAME
 70
0
  0
ATTRIB
  5
5C
330
17
100
AcDbEntity
  8
0
 62
4
100
AcDbText
 10
1.507190133747625
 20
-39.18644076236327
 30
0.0
 40
0.513435343784579
  1
= -2.000
 50
14.999999999999998
 11
1.507190133747625
 21
-39.18644076236327
 31
0.0
100
AcDbAttribute
  2
XPOS
 70
0
  0
ATTRIB
  5
5D
330
17
100
AcDbEntity
  8
0
 62
4
100
AcDbText
 10
1.772963824548043
 20
-40.17832167974554
 30
0.0
 40
0.513435343784579
  1
= -38.000
 50
14.999999999999998
 11
1.772963824548043
 21
-40.17832167974554
 31
0.0
100
AcDbAttribute
  2
YPOS
 70
0
  0
SEQEND
  5
5A
330
59
100
AcDbEntity
  8
0
  0
INSERT
  5
5E
330
17
100
AcDbEntity
  8
0
100
AcDbBlockReference
 66
1
  2
FLAG
 10
8.0
 20
62.0
 30
0.0
 41
1.0367645983322722
 42
1.0367645983322722
 43
1.0367645983322722
 50
15.0
  0
ATTRIB
  5
60
330
17
100
AcDbEntity
  8
0
 62
3
100
AcDbText
 10
9.636323763635259
 20
61.90178278434901
 30
0.0
 40
0.5183822991661361
  1
P(6)
 50
14.999999999999998
 11
9.636323763635259
 21
61.90178278434901
 31
0.0
100
AcDbAttribute
  2
NAME
 70
0
  0
ATTRIB
  5
61
330
17
100
AcDbEntity
  8
0
 62
4
100
AcDbText
 10
9.770490975303488
 20
61.40106393369333
 30
0.0
 40
0.25919114958306805
  1
= 8.000
 50
14.999999999999998
 11
9.770490975303488
 21
61.40106393369333
 31
0.0
100
AcDbAttribute
  2
XPOS
 70
0
  0
ATTRIB
  5
62
330
17
100
AcDbEntity
  8
0
 62
4
100
AcDbText
 10
9.904658186971716
 20
60.90034508303766
 30
0.0
 40
0.25919114958306805
  1
= 62.000
 50
14.999999999999998
 11
9.904658186971716
 21
60.90034508303766
 31
0.0
100
AcDbAttribute
  2
YPOS
 70
0
  0
SEQEND
  5
5F
330
5E
100
AcDbEntity
  8
0
  0
INSERT
  5
63
330
17
100
AcDbEntity
  8
0
100
AcDbBlockReference
 66
1
  2
FLAG
 10
93.0
 20
-57.0
 30
0.0
 41
1.1347827422871746
 42
1.1347827422871746
 43
1.1347827422871746
 50
15.0
  0
ATTRIB
  5
65
330
17
100
AcDbEntity
  8
0
 62
3
100
AcDbText
 10
94.79102562988227
 20
-57.10750290036478
 30
0.0
 40
0.5673913711435873
  1
P(7)
 50
15.000000000000002
 11
94.79102562988227
 21
-57.10750290036478
 31
0.0
100
AcDbAttribute
  2
NAME
 70
0
  0
ATTRIB
  5
66
330
17
100
AcDbEntity
  8
0
 62
4
100
AcDbText
 10
94.93787732276105
 20
-57.655560879365936
 30
0.0
 40
0.28369568557179364
  1
= 93.000
 50
15.000000000000002
 11
94.93787732276105
 21
-57.655560879365936
 31
0.0
100
AcDbAttribute
  2
XPOS
 70
0
  0
ATTRIB
  5
67
330
17
100
AcDbEntity
  8
0
 62
4
100
AcDbText
 10
95.08472901563985
 20
-58.20361885836709
 30
0.0
 40
0.28369568557179364
  1
= -57.000
 50
15.000000000000002
 11
95.08472901563985
 21
-58.20361885836709
 31
0.0
100
AcDbAttribute
  2
YPOS
 70
0
  0
SEQEND
  5
64
330
63
100
AcDbEntity
  8
0
  0
INSERT
  5
68
330
17
100
AcDbEntity
  8
0
100
AcDbBlockReference
 66
1
  2
FLAG
 10
26.0
 20
38.0
 30
0.0
 41
2.2996064741402877
 42
2.2996064741402877
 43
2.2996064741402877
 50
15.0
  0
ATTRIB
  5
6A
330
17
100
AcDbEntity
  8
0
 62
3
100
AcDbText
 10
29.629464901384754
 20
37.78214828578602
 30
0.0
 40
1.1498032370701439
  1
P(8)
 50
14.999999999999998
 11
29.629464901384754
 21
37.78214828578602
 31
0.0
100
AcDbAttribute
  2
NAME
 70
0
  0
ATTRIB
  5
6B
330
17
100
AcDbEntity
  8
0
 62
4
100
AcDbText
 10
29.927055877259036
 20
36.6715236439492
 30
0.0
 40
0.5749016185350719
  1
= 26.000
 50
14.999999999999998
 11
29.927055877259036
 21
36.6715236439492
 31
0.0
100
AcDbAttribute
  2
XPOS
 70
0
  0
ATTRIB
  5
6C
330
17
100
AcDbEntity
  8
0
 62
4
100
AcDbText
 10
30.22464685313332
 20
35.56089900211237
 30
0.0
 40
0.5749016185350719
  1
= 38.000
 50
14.999999999999998
 11
30.22464685313332
 21
35.56089900211237
 31
0.0
100
AcDbAttribute
  2
YPOS
 70
0
  0
SEQEND
  5
69
330
68
100
AcDbEntity
  8
0
  0
INSERT
  5
6D
330
17
100
AcDbEntity
  8
0
100
AcDbBlockReference
 66
1
  2
FLAG
 10
29.0
 20
-31.0
 30
0.0
 41
1.0640712310544553
 42
1.0640712310544553
 43
1.0640712310544553
 50
15.0
  0
ATTRIB
  5
6F
330
17
100
AcDbEntity
  8
0
 62
3
100
AcDbText
 10
30.67942177460134
 20
-31.100804091629485
 30
0.0
 40
0.5320356155272277
  1
P(9)
 50
14.999999999999998
 11
30.67942177460134
 21
-31.100804091629485
 31
0.0
100
AcDbAttribute
  2
NAME
 70
0
  0
ATTRIB
  5
70
330
17
100
AcDbEntity
  8
0
 62
4
100
AcDbText
 10
30.81712272457263
 20
-31.614711033172835
 30
0.0
 40
0.26601780776361383
  1
= 29.000
 50
14.999999999999998
 11
30.81712272457263
 21
-31.614711033172835
 31
0.0
100
AcDbAttribute
  2
XPOS
 70
0
  0
ATTRIB
  5
71
330
17
100
AcDbEntity
  8
0
 62
4
100
AcDbText
 10
30.954823674543917
 20
-32.128617974716185
 30
0.0
 40
0.26601780776361383
  1
= -31.000
 50
14.999999999999998
 11
30.954823674543917
 21
-32.128617974716185
 31
0.0
100
AcDbAttribute
  2
YPOS
 70
0
  0
SEQEND
  5
6E
330
6D
100
AcDbEntity
  8
0
  0
INSERT
  5
72
330
17
100
AcDbEntity
  8
0
100
AcDbBlockReference
 66
1
  2
FLAG
 10
-22.0
 20
19.0
 30
0.0
 41
1.6340977418738345
 42
1.6340977418738345
 43
1.6340977418738345
 50
15.0
  0
ATTRIB
  5
74
330
17
100
AcDbEntity
  8
0
 62
3
100
AcDbText
 10
-19.42090637408714
 20
18.845194819955665
 30
0.0
 40
0.8170488709369172
  1
P(10)
 50
14.999999999999998
 11
-19.42090637408714
 21
18.845194819955665
 31
0.0
100
AcDbAttribute
  2
NAME
 70
0
  0
ATTRIB
  5
75
330
17
100
AcDbEntity
  8
0
 62
4
100
AcDbText
 10
-19.209438565509153
 20
18.055986214177373
 30
0.0
 40
0.4085244354684586
  1
= -22.000
 50
14.999999999999998
 11
-19.209438565509153
 21
18.055986214177373
 31
0.0
100
AcDbAttribute
  2
XPOS
 70
0
  0
ATTRIB
  5
76
330
17
100
AcDbEntity
  8
0
 62
4
100
AcDbText
 10
-18.997970756931167
 20
17.26677760839908
 30
0.0
 40
0.4085244354684586
  1
= 19.000
 50
14.999999999999998
 11
-18.997970756931167
 21
17.26677760839908
 31
0.0
100
AcDbAttribute
  2
YPOS
 70
0
  0
SEQEND
  5
73
330
72
100
AcDbEntity
  8
0
  0
INSERT
  5
77
330
17
100
AcDbEntity
  8
0
100
AcDbBlockReference
 66
1
  2
FLAG
 10
-27.0
 20
-8.0
 30
0.0
 41
1.4083918004269973
 42
1.4083918004269973
 43
1.4083918004269973
 50
15.0
  0
ATTRIB
  5
79
330
17
100
AcDbEntity
  8
0
 62
3
100
AcDbText
 10
-24.77713766919234
 20
-8.133423075407995
 30
0.0
 40
0.7041959002134986
  1
P(11)
 50
14.999999999999998
 41
1.0000000000000002
 11
-24.77713766919234
 21
-8.133423075407995
 31
0.0
100
AcDbAttribute
  2
NAME
 70
0
  0
ATTRIB
  5
7A
330
17
100
AcDbEntity
  8
0
 62
4
100
AcDbText
 10
-24.594878358733972
 20
-8.813624082191094
 30
0.0
 40
0.3520979501067493
  1
= -27.000
 50
14.999999999999998
 41
1.0000000000000002
 11
-24.594878358733972
 21
-8.813624082191094
 31
0.0
100
AcDbAttribute
  2
XPOS
 70
0
  0
ATTRIB
  5
7B
330
17
100
AcDbEntity
  8
0
 62
4
100
AcDbText
 10
-24.4126190482756
 20
-9.49382508897419
 30
0.0
 40
0.3520979501067493
  1
= -8.000
 50
14.999999999999998
 41
1.0000000000000002
 11
-24.4126190482756
 21
-9.49382508897419
 31
0.0
100
AcDbAttribute
  2
YPOS
 70
0
  0
SEQEND
  5
78
330
77
100
AcDbEntity
  8
0
  0
INSERT
  5
7C
330
17
100
AcDbEntity
  8
0
100
AcDbBlockReference
 66
1
  2
FLAG
 10
-15.0
 20
49.0
 30
0.0
 41
0.9415666513510605
 42
0.9415666513510605
 43
0.9415666513510605
 50
15.0
  0
ATTRIB
  5
7E
330
17
100
AcDbEntity
  8
0
 62
3
100
AcDbText
 10
-13.513926990629713
 20
48.91080129954834
 30
0.0
 40
0.4707833256755303
  1
P(12)
 50
14.999999999999998
 11
-13.513926990629713
 21
48.91080129954834
 31
0.0
100
AcDbAttribute
  2
NAME
 70
0
  0
ATTRIB
  5
7F
330
17
100
AcDbEntity
  8
0
 62
4
100
AcDbText
 10
-13.392079299828184
 20
48.45605952669209
 30
0.0
 40
0.23539166283776514
  1
= -15.000
 50
14.999999999999998
 11
-13.392079299828184
 21
48.45605952669209
 31
0.0
100
AcDbAttribute
  2
XPOS
 70
0
  0
ATTRIB
  5
80
330
17
100
AcDbEntity
  8
0
 62
4
100
AcDbText
 10
-13.270231609026654
 20
48.001317753835835
 30
0.0
 40
0.23539166283776514
  1
= 49.000
 50
14.999999999999998
 11
-13.270231609026654
 21
48.001317753835835
 31
0.0
100
AcDbAttribute
  2
YPOS
 70
0
  0
SEQEND
  5
7D
330
7C
100
AcDbEntity
  8
0
  0
INSERT
  5
81
330
17
100
AcDbEntity
  8
0
100
AcDbBlockReference
 66
1
  2
FLAG
 10
-36.0
 20
27.0
 30
0.0
 41
0.5767361589310673
 42
0.5767361589310673
 43
0.5767361589310673
 50
15.0
  0
ATTRIB
  5
83
330
17
100
AcDbEntity
  8
0
 62
3
100
AcDbText
 10
-35.08973832273527
 20
26.945363277462814
 30
0.0
 40
0.28836807946553367
  1
P(13)
 50
14.999999999999998
 11
-35.08973832273527
 21
26.945363277462814
 31
0.0
100
AcDbAttribute
  2
NAME
 70
0
  0
ATTRIB
  5
84
330
17
100
AcDbEntity
  8
0
 62
4
100
AcDbText
 10
-35.01510317176995
 20
26.666821102029676
 30
0.0
 40
0.14418403973276683
  1
= -36.000
 50
14.999999999999998
 11
-35.01510317176995
 21
26.666821102029676
 31
0.0
100
AcDbAttribute
  2
XPOS
 70
0
  0
ATTRIB
  5
85
330
17
100
AcDbEntity
  8
0
 62
4
100
AcDbText
 10
-34.94046802080464
 20
26.38827892659654
 30
0.0
 40
0.14418403973276683
  1
= 27.000
 50
14.999999999999998
 11
-34.94046802080464
 21
26.38827892659654
 31
0.0
100
AcDbAttribute
  2
YPOS
 70
0
  0
SEQEND
  5
82
330
81
100
AcDbEntity
  8
0
  0
INSERT
  5
86
330
17
100
AcDbEntity
  8
0
100
AcDbBlockReference
 66
1
  2
FLAG
 10
-66.0
 20
-12.0
 30
0.0
 41
1.2117011365676376
 42
1.2117011365676376
 43
1.2117011365676376
 50
15.0
  0
ATTRIB
  5
88
330
17
100
AcDbEntity
  8
0
 62
3
100
AcDbText
 10
-64.08757420211022
 20
-12.114789714103138
 30
0.0
 40
0.6058505682838188
  1
P(14)
 50
14.999999999999998
 11
-64.08757420211022
 21
-12.114789714103138
 31
0.0
100
AcDbAttribute
  2
NAME
 70
0
  0
ATTRIB
  5
89
330
17
100
AcDbEntity
  8
0
 62
4
100
AcDbText
 10
-63.93076853655218
 20
-12.699996424880386
 30
0.0
 40
0.3029252841419094
  1
= -66.000
 50
14.999999999999998
 11
-63.93076853655218
 21
-12.699996424880386
 31
0.0
100
AcDbAttribute
  2
XPOS
 70
0
  0
ATTRIB
  5
8A
330
17
100
AcDbEntity
  8
0
 62
4
100
AcDbText
 10
-63.77396287099414
 20
-13.285203135657635
 30
0.0
 40
0.3029252841419094
  1
= -12.000
 50
14.999999999999998
 11
-63.77396287099414
 21
-13.285203135657635
 31
0.0
100
AcDbAttribute
  2
YPOS
 70
0
  0
SEQEND
  5
87
330
86
100
AcDbEntity
  8
0
  0
INSERT
  5
8B
330
17
100
AcDbEntity
  8
0
100
AcDbBlockReference
 66
1
  2
FLAG
 10
62.0
 20
-54.0
 30
0.0
 41
1.709870785999695
 42
1.709870785999695
 43
1.709870785999695
 50
15.0
  0
ATTRIB
  5
8D
330
17
100
AcDbEntity
  8
0
 62
3
100
AcDbText
 10
64.698686089762
 20
-54.16198348978544
 30
0.0
 40
0.8549353929998476
  1
P(15)
 50
14.999999999999998
 11
64.698686089762
 21
-54.16198348978544
 31
0.0
100
AcDbAttribute
  2
NAME
 70
0
  0
ATTRIB
  5
8E
330
17
100
AcDbEntity
  8
0
 62
4
100
AcDbText
 10
64.91995965180257
 20
-54.987787665692586
 30
0.0
 40
0.4274676964999238
  1
= 62.000
 50
14.999999999999998
 11
64.91995965180257
 21
-54.987787665692586
 31
0.0
100
AcDbAttribute
  2
XPOS
 70
0
  0
ATTRIB
  5
8F
330
17
100
AcDbEntity
  8
0
 62
4
100
AcDbText
 10
65.14123321384315
 20
-55.81359184159973
 30
0.0
 40
0.4274676964999238
  1
= -54.000
 50
14.999999999999998
 11
65.14123321384315
 21
-55.81359184159973
 31
0.0
100
AcDbAttribute
  2
YPOS
 70
0
  0
SEQEND
  5
8C
330
8B
100
AcDbEntity
  8
0
  0
INSERT
  5
90
330
17
100
AcDbEntity
  8
0
100
AcDbBlockReference
 66
1
  2
FLAG
 10
-11.0
 20
42.0
 30
0.0
 41
2.257128065310762
 42
2.257128065310762
 43
2.257128065310762
 50
15.0
  0
ATTRIB
  5
92
330
17
100
AcDbEntity
  8
0
 62
3
100
AcDbText
 10
-7.437578697442769
 20
41.78617245004398
 30
0.0
 40
1.128564032655381
  1
P(16)
 50
14.999999999999998
 11
-7.437578697442769
 21
41.78617245004398
 31
0.0
100
AcDbAttribute
  2
NAME
 70
0
  0
ATTRIB
  5
93
330
17
100
AcDbEntity
  8
0
 62
4
100
AcDbText
 10
-7.145484832173853
 20
40.6960633042812
 30
0.0
 40
0.5642820163276905
  1
= -11.000
 50
14.999999999999998
 11
-7.145484832173853
 21
40.6960633042812
 31
0.0
100
AcDbAttribute
  2
XPOS
 70
0
  0
ATTRIB
  5
94
330
17
100
AcDbEntity
  8
0
 62
4
100
AcDbText
 10
-6.8533909669049375
 20
39.60595415851843
 30
0.0
 40
0.5642820163276905
  1
= 42.000
 50
14.999999999999998
 11
-6.8533909669049375
 21
39.60595415851843
 31
0.0
100
AcDbAttribute
  2
YPOS
 70
0
  0
SEQEND
  5
91
330
90
100
AcDbEntity
  8
0
  0
INSERT
  5
95
330
17
100
AcDbEntity
  8
0
100
AcDbBlockReference
 66
1
  2
FLAG
 10
89.0
 20
-6.0
 30
0.0
 41
0.8421799042880038
 42
0.8421799042880038
 43
0.8421799042880038
 50
15.0
  0
ATTRIB
  5
97
330
17
100
AcDbEntity
  8
0
 62
3
100
AcDbText
 10
90.32921107921634
 20
-6.079783362018189
 30
0.0
 40
0.4210899521440019
  1
P(17)
 50
14.999999999999998
 11
90.32921107921634
 21
-6.079783362018189
 31
0.0
100
AcDbAttribute
  2
NAME
 70
0
  0
ATTRIB
  5
98
330
17
100
AcDbEntity
  8
0
 62
4
100
AcDbText
 10
90.4381971785325
 20
-6.486525021984908
 30
0.0
 40
0.21054497607200096
  1
= 89.000
 50
14.999999999999998
 11
90.4381971785325
 21
-6.486525021984908
 31
0.0
100
AcDbAttribute
  2
XPOS
 70
0
  0
ATTRIB
  5
99
330
17
100
AcDbEntity
  8
0
 62
4
100
AcDbText
 10
90.54718327784869
 20
-6.893266681951628
 30
0.0
 40
0.21054497607200096
  1
= -6.000
 50
14.999999999999998
 11
90.54718327784869
 21
-6.893266681951628
 31
0.0
100
AcDbAttribute
  2
YPOS
 70
0
  0
SEQEND
  5
96
330
95
100
AcDbEntity
  8
0
  0
INSERT
  5
9A
330
17
100
AcDbEntity
  8
0
100
AcDbBlockReference
 66
1
  2
FLAG
 10
69.0
 20
34.0
 30
0.0
 41
2.2967114613145583
 42
2.2967114613145583
 43
2.2967114613145583
 50
15.0
  0
ATTRIB
  5
9C
330
17
100
AcDbEntity
  8
0
 62
3
100
AcDbText
 10
72.62489570767349
 20
33.78242254293126
 30
0.0
 40
1.1483557306572791
  1
P(18)
 50
15.000000000000002
 11
72.62489570767349
 21
33.78242254293126
 31
0.0
100
AcDbAttribute
  2
NAME
 70
0
  0
ATTRIB
  5
9D
330
17
100
AcDbEntity
  8
0
 62
4
100
AcDbText
 10
72.9221120413202
 20
32.67319608492234
 30
0.0
 40
0.5741778653286396
  1
= 69.000
 50
15.000000000000002
 11
72.9221120413202
 21
32.67319608492234
 31
0.0
100
AcDbAttribute
  2
XPOS
 70
0
  0
ATTRIB
  5
9E
330
17
100
AcDbEntity
  8
0
 62
4
100
AcDbText
 10
73.21932837496693
 20
31.563969626913416
 30
0.0
 40
0.5741778653286396
  1
= 34.000
 50
15.000000000000002
 11
73.21932837496693
 21
31.563969626913416
 31
0.0
100
AcDbAttribute
  2
YPOS
 70
0
  0
SEQEND
  5
9B
330
9A
100
AcDbEntity
  8
0
  0
INSERT
  5
9F
330
17
100
AcDbEntity
  8
0
100
AcDbBlockReference
 66
1
  2
FLAG
 10
-91.0
 20
-50.0
 30
0.0
 41
0.7191484129328922
 42
0.7191484129328922
 43
0.7191484129328922
 50
15.0
  0
ATTRIB
  5
A1
330
17
100
AcDbEntity
  8
0
 62
3
100
AcDbText
 10
-89.86496930975885
 20
-50.068128054209915
 30
0.0
 40
0.35957420646644606
  1
P(19)
 50
14.999999999999998
 41
1.0000000000000002
 11
-89.86496930975885
 21
-50.068128054209915
 31
0.0
100
AcDbAttribute
  2
NAME
 70
0
  0
ATTRIB
  5
A2
330
17
100
AcDbEntity
  8
0
 62
4
100
AcDbText
 10
-89.7719046569977
 20
-50.41545006670325
 30
0.0
 40
0.17978710323322303
  1
= -91.000
 50
14.999999999999998
 41
1.0000000000000002
 11
-89.7719046569977
 21
-50.41545006670325
 31
0.0
100
AcDbAttribute
  2
XPOS
 70
0
  0
ATTRIB
  5
A3
330
17
100
AcDbEntity
  8
0
 62
4
100
AcDbText
 10
-89.67884000423656
 20
-50.76277207919659
 30
0.0
 40
0.17978710323322303
  1
= -50.000
 50
14.999999999999998
 41
1.0000000000000002
 11
-89.67884000423656
 21
-50.76277207919659
 31
0.0
100
AcDbAttribute
  2
YPOS
 70
0
  0
SEQEND
  5
A0
330
9F
100
AcDbEntity
  8
0
  0
INSERT
  5
A4
330
17
100
AcDbEntity
  8
0
100
AcDbBlockReference
 66
1
  2
FLAG
 10
-61.0
 20
33.0
 30
0.0
 41
1.5185601843829388
 42
1.5185601843829388
 43
1.5185601843829388
 50
15.0
  0
ATTRIB
  5
A6
330
17
100
AcDbEntity
  8
0
 62
3
100
AcDbText
 10
-58.60325910026899
 20
32.856140194844166
 30
0.0
 40
0.7592800921914695
  1
P(20)
 50
14.999999999999998
 11
-58.60325910026899
 21
32.856140194844166
 31
0.0
100
AcDbAttribute
  2
NAME
 70
0
  0
ATTRIB
  5
A7
330
17
100
AcDbEntity
  8
0
 62
4
100
AcDbText
 10
-58.406742951842645
 20
32.12273194440928
 30
0.0
 40
0.37964004609573476
  1
= -61.000
 50
14.999999999999998
 11
-58.406742951842645
 21
32.12273194440928
 31
0.0
100
AcDbAttribute
  2
XPOS
 70
0
  0
ATTRIB
  5
A8
330
17
100
AcDbEntity
  8
0
 62
4
100
AcDbText
 10
-58.2102268034163
 20
31.389323693974394
 30
0.0
 40
0.37964004609573476
  1
= 33.000
 50
14.999999999999998
 11
-58.2102268034163
 21
31.389323693974394
 31
0.0
100
AcDbAttribute
  2
YPOS
 70
0
  0
SEQEND
  5
A5
330
A4
100
AcDbEntity
  8
0
  0
INSERT
  5
A9
330
17
100
AcDbEntity
  8
0
100
AcDbBlockReference
 66
1
  2
FLAG
 10
-78.0
 20
20.0
 30
0.0
 41
1.7513967730625066
 42
1.7513967730625066
 43
1.7513967730625066
 50
15.0
  0
ATTRIB
  5
AB
330
17
100
AcDbEntity
  8
0
 62
3
100
AcDbText
 10
-75.23577351702954
 20
19.834082573009308
 30
0.0
 40
0.8756983865312533
  1
P(21)
 50
14.999999999999998
 11
-75.23577351702954
 21
19.834082573009308
 31
0.0
100
AcDbAttribute
  2
NAME
 70
0
  0
ATTRIB
  5
AC
330
17
100
AcDbEntity
  8
0
 62
4
100
AcDbText
 10
-75.00912609682972
 20
18.988222885419102
 30
0.0
 40
0.43784919326562666
  1
= -78.000
 50
14.999999999999998
 11
-75.00912609682972
 21
18.988222885419102
 31
0.0
100
AcDbAttribute
  2
XPOS
 70
0
  0
ATTRIB
  5
AD
330
17
100
AcDbEntity
  8
0
 62
4
100
AcDbText
 10
-74.78247867662988
 20
18.142363197828896
 30
0.0
 40
0.43784919326562666
  1
= 20.000
 50
14.999999999999998
 11
-74.78247867662988
 21
18.142363197828896
 31
0.0
100
AcDbAttribute
  2
YPOS
 70
0
  0
SEQEND
  5
AA
330
A9
100
AcDbEntity
  8
0
  0
INSERT
  5
AE
330
17
100
AcDbEntity
  8
0
100
AcDbBlockReference
 66
1
  2
FLAG
 10
-53.0
 20
-51.0
 30
0.0
 41
0.6019904694954616
 42
0.6019904694954616
 43
0.6019904694954616
 50
15.0
  0
ATTRIB
  5
B0
330
17
100
AcDbEntity
  8
0
 62
3
100
AcDbText
 10
-52.04987948826386
 20
-51.057029173119325
 30
0.0
 40
0.3009952347477309
  1
P(22)
 50
14.999999999999998
 11
-52.04987948826386
 21
-51.057029173119325
 31
0.0
100
AcDbAttribute
  2
NAME
 70
0
  0
ATTRIB
  5
B1
330
17
100
AcDbEntity
  8
0
 62
4
100
AcDbText
 10
-51.971976189026044
 20
-51.347768243952096
 30
0.0
 40
0.15049761737386544
  1
= -53.000
 50
14.999999999999998
 11
-51.971976189026044
 21
-51.347768243952096
 31
0.0
100
AcDbAttribute
  2
XPOS
 70
0
  0
ATTRIB
  5
B2
330
17
100
AcDbEntity
  8
0
 62
4
100
AcDbText
 10
-51.89407288978823
 20
-51.638507314784874
 30
0.0
 40
0.15049761737386544
  1
= -51.000
 50
14.999999999999998
 11
-51.89407288978823
 21
-51.638507314784874
 31
0.0
100
AcDbAttribute
  2
YPOS
 70
0
  0
SEQEND
  5
AF
330
AE
100
AcDbEntity
  8
0
  0
INSERT
  5
B3
330
17
100
AcDbEntity
  8
0
100
AcDbBlockReference
 66
1
  2
FLAG
 10
-37.0
 20
24.0
 30
0.0
 41
0.8064674096962907
 42
0.8064674096962907
 43
0.8064674096962907
 50
15.0
  0
ATTRIB
  5
B5
330
17
100
AcDbEntity
  8
0
 62
3
100
AcDbText
 10
-35.72715388892891
 20
23.9235998377828
 30
0.0
 40
0.40323370484814536
  1
P(23)
 50
14.999999999999998
 11
-35.72715388892891
 21
23.9235998377828
 31
0.0
100
AcDbAttribute
  2
NAME
 70
0
  0
ATTRIB
  5
B6
330
17
100
AcDbEntity
  8
0
 62
4
100
AcDbText
 10
-35.62278932648696
 20
23.53410598823975
 30
0.0
 40
0.20161685242407268
  1
= -37.000
 50
14.999999999999998
 11
-35.62278932648696
 21
23.53410598823975
 31
0.0
100
AcDbAttribute
  2
XPOS
 70
0
  0
ATTRIB
  5
B7
330
17
100
AcDbEntity
  8
0
 62
4
100
AcDbText
 10
-35.518424764045015
 20
23.144612138696704
 30
0.0
 40
0.20161685242407268
  1
= 24.000
 50
14.999999999999998
 11
-35.518424764045015
 21
23.144612138696704
 31
0.0
100
AcDbAttribute
  2
YPOS
 70
0
  0
SEQEND
  5
B4
330
B3
100
AcDbEntity
  8
0
  0
INSERT
  5
B8
330
17
100
AcDbEntity
  8
0
100
AcDbBlockReference
 66
1
  2
FLAG
 10
23.0
 20
-65.0
 30
0.0
 41
2.0286889263525163
 42
2.0286889263525163
 43
2.0286889263525163
 50
15.0
  0
ATTRIB
  5
BA
330
17
100
AcDbEntity
  8
0
 62
3
100
AcDbText
 10
26.201876206570113
 20
-65.19218651764234
 30
0.0
 40
1.0143444631762581
  1
P(24)
 50
14.999999999999998
 11
26.201876206570113
 21
-65.19218651764234
 31
0.0
100
AcDbAttribute
  2
NAME
 70
0
  0
ATTRIB
  5
BB
330
17
100
AcDbEntity
  8
0
 62
4
100
AcDbText
 10
26.464407871934423
 20
-66.17196803137762
 30
0.0
 40
0.5071722315881291
  1
= 23.000
 50
14.999999999999998
 11
26.464407871934423
 21
-66.17196803137762
 31
0.0
100
AcDbAttribute
  2
XPOS
 70
0
  0
ATTRIB
  5
BC
330
17
100
AcDbEntity
  8
0
 62
4
100
AcDbText
 10
26.72693953729873
 20
-67.15174954511288
 30
0.0
 40
0.5071722315881291
  1
= -65.000
 50
14.999999999999998
 11
26.72693953729873
 21
-67.15174954511288
 31
0.0
100
AcDbAttribute
  2
YPOS
 70
0
  0
SEQEND
  5
B9
330
B8
100
AcDbEntity
  8
0
  0
INSERT
  5
BD
330
17
100
AcDbEntity
  8
0
100
AcDbBlockReference
 66
1
  2
FLAG
 10
-57.0
 20
-63.0
 30
0.0
 41
1.2929038754410744
 42
1.2929038754410744
 43
1.2929038754410744
 50
15.0
  0
ATTRIB
  5
BF
330
17
100
AcDbEntity
  8
0
 62
3
100
AcDbText
 10
-54.95941206047786
 20
-63.12248240242237
 30
0.0
 40
0.6464519377205372
  1
P(25)
 50
14.999999999999998
 41
1.0000000000000002
 11
-54.95941206047786
 21
-63.12248240242237
 31
0.0
100
AcDbAttribute
  2
NAME
 70
0
  0
ATTRIB
  5
C0
330
17
100
AcDbEntity
  8
0
 62
4
100
AcDbText
 10
-54.792097987252355
 20
-63.74690702452125
 30
0.0
 40
0.3232259688602686
  1
= -57.000
 50
14.999999999999998
 41
1.0000000000000002
 11
-54.792097987252355
 21
-63.74690702452125
 31
0.0
100
AcDbAttribute
  2
XPOS
 70
0
  0
ATTRIB
  5
C1
330
17
100
AcDbEntity
  8
0
 62
4
100
AcDbText
 10
-54.62478391402685
 20
-64.37133164662012
 30
0.0
 40
0.3232259688602686
  1
= -63.000
 50
14.999999999999998
 41
1.0000000000000002
 11
-54.62478391402685
 21
-64.37133164662012
 31
0.0
100
AcDbAttribute
  2
YPOS
 70
0
  0
SEQEND
  5
BE
330
BD
100
AcDbEntity
  8
0
  0
INSERT
  5
C2
330
17
100
AcDbEntity
  8
0
100
AcDbBlockReference
 66
1
  2
FLAG
 10
-26.0
 20
1.0
 30
0.0
 41
2.136113910696513
 42
2.136113910696513
 43
2.136113910696513
 50
15.0
  0
ATTRIB
  5
C4
330
17
100
AcDbEntity
  8
0
 62
3
100
AcDbText
 10
-22.628575127346004
 20
0.7976366467764728
 30
0.0
 40
1.0680569553482564
  1
P(26)
 50
14.999999999999996
 11
-22.628575127346004
 21
0.7976366467764728
 31
0.0
100
AcDbAttribute
  2
NAME
 70
0
  0
ATTRIB
  5
C5
330
17
100
AcDbEntity
  8
0
 62
4
100
AcDbText
 10
-22.352141646047663
 20
-0.23402715034207833
 30
0.0
 40
0.5340284776741282
  1
= -26.000
 50
14.999999999999996
 11
-22.352141646047663
 21
-0.23402715034207833
 31
0.0
100
AcDbAttribute
  2
XPOS
 70
0
  0
ATTRIB
  5
C6
330
17
100
AcDbEntity
  8
0
 62
4
100
AcDbText
 10
-22.075708164749322
 20
-1.2656909474606293
 30
0.0
 40
0.5340284776741282
  1
= 1.000
 50
14.999999999999996
 11
-22.075708164749322
 21
-1.2656909474606293
 31
0.0
100
AcDbAttribute
  2
YPOS
 70
0
  0
SEQEND
  5
C3
330
C2
100
AcDbEntity
  8
0
  0
INSERT
  5
C7
330
17
100
AcDbEntity
  8
0
100
AcDbBlockReference
 66
1
  2
FLAG
 10
-62.0
 20
-54.0
 30
0.0
 41
1.9629215426863882
 42
1.9629215426863882
 43
1.9629215426863882
 50
15.0
  0
ATTRIB
  5
C9
330
17
100
AcDbEntity
  8
0
 62
3
100
AcDbText
 10
-58.901924340765426
 20
-54.1859560875961
 30
0.0
 40
0.9814607713431941
  1
P(27)
 50
14.999999999999998
 11
-58.901924340765426
 21
-54.1859560875961
 31
0.0
100
AcDbAttribute
  2
NAME
 70
0
  0
ATTRIB
  5
CA
330
17
100
AcDbEntity
  8
0
 62
4
100
AcDbText
 10
-58.6479036011208
 20
-55.13397439412608
 30
0.0
 40
0.49073038567159705
  1
= -62.000
 50
14.999999999999998
 11
-58.6479036011208
 21
-55.13397439412608
 31
0.0
100
AcDbAttribute
  2
XPOS
 70
0
  0
ATTRIB
  5
CB
330
17
100
AcDbEntity
  8
0
 62
4
100
AcDbText
 10
-58.39388286147617
 20
-56.08199270065606
 30
0.0
 40
0.49073038567159705
  1
= -54.000
 50
14.999999999999998
 11
-58.39388286147617
 21
-56.08199270065606
 31
0.0
100
AcDbAttribute
  2
YPOS
 70
0
  0
SEQEND
  5
C8
330
C7
100
AcDbEntity
  8
0
  0
INSERT
  5
CC
330
17
100
AcDbEntity
  8
0
100
AcDbBlockReference
 66
1
  2
FLAG
 10
99.0
 20
-46.0
 30
0.0
 41
2.099558679876348
 42
2.099558679876348
 43
2.099558679876348
 50
15.0
  0
ATTRIB
  5
CE
330
17
100
AcDbEntity
  8
0
 62
3
100
AcDbText
 10
102.31372981538408
 20
-46.19890031735751
 30
0.0
 40
1.049779339938174
  1
P(28)
 50
15.000000000000002
 11
102.31372981538408
 21
-46.19890031735751
 31
0.0
100
AcDbAttribute
  2
NAME
 70
0
  0
ATTRIB
  5
CF
330
17
100
AcDbEntity
  8
0
 62
4
100
AcDbText
 10
102.58543270171522
 20
-47.21290929370849
 30
0.0
 40
0.524889669969087
  1
= 99.000
 50
15.000000000000002
 11
102.58543270171522
 21
-47.21290929370849
 31
0.0
100
AcDbAttribute
  2
XPOS
 70
0
  0
ATTRIB
  5
D0
330
17
100
AcDbEntity
  8
0
 62
4
100
AcDbText
 10
102.85713558804638
 20
-48.226918270059464
 30
0.0
 40
0.524889669969087
  1
= -46.000
 50
15.000000000000002
 11
102.85713558804638
 21
-48.226918270059464
 31
0.0
100
AcDbAttribute
  2
YPOS
 70
0
  0
SEQEND
  5
CD
330
CC
100
AcDbEntity
  8
0
  0
INSERT
  5
D1
330
17
100
AcDbEntity
  8
0
100
AcDbBlockReference
 66
1
  2
FLAG
 10
60.0
 20
75.0
 30
0.0
 41
0.6190623797445429
 42
0.6190623797445429
 43
0.6190623797445429
 50
15.0
  0
ATTRIB
  5
D3
330
17
100
AcDbEntity
  8
0
 62
3
100
AcDbText
 10
60.97706507801102
 20
74.94135353063696
 30
0.0
 40
0.3095311898722715
  1
P(29)
 50
14.999999999999998
 11
60.97706507801102
 21
74.94135353063696
 31
0.0
100
AcDbAttribute
  2
NAME
 70
0
  0
ATTRIB
  5
D4
330
17
100
AcDbEntity
  8
0
 62
4
100
AcDbText
 10
61.057177645003215
 20
74.64236936029734
 30
0.0
 40
0.15476559493613576
  1
= 60.000
 50
14.999999999999998
 11
61.057177645003215
 21
74.64236936029734
 31
0.0
100
AcDbAttribute
  2
XPOS
 70
0
  0
ATTRIB
  5
D5
330
17
100
AcDbEntity
  8
0
 62
4
100
AcDbText
 10
61.1372902119954
 20
74.34338518995773
 30
0.0
 40
0.15476559493613576
  1
= 75.000
 50
14.999999999999998
 11
61.1372902119954
 21
74.34338518995773
 31
0.0
100
AcDbAttribute
  2
YPOS
 70
0
  0
SEQEND
  5
D2
330
D1
100
AcDbEntity
  8
0
  0
INSERT
  5
D6
330
17
100
AcDbEntity
  8
0
100
AcDbBlockReference
 66
1
  2
FLAG
 10
-7.0
 20
-66.0
 30
0.0
 41
1.8146904393016352
 42
1.8146904393016352
 43
1.8146904393016352
 50
15.0
  0
ATTRIB
  5
D8
330
17
100
AcDbEntity
  8
0
 62
3
100
AcDbText
 10
-4.135877233609682
 20
-66.17191351103557
 30
0.0
 40
0.9073452196508177
  1
P(30)
 50
14.999999999999998
 11
-4.135877233609682
 21
-66.17191351103557
 31
0.0
100
AcDbAttribute
  2
NAME
 70
0
  0
ATTRIB
  5
D9
330
17
100
AcDbEntity
  8
0
 62
4
100
AcDbText
 10
-3.9010390102813206
 20
-67.04834169205623
 30
0.0
 40
0.45367260982540886
  1
= -7.000
 50
14.999999999999998
 11
-3.9010390102813206
 21
-67.04834169205623
 31
0.0
100
AcDbAttribute
  2
XPOS
 70
0
  0
ATTRIB
  5
DA
330
17
100
AcDbEntity
  8
0
 62
4
100
AcDbText
 10
-3.6662007869529587
 20
-67.92476987307687
 30
0.0
 40
0.45367260982540886
  1
= -66.000
 50
14.999999999999998
 11
-3.6662007869529587
 21
-67.92476987307687
 31
0.0
100
AcDbAttribute
  2
YPOS
 70
0
  0
SEQEND
  5
D7
330
D6
100
AcDbEntity
  8
0
  0
INSERT
  5
DB
330
17
100
AcDbEntity
  8
0
100
AcDbBlockReference
 66
1
  2
FLAG
 10
-62.0
 20
-39.0
 30
0.0
 41
1.6642121830457681
 42
1.6642121830457681
 43
1.6642121830457681
 50
15.0
  0
ATTRIB
  5
DD
330
17
100
AcDbEntity
  8
0
 62
3
100
AcDbText
 10
-59.37337680392483
 20
-39.15765805191858
 30
0.0
 40
0.832106091522884
  1
P(31)
 50
14.999999999999998
 11
-59.37337680392483
 21
-39.15765805191858
 31
0.0
100
AcDbAttribute
  2
NAME
 70
0
  0
ATTRIB
  5
DE
330
17
100
AcDbEntity
  8
0
 62
4
100
AcDbText
 10
-59.158011899892884
 20
-39.961410815932986
 30
0.0
 40
0.416053045761442
  1
= -62.000
 50
14.999999999999998
 11
-59.158011899892884
 21
-39.961410815932986
 31
0.0
100
AcDbAttribute
  2
XPOS
 70
0
  0
ATTRIB
  5
DF
330
17
100
AcDbEntity
  8
0
 62
4
100
AcDbText
 10
-58.94264699586094
 20
-40.7651635799474
 30
0.0
 40
0.416053045761442
  1
= -39.000
 50
14.999999999999998
 11
-58.94264699586094
 21
-40.7651635799474
 31
0.0
100
AcDbAttribute
  2
YPOS
 70
0
  0
SEQEND
  5
DC
330
DB
100
AcDbEntity
  8
0
  0
INSERT
  5
E0
330
17
100
AcDbEntity
  8
0
100
AcDbBlockReference
 66
1
  2
FLAG
 10
-22.0
 20
6.0
 30
0.0
 41
1.4544173680457508
 42
1.4544173680457508
 43
1.4544173680457508
 50
15.0
  0
ATTRIB
  5
E2
330
17
100
AcDbEntity
  8
0
 62
3
100
AcDbText
 10
-19.704495595812794
 20
5.862216722567802
 30
0.0
 40
0.7272086840228753
  1
P(32)
 50
15.000000000000002
 11
-19.704495595812794
 21
5.862216722567802
 31
0.0
100
AcDbAttribute
  2
NAME
 70
0
  0
ATTRIB
  5
E3
330
17
100
AcDbEntity
  8
0
 62
4
100
AcDbText
 10
-19.51628013862373
 20
5.15978707356842
 30
0.0
 40
0.36360434201143765
  1
= -22.000
 50
15.000000000000002
 11
-19.51628013862373
 21
5.15978707356842
 31
0.0
100
AcDbAttribute
  2
XPOS
 70
0
  0
ATTRIB
  5
E4
330
17
100
AcDbEntity
  8
0
 62
4
100
AcDbText
 10
-19.328064681434668
 20
4.457357424569039
 30
0.0
 40
0.36360434201143765
  1
= 6.000
 50
15.000000000000002
 11
-19.328064681434668
 21
4.457357424569039
 31
0.0
100
AcDbAttribute
  2
YPOS
 70
0
  0
SEQEND
  5
E1
330
E0
100
AcDbEntity
  8
0
  0
INSERT
  5
E5
330
17
100
AcDbEntity
  8
0
100
AcDbBlockReference
 66
1
  2
FLAG
 10
-43.0
 20
-94.0
 30
0.0
 41
2.2535947784091146
 42
2.2535947784091146
 43
2.2535947784091146
 50
15.0
  0
ATTRIB
  5
E7
330
17
100
AcDbEntity
  8
0
 62
3
100
AcDbText
 10
-39.443155278018736
 20
-94.21349282633396
 30
0.0
 40
1.1267973892045573
  1
P(33)
 50
14.999999999999998
 11
-39.443155278018736
 21
-94.21349282633396
 31
0.0
100
AcDbAttribute
  2
NAME
 70
0
  0
ATTRIB
  5
E8
330
17
100
AcDbEntity
  8
0
 62
4
100
AcDbText
 10
-39.15151865372079
 20
-95.30189552556175
 30
0.0
 40
0.5633986946022786
  1
= -43.000
 50
14.999999999999998
 11
-39.15151865372079
 21
-95.30189552556175
 31
0.0
100
AcDbAttribute
  2
XPOS
 70
0
  0
ATTRIB
  5
E9
330
17
100
AcDbEntity
  8
0
 62
4
100
AcDbText
 10
-38.859882029422856
 20
-96.39029822478952
 30
0.0
 40
0.5633986946022786
  1
= -94.000
 50
14.999999999999998
 11
-38.859882029422856
 21
-96.39029822478952
 31
0.0
100
AcDbAttribute
  2
YPOS
 70
0
  0
SEQEND
  5
E6
330
E5
100
AcDbEntity
  8
0
  0
INSERT
  5
EA
330
17
100
AcDbEntity
  8
0
100
AcDbBlockReference
 66
1
  2
FLAG
 10
35.0
 20
-59.0
 30
0.0
 41
1.1617391362790606
 42
1.1617391362790606
 43
1.1617391362790606
 50
15.0
  0
ATTRIB
  5
EC
330
17
100
AcDbEntity
  8
0
 62
3
100
AcDbText
 10
36.83357085966904
 20
-59.11005659670639
 30
0.0
 40
0.5808695681395303
  1
P(34)
 50
14.999999999999998
 11
36.83357085966904
 21
-59.11005659670639
 31
0.0
100
AcDbAttribute
  2
NAME
 70
0
  0
ATTRIB
  5
ED
330
17
100
AcDbEntity
  8
0
 62
4
100
AcDbText
 10
36.98391096662402
 20
-59.67113351427774
 30
0.0
 40
0.29043478406976514
  1
= 35.000
 50
14.999999999999998
 11
36.98391096662402
 21
-59.67113351427774
 31
0.0
100
AcDbAttribute
  2
XPOS
 70
0
  0
ATTRIB
  5
EE
330
17
100
AcDbEntity
  8
0
 62
4
100
AcDbText
 10
37.13425107357901
 20
-60.23221043184909
 30
0.0
 40
0.29043478406976514
  1
= -59.000
 50
14.999999999999998
 11
37.13425107357901
 21
-60.23221043184909
 31
0.0
100
AcDbAttribute
  2
YPOS
 70
0
  0
SEQEND
  5
EB
330
EA
100
AcDbEntity
  8
0
  0
INSERT
  5
EF
330
17
100
AcDbEntity
  8
0
100
AcDbBlockReference
 66
1
  2
FLAG
 10
-33.0
 20
-93.0
 30
0.0
 41
1.46099433978162
 42
1.46099433978162
 43
1.46099433978162
 50
15.0
  0
ATTRIB
  5
F1
330
17
100
AcDbEntity
  8
0
 62
3
100
AcDbText
 10
-30.694115172752948
 20
-93.13840634254491
 30
0.0
 40
0.73049716989081
  1
P(35)
 50
14.999999999999998
 11
-30.694115172752948
 21
-93.13840634254491
 31
0.0
100
AcDbAttribute
  2
NAME
 70
0
  0
ATTRIB
  5
F2
330
17
100
AcDbEntity
  8
0
 62
4
100
AcDbText
 10
-30.505048592791713
 20
-93.84401242497351
 30
0.0
 40
0.365248584945405
  1
= -33.000
 50
14.999999999999998
 11
-30.505048592791713
 21
-93.84401242497351
 31
0.0
100
AcDbAttribute
  2
XPOS
 70
0
  0
ATTRIB
  5
F3
330
17
100
AcDbEntity
  8
0
 62
4
100
AcDbText
 10
-30.31598201283048
 20
-94.54961850740212
 30
0.0
 40
0.365248584945405
  1
= -93.000
 50
14.999999999999998
 11
-30.31598201283048
 21
-94.54961850740212
 31
0.0
100
AcDbAttribute
  2
YPOS
 70
0
  0
SEQEND
  5
F0
330
EF
100
AcDbEntity
  8
0
  0
INSERT
  5
F4
330
17
100
AcDbEntity
  8
0
100
AcDbBlockReference
 66
1
  2
FLAG
 10
98.0
 20
-31.0
 30
0.0
 41
1.3314346149534722
 42
1.3314346149534722
 43
1.3314346149534722
 50
15.0
  0
ATTRIB
  5
F6
330
17
100
AcDbEntity
  8
0
 62
3
100
AcDbText
 10
100.10140093872755
 20
-31.12613258681135
 30
0.0
 40
0.6657173074767362
  1
P(36)
 50
14.999999999999998
 11
100.10140093872755
 21
-31.12613258681135
 31
0.0
100
AcDbAttribute
  2
NAME
 70
0
  0
ATTRIB
  5
F7
330
17
100
AcDbEntity
  8
0
 62
4
100
AcDbText
 10
100.2737012565569
 20
-31.76916612711075
 30
0.0
 40
0.3328586537383681
  1
= 98.000
 50
14.999999999999998
 11
100.2737012565569
 21
-31.76916612711075
 31
0.0
100
AcDbAttribute
  2
XPOS
 70
0
  0
ATTRIB
  5
F8
330
17
100
AcDbEntity
  8
0
 62
4
100
AcDbText
 10
100.44600157438624
 20
-32.41219966741015
 30
0.0
 40
0.3328586537383681
  1
= -31.000
 50
14.999999999999998
 11
100.44600157438624
 21
-32.41219966741015
 31
0.0
100
AcDbAttribute
  2
YPOS
 70
0
  0
SEQEND
  5
F5
330
F4
100
AcDbEntity
  8
0
  0
INSERT
  5
F9
330
17
100
AcDbEntity
  8
0
100
AcDbBlockReference
 66
1
  2
FLAG
 10
-55.0
 20
-3.0
 30
0.0
 41
2.407714414946095
 42
2.407714414946095
 43
2.407714414946095
 50
15.0
  0
ATTRIB
  5
FB
330
17
100
AcDbEntity
  8
0
 62
3
100
AcDbText
 10
-51.199908523534674
 20
-3.2280932492285697
 30
0.0
 40
1.2038572074730476
  1
P(37)
 50
14.999999999999998
 11
-51.199908523534674
 21
-3.2280932492285697
 31
0.0
100
AcDbAttribute
  2
NAME
 70
0
  0
ATTRIB
  5
FC
330
17
100
AcDbEntity
  8
0
 62
4
100
AcDbText
 10
-50.888327350656716
 20
-4.390930017091024
 30
0.0
 40
0.6019286037365238
  1
= -55.000
 50
14.999999999999998
 11
-50.888327350656716
 21
-4.390930017091024
 31
0.0
100
AcDbAttribute
  2
XPOS
 70
0
  0
ATTRIB
  5
FD
330
17
100
AcDbEntity
  8
0
 62
4
100
AcDbText
 10
-50.57674617777875
 20
-5.553766784953477
 30
0.0
 40
0.6019286037365238
  1
= -3.000
 50
14.999999999999998
 11
-50.57674617777875
 21
-5.553766784953477
 31
0.0
100
AcDbAttribute
  2
YPOS
 70
0
  0
SEQEND
  5
FA
330
F9
100
AcDbEntity
  8
0
  0
INSERT
  5
FE
330
17
100
AcDbEntity
  8
0
100
AcDbBlockReference
 66
1
  2
FLAG
 10
-49.0
 20
-70.0
 30
0.0
 41
1.4754412364065341
 42
1.4754412364065341
 43
1.4754412364065341
 50
15.0
  0
ATTRIB
  5
100
330
17
100
AcDbEntity
  8
0
 62
3
100
AcDbText
 10
-46.67131366091877
 20
-70.13977495984103
 30
0.0
 40
0.7377206182032671
  1
P(38)
 50
14.999999999999998
 11
-46.67131366091877
 21
-70.13977495984103
 31
0.0
100
AcDbAttribute
  2
NAME
 70
0
  0
ATTRIB
  5
101
330
17
100
AcDbEntity
  8
0
 62
4
100
AcDbText
 10
-46.48037751496296
 20
-70.85235835754952
 30
0.0
 40
0.36886030910163353
  1
= -49.000
 50
14.999999999999998
 11
-46.48037751496296
 21
-70.85235835754952
 31
0.0
100
AcDbAttribute
  2
XPOS
 70
0
  0
ATTRIB
  5
102
330
17
100
AcDbEntity
  8
0
 62
4
100
AcDbText
 10
-46.28944136900715
 20
-71.56494175525799
 30
0.0
 40
0.36886030910163353
  1
= -70.000
 50
14.999999999999998
 11
-46.28944136900715
 21
-71.56494175525799
 31
0.0
100
AcDbAttribute
  2
YPOS
 70
0
  0
SEQEND
  5
FF
330
FE
100
AcDbEntity
  8
0
  0
INSERT
  5
103
330
17
100
AcDbEntity
  8
0
100
AcDbBlockReference
 66
1
  2
FLAG
 10
82.0
 20
-18.0
 30
0.0
 41
1.6774043598916064
 42
1.6774043598916064
 43
1.6774043598916064
 50
15.0
  0
ATTRIB
  5
105
330
17
100
AcDbEntity
  8
0
 62
3
100
AcDbText
 10
84.64744438586276
 20
-18.158907804157668
 30
0.0
 40
0.8387021799458032
  1
P(39)
 50
14.999999999999998
 11
84.64744438586276
 21
-18.158907804157668
 31
0.0
100
AcDbAttribute
  2
NAME
 70
0
  0
ATTRIB
  5
106
330
17
100
AcDbEntity
  8
0
 62
4
100
AcDbText
 10
84.86451648320173
 20
-18.96903190033226
 30
0.0
 40
0.4193510899729016
  1
= 82.000
 50
14.999999999999998
 11
84.86451648320173
 21
-18.96903190033226
 31
0.0
100
AcDbAttribute
  2
XPOS
 70
0
  0
ATTRIB
  5
107
330
17
100
AcDbEntity
  8
0
 62
4
100
AcDbText
 10
85.08158858054071
 20
-19.77915599650685
 30
0.0
 40
0.4193510899729016
  1
= -18.000
 50
14.999999999999998
 11
85.08158858054071
 21
-19.77915599650685
 31
0.0
100
AcDbAttribute
  2
YPOS
 70
0
  0
SEQEND
  5
104
330
103
100
AcDbEntity
  8
0
  0
INSERT
  5
108
330
17
100
AcDbEntity
  8
0
100
AcDbBlockReference
 66
1
  2
FLAG
 10
-23.0
 20
48.0
 30
0.0
 41
1.852442319842063
 42
1.852442319842063
 43
1.852442319842063
 50
15.0
  0
ATTRIB
  5
10A
330
17
100
AcDbEntity
  8
0
 62
3
100
AcDbText
 10
-20.076293506166063
 20
47.82451008927039
 30
0.0
 40
0.9262211599210315
  1
P(40)
 50
14.999999999999998
 11
-20.076293506166063
 21
47.82451008927039
 31
0.0
100
AcDbAttribute
  2
NAME
 70
0
  0
ATTRIB
  5
10B
330
17
100
AcDbEntity
  8
0
 62
4
100
AcDbText
 10
-19.836569830001554
 20
46.92984915004725
 30
0.0
 40
0.46311057996051574
  1
= -23.000
 50
14.999999999999998
 11
-19.836569830001554
 21
46.92984915004725
 31
0.0
100
AcDbAttribute
  2
XPOS
 70
0
  0
ATTRIB
  5
10C
330
17
100
AcDbEntity
  8
0
 62
4
100
AcDbText
 10
-19.596846153837042
 20
46.03518821082411
 30
0.0
 40
0.46311057996051574
  1
= 48.000
 50
14.999999999999998
 11
-19.596846153837042
 21
46.03518821082411
 31
0.0
100
AcDbAttribute
  2
YPOS
 70
0
  0
SEQEND
  5
109
330
108
100
AcDbEntity
  8
0
  0
INSERT
  5
10D
330
17
100
AcDbEntity
  8
0
100
AcDbBlockReference
 66
1
  2
FLAG
 10
-66.0
 20
30.0
 30
0.0
 41
2.2553333729512914
 42
2.2553333729512914
 43
2.2553333729512914
 50
15.0
  0
ATTRIB
  5
10F
330
17
100
AcDbEntity
  8
0
 62
3
100
AcDbText
 10
-62.44041125727452
 20
29.786342469050005
 30
0.0
 40
1.1276666864756455
  1
P(41)
 50
14.999999999999998
 11
-62.44041125727452
 21
29.786342469050005
 31
0.0
100
AcDbAttribute
  2
NAME
 70
0
  0
ATTRIB
  5
110
330
17
100
AcDbEntity
  8
0
 62
4
100
AcDbText
 10
-62.148549642286966
 20
28.697100093137365
 30
0.0
 40
0.5638333432378227
  1
= -66.000
 50
14.999999999999998
 11
-62.148549642286966
 21
28.697100093137365
 31
0.0
100
AcDbAttribute
  2
XPOS
 70
0
  0
ATTRIB
  5
111
330
17
100
AcDbEntity
  8
0
 62
4
100
AcDbText
 10
-61.85668802729942
 20
27.607857717224718
 30
0.0
 40
0.5638333432378227
  1
= 30.000
 50
14.999999999999998
 11
-61.85668802729942
 21
27.607857717224718
 31
0.0
100
AcDbAttribute
  2
YPOS
 70
0
  0
SEQEND
  5
10E
330
10D
100
AcDbEntity
  8
0
  0
INSERT
  5
112
330
17
100
AcDbEntity
  8
0
100
AcDbBlockReference
 66
1
  2
FLAG
 10
-24.0
 20
67.0
 30
0.0
 41
0.8373830250103456
 42
0.8373830250103456
 43
0.8373830250103456
 50
15.0
  0
ATTRIB
  5
114
330
17
100
AcDbEntity
  8
0
 62
3
100
AcDbText
 10
-22.678359827010546
 20
66.92067106720057
 30
0.0
 40
0.4186915125051728
  1
P(42)
 50
14.999999999999998
 11
-22.678359827010546
 21
66.92067106720057
 31
0.0
100
AcDbAttribute
  2
NAME
 70
0
  0
ATTRIB
  5
115
330
17
100
AcDbEntity
  8
0
 62
4
100
AcDbText
 10
-22.569994489551426
 20
66.5162461220238
 30
0.0
 40
0.2093457562525864
  1
= -24.000
 50
14.999999999999998
 11
-22.569994489551426
 21
66.5162461220238
 31
0.0
100
AcDbAttribute
  2
XPOS
 70
0
  0
ATTRIB
  5
116
330
17
100
AcDbEntity
  8
0
 62
4
100
AcDbText
 10
-22.461629152092307
 20
66.11182117684702
 30
0.0
 40
0.2093457562525864
  1
= 67.000
 50
14.999999999999998
 11
-22.461629152092307
 21
66.11182117684702
 31
0.0
100
AcDbAttribute
  2
YPOS
 70
0
  0
SEQEND
  5
113
330
112
100
AcDbEntity
  8
0
  0
INSERT
  5
117
330
17
100
AcDbEntity
  8
0
100
AcDbBlockReference
 66
1
  2
FLAG
 10
-70.0
 20
56.0
 30
0.0
 41
0.8067905594373324
 42
0.8067905594373324
 43
0.8067905594373324
 50
15.0
  0
ATTRIB
  5
119
330
17
100
AcDbEntity
  8
0
 62
3
100
AcDbText
 10
-68.72664386225426
 20
55.923569224403586
 30
0.0
 40
0.40339527971866623
  1
P(43)
 50
14.999999999999998
 11
-68.72664386225426
 21
55.923569224403586
 31
0.0
100
AcDbAttribute
  2
NAME
 70
0
  0
ATTRIB
  5
11A
330
17
100
AcDbEntity
  8
0
 62
4
100
AcDbText
 10
-68.6222374811586
 20
55.53391930552022
 30
0.0
 40
0.20169763985933312
  1
= -70.000
 50
14.999999999999998
 11
-68.6222374811586
 21
55.53391930552022
 31
0.0
100
AcDbAttribute
  2
XPOS
 70
0
  0
ATTRIB
  5
11B
330
17
100
AcDbEntity
  8
0
 62
4
100
AcDbText
 10
-68.51783110006296
 20
55.144269386636864
 30
0.0
 40
0.20169763985933312
  1
= 56.000
 50
14.999999999999998
 11
-68.51783110006296
 21
55.144269386636864
 31
0.0
100
AcDbAttribute
  2
YPOS
 70
0
  0
SEQEND
  5
118
330
117
100
AcDbEntity
  8
0
  0
INSERT
  5
11C
330
17
100
AcDbEntity
  8
0
100
AcDbBlockReference
 66
1
  2
FLAG
 10
69.0
 20
-79.0
 30
0.0
 41
1.2171462615650994
 42
1.2171462615650994
 43
1.2171462615650994
 50
15.0
  0
ATTRIB
  5
11E
330
17
100
AcDbEntity
  8
0
 62
3
100
AcDbText
 10
70.92101982920957
 20
-79.11530555445589
 30
0.0
 40
0.6085731307825497
  1
P(44)
 50
14.999999999999998
 11
70.92101982920957
 21
-79.11530555445589
 31
0.0
100
AcDbAttribute
  2
NAME
 70
0
  0
ATTRIB
  5
11F
330
17
100
AcDbEntity
  8
0
 62
4
100
AcDbText
 10
71.07853014579376
 20
-79.70314205866434
 30
0.0
 40
0.30428656539127485
  1
= 69.000
 50
14.999999999999998
 11
71.07853014579376
 21
-79.70314205866434
 31
0.0
100
AcDbAttribute
  2
XPOS
 70
0
  0
ATTRIB
  5
120
330
17
100
AcDbEntity
  8
0
 62
4
100
AcDbText
 10
71.23604046237796
 20
-80.29097856287281
 30
0.0
 40
0.30428656539127485
  1
= -79.000
 50
14.999999999999998
 11
71.23604046237796
 21
-80.29097856287281
 31
0.0
100
AcDbAttribute
  2
YPOS
 70
0
  0
SEQEND
  5
11D
330
11C
100
AcDbEntity
  8
0
  0
INSERT
  5
121
330
17
100
AcDbEntity
  8
0
100
AcDbBlockReference
 66
1
  2
FLAG
 10
39.0
 20
31.0
 30
0.0
 41
1.340264416322959
 42
1.340264416322959
 43
1.340264416322959
 50
15.0
  0
ATTRIB
  5
123
330
17
100
AcDbEntity
  8
0
 62
3
100
AcDbText
 10
41.11533699888268
 20
30.873030927735098
 30
0.0
 40
0.6701322081614794
  1
P(45)
 50
14.999999999999998
 11
41.11533699888268
 21
30.873030927735098
 31
0.0
100
AcDbAttribute
  2
NAME
 70
0
  0
ATTRIB
  5
124
330
17
100
AcDbEntity
  8
0
 62
4
100
AcDbText
 10
41.28877997709148
 20
30.225732920843804
 30
0.0
 40
0.3350661040807397
  1
= 39.000
 50
14.999999999999998
 11
41.28877997709148
 21
30.225732920843804
 31
0.0
100
AcDbAttribute
  2
XPOS
 70
0
  0
ATTRIB
  5
125
330
17
100
AcDbEntity
  8
0
 62
4
100
AcDbText
 10
41.46222295530028
 20
29.57843491395251
 30
0.0
 40
0.3350661040807397
  1
= 31.000
 50
14.999999999999998
 11
41.46222295530028
 21
29.57843491395251
 31
0.0
100
AcDbAttribute
  2
YPOS
 70
0
  0
SEQEND
  5
122
330
121
100
AcDbEntity
  8
0
  0
INSERT
  5
126
330
17
100
AcDbEntity
  8
0
100
AcDbBlockReference
 66
1
  2
FLAG
 10
43.0
 20
-36.0
 30
0.0
 41
0.5907232490124323
 42
0.5907232490124323
 43
0.5907232490124323
 50
15.0
  0
ATTRIB
  5
128
330
17
100
AcDbEntity
  8
0
 62
3
100
AcDbText
 10
43.93233747723038
 20
-36.055961780361365
 30
0.0
 40
0.29536162450621617
  1
P(46)
 50
14.999999999999998
 11
43.93233747723038
 21
-36.055961780361365
 31
0.0
100
AcDbAttribute
  2
NAME
 70
0
  0
ATTRIB
  5
129
330
17
100
AcDbEntity
  8
0
 62
4
100
AcDbText
 10
44.008782690845
 20
-36.341259201566615
 30
0.0
 40
0.14768081225310808
  1
= 43.000
 50
14.999999999999998
 11
44.008782690845
 21
-36.341259201566615
 31
0.0
100
AcDbAttribute
  2
XPOS
 70
0
  0
ATTRIB
  5
12A
330
17
100
AcDbEntity
  8
0
 62
4
100
AcDbText
 10
44.08522790445963
 20
-36.62655662277186
 30
0.0
 40
0.14768081225310808
  1
= -36.000
 50
14.999999999999998
 11
44.08522790445963
 21
-36.62655662277186
 31
0.0
100
AcDbAttribute
  2
YPOS
 70
0
  0
SEQEND
  5
127
330
126
100
AcDbEntity
  8
0
  0
INSERT
  5
12B
330
17
100
AcDbEntity
  8
0
100
AcDbBlockReference
 66
1
  2
FLAG
 10
-59.0
 20
16.0
 30
0.0
 41
1.7807426231464059
 42
1.7807426231464059
 43
1.7807426231464059
 50
15.0
  0
ATTRIB
  5
12D
330
17
100
AcDbEntity
  8
0
 62
3
100
AcDbText
 10
-56.189457012845665
 20
15.831302513108739
 30
0.0
 40
0.8903713115732029
  1
P(47)
 50
14.999999999999998
 11
-56.189457012845665
 21
15.831302513108739
 31
0.0
100
AcDbAttribute
  2
NAME
 70
0
  0
ATTRIB
  5
12E
330
17
100
AcDbEntity
  8
0
 62
4
100
AcDbText
 10
-55.95901196019761
 20
14.97126986827331
 30
0.0
 40
0.44518565578660146
  1
= -59.000
 50
14.999999999999998
 11
-55.95901196019761
 21
14.97126986827331
 31
0.0
100
AcDbAttribute
  2
XPOS
 70
0
  0
ATTRIB
  5
12F
330
17
100
AcDbEntity
  8
0
 62
4
100
AcDbText
 10
-55.72856690754955
 20
14.111237223437884
 30
0.0
 40
0.44518565578660146
  1
= 16.000
 50
14.999999999999998
 11
-55.72856690754955
 21
14.111237223437884
 31
0.0
100
AcDbAttribute
  2
YPOS
 70
0
  0
SEQEND
  5
12C
330
12B
100
AcDbEntity
  8
0
  0
INSERT
  5
130
330
17
100
AcDbEntity
  8
0
100
AcDbBlockReference
 66
1
  2
FLAG
 10
94.0
 20
-6.0
 30
0.0
 41
1.1777706084945367
 42
1.1777706084945367
 43
1.1777706084945367
 50
15.0
  0
ATTRIB
  5
132
330
17
100
AcDbEntity
  8
0
 62
3
100
AcDbText
 10
95.85887330440379
 20
-6.111575327733976
 30
0.0
 40
0.5888853042472684
  1
P(48)
 50
14.999999999999998
 11
95.85887330440379
 21
-6.111575327733976
 31
0.0
100
AcDbAttribute
  2
NAME
 70
0
  0
ATTRIB
  5
133
330
17
100
AcDbEntity
  8
0
 62
4
100
AcDbText
 10
96.01128803652396
 20
-6.680394851828508
 30
0.0
 40
0.2944426521236342
  1
= 94.000
 50
14.999999999999998
 11
96.01128803652396
 21
-6.680394851828508
 31
0.0
100
AcDbAttribute
  2
XPOS
 70
0
  0
ATTRIB
  5
134
330
17
100
AcDbEntity
  8
0
 62
4
100
AcDbText
 10
96.16370276864416
 20
-7.2492143759230405
 30
0.0
 40
0.2944426521236342
  1
= -6.000
 50
14.999999999999998
 11
96.16370276864416
 21
-7.2492143759230405
 31
0.0
100
AcDbAttribute
  2
YPOS
 70
0
  0
SEQEND
  5
131
330
130
100
AcDbEntity
  8
0
  0
INSERT
  5
135
330
17
100
AcDbEntity
  8
0
100
AcDbBlockReference
 66
1
  2
FLAG
 10
-45.0
 20
69.0
 30
0.0
 41
2.4130185982225
 42
2.4130185982225
 43
2.4130185982225
 50
15.0
  0
ATTRIB
  5
137
330
17
100
AcDbEntity
  8
0
 62
3
100
AcDbText
 10
-41.19153694028828
 20
68.77140426244037
 30
0.0
 40
1.20650929911125
  1
P(49)
 50
14.999999999999998
 11
-41.19153694028828
 21
68.77140426244037
 31
0.0
100
AcDbAttribute
  2
NAME
 70
0
  0
ATTRIB
  5
138
330
17
100
AcDbEntity
  8
0
 62
4
100
AcDbText
 10
-40.879269355584995
 20
67.60600577077089
 30
0.0
 40
0.603254649555625
  1
= -45.000
 50
14.999999999999998
 11
-40.879269355584995
 21
67.60600577077089
 31
0.0
100
AcDbAttribute
  2
XPOS
 70
0
  0
ATTRIB
  5
139
330
17
100
AcDbEntity
  8
0
 62
4
100
AcDbText
 10
-40.56700177088171
 20
66.44060727910141
 30
0.0
 40
0.603254649555625
  1
= 69.000
 50
14.999999999999998
 11
-40.56700177088171
 21
66.44060727910141
 31
0.0
100
AcDbAttribute
  2
YPOS
 70
0
  0
SEQEND
  5
136
330
135
100
AcDbEntity
  8
0
  0
INSERT
  5
13A
330
17
100
AcDbEntity
  8
0
100
AcDbBlockReference
 66
1
  2
FLAG
 10
34.0
 20
-96.0
 30
0.0
 41
1.5939591408102403
 42
1.5939591408102403
 43
1.5939591408102403
 50
15.0
  0
ATTRIB
  5
13C
330
17
100
AcDbEntity
  8
0
 62
3
100
AcDbText
 10
36.515742941615684
 20
-96.15100267594366
 30
0.0
 40
0.7969795704051201
  1
P(50)
 50
14.999999999999998
 11
36.515742941615684
 21
-96.15100267594366
 31
0.0
100
AcDbAttribute
  2
NAME
 70
0
  0
ATTRIB
  5
13D
330
17
100
AcDbEntity
  8
0
 62
4
100
AcDbText
 10
36.72201643299416
 20
-96.92082582602274
 30
0.0
 40
0.39848978520256007
  1
= 34.000
 50
14.999999999999998
 11
36.72201643299416
 21
-96.92082582602274
 31
0.0
100
AcDbAttribute
  2
XPOS
 70
0
  0
ATTRIB
  5
13E
330
17
100
AcDbEntity
  8
0
 62
4
100
AcDbText
 10
36.92828992437263
 20
-97.69064897610181
 30
0.0
 40
0.39848978520256007
  1
= -96.000
 50
14.999999999999998
 11
36.92828992437263
 21
-97.69064897610181
 31
0.0
100
AcDbAttribute
  2
YPOS
 70
0
  0
SEQEND
  5
13B
330
13A
100
AcDbEntity
  8
0
  0
ENDSEC
  0
SECTION
  2
OBJECTS
  0
DICTIONARY
  5
A
330
0
100
AcDbDictionary
280
0
281
1
  3
ACAD_COLOR
350
B
  3
ACAD_GROUP
350
C
  3
ACAD_LAYOUT
350
D
  3
ACAD_MATERIAL
350
E
  3
ACAD_MLEADERSTYLE
350
F
  3
ACAD_MLINESTYLE
350
10
  3
ACAD_PLOTSETTINGS
350
11
  3
ACAD_PLOTSTYLENAME
350
12
  3
ACAD_SCALELIST
350
14
  3
ACAD_TABLESTYLE
350
15
  3
ACAD_VISUALSTYLE
350
16
  3
EZDXF_META
350
2D
  0
DICTIONARY
  5
B
330
A
100
AcDbDictionary
280
0
281
1
  0
DICTIONARY
  5
C
330
A
100
AcDbDictionary
280
0
281
1
  0
DICTIONARY
  5
D
330
A
100
AcDbDictionary
280
0
281
1
  3
Model
350
1A
  3
Layout1
350
1E
  0
DICTIONARY
  5
E
330
A
100
AcDbDictionary
280
0
281
1
  3
ByBlock
350
1F
  3
ByLayer
350
20
  3
Global
350
21
  0
DICTIONARY
  5
F
330
A
100
AcDbDictionary
280
0
281
1
  3
Standard
350
2C
  0
DICTIONARY
  5
10
330
A
100
AcDbDictionary
280
0
281
1
  3
Standard
350
22
  0
DICTIONARY
  5
11
330
A
100
AcDbDictionary
280
0
281
1
  0
ACDBDICTIONARYWDFLT
  5
12
330
A
100
AcDbDictionary
280
0
281
1
  3
Normal
350
13
100
AcDbDictionaryWithDefault
340
13
  0
ACDBPLACEHOLDER
  5
13
330
12
  0
DICTIONARY
  5
14
330
A
100
AcDbDictionary
280
0
281
1
  0
DICTIONARY
  5
15
330
A
100
AcDbDictionary
280
0
281
1
  0
DICTIONARY
  5
16
330
A
100
AcDbDictionary
280
0
281
1
  0
LAYOUT
  5
1A
330
D
100
AcDbPlotSettings
  1

  4
A3
  6

 40
7.5
 41
20.0
 42
7.5
 43
20.0
 44
420.0
 45
297.0
 46
0.0
 47
0.0
 48
0.0
 49
0.0
140
0.0
141
0.0
142
1.0
143
1.0
 70
1024
 72
1
 73
0
 74
5
  7

 75
16
 76
0
 77
2
 78
300
147
1.0
148
0.0
149
0.0
100
AcDbLayout
  1
Model
 70
1
 71
0
 10
0.0
 20
0.0
 11
420.0
 21
297.0
 12
0.0
 22
0.0
 32
0.0
 14
1e+20
 24
1e+20
 34
1e+20
 15
-1e+20
 25
-1e+20
 35
-1e+20
146
0.0
 13
0.0
 23
0.0
 33
0.0
 16
1.0
 26
0.0
 36
0.0
 17
0.0
 27
1.0
 37
0.0
 76
1
330
17
  0
LAYOUT
  5
1E
330
D
100
AcDbPlotSettings
  1

  4
A3
  6

 40
7.5
 41
20.0
 42
7.5
 43
20.0
 44
420.0
 45
297.0
 46
0.0
 47
0.0
 48
0.0
 49
0.0
140
0.0
141
0.0
142
1.0
143
1.0
 70
0
 72
1
 73
0
 74
5
  7

 75
16
 76
0
 77
2
 78
300
147
1.0
148
0.0
149
0.0
100
AcDbLayout
  1
Layout1
 70
1
 71
1
 10
0.0
 20
0.0
 11
420.0
 21
297.0
 12
0.0
 22
0.0
 32
0.0
 14
1e+20
 24
1e+20
 34
1e+20
 15
-1e+20
 25
-1e+20
 35
-1e+20
146
0.0
 13
0.0
 23
0.0
 33
0.0
 16
1.0
 26
0.0
 36
0.0
 17
0.0
 27
1.0
 37
0.0
 76
1
330
1B
  0
MATERIAL
  5
1F
102
{ACAD_REACTORS
330
E
102
}
330
E
100
AcDbMaterial
  1
ByBlock
  2

 70
0
 40
1.0
 71
1
 41
1.0
 91
-1023410177
 42
1.0
 72
1
  3

 73
1
 74
1
 75
1
 44
0.5
 73
0
 45
1.0
 46
1.0
 77
1
  4

 78
1
 79
1
170
1
 48
1.0
171
1
  6

172
1
173
1
174
1
140
1.0
141
1.0
175
1
  7

176
1
177
1
178
1
143
1.0
179
1
  8

270
1
271
1
272
1
145
1.0
146
1.0
273
1
  9

274
1
275
1
276
1
 42
1.0
 72
1
  3

 73
1
 74
1
 75
1
 94
63
  0
MATERIAL
  5
20
102
{ACAD_REACTORS
330
E
102
}
330
E
100
AcDbMaterial
  1
ByLayer
  2

 70
0
 40
1.0
 71
1
 41
1.0
 91
-1023410177
 42
1.0
 72
1
  3

 73
1
 74
1
 75
1
 44
0.5
 73
0
 45
1.0
 46
1.0
 77
1
  4

 78
1
 79
1
170
1
 48
1.0
171
1
  6

172
1
173
1
174
1
140
1.0
141
1.0
175
1
  7

176
1
177
1
178
1
143
1.0
179
1
  8

270
1
271
1
272
1
145
1.0
146
1.0
273
1
  9

274
1
275
1
276
1
 42
1.0
 72
1
  3

 73
1
 74
1
 75
1
 94
63
  0
MATERIAL
  5
21
102
{ACAD_REACTORS
330
E
102
}
330
E
100
AcDbMaterial
  1
Global
  2

 70
0
 40
1.0
 71
1
 41
1.0
 91
-1023410177
 42
1.0
 72
1
  3

 73
1
 74
1
 75
1
 44
0.5
 73
0
 45
1.0
 46
1.0
 77
1
  4

 78
1
 79
1
170
1
 48
1.0
171
1
  6

172
1
173
1
174
1
140
1.0
141
1.0
175
1
  7

176
1
177
1
178
1
143
1.0
179
1
  8

270
1
271
1
272
1
145
1.0
146
1.0
273
1
  9

274
1
275
1
276
1
 42
1.0
 72
1
  3

 73
1
 74
1
 75
1
 94
63
  0
MLINESTYLE
  5
22
102
{ACAD_REACTORS
330
10
102
}
330
10
100
AcDbMlineStyle
  2
Standard
 70
0
  3

 62
256
 51
90.0
 52
90.0
 71
2
 49
0.5
 62
256
  6
BYLAYER
 49
-0.5
 62
256
  6
BYLAYER
  0
MLEADERSTYLE
  5
2C
102
{ACAD_REACTORS
330
F
102
}
330
F
100
AcDbMLeaderStyle
179
2
170
2
171
1
172
0
 90
2
 40
0.0
 41
0.0
173
1
 91
-1056964608
 92
-2
290
1
 42
2.0
291
1
 43
8.0
  3
Standard
 44
4.0
300

342
29
174
1
175
1
176
0
178
1
 93
-1056964608
 45
4.0
292
0
297
0
 46
4.0
 94
-1056964608
 47
1.0
 49
1.0
140
1.0
294
1
141
0.0
177
0
142
1.0
295
0
296
0
143
3.75
271
0
272
9
273
9
  0
DICTIONARY
  5
2D
330
A
100
AcDbDictionary
280
1
281
1
  3
CREATED_BY_EZDXF
350
2E
  3
WRITTEN_BY_EZDXF
350
141
  0
DICTIONARYVAR
  5
2E
330
2D
100
DictionaryVariables
280
0
  1
1.3.5 @ 2025-03-31T23:09:41.460674+00:00
  0
DICTIONARYVAR
  5
141
330
2D
100
DictionaryVariables
280
0
  1
1.3.5 @ 2025-03-31T23:09:41.470222+00:00
  0
ENDSEC
  0
EOF
