  0
SECTION
  2
HEADER
  9
$ACADVER
  1
AC1024
  9
$ACADMAINTVER
 70
6
  9
$DWGCODEPAGE
  3
ANSI_1252
  9
$LASTSAVEDBY
  1
ezdxf
  9
$INSBASE
 10
0.0
 20
0.0
 30
0.0
  9
$EXTMIN
 10
1e+20
 20
1e+20
 30
1e+20
  9
$EXTMAX
 10
-1e+20
 20
-1e+20
 30
-1e+20
  9
$LIMMIN
 10
0.0
 20
0.0
  9
$LIMMAX
 10
420.0
 20
297.0
  9
$ORTHOMODE
 70
0
  9
$REGENMODE
 70
1
  9
$FILLMODE
 70
1
  9
$QTEXTMODE
 70
0
  9
$MIRRTEXT
 70
1
  9
$LTSCALE
 40
1.0
  9
$ATTMODE
 70
1
  9
$TEXTSIZE
 40
2.5
  9
$TRACEWID
 40
1.0
  9
$TEXTSTYLE
  7
Standard
  9
$CLAYER
  8
0
  9
$CELTYPE
  6
ByLayer
  9
$CECOLOR
 62
256
  9
$CELTSCALE
 40
1.0
  9
$DISPSILH
 70
0
  9
$DIMSCALE
 40
1.0
  9
$DIMASZ
 40
2.5
  9
$DIMEXO
 40
0.625
  9
$DIMDLI
 40
3.75
  9
$DIMRND
 40
0.0
  9
$DIMDLE
 40
0.0
  9
$DIMEXE
 40
1.25
  9
$DIMTP
 40
0.0
  9
$DIMTM
 40
0.0
  9
$DIMTXT
 40
2.5
  9
$DIMCEN
 40
2.5
  9
$DIMTSZ
 40
0.0
  9
$DIMTOL
 70
0
  9
$DIMLIM
 70
0
  9
$DIMTIH
 70
0
  9
$DIMTOH
 70
0
  9
$DIMSE1
 70
0
  9
$DIMSE2
 70
0
  9
$DIMTAD
 70
1
  9
$DIMZIN
 70
8
  9
$DIMBLK
  1

  9
$DIMASO
 70
1
  9
$DIMSHO
 70
1
  9
$DIMPOST
  1

  9
$DIMAPOST
  1

  9
$DIMALT
 70
0
  9
$DIMALTD
 70
3
  9
$DIMALTF
 40
0.03937007874
  9
$DIMLFAC
 40
1.0
  9
$DIMTOFL
 70
1
  9
$DIMTVP
 40
0.0
  9
$DIMTIX
 70
0
  9
$DIMSOXD
 70
0
  9
$DIMSAH
 70
0
  9
$DIMBLK1
  1

  9
$DIMBLK2
  1

  9
$DIMSTYLE
  2
ISO-25
  9
$DIMCLRD
 70
0
  9
$DIMCLRE
 70
0
  9
$DIMCLRT
 70
0
  9
$DIMTFAC
 40
1.0
  9
$DIMGAP
 40
0.625
  9
$DIMJUST
 70
0
  9
$DIMSD1
 70
0
  9
$DIMSD2
 70
0
  9
$DIMTOLJ
 70
0
  9
$DIMTZIN
 70
8
  9
$DIMALTZ
 70
0
  9
$DIMALTTZ
 70
0
  9
$DIMUPT
 70
0
  9
$DIMDEC
 70
2
  9
$DIMTDEC
 70
2
  9
$DIMALTU
 70
2
  9
$DIMALTTD
 70
3
  9
$DIMTXSTY
  7
Standard
  9
$DIMAUNIT
 70
0
  9
$DIMADEC
 70
0
  9
$DIMALTRND
 40
0.0
  9
$DIMAZIN
 70
0
  9
$DIMDSEP
 70
44
  9
$DIMATFIT
 70
3
  9
$DIMFRAC
 70
0
  9
$DIMLDRBLK
  1

  9
$DIMLUNIT
 70
2
  9
$DIMLWD
 70
-2
  9
$DIMLWE
 70
-2
  9
$DIMTMOVE
 70
0
  9
$DIMFXL
 40
1.0
  9
$DIMFXLON
 70
0
  9
$DIMJOGANG
 40
0.785398163397
  9
$DIMTFILL
 70
0
  9
$DIMTFILLCLR
 70
0
  9
$DIMARCSYM
 70
0
  9
$DIMLTYPE
  6

  9
$DIMLTEX1
  6

  9
$DIMLTEX2
  6

  9
$DIMTXTDIRECTION
 70
0
  9
$LUNITS
 70
2
  9
$LUPREC
 70
4
  9
$SKETCHINC
 40
1.0
  9
$FILLETRAD
 40
10.0
  9
$AUNITS
 70
0
  9
$AUPREC
 70
2
  9
$MENU
  1
.
  9
$ELEVATION
 40
0.0
  9
$PELEVATION
 40
0.0
  9
$THICKNESS
 40
0.0
  9
$LIMCHECK
 70
0
  9
$CHAMFERA
 40
0.0
  9
$CHAMFERB
 40
0.0
  9
$CHAMFERC
 40
0.0
  9
$CHAMFERD
 40
0.0
  9
$SKPOLY
 70
0
  9
$TDCREATE
 40
2460785.7506944444
  9
$TDUCREATE
 40
2458532.153996898
  9
$TDUPDATE
 40
2460785.7506944444
  9
$TDUUPDATE
 40
2458532.1544311
  9
$TDINDWG
 40
0.0
  9
$TDUSRTIMER
 40
0.0
  9
$USRTIMER
 70
1
  9
$ANGBASE
 50
0.0
  9
$ANGDIR
 70
0
  9
$PDMODE
 70
0
  9
$PDSIZE
 40
0.0
  9
$PLINEWID
 40
0.0
  9
$SPLFRAME
 70
0
  9
$SPLINETYPE
 70
6
  9
$SPLINESEGS
 70
8
  9
$HANDSEED
  5
142
  9
$SURFTAB1
 70
6
  9
$SURFTAB2
 70
6
  9
$SURFTYPE
 70
6
  9
$SURFU
 70
6
  9
$SURFV
 70
6
  9
$UCSBASE
  2

  9
$UCSNAME
  2

  9
$UCSORG
 10
0.0
 20
0.0
 30
0.0
  9
$UCSXDIR
 10
1.0
 20
0.0
 30
0.0
  9
$UCSYDIR
 10
0.0
 20
1.0
 30
0.0
  9
$UCSORTHOREF
  2

  9
$UCSORTHOVIEW
 70
0
  9
$UCSORGTOP
 10
0.0
 20
0.0
 30
0.0
  9
$UCSORGBOTTOM
 10
0.0
 20
0.0
 30
0.0
  9
$UCSORGLEFT
 10
0.0
 20
0.0
 30
0.0
  9
$UCSORGRIGHT
 10
0.0
 20
0.0
 30
0.0
  9
$UCSORGFRONT
 10
0.0
 20
0.0
 30
0.0
  9
$UCSORGBACK
 10
0.0
 20
0.0
 30
0.0
  9
$PUCSBASE
  2

  9
$PUCSNAME
  2

  9
$PUCSORG
 10
0.0
 20
0.0
 30
0.0
  9
$PUCSXDIR
 10
1.0
 20
0.0
 30
0.0
  9
$PUCSYDIR
 10
0.0
 20
1.0
 30
0.0
  9
$PUCSORTHOREF
  2

  9
$PUCSORTHOVIEW
 70
0
  9
$PUCSORGTOP
 10
0.0
 20
0.0
 30
0.0
  9
$PUCSORGBOTTOM
 10
0.0
 20
0.0
 30
0.0
  9
$PUCSORGLEFT
 10
0.0
 20
0.0
 30
0.0
  9
$PUCSORGRIGHT
 10
0.0
 20
0.0
 30
0.0
  9
$PUCSORGFRONT
 10
0.0
 20
0.0
 30
0.0
  9
$PUCSORGBACK
 10
0.0
 20
0.0
 30
0.0
  9
$USERI1
 70
0
  9
$USERI2
 70
0
  9
$USERI3
 70
0
  9
$USERI4
 70
0
  9
$USERI5
 70
0
  9
$USERR1
 40
0.0
  9
$USERR2
 40
0.0
  9
$USERR3
 40
0.0
  9
$USERR4
 40
0.0
  9
$USERR5
 40
0.0
  9
$WORLDVIEW
 70
1
  9
$SHADEDGE
 70
3
  9
$SHADEDIF
 70
70
  9
$TILEMODE
 70
1
  9
$MAXACTVP
 70
64
  9
$PINSBASE
 10
0.0
 20
0.0
 30
0.0
  9
$PLIMCHECK
 70
0
  9
$PEXTMIN
 10
1e+20
 20
1e+20
 30
1e+20
  9
$PEXTMAX
 10
-1e+20
 20
-1e+20
 30
-1e+20
  9
$PLIMMIN
 10
0.0
 20
0.0
  9
$PLIMMAX
 10
420.0
 20
297.0
  9
$UNITMODE
 70
0
  9
$VISRETAIN
 70
1
  9
$PLINEGEN
 70
0
  9
$PSLTSCALE
 70
1
  9
$TREEDEPTH
 70
3020
  9
$CMLSTYLE
  2
Standard
  9
$CMLJUST
 70
0
  9
$CMLSCALE
 40
20.0
  9
$PROXYGRAPHICS
 70
1
  9
$MEASUREMENT
 70
1
  9
$CELWEIGHT
370
-1
  9
$ENDCAPS
280
0
  9
$JOINSTYLE
280
0
  9
$LWDISPLAY
290
0
  9
$INSUNITS
 70
6
  9
$HYPERLINKBASE
  1

  9
$STYLESHEET
  1

  9
$XEDIT
290
1
  9
$CEPSNTYPE
380
0
  9
$PSTYLEMODE
290
1
  9
$FINGERPRINTGUID
  2
{88A48002-FEDF-4F45-8CFE-D5200A26D217}
  9
$VERSIONGUID
  2
{FFADB51D-74E9-4A97-9B70-7605BAA67408}
  9
$EXTNAMES
290
1
  9
$PSVPSCALE
 40
0.0
  9
$OLESTARTUP
290
0
  9
$SORTENTS
280
127
  9
$INDEXCTL
280
0
  9
$HIDETEXT
280
1
  9
$XCLIPFRAME
280
1
  9
$HALOGAP
280
0
  9
$OBSCOLOR
 70
257
  9
$OBSLTYPE
280
0
  9
$INTERSECTIONDISPLAY
280
0
  9
$INTERSECTIONCOLOR
 70
257
  9
$DIMASSOC
280
2
  9
$PROJECTNAME
  1

  9
$CAMERADISPLAY
290
0
  9
$LENSLENGTH
 40
50.0
  9
$CAMERAHEIGHT
 40
0.0
  9
$STEPSPERSEC
 40
24.0
  9
$STEPSIZE
 40
100.0
  9
$3DDWFPREC
 40
2.0
  9
$PSOLWIDTH
 40
0.005
  9
$PSOLHEIGHT
 40
0.08
  9
$LOFTANG1
 40
1.570796326795
  9
$LOFTANG2
 40
1.570796326795
  9
$LOFTMAG1
 40
0.0
  9
$LOFTMAG2
 40
0.0
  9
$LOFTPARAM
 70
7
  9
$LOFTNORMALS
280
1
  9
$LATITUDE
 40
37.795
  9
$LONGITUDE
 40
-122.394
  9
$NORTHDIRECTION
 40
0.0
  9
$TIMEZONE
 70
-8000
  9
$LIGHTGLYPHDISPLAY
280
1
  9
$TILEMODELIGHTSYNCH
280
1
  9
$CMATERIAL
347
20
  9
$SOLIDHIST
280
0
  9
$SHOWHIST
280
1
  9
$DWFFRAME
280
2
  9
$DGNFRAME
280
2
  9
$REALWORLDSCALE
290
1
  9
$INTERFERECOLOR
 62
256
  9
$CSHADOW
280
0
  9
$SHADOWPLANELOCATION
 40
0.0
  0
ENDSEC
  0
SECTION
  2
CLASSES
  0
CLASS
  1
ACDBDICTIONARYWDFLT
  2
AcDbDictionaryWithDefault
  3
ObjectDBX Classes
 90
0
 91
0
280
0
281
0
  0
CLASS
  1
SUN
  2
AcDbSun
  3
SCENEOE
 90
1153
 91
0
280
0
281
0
  0
CLASS
  1
VISUALSTYLE
  2
AcDbVisualStyle
  3
ObjectDBX Classes
 90
4095
 91
0
280
0
281
0
  0
CLASS
  1
MATERIAL
  2
AcDbMaterial
  3
ObjectDBX Classes
 90
1153
 91
0
280
0
281
0
  0
CLASS
  1
SCALE
  2
AcDbScale
  3
ObjectDBX Classes
 90
1153
 91
0
280
0
281
0
  0
CLASS
  1
TABLESTYLE
  2
AcDbTableStyle
  3
ObjectDBX Classes
 90
4095
 91
0
280
0
281
0
  0
CLASS
  1
MLEADERSTYLE
  2
AcDbMLeaderStyle
  3
ACDB_MLEADERSTYLE_CLASS
 90
4095
 91
0
280
0
281
0
  0
CLASS
  1
DICTIONARYVAR
  2
AcDbDictionaryVar
  3
ObjectDBX Classes
 90
0
 91
0
280
0
281
0
  0
CLASS
  1
CELLSTYLEMAP
  2
AcDbCellStyleMap
  3
ObjectDBX Classes
 90
1152
 91
0
280
0
281
0
  0
CLASS
  1
MENTALRAYRENDERSETTINGS
  2
AcDbMentalRayRenderSettings
  3
SCENEOE
 90
1024
 91
0
280
0
281
0
  0
CLASS
  1
ACDBDETAILVIEWSTYLE
  2
AcDbDetailViewStyle
  3
ObjectDBX Classes
 90
1025
 91
0
280
0
281
0
  0
CLASS
  1
ACDBSECTIONVIEWSTYLE
  2
AcDbSectionViewStyle
  3
ObjectDBX Classes
 90
1025
 91
0
280
0
281
0
  0
CLASS
  1
RASTERVARIABLES
  2
AcDbRasterVariables
  3
ISM
 90
0
 91
0
280
0
281
0
  0
CLASS
  1
LAYOUT
  2
AcDbLayout
  3
ObjectDBX Classes
 90
0
 91
0
280
0
281
0
  0
CLASS
  1
ACDBPLACEHOLDER
  2
AcDbPlaceHolder
  3
ObjectDBX Classes
 90
0
 91
0
280
0
281
0
  0
ENDSEC
  0
SECTION
  2
TABLES
  0
TABLE
  2
VPORT
  5
8
330
0
100
AcDbSymbolTable
 70
1
  0
VPORT
  5
23
330
8
100
AcDbSymbolTableRecord
100
AcDbViewportTableRecord
  2
*Active
 70
0
 10
0.0
 20
0.0
 11
1.0
 21
1.0
 12
0.0
 22
0.0
 13
0.0
 23
0.0
 14
0.5
 24
0.5
 15
0.5
 25
0.5
 16
0.0
 26
0.0
 36
1.0
 17
0.0
 27
0.0
 37
0.0
 40
1000.0
 41
1.34
 42
50.0
 43
0.0
 44
0.0
 50
0.0
 51
0.0
 71
0
 72
1000
 73
1
 74
3
 75
0
 76
0
 77
0
 78
0
281
0
 65
0
146
0.0
  0
ENDTAB
  0
TABLE
  2
LTYPE
  5
2
330
0
100
AcDbSymbolTable
 70
3
  0
LTYPE
  5
24
330
2
100
AcDbSymbolTableRecord
100
AcDbLinetypeTableRecord
  2
ByBlock
 70
0
  3

 72
65
 73
0
 40
0.0
  0
LTYPE
  5
25
330
2
100
AcDbSymbolTableRecord
100
AcDbLinetypeTableRecord
  2
ByLayer
 70
0
  3

 72
65
 73
0
 40
0.0
  0
LTYPE
  5
26
330
2
100
AcDbSymbolTableRecord
100
AcDbLinetypeTableRecord
  2
Continuous
 70
0
  3

 72
65
 73
0
 40
0.0
  0
ENDTAB
  0
TABLE
  2
LAYER
  5
1
330
0
100
AcDbSymbolTable
 70
2
  0
LAYER
  5
27
330
1
100
AcDbSymbolTableRecord
100
AcDbLayerTableRecord
  2
0
 70
0
 62
7
  6
Continuous
370
-3
390
13
347
21
  0
LAYER
  5
28
330
1
100
AcDbSymbolTableRecord
100
AcDbLayerTableRecord
  2
Defpoints
 70
0
 62
7
  6
Continuous
290
0
370
-3
390
13
347
21
  0
ENDTAB
  0
TABLE
  2
STYLE
  5
5
330
0
100
AcDbSymbolTable
 70
1
  0
STYLE
  5
29
330
5
100
AcDbSymbolTableRecord
100
AcDbTextStyleTableRecord
  2
Standard
 70
0
 40
0.0
 41
1.0
 50
0.0
 71
0
 42
2.5
  3
txt
  4

  0
ENDTAB
  0
TABLE
  2
VIEW
  5
7
330
0
100
AcDbSymbolTable
 70
0
  0
ENDTAB
  0
TABLE
  2
UCS
  5
6
330
0
100
AcDbSymbolTable
 70
0
  0
ENDTAB
  0
TABLE
  2
APPID
  5
3
330
0
100
AcDbSymbolTable
 70
3
  0
APPID
  5
2A
330
3
100
AcDbSymbolTableRecord
100
AcDbRegAppTableRecord
  2
ACAD
 70
0
  0
APPID
  5
13F
330
3
100
AcDbSymbolTableRecord
100
AcDbRegAppTableRecord
  2
HATCHBACKGROUNDCOLOR
 70
0
  0
APPID
  5
140
330
3
100
AcDbSymbolTableRecord
100
AcDbRegAppTableRecord
  2
EZDXF
 70
0
  0
ENDTAB
  0
TABLE
  2
DIMSTYLE
  5
4
330
0
100
AcDbSymbolTable
 70
1
100
AcDbDimStyleTable
  0
DIMSTYLE
105
2B
330
4
100
AcDbSymbolTableRecord
100
AcDbDimStyleTableRecord
  2
Standard
 70
0
 40
1.0
 41
2.5
 42
0.625
 43
3.75
 44
1.25
 45
0.0
 46
0.0
 47
0.0
 48
0.0
 49
2.5
140
2.5
141
2.5
142
0.0
143
0.03937007874
144
1.0
145
0.0
146
1.0
147
0.625
148
0.0
 69
0
 70
0
 71
0
 72
0
 73
0
 74
0
 75
0
 76
0
 77
1
 78
8
 79
3
170
0
171
3
172
1
173
0
174
0
175
0
176
0
177
0
178
0
179
2
271
2
272
2
273
2
274
3
275
0
276
0
277
2
278
44
279
0
280
0
281
0
282
0
283
0
284
8
285
0
286
0
288
0
289
3
290
0
371
-2
372
-2
  0
ENDTAB
  0
TABLE
  2
BLOCK_RECORD
  5
9
330
0
100
AcDbSymbolTable
 70
4
  0
BLOCK_RECORD
  5
17
330
9
100
AcDbSymbolTableRecord
100
AcDbBlockTableRecord
  2
*Model_Space
340
1A
 70
0
280
1
281
0
  0
BLOCK_RECORD
  5
1B
330
9
100
AcDbSymbolTableRecord
100
AcDbBlockTableRecord
  2
*Paper_Space
340
1E
 70
0
280
1
281
0
  0
BLOCK_RECORD
  5
2F
330
9
100
AcDbSymbolTableRecord
100
AcDbBlockTableRecord
  2
FLAG
340
0
 70
0
280
1
281
0
  0
BLOCK_RECORD
  5
38
330
9
100
AcDbSymbolTableRecord
100
AcDbBlockTableRecord
  2
штамп
340
0
 70
0
280
1
281
0
  0
ENDTAB
  0
ENDSEC
  0
SECTION
  2
BLOCKS
  0
BLOCK
  5
18
330
17
100
AcDbEntity
  8
0
100
AcDbBlockBegin
  2
*Model_Space
 70
0
 10
0.0
 20
0.0
 30
0.0
  3
*Model_Space
  1

  0
ENDBLK
  5
19
330
17
100
AcDbEntity
  8
0
100
AcDbBlockEnd
  0
BLOCK
  5
1C
330
1B
100
AcDbEntity
  8
0
100
AcDbBlockBegin
  2
*Paper_Space
 70
0
 10
0.0
 20
0.0
 30
0.0
  3
*Paper_Space
  1

  0
ENDBLK
  5
1D
330
1B
100
AcDbEntity
  8
0
100
AcDbBlockEnd
  0
BLOCK
  5
30
330
2F
100
AcDbEntity
  8
0
100
AcDbBlockBegin
  2
FLAG
 70
2
 10
0.0
 20
0.0
 30
0.0
  3
FLAG
  1

  0
TEXT
  5
32
330
2F
100
AcDbEntity
  8
0
 62
3
100
AcDbText
 10
0.0
 20
-0.5
 30
0.0
 40
0.5
  1
NAME:
100
AcDbText
  0
ATTDEF
  5
33
330
2F
100
AcDbEntity
  8
0
 62
3
100
AcDbText
 10
1.5
 20
-0.5
 30
0.0
 40
0.5
  1

100
AcDbAttributeDefinition
  3

  2
NAME
 70
0
  0
TEXT
  5
34
330
2F
100
AcDbEntity
  8
0
 62
4
100
AcDbText
 10
0.0
 20
-1.0
 30
0.0
 40
0.25
  1
XPOS:
100
AcDbText
  0
ATTDEF
  5
35
330
2F
100
AcDbEntity
  8
0
 62
4
100
AcDbText
 10
1.5
 20
-1.0
 30
0.0
 40
0.25
  1

100
AcDbAttributeDefinition
  3

  2
XPOS
 70
0
  0
TEXT
  5
36
330
2F
100
AcDbEntity
  8
0
 62
4
100
AcDbText
 10
0.0
 20
-1.5
 30
0.0
 40
0.25
  1
YPOS:
100
AcDbText
  0
ATTDEF
  5
37
330
2F
100
AcDbEntity
  8
0
 62
4
100
AcDbText
 10
1.5
 20
-1.5
 30
0.0
 40
0.25
  1

100
AcDbAttributeDefinition
  3

  2
YPOS
 70
0
  0
ENDBLK
  5
31
330
2F
100
AcDbEntity
  8
0
100
AcDbBlockEnd
  0
BLOCK
  5
39
330
38
100
AcDbEntity
  8
0
100
AcDbBlockBegin
  2
штамп
 70
2
 10
0.0
 20
0.0
 30
0.0
  3
штамп
  1

  0
LWPOLYLINE
  5
3D
330
38
100
AcDbEntity
  8
F_TitleBox
 62
4
100
AcDbPolyline
 90
5
 70
1
 10
-57.0
 20
-159.0
 10
-57.0
 20
138.0
 10
153.0
 20
138.0
 10
153.0
 20
-159.0
 10
-57.0
 20
-159.0
  0
LWPOLYLINE
  5
3E
330
38
100
AcDbEntity
  8
F_TitleBox
 62
2
100
AcDbPolyline
 90
5
 70
1
 43
0.4
 10
-37.0
 20
-154.0
 10
-37.0
 20
133.0
 10
148.0
 20
133.0
 10
148.0
 20
-154.0
 10
-37.0
 20
-154.0
  0
POINT
  5
3F
330
38
100
AcDbEntity
  8
POINTS
 62
1
100
AcDbPoint
 10
0.0
 20
0.0
 30
0.0
  0
TEXT
  5
40
330
38
100
AcDbEntity
  8
0
 62
3
100
AcDbText
 10
0.0
 20
0.0
 30
0.0
 40
0.5
  1
Name:
100
AcDbText
  0
ATTDEF
  5
41
330
38
100
AcDbEntity
  8
0
 62
3
100
AcDbText
 10
1.0
 20
0.0
 30
0.0
 40
0.5
  1

100
AcDbAttributeDefinition
  3

  2
NAME
 70
0
  0
ENDBLK
  5
3A
330
38
100
AcDbEntity
  8
0
100
AcDbBlockEnd
  0
ENDSEC
  0
SECTION
  2
ENTITIES
  0
INSERT
  5
3B
330
17
100
AcDbEntity
  8
F_TitleBox
100
AcDbBlockReference
  2
штамп
 10
0.0
 20
0.0
 30
0.0
  0
INSERT
  5
42
330
17
100
AcDbEntity
  8
0
100
AcDbBlockReference
 66
1
  2
штамп
 10
10.0
 20
20.0
 30
0.0
 41
3.8
 42
3.8
 43
3.8
 50
15.0
  0
ATTRIB
  5
44
330
17
100
AcDbEntity
  8
0
 62
3
100
AcDbText
 10
13.670518139898459
 20
20.98351237138958
 30
0.0
 40
1.9
  1
Object
 50
14.999999999999998
 11
13.670518139898459
 21
20.98351237138958
 31
0.0
100
AcDbAttribute
  2
NAME
 70
0
  0
SEQEND
  5
43
330
42
100
AcDbEntity
  8
0
  0
INSERT
  5
45
330
17
100
AcDbEntity
  8
0
100
AcDbBlockReference
 66
1
  2
FLAG
 10
64.0
 20
-85.0
 30
0.0
 41
0.5742310690136831
 42
0.5742310690136831
 43
0.5742310690136831
 50
15.0
  0
ATTRIB
  5
47
330
17
100
AcDbEntity
  8
0
 62
3
100
AcDbText
 10
64.906307898202
 20
-85.05439940448346
 30
0.0
 40
0.28711553450684163
  1
P(1)
 50
14.999999999999998
 11
64.906307898202
 21
-85.05439940448346
 31
0.0
100
AcDbAttribute
  2
NAME
 70
0
  0
ATTRIB
  5
48
330
17
100
AcDbEntity
  8
0
 62
4
100
AcDbText
 10
64.98061886667716
 20
-85.33173171439242
 30
0.0
 40
0.14355776725342081
  1
= 64.000
 50
14.999999999999998
 11
64.98061886667716
 21
-85.33173171439242
 31
0.0
100
AcDbAttribute
  2
XPOS
 70
0
  0
ATTRIB
  5
49
330
17
100
AcDbEntity
  8
0
 62
4
100
AcDbText
 10
65.05492983515232
 20
-85.60906402430136
 30
0.0
 40
0.14355776725342081
  1
= -85.000
 50
14.999999999999998
 11
65.05492983515232
 21
-85.60906402430136
 31
0.0
100
AcDbAttribute
  2
YPOS
 70
0
  0
SEQEND
  5
46
330
45
100
AcDbEntity
  8
0
  0
INSERT
  5
4A
330
17
100
AcDbEntity
  8
0
100
AcDbBlockReference
 66
1
  2
FLAG
 10
74.0
 20
-30.0
 30
0.0
 41
2.0597162574056815
 42
2.0597162574056815
 43
2.0597162574056815
 50
15.0
  0
ATTRIB
  5
4C
330
17
100
AcDbEntity
  8
0
 62
3
100
AcDbText
 10
77.25084658924536
 20
-30.19512587154199
 30
0.0
 40
1.0298581287028408
  1
P(2)
 50
14.999999999999998
 11
77.25084658924536
 21
-30.19512587154199
 31
0.0
100
AcDbAttribute
  2
NAME
 70
0
  0
ATTRIB
  5
4D
330
17
100
AcDbEntity
  8
0
 62
4
100
AcDbText
 10
77.51739348670729
 20
-31.189892435469794
 30
0.0
 40
0.5149290643514204
  1
= 74.000
 50
14.999999999999998
 11
77.51739348670729
 21
-31.189892435469794
 31
0.0
100
AcDbAttribute
  2
XPOS
 70
0
  0
ATTRIB
  5
4E
330
17
100
AcDbEntity
  8
0
 62
4
100
AcDbText
 10
77.78394038416923
 20
-32.1846589993976
 30
0.0
 40
0.5149290643514204
  1
= -30.000
 50
14.999999999999998
 11
77.78394038416923
 21
-32.1846589993976
 31
0.0
100
AcDbAttribute
  2
YPOS
 70
0
  0
SEQEND
  5
4B
330
4A
100
AcDbEntity
  8
0
  0
INSERT
  5
4F
330
17
100
AcDbEntity
  8
0
100
AcDbBlockReference
 66
1
  2
FLAG
 10
-2.0
 20
-97.0
 30
0.0
 41
1.7665962162369881
 42
1.7665962162369881
 43
1.7665962162369881
 50
15.0
  0
ATTRIB
  5
51
330
17
100
AcDbEntity
  8
0
 62
3
100
AcDbText
 10
0.7882157377158734
 20
-97.16735733629166
 30
0.0
 40
0.8832981081184941
  1
P(3)
 50
14.999999999999998
 11
0.7882157377158734
 21
-97.16735733629166
 31
0.0
100
AcDbAttribute
  2
NAME
 70
0
  0
ATTRIB
  5
52
330
17
100
AcDbEntity
  8
0
 62
4
100
AcDbText
 10
1.0168301105999649
 20
-98.02055779123557
 30
0.0
 40
0.44164905405924704
  1
= -2.000
 50
14.999999999999998
 11
1.0168301105999649
 21
-98.02055779123557
 31
0.0
100
AcDbAttribute
  2
XPOS
 70
0
  0
ATTRIB
  5
53
330
17
100
AcDbEntity
  8
0
 62
4
100
AcDbText
 10
1.2454444834840568
 20
-98.8737582461795
 30
0.0
 40
0.44164905405924704
  1
= -97.000
 50
14.999999999999998
 11
1.2454444834840568
 21
-98.8737582461795
 31
0.0
100
AcDbAttribute
  2
YPOS
 70
0
  0
SEQEND
  5
50
330
4F
100
AcDbEntity
  8
0
  0
INSERT
  5
54
330
17
100
AcDbEntity
  8
0
100
AcDbBlockReference
 66
1
  2
FLAG
 10
-68.0
 20
83.0
 30
0.0
 41
1.8733822513686387
 42
1.8733822513686387
 43
1.8733822513686387
 50
15.0
  0
ATTRIB
  5
56
330
17
100
AcDbEntity
  8
0
 62
3
100
AcDbText
 10
-65.04324404863159
 20
82.8225263585626
 30
0.0
 40
0.9366911256843193
  1
P(4)
 50
14.999999999999998
 11
-65.04324404863159
 21
82.8225263585626
 31
0.0
100
AcDbAttribute
  2
NAME
 70
0
  0
ATTRIB
  5
57
330
17
100
AcDbEntity
  8
0
 62
4
100
AcDbText
 10
-64.80081054592597
 20
81.91775220900834
 30
0.0
 40
0.46834556284215967
  1
= -68.000
 50
14.999999999999998
 11
-64.80081054592597
 21
81.91775220900834
 31
0.0
100
AcDbAttribute
  2
XPOS
 70
0
  0
ATTRIB
  5
58
330
17
100
AcDbEntity
  8
0
 62
4
100
AcDbText
 10
-64.55837704322035
 20
81.01297805945407
 30
0.0
 40
0.46834556284215967
  1
= 83.000
 50
14.999999999999998
 11
-64.55837704322035
 21
81.01297805945407
 31
0.0
100
AcDbAttribute
  2
YPOS
 70
0
  0
SEQEND
  5
55
330
54
100
AcDbEntity
  8
0
  0
INSERT
  5
59
330
17
100
AcDbEntity
  8
0
100
AcDbBlockReference
 66
1
  2
FLAG
 10
-64.0
 20
22.0
 30
0.0
 41
1.7965404884074145
 42
1.7965404884074145
 43
1.7965404884074145
 50
15.0
  0
ATTRIB
  5
5B
330
17
100
AcDbEntity
  8
0
 62
3
100
AcDbText
 10
-61.164523269561144
 20
21.829805912683085
 30
0.0
 40
0.8982702442037073
  1
P(5)
 50
14.999999999999998
 11
-61.164523269561144
 21
21.829805912683085
 31
0.0
100
AcDbAttribute
  2
NAME
 70
0
  0
ATTRIB
  5
5C
330
17
100
AcDbEntity
  8
0
 62
4
100
AcDbText
 10
-60.93203382271233
 20
20.962143484819737
 30
0.0
 40
0.44913512210185363
  1
= -64.000
 50
14.999999999999998
 11
-60.93203382271233
 21
20.962143484819737
 31
0.0
100
AcDbAttribute
  2
XPOS
 70
0
  0
ATTRIB
  5
5D
330
17
100
AcDbEntity
  8
0
 62
4
100
AcDbText
 10
-60.69954437586352
 20
20.094481056956386
 30
0.0
 40
0.44913512210185363
  1
= 22.000
 50
14.999999999999998
 11
-60.69954437586352
 21
20.094481056956386
 31
0.0
100
AcDbAttribute
  2
YPOS
 70
0
  0
SEQEND
  5
5A
330
59
100
AcDbEntity
  8
0
  0
INSERT
  5
5E
330
17
100
AcDbEntity
  8
0
100
AcDbBlockReference
 66
1
  2
FLAG
 10
48.0
 20
53.0
 30
0.0
 41
2.141640405500966
 42
2.141640405500966
 43
2.141640405500966
 50
15.0
  0
ATTRIB
  5
60
330
17
100
AcDbEntity
  8
0
 62
3
100
AcDbText
 10
51.38014732979873
 20
52.797113097908316
 30
0.0
 40
1.070820202750483
  1
P(6)
 50
14.999999999999996
 41
1.0000000000000002
 11
51.38014732979873
 21
52.797113097908316
 31
0.0
100
AcDbAttribute
  2
NAME
 70
0
  0
ATTRIB
  5
61
330
17
100
AcDbEntity
  8
0
 62
4
100
AcDbText
 10
51.6572959921511
 20
51.76278020875953
 30
0.0
 40
0.5354101013752415
  1
= 48.000
 50
14.999999999999996
 41
1.0000000000000002
 11
51.6572959921511
 21
51.76278020875953
 31
0.0
100
AcDbAttribute
  2
XPOS
 70
0
  0
ATTRIB
  5
62
330
17
100
AcDbEntity
  8
0
 62
4
100
AcDbText
 10
51.934444654503466
 20
50.72844731961074
 30
0.0
 40
0.5354101013752415
  1
= 53.000
 50
14.999999999999996
 41
1.0000000000000002
 11
51.934444654503466
 21
50.72844731961074
 31
0.0
100
AcDbAttribute
  2
YPOS
 70
0
  0
SEQEND
  5
5F
330
5E
100
AcDbEntity
  8
0
  0
INSERT
  5
63
330
17
100
AcDbEntity
  8
0
100
AcDbBlockReference
 66
1
  2
FLAG
 10
-50.0
 20
44.0
 30
0.0
 41
0.9067301110517465
 42
0.9067301110517465
 43
0.9067301110517465
 50
15.0
  0
ATTRIB
  5
65
330
17
100
AcDbEntity
  8
0
 62
3
100
AcDbText
 10
-48.568909441637686
 20
43.914101516392755
 30
0.0
 40
0.45336505552587325
  1
P(7)
 50
14.999999999999998
 11
-48.568909441637686
 21
43.914101516392755
 31
0.0
100
AcDbAttribute
  2
NAME
 70
0
  0
ATTRIB
  5
66
330
17
100
AcDbEntity
  8
0
 62
4
100
AcDbText
 10
-48.45156993088363
 20
43.47618450052334
 30
0.0
 40
0.22668252776293663
  1
= -50.000
 50
14.999999999999998
 11
-48.45156993088363
 21
43.47618450052334
 31
0.0
100
AcDbAttribute
  2
XPOS
 70
0
  0
ATTRIB
  5
67
330
17
100
AcDbEntity
  8
0
 62
4
100
AcDbText
 10
-48.33423042012957
 20
43.038267484653915
 30
0.0
 40
0.22668252776293663
  1
= 44.000
 50
14.999999999999998
 11
-48.33423042012957
 21
43.038267484653915
 31
0.0
100
AcDbAttribute
  2
YPOS
 70
0
  0
SEQEND
  5
64
330
63
100
AcDbEntity
  8
0
  0
INSERT
  5
68
330
17
100
AcDbEntity
  8
0
100
AcDbBlockReference
 66
1
  2
FLAG
 10
30.0
 20
-85.0
 30
0.0
 41
1.3477629837107934
 42
1.3477629837107934
 43
1.3477629837107934
 50
15.0
  0
ATTRIB
  5
6A
330
17
100
AcDbEntity
  8
0
 62
3
100
AcDbText
 10
32.12717197475828
 20
-85.12767944413851
 30
0.0
 40
0.6738814918553967
  1
P(8)
 50
15.000000000000002
 11
32.12717197475828
 21
-85.12767944413851
 31
0.0
100
AcDbAttribute
  2
NAME
 70
0
  0
ATTRIB
  5
6B
330
17
100
AcDbEntity
  8
0
 62
4
100
AcDbText
 10
32.30158533899255
 20
-85.77859898097984
 30
0.0
 40
0.33694074592769835
  1
= 30.000
 50
15.000000000000002
 11
32.30158533899255
 21
-85.77859898097984
 31
0.0
100
AcDbAttribute
  2
XPOS
 70
0
  0
ATTRIB
  5
6C
330
17
100
AcDbEntity
  8
0
 62
4
100
AcDbText
 10
32.47599870322683
 20
-86.42951851782118
 30
0.0
 40
0.33694074592769835
  1
= -85.000
 50
15.000000000000002
 11
32.47599870322683
 21
-86.42951851782118
 31
0.0
100
AcDbAttribute
  2
YPOS
 70
0
  0
SEQEND
  5
69
330
68
100
AcDbEntity
  8
0
  0
INSERT
  5
6D
330
17
100
AcDbEntity
  8
0
100
AcDbBlockReference
 66
1
  2
FLAG
 10
16.0
 20
-89.0
 30
0.0
 41
1.9362597907688632
 42
1.9362597907688632
 43
1.9362597907688632
 50
15.0
  0
ATTRIB
  5
6F
330
17
100
AcDbEntity
  8
0
 62
3
100
AcDbText
 10
19.055995462521672
 20
-89.18343030397855
 30
0.0
 40
0.9681298953844316
  1
P(9)
 50
14.999999999999998
 11
19.055995462521672
 21
-89.18343030397855
 31
0.0
100
AcDbAttribute
  2
NAME
 70
0
  0
ATTRIB
  5
70
330
17
100
AcDbEntity
  8
0
 62
4
100
AcDbText
 10
19.306565917580272
 20
-90.1185719731329
 30
0.0
 40
0.4840649476922158
  1
= 16.000
 50
14.999999999999998
 11
19.306565917580272
 21
-90.1185719731329
 31
0.0
100
AcDbAttribute
  2
XPOS
 70
0
  0
ATTRIB
  5
71
330
17
100
AcDbEntity
  8
0
 62
4
100
AcDbText
 10
19.557136372638873
 20
-91.05371364228726
 30
0.0
 40
0.4840649476922158
  1
= -89.000
 50
14.999999999999998
 11
19.557136372638873
 21
-91.05371364228726
 31
0.0
100
AcDbAttribute
  2
YPOS
 70
0
  0
SEQEND
  5
6E
330
6D
100
AcDbEntity
  8
0
  0
INSERT
  5
72
330
17
100
AcDbEntity
  8
0
100
AcDbBlockReference
 66
1
  2
FLAG
 10
-52.0
 20
-8.0
 30
0.0
 41
1.5336530542463596
 42
1.5336530542463596
 43
1.5336530542463596
 50
15.0
  0
ATTRIB
  5
74
330
17
100
AcDbEntity
  8
0
 62
3
100
AcDbText
 10
-49.5794380499952
 20
-8.145289618303924
 30
0.0
 40
0.7668265271231798
  1
P(10)
 50
14.999999999999998
 11
-49.5794380499952
 21
-8.145289618303924
 31
0.0
100
AcDbAttribute
  2
NAME
 70
0
  0
ATTRIB
  5
75
330
17
100
AcDbEntity
  8
0
 62
4
100
AcDbText
 10
-49.38096874048589
 20
-8.885987165135758
 30
0.0
 40
0.3834132635615899
  1
= -52.000
 50
14.999999999999998
 11
-49.38096874048589
 21
-8.885987165135758
 31
0.0
100
AcDbAttribute
  2
XPOS
 70
0
  0
ATTRIB
  5
76
330
17
100
AcDbEntity
  8
0
 62
4
100
AcDbText
 10
-49.182499430976584
 20
-9.626684711967592
 30
0.0
 40
0.3834132635615899
  1
= -8.000
 50
14.999999999999998
 11
-49.182499430976584
 21
-9.626684711967592
 31
0.0
100
AcDbAttribute
  2
YPOS
 70
0
  0
SEQEND
  5
73
330
72
100
AcDbEntity
  8
0
  0
INSERT
  5
77
330
17
100
AcDbEntity
  8
0
100
AcDbBlockReference
 66
1
  2
FLAG
 10
-49.0
 20
-17.0
 30
0.0
 41
2.0836109589876286
 42
2.0836109589876286
 43
2.0836109589876286
 50
15.0
  0
ATTRIB
  5
79
330
17
100
AcDbEntity
  8
0
 62
3
100
AcDbText
 10
-45.71144044477721
 20
-17.197389520457055
 30
0.0
 40
1.0418054794938145
  1
P(11)
 50
14.999999999999998
 11
-45.71144044477721
 21
-17.197389520457055
 31
0.0
100
AcDbAttribute
  2
NAME
 70
0
  0
ATTRIB
  5
7A
330
17
100
AcDbEntity
  8
0
 62
4
100
AcDbText
 10
-45.44180134539205
 20
-18.203696339069595
 30
0.0
 40
0.5209027397469073
  1
= -49.000
 50
14.999999999999998
 11
-45.44180134539205
 21
-18.203696339069595
 31
0.0
100
AcDbAttribute
  2
XPOS
 70
0
  0
ATTRIB
  5
7B
330
17
100
AcDbEntity
  8
0
 62
4
100
AcDbText
 10
-45.172162246006884
 20
-19.210003157682138
 30
0.0
 40
0.5209027397469073
  1
= -17.000
 50
14.999999999999998
 11
-45.172162246006884
 21
-19.210003157682138
 31
0.0
100
AcDbAttribute
  2
YPOS
 70
0
  0
SEQEND
  5
78
330
77
100
AcDbEntity
  8
0
  0
INSERT
  5
7C
330
17
100
AcDbEntity
  8
0
100
AcDbBlockReference
 66
1
  2
FLAG
 10
99.0
 20
20.0
 30
0.0
 41
2.3943183797110517
 42
2.3943183797110517
 43
2.3943183797110517
 50
15.0
  0
ATTRIB
  5
7E
330
17
100
AcDbEntity
  8
0
 62
3
100
AcDbText
 10
102.77894853733636
 20
19.773175815401594
 30
0.0
 40
1.1971591898555256
  1
P(12)
 50
14.999999999999998
 11
102.77894853733636
 21
19.773175815401594
 31
0.0
100
AcDbAttribute
  2
NAME
 70
0
  0
ATTRIB
  5
7F
330
17
100
AcDbEntity
  8
0
 62
4
100
AcDbText
 10
103.08879613569049
 20
18.616808835740844
 30
0.0
 40
0.5985795949277628
  1
= 99.000
 50
14.999999999999998
 11
103.08879613569049
 21
18.616808835740844
 31
0.0
100
AcDbAttribute
  2
XPOS
 70
0
  0
ATTRIB
  5
80
330
17
100
AcDbEntity
  8
0
 62
4
100
AcDbText
 10
103.3986437340446
 20
17.46044185608009
 30
0.0
 40
0.5985795949277628
  1
= 20.000
 50
14.999999999999998
 11
103.3986437340446
 21
17.46044185608009
 31
0.0
100
AcDbAttribute
  2
YPOS
 70
0
  0
SEQEND
  5
7D
330
7C
100
AcDbEntity
  8
0
  0
INSERT
  5
81
330
17
100
AcDbEntity
  8
0
100
AcDbBlockReference
 66
1
  2
FLAG
 10
97.0
 20
15.0
 30
0.0
 41
0.798107824699104
 42
0.798107824699104
 43
0.798107824699104
 50
15.0
  0
ATTRIB
  5
83
330
17
100
AcDbEntity
  8
0
 62
3
100
AcDbText
 10
98.25965219259912
 20
14.924391777596082
 30
0.0
 40
0.399053912349552
  1
P(13)
 50
14.999999999999998
 11
98.25965219259912
 21
14.924391777596082
 31
0.0
100
AcDbAttribute
  2
NAME
 70
0
  0
ATTRIB
  5
84
330
17
100
AcDbEntity
  8
0
 62
4
100
AcDbText
 10
98.36293494513785
 20
14.538935297575955
 30
0.0
 40
0.199526956174776
  1
= 97.000
 50
14.999999999999998
 11
98.36293494513785
 21
14.538935297575955
 31
0.0
100
AcDbAttribute
  2
XPOS
 70
0
  0
ATTRIB
  5
85
330
17
100
AcDbEntity
  8
0
 62
4
100
AcDbText
 10
98.46621769767658
 20
14.153478817555829
 30
0.0
 40
0.199526956174776
  1
= 15.000
 50
14.999999999999998
 11
98.46621769767658
 21
14.153478817555829
 31
0.0
100
AcDbAttribute
  2
YPOS
 70
0
  0
SEQEND
  5
82
330
81
100
AcDbEntity
  8
0
  0
INSERT
  5
86
330
17
100
AcDbEntity
  8
0
100
AcDbBlockReference
 66
1
  2
FLAG
 10
-24.0
 20
-64.0
 30
0.0
 41
2.3735505627623485
 42
2.3735505627623485
 43
2.3735505627623485
 50
15.0
  0
ATTRIB
  5
88
330
17
100
AcDbEntity
  8
0
 62
3
100
AcDbText
 10
-20.253829272058994
 20
-64.2248567590525
 30
0.0
 40
1.1867752813811743
  1
P(14)
 50
14.999999999999998
 11
-20.253829272058994
 21
-64.2248567590525
 31
0.0
100
AcDbAttribute
  2
NAME
 70
0
  0
ATTRIB
  5
89
330
17
100
AcDbEntity
  8
0
 62
4
100
AcDbText
 10
-19.946669226980642
 20
-65.37119365334006
 30
0.0
 40
0.5933876406905871
  1
= -24.000
 50
14.999999999999998
 11
-19.946669226980642
 21
-65.37119365334006
 31
0.0
100
AcDbAttribute
  2
XPOS
 70
0
  0
ATTRIB
  5
8A
330
17
100
AcDbEntity
  8
0
 62
4
100
AcDbText
 10
-19.63950918190229
 20
-66.5175305476276
 30
0.0
 40
0.5933876406905871
  1
= -64.000
 50
14.999999999999998
 11
-19.63950918190229
 21
-66.5175305476276
 31
0.0
100
AcDbAttribute
  2
YPOS
 70
0
  0
SEQEND
  5
87
330
86
100
AcDbEntity
  8
0
  0
INSERT
  5
8B
330
17
100
AcDbEntity
  8
0
100
AcDbBlockReference
 66
1
  2
FLAG
 10
82.0
 20
72.0
 30
0.0
 41
1.7562854518558693
 42
1.7562854518558693
 43
1.7562854518558693
 50
15.0
  0
ATTRIB
  5
8D
330
17
100
AcDbEntity
  8
0
 62
3
100
AcDbText
 10
84.77194227621342
 20
71.8336194472235
 30
0.0
 40
0.8781427259279346
  1
P(15)
 50
14.999999999999998
 11
84.77194227621342
 21
71.8336194472235
 31
0.0
100
AcDbAttribute
  2
NAME
 70
0
  0
ATTRIB
  5
8E
330
17
100
AcDbEntity
  8
0
 62
4
100
AcDbText
 10
84.99922233800181
 20
70.98539870908182
 30
0.0
 40
0.4390713629639673
  1
= 82.000
 50
14.999999999999998
 11
84.99922233800181
 21
70.98539870908182
 31
0.0
100
AcDbAttribute
  2
XPOS
 70
0
  0
ATTRIB
  5
8F
330
17
100
AcDbEntity
  8
0
 62
4
100
AcDbText
 10
85.2265023997902
 20
70.13717797094016
 30
0.0
 40
0.4390713629639673
  1
= 72.000
 50
14.999999999999998
 11
85.2265023997902
 21
70.13717797094016
 31
0.0
100
AcDbAttribute
  2
YPOS
 70
0
  0
SEQEND
  5
8C
330
8B
100
AcDbEntity
  8
0
  0
INSERT
  5
90
330
17
100
AcDbEntity
  8
0
100
AcDbBlockReference
 66
1
  2
FLAG
 10
-28.0
 20
71.0
 30
0.0
 41
0.8441122294032011
 42
0.8441122294032011
 43
0.8441122294032011
 50
15.0
  0
ATTRIB
  5
92
330
17
100
AcDbEntity
  8
0
 62
3
100
AcDbText
 10
-26.66773913541276
 20
70.92003358042675
 30
0.0
 40
0.4220561147016006
  1
P(16)
 50
14.999999999999998
 11
-26.66773913541276
 21
70.92003358042675
 31
0.0
100
AcDbAttribute
  2
NAME
 70
0
  0
ATTRIB
  5
93
330
17
100
AcDbEntity
  8
0
 62
4
100
AcDbText
 10
-26.558502974826013
 20
70.51235867909325
 30
0.0
 40
0.2110280573508003
  1
= -28.000
 50
14.999999999999998
 11
-26.558502974826013
 21
70.51235867909325
 31
0.0
100
AcDbAttribute
  2
XPOS
 70
0
  0
ATTRIB
  5
94
330
17
100
AcDbEntity
  8
0
 62
4
100
AcDbText
 10
-26.449266814239262
 20
70.10468377775975
 30
0.0
 40
0.2110280573508003
  1
= 71.000
 50
14.999999999999998
 11
-26.449266814239262
 21
70.10468377775975
 31
0.0
100
AcDbAttribute
  2
YPOS
 70
0
  0
SEQEND
  5
91
330
90
100
AcDbEntity
  8
0
  0
INSERT
  5
95
330
17
100
AcDbEntity
  8
0
100
AcDbBlockReference
 66
1
  2
FLAG
 10
-99.0
 20
79.0
 30
0.0
 41
1.833401735742321
 42
1.833401735742321
 43
1.833401735742321
 50
15.0
  0
ATTRIB
  5
97
330
17
100
AcDbEntity
  8
0
 62
3
100
AcDbText
 10
-96.10634522695787
 20
78.82631388654283
 30
0.0
 40
0.9167008678711606
  1
P(17)
 50
14.999999999999998
 11
-96.10634522695787
 21
78.82631388654283
 31
0.0
100
AcDbAttribute
  2
NAME
 70
0
  0
ATTRIB
  5
98
330
17
100
AcDbEntity
  8
0
 62
4
100
AcDbText
 10
-95.8690855836908
 20
77.94084884328448
 30
0.0
 40
0.4583504339355803
  1
= -99.000
 50
14.999999999999998
 11
-95.8690855836908
 21
77.94084884328448
 31
0.0
100
AcDbAttribute
  2
XPOS
 70
0
  0
ATTRIB
  5
99
330
17
100
AcDbEntity
  8
0
 62
4
100
AcDbText
 10
-95.63182594042374
 20
77.05538380002612
 30
0.0
 40
0.4583504339355803
  1
= 79.000
 50
14.999999999999998
 11
-95.63182594042374
 21
77.05538380002612
 31
0.0
100
AcDbAttribute
  2
YPOS
 70
0
  0
SEQEND
  5
96
330
95
100
AcDbEntity
  8
0
  0
INSERT
  5
9A
330
17
100
AcDbEntity
  8
0
100
AcDbBlockReference
 66
1
  2
FLAG
 10
-17.0
 20
-27.0
 30
0.0
 41
1.6146908533888258
 42
1.6146908533888258
 43
1.6146908533888258
 50
15.0
  0
ATTRIB
  5
9C
330
17
100
AcDbEntity
  8
0
 62
3
100
AcDbText
 10
-14.451536232453561
 20
-27.152966681165697
 30
0.0
 40
0.8073454266944129
  1
P(18)
 50
14.999999999999998
 11
-14.451536232453561
 21
-27.152966681165697
 31
0.0
100
AcDbAttribute
  2
NAME
 70
0
  0
ATTRIB
  5
9D
330
17
100
AcDbEntity
  8
0
 62
4
100
AcDbText
 10
-14.242579860048625
 20
-27.932802479546197
 30
0.0
 40
0.40367271334720645
  1
= -17.000
 50
14.999999999999998
 11
-14.242579860048625
 21
-27.932802479546197
 31
0.0
100
AcDbAttribute
  2
XPOS
 70
0
  0
ATTRIB
  5
9E
330
17
100
AcDbEntity
  8
0
 62
4
100
AcDbText
 10
-14.033623487643691
 20
-28.712638277926697
 30
0.0
 40
0.40367271334720645
  1
= -27.000
 50
14.999999999999998
 11
-14.033623487643691
 21
-28.712638277926697
 31
0.0
100
AcDbAttribute
  2
YPOS
 70
0
  0
SEQEND
  5
9B
330
9A
100
AcDbEntity
  8
0
  0
INSERT
  5
9F
330
17
100
AcDbEntity
  8
0
100
AcDbBlockReference
 66
1
  2
FLAG
 10
93.0
 20
79.0
 30
0.0
 41
1.3428808878722822
 42
1.3428808878722822
 43
1.3428808878722822
 50
15.0
  0
ATTRIB
  5
A1
330
17
100
AcDbEntity
  8
0
 62
3
100
AcDbText
 10
95.11946657138151
 20
78.87278305801537
 30
0.0
 40
0.6714404439361411
  1
P(19)
 50
14.999999999999998
 11
95.11946657138151
 21
78.87278305801537
 31
0.0
100
AcDbAttribute
  2
NAME
 70
0
  0
ATTRIB
  5
A2
330
17
100
AcDbEntity
  8
0
 62
4
100
AcDbText
 10
95.29324814592428
 20
78.22422139240246
 30
0.0
 40
0.33572022196807055
  1
= 93.000
 50
14.999999999999998
 11
95.29324814592428
 21
78.22422139240246
 31
0.0
100
AcDbAttribute
  2
XPOS
 70
0
  0
ATTRIB
  5
A3
330
17
100
AcDbEntity
  8
0
 62
4
100
AcDbText
 10
95.46702972046704
 20
77.57565972678955
 30
0.0
 40
0.33572022196807055
  1
= 79.000
 50
14.999999999999998
 11
95.46702972046704
 21
77.57565972678955
 31
0.0
100
AcDbAttribute
  2
YPOS
 70
0
  0
SEQEND
  5
A0
330
9F
100
AcDbEntity
  8
0
  0
INSERT
  5
A4
330
17
100
AcDbEntity
  8
0
100
AcDbBlockReference
 66
1
  2
FLAG
 10
-100.0
 20
65.0
 30
0.0
 41
1.4879001667764682
 42
1.4879001667764682
 43
1.4879001667764682
 50
15.0
  0
ATTRIB
  5
A6
330
17
100
AcDbEntity
  8
0
 62
3
100
AcDbText
 10
-97.65164975276971
 20
64.85904475154484
 30
0.0
 40
0.7439500833882341
  1
P(20)
 50
14.999999999999998
 11
-97.65164975276971
 21
64.85904475154484
 31
0.0
100
AcDbAttribute
  2
NAME
 70
0
  0
ATTRIB
  5
A7
330
17
100
AcDbEntity
  8
0
 62
4
100
AcDbText
 10
-97.45910130258324
 20
64.14044415253025
 30
0.0
 40
0.37197504169411705
  1
= -100.000
 50
14.999999999999998
 11
-97.45910130258324
 21
64.14044415253025
 31
0.0
100
AcDbAttribute
  2
XPOS
 70
0
  0
ATTRIB
  5
A8
330
17
100
AcDbEntity
  8
0
 62
4
100
AcDbText
 10
-97.26655285239674
 20
63.42184355351564
 30
0.0
 40
0.37197504169411705
  1
= 65.000
 50
14.999999999999998
 11
-97.26655285239674
 21
63.42184355351564
 31
0.0
100
AcDbAttribute
  2
YPOS
 70
0
  0
SEQEND
  5
A5
330
A4
100
AcDbEntity
  8
0
  0
INSERT
  5
A9
330
17
100
AcDbEntity
  8
0
100
AcDbBlockReference
 66
1
  2
FLAG
 10
4.0
 20
-5.0
 30
0.0
 41
2.376417974131737
 42
2.376417974131737
 43
2.376417974131737
 50
15.0
  0
ATTRIB
  5
AB
330
17
100
AcDbEntity
  8
0
 62
3
100
AcDbText
 10
7.75069635832171
 20
-5.2251284013918315
 30
0.0
 40
1.1882089870658685
  1
P(21)
 50
14.999999999999998
 41
1.0000000000000002
 11
7.75069635832171
 21
-5.2251284013918315
 31
0.0
100
AcDbAttribute
  2
NAME
 70
0
  0
ATTRIB
  5
AC
330
17
100
AcDbEntity
  8
0
 62
4
100
AcDbText
 10
8.05822747373633
 20
-6.372850149027528
 30
0.0
 40
0.5941044935329343
  1
= 4.000
 50
14.999999999999998
 41
1.0000000000000002
 11
8.05822747373633
 21
-6.372850149027528
 31
0.0
100
AcDbAttribute
  2
XPOS
 70
0
  0
ATTRIB
  5
AD
330
17
100
AcDbEntity
  8
0
 62
4
100
AcDbText
 10
8.365758589150953
 20
-7.520571896663223
 30
0.0
 40
0.5941044935329343
  1
= -5.000
 50
14.999999999999998
 41
1.0000000000000002
 11
8.365758589150953
 21
-7.520571896663223
 31
0.0
100
AcDbAttribute
  2
YPOS
 70
0
  0
SEQEND
  5
AA
330
A9
100
AcDbEntity
  8
0
  0
INSERT
  5
AE
330
17
100
AcDbEntity
  8
0
100
AcDbBlockReference
 66
1
  2
FLAG
 10
-77.0
 20
-54.0
 30
0.0
 41
1.0597381142835531
 42
1.0597381142835531
 43
1.0597381142835531
 50
15.0
  0
ATTRIB
  5
B0
330
17
100
AcDbEntity
  8
0
 62
3
100
AcDbText
 10
-75.32741717606716
 20
-54.10039359664826
 30
0.0
 40
0.5298690571417766
  1
P(22)
 50
15.000000000000002
 11
-75.32741717606716
 21
-54.10039359664826
 31
0.0
100
AcDbAttribute
  2
NAME
 70
0
  0
ATTRIB
  5
B1
330
17
100
AcDbEntity
  8
0
 62
4
100
AcDbText
 10
-75.19027697266834
 20
-54.612207803492936
 30
0.0
 40
0.2649345285708883
  1
= -77.000
 50
15.000000000000002
 11
-75.19027697266834
 21
-54.612207803492936
 31
0.0
100
AcDbAttribute
  2
XPOS
 70
0
  0
ATTRIB
  5
B2
330
17
100
AcDbEntity
  8
0
 62
4
100
AcDbText
 10
-75.05313676926954
 20
-55.12402201033762
 30
0.0
 40
0.2649345285708883
  1
= -54.000
 50
15.000000000000002
 11
-75.05313676926954
 21
-55.12402201033762
 31
0.0
100
AcDbAttribute
  2
YPOS
 70
0
  0
SEQEND
  5
AF
330
AE
100
AcDbEntity
  8
0
  0
INSERT
  5
B3
330
17
100
AcDbEntity
  8
0
100
AcDbBlockReference
 66
1
  2
FLAG
 10
-92.0
 20
-97.0
 30
0.0
 41
1.749883826698043
 42
1.749883826698043
 43
1.749883826698043
 50
15.0
  0
ATTRIB
  5
B5
330
17
100
AcDbEntity
  8
0
 62
3
100
AcDbText
 10
-89.23816139764706
 20
-97.1657740990071
 30
0.0
 40
0.8749419133490214
  1
P(23)
 50
14.999999999999998
 41
1.0000000000000002
 11
-89.23816139764706
 21
-97.1657740990071
 31
0.0
100
AcDbAttribute
  2
NAME
 70
0
  0
ATTRIB
  5
B6
330
17
100
AcDbEntity
  8
0
 62
4
100
AcDbText
 10
-89.0117097671139
 20
-98.01090308961369
 30
0.0
 40
0.4374709566745107
  1
= -92.000
 50
14.999999999999998
 41
1.0000000000000002
 11
-89.0117097671139
 21
-98.01090308961369
 31
0.0
100
AcDbAttribute
  2
XPOS
 70
0
  0
ATTRIB
  5
B7
330
17
100
AcDbEntity
  8
0
 62
4
100
AcDbText
 10
-88.78525813658072
 20
-98.85603208022027
 30
0.0
 40
0.4374709566745107
  1
= -97.000
 50
14.999999999999998
 41
1.0000000000000002
 11
-88.78525813658072
 21
-98.85603208022027
 31
0.0
100
AcDbAttribute
  2
YPOS
 70
0
  0
SEQEND
  5
B4
330
B3
100
AcDbEntity
  8
0
  0
INSERT
  5
B8
330
17
100
AcDbEntity
  8
0
100
AcDbBlockReference
 66
1
  2
FLAG
 10
-43.0
 20
55.0
 30
0.0
 41
2.416722096688339
 42
2.416722096688339
 43
2.416722096688339
 50
15.0
  0
ATTRIB
  5
BA
330
17
100
AcDbEntity
  8
0
 62
3
100
AcDbText
 10
-39.18569171509638
 20
54.77105341393719
 30
0.0
 40
1.2083610483441696
  1
P(24)
 50
14.999999999999998
 41
1.0000000000000002
 11
-39.18569171509638
 21
54.77105341393719
 31
0.0
100
AcDbAttribute
  2
NAME
 70
0
  0
ATTRIB
  5
BB
330
17
100
AcDbEntity
  8
0
 62
4
100
AcDbText
 10
-38.87294486242486
 20
53.60386626985982
 30
0.0
 40
0.6041805241720848
  1
= -43.000
 50
14.999999999999998
 41
1.0000000000000002
 11
-38.87294486242486
 21
53.60386626985982
 31
0.0
100
AcDbAttribute
  2
XPOS
 70
0
  0
ATTRIB
  5
BC
330
17
100
AcDbEntity
  8
0
 62
4
100
AcDbText
 10
-38.56019800975334
 20
52.436679125782454
 30
0.0
 40
0.6041805241720848
  1
= 55.000
 50
14.999999999999998
 41
1.0000000000000002
 11
-38.56019800975334
 21
52.436679125782454
 31
0.0
100
AcDbAttribute
  2
YPOS
 70
0
  0
SEQEND
  5
B9
330
B8
100
AcDbEntity
  8
0
  0
INSERT
  5
BD
330
17
100
AcDbEntity
  8
0
100
AcDbBlockReference
 66
1
  2
FLAG
 10
-14.0
 20
61.0
 30
0.0
 41
0.7514789068608603
 42
0.7514789068608603
 43
0.7514789068608603
 50
15.0
  0
ATTRIB
  5
BF
330
17
100
AcDbEntity
  8
0
 62
3
100
AcDbText
 10
-12.81394214738322
 20
60.92880913760843
 30
0.0
 40
0.37573945343043014
  1
P(25)
 50
14.999999999999998
 11
-12.81394214738322
 21
60.92880913760843
 31
0.0
100
AcDbAttribute
  2
NAME
 70
0
  0
ATTRIB
  5
C0
330
17
100
AcDbEntity
  8
0
 62
4
100
AcDbText
 10
-12.716693620839013
 20
60.56587269558424
 30
0.0
 40
0.18786972671521507
  1
= -14.000
 50
14.999999999999998
 11
-12.716693620839013
 21
60.56587269558424
 31
0.0
100
AcDbAttribute
  2
XPOS
 70
0
  0
ATTRIB
  5
C1
330
17
100
AcDbEntity
  8
0
 62
4
100
AcDbText
 10
-12.619445094294806
 20
60.20293625356005
 30
0.0
 40
0.18786972671521507
  1
= 61.000
 50
14.999999999999998
 11
-12.619445094294806
 21
60.20293625356005
 31
0.0
100
AcDbAttribute
  2
YPOS
 70
0
  0
SEQEND
  5
BE
330
BD
100
AcDbEntity
  8
0
  0
INSERT
  5
C2
330
17
100
AcDbEntity
  8
0
100
AcDbBlockReference
 66
1
  2
FLAG
 10
-45.0
 20
-30.0
 30
0.0
 41
2.0017427712424793
 42
2.0017427712424793
 43
2.0017427712424793
 50
15.0
  0
ATTRIB
  5
C4
330
17
100
AcDbEntity
  8
0
 62
3
100
AcDbText
 10
-41.84065286320723
 20
-30.189633791274503
 30
0.0
 40
1.0008713856212397
  1
P(26)
 50
14.999999999999998
 11
-41.84065286320723
 21
-30.189633791274503
 31
0.0
100
AcDbAttribute
  2
NAME
 70
0
  0
ATTRIB
  5
C5
330
17
100
AcDbEntity
  8
0
 62
4
100
AcDbText
 10
-41.5816082869103
 20
-31.156401311439783
 30
0.0
 40
0.5004356928106198
  1
= -45.000
 50
14.999999999999998
 11
-41.5816082869103
 21
-31.156401311439783
 31
0.0
100
AcDbAttribute
  2
XPOS
 70
0
  0
ATTRIB
  5
C6
330
17
100
AcDbEntity
  8
0
 62
4
100
AcDbText
 10
-41.32256371061338
 20
-32.123168831605064
 30
0.0
 40
0.5004356928106198
  1
= -30.000
 50
14.999999999999998
 11
-41.32256371061338
 21
-32.123168831605064
 31
0.0
100
AcDbAttribute
  2
YPOS
 70
0
  0
SEQEND
  5
C3
330
C2
100
AcDbEntity
  8
0
  0
INSERT
  5
C7
330
17
100
AcDbEntity
  8
0
100
AcDbBlockReference
 66
1
  2
FLAG
 10
-91.0
 20
72.0
 30
0.0
 41
1.8392831940231293
 42
1.8392831940231293
 43
1.8392831940231293
 50
15.0
  0
ATTRIB
  5
C9
330
17
100
AcDbEntity
  8
0
 62
3
100
AcDbText
 10
-88.09706253157533
 20
71.82575671044208
 30
0.0
 40
0.9196415970115647
  1
P(27)
 50
14.999999999999998
 11
-88.09706253157533
 21
71.82575671044208
 31
0.0
100
AcDbAttribute
  2
NAME
 70
0
  0
ATTRIB
  5
CA
330
17
100
AcDbEntity
  8
0
 62
4
100
AcDbText
 10
-87.85904177160023
 20
70.93745114095888
 30
0.0
 40
0.45982079850578234
  1
= -91.000
 50
14.999999999999998
 11
-87.85904177160023
 21
70.93745114095888
 31
0.0
100
AcDbAttribute
  2
XPOS
 70
0
  0
ATTRIB
  5
CB
330
17
100
AcDbEntity
  8
0
 62
4
100
AcDbText
 10
-87.62102101162515
 20
70.04914557147569
 30
0.0
 40
0.45982079850578234
  1
= 72.000
 50
14.999999999999998
 11
-87.62102101162515
 21
70.04914557147569
 31
0.0
100
AcDbAttribute
  2
YPOS
 70
0
  0
SEQEND
  5
C8
330
C7
100
AcDbEntity
  8
0
  0
INSERT
  5
CC
330
17
100
AcDbEntity
  8
0
100
AcDbBlockReference
 66
1
  2
FLAG
 10
-81.0
 20
-17.0
 30
0.0
 41
1.0145123600092094
 42
1.0145123600092094
 43
1.0145123600092094
 50
15.0
  0
ATTRIB
  5
CE
330
17
100
AcDbEntity
  8
0
 62
3
100
AcDbText
 10
-79.3987969054353
 20
-17.09610916441775
 30
0.0
 40
0.5072561800046047
  1
P(28)
 50
14.999999999999998
 11
-79.3987969054353
 21
-17.09610916441775
 31
0.0
100
AcDbAttribute
  2
NAME
 70
0
  0
ATTRIB
  5
CF
330
17
100
AcDbEntity
  8
0
 62
4
100
AcDbText
 10
-79.26750934530416
 20
-17.586081009228934
 30
0.0
 40
0.25362809000230235
  1
= -81.000
 50
14.999999999999998
 11
-79.26750934530416
 21
-17.586081009228934
 31
0.0
100
AcDbAttribute
  2
XPOS
 70
0
  0
ATTRIB
  5
D0
330
17
100
AcDbEntity
  8
0
 62
4
100
AcDbText
 10
-79.13622178517302
 20
-18.07605285404012
 30
0.0
 40
0.25362809000230235
  1
= -17.000
 50
14.999999999999998
 11
-79.13622178517302
 21
-18.07605285404012
 31
0.0
100
AcDbAttribute
  2
YPOS
 70
0
  0
SEQEND
  5
CD
330
CC
100
AcDbEntity
  8
0
  0
INSERT
  5
D1
330
17
100
AcDbEntity
  8
0
100
AcDbBlockReference
 66
1
  2
FLAG
 10
16.0
 20
-58.0
 30
0.0
 41
1.6179775379663535
 42
1.6179775379663535
 43
1.6179775379663535
 50
15.0
  0
ATTRIB
  5
D3
330
17
100
AcDbEntity
  8
0
 62
3
100
AcDbText
 10
18.553651136102843
 20
-58.15327804307798
 30
0.0
 40
0.8089887689831767
  1
P(29)
 50
14.999999999999998
 11
18.553651136102843
 21
-58.15327804307798
 31
0.0
100
AcDbAttribute
  2
NAME
 70
0
  0
ATTRIB
  5
D4
330
17
100
AcDbEntity
  8
0
 62
4
100
AcDbText
 10
18.763032836789733
 20
-58.934701188216636
 30
0.0
 40
0.40449438449158837
  1
= 16.000
 50
14.999999999999998
 11
18.763032836789733
 21
-58.934701188216636
 31
0.0
100
AcDbAttribute
  2
XPOS
 70
0
  0
ATTRIB
  5
D5
330
17
100
AcDbEntity
  8
0
 62
4
100
AcDbText
 10
18.972414537476624
 20
-59.71612433335528
 30
0.0
 40
0.40449438449158837
  1
= -58.000
 50
14.999999999999998
 11
18.972414537476624
 21
-59.71612433335528
 31
0.0
100
AcDbAttribute
  2
YPOS
 70
0
  0
SEQEND
  5
D2
330
D1
100
AcDbEntity
  8
0
  0
INSERT
  5
D6
330
17
100
AcDbEntity
  8
0
100
AcDbBlockReference
 66
1
  2
FLAG
 10
-15.0
 20
82.0
 30
0.0
 41
2.1405568607175423
 42
2.1405568607175423
 43
2.1405568607175423
 50
15.0
  0
ATTRIB
  5
D8
330
17
100
AcDbEntity
  8
0
 62
3
100
AcDbText
 10
-11.621562827049729
 20
81.79721574681419
 30
0.0
 40
1.0702784303587711
  1
P(30)
 50
14.999999999999998
 11
-11.621562827049729
 21
81.79721574681419
 31
0.0
100
AcDbAttribute
  2
NAME
 70
0
  0
ATTRIB
  5
D9
330
17
100
AcDbEntity
  8
0
 62
4
100
AcDbText
 10
-11.344554385710447
 20
80.76340616961052
 30
0.0
 40
0.5351392151793856
  1
= -15.000
 50
14.999999999999998
 11
-11.344554385710447
 21
80.76340616961052
 31
0.0
100
AcDbAttribute
  2
XPOS
 70
0
  0
ATTRIB
  5
DA
330
17
100
AcDbEntity
  8
0
 62
4
100
AcDbText
 10
-11.067545944371165
 20
79.72959659240686
 30
0.0
 40
0.5351392151793856
  1
= 82.000
 50
14.999999999999998
 11
-11.067545944371165
 21
79.72959659240686
 31
0.0
100
AcDbAttribute
  2
YPOS
 70
0
  0
SEQEND
  5
D7
330
D6
100
AcDbEntity
  8
0
  0
INSERT
  5
DB
330
17
100
AcDbEntity
  8
0
100
AcDbBlockReference
 66
1
  2
FLAG
 10
62.0
 20
54.0
 30
0.0
 41
1.8995729886416384
 42
1.8995729886416384
 43
1.8995729886416384
 50
15.0
  0
ATTRIB
  5
DD
330
17
100
AcDbEntity
  8
0
 62
3
100
AcDbText
 10
64.99809274648649
 20
53.82004519620912
 30
0.0
 40
0.9497864943208192
  1
P(31)
 50
14.999999999999998
 11
64.99809274648649
 21
53.82004519620912
 31
0.0
100
AcDbAttribute
  2
NAME
 70
0
  0
ATTRIB
  5
DE
330
17
100
AcDbEntity
  8
0
 62
4
100
AcDbText
 10
65.24391557999787
 20
52.90262189188409
 30
0.0
 40
0.4748932471604096
  1
= 62.000
 50
14.999999999999998
 11
65.24391557999787
 21
52.90262189188409
 31
0.0
100
AcDbAttribute
  2
XPOS
 70
0
  0
ATTRIB
  5
DF
330
17
100
AcDbEntity
  8
0
 62
4
100
AcDbText
 10
65.48973841350926
 20
51.985198587559054
 30
0.0
 40
0.4748932471604096
  1
= 54.000
 50
14.999999999999998
 11
65.48973841350926
 21
51.985198587559054
 31
0.0
100
AcDbAttribute
  2
YPOS
 70
0
  0
SEQEND
  5
DC
330
DB
100
AcDbEntity
  8
0
  0
INSERT
  5
E0
330
17
100
AcDbEntity
  8
0
100
AcDbBlockReference
 66
1
  2
FLAG
 10
57.0
 20
35.0
 30
0.0
 41
0.9060387809850692
 42
0.9060387809850692
 43
0.9060387809850692
 50
15.0
  0
ATTRIB
  5
E2
330
17
100
AcDbEntity
  8
0
 62
3
100
AcDbText
 10
58.429999433319615
 20
34.91416700909414
 30
0.0
 40
0.4530193904925346
  1
P(32)
 50
14.999999999999998
 11
58.429999433319615
 21
34.91416700909414
 31
0.0
100
AcDbAttribute
  2
NAME
 70
0
  0
ATTRIB
  5
E3
330
17
100
AcDbEntity
  8
0
 62
4
100
AcDbText
 10
58.54724947937982
 20
34.47658388000767
 30
0.0
 40
0.2265096952462673
  1
= 57.000
 50
14.999999999999998
 11
58.54724947937982
 21
34.47658388000767
 31
0.0
100
AcDbAttribute
  2
XPOS
 70
0
  0
ATTRIB
  5
E4
330
17
100
AcDbEntity
  8
0
 62
4
100
AcDbText
 10
58.66449952544003
 20
34.0390007509212
 30
0.0
 40
0.2265096952462673
  1
= 35.000
 50
14.999999999999998
 11
58.66449952544003
 21
34.0390007509212
 31
0.0
100
AcDbAttribute
  2
YPOS
 70
0
  0
SEQEND
  5
E1
330
E0
100
AcDbEntity
  8
0
  0
INSERT
  5
E5
330
17
100
AcDbEntity
  8
0
100
AcDbBlockReference
 66
1
  2
FLAG
 10
96.0
 20
45.0
 30
0.0
 41
2.0217850229332903
 42
2.0217850229332903
 43
2.0217850229332903
 50
15.0
  0
ATTRIB
  5
E7
330
17
100
AcDbEntity
  8
0
 62
3
100
AcDbText
 10
99.19097978780263
 20
44.80846751912941
 30
0.0
 40
1.0108925114666452
  1
P(33)
 50
14.999999999999996
 41
1.0000000000000002
 11
99.19097978780263
 21
44.80846751912941
 31
0.0
100
AcDbAttribute
  2
NAME
 70
0
  0
ATTRIB
  5
E8
330
17
100
AcDbEntity
  8
0
 62
4
100
AcDbText
 10
99.45261802232173
 20
43.832020334701554
 30
0.0
 40
0.5054462557333226
  1
= 96.000
 50
14.999999999999996
 41
1.0000000000000002
 11
99.45261802232173
 21
43.832020334701554
 31
0.0
100
AcDbAttribute
  2
XPOS
 70
0
  0
ATTRIB
  5
E9
330
17
100
AcDbEntity
  8
0
 62
4
100
AcDbText
 10
99.71425625684081
 20
42.855573150273706
 30
0.0
 40
0.5054462557333226
  1
= 45.000
 50
14.999999999999996
 41
1.0000000000000002
 11
99.71425625684081
 21
42.855573150273706
 31
0.0
100
AcDbAttribute
  2
YPOS
 70
0
  0
SEQEND
  5
E6
330
E5
100
AcDbEntity
  8
0
  0
INSERT
  5
EA
330
17
100
AcDbEntity
  8
0
100
AcDbBlockReference
 66
1
  2
FLAG
 10
70.0
 20
75.0
 30
0.0
 41
1.4163910736633694
 42
1.4163910736633694
 43
1.4163910736633694
 50
15.0
  0
ATTRIB
  5
EC
330
17
100
AcDbEntity
  8
0
 62
3
100
AcDbText
 10
72.23548756985377
 20
74.86581911867755
 30
0.0
 40
0.7081955368316848
  1
P(34)
 50
14.999999999999998
 11
72.23548756985377
 21
74.86581911867755
 31
0.0
100
AcDbAttribute
  2
NAME
 70
0
  0
ATTRIB
  5
ED
330
17
100
AcDbEntity
  8
0
 62
4
100
AcDbText
 10
72.41878206244242
 20
74.18175475958918
 30
0.0
 40
0.3540977684158424
  1
= 70.000
 50
14.999999999999998
 11
72.41878206244242
 21
74.18175475958918
 31
0.0
100
AcDbAttribute
  2
XPOS
 70
0
  0
ATTRIB
  5
EE
330
17
100
AcDbEntity
  8
0
 62
4
100
AcDbText
 10
72.60207655503106
 20
73.4976904005008
 30
0.0
 40
0.3540977684158424
  1
= 75.000
 50
14.999999999999998
 11
72.60207655503106
 21
73.4976904005008
 31
0.0
100
AcDbAttribute
  2
YPOS
 70
0
  0
SEQEND
  5
EB
330
EA
100
AcDbEntity
  8
0
  0
INSERT
  5
EF
330
17
100
AcDbEntity
  8
0
100
AcDbBlockReference
 66
1
  2
FLAG
 10
33.0
 20
-7.0
 30
0.0
 41
0.8222688593308889
 42
0.8222688593308889
 43
0.8222688593308889
 50
15.0
  0
ATTRIB
  5
F1
330
17
100
AcDbEntity
  8
0
 62
3
100
AcDbText
 10
34.29778551156622
 20
-7.07789710220614
 30
0.0
 40
0.4111344296654444
  1
P(35)
 50
14.999999999999998
 11
34.29778551156622
 21
-7.07789710220614
 31
0.0
100
AcDbAttribute
  2
NAME
 70
0
  0
ATTRIB
  5
F2
330
17
100
AcDbEntity
  8
0
 62
4
100
AcDbText
 10
34.404194932060996
 20
-7.475022465896619
 30
0.0
 40
0.2055672148327222
  1
= 33.000
 50
14.999999999999998
 11
34.404194932060996
 21
-7.475022465896619
 31
0.0
100
AcDbAttribute
  2
XPOS
 70
0
  0
ATTRIB
  5
F3
330
17
100
AcDbEntity
  8
0
 62
4
100
AcDbText
 10
34.510604352555774
 20
-7.872147829587099
 30
0.0
 40
0.2055672148327222
  1
= -7.000
 50
14.999999999999998
 11
34.510604352555774
 21
-7.872147829587099
 31
0.0
100
AcDbAttribute
  2
YPOS
 70
0
  0
SEQEND
  5
F0
330
EF
100
AcDbEntity
  8
0
  0
INSERT
  5
F4
330
17
100
AcDbEntity
  8
0
100
AcDbBlockReference
 66
1
  2
FLAG
 10
63.0
 20
25.0
 30
0.0
 41
1.7555003943610237
 42
1.7555003943610237
 43
1.7555003943610237
 50
15.0
  0
ATTRIB
  5
F6
330
17
100
AcDbEntity
  8
0
 62
3
100
AcDbText
 10
65.77070322133375
 20
24.83369381913145
 30
0.0
 40
0.8777501971805118
  1
P(36)
 50
14.999999999999998
 41
1.0000000000000002
 11
65.77070322133375
 21
24.83369381913145
 31
0.0
100
AcDbAttribute
  2
NAME
 70
0
  0
ATTRIB
  5
F7
330
17
100
AcDbEntity
  8
0
 62
4
100
AcDbText
 10
65.99788168920655
 20
23.985852234644472
 30
0.0
 40
0.4388750985902559
  1
= 63.000
 50
14.999999999999998
 41
1.0000000000000002
 11
65.99788168920655
 21
23.985852234644472
 31
0.0
100
AcDbAttribute
  2
XPOS
 70
0
  0
ATTRIB
  5
F8
330
17
100
AcDbEntity
  8
0
 62
4
100
AcDbText
 10
66.22506015707937
 20
23.138010650157494
 30
0.0
 40
0.4388750985902559
  1
= 25.000
 50
14.999999999999998
 41
1.0000000000000002
 11
66.22506015707937
 21
23.138010650157494
 31
0.0
100
AcDbAttribute
  2
YPOS
 70
0
  0
SEQEND
  5
F5
330
F4
100
AcDbEntity
  8
0
  0
INSERT
  5
F9
330
17
100
AcDbEntity
  8
0
100
AcDbBlockReference
 66
1
  2
FLAG
 10
-40.0
 20
51.0
 30
0.0
 41
2.3114700288856724
 42
2.3114700288856724
 43
2.3114700288856724
 50
15.0
  0
ATTRIB
  5
FB
330
17
100
AcDbEntity
  8
0
 62
3
100
AcDbText
 10
-36.351810870779644
 20
50.78102439969202
 30
0.0
 40
1.1557350144428362
  1
P(37)
 50
14.999999999999998
 11
-36.351810870779644
 21
50.78102439969202
 31
0.0
100
AcDbAttribute
  2
NAME
 70
0
  0
ATTRIB
  5
FC
330
17
100
AcDbEntity
  8
0
 62
4
100
AcDbText
 10
-36.05268463795
 20
49.66467010089512
 30
0.0
 40
0.5778675072214181
  1
= -40.000
 50
14.999999999999998
 11
-36.05268463795
 21
49.66467010089512
 31
0.0
100
AcDbAttribute
  2
XPOS
 70
0
  0
ATTRIB
  5
FD
330
17
100
AcDbEntity
  8
0
 62
4
100
AcDbText
 10
-35.75355840512036
 20
48.548315802098216
 30
0.0
 40
0.5778675072214181
  1
= 51.000
 50
14.999999999999998
 11
-35.75355840512036
 21
48.548315802098216
 31
0.0
100
AcDbAttribute
  2
YPOS
 70
0
  0
SEQEND
  5
FA
330
F9
100
AcDbEntity
  8
0
  0
INSERT
  5
FE
330
17
100
AcDbEntity
  8
0
100
AcDbBlockReference
 66
1
  2
FLAG
 10
45.0
 20
0.0
 30
0.0
 41
1.070631647232881
 42
1.070631647232881
 43
1.070631647232881
 50
15.0
  0
ATTRIB
  5
100
330
17
100
AcDbEntity
  8
0
 62
3
100
AcDbText
 10
46.689776068053646
 20
-0.10142558836229376
 30
0.0
 40
0.5353158236164405
  1
P(38)
 50
14.999999999999998
 11
46.689776068053646
 21
-0.10142558836229376
 31
0.0
100
AcDbAttribute
  2
NAME
 70
0
  0
ATTRIB
  5
101
330
17
100
AcDbEntity
  8
0
 62
4
100
AcDbText
 10
46.82832599835032
 20
-0.6185009676146171
 30
0.0
 40
0.26765791180822024
  1
= 45.000
 50
14.999999999999998
 11
46.82832599835032
 21
-0.6185009676146171
 31
0.0
100
AcDbAttribute
  2
XPOS
 70
0
  0
ATTRIB
  5
102
330
17
100
AcDbEntity
  8
0
 62
4
100
AcDbText
 10
46.966875928647
 20
-1.1355763468669404
 30
0.0
 40
0.26765791180822024
  1
= 0.000
 50
14.999999999999998
 11
46.966875928647
 21
-1.1355763468669404
 31
0.0
100
AcDbAttribute
  2
YPOS
 70
0
  0
SEQEND
  5
FF
330
FE
100
AcDbEntity
  8
0
  0
INSERT
  5
103
330
17
100
AcDbEntity
  8
0
100
AcDbBlockReference
 66
1
  2
FLAG
 10
25.0
 20
-25.0
 30
0.0
 41
1.3433903670310796
 42
1.3433903670310796
 43
1.3433903670310796
 50
15.0
  0
ATTRIB
  5
105
330
17
100
AcDbEntity
  8
0
 62
3
100
AcDbText
 10
27.12027068145236
 20
-25.127265207159272
 30
0.0
 40
0.6716951835155398
  1
P(39)
 50
14.999999999999998
 11
27.12027068145236
 21
-25.127265207159272
 31
0.0
100
AcDbAttribute
  2
NAME
 70
0
  0
ATTRIB
  5
106
330
17
100
AcDbEntity
  8
0
 62
4
100
AcDbText
 10
27.294118187449815
 20
-25.776072932310907
 30
0.0
 40
0.3358475917577699
  1
= 25.000
 50
14.999999999999998
 11
27.294118187449815
 21
-25.776072932310907
 31
0.0
100
AcDbAttribute
  2
XPOS
 70
0
  0
ATTRIB
  5
107
330
17
100
AcDbEntity
  8
0
 62
4
100
AcDbText
 10
27.46796569344727
 20
-26.42488065746254
 30
0.0
 40
0.3358475917577699
  1
= -25.000
 50
14.999999999999998
 11
27.46796569344727
 21
-26.42488065746254
 31
0.0
100
AcDbAttribute
  2
YPOS
 70
0
  0
SEQEND
  5
104
330
103
100
AcDbEntity
  8
0
  0
INSERT
  5
108
330
17
100
AcDbEntity
  8
0
100
AcDbBlockReference
 66
1
  2
FLAG
 10
61.0
 20
100.0
 30
0.0
 41
2.0396225234823078
 42
2.0396225234823078
 43
2.0396225234823078
 50
15.0
  0
ATTRIB
  5
10A
330
17
100
AcDbEntity
  8
0
 62
3
100
AcDbText
 10
64.21913268391731
 20
99.80677769518971
 30
0.0
 40
1.0198112617411539
  1
P(40)
 50
14.999999999999996
 11
64.21913268391731
 21
99.80677769518971
 31
0.0
100
AcDbAttribute
  2
NAME
 70
0
  0
ATTRIB
  5
10B
330
17
100
AcDbEntity
  8
0
 62
4
100
AcDbText
 10
64.48307926086595
 20
98.82171565953348
 30
0.0
 40
0.5099056308705769
  1
= 61.000
 50
14.999999999999996
 11
64.48307926086595
 21
98.82171565953348
 31
0.0
100
AcDbAttribute
  2
XPOS
 70
0
  0
ATTRIB
  5
10C
330
17
100
AcDbEntity
  8
0
 62
4
100
AcDbText
 10
64.74702583781459
 20
97.83665362387727
 30
0.0
 40
0.5099056308705769
  1
= 100.000
 50
14.999999999999996
 11
64.74702583781459
 21
97.83665362387727
 31
0.0
100
AcDbAttribute
  2
YPOS
 70
0
  0
SEQEND
  5
109
330
108
100
AcDbEntity
  8
0
  0
INSERT
  5
10D
330
17
100
AcDbEntity
  8
0
100
AcDbBlockReference
 66
1
  2
FLAG
 10
-54.0
 20
53.0
 30
0.0
 41
0.6959448940138788
 42
0.6959448940138788
 43
0.6959448940138788
 50
15.0
  0
ATTRIB
  5
10F
330
17
100
AcDbEntity
  8
0
 62
3
100
AcDbText
 10
-52.90159138334066
 20
52.93407011596796
 30
0.0
 40
0.34797244700693947
  1
P(41)
 50
14.999999999999998
 11
-52.90159138334066
 21
52.93407011596796
 31
0.0
100
AcDbAttribute
  2
NAME
 70
0
  0
ATTRIB
  5
110
330
17
100
AcDbEntity
  8
0
 62
4
100
AcDbText
 10
-52.81152948688433
 20
52.59795454256696
 30
0.0
 40
0.17398622350346973
  1
= -54.000
 50
14.999999999999998
 11
-52.81152948688433
 21
52.59795454256696
 31
0.0
100
AcDbAttribute
  2
XPOS
 70
0
  0
ATTRIB
  5
111
330
17
100
AcDbEntity
  8
0
 62
4
100
AcDbText
 10
-52.721467590428006
 20
52.26183896916595
 30
0.0
 40
0.17398622350346973
  1
= 53.000
 50
14.999999999999998
 11
-52.721467590428006
 21
52.26183896916595
 31
0.0
100
AcDbAttribute
  2
YPOS
 70
0
  0
SEQEND
  5
10E
330
10D
100
AcDbEntity
  8
0
  0
INSERT
  5
112
330
17
100
AcDbEntity
  8
0
100
AcDbBlockReference
 66
1
  2
FLAG
 10
1.0
 20
-82.0
 30
0.0
 41
1.70924098241038
 42
1.70924098241038
 43
1.70924098241038
 50
15.0
  0
ATTRIB
  5
114
330
17
100
AcDbEntity
  8
0
 62
3
100
AcDbText
 10
3.6976920718516024
 20
-82.16192382575461
 30
0.0
 40
0.85462049120519
  1
P(42)
 50
14.999999999999998
 11
3.6976920718516024
 21
-82.16192382575461
 31
0.0
100
AcDbAttribute
  2
NAME
 70
0
  0
ATTRIB
  5
115
330
17
100
AcDbEntity
  8
0
 62
4
100
AcDbText
 10
3.918884131310377
 20
-82.98742382988556
 30
0.0
 40
0.427310245602595
  1
= 1.000
 50
14.999999999999998
 11
3.918884131310377
 21
-82.98742382988556
 31
0.0
100
AcDbAttribute
  2
XPOS
 70
0
  0
ATTRIB
  5
116
330
17
100
AcDbEntity
  8
0
 62
4
100
AcDbText
 10
4.140076190769151
 20
-83.8129238340165
 30
0.0
 40
0.427310245602595
  1
= -82.000
 50
14.999999999999998
 11
4.140076190769151
 21
-83.8129238340165
 31
0.0
100
AcDbAttribute
  2
YPOS
 70
0
  0
SEQEND
  5
113
330
112
100
AcDbEntity
  8
0
  0
INSERT
  5
117
330
17
100
AcDbEntity
  8
0
100
AcDbBlockReference
 66
1
  2
FLAG
 10
29.0
 20
-19.0
 30
0.0
 41
1.4116643335724712
 42
1.4116643335724712
 43
1.4116643335724712
 50
15.0
  0
ATTRIB
  5
119
330
17
100
AcDbEntity
  8
0
 62
3
100
AcDbText
 10
31.22802736418345
 20
-19.13373309669363
 30
0.0
 40
0.7058321667862356
  1
P(43)
 50
14.999999999999998
 11
31.22802736418345
 21
-19.13373309669363
 31
0.0
100
AcDbAttribute
  2
NAME
 70
0
  0
ATTRIB
  5
11A
330
17
100
AcDbEntity
  8
0
 62
4
100
AcDbText
 10
31.410710171593706
 20
-19.815514615618028
 30
0.0
 40
0.3529160833931178
  1
= 29.000
 50
14.999999999999998
 11
31.410710171593706
 21
-19.815514615618028
 31
0.0
100
AcDbAttribute
  2
XPOS
 70
0
  0
ATTRIB
  5
11B
330
17
100
AcDbEntity
  8
0
 62
4
100
AcDbText
 10
31.593392979003966
 20
-20.497296134542424
 30
0.0
 40
0.3529160833931178
  1
= -19.000
 50
14.999999999999998
 11
31.593392979003966
 21
-20.497296134542424
 31
0.0
100
AcDbAttribute
  2
YPOS
 70
0
  0
SEQEND
  5
118
330
117
100
AcDbEntity
  8
0
  0
INSERT
  5
11C
330
17
100
AcDbEntity
  8
0
100
AcDbBlockReference
 66
1
  2
FLAG
 10
-95.0
 20
-1.0
 30
0.0
 41
2.4198572101839924
 42
2.4198572101839924
 43
2.4198572101839924
 50
15.0
  0
ATTRIB
  5
11E
330
17
100
AcDbEntity
  8
0
 62
3
100
AcDbText
 10
-91.18074357091507
 20
-1.2292435889878601
 30
0.0
 40
1.2099286050919962
  1
P(44)
 50
15.000000000000002
 11
-91.18074357091507
 21
-1.2292435889878601
 31
0.0
100
AcDbAttribute
  2
NAME
 70
0
  0
ATTRIB
  5
11F
330
17
100
AcDbEntity
  8
0
 62
4
100
AcDbText
 10
-90.86759100470293
 20
-2.3979448766121263
 30
0.0
 40
0.6049643025459981
  1
= -95.000
 50
15.000000000000002
 11
-90.86759100470293
 21
-2.3979448766121263
 31
0.0
100
AcDbAttribute
  2
XPOS
 70
0
  0
ATTRIB
  5
120
330
17
100
AcDbEntity
  8
0
 62
4
100
AcDbText
 10
-90.55443843849079
 20
-3.5666461642363925
 30
0.0
 40
0.6049643025459981
  1
= -1.000
 50
15.000000000000002
 11
-90.55443843849079
 21
-3.5666461642363925
 31
0.0
100
AcDbAttribute
  2
YPOS
 70
0
  0
SEQEND
  5
11D
330
11C
100
AcDbEntity
  8
0
  0
INSERT
  5
121
330
17
100
AcDbEntity
  8
0
100
AcDbBlockReference
 66
1
  2
FLAG
 10
83.0
 20
75.0
 30
0.0
 41
2.3662543474404787
 42
2.3662543474404787
 43
2.3662543474404787
 50
15.0
  0
ATTRIB
  5
123
330
17
100
AcDbEntity
  8
0
 62
3
100
AcDbText
 10
86.73465512397944
 20
74.77583444313058
 30
0.0
 40
1.1831271737202393
  1
P(45)
 50
14.999999999999998
 11
86.73465512397944
 21
74.77583444313058
 31
0.0
100
AcDbAttribute
  2
NAME
 70
0
  0
ATTRIB
  5
124
330
17
100
AcDbEntity
  8
0
 62
4
100
AcDbText
 10
87.04087096931654
 20
73.6330213502498
 30
0.0
 40
0.5915635868601197
  1
= 83.000
 50
14.999999999999998
 11
87.04087096931654
 21
73.6330213502498
 31
0.0
100
AcDbAttribute
  2
XPOS
 70
0
  0
ATTRIB
  5
125
330
17
100
AcDbEntity
  8
0
 62
4
100
AcDbText
 10
87.34708681465366
 20
72.49020825736903
 30
0.0
 40
0.5915635868601197
  1
= 75.000
 50
14.999999999999998
 11
87.34708681465366
 21
72.49020825736903
 31
0.0
100
AcDbAttribute
  2
YPOS
 70
0
  0
SEQEND
  5
122
330
121
100
AcDbEntity
  8
0
  0
INSERT
  5
126
330
17
100
AcDbEntity
  8
0
100
AcDbBlockReference
 66
1
  2
FLAG
 10
-98.0
 20
12.0
 30
0.0
 41
2.4001106523633915
 42
2.4001106523633915
 43
2.4001106523633915
 50
15.0
  0
ATTRIB
  5
128
330
17
100
AcDbEntity
  8
0
 62
3
100
AcDbText
 10
-94.2119095288035
 20
11.77262708824297
 30
0.0
 40
1.2000553261816957
  1
P(46)
 50
14.999999999999998
 11
-94.2119095288035
 21
11.77262708824297
 31
0.0
100
AcDbAttribute
  2
NAME
 70
0
  0
ATTRIB
  5
129
330
17
100
AcDbEntity
  8
0
 62
4
100
AcDbText
 10
-93.90131235521096
 20
10.613462655708318
 30
0.0
 40
0.6000276630908479
  1
= -98.000
 50
14.999999999999998
 11
-93.90131235521096
 21
10.613462655708318
 31
0.0
100
AcDbAttribute
  2
XPOS
 70
0
  0
ATTRIB
  5
12A
330
17
100
AcDbEntity
  8
0
 62
4
100
AcDbText
 10
-93.59071518161842
 20
9.454298223173666
 30
0.0
 40
0.6000276630908479
  1
= 12.000
 50
14.999999999999998
 11
-93.59071518161842
 21
9.454298223173666
 31
0.0
100
AcDbAttribute
  2
YPOS
 70
0
  0
SEQEND
  5
127
330
126
100
AcDbEntity
  8
0
  0
INSERT
  5
12B
330
17
100
AcDbEntity
  8
0
100
AcDbBlockReference
 66
1
  2
FLAG
 10
-14.0
 20
26.0
 30
0.0
 41
1.928041176512888
 42
1.928041176512888
 43
1.928041176512888
 50
15.0
  0
ATTRIB
  5
12D
330
17
100
AcDbEntity
  8
0
 62
3
100
AcDbText
 10
-10.95697596207446
 20
25.81734828106383
 30
0.0
 40
0.964020588256444
  1
P(47)
 50
14.999999999999998
 11
-10.95697596207446
 21
25.81734828106383
 31
0.0
100
AcDbAttribute
  2
NAME
 70
0
  0
ATTRIB
  5
12E
330
17
100
AcDbEntity
  8
0
 62
4
100
AcDbText
 10
-10.707469073962756
 20
24.88617589779255
 30
0.0
 40
0.482010294128222
  1
= -14.000
 50
14.999999999999998
 11
-10.707469073962756
 21
24.88617589779255
 31
0.0
100
AcDbAttribute
  2
XPOS
 70
0
  0
ATTRIB
  5
12F
330
17
100
AcDbEntity
  8
0
 62
4
100
AcDbText
 10
-10.457962185851052
 20
23.955003514521273
 30
0.0
 40
0.482010294128222
  1
= 26.000
 50
14.999999999999998
 11
-10.457962185851052
 21
23.955003514521273
 31
0.0
100
AcDbAttribute
  2
YPOS
 70
0
  0
SEQEND
  5
12C
330
12B
100
AcDbEntity
  8
0
  0
INSERT
  5
130
330
17
100
AcDbEntity
  8
0
100
AcDbBlockReference
 66
1
  2
FLAG
 10
-15.0
 20
-34.0
 30
0.0
 41
1.9116682125078421
 42
1.9116682125078421
 43
1.9116682125078421
 50
15.0
  0
ATTRIB
  5
132
330
17
100
AcDbEntity
  8
0
 62
3
100
AcDbText
 10
-11.982817382707164
 20
-34.18110063690741
 30
0.0
 40
0.9558341062539211
  1
P(48)
 50
14.999999999999998
 11
-11.982817382707164
 21
-34.18110063690741
 31
0.0
100
AcDbAttribute
  2
NAME
 70
0
  0
ATTRIB
  5
133
330
17
100
AcDbEntity
  8
0
 62
4
100
AcDbText
 10
-11.735429312050101
 20
-35.104365485786
 30
0.0
 40
0.47791705312696053
  1
= -15.000
 50
14.999999999999998
 11
-11.735429312050101
 21
-35.104365485786
 31
0.0
100
AcDbAttribute
  2
XPOS
 70
0
  0
ATTRIB
  5
134
330
17
100
AcDbEntity
  8
0
 62
4
100
AcDbText
 10
-11.488041241393042
 20
-36.02763033466459
 30
0.0
 40
0.47791705312696053
  1
= -34.000
 50
14.999999999999998
 11
-11.488041241393042
 21
-36.02763033466459
 31
0.0
100
AcDbAttribute
  2
YPOS
 70
0
  0
SEQEND
  5
131
330
130
100
AcDbEntity
  8
0
  0
INSERT
  5
135
330
17
100
AcDbEntity
  8
0
100
AcDbBlockReference
 66
1
  2
FLAG
 10
41.0
 20
-82.0
 30
0.0
 41
2.227689433021264
 42
2.227689433021264
 43
2.227689433021264
 50
15.0
  0
ATTRIB
  5
137
330
17
100
AcDbEntity
  8
0
 62
3
100
AcDbText
 10
44.51595836037951
 20
-82.21103870039394
 30
0.0
 40
1.113844716510632
  1
P(49)
 50
14.999999999999998
 11
44.51595836037951
 21
-82.21103870039394
 31
0.0
100
AcDbAttribute
  2
NAME
 70
0
  0
ATTRIB
  5
138
330
17
100
AcDbEntity
  8
0
 62
4
100
AcDbText
 10
44.804242586299274
 20
-83.28693007854719
 30
0.0
 40
0.556922358255316
  1
= 41.000
 50
14.999999999999998
 11
44.804242586299274
 21
-83.28693007854719
 31
0.0
100
AcDbAttribute
  2
XPOS
 70
0
  0
ATTRIB
  5
139
330
17
100
AcDbEntity
  8
0
 62
4
100
AcDbText
 10
45.09252681221905
 20
-84.36282145670043
 30
0.0
 40
0.556922358255316
  1
= -82.000
 50
14.999999999999998
 11
45.09252681221905
 21
-84.36282145670043
 31
0.0
100
AcDbAttribute
  2
YPOS
 70
0
  0
SEQEND
  5
136
330
135
100
AcDbEntity
  8
0
  0
INSERT
  5
13A
330
17
100
AcDbEntity
  8
0
100
AcDbBlockReference
 66
1
  2
FLAG
 10
97.0
 20
21.0
 30
0.0
 41
1.2630475557043
 42
1.2630475557043
 43
1.2630475557043
 50
15.0
  0
ATTRIB
  5
13C
330
17
100
AcDbEntity
  8
0
 62
3
100
AcDbText
 10
98.99346576197233
 20
20.88034601648666
 30
0.0
 40
0.63152377785215
  1
P(50)
 50
14.999999999999998
 11
98.99346576197233
 21
20.88034601648666
 31
0.0
100
AcDbAttribute
  2
NAME
 70
0
  0
ATTRIB
  5
13D
330
17
100
AcDbEntity
  8
0
 62
4
100
AcDbText
 10
99.15691614311555
 20
20.270340889543625
 30
0.0
 40
0.315761888926075
  1
= 97.000
 50
14.999999999999998
 11
99.15691614311555
 21
20.270340889543625
 31
0.0
100
AcDbAttribute
  2
XPOS
 70
0
  0
ATTRIB
  5
13E
330
17
100
AcDbEntity
  8
0
 62
4
100
AcDbText
 10
99.32036652425879
 20
19.660335762600592
 30
0.0
 40
0.315761888926075
  1
= 21.000
 50
14.999999999999998
 11
99.32036652425879
 21
19.660335762600592
 31
0.0
100
AcDbAttribute
  2
YPOS
 70
0
  0
SEQEND
  5
13B
330
13A
100
AcDbEntity
  8
0
  0
ENDSEC
  0
SECTION
  2
OBJECTS
  0
DICTIONARY
  5
A
330
0
100
AcDbDictionary
280
0
281
1
  3
ACAD_COLOR
350
B
  3
ACAD_GROUP
350
C
  3
ACAD_LAYOUT
350
D
  3
ACAD_MATERIAL
350
E
  3
ACAD_MLEADERSTYLE
350
F
  3
ACAD_MLINESTYLE
350
10
  3
ACAD_PLOTSETTINGS
350
11
  3
ACAD_PLOTSTYLENAME
350
12
  3
ACAD_SCALELIST
350
14
  3
ACAD_TABLESTYLE
350
15
  3
ACAD_VISUALSTYLE
350
16
  3
EZDXF_META
350
2D
  0
DICTIONARY
  5
B
330
A
100
AcDbDictionary
280
0
281
1
  0
DICTIONARY
  5
C
330
A
100
AcDbDictionary
280
0
281
1
  0
DICTIONARY
  5
D
330
A
100
AcDbDictionary
280
0
281
1
  3
Model
350
1A
  3
Layout1
350
1E
  0
DICTIONARY
  5
E
330
A
100
AcDbDictionary
280
0
281
1
  3
ByBlock
350
1F
  3
ByLayer
350
20
  3
Global
350
21
  0
DICTIONARY
  5
F
330
A
100
AcDbDictionary
280
0
281
1
  3
Standard
350
2C
  0
DICTIONARY
  5
10
330
A
100
AcDbDictionary
280
0
281
1
  3
Standard
350
22
  0
DICTIONARY
  5
11
330
A
100
AcDbDictionary
280
0
281
1
  0
ACDBDICTIONARYWDFLT
  5
12
330
A
100
AcDbDictionary
280
0
281
1
  3
Normal
350
13
100
AcDbDictionaryWithDefault
340
13
  0
ACDBPLACEHOLDER
  5
13
330
12
  0
DICTIONARY
  5
14
330
A
100
AcDbDictionary
280
0
281
1
  0
DICTIONARY
  5
15
330
A
100
AcDbDictionary
280
0
281
1
  0
DICTIONARY
  5
16
330
A
100
AcDbDictionary
280
0
281
1
  0
LAYOUT
  5
1A
330
D
100
AcDbPlotSettings
  1

  4
A3
  6

 40
7.5
 41
20.0
 42
7.5
 43
20.0
 44
420.0
 45
297.0
 46
0.0
 47
0.0
 48
0.0
 49
0.0
140
0.0
141
0.0
142
1.0
143
1.0
 70
1024
 72
1
 73
0
 74
5
  7

 75
16
 76
0
 77
2
 78
300
147
1.0
148
0.0
149
0.0
100
AcDbLayout
  1
Model
 70
1
 71
0
 10
0.0
 20
0.0
 11
420.0
 21
297.0
 12
0.0
 22
0.0
 32
0.0
 14
1e+20
 24
1e+20
 34
1e+20
 15
-1e+20
 25
-1e+20
 35
-1e+20
146
0.0
 13
0.0
 23
0.0
 33
0.0
 16
1.0
 26
0.0
 36
0.0
 17
0.0
 27
1.0
 37
0.0
 76
1
330
17
  0
LAYOUT
  5
1E
330
D
100
AcDbPlotSettings
  1

  4
A3
  6

 40
7.5
 41
20.0
 42
7.5
 43
20.0
 44
420.0
 45
297.0
 46
0.0
 47
0.0
 48
0.0
 49
0.0
140
0.0
141
0.0
142
1.0
143
1.0
 70
0
 72
1
 73
0
 74
5
  7

 75
16
 76
0
 77
2
 78
300
147
1.0
148
0.0
149
0.0
100
AcDbLayout
  1
Layout1
 70
1
 71
1
 10
0.0
 20
0.0
 11
420.0
 21
297.0
 12
0.0
 22
0.0
 32
0.0
 14
1e+20
 24
1e+20
 34
1e+20
 15
-1e+20
 25
-1e+20
 35
-1e+20
146
0.0
 13
0.0
 23
0.0
 33
0.0
 16
1.0
 26
0.0
 36
0.0
 17
0.0
 27
1.0
 37
0.0
 76
1
330
1B
  0
MATERIAL
  5
1F
102
{ACAD_REACTORS
330
E
102
}
330
E
100
AcDbMaterial
  1
ByBlock
  2

 70
0
 40
1.0
 71
1
 41
1.0
 91
-1023410177
 42
1.0
 72
1
  3

 73
1
 74
1
 75
1
 44
0.5
 73
0
 45
1.0
 46
1.0
 77
1
  4

 78
1
 79
1
170
1
 48
1.0
171
1
  6

172
1
173
1
174
1
140
1.0
141
1.0
175
1
  7

176
1
177
1
178
1
143
1.0
179
1
  8

270
1
271
1
272
1
145
1.0
146
1.0
273
1
  9

274
1
275
1
276
1
 42
1.0
 72
1
  3

 73
1
 74
1
 75
1
 94
63
  0
MATERIAL
  5
20
102
{ACAD_REACTORS
330
E
102
}
330
E
100
AcDbMaterial
  1
ByLayer
  2

 70
0
 40
1.0
 71
1
 41
1.0
 91
-1023410177
 42
1.0
 72
1
  3

 73
1
 74
1
 75
1
 44
0.5
 73
0
 45
1.0
 46
1.0
 77
1
  4

 78
1
 79
1
170
1
 48
1.0
171
1
  6

172
1
173
1
174
1
140
1.0
141
1.0
175
1
  7

176
1
177
1
178
1
143
1.0
179
1
  8

270
1
271
1
272
1
145
1.0
146
1.0
273
1
  9

274
1
275
1
276
1
 42
1.0
 72
1
  3

 73
1
 74
1
 75
1
 94
63
  0
MATERIAL
  5
21
102
{ACAD_REACTORS
330
E
102
}
330
E
100
AcDbMaterial
  1
Global
  2

 70
0
 40
1.0
 71
1
 41
1.0
 91
-1023410177
 42
1.0
 72
1
  3

 73
1
 74
1
 75
1
 44
0.5
 73
0
 45
1.0
 46
1.0
 77
1
  4

 78
1
 79
1
170
1
 48
1.0
171
1
  6

172
1
173
1
174
1
140
1.0
141
1.0
175
1
  7

176
1
177
1
178
1
143
1.0
179
1
  8

270
1
271
1
272
1
145
1.0
146
1.0
273
1
  9

274
1
275
1
276
1
 42
1.0
 72
1
  3

 73
1
 74
1
 75
1
 94
63
  0
MLINESTYLE
  5
22
102
{ACAD_REACTORS
330
10
102
}
330
10
100
AcDbMlineStyle
  2
Standard
 70
0
  3

 62
256
 51
90.0
 52
90.0
 71
2
 49
0.5
 62
256
  6
BYLAYER
 49
-0.5
 62
256
  6
BYLAYER
  0
MLEADERSTYLE
  5
2C
102
{ACAD_REACTORS
330
F
102
}
330
F
100
AcDbMLeaderStyle
179
2
170
2
171
1
172
0
 90
2
 40
0.0
 41
0.0
173
1
 91
-1056964608
 92
-2
290
1
 42
2.0
291
1
 43
8.0
  3
Standard
 44
4.0
300

342
29
174
1
175
1
176
0
178
1
 93
-1056964608
 45
4.0
292
0
297
0
 46
4.0
 94
-1056964608
 47
1.0
 49
1.0
140
1.0
294
1
141
0.0
177
0
142
1.0
295
0
296
0
143
3.75
271
0
272
9
273
9
  0
DICTIONARY
  5
2D
330
A
100
AcDbDictionary
280
1
281
1
  3
CREATED_BY_EZDXF
350
2E
  3
WRITTEN_BY_EZDXF
350
141
  0
DICTIONARYVAR
  5
2E
330
2D
100
DictionaryVariables
280
0
  1
1.3.5 @ 2025-04-19T15:01:00.088180+00:00
  0
DICTIONARYVAR
  5
141
330
2D
100
DictionaryVariables
280
0
  1
1.3.5 @ 2025-04-19T15:01:00.098265+00:00
  0
ENDSEC
  0
EOF
