  0
SECTION
  2
HEADER
  9
$ACADVER
  1
AC1024
  9
$ACADMAINTVER
 70
6
  9
$DWGCODEPAGE
  3
ANSI_1252
  9
$LASTSAVEDBY
  1
ezdxf
  9
$INSBASE
 10
0.0
 20
0.0
 30
0.0
  9
$EXTMIN
 10
1e+20
 20
1e+20
 30
1e+20
  9
$EXTMAX
 10
-1e+20
 20
-1e+20
 30
-1e+20
  9
$LIMMIN
 10
0.0
 20
0.0
  9
$LIMMAX
 10
420.0
 20
297.0
  9
$ORTHOMODE
 70
0
  9
$REGENMODE
 70
1
  9
$FILLMODE
 70
1
  9
$QTEXTMODE
 70
0
  9
$MIRRTEXT
 70
1
  9
$LTSCALE
 40
1.0
  9
$ATTMODE
 70
1
  9
$TEXTSIZE
 40
2.5
  9
$TRACEWID
 40
1.0
  9
$TEXTSTYLE
  7
Standard
  9
$CLAYER
  8
0
  9
$CELTYPE
  6
ByLayer
  9
$CECOLOR
 62
256
  9
$CELTSCALE
 40
1.0
  9
$DISPSILH
 70
0
  9
$DIMSCALE
 40
1.0
  9
$DIMASZ
 40
2.5
  9
$DIMEXO
 40
0.625
  9
$DIMDLI
 40
3.75
  9
$DIMRND
 40
0.0
  9
$DIMDLE
 40
0.0
  9
$DIMEXE
 40
1.25
  9
$DIMTP
 40
0.0
  9
$DIMTM
 40
0.0
  9
$DIMTXT
 40
2.5
  9
$DIMCEN
 40
2.5
  9
$DIMTSZ
 40
0.0
  9
$DIMTOL
 70
0
  9
$DIMLIM
 70
0
  9
$DIMTIH
 70
0
  9
$DIMTOH
 70
0
  9
$DIMSE1
 70
0
  9
$DIMSE2
 70
0
  9
$DIMTAD
 70
1
  9
$DIMZIN
 70
8
  9
$DIMBLK
  1

  9
$DIMASO
 70
1
  9
$DIMSHO
 70
1
  9
$DIMPOST
  1

  9
$DIMAPOST
  1

  9
$DIMALT
 70
0
  9
$DIMALTD
 70
3
  9
$DIMALTF
 40
0.03937007874
  9
$DIMLFAC
 40
1.0
  9
$DIMTOFL
 70
1
  9
$DIMTVP
 40
0.0
  9
$DIMTIX
 70
0
  9
$DIMSOXD
 70
0
  9
$DIMSAH
 70
0
  9
$DIMBLK1
  1

  9
$DIMBLK2
  1

  9
$DIMSTYLE
  2
ISO-25
  9
$DIMCLRD
 70
0
  9
$DIMCLRE
 70
0
  9
$DIMCLRT
 70
0
  9
$DIMTFAC
 40
1.0
  9
$DIMGAP
 40
0.625
  9
$DIMJUST
 70
0
  9
$DIMSD1
 70
0
  9
$DIMSD2
 70
0
  9
$DIMTOLJ
 70
0
  9
$DIMTZIN
 70
8
  9
$DIMALTZ
 70
0
  9
$DIMALTTZ
 70
0
  9
$DIMUPT
 70
0
  9
$DIMDEC
 70
2
  9
$DIMTDEC
 70
2
  9
$DIMALTU
 70
2
  9
$DIMALTTD
 70
3
  9
$DIMTXSTY
  7
Standard
  9
$DIMAUNIT
 70
0
  9
$DIMADEC
 70
0
  9
$DIMALTRND
 40
0.0
  9
$DIMAZIN
 70
0
  9
$DIMDSEP
 70
44
  9
$DIMATFIT
 70
3
  9
$DIMFRAC
 70
0
  9
$DIMLDRBLK
  1

  9
$DIMLUNIT
 70
2
  9
$DIMLWD
 70
-2
  9
$DIMLWE
 70
-2
  9
$DIMTMOVE
 70
0
  9
$DIMFXL
 40
1.0
  9
$DIMFXLON
 70
0
  9
$DIMJOGANG
 40
0.785398163397
  9
$DIMTFILL
 70
0
  9
$DIMTFILLCLR
 70
0
  9
$DIMARCSYM
 70
0
  9
$DIMLTYPE
  6

  9
$DIMLTEX1
  6

  9
$DIMLTEX2
  6

  9
$DIMTXTDIRECTION
 70
0
  9
$LUNITS
 70
2
  9
$LUPREC
 70
4
  9
$SKETCHINC
 40
1.0
  9
$FILLETRAD
 40
10.0
  9
$AUNITS
 70
0
  9
$AUPREC
 70
2
  9
$MENU
  1
.
  9
$ELEVATION
 40
0.0
  9
$PELEVATION
 40
0.0
  9
$THICKNESS
 40
0.0
  9
$LIMCHECK
 70
0
  9
$CHAMFERA
 40
0.0
  9
$CHAMFERB
 40
0.0
  9
$CHAMFERC
 40
0.0
  9
$CHAMFERD
 40
0.0
  9
$SKPOLY
 70
0
  9
$TDCREATE
 40
2460787.447222222
  9
$TDUCREATE
 40
2458532.153996898
  9
$TDUPDATE
 40
2460787.447222222
  9
$TDUUPDATE
 40
2458532.1544311
  9
$TDINDWG
 40
0.0
  9
$TDUSRTIMER
 40
0.0
  9
$USRTIMER
 70
1
  9
$ANGBASE
 50
0.0
  9
$ANGDIR
 70
0
  9
$PDMODE
 70
0
  9
$PDSIZE
 40
0.0
  9
$PLINEWID
 40
0.0
  9
$SPLFRAME
 70
0
  9
$SPLINETYPE
 70
6
  9
$SPLINESEGS
 70
8
  9
$HANDSEED
  5
142
  9
$SURFTAB1
 70
6
  9
$SURFTAB2
 70
6
  9
$SURFTYPE
 70
6
  9
$SURFU
 70
6
  9
$SURFV
 70
6
  9
$UCSBASE
  2

  9
$UCSNAME
  2

  9
$UCSORG
 10
0.0
 20
0.0
 30
0.0
  9
$UCSXDIR
 10
1.0
 20
0.0
 30
0.0
  9
$UCSYDIR
 10
0.0
 20
1.0
 30
0.0
  9
$UCSORTHOREF
  2

  9
$UCSORTHOVIEW
 70
0
  9
$UCSORGTOP
 10
0.0
 20
0.0
 30
0.0
  9
$UCSORGBOTTOM
 10
0.0
 20
0.0
 30
0.0
  9
$UCSORGLEFT
 10
0.0
 20
0.0
 30
0.0
  9
$UCSORGRIGHT
 10
0.0
 20
0.0
 30
0.0
  9
$UCSORGFRONT
 10
0.0
 20
0.0
 30
0.0
  9
$UCSORGBACK
 10
0.0
 20
0.0
 30
0.0
  9
$PUCSBASE
  2

  9
$PUCSNAME
  2

  9
$PUCSORG
 10
0.0
 20
0.0
 30
0.0
  9
$PUCSXDIR
 10
1.0
 20
0.0
 30
0.0
  9
$PUCSYDIR
 10
0.0
 20
1.0
 30
0.0
  9
$PUCSORTHOREF
  2

  9
$PUCSORTHOVIEW
 70
0
  9
$PUCSORGTOP
 10
0.0
 20
0.0
 30
0.0
  9
$PUCSORGBOTTOM
 10
0.0
 20
0.0
 30
0.0
  9
$PUCSORGLEFT
 10
0.0
 20
0.0
 30
0.0
  9
$PUCSORGRIGHT
 10
0.0
 20
0.0
 30
0.0
  9
$PUCSORGFRONT
 10
0.0
 20
0.0
 30
0.0
  9
$PUCSORGBACK
 10
0.0
 20
0.0
 30
0.0
  9
$USERI1
 70
0
  9
$USERI2
 70
0
  9
$USERI3
 70
0
  9
$USERI4
 70
0
  9
$USERI5
 70
0
  9
$USERR1
 40
0.0
  9
$USERR2
 40
0.0
  9
$USERR3
 40
0.0
  9
$USERR4
 40
0.0
  9
$USERR5
 40
0.0
  9
$WORLDVIEW
 70
1
  9
$SHADEDGE
 70
3
  9
$SHADEDIF
 70
70
  9
$TILEMODE
 70
1
  9
$MAXACTVP
 70
64
  9
$PINSBASE
 10
0.0
 20
0.0
 30
0.0
  9
$PLIMCHECK
 70
0
  9
$PEXTMIN
 10
1e+20
 20
1e+20
 30
1e+20
  9
$PEXTMAX
 10
-1e+20
 20
-1e+20
 30
-1e+20
  9
$PLIMMIN
 10
0.0
 20
0.0
  9
$PLIMMAX
 10
420.0
 20
297.0
  9
$UNITMODE
 70
0
  9
$VISRETAIN
 70
1
  9
$PLINEGEN
 70
0
  9
$PSLTSCALE
 70
1
  9
$TREEDEPTH
 70
3020
  9
$CMLSTYLE
  2
Standard
  9
$CMLJUST
 70
0
  9
$CMLSCALE
 40
20.0
  9
$PROXYGRAPHICS
 70
1
  9
$MEASUREMENT
 70
1
  9
$CELWEIGHT
370
-1
  9
$ENDCAPS
280
0
  9
$JOINSTYLE
280
0
  9
$LWDISPLAY
290
0
  9
$INSUNITS
 70
6
  9
$HYPERLINKBASE
  1

  9
$STYLESHEET
  1

  9
$XEDIT
290
1
  9
$CEPSNTYPE
380
0
  9
$PSTYLEMODE
290
1
  9
$FINGERPRINTGUID
  2
{8BEA7C29-6786-42A0-A22B-066EA1F85F9B}
  9
$VERSIONGUID
  2
{CE9301FB-BF4F-400B-BC50-F3D6502B649E}
  9
$EXTNAMES
290
1
  9
$PSVPSCALE
 40
0.0
  9
$OLESTARTUP
290
0
  9
$SORTENTS
280
127
  9
$INDEXCTL
280
0
  9
$HIDETEXT
280
1
  9
$XCLIPFRAME
280
1
  9
$HALOGAP
280
0
  9
$OBSCOLOR
 70
257
  9
$OBSLTYPE
280
0
  9
$INTERSECTIONDISPLAY
280
0
  9
$INTERSECTIONCOLOR
 70
257
  9
$DIMASSOC
280
2
  9
$PROJECTNAME
  1

  9
$CAMERADISPLAY
290
0
  9
$LENSLENGTH
 40
50.0
  9
$CAMERAHEIGHT
 40
0.0
  9
$STEPSPERSEC
 40
24.0
  9
$STEPSIZE
 40
100.0
  9
$3DDWFPREC
 40
2.0
  9
$PSOLWIDTH
 40
0.005
  9
$PSOLHEIGHT
 40
0.08
  9
$LOFTANG1
 40
1.570796326795
  9
$LOFTANG2
 40
1.570796326795
  9
$LOFTMAG1
 40
0.0
  9
$LOFTMAG2
 40
0.0
  9
$LOFTPARAM
 70
7
  9
$LOFTNORMALS
280
1
  9
$LATITUDE
 40
37.795
  9
$LONGITUDE
 40
-122.394
  9
$NORTHDIRECTION
 40
0.0
  9
$TIMEZONE
 70
-8000
  9
$LIGHTGLYPHDISPLAY
280
1
  9
$TILEMODELIGHTSYNCH
280
1
  9
$CMATERIAL
347
20
  9
$SOLIDHIST
280
0
  9
$SHOWHIST
280
1
  9
$DWFFRAME
280
2
  9
$DGNFRAME
280
2
  9
$REALWORLDSCALE
290
1
  9
$INTERFERECOLOR
 62
256
  9
$CSHADOW
280
0
  9
$SHADOWPLANELOCATION
 40
0.0
  0
ENDSEC
  0
SECTION
  2
CLASSES
  0
CLASS
  1
ACDBDICTIONARYWDFLT
  2
AcDbDictionaryWithDefault
  3
ObjectDBX Classes
 90
0
 91
0
280
0
281
0
  0
CLASS
  1
SUN
  2
AcDbSun
  3
SCENEOE
 90
1153
 91
0
280
0
281
0
  0
CLASS
  1
VISUALSTYLE
  2
AcDbVisualStyle
  3
ObjectDBX Classes
 90
4095
 91
0
280
0
281
0
  0
CLASS
  1
MATERIAL
  2
AcDbMaterial
  3
ObjectDBX Classes
 90
1153
 91
0
280
0
281
0
  0
CLASS
  1
SCALE
  2
AcDbScale
  3
ObjectDBX Classes
 90
1153
 91
0
280
0
281
0
  0
CLASS
  1
TABLESTYLE
  2
AcDbTableStyle
  3
ObjectDBX Classes
 90
4095
 91
0
280
0
281
0
  0
CLASS
  1
MLEADERSTYLE
  2
AcDbMLeaderStyle
  3
ACDB_MLEADERSTYLE_CLASS
 90
4095
 91
0
280
0
281
0
  0
CLASS
  1
DICTIONARYVAR
  2
AcDbDictionaryVar
  3
ObjectDBX Classes
 90
0
 91
0
280
0
281
0
  0
CLASS
  1
CELLSTYLEMAP
  2
AcDbCellStyleMap
  3
ObjectDBX Classes
 90
1152
 91
0
280
0
281
0
  0
CLASS
  1
MENTALRAYRENDERSETTINGS
  2
AcDbMentalRayRenderSettings
  3
SCENEOE
 90
1024
 91
0
280
0
281
0
  0
CLASS
  1
ACDBDETAILVIEWSTYLE
  2
AcDbDetailViewStyle
  3
ObjectDBX Classes
 90
1025
 91
0
280
0
281
0
  0
CLASS
  1
ACDBSECTIONVIEWSTYLE
  2
AcDbSectionViewStyle
  3
ObjectDBX Classes
 90
1025
 91
0
280
0
281
0
  0
CLASS
  1
RASTERVARIABLES
  2
AcDbRasterVariables
  3
ISM
 90
0
 91
0
280
0
281
0
  0
CLASS
  1
ACDBPLACEHOLDER
  2
AcDbPlaceHolder
  3
ObjectDBX Classes
 90
0
 91
0
280
0
281
0
  0
CLASS
  1
LAYOUT
  2
AcDbLayout
  3
ObjectDBX Classes
 90
0
 91
0
280
0
281
0
  0
ENDSEC
  0
SECTION
  2
TABLES
  0
TABLE
  2
VPORT
  5
8
330
0
100
AcDbSymbolTable
 70
1
  0
VPORT
  5
23
330
8
100
AcDbSymbolTableRecord
100
AcDbViewportTableRecord
  2
*Active
 70
0
 10
0.0
 20
0.0
 11
1.0
 21
1.0
 12
0.0
 22
0.0
 13
0.0
 23
0.0
 14
0.5
 24
0.5
 15
0.5
 25
0.5
 16
0.0
 26
0.0
 36
1.0
 17
0.0
 27
0.0
 37
0.0
 40
1000.0
 41
1.34
 42
50.0
 43
0.0
 44
0.0
 50
0.0
 51
0.0
 71
0
 72
1000
 73
1
 74
3
 75
0
 76
0
 77
0
 78
0
281
0
 65
0
146
0.0
  0
ENDTAB
  0
TABLE
  2
LTYPE
  5
2
330
0
100
AcDbSymbolTable
 70
3
  0
LTYPE
  5
24
330
2
100
AcDbSymbolTableRecord
100
AcDbLinetypeTableRecord
  2
ByBlock
 70
0
  3

 72
65
 73
0
 40
0.0
  0
LTYPE
  5
25
330
2
100
AcDbSymbolTableRecord
100
AcDbLinetypeTableRecord
  2
ByLayer
 70
0
  3

 72
65
 73
0
 40
0.0
  0
LTYPE
  5
26
330
2
100
AcDbSymbolTableRecord
100
AcDbLinetypeTableRecord
  2
Continuous
 70
0
  3

 72
65
 73
0
 40
0.0
  0
ENDTAB
  0
TABLE
  2
LAYER
  5
1
330
0
100
AcDbSymbolTable
 70
2
  0
LAYER
  5
27
330
1
100
AcDbSymbolTableRecord
100
AcDbLayerTableRecord
  2
0
 70
0
 62
7
  6
Continuous
370
-3
390
13
347
21
  0
LAYER
  5
28
330
1
100
AcDbSymbolTableRecord
100
AcDbLayerTableRecord
  2
Defpoints
 70
0
 62
7
  6
Continuous
290
0
370
-3
390
13
347
21
  0
ENDTAB
  0
TABLE
  2
STYLE
  5
5
330
0
100
AcDbSymbolTable
 70
1
  0
STYLE
  5
29
330
5
100
AcDbSymbolTableRecord
100
AcDbTextStyleTableRecord
  2
Standard
 70
0
 40
0.0
 41
1.0
 50
0.0
 71
0
 42
2.5
  3
txt
  4

  0
ENDTAB
  0
TABLE
  2
VIEW
  5
7
330
0
100
AcDbSymbolTable
 70
0
  0
ENDTAB
  0
TABLE
  2
UCS
  5
6
330
0
100
AcDbSymbolTable
 70
0
  0
ENDTAB
  0
TABLE
  2
APPID
  5
3
330
0
100
AcDbSymbolTable
 70
3
  0
APPID
  5
2A
330
3
100
AcDbSymbolTableRecord
100
AcDbRegAppTableRecord
  2
ACAD
 70
0
  0
APPID
  5
13F
330
3
100
AcDbSymbolTableRecord
100
AcDbRegAppTableRecord
  2
HATCHBACKGROUNDCOLOR
 70
0
  0
APPID
  5
140
330
3
100
AcDbSymbolTableRecord
100
AcDbRegAppTableRecord
  2
EZDXF
 70
0
  0
ENDTAB
  0
TABLE
  2
DIMSTYLE
  5
4
330
0
100
AcDbSymbolTable
 70
1
100
AcDbDimStyleTable
  0
DIMSTYLE
105
2B
330
4
100
AcDbSymbolTableRecord
100
AcDbDimStyleTableRecord
  2
Standard
 70
0
 40
1.0
 41
2.5
 42
0.625
 43
3.75
 44
1.25
 45
0.0
 46
0.0
 47
0.0
 48
0.0
 49
2.5
140
2.5
141
2.5
142
0.0
143
0.03937007874
144
1.0
145
0.0
146
1.0
147
0.625
148
0.0
 69
0
 70
0
 71
0
 72
0
 73
0
 74
0
 75
0
 76
0
 77
1
 78
8
 79
3
170
0
171
3
172
1
173
0
174
0
175
0
176
0
177
0
178
0
179
2
271
2
272
2
273
2
274
3
275
0
276
0
277
2
278
44
279
0
280
0
281
0
282
0
283
0
284
8
285
0
286
0
288
0
289
3
290
0
371
-2
372
-2
  0
ENDTAB
  0
TABLE
  2
BLOCK_RECORD
  5
9
330
0
100
AcDbSymbolTable
 70
4
  0
BLOCK_RECORD
  5
17
330
9
100
AcDbSymbolTableRecord
100
AcDbBlockTableRecord
  2
*Model_Space
340
1A
 70
0
280
1
281
0
  0
BLOCK_RECORD
  5
1B
330
9
100
AcDbSymbolTableRecord
100
AcDbBlockTableRecord
  2
*Paper_Space
340
1E
 70
0
280
1
281
0
  0
BLOCK_RECORD
  5
2F
330
9
100
AcDbSymbolTableRecord
100
AcDbBlockTableRecord
  2
FLAG
340
0
 70
0
280
1
281
0
  0
BLOCK_RECORD
  5
38
330
9
100
AcDbSymbolTableRecord
100
AcDbBlockTableRecord
  2
штамп
340
0
 70
0
280
1
281
0
  0
ENDTAB
  0
ENDSEC
  0
SECTION
  2
BLOCKS
  0
BLOCK
  5
18
330
17
100
AcDbEntity
  8
0
100
AcDbBlockBegin
  2
*Model_Space
 70
0
 10
0.0
 20
0.0
 30
0.0
  3
*Model_Space
  1

  0
ENDBLK
  5
19
330
17
100
AcDbEntity
  8
0
100
AcDbBlockEnd
  0
BLOCK
  5
1C
330
1B
100
AcDbEntity
  8
0
100
AcDbBlockBegin
  2
*Paper_Space
 70
0
 10
0.0
 20
0.0
 30
0.0
  3
*Paper_Space
  1

  0
ENDBLK
  5
1D
330
1B
100
AcDbEntity
  8
0
100
AcDbBlockEnd
  0
BLOCK
  5
30
330
2F
100
AcDbEntity
  8
0
100
AcDbBlockBegin
  2
FLAG
 70
2
 10
0.0
 20
0.0
 30
0.0
  3
FLAG
  1

  0
TEXT
  5
32
330
2F
100
AcDbEntity
  8
0
 62
3
100
AcDbText
 10
0.0
 20
-0.5
 30
0.0
 40
0.5
  1
NAME:
100
AcDbText
  0
ATTDEF
  5
33
330
2F
100
AcDbEntity
  8
0
 62
3
100
AcDbText
 10
1.5
 20
-0.5
 30
0.0
 40
0.5
  1

100
AcDbAttributeDefinition
  3

  2
NAME
 70
0
  0
TEXT
  5
34
330
2F
100
AcDbEntity
  8
0
 62
4
100
AcDbText
 10
0.0
 20
-1.0
 30
0.0
 40
0.25
  1
XPOS:
100
AcDbText
  0
ATTDEF
  5
35
330
2F
100
AcDbEntity
  8
0
 62
4
100
AcDbText
 10
1.5
 20
-1.0
 30
0.0
 40
0.25
  1

100
AcDbAttributeDefinition
  3

  2
XPOS
 70
0
  0
TEXT
  5
36
330
2F
100
AcDbEntity
  8
0
 62
4
100
AcDbText
 10
0.0
 20
-1.5
 30
0.0
 40
0.25
  1
YPOS:
100
AcDbText
  0
ATTDEF
  5
37
330
2F
100
AcDbEntity
  8
0
 62
4
100
AcDbText
 10
1.5
 20
-1.5
 30
0.0
 40
0.25
  1

100
AcDbAttributeDefinition
  3

  2
YPOS
 70
0
  0
ENDBLK
  5
31
330
2F
100
AcDbEntity
  8
0
100
AcDbBlockEnd
  0
BLOCK
  5
39
330
38
100
AcDbEntity
  8
0
100
AcDbBlockBegin
  2
штамп
 70
2
 10
0.0
 20
0.0
 30
0.0
  3
штамп
  1

  0
LWPOLYLINE
  5
3D
330
38
100
AcDbEntity
  8
F_TitleBox
 62
4
100
AcDbPolyline
 90
5
 70
1
 10
-87.0
 20
-155.0
 10
-87.0
 20
142.0
 10
123.0
 20
142.0
 10
123.0
 20
-155.0
 10
-87.0
 20
-155.0
  0
LWPOLYLINE
  5
3E
330
38
100
AcDbEntity
  8
F_TitleBox
 62
2
100
AcDbPolyline
 90
5
 70
1
 43
0.4
 10
-67.0
 20
-150.0
 10
-67.0
 20
137.0
 10
118.0
 20
137.0
 10
118.0
 20
-150.0
 10
-67.0
 20
-150.0
  0
POINT
  5
3F
330
38
100
AcDbEntity
  8
POINTS
 62
1
100
AcDbPoint
 10
0.0
 20
0.0
 30
0.0
  0
TEXT
  5
40
330
38
100
AcDbEntity
  8
0
 62
3
100
AcDbText
 10
0.0
 20
0.0
 30
0.0
 40
0.5
  1
Name:
100
AcDbText
  0
ATTDEF
  5
41
330
38
100
AcDbEntity
  8
0
 62
3
100
AcDbText
 10
1.0
 20
0.0
 30
0.0
 40
0.5
  1

100
AcDbAttributeDefinition
  3

  2
NAME
 70
0
  0
ENDBLK
  5
3A
330
38
100
AcDbEntity
  8
0
100
AcDbBlockEnd
  0
ENDSEC
  0
SECTION
  2
ENTITIES
  0
INSERT
  5
3B
330
17
100
AcDbEntity
  8
F_TitleBox
100
AcDbBlockReference
  2
штамп
 10
0.0
 20
0.0
 30
0.0
  0
INSERT
  5
42
330
17
100
AcDbEntity
  8
0
100
AcDbBlockReference
 66
1
  2
штамп
 10
10.0
 20
20.0
 30
0.0
 41
3.8
 42
3.8
 43
3.8
 50
15.0
  0
ATTRIB
  5
44
330
17
100
AcDbEntity
  8
0
 62
3
100
AcDbText
 10
13.670518139898459
 20
20.98351237138958
 30
0.0
 40
1.9
  1
Object
 50
14.999999999999998
 11
13.670518139898459
 21
20.98351237138958
 31
0.0
100
AcDbAttribute
  2
NAME
 70
0
  0
SEQEND
  5
43
330
42
100
AcDbEntity
  8
0
  0
INSERT
  5
45
330
17
100
AcDbEntity
  8
0
100
AcDbBlockReference
 66
1
  2
FLAG
 10
-57.0
 20
43.0
 30
0.0
 41
0.5605492934950589
 42
0.5605492934950589
 43
0.5605492934950589
 50
15.0
  0
ATTRIB
  5
47
330
17
100
AcDbEntity
  8
0
 62
3
100
AcDbText
 10
-56.11528602431991
 20
42.94689672956544
 30
0.0
 40
0.28027464674752944
  1
P(1)
 50
14.999999999999998
 11
-56.11528602431991
 21
42.94689672956544
 31
0.0
100
AcDbAttribute
  2
NAME
 70
0
  0
ATTRIB
  5
48
330
17
100
AcDbEntity
  8
0
 62
4
100
AcDbText
 10
-56.04274560788227
 20
42.676172209817956
 30
0.0
 40
0.14013732337376472
  1
= -57.000
 50
14.999999999999998
 11
-56.04274560788227
 21
42.676172209817956
 31
0.0
100
AcDbAttribute
  2
XPOS
 70
0
  0
ATTRIB
  5
49
330
17
100
AcDbEntity
  8
0
 62
4
100
AcDbText
 10
-55.97020519144462
 20
42.405447690070474
 30
0.0
 40
0.14013732337376472
  1
= 43.000
 50
14.999999999999998
 11
-55.97020519144462
 21
42.405447690070474
 31
0.0
100
AcDbAttribute
  2
YPOS
 70
0
  0
SEQEND
  5
46
330
45
100
AcDbEntity
  8
0
  0
INSERT
  5
4A
330
17
100
AcDbEntity
  8
0
100
AcDbBlockReference
 66
1
  2
FLAG
 10
57.0
 20
-81.0
 30
0.0
 41
2.1544183961230026
 42
2.1544183961230026
 43
2.1544183961230026
 50
15.0
  0
ATTRIB
  5
4C
330
17
100
AcDbEntity
  8
0
 62
3
100
AcDbText
 10
60.40031481018915
 20
-81.20409741666995
 30
0.0
 40
1.0772091980615013
  1
P(2)
 50
15.000000000000002
 11
60.40031481018915
 21
-81.20409741666995
 31
0.0
100
AcDbAttribute
  2
NAME
 70
0
  0
ATTRIB
  5
4D
330
17
100
AcDbEntity
  8
0
 62
4
100
AcDbText
 10
60.679117066207084
 20
-82.2446016013937
 30
0.0
 40
0.5386045990307506
  1
= 57.000
 50
15.000000000000002
 11
60.679117066207084
 21
-82.2446016013937
 31
0.0
100
AcDbAttribute
  2
XPOS
 70
0
  0
ATTRIB
  5
4E
330
17
100
AcDbEntity
  8
0
 62
4
100
AcDbText
 10
60.95791932222501
 20
-83.28510578611743
 30
0.0
 40
0.5386045990307506
  1
= -81.000
 50
15.000000000000002
 11
60.95791932222501
 21
-83.28510578611743
 31
0.0
100
AcDbAttribute
  2
YPOS
 70
0
  0
SEQEND
  5
4B
330
4A
100
AcDbEntity
  8
0
  0
INSERT
  5
4F
330
17
100
AcDbEntity
  8
0
100
AcDbBlockReference
 66
1
  2
FLAG
 10
-64.0
 20
-83.0
 30
0.0
 41
0.5031743245609597
 42
0.5031743245609597
 43
0.5031743245609597
 50
15.0
  0
ATTRIB
  5
51
330
17
100
AcDbEntity
  8
0
 62
3
100
AcDbText
 10
-63.20584083807003
 20
-83.04766789030504
 30
0.0
 40
0.25158716228047984
  1
P(3)
 50
14.999999999999998
 11
-63.20584083807003
 21
-83.04766789030504
 31
0.0
100
AcDbAttribute
  2
NAME
 70
0
  0
ATTRIB
  5
52
330
17
100
AcDbEntity
  8
0
 62
4
100
AcDbText
 10
-63.14072528896855
 20
-83.29068242791453
 30
0.0
 40
0.12579358114023992
  1
= -64.000
 50
14.999999999999998
 11
-63.14072528896855
 21
-83.29068242791453
 31
0.0
100
AcDbAttribute
  2
XPOS
 70
0
  0
ATTRIB
  5
53
330
17
100
AcDbEntity
  8
0
 62
4
100
AcDbText
 10
-63.075609739867055
 20
-83.53369696552403
 30
0.0
 40
0.12579358114023992
  1
= -83.000
 50
14.999999999999998
 11
-63.075609739867055
 21
-83.53369696552403
 31
0.0
100
AcDbAttribute
  2
YPOS
 70
0
  0
SEQEND
  5
50
330
4F
100
AcDbEntity
  8
0
  0
INSERT
  5
54
330
17
100
AcDbEntity
  8
0
100
AcDbBlockReference
 66
1
  2
FLAG
 10
-38.0
 20
-17.0
 30
0.0
 41
1.079990441831999
 42
1.079990441831999
 43
1.079990441831999
 50
15.0
  0
ATTRIB
  5
56
330
17
100
AcDbEntity
  8
0
 62
3
100
AcDbText
 10
-36.295452962696295
 20
-17.102312187643225
 30
0.0
 40
0.5399952209159995
  1
P(4)
 50
14.999999999999998
 11
-36.295452962696295
 21
-17.102312187643225
 31
0.0
100
AcDbAttribute
  2
NAME
 70
0
  0
ATTRIB
  5
57
330
17
100
AcDbEntity
  8
0
 62
4
100
AcDbText
 10
-36.155691915258885
 20
-17.62390751759866
 30
0.0
 40
0.26999761045799975
  1
= -38.000
 50
14.999999999999998
 11
-36.155691915258885
 21
-17.62390751759866
 31
0.0
100
AcDbAttribute
  2
XPOS
 70
0
  0
ATTRIB
  5
58
330
17
100
AcDbEntity
  8
0
 62
4
100
AcDbText
 10
-36.01593086782148
 20
-18.14550284755409
 30
0.0
 40
0.26999761045799975
  1
= -17.000
 50
14.999999999999998
 11
-36.01593086782148
 21
-18.14550284755409
 31
0.0
100
AcDbAttribute
  2
YPOS
 70
0
  0
SEQEND
  5
55
330
54
100
AcDbEntity
  8
0
  0
INSERT
  5
59
330
17
100
AcDbEntity
  8
0
100
AcDbBlockReference
 66
1
  2
FLAG
 10
-93.0
 20
-99.0
 30
0.0
 41
1.924379222824476
 42
1.924379222824476
 43
1.924379222824476
 50
15.0
  0
ATTRIB
  5
5B
330
17
100
AcDbEntity
  8
0
 62
3
100
AcDbText
 10
-89.96275561721635
 20
-99.18230480615028
 30
0.0
 40
0.962189611412238
  1
P(5)
 50
14.999999999999998
 11
-89.96275561721635
 21
-99.18230480615028
 31
0.0
100
AcDbAttribute
  2
NAME
 70
0
  0
ATTRIB
  5
5C
330
17
100
AcDbEntity
  8
0
 62
4
100
AcDbText
 10
-89.71372262078307
 20
-100.1117086016004
 30
0.0
 40
0.481094805706119
  1
= -93.000
 50
14.999999999999998
 11
-89.71372262078307
 21
-100.1117086016004
 31
0.0
100
AcDbAttribute
  2
XPOS
 70
0
  0
ATTRIB
  5
5D
330
17
100
AcDbEntity
  8
0
 62
4
100
AcDbText
 10
-89.46468962434979
 20
-101.04111239705053
 30
0.0
 40
0.481094805706119
  1
= -99.000
 50
14.999999999999998
 11
-89.46468962434979
 21
-101.04111239705053
 31
0.0
100
AcDbAttribute
  2
YPOS
 70
0
  0
SEQEND
  5
5A
330
59
100
AcDbEntity
  8
0
  0
INSERT
  5
5E
330
17
100
AcDbEntity
  8
0
100
AcDbBlockReference
 66
1
  2
FLAG
 10
44.0
 20
-41.0
 30
0.0
 41
2.44434690978204
 42
2.44434690978204
 43
2.44434690978204
 50
15.0
  0
ATTRIB
  5
60
330
17
100
AcDbEntity
  8
0
 62
3
100
AcDbText
 10
47.85790847939706
 20
-41.231563604650546
 30
0.0
 40
1.22217345489102
  1
P(6)
 50
14.999999999999998
 11
47.85790847939706
 21
-41.231563604650546
 31
0.0
100
AcDbAttribute
  2
NAME
 70
0
  0
ATTRIB
  5
61
330
17
100
AcDbEntity
  8
0
 62
4
100
AcDbText
 10
48.17423024594161
 20
-42.41209250893472
 30
0.0
 40
0.61108672744551
  1
= 44.000
 50
14.999999999999998
 11
48.17423024594161
 21
-42.41209250893472
 31
0.0
100
AcDbAttribute
  2
XPOS
 70
0
  0
ATTRIB
  5
62
330
17
100
AcDbEntity
  8
0
 62
4
100
AcDbText
 10
48.49055201248615
 20
-43.59262141321889
 30
0.0
 40
0.61108672744551
  1
= -41.000
 50
14.999999999999998
 11
48.49055201248615
 21
-43.59262141321889
 31
0.0
100
AcDbAttribute
  2
YPOS
 70
0
  0
SEQEND
  5
5F
330
5E
100
AcDbEntity
  8
0
  0
INSERT
  5
63
330
17
100
AcDbEntity
  8
0
100
AcDbBlockReference
 66
1
  2
FLAG
 10
96.0
 20
-80.0
 30
0.0
 41
0.5766396060860639
 42
0.5766396060860639
 43
0.5766396060860639
 50
15.0
  0
ATTRIB
  5
65
330
17
100
AcDbEntity
  8
0
 62
3
100
AcDbText
 10
96.91010928807727
 20
-80.05462757566661
 30
0.0
 40
0.28831980304303195
  1
P(7)
 50
14.999999999999998
 11
96.91010928807727
 21
-80.05462757566661
 31
0.0
100
AcDbAttribute
  2
NAME
 70
0
  0
ATTRIB
  5
66
330
17
100
AcDbEntity
  8
0
 62
4
100
AcDbText
 10
96.98473194418501
 20
-80.33312311965645
 30
0.0
 40
0.14415990152151598
  1
= 96.000
 50
14.999999999999998
 11
96.98473194418501
 21
-80.33312311965645
 31
0.0
100
AcDbAttribute
  2
XPOS
 70
0
  0
ATTRIB
  5
67
330
17
100
AcDbEntity
  8
0
 62
4
100
AcDbText
 10
97.05935460029276
 20
-80.6116186636463
 30
0.0
 40
0.14415990152151598
  1
= -80.000
 50
14.999999999999998
 11
97.05935460029276
 21
-80.6116186636463
 31
0.0
100
AcDbAttribute
  2
YPOS
 70
0
  0
SEQEND
  5
64
330
63
100
AcDbEntity
  8
0
  0
INSERT
  5
68
330
17
100
AcDbEntity
  8
0
100
AcDbBlockReference
 66
1
  2
FLAG
 10
-21.0
 20
54.0
 30
0.0
 41
1.4386308782442374
 42
1.4386308782442374
 43
1.4386308782442374
 50
15.0
  0
ATTRIB
  5
6A
330
17
100
AcDbEntity
  8
0
 62
3
100
AcDbText
 10
-18.729411385229362
 20
53.86371224534675
 30
0.0
 40
0.7193154391221187
  1
P(8)
 50
15.000000000000002
 11
-18.729411385229362
 21
53.86371224534675
 31
0.0
100
AcDbAttribute
  2
NAME
 70
0
  0
ATTRIB
  5
6B
330
17
100
AcDbEntity
  8
0
 62
4
100
AcDbText
 10
-18.543238850148278
 20
53.16890688545023
 30
0.0
 40
0.35965771956105935
  1
= -21.000
 50
15.000000000000002
 11
-18.543238850148278
 21
53.16890688545023
 31
0.0
100
AcDbAttribute
  2
XPOS
 70
0
  0
ATTRIB
  5
6C
330
17
100
AcDbEntity
  8
0
 62
4
100
AcDbText
 10
-18.35706631506719
 20
52.47410152555371
 30
0.0
 40
0.35965771956105935
  1
= 54.000
 50
15.000000000000002
 11
-18.35706631506719
 21
52.47410152555371
 31
0.0
100
AcDbAttribute
  2
YPOS
 70
0
  0
SEQEND
  5
69
330
68
100
AcDbEntity
  8
0
  0
INSERT
  5
6D
330
17
100
AcDbEntity
  8
0
100
AcDbBlockReference
 66
1
  2
FLAG
 10
44.0
 20
-15.0
 30
0.0
 41
1.8320492789641578
 42
1.8320492789641578
 43
1.8320492789641578
 50
15.0
  0
ATTRIB
  5
6F
330
17
100
AcDbEntity
  8
0
 62
3
100
AcDbText
 10
46.89152019285975
 20
-15.173557989349476
 30
0.0
 40
0.916024639482079
  1
P(9)
 50
14.999999999999998
 11
46.89152019285975
 21
-15.173557989349476
 31
0.0
100
AcDbAttribute
  2
NAME
 70
0
  0
ATTRIB
  5
70
330
17
100
AcDbEntity
  8
0
 62
4
100
AcDbText
 10
47.128604815340886
 20
-16.058369846142348
 30
0.0
 40
0.4580123197410395
  1
= 44.000
 50
14.999999999999998
 11
47.128604815340886
 21
-16.058369846142348
 31
0.0
100
AcDbAttribute
  2
XPOS
 70
0
  0
ATTRIB
  5
71
330
17
100
AcDbEntity
  8
0
 62
4
100
AcDbText
 10
47.36568943782201
 20
-16.94318170293522
 30
0.0
 40
0.4580123197410395
  1
= -15.000
 50
14.999999999999998
 11
47.36568943782201
 21
-16.94318170293522
 31
0.0
100
AcDbAttribute
  2
YPOS
 70
0
  0
SEQEND
  5
6E
330
6D
100
AcDbEntity
  8
0
  0
INSERT
  5
72
330
17
100
AcDbEntity
  8
0
100
AcDbBlockReference
 66
1
  2
FLAG
 10
18.0
 20
65.0
 30
0.0
 41
0.7503247781529938
 42
0.7503247781529938
 43
0.7503247781529938
 50
15.0
  0
ATTRIB
  5
74
330
17
100
AcDbEntity
  8
0
 62
3
100
AcDbText
 10
19.18423629328305
 20
64.92891847323618
 30
0.0
 40
0.3751623890764969
  1
P(10)
 50
14.999999999999998
 11
19.18423629328305
 21
64.92891847323618
 31
0.0
100
AcDbAttribute
  2
NAME
 70
0
  0
ATTRIB
  5
75
330
17
100
AcDbEntity
  8
0
 62
4
100
AcDbText
 10
19.281335464582206
 20
64.56653943257488
 30
0.0
 40
0.18758119453824845
  1
= 18.000
 50
14.999999999999998
 11
19.281335464582206
 21
64.56653943257488
 31
0.0
100
AcDbAttribute
  2
XPOS
 70
0
  0
ATTRIB
  5
76
330
17
100
AcDbEntity
  8
0
 62
4
100
AcDbText
 10
19.378434635881366
 20
64.20416039191359
 30
0.0
 40
0.18758119453824845
  1
= 65.000
 50
14.999999999999998
 11
19.378434635881366
 21
64.20416039191359
 31
0.0
100
AcDbAttribute
  2
YPOS
 70
0
  0
SEQEND
  5
73
330
72
100
AcDbEntity
  8
0
  0
INSERT
  5
77
330
17
100
AcDbEntity
  8
0
100
AcDbBlockReference
 66
1
  2
FLAG
 10
-65.0
 20
66.0
 30
0.0
 41
2.3315901763570563
 42
2.3315901763570563
 43
2.3315901763570563
 50
15.0
  0
ATTRIB
  5
79
330
17
100
AcDbEntity
  8
0
 62
3
100
AcDbText
 10
-61.32005527699468
 20
65.77911833069014
 30
0.0
 40
1.1657950881785282
  1
P(11)
 50
14.999999999999998
 11
-61.32005527699468
 21
65.77911833069014
 31
0.0
100
AcDbAttribute
  2
NAME
 70
0
  0
ATTRIB
  5
7A
330
17
100
AcDbEntity
  8
0
 62
4
100
AcDbText
 10
-61.0183253054871
 20
64.65304674685757
 30
0.0
 40
0.5828975440892641
  1
= -65.000
 50
14.999999999999998
 11
-61.0183253054871
 21
64.65304674685757
 31
0.0
100
AcDbAttribute
  2
XPOS
 70
0
  0
ATTRIB
  5
7B
330
17
100
AcDbEntity
  8
0
 62
4
100
AcDbText
 10
-60.71659533397953
 20
63.52697516302498
 30
0.0
 40
0.5828975440892641
  1
= 66.000
 50
14.999999999999998
 11
-60.71659533397953
 21
63.52697516302498
 31
0.0
100
AcDbAttribute
  2
YPOS
 70
0
  0
SEQEND
  5
78
330
77
100
AcDbEntity
  8
0
  0
INSERT
  5
7C
330
17
100
AcDbEntity
  8
0
100
AcDbBlockReference
 66
1
  2
FLAG
 10
-75.0
 20
-40.0
 30
0.0
 41
0.5781723273076105
 42
0.5781723273076105
 43
0.5781723273076105
 50
15.0
  0
ATTRIB
  5
7E
330
17
100
AcDbEntity
  8
0
 62
3
100
AcDbText
 10
-74.08747162068265
 20
-40.05477277700835
 30
0.0
 40
0.28908616365380524
  1
P(12)
 50
14.999999999999996
 11
-74.08747162068265
 21
-40.05477277700835
 31
0.0
100
AcDbAttribute
  2
NAME
 70
0
  0
ATTRIB
  5
7F
330
17
100
AcDbEntity
  8
0
 62
4
100
AcDbText
 10
-74.01265061585343
 20
-40.33400856850439
 30
0.0
 40
0.14454308182690262
  1
= -75.000
 50
14.999999999999996
 11
-74.01265061585343
 21
-40.33400856850439
 31
0.0
100
AcDbAttribute
  2
XPOS
 70
0
  0
ATTRIB
  5
80
330
17
100
AcDbEntity
  8
0
 62
4
100
AcDbText
 10
-73.9378296110242
 20
-40.61324436000043
 30
0.0
 40
0.14454308182690262
  1
= -40.000
 50
14.999999999999996
 11
-73.9378296110242
 21
-40.61324436000043
 31
0.0
100
AcDbAttribute
  2
YPOS
 70
0
  0
SEQEND
  5
7D
330
7C
100
AcDbEntity
  8
0
  0
INSERT
  5
81
330
17
100
AcDbEntity
  8
0
100
AcDbBlockReference
 66
1
  2
FLAG
 10
-15.0
 20
98.0
 30
0.0
 41
1.2999216284306052
 42
1.2999216284306052
 43
1.2999216284306052
 50
15.0
  0
ATTRIB
  5
83
330
17
100
AcDbEntity
  8
0
 62
3
100
AcDbText
 10
-12.948335953131442
 20
97.87685277534135
 30
0.0
 40
0.6499608142153026
  1
P(13)
 50
14.999999999999998
 11
-12.948335953131442
 21
97.87685277534135
 31
0.0
100
AcDbAttribute
  2
NAME
 70
0
  0
ATTRIB
  5
84
330
17
100
AcDbEntity
  8
0
 62
4
100
AcDbText
 10
-12.780113715842182
 20
97.24903883881493
 30
0.0
 40
0.3249804071076513
  1
= -15.000
 50
14.999999999999998
 11
-12.780113715842182
 21
97.24903883881493
 31
0.0
100
AcDbAttribute
  2
XPOS
 70
0
  0
ATTRIB
  5
85
330
17
100
AcDbEntity
  8
0
 62
4
100
AcDbText
 10
-12.61189147855292
 20
96.62122490228849
 30
0.0
 40
0.3249804071076513
  1
= 98.000
 50
14.999999999999998
 11
-12.61189147855292
 21
96.62122490228849
 31
0.0
100
AcDbAttribute
  2
YPOS
 70
0
  0
SEQEND
  5
82
330
81
100
AcDbEntity
  8
0
  0
INSERT
  5
86
330
17
100
AcDbEntity
  8
0
100
AcDbBlockReference
 66
1
  2
FLAG
 10
96.0
 20
52.0
 30
0.0
 41
2.188952164597066
 42
2.188952164597066
 43
2.188952164597066
 50
15.0
  0
ATTRIB
  5
88
330
17
100
AcDbEntity
  8
0
 62
3
100
AcDbText
 10
99.45481939695155
 20
51.79263104937633
 30
0.0
 40
1.094476082298533
  1
P(14)
 50
14.999999999999998
 11
99.45481939695155
 21
51.79263104937633
 31
0.0
100
AcDbAttribute
  2
NAME
 70
0
  0
ATTRIB
  5
89
330
17
100
AcDbEntity
  8
0
 62
4
100
AcDbText
 10
99.7380906514596
 20
50.7354483352285
 30
0.0
 40
0.5472380411492666
  1
= 96.000
 50
14.999999999999998
 11
99.7380906514596
 21
50.7354483352285
 31
0.0
100
AcDbAttribute
  2
XPOS
 70
0
  0
ATTRIB
  5
8A
330
17
100
AcDbEntity
  8
0
 62
4
100
AcDbText
 10
100.02136190596767
 20
49.67826562108066
 30
0.0
 40
0.5472380411492666
  1
= 52.000
 50
14.999999999999998
 11
100.02136190596767
 21
49.67826562108066
 31
0.0
100
AcDbAttribute
  2
YPOS
 70
0
  0
SEQEND
  5
87
330
86
100
AcDbEntity
  8
0
  0
INSERT
  5
8B
330
17
100
AcDbEntity
  8
0
100
AcDbBlockReference
 66
1
  2
FLAG
 10
0.0
 20
-42.0
 30
0.0
 41
2.3407297041934547
 42
2.3407297041934547
 43
2.3407297041934547
 50
15.0
  0
ATTRIB
  5
8D
330
17
100
AcDbEntity
  8
0
 62
3
100
AcDbText
 10
3.694369623904872
 20
-42.22174749649753
 30
0.0
 40
1.1703648520967274
  1
P(15)
 50
14.999999999999998
 11
3.694369623904872
 21
-42.22174749649753
 31
0.0
100
AcDbAttribute
  2
NAME
 70
0
  0
ATTRIB
  5
8E
330
17
100
AcDbEntity
  8
0
 62
4
100
AcDbText
 10
3.9972823373460997
 20
-43.35223313331875
 30
0.0
 40
0.5851824260483637
  1
= 0.000
 50
14.999999999999998
 11
3.9972823373460997
 21
-43.35223313331875
 31
0.0
100
AcDbAttribute
  2
XPOS
 70
0
  0
ATTRIB
  5
8F
330
17
100
AcDbEntity
  8
0
 62
4
100
AcDbText
 10
4.300195050787328
 20
-44.48271877013996
 30
0.0
 40
0.5851824260483637
  1
= -42.000
 50
14.999999999999998
 11
4.300195050787328
 21
-44.48271877013996
 31
0.0
100
AcDbAttribute
  2
YPOS
 70
0
  0
SEQEND
  5
8C
330
8B
100
AcDbEntity
  8
0
  0
INSERT
  5
90
330
17
100
AcDbEntity
  8
0
100
AcDbBlockReference
 66
1
  2
FLAG
 10
-93.0
 20
-89.0
 30
0.0
 41
1.9667181226901391
 42
1.9667181226901391
 43
1.9667181226901391
 50
15.0
  0
ATTRIB
  5
92
330
17
100
AcDbEntity
  8
0
 62
3
100
AcDbText
 10
-89.89593220514402
 20
-89.18631575411786
 30
0.0
 40
0.9833590613450696
  1
P(16)
 50
14.999999999999998
 11
-89.89593220514402
 21
-89.18631575411786
 31
0.0
100
AcDbAttribute
  2
NAME
 70
0
  0
ATTRIB
  5
93
330
17
100
AcDbEntity
  8
0
 62
4
100
AcDbText
 10
-89.64142015189378
 20
-90.13616766798643
 30
0.0
 40
0.4916795306725348
  1
= -93.000
 50
14.999999999999998
 11
-89.64142015189378
 21
-90.13616766798643
 31
0.0
100
AcDbAttribute
  2
XPOS
 70
0
  0
ATTRIB
  5
94
330
17
100
AcDbEntity
  8
0
 62
4
100
AcDbText
 10
-89.38690809864353
 20
-91.08601958185501
 30
0.0
 40
0.4916795306725348
  1
= -89.000
 50
14.999999999999998
 11
-89.38690809864353
 21
-91.08601958185501
 31
0.0
100
AcDbAttribute
  2
YPOS
 70
0
  0
SEQEND
  5
91
330
90
100
AcDbEntity
  8
0
  0
INSERT
  5
95
330
17
100
AcDbEntity
  8
0
100
AcDbBlockReference
 66
1
  2
FLAG
 10
100.0
 20
14.0
 30
0.0
 41
1.383607593683815
 42
1.383607593683815
 43
1.383607593683815
 50
15.0
  0
ATTRIB
  5
97
330
17
100
AcDbEntity
  8
0
 62
3
100
AcDbText
 10
102.18374546038022
 20
13.868924840196328
 30
0.0
 40
0.6918037968419075
  1
P(17)
 50
14.999999999999998
 11
102.18374546038022
 21
13.868924840196328
 31
0.0
100
AcDbAttribute
  2
NAME
 70
0
  0
ATTRIB
  5
98
330
17
100
AcDbEntity
  8
0
 62
4
100
AcDbText
 10
102.36279745847715
 20
13.200693686101895
 30
0.0
 40
0.34590189842095376
  1
= 100.000
 50
14.999999999999998
 11
102.36279745847715
 21
13.200693686101895
 31
0.0
100
AcDbAttribute
  2
XPOS
 70
0
  0
ATTRIB
  5
99
330
17
100
AcDbEntity
  8
0
 62
4
100
AcDbText
 10
102.54184945657407
 20
12.53246253200746
 30
0.0
 40
0.34590189842095376
  1
= 14.000
 50
14.999999999999998
 11
102.54184945657407
 21
12.53246253200746
 31
0.0
100
AcDbAttribute
  2
YPOS
 70
0
  0
SEQEND
  5
96
330
95
100
AcDbEntity
  8
0
  0
INSERT
  5
9A
330
17
100
AcDbEntity
  8
0
100
AcDbBlockReference
 66
1
  2
FLAG
 10
-95.0
 20
83.0
 30
0.0
 41
1.408731993486436
 42
1.408731993486436
 43
1.408731993486436
 50
15.0
  0
ATTRIB
  5
9C
330
17
100
AcDbEntity
  8
0
 62
3
100
AcDbText
 10
-92.77660074307789
 20
82.86654469662518
 30
0.0
 40
0.704365996743218
  1
P(18)
 50
14.999999999999998
 11
-92.77660074307789
 21
82.86654469662518
 31
0.0
100
AcDbAttribute
  2
NAME
 70
0
  0
ATTRIB
  5
9D
330
17
100
AcDbEntity
  8
0
 62
4
100
AcDbText
 10
-92.59429740839812
 20
82.18617938921106
 30
0.0
 40
0.352182998371609
  1
= -95.000
 50
14.999999999999998
 11
-92.59429740839812
 21
82.18617938921106
 31
0.0
100
AcDbAttribute
  2
XPOS
 70
0
  0
ATTRIB
  5
9E
330
17
100
AcDbEntity
  8
0
 62
4
100
AcDbText
 10
-92.41199407371836
 20
81.50581408179694
 30
0.0
 40
0.352182998371609
  1
= 83.000
 50
14.999999999999998
 11
-92.41199407371836
 21
81.50581408179694
 31
0.0
100
AcDbAttribute
  2
YPOS
 70
0
  0
SEQEND
  5
9B
330
9A
100
AcDbEntity
  8
0
  0
INSERT
  5
9F
330
17
100
AcDbEntity
  8
0
100
AcDbBlockReference
 66
1
  2
FLAG
 10
100.0
 20
-69.0
 30
0.0
 41
0.9600280927969804
 42
0.9600280927969804
 43
0.9600280927969804
 50
15.0
  0
ATTRIB
  5
A1
330
17
100
AcDbEntity
  8
0
 62
3
100
AcDbText
 10
101.51521067031811
 20
-69.09094763302386
 30
0.0
 40
0.48001404639849016
  1
P(19)
 50
14.999999999999998
 41
1.0000000000000002
 11
101.51521067031811
 21
-69.09094763302386
 31
0.0
100
AcDbAttribute
  2
NAME
 70
0
  0
ATTRIB
  5
A2
330
17
100
AcDbEntity
  8
0
 62
4
100
AcDbText
 10
101.63944744744278
 20
-69.55460559742168
 30
0.0
 40
0.24000702319924508
  1
= 100.000
 50
14.999999999999998
 41
1.0000000000000002
 11
101.63944744744278
 21
-69.55460559742168
 31
0.0
100
AcDbAttribute
  2
XPOS
 70
0
  0
ATTRIB
  5
A3
330
17
100
AcDbEntity
  8
0
 62
4
100
AcDbText
 10
101.76368422456743
 20
-70.0182635618195
 30
0.0
 40
0.24000702319924508
  1
= -69.000
 50
14.999999999999998
 41
1.0000000000000002
 11
101.76368422456743
 21
-70.0182635618195
 31
0.0
100
AcDbAttribute
  2
YPOS
 70
0
  0
SEQEND
  5
A0
330
9F
100
AcDbEntity
  8
0
  0
INSERT
  5
A4
330
17
100
AcDbEntity
  8
0
100
AcDbBlockReference
 66
1
  2
FLAG
 10
-27.0
 20
-28.0
 30
0.0
 41
1.3198753743033103
 42
1.3198753743033103
 43
1.3198753743033103
 50
15.0
  0
ATTRIB
  5
A6
330
17
100
AcDbEntity
  8
0
 62
3
100
AcDbText
 10
-24.916842990700466
 20
-28.125037529713985
 30
0.0
 40
0.6599376871516551
  1
P(20)
 50
14.999999999999998
 11
-24.916842990700466
 21
-28.125037529713985
 31
0.0
100
AcDbAttribute
  2
NAME
 70
0
  0
ATTRIB
  5
A7
330
17
100
AcDbEntity
  8
0
 62
4
100
AcDbText
 10
-24.74603854868471
 20
-28.762488385475248
 30
0.0
 40
0.32996884357582756
  1
= -27.000
 50
14.999999999999998
 11
-24.74603854868471
 21
-28.762488385475248
 31
0.0
100
AcDbAttribute
  2
XPOS
 70
0
  0
ATTRIB
  5
A8
330
17
100
AcDbEntity
  8
0
 62
4
100
AcDbText
 10
-24.57523410666895
 20
-29.399939241236506
 30
0.0
 40
0.32996884357582756
  1
= -28.000
 50
14.999999999999998
 11
-24.57523410666895
 21
-29.399939241236506
 31
0.0
100
AcDbAttribute
  2
YPOS
 70
0
  0
SEQEND
  5
A5
330
A4
100
AcDbEntity
  8
0
  0
INSERT
  5
A9
330
17
100
AcDbEntity
  8
0
100
AcDbBlockReference
 66
1
  2
FLAG
 10
38.0
 20
-92.0
 30
0.0
 41
1.5926646061793908
 42
1.5926646061793908
 43
1.5926646061793908
 50
15.0
  0
ATTRIB
  5
AB
330
17
100
AcDbEntity
  8
0
 62
3
100
AcDbText
 10
40.51369977985774
 20
-92.1508800390527
 30
0.0
 40
0.7963323030896954
  1
P(21)
 50
14.999999999999998
 11
40.51369977985774
 21
-92.1508800390527
 31
0.0
100
AcDbAttribute
  2
NAME
 70
0
  0
ATTRIB
  5
AC
330
17
100
AcDbEntity
  8
0
 62
4
100
AcDbText
 10
40.719805746127705
 20
-92.92007797691528
 30
0.0
 40
0.3981661515448477
  1
= 38.000
 50
14.999999999999998
 11
40.719805746127705
 21
-92.92007797691528
 31
0.0
100
AcDbAttribute
  2
XPOS
 70
0
  0
ATTRIB
  5
AD
330
17
100
AcDbEntity
  8
0
 62
4
100
AcDbText
 10
40.92591171239767
 20
-93.68927591477788
 30
0.0
 40
0.3981661515448477
  1
= -92.000
 50
14.999999999999998
 11
40.92591171239767
 21
-93.68927591477788
 31
0.0
100
AcDbAttribute
  2
YPOS
 70
0
  0
SEQEND
  5
AA
330
A9
100
AcDbEntity
  8
0
  0
INSERT
  5
AE
330
17
100
AcDbEntity
  8
0
100
AcDbBlockReference
 66
1
  2
FLAG
 10
-53.0
 20
94.0
 30
0.0
 41
1.4154871366124864
 42
1.4154871366124864
 43
1.4154871366124864
 50
15.0
  0
ATTRIB
  5
B0
330
17
100
AcDbEntity
  8
0
 62
3
100
AcDbText
 10
-50.765939112422586
 20
93.86590475256244
 30
0.0
 40
0.7077435683062432
  1
P(22)
 50
14.999999999999998
 11
-50.765939112422586
 21
93.86590475256244
 31
0.0
100
AcDbAttribute
  2
NAME
 70
0
  0
ATTRIB
  5
B1
330
17
100
AcDbEntity
  8
0
 62
4
100
AcDbText
 10
-50.58276159789611
 20
93.18227696154545
 30
0.0
 40
0.3538717841531216
  1
= -53.000
 50
14.999999999999998
 11
-50.58276159789611
 21
93.18227696154545
 31
0.0
100
AcDbAttribute
  2
XPOS
 70
0
  0
ATTRIB
  5
B2
330
17
100
AcDbEntity
  8
0
 62
4
100
AcDbText
 10
-50.39958408336964
 20
92.49864917052847
 30
0.0
 40
0.3538717841531216
  1
= 94.000
 50
14.999999999999998
 11
-50.39958408336964
 21
92.49864917052847
 31
0.0
100
AcDbAttribute
  2
YPOS
 70
0
  0
SEQEND
  5
AF
330
AE
100
AcDbEntity
  8
0
  0
INSERT
  5
B3
330
17
100
AcDbEntity
  8
0
100
AcDbBlockReference
 66
1
  2
FLAG
 10
-62.0
 20
-22.0
 30
0.0
 41
1.7506898152812342
 42
1.7506898152812342
 43
1.7506898152812342
 50
15.0
  0
ATTRIB
  5
B5
330
17
100
AcDbEntity
  8
0
 62
3
100
AcDbText
 10
-59.23688930726703
 20
-22.165850453807995
 30
0.0
 40
0.8753449076406171
  1
P(23)
 50
14.999999999999998
 11
-59.23688930726703
 21
-22.165850453807995
 31
0.0
100
AcDbAttribute
  2
NAME
 70
0
  0
ATTRIB
  5
B6
330
17
100
AcDbEntity
  8
0
 62
4
100
AcDbText
 10
-59.01033337413613
 20
-23.011368707008685
 30
0.0
 40
0.43767245382030856
  1
= -62.000
 50
14.999999999999998
 11
-59.01033337413613
 21
-23.011368707008685
 31
0.0
100
AcDbAttribute
  2
XPOS
 70
0
  0
ATTRIB
  5
B7
330
17
100
AcDbEntity
  8
0
 62
4
100
AcDbText
 10
-58.78377744100523
 20
-23.856886960209376
 30
0.0
 40
0.43767245382030856
  1
= -22.000
 50
14.999999999999998
 11
-58.78377744100523
 21
-23.856886960209376
 31
0.0
100
AcDbAttribute
  2
YPOS
 70
0
  0
SEQEND
  5
B4
330
B3
100
AcDbEntity
  8
0
  0
INSERT
  5
B8
330
17
100
AcDbEntity
  8
0
100
AcDbBlockReference
 66
1
  2
FLAG
 10
-45.0
 20
72.0
 30
0.0
 41
1.5343038488479683
 42
1.5343038488479683
 43
1.5343038488479683
 50
15.0
  0
ATTRIB
  5
BA
330
17
100
AcDbEntity
  8
0
 62
3
100
AcDbText
 10
-42.57841090200657
 20
71.85464872909544
 30
0.0
 40
0.7671519244239842
  1
P(24)
 50
14.999999999999998
 11
-42.57841090200657
 21
71.85464872909544
 31
0.0
100
AcDbAttribute
  2
NAME
 70
0
  0
ATTRIB
  5
BB
330
17
100
AcDbEntity
  8
0
 62
4
100
AcDbText
 10
-42.379857373478586
 20
71.11363687260696
 30
0.0
 40
0.3835759622119921
  1
= -45.000
 50
14.999999999999998
 11
-42.379857373478586
 21
71.11363687260696
 31
0.0
100
AcDbAttribute
  2
XPOS
 70
0
  0
ATTRIB
  5
BC
330
17
100
AcDbEntity
  8
0
 62
4
100
AcDbText
 10
-42.18130384495061
 20
70.37262501611848
 30
0.0
 40
0.3835759622119921
  1
= 72.000
 50
14.999999999999998
 11
-42.18130384495061
 21
70.37262501611848
 31
0.0
100
AcDbAttribute
  2
YPOS
 70
0
  0
SEQEND
  5
B9
330
B8
100
AcDbEntity
  8
0
  0
INSERT
  5
BD
330
17
100
AcDbEntity
  8
0
100
AcDbBlockReference
 66
1
  2
FLAG
 10
36.0
 20
-8.0
 30
0.0
 41
2.178462608678561
 42
2.178462608678561
 43
2.178462608678561
 50
15.0
  0
ATTRIB
  5
BF
330
17
100
AcDbEntity
  8
0
 62
3
100
AcDbText
 10
39.438263749076384
 20
-8.206375229409241
 30
0.0
 40
1.0892313043392803
  1
P(25)
 50
14.999999999999998
 41
1.0000000000000002
 11
39.438263749076384
 21
-8.206375229409241
 31
0.0
100
AcDbAttribute
  2
NAME
 70
0
  0
ATTRIB
  5
C0
330
17
100
AcDbEntity
  8
0
 62
4
100
AcDbText
 10
39.72017755516125
 20
-9.25849187707308
 30
0.0
 40
0.5446156521696401
  1
= 36.000
 50
14.999999999999998
 41
1.0000000000000002
 11
39.72017755516125
 21
-9.25849187707308
 31
0.0
100
AcDbAttribute
  2
XPOS
 70
0
  0
ATTRIB
  5
C1
330
17
100
AcDbEntity
  8
0
 62
4
100
AcDbText
 10
40.002091361246116
 20
-10.31060852473692
 30
0.0
 40
0.5446156521696401
  1
= -8.000
 50
14.999999999999998
 41
1.0000000000000002
 11
40.002091361246116
 21
-10.31060852473692
 31
0.0
100
AcDbAttribute
  2
YPOS
 70
0
  0
SEQEND
  5
BE
330
BD
100
AcDbEntity
  8
0
  0
INSERT
  5
C2
330
17
100
AcDbEntity
  8
0
100
AcDbBlockReference
 66
1
  2
FLAG
 10
-77.0
 20
13.0
 30
0.0
 41
1.6786672119142103
 42
1.6786672119142103
 43
1.6786672119142103
 50
15.0
  0
ATTRIB
  5
C4
330
17
100
AcDbEntity
  8
0
 62
3
100
AcDbText
 10
-74.35056245698483
 20
12.84097256038252
 30
0.0
 40
0.839333605957105
  1
P(26)
 50
14.999999999999998
 11
-74.35056245698483
 21
12.84097256038252
 31
0.0
100
AcDbAttribute
  2
NAME
 70
0
  0
ATTRIB
  5
C5
330
17
100
AcDbEntity
  8
0
 62
4
100
AcDbText
 10
-74.13332693456856
 20
12.03023855351622
 30
0.0
 40
0.4196668029785525
  1
= -77.000
 50
14.999999999999998
 11
-74.13332693456856
 21
12.03023855351622
 31
0.0
100
AcDbAttribute
  2
XPOS
 70
0
  0
ATTRIB
  5
C6
330
17
100
AcDbEntity
  8
0
 62
4
100
AcDbText
 10
-73.91609141215228
 20
11.21950454664992
 30
0.0
 40
0.4196668029785525
  1
= 13.000
 50
14.999999999999998
 11
-73.91609141215228
 21
11.21950454664992
 31
0.0
100
AcDbAttribute
  2
YPOS
 70
0
  0
SEQEND
  5
C3
330
C2
100
AcDbEntity
  8
0
  0
INSERT
  5
C7
330
17
100
AcDbEntity
  8
0
100
AcDbBlockReference
 66
1
  2
FLAG
 10
-69.0
 20
8.0
 30
0.0
 41
1.1733190835722167
 42
1.1733190835722167
 43
1.1733190835722167
 50
15.0
  0
ATTRIB
  5
C9
330
17
100
AcDbEntity
  8
0
 62
3
100
AcDbText
 10
-67.14815252964429
 20
7.8888463845659755
 30
0.0
 40
0.5866595417861084
  1
P(27)
 50
14.999999999999998
 11
-67.14815252964429
 21
7.8888463845659755
 31
0.0
100
AcDbAttribute
  2
NAME
 70
0
  0
ATTRIB
  5
CA
330
17
100
AcDbEntity
  8
0
 62
4
100
AcDbText
 10
-66.99631386723894
 20
7.3221767819158625
 30
0.0
 40
0.2933297708930542
  1
= -69.000
 50
14.999999999999998
 11
-66.99631386723894
 21
7.3221767819158625
 31
0.0
100
AcDbAttribute
  2
XPOS
 70
0
  0
ATTRIB
  5
CB
330
17
100
AcDbEntity
  8
0
 62
4
100
AcDbText
 10
-66.84447520483357
 20
6.75550717926575
 30
0.0
 40
0.2933297708930542
  1
= 8.000
 50
14.999999999999998
 11
-66.84447520483357
 21
6.75550717926575
 31
0.0
100
AcDbAttribute
  2
YPOS
 70
0
  0
SEQEND
  5
C8
330
C7
100
AcDbEntity
  8
0
  0
INSERT
  5
CC
330
17
100
AcDbEntity
  8
0
100
AcDbBlockReference
 66
1
  2
FLAG
 10
6.0
 20
-78.0
 30
0.0
 41
0.9405760114302968
 42
0.9405760114302968
 43
0.9405760114302968
 50
15.0
  0
ATTRIB
  5
CE
330
17
100
AcDbEntity
  8
0
 62
3
100
AcDbText
 10
7.484509484105092
 20
-78.08910485282715
 30
0.0
 40
0.4702880057151484
  1
P(28)
 50
14.999999999999998
 11
7.484509484105092
 21
-78.08910485282715
 31
0.0
100
AcDbAttribute
  2
NAME
 70
0
  0
ATTRIB
  5
CF
330
17
100
AcDbEntity
  8
0
 62
4
100
AcDbText
 10
7.606228976667456
 20
-78.5433681833414
 30
0.0
 40
0.2351440028575742
  1
= 6.000
 50
14.999999999999998
 11
7.606228976667456
 21
-78.5433681833414
 31
0.0
100
AcDbAttribute
  2
XPOS
 70
0
  0
ATTRIB
  5
D0
330
17
100
AcDbEntity
  8
0
 62
4
100
AcDbText
 10
7.727948469229819
 20
-78.99763151385564
 30
0.0
 40
0.2351440028575742
  1
= -78.000
 50
14.999999999999998
 11
7.727948469229819
 21
-78.99763151385564
 31
0.0
100
AcDbAttribute
  2
YPOS
 70
0
  0
SEQEND
  5
CD
330
CC
100
AcDbEntity
  8
0
  0
INSERT
  5
D1
330
17
100
AcDbEntity
  8
0
100
AcDbBlockReference
 66
1
  2
FLAG
 10
19.0
 20
15.0
 30
0.0
 41
1.6250323396175659
 42
1.6250323396175659
 43
1.6250323396175659
 50
15.0
  0
ATTRIB
  5
D3
330
17
100
AcDbEntity
  8
0
 62
3
100
AcDbText
 10
21.5647857172876
 20
14.846053624905023
 30
0.0
 40
0.8125161698087829
  1
P(29)
 50
14.999999999999998
 11
21.5647857172876
 21
14.846053624905023
 31
0.0
100
AcDbAttribute
  2
NAME
 70
0
  0
ATTRIB
  5
D4
330
17
100
AcDbEntity
  8
0
 62
4
100
AcDbText
 10
21.775080376487868
 20
14.061223272209245
 30
0.0
 40
0.40625808490439147
  1
= 19.000
 50
14.999999999999998
 11
21.775080376487868
 21
14.061223272209245
 31
0.0
100
AcDbAttribute
  2
XPOS
 70
0
  0
ATTRIB
  5
D5
330
17
100
AcDbEntity
  8
0
 62
4
100
AcDbText
 10
21.985375035688133
 20
13.276392919513468
 30
0.0
 40
0.40625808490439147
  1
= 15.000
 50
14.999999999999998
 11
21.985375035688133
 21
13.276392919513468
 31
0.0
100
AcDbAttribute
  2
YPOS
 70
0
  0
SEQEND
  5
D2
330
D1
100
AcDbEntity
  8
0
  0
INSERT
  5
D6
330
17
100
AcDbEntity
  8
0
100
AcDbBlockReference
 66
1
  2
FLAG
 10
30.0
 20
73.0
 30
0.0
 41
1.54441656899053
 42
1.54441656899053
 43
1.54441656899053
 50
15.0
  0
ATTRIB
  5
D8
330
17
100
AcDbEntity
  8
0
 62
3
100
AcDbText
 10
32.43754998661838
 20
72.85369070717161
 30
0.0
 40
0.772208284495265
  1
P(30)
 50
14.999999999999998
 11
32.43754998661838
 21
72.85369070717161
 31
0.0
100
AcDbAttribute
  2
NAME
 70
0
  0
ATTRIB
  5
D9
330
17
100
AcDbEntity
  8
0
 62
4
100
AcDbText
 10
32.6374121974317
 20
72.10779478190325
 30
0.0
 40
0.3861041422476325
  1
= 30.000
 50
14.999999999999998
 11
32.6374121974317
 21
72.10779478190325
 31
0.0
100
AcDbAttribute
  2
XPOS
 70
0
  0
ATTRIB
  5
DA
330
17
100
AcDbEntity
  8
0
 62
4
100
AcDbText
 10
32.83727440824502
 20
71.36189885663491
 30
0.0
 40
0.3861041422476325
  1
= 73.000
 50
14.999999999999998
 11
32.83727440824502
 21
71.36189885663491
 31
0.0
100
AcDbAttribute
  2
YPOS
 70
0
  0
SEQEND
  5
D7
330
D6
100
AcDbEntity
  8
0
  0
INSERT
  5
DB
330
17
100
AcDbEntity
  8
0
100
AcDbBlockReference
 66
1
  2
FLAG
 10
24.0
 20
-38.0
 30
0.0
 41
0.5542799625611612
 42
0.5542799625611612
 43
0.5542799625611612
 50
15.0
  0
ATTRIB
  5
DD
330
17
100
AcDbEntity
  8
0
 62
3
100
AcDbText
 10
24.874819101563315
 20
-38.05250934947187
 30
0.0
 40
0.2771399812805806
  1
P(31)
 50
14.999999999999996
 11
24.874819101563315
 21
-38.05250934947187
 31
0.0
100
AcDbAttribute
  2
NAME
 70
0
  0
ATTRIB
  5
DE
330
17
100
AcDbEntity
  8
0
 62
4
100
AcDbText
 10
24.946548206878084
 20
-38.32020601488805
 30
0.0
 40
0.1385699906402903
  1
= 24.000
 50
14.999999999999996
 11
24.946548206878084
 21
-38.32020601488805
 31
0.0
100
AcDbAttribute
  2
XPOS
 70
0
  0
ATTRIB
  5
DF
330
17
100
AcDbEntity
  8
0
 62
4
100
AcDbText
 10
25.018277312192858
 20
-38.58790268030423
 30
0.0
 40
0.1385699906402903
  1
= -38.000
 50
14.999999999999996
 11
25.018277312192858
 21
-38.58790268030423
 31
0.0
100
AcDbAttribute
  2
YPOS
 70
0
  0
SEQEND
  5
DC
330
DB
100
AcDbEntity
  8
0
  0
INSERT
  5
E0
330
17
100
AcDbEntity
  8
0
100
AcDbBlockReference
 66
1
  2
FLAG
 10
78.0
 20
-45.0
 30
0.0
 41
2.335461181761095
 42
2.335461181761095
 43
2.335461181761095
 50
15.0
  0
ATTRIB
  5
E2
330
17
100
AcDbEntity
  8
0
 62
3
100
AcDbText
 10
81.68605432410665
 20
-45.2212483864732
 30
0.0
 40
1.1677305908805475
  1
P(32)
 50
15.000000000000002
 11
81.68605432410665
 21
-45.2212483864732
 31
0.0
100
AcDbAttribute
  2
NAME
 70
0
  0
ATTRIB
  5
E3
330
17
100
AcDbEntity
  8
0
 62
4
100
AcDbText
 10
81.98828524057535
 20
-46.34918952235251
 30
0.0
 40
0.5838652954402738
  1
= 78.000
 50
15.000000000000002
 11
81.98828524057535
 21
-46.34918952235251
 31
0.0
100
AcDbAttribute
  2
XPOS
 70
0
  0
ATTRIB
  5
E4
330
17
100
AcDbEntity
  8
0
 62
4
100
AcDbText
 10
82.29051615704407
 20
-47.47713065823183
 30
0.0
 40
0.5838652954402738
  1
= -45.000
 50
15.000000000000002
 11
82.29051615704407
 21
-47.47713065823183
 31
0.0
100
AcDbAttribute
  2
YPOS
 70
0
  0
SEQEND
  5
E1
330
E0
100
AcDbEntity
  8
0
  0
INSERT
  5
E5
330
17
100
AcDbEntity
  8
0
100
AcDbBlockReference
 66
1
  2
FLAG
 10
-86.0
 20
-77.0
 30
0.0
 41
2.3716612021135175
 42
2.3716612021135175
 43
2.3716612021135175
 50
15.0
  0
ATTRIB
  5
E7
330
17
100
AcDbEntity
  8
0
 62
3
100
AcDbText
 10
-82.2568112466873
 20
-77.22467777170803
 30
0.0
 40
1.1858306010567587
  1
P(33)
 50
14.999999999999998
 11
-82.2568112466873
 21
-77.22467777170803
 31
0.0
100
AcDbAttribute
  2
NAME
 70
0
  0
ATTRIB
  5
E8
330
17
100
AcDbEntity
  8
0
 62
4
100
AcDbText
 10
-81.94989570286845
 20
-78.37010217487264
 30
0.0
 40
0.5929153005283794
  1
= -86.000
 50
14.999999999999998
 11
-81.94989570286845
 21
-78.37010217487264
 31
0.0
100
AcDbAttribute
  2
XPOS
 70
0
  0
ATTRIB
  5
E9
330
17
100
AcDbEntity
  8
0
 62
4
100
AcDbText
 10
-81.64298015904959
 20
-79.51552657803727
 30
0.0
 40
0.5929153005283794
  1
= -77.000
 50
14.999999999999998
 11
-81.64298015904959
 21
-79.51552657803727
 31
0.0
100
AcDbAttribute
  2
YPOS
 70
0
  0
SEQEND
  5
E6
330
E5
100
AcDbEntity
  8
0
  0
INSERT
  5
EA
330
17
100
AcDbEntity
  8
0
100
AcDbBlockReference
 66
1
  2
FLAG
 10
19.0
 20
78.0
 30
0.0
 41
0.6714277608743813
 42
0.6714277608743813
 43
0.6714277608743813
 50
15.0
  0
ATTRIB
  5
EC
330
17
100
AcDbEntity
  8
0
 62
3
100
AcDbText
 10
20.059713268036425
 20
77.93639273052925
 30
0.0
 40
0.33571388043719064
  1
P(34)
 50
14.999999999999998
 11
20.059713268036425
 21
77.93639273052925
 31
0.0
100
AcDbAttribute
  2
NAME
 70
0
  0
ATTRIB
  5
ED
330
17
100
AcDbEntity
  8
0
 62
4
100
AcDbText
 10
20.14660241399884
 20
77.61211802317123
 30
0.0
 40
0.16785694021859532
  1
= 19.000
 50
14.999999999999998
 11
20.14660241399884
 21
77.61211802317123
 31
0.0
100
AcDbAttribute
  2
XPOS
 70
0
  0
ATTRIB
  5
EE
330
17
100
AcDbEntity
  8
0
 62
4
100
AcDbText
 10
20.233491559961255
 20
77.28784331581323
 30
0.0
 40
0.16785694021859532
  1
= 78.000
 50
14.999999999999998
 11
20.233491559961255
 21
77.28784331581323
 31
0.0
100
AcDbAttribute
  2
YPOS
 70
0
  0
SEQEND
  5
EB
330
EA
100
AcDbEntity
  8
0
  0
INSERT
  5
EF
330
17
100
AcDbEntity
  8
0
100
AcDbBlockReference
 66
1
  2
FLAG
 10
-65.0
 20
-97.0
 30
0.0
 41
0.5231706610621145
 42
0.5231706610621145
 43
0.5231706610621145
 50
15.0
  0
ATTRIB
  5
F1
330
17
100
AcDbEntity
  8
0
 62
3
100
AcDbText
 10
-64.17428065492419
 20
-97.04956223015569
 30
0.0
 40
0.2615853305310573
  1
P(35)
 50
14.999999999999996
 11
-64.17428065492419
 21
-97.04956223015569
 31
0.0
100
AcDbAttribute
  2
NAME
 70
0
  0
ATTRIB
  5
F2
330
17
100
AcDbEntity
  8
0
 62
4
100
AcDbText
 10
-64.10657738946331
 20
-97.30223425669399
 30
0.0
 40
0.13079266526552866
  1
= -65.000
 50
14.999999999999996
 11
-64.10657738946331
 21
-97.30223425669399
 31
0.0
100
AcDbAttribute
  2
XPOS
 70
0
  0
ATTRIB
  5
F3
330
17
100
AcDbEntity
  8
0
 62
4
100
AcDbText
 10
-64.03887412400245
 20
-97.5549062832323
 30
0.0
 40
0.13079266526552866
  1
= -97.000
 50
14.999999999999996
 11
-64.03887412400245
 21
-97.5549062832323
 31
0.0
100
AcDbAttribute
  2
YPOS
 70
0
  0
SEQEND
  5
F0
330
EF
100
AcDbEntity
  8
0
  0
INSERT
  5
F4
330
17
100
AcDbEntity
  8
0
100
AcDbBlockReference
 66
1
  2
FLAG
 10
44.0
 20
96.0
 30
0.0
 41
0.7358834116321631
 42
0.7358834116321631
 43
0.7358834116321631
 50
15.0
  0
ATTRIB
  5
F6
330
17
100
AcDbEntity
  8
0
 62
3
100
AcDbText
 10
45.161443509602535
 20
95.93028656664153
 30
0.0
 40
0.36794170581608154
  1
P(36)
 50
14.999999999999998
 11
45.161443509602535
 21
95.93028656664153
 31
0.0
100
AcDbAttribute
  2
NAME
 70
0
  0
ATTRIB
  5
F7
330
17
100
AcDbEntity
  8
0
 62
4
100
AcDbText
 10
45.25667383055524
 20
95.57488217042491
 30
0.0
 40
0.18397085290804077
  1
= 44.000
 50
14.999999999999998
 11
45.25667383055524
 21
95.57488217042491
 31
0.0
100
AcDbAttribute
  2
XPOS
 70
0
  0
ATTRIB
  5
F8
330
17
100
AcDbEntity
  8
0
 62
4
100
AcDbText
 10
45.35190415150796
 20
95.21947777420831
 30
0.0
 40
0.18397085290804077
  1
= 96.000
 50
14.999999999999998
 11
45.35190415150796
 21
95.21947777420831
 31
0.0
100
AcDbAttribute
  2
YPOS
 70
0
  0
SEQEND
  5
F5
330
F4
100
AcDbEntity
  8
0
  0
INSERT
  5
F9
330
17
100
AcDbEntity
  8
0
100
AcDbBlockReference
 66
1
  2
FLAG
 10
2.0
 20
70.0
 30
0.0
 41
1.4971851021791254
 42
1.4971851021791254
 43
1.4971851021791254
 50
15.0
  0
ATTRIB
  5
FB
330
17
100
AcDbEntity
  8
0
 62
3
100
AcDbText
 10
4.363004644638943
 20
69.85816514926655
 30
0.0
 40
0.7485925510895628
  1
P(37)
 50
14.999999999999998
 11
4.363004644638943
 21
69.85816514926655
 31
0.0
100
AcDbAttribute
  2
NAME
 70
0
  0
ATTRIB
  5
FC
330
17
100
AcDbEntity
  8
0
 62
4
100
AcDbText
 10
4.556754653882804
 20
69.13508027080152
 30
0.0
 40
0.3742962755447814
  1
= 2.000
 50
14.999999999999998
 11
4.556754653882804
 21
69.13508027080152
 31
0.0
100
AcDbAttribute
  2
XPOS
 70
0
  0
ATTRIB
  5
FD
330
17
100
AcDbEntity
  8
0
 62
4
100
AcDbText
 10
4.750504663126664
 20
68.4119953923365
 30
0.0
 40
0.3742962755447814
  1
= 70.000
 50
14.999999999999998
 11
4.750504663126664
 21
68.4119953923365
 31
0.0
100
AcDbAttribute
  2
YPOS
 70
0
  0
SEQEND
  5
FA
330
F9
100
AcDbEntity
  8
0
  0
INSERT
  5
FE
330
17
100
AcDbEntity
  8
0
100
AcDbBlockReference
 66
1
  2
FLAG
 10
2.0
 20
86.0
 30
0.0
 41
1.978351373616358
 42
1.978351373616358
 43
1.978351373616358
 50
15.0
  0
ATTRIB
  5
100
330
17
100
AcDbEntity
  8
0
 62
3
100
AcDbText
 10
5.122428534574064
 20
85.81258217746972
 30
0.0
 40
0.989175686808179
  1
P(38)
 50
14.999999999999998
 41
1.0000000000000002
 11
5.122428534574064
 21
85.81258217746972
 31
0.0
100
AcDbAttribute
  2
NAME
 70
0
  0
ATTRIB
  5
101
330
17
100
AcDbEntity
  8
0
 62
4
100
AcDbText
 10
5.378446041272387
 20
84.85711183484447
 30
0.0
 40
0.4945878434040895
  1
= 2.000
 50
14.999999999999998
 41
1.0000000000000002
 11
5.378446041272387
 21
84.85711183484447
 31
0.0
100
AcDbAttribute
  2
XPOS
 70
0
  0
ATTRIB
  5
102
330
17
100
AcDbEntity
  8
0
 62
4
100
AcDbText
 10
5.63446354797071
 20
83.90164149221923
 30
0.0
 40
0.4945878434040895
  1
= 86.000
 50
14.999999999999998
 41
1.0000000000000002
 11
5.63446354797071
 21
83.90164149221923
 31
0.0
100
AcDbAttribute
  2
YPOS
 70
0
  0
SEQEND
  5
FF
330
FE
100
AcDbEntity
  8
0
  0
INSERT
  5
103
330
17
100
AcDbEntity
  8
0
100
AcDbBlockReference
 66
1
  2
FLAG
 10
-18.0
 20
39.0
 30
0.0
 41
1.4331344827080148
 42
1.4331344827080148
 43
1.4331344827080148
 50
15.0
  0
ATTRIB
  5
105
330
17
100
AcDbEntity
  8
0
 62
3
100
AcDbText
 10
-15.738086336751365
 20
38.864232942780426
 30
0.0
 40
0.7165672413540074
  1
P(39)
 50
14.999999999999998
 41
1.0000000000000002
 11
-15.738086336751365
 21
38.864232942780426
 31
0.0
100
AcDbAttribute
  2
NAME
 70
0
  0
ATTRIB
  5
106
330
17
100
AcDbEntity
  8
0
 62
4
100
AcDbText
 10
-15.552625087592373
 20
38.17208213808388
 30
0.0
 40
0.3582836206770037
  1
= -18.000
 50
14.999999999999998
 41
1.0000000000000002
 11
-15.552625087592373
 21
38.17208213808388
 31
0.0
100
AcDbAttribute
  2
XPOS
 70
0
  0
ATTRIB
  5
107
330
17
100
AcDbEntity
  8
0
 62
4
100
AcDbText
 10
-15.367163838433381
 20
37.479931333387334
 30
0.0
 40
0.3582836206770037
  1
= 39.000
 50
14.999999999999998
 41
1.0000000000000002
 11
-15.367163838433381
 21
37.479931333387334
 31
0.0
100
AcDbAttribute
  2
YPOS
 70
0
  0
SEQEND
  5
104
330
103
100
AcDbEntity
  8
0
  0
INSERT
  5
108
330
17
100
AcDbEntity
  8
0
100
AcDbBlockReference
 66
1
  2
FLAG
 10
1.0
 20
30.0
 30
0.0
 41
1.2058933284674607
 42
1.2058933284674607
 43
1.2058933284674607
 50
15.0
  0
ATTRIB
  5
10A
330
17
100
AcDbEntity
  8
0
 62
3
100
AcDbText
 10
2.9032593444593346
 20
29.88576048479597
 30
0.0
 40
0.6029466642337303
  1
P(40)
 50
14.999999999999998
 11
2.9032593444593346
 21
29.88576048479597
 31
0.0
100
AcDbAttribute
  2
NAME
 70
0
  0
ATTRIB
  5
10B
330
17
100
AcDbEntity
  8
0
 62
4
100
AcDbText
 10
3.059313424344059
 20
29.303358729937766
 30
0.0
 40
0.30147333211686517
  1
= 1.000
 50
14.999999999999998
 11
3.059313424344059
 21
29.303358729937766
 31
0.0
100
AcDbAttribute
  2
XPOS
 70
0
  0
ATTRIB
  5
10C
330
17
100
AcDbEntity
  8
0
 62
4
100
AcDbText
 10
3.2153675042287833
 20
28.720956975079563
 30
0.0
 40
0.30147333211686517
  1
= 30.000
 50
14.999999999999998
 11
3.2153675042287833
 21
28.720956975079563
 31
0.0
100
AcDbAttribute
  2
YPOS
 70
0
  0
SEQEND
  5
109
330
108
100
AcDbEntity
  8
0
  0
INSERT
  5
10D
330
17
100
AcDbEntity
  8
0
100
AcDbBlockReference
 66
1
  2
FLAG
 10
-26.0
 20
31.0
 30
0.0
 41
1.5137057392104174
 42
1.5137057392104174
 43
1.5137057392104174
 50
15.0
  0
ATTRIB
  5
10F
330
17
100
AcDbEntity
  8
0
 62
3
100
AcDbText
 10
-23.610920862647685
 20
30.856600077530306
 30
0.0
 40
0.7568528696052088
  1
P(41)
 50
14.999999999999996
 11
-23.610920862647685
 21
30.856600077530306
 31
0.0
100
AcDbAttribute
  2
NAME
 70
0
  0
ATTRIB
  5
110
330
17
100
AcDbEntity
  8
0
 62
4
100
AcDbText
 10
-23.415032925653364
 20
30.12553634407764
 30
0.0
 40
0.3784264348026044
  1
= -26.000
 50
14.999999999999996
 11
-23.415032925653364
 21
30.12553634407764
 31
0.0
100
AcDbAttribute
  2
XPOS
 70
0
  0
ATTRIB
  5
111
330
17
100
AcDbEntity
  8
0
 62
4
100
AcDbText
 10
-23.21914498865904
 20
29.394472610624977
 30
0.0
 40
0.3784264348026044
  1
= 31.000
 50
14.999999999999996
 11
-23.21914498865904
 21
29.394472610624977
 31
0.0
100
AcDbAttribute
  2
YPOS
 70
0
  0
SEQEND
  5
10E
330
10D
100
AcDbEntity
  8
0
  0
INSERT
  5
112
330
17
100
AcDbEntity
  8
0
100
AcDbBlockReference
 66
1
  2
FLAG
 10
-98.0
 20
6.0
 30
0.0
 41
1.055877113563471
 42
1.055877113563471
 43
1.055877113563471
 50
15.0
  0
ATTRIB
  5
114
330
17
100
AcDbEntity
  8
0
 62
3
100
AcDbText
 10
-96.33351098679319
 20
5.899972172727899
 30
0.0
 40
0.5279385567817355
  1
P(42)
 50
14.999999999999998
 11
-96.33351098679319
 21
5.899972172727899
 31
0.0
100
AcDbAttribute
  2
NAME
 70
0
  0
ATTRIB
  5
115
330
17
100
AcDbEntity
  8
0
 62
4
100
AcDbText
 10
-96.19687043365413
 20
5.390022686038643
 30
0.0
 40
0.26396927839086776
  1
= -98.000
 50
14.999999999999998
 11
-96.19687043365413
 21
5.390022686038643
 31
0.0
100
AcDbAttribute
  2
XPOS
 70
0
  0
ATTRIB
  5
116
330
17
100
AcDbEntity
  8
0
 62
4
100
AcDbText
 10
-96.06022988051508
 20
4.880073199349387
 30
0.0
 40
0.26396927839086776
  1
= 6.000
 50
14.999999999999998
 11
-96.06022988051508
 21
4.880073199349387
 31
0.0
100
AcDbAttribute
  2
YPOS
 70
0
  0
SEQEND
  5
113
330
112
100
AcDbEntity
  8
0
  0
INSERT
  5
117
330
17
100
AcDbEntity
  8
0
100
AcDbBlockReference
 66
1
  2
FLAG
 10
74.0
 20
-69.0
 30
0.0
 41
0.8877114732050893
 42
0.8877114732050893
 43
0.8877114732050893
 50
15.0
  0
ATTRIB
  5
119
330
17
100
AcDbEntity
  8
0
 62
3
100
AcDbText
 10
75.40107347530362
 20
-69.08409676539871
 30
0.0
 40
0.4438557366025446
  1
P(43)
 50
14.999999999999998
 11
75.40107347530362
 21
-69.08409676539871
 31
0.0
100
AcDbAttribute
  2
NAME
 70
0
  0
ATTRIB
  5
11A
330
17
100
AcDbEntity
  8
0
 62
4
100
AcDbText
 10
75.51595179321436
 20
-69.51282848452968
 30
0.0
 40
0.2219278683012723
  1
= 74.000
 50
14.999999999999998
 11
75.51595179321436
 21
-69.51282848452968
 31
0.0
100
AcDbAttribute
  2
XPOS
 70
0
  0
ATTRIB
  5
11B
330
17
100
AcDbEntity
  8
0
 62
4
100
AcDbText
 10
75.6308301111251
 20
-69.94156020366063
 30
0.0
 40
0.2219278683012723
  1
= -69.000
 50
14.999999999999998
 11
75.6308301111251
 21
-69.94156020366063
 31
0.0
100
AcDbAttribute
  2
YPOS
 70
0
  0
SEQEND
  5
118
330
117
100
AcDbEntity
  8
0
  0
INSERT
  5
11C
330
17
100
AcDbEntity
  8
0
100
AcDbBlockReference
 66
1
  2
FLAG
 10
-77.0
 20
42.0
 30
0.0
 41
0.9403591530178512
 42
0.9403591530178512
 43
0.9403591530178512
 50
15.0
  0
ATTRIB
  5
11E
330
17
100
AcDbEntity
  8
0
 62
3
100
AcDbText
 10
-75.51583278315037
 20
41.91091569111261
 30
0.0
 40
0.4701795765089256
  1
P(44)
 50
14.999999999999998
 11
-75.51583278315037
 21
41.91091569111261
 31
0.0
100
AcDbAttribute
  2
NAME
 70
0
  0
ATTRIB
  5
11F
330
17
100
AcDbEntity
  8
0
 62
4
100
AcDbText
 10
-75.39414135413162
 20
41.45675709516899
 30
0.0
 40
0.2350897882544628
  1
= -77.000
 50
14.999999999999998
 11
-75.39414135413162
 21
41.45675709516899
 31
0.0
100
AcDbAttribute
  2
XPOS
 70
0
  0
ATTRIB
  5
120
330
17
100
AcDbEntity
  8
0
 62
4
100
AcDbText
 10
-75.27244992511287
 20
41.00259849922536
 30
0.0
 40
0.2350897882544628
  1
= 42.000
 50
14.999999999999998
 11
-75.27244992511287
 21
41.00259849922536
 31
0.0
100
AcDbAttribute
  2
YPOS
 70
0
  0
SEQEND
  5
11D
330
11C
100
AcDbEntity
  8
0
  0
INSERT
  5
121
330
17
100
AcDbEntity
  8
0
100
AcDbBlockReference
 66
1
  2
FLAG
 10
73.0
 20
-13.0
 30
0.0
 41
1.2096748527786594
 42
1.2096748527786594
 43
1.2096748527786594
 50
15.0
  0
ATTRIB
  5
123
330
17
100
AcDbEntity
  8
0
 62
3
100
AcDbText
 10
74.90922771770735
 20
-13.114597755434609
 30
0.0
 40
0.6048374263893298
  1
P(45)
 50
14.999999999999998
 11
74.90922771770735
 21
-13.114597755434609
 31
0.0
100
AcDbAttribute
  2
NAME
 70
0
  0
ATTRIB
  5
124
330
17
100
AcDbEntity
  8
0
 62
4
100
AcDbText
 10
75.06577116284771
 20
-13.698825846290276
 30
0.0
 40
0.3024187131946649
  1
= 73.000
 50
14.999999999999998
 11
75.06577116284771
 21
-13.698825846290276
 31
0.0
100
AcDbAttribute
  2
XPOS
 70
0
  0
ATTRIB
  5
125
330
17
100
AcDbEntity
  8
0
 62
4
100
AcDbText
 10
75.22231460798805
 20
-14.283053937145944
 30
0.0
 40
0.3024187131946649
  1
= -13.000
 50
14.999999999999998
 11
75.22231460798805
 21
-14.283053937145944
 31
0.0
100
AcDbAttribute
  2
YPOS
 70
0
  0
SEQEND
  5
122
330
121
100
AcDbEntity
  8
0
  0
INSERT
  5
126
330
17
100
AcDbEntity
  8
0
100
AcDbBlockReference
 66
1
  2
FLAG
 10
37.0
 20
35.0
 30
0.0
 41
2.432006477929522
 42
2.432006477929522
 43
2.432006477929522
 50
15.0
  0
ATTRIB
  5
128
330
17
100
AcDbEntity
  8
0
 62
3
100
AcDbText
 10
40.83843159725209
 20
34.76960545808407
 30
0.0
 40
1.2160032389647613
  1
P(46)
 50
14.999999999999998
 11
40.83843159725209
 21
34.76960545808407
 31
0.0
100
AcDbAttribute
  2
NAME
 70
0
  0
ATTRIB
  5
129
330
17
100
AcDbEntity
  8
0
 62
4
100
AcDbText
 10
41.15315639440252
 20
33.59503652471685
 30
0.0
 40
0.6080016194823806
  1
= 37.000
 50
14.999999999999998
 11
41.15315639440252
 21
33.59503652471685
 31
0.0
100
AcDbAttribute
  2
XPOS
 70
0
  0
ATTRIB
  5
12A
330
17
100
AcDbEntity
  8
0
 62
4
100
AcDbText
 10
41.467881191552955
 20
32.420467591349635
 30
0.0
 40
0.6080016194823806
  1
= 35.000
 50
14.999999999999998
 11
41.467881191552955
 21
32.420467591349635
 31
0.0
100
AcDbAttribute
  2
YPOS
 70
0
  0
SEQEND
  5
127
330
126
100
AcDbEntity
  8
0
  0
INSERT
  5
12B
330
17
100
AcDbEntity
  8
0
100
AcDbBlockReference
 66
1
  2
FLAG
 10
-26.0
 20
72.0
 30
0.0
 41
0.6782269925832913
 42
0.6782269925832913
 43
0.6782269925832913
 50
15.0
  0
ATTRIB
  5
12D
330
17
100
AcDbEntity
  8
0
 62
3
100
AcDbText
 10
-24.92955551637457
 20
71.93574860976346
 30
0.0
 40
0.33911349629164567
  1
P(47)
 50
14.999999999999998
 11
-24.92955551637457
 21
71.93574860976346
 31
0.0
100
AcDbAttribute
  2
NAME
 70
0
  0
ATTRIB
  5
12E
330
17
100
AcDbEntity
  8
0
 62
4
100
AcDbText
 10
-24.84178648508299
 20
71.60819012565217
 30
0.0
 40
0.16955674814582283
  1
= -26.000
 50
14.999999999999998
 11
-24.84178648508299
 21
71.60819012565217
 31
0.0
100
AcDbAttribute
  2
XPOS
 70
0
  0
ATTRIB
  5
12F
330
17
100
AcDbEntity
  8
0
 62
4
100
AcDbText
 10
-24.75401745379141
 20
71.2806316415409
 30
0.0
 40
0.16955674814582283
  1
= 72.000
 50
14.999999999999998
 11
-24.75401745379141
 21
71.2806316415409
 31
0.0
100
AcDbAttribute
  2
YPOS
 70
0
  0
SEQEND
  5
12C
330
12B
100
AcDbEntity
  8
0
  0
INSERT
  5
130
330
17
100
AcDbEntity
  8
0
100
AcDbBlockReference
 66
1
  2
FLAG
 10
-46.0
 20
39.0
 30
0.0
 41
0.9513052976135559
 42
0.9513052976135559
 43
0.9513052976135559
 50
15.0
  0
ATTRIB
  5
132
330
17
100
AcDbEntity
  8
0
 62
3
100
AcDbText
 10
-44.49855650215953
 20
38.9098787152687
 30
0.0
 40
0.47565264880677793
  1
P(48)
 50
14.999999999999998
 11
-44.49855650215953
 21
38.9098787152687
 31
0.0
100
AcDbAttribute
  2
NAME
 70
0
  0
ATTRIB
  5
133
330
17
100
AcDbEntity
  8
0
 62
4
100
AcDbText
 10
-44.375448537794874
 20
38.45043353744342
 30
0.0
 40
0.23782632440338897
  1
= -46.000
 50
14.999999999999998
 11
-44.375448537794874
 21
38.45043353744342
 31
0.0
100
AcDbAttribute
  2
XPOS
 70
0
  0
ATTRIB
  5
134
330
17
100
AcDbEntity
  8
0
 62
4
100
AcDbText
 10
-44.252340573430224
 20
37.99098835961815
 30
0.0
 40
0.23782632440338897
  1
= 39.000
 50
14.999999999999998
 11
-44.252340573430224
 21
37.99098835961815
 31
0.0
100
AcDbAttribute
  2
YPOS
 70
0
  0
SEQEND
  5
131
330
130
100
AcDbEntity
  8
0
  0
INSERT
  5
135
330
17
100
AcDbEntity
  8
0
100
AcDbBlockReference
 66
1
  2
FLAG
 10
29.0
 20
12.0
 30
0.0
 41
1.9641055169894797
 42
1.9641055169894797
 43
1.9641055169894797
 50
15.0
  0
ATTRIB
  5
137
330
17
100
AcDbEntity
  8
0
 62
3
100
AcDbText
 10
32.09994432381938
 20
11.813931749373225
 30
0.0
 40
0.9820527584947398
  1
P(49)
 50
14.999999999999998
 11
32.09994432381938
 21
11.813931749373225
 31
0.0
100
AcDbAttribute
  2
NAME
 70
0
  0
ATTRIB
  5
138
330
17
100
AcDbEntity
  8
0
 62
4
100
AcDbText
 10
32.35411828101328
 20
10.865341627164733
 30
0.0
 40
0.4910263792473699
  1
= 29.000
 50
14.999999999999998
 11
32.35411828101328
 21
10.865341627164733
 31
0.0
100
AcDbAttribute
  2
XPOS
 70
0
  0
ATTRIB
  5
139
330
17
100
AcDbEntity
  8
0
 62
4
100
AcDbText
 10
32.608292238207184
 20
9.916751504956244
 30
0.0
 40
0.4910263792473699
  1
= 12.000
 50
14.999999999999998
 11
32.608292238207184
 21
9.916751504956244
 31
0.0
100
AcDbAttribute
  2
YPOS
 70
0
  0
SEQEND
  5
136
330
135
100
AcDbEntity
  8
0
  0
INSERT
  5
13A
330
17
100
AcDbEntity
  8
0
100
AcDbBlockReference
 66
1
  2
FLAG
 10
35.0
 20
-21.0
 30
0.0
 41
1.4522190613500154
 42
1.4522190613500154
 43
1.4522190613500154
 50
15.0
  0
ATTRIB
  5
13C
330
17
100
AcDbEntity
  8
0
 62
3
100
AcDbText
 10
37.292034820550015
 20
-21.13757502228619
 30
0.0
 40
0.7261095306750076
  1
P(50)
 50
14.999999999999998
 41
1.0000000000000002
 11
37.292034820550015
 21
-21.13757502228619
 31
0.0
100
AcDbAttribute
  2
NAME
 70
0
  0
ATTRIB
  5
13D
330
17
100
AcDbEntity
  8
0
 62
4
100
AcDbText
 10
37.47996579591916
 20
-21.838942970679813
 30
0.0
 40
0.3630547653375038
  1
= 35.000
 50
14.999999999999998
 41
1.0000000000000002
 11
37.47996579591916
 21
-21.838942970679813
 31
0.0
100
AcDbAttribute
  2
XPOS
 70
0
  0
ATTRIB
  5
13E
330
17
100
AcDbEntity
  8
0
 62
4
100
AcDbText
 10
37.667896771288305
 20
-22.540310919073438
 30
0.0
 40
0.3630547653375038
  1
= -21.000
 50
14.999999999999998
 41
1.0000000000000002
 11
37.667896771288305
 21
-22.540310919073438
 31
0.0
100
AcDbAttribute
  2
YPOS
 70
0
  0
SEQEND
  5
13B
330
13A
100
AcDbEntity
  8
0
  0
ENDSEC
  0
SECTION
  2
OBJECTS
  0
DICTIONARY
  5
A
330
0
100
AcDbDictionary
280
0
281
1
  3
ACAD_COLOR
350
B
  3
ACAD_GROUP
350
C
  3
ACAD_LAYOUT
350
D
  3
ACAD_MATERIAL
350
E
  3
ACAD_MLEADERSTYLE
350
F
  3
ACAD_MLINESTYLE
350
10
  3
ACAD_PLOTSETTINGS
350
11
  3
ACAD_PLOTSTYLENAME
350
12
  3
ACAD_SCALELIST
350
14
  3
ACAD_TABLESTYLE
350
15
  3
ACAD_VISUALSTYLE
350
16
  3
EZDXF_META
350
2D
  0
DICTIONARY
  5
B
330
A
100
AcDbDictionary
280
0
281
1
  0
DICTIONARY
  5
C
330
A
100
AcDbDictionary
280
0
281
1
  0
DICTIONARY
  5
D
330
A
100
AcDbDictionary
280
0
281
1
  3
Model
350
1A
  3
Layout1
350
1E
  0
DICTIONARY
  5
E
330
A
100
AcDbDictionary
280
0
281
1
  3
ByBlock
350
1F
  3
ByLayer
350
20
  3
Global
350
21
  0
DICTIONARY
  5
F
330
A
100
AcDbDictionary
280
0
281
1
  3
Standard
350
2C
  0
DICTIONARY
  5
10
330
A
100
AcDbDictionary
280
0
281
1
  3
Standard
350
22
  0
DICTIONARY
  5
11
330
A
100
AcDbDictionary
280
0
281
1
  0
ACDBDICTIONARYWDFLT
  5
12
330
A
100
AcDbDictionary
280
0
281
1
  3
Normal
350
13
100
AcDbDictionaryWithDefault
340
13
  0
ACDBPLACEHOLDER
  5
13
330
12
  0
DICTIONARY
  5
14
330
A
100
AcDbDictionary
280
0
281
1
  0
DICTIONARY
  5
15
330
A
100
AcDbDictionary
280
0
281
1
  0
DICTIONARY
  5
16
330
A
100
AcDbDictionary
280
0
281
1
  0
LAYOUT
  5
1A
330
D
100
AcDbPlotSettings
  1

  4
A3
  6

 40
7.5
 41
20.0
 42
7.5
 43
20.0
 44
420.0
 45
297.0
 46
0.0
 47
0.0
 48
0.0
 49
0.0
140
0.0
141
0.0
142
1.0
143
1.0
 70
1024
 72
1
 73
0
 74
5
  7

 75
16
 76
0
 77
2
 78
300
147
1.0
148
0.0
149
0.0
100
AcDbLayout
  1
Model
 70
1
 71
0
 10
0.0
 20
0.0
 11
420.0
 21
297.0
 12
0.0
 22
0.0
 32
0.0
 14
1e+20
 24
1e+20
 34
1e+20
 15
-1e+20
 25
-1e+20
 35
-1e+20
146
0.0
 13
0.0
 23
0.0
 33
0.0
 16
1.0
 26
0.0
 36
0.0
 17
0.0
 27
1.0
 37
0.0
 76
1
330
17
  0
LAYOUT
  5
1E
330
D
100
AcDbPlotSettings
  1

  4
A3
  6

 40
7.5
 41
20.0
 42
7.5
 43
20.0
 44
420.0
 45
297.0
 46
0.0
 47
0.0
 48
0.0
 49
0.0
140
0.0
141
0.0
142
1.0
143
1.0
 70
0
 72
1
 73
0
 74
5
  7

 75
16
 76
0
 77
2
 78
300
147
1.0
148
0.0
149
0.0
100
AcDbLayout
  1
Layout1
 70
1
 71
1
 10
0.0
 20
0.0
 11
420.0
 21
297.0
 12
0.0
 22
0.0
 32
0.0
 14
1e+20
 24
1e+20
 34
1e+20
 15
-1e+20
 25
-1e+20
 35
-1e+20
146
0.0
 13
0.0
 23
0.0
 33
0.0
 16
1.0
 26
0.0
 36
0.0
 17
0.0
 27
1.0
 37
0.0
 76
1
330
1B
  0
MATERIAL
  5
1F
102
{ACAD_REACTORS
330
E
102
}
330
E
100
AcDbMaterial
  1
ByBlock
  2

 70
0
 40
1.0
 71
1
 41
1.0
 91
-1023410177
 42
1.0
 72
1
  3

 73
1
 74
1
 75
1
 44
0.5
 73
0
 45
1.0
 46
1.0
 77
1
  4

 78
1
 79
1
170
1
 48
1.0
171
1
  6

172
1
173
1
174
1
140
1.0
141
1.0
175
1
  7

176
1
177
1
178
1
143
1.0
179
1
  8

270
1
271
1
272
1
145
1.0
146
1.0
273
1
  9

274
1
275
1
276
1
 42
1.0
 72
1
  3

 73
1
 74
1
 75
1
 94
63
  0
MATERIAL
  5
20
102
{ACAD_REACTORS
330
E
102
}
330
E
100
AcDbMaterial
  1
ByLayer
  2

 70
0
 40
1.0
 71
1
 41
1.0
 91
-1023410177
 42
1.0
 72
1
  3

 73
1
 74
1
 75
1
 44
0.5
 73
0
 45
1.0
 46
1.0
 77
1
  4

 78
1
 79
1
170
1
 48
1.0
171
1
  6

172
1
173
1
174
1
140
1.0
141
1.0
175
1
  7

176
1
177
1
178
1
143
1.0
179
1
  8

270
1
271
1
272
1
145
1.0
146
1.0
273
1
  9

274
1
275
1
276
1
 42
1.0
 72
1
  3

 73
1
 74
1
 75
1
 94
63
  0
MATERIAL
  5
21
102
{ACAD_REACTORS
330
E
102
}
330
E
100
AcDbMaterial
  1
Global
  2

 70
0
 40
1.0
 71
1
 41
1.0
 91
-1023410177
 42
1.0
 72
1
  3

 73
1
 74
1
 75
1
 44
0.5
 73
0
 45
1.0
 46
1.0
 77
1
  4

 78
1
 79
1
170
1
 48
1.0
171
1
  6

172
1
173
1
174
1
140
1.0
141
1.0
175
1
  7

176
1
177
1
178
1
143
1.0
179
1
  8

270
1
271
1
272
1
145
1.0
146
1.0
273
1
  9

274
1
275
1
276
1
 42
1.0
 72
1
  3

 73
1
 74
1
 75
1
 94
63
  0
MLINESTYLE
  5
22
102
{ACAD_REACTORS
330
10
102
}
330
10
100
AcDbMlineStyle
  2
Standard
 70
0
  3

 62
256
 51
90.0
 52
90.0
 71
2
 49
0.5
 62
256
  6
BYLAYER
 49
-0.5
 62
256
  6
BYLAYER
  0
MLEADERSTYLE
  5
2C
102
{ACAD_REACTORS
330
F
102
}
330
F
100
AcDbMLeaderStyle
179
2
170
2
171
1
172
0
 90
2
 40
0.0
 41
0.0
173
1
 91
-1056964608
 92
-2
290
1
 42
2.0
291
1
 43
8.0
  3
Standard
 44
4.0
300

342
29
174
1
175
1
176
0
178
1
 93
-1056964608
 45
4.0
292
0
297
0
 46
4.0
 94
-1056964608
 47
1.0
 49
1.0
140
1.0
294
1
141
0.0
177
0
142
1.0
295
0
296
0
143
3.75
271
0
272
9
273
9
  0
DICTIONARY
  5
2D
330
A
100
AcDbDictionary
280
1
281
1
  3
CREATED_BY_EZDXF
350
2E
  3
WRITTEN_BY_EZDXF
350
141
  0
DICTIONARYVAR
  5
2E
330
2D
100
DictionaryVariables
280
0
  1
1.3.5 @ 2025-04-21T07:44:00.565030+00:00
  0
DICTIONARYVAR
  5
141
330
2D
100
DictionaryVariables
280
0
  1
1.3.5 @ 2025-04-21T07:44:00.577077+00:00
  0
ENDSEC
  0
EOF
