  0
SECTION
  2
HEADER
  9
$ACADVER
  1
AC1024
  9
$ACADMAINTVER
 70
6
  9
$DWGCODEPAGE
  3
ANSI_1252
  9
$LASTSAVEDBY
  1
ezdxf
  9
$INSBASE
 10
0.0
 20
0.0
 30
0.0
  9
$EXTMIN
 10
1e+20
 20
1e+20
 30
1e+20
  9
$EXTMAX
 10
-1e+20
 20
-1e+20
 30
-1e+20
  9
$LIMMIN
 10
0.0
 20
0.0
  9
$LIMMAX
 10
420.0
 20
297.0
  9
$ORTHOMODE
 70
0
  9
$REGENMODE
 70
1
  9
$FILLMODE
 70
1
  9
$QTEXTMODE
 70
0
  9
$MIRRTEXT
 70
1
  9
$LTSCALE
 40
1.0
  9
$ATTMODE
 70
1
  9
$TEXTSIZE
 40
2.5
  9
$TRACEWID
 40
1.0
  9
$TEXTSTYLE
  7
Standard
  9
$CLAYER
  8
0
  9
$CELTYPE
  6
ByLayer
  9
$CECOLOR
 62
256
  9
$CELTSCALE
 40
1.0
  9
$DISPSILH
 70
0
  9
$DIMSCALE
 40
1.0
  9
$DIMASZ
 40
2.5
  9
$DIMEXO
 40
0.625
  9
$DIMDLI
 40
3.75
  9
$DIMRND
 40
0.0
  9
$DIMDLE
 40
0.0
  9
$DIMEXE
 40
1.25
  9
$DIMTP
 40
0.0
  9
$DIMTM
 40
0.0
  9
$DIMTXT
 40
2.5
  9
$DIMCEN
 40
2.5
  9
$DIMTSZ
 40
0.0
  9
$DIMTOL
 70
0
  9
$DIMLIM
 70
0
  9
$DIMTIH
 70
0
  9
$DIMTOH
 70
0
  9
$DIMSE1
 70
0
  9
$DIMSE2
 70
0
  9
$DIMTAD
 70
1
  9
$DIMZIN
 70
8
  9
$DIMBLK
  1

  9
$DIMASO
 70
1
  9
$DIMSHO
 70
1
  9
$DIMPOST
  1

  9
$DIMAPOST
  1

  9
$DIMALT
 70
0
  9
$DIMALTD
 70
3
  9
$DIMALTF
 40
0.03937007874
  9
$DIMLFAC
 40
1.0
  9
$DIMTOFL
 70
1
  9
$DIMTVP
 40
0.0
  9
$DIMTIX
 70
0
  9
$DIMSOXD
 70
0
  9
$DIMSAH
 70
0
  9
$DIMBLK1
  1

  9
$DIMBLK2
  1

  9
$DIMSTYLE
  2
ISO-25
  9
$DIMCLRD
 70
0
  9
$DIMCLRE
 70
0
  9
$DIMCLRT
 70
0
  9
$DIMTFAC
 40
1.0
  9
$DIMGAP
 40
0.625
  9
$DIMJUST
 70
0
  9
$DIMSD1
 70
0
  9
$DIMSD2
 70
0
  9
$DIMTOLJ
 70
0
  9
$DIMTZIN
 70
8
  9
$DIMALTZ
 70
0
  9
$DIMALTTZ
 70
0
  9
$DIMUPT
 70
0
  9
$DIMDEC
 70
2
  9
$DIMTDEC
 70
2
  9
$DIMALTU
 70
2
  9
$DIMALTTD
 70
3
  9
$DIMTXSTY
  7
Standard
  9
$DIMAUNIT
 70
0
  9
$DIMADEC
 70
0
  9
$DIMALTRND
 40
0.0
  9
$DIMAZIN
 70
0
  9
$DIMDSEP
 70
44
  9
$DIMATFIT
 70
3
  9
$DIMFRAC
 70
0
  9
$DIMLDRBLK
  1

  9
$DIMLUNIT
 70
2
  9
$DIMLWD
 70
-2
  9
$DIMLWE
 70
-2
  9
$DIMTMOVE
 70
0
  9
$DIMFXL
 40
1.0
  9
$DIMFXLON
 70
0
  9
$DIMJOGANG
 40
0.785398163397
  9
$DIMTFILL
 70
0
  9
$DIMTFILLCLR
 70
0
  9
$DIMARCSYM
 70
0
  9
$DIMLTYPE
  6

  9
$DIMLTEX1
  6

  9
$DIMLTEX2
  6

  9
$DIMTXTDIRECTION
 70
0
  9
$LUNITS
 70
2
  9
$LUPREC
 70
4
  9
$SKETCHINC
 40
1.0
  9
$FILLETRAD
 40
10.0
  9
$AUNITS
 70
0
  9
$AUPREC
 70
2
  9
$MENU
  1
.
  9
$ELEVATION
 40
0.0
  9
$PELEVATION
 40
0.0
  9
$THICKNESS
 40
0.0
  9
$LIMCHECK
 70
0
  9
$CHAMFERA
 40
0.0
  9
$CHAMFERB
 40
0.0
  9
$CHAMFERC
 40
0.0
  9
$CHAMFERD
 40
0.0
  9
$SKPOLY
 70
0
  9
$TDCREATE
 40
<<<<<<< HEAD
2460787.447222222
=======
2460787.862673611
>>>>>>> fa42de9 (dd001)
  9
$TDUCREATE
 40
2458532.153996898
  9
$TDUPDATE
 40
<<<<<<< HEAD
2460787.447222222
=======
2460787.862673611
>>>>>>> fa42de9 (dd001)
  9
$TDUUPDATE
 40
2458532.1544311
  9
$TDINDWG
 40
0.0
  9
$TDUSRTIMER
 40
0.0
  9
$USRTIMER
 70
1
  9
$ANGBASE
 50
0.0
  9
$ANGDIR
 70
0
  9
$PDMODE
 70
0
  9
$PDSIZE
 40
0.0
  9
$PLINEWID
 40
0.0
  9
$SPLFRAME
 70
0
  9
$SPLINETYPE
 70
6
  9
$SPLINESEGS
 70
8
  9
$HANDSEED
  5
142
  9
$SURFTAB1
 70
6
  9
$SURFTAB2
 70
6
  9
$SURFTYPE
 70
6
  9
$SURFU
 70
6
  9
$SURFV
 70
6
  9
$UCSBASE
  2

  9
$UCSNAME
  2

  9
$UCSORG
 10
0.0
 20
0.0
 30
0.0
  9
$UCSXDIR
 10
1.0
 20
0.0
 30
0.0
  9
$UCSYDIR
 10
0.0
 20
1.0
 30
0.0
  9
$UCSORTHOREF
  2

  9
$UCSORTHOVIEW
 70
0
  9
$UCSORGTOP
 10
0.0
 20
0.0
 30
0.0
  9
$UCSORGBOTTOM
 10
0.0
 20
0.0
 30
0.0
  9
$UCSORGLEFT
 10
0.0
 20
0.0
 30
0.0
  9
$UCSORGRIGHT
 10
0.0
 20
0.0
 30
0.0
  9
$UCSORGFRONT
 10
0.0
 20
0.0
 30
0.0
  9
$UCSORGBACK
 10
0.0
 20
0.0
 30
0.0
  9
$PUCSBASE
  2

  9
$PUCSNAME
  2

  9
$PUCSORG
 10
0.0
 20
0.0
 30
0.0
  9
$PUCSXDIR
 10
1.0
 20
0.0
 30
0.0
  9
$PUCSYDIR
 10
0.0
 20
1.0
 30
0.0
  9
$PUCSORTHOREF
  2

  9
$PUCSORTHOVIEW
 70
0
  9
$PUCSORGTOP
 10
0.0
 20
0.0
 30
0.0
  9
$PUCSORGBOTTOM
 10
0.0
 20
0.0
 30
0.0
  9
$PUCSORGLEFT
 10
0.0
 20
0.0
 30
0.0
  9
$PUCSORGRIGHT
 10
0.0
 20
0.0
 30
0.0
  9
$PUCSORGFRONT
 10
0.0
 20
0.0
 30
0.0
  9
$PUCSORGBACK
 10
0.0
 20
0.0
 30
0.0
  9
$USERI1
 70
0
  9
$USERI2
 70
0
  9
$USERI3
 70
0
  9
$USERI4
 70
0
  9
$USERI5
 70
0
  9
$USERR1
 40
0.0
  9
$USERR2
 40
0.0
  9
$USERR3
 40
0.0
  9
$USERR4
 40
0.0
  9
$USERR5
 40
0.0
  9
$WORLDVIEW
 70
1
  9
$SHADEDGE
 70
3
  9
$SHADEDIF
 70
70
  9
$TILEMODE
 70
1
  9
$MAXACTVP
 70
64
  9
$PINSBASE
 10
0.0
 20
0.0
 30
0.0
  9
$PLIMCHECK
 70
0
  9
$PEXTMIN
 10
1e+20
 20
1e+20
 30
1e+20
  9
$PEXTMAX
 10
-1e+20
 20
-1e+20
 30
-1e+20
  9
$PLIMMIN
 10
0.0
 20
0.0
  9
$PLIMMAX
 10
420.0
 20
297.0
  9
$UNITMODE
 70
0
  9
$VISRETAIN
 70
1
  9
$PLINEGEN
 70
0
  9
$PSLTSCALE
 70
1
  9
$TREEDEPTH
 70
3020
  9
$CMLSTYLE
  2
Standard
  9
$CMLJUST
 70
0
  9
$CMLSCALE
 40
20.0
  9
$PROXYGRAPHICS
 70
1
  9
$MEASUREMENT
 70
1
  9
$CELWEIGHT
370
-1
  9
$ENDCAPS
280
0
  9
$JOINSTYLE
280
0
  9
$LWDISPLAY
290
0
  9
$INSUNITS
 70
6
  9
$HYPERLINKBASE
  1

  9
$STYLESHEET
  1

  9
$XEDIT
290
1
  9
$CEPSNTYPE
380
0
  9
$PSTYLEMODE
290
1
  9
$FINGERPRINTGUID
  2
<<<<<<< HEAD
{8BEA7C29-6786-42A0-A22B-066EA1F85F9B}
  9
$VERSIONGUID
  2
{CE9301FB-BF4F-400B-BC50-F3D6502B649E}
=======
{605EE07A-A560-4F78-AA09-916E8A5DDEB0}
  9
$VERSIONGUID
  2
{23EB8FA8-C7B1-4BE6-A101-B96533942898}
>>>>>>> fa42de9 (dd001)
  9
$EXTNAMES
290
1
  9
$PSVPSCALE
 40
0.0
  9
$OLESTARTUP
290
0
  9
$SORTENTS
280
127
  9
$INDEXCTL
280
0
  9
$HIDETEXT
280
1
  9
$XCLIPFRAME
280
1
  9
$HALOGAP
280
0
  9
$OBSCOLOR
 70
257
  9
$OBSLTYPE
280
0
  9
$INTERSECTIONDISPLAY
280
0
  9
$INTERSECTIONCOLOR
 70
257
  9
$DIMASSOC
280
2
  9
$PROJECTNAME
  1

  9
$CAMERADISPLAY
290
0
  9
$LENSLENGTH
 40
50.0
  9
$CAMERAHEIGHT
 40
0.0
  9
$STEPSPERSEC
 40
24.0
  9
$STEPSIZE
 40
100.0
  9
$3DDWFPREC
 40
2.0
  9
$PSOLWIDTH
 40
0.005
  9
$PSOLHEIGHT
 40
0.08
  9
$LOFTANG1
 40
1.570796326795
  9
$LOFTANG2
 40
1.570796326795
  9
$LOFTMAG1
 40
0.0
  9
$LOFTMAG2
 40
0.0
  9
$LOFTPARAM
 70
7
  9
$LOFTNORMALS
280
1
  9
$LATITUDE
 40
37.795
  9
$LONGITUDE
 40
-122.394
  9
$NORTHDIRECTION
 40
0.0
  9
$TIMEZONE
 70
-8000
  9
$LIGHTGLYPHDISPLAY
280
1
  9
$TILEMODELIGHTSYNCH
280
1
  9
$CMATERIAL
347
20
  9
$SOLIDHIST
280
0
  9
$SHOWHIST
280
1
  9
$DWFFRAME
280
2
  9
$DGNFRAME
280
2
  9
$REALWORLDSCALE
290
1
  9
$INTERFERECOLOR
 62
256
  9
$CSHADOW
280
0
  9
$SHADOWPLANELOCATION
 40
0.0
  0
ENDSEC
  0
SECTION
  2
CLASSES
  0
CLASS
  1
ACDBDICTIONARYWDFLT
  2
AcDbDictionaryWithDefault
  3
ObjectDBX Classes
 90
0
 91
0
280
0
281
0
  0
CLASS
  1
SUN
  2
AcDbSun
  3
SCENEOE
 90
1153
 91
0
280
0
281
0
  0
CLASS
  1
VISUALSTYLE
  2
AcDbVisualStyle
  3
ObjectDBX Classes
 90
4095
 91
0
280
0
281
0
  0
CLASS
  1
MATERIAL
  2
AcDbMaterial
  3
ObjectDBX Classes
 90
1153
 91
0
280
0
281
0
  0
CLASS
  1
SCALE
  2
AcDbScale
  3
ObjectDBX Classes
 90
1153
 91
0
280
0
281
0
  0
CLASS
  1
TABLESTYLE
  2
AcDbTableStyle
  3
ObjectDBX Classes
 90
4095
 91
0
280
0
281
0
  0
CLASS
  1
MLEADERSTYLE
  2
AcDbMLeaderStyle
  3
ACDB_MLEADERSTYLE_CLASS
 90
4095
 91
0
280
0
281
0
  0
CLASS
  1
DICTIONARYVAR
  2
AcDbDictionaryVar
  3
ObjectDBX Classes
 90
0
 91
0
280
0
281
0
  0
CLASS
  1
CELLSTYLEMAP
  2
AcDbCellStyleMap
  3
ObjectDBX Classes
 90
1152
 91
0
280
0
281
0
  0
CLASS
  1
MENTALRAYRENDERSETTINGS
  2
AcDbMentalRayRenderSettings
  3
SCENEOE
 90
1024
 91
0
280
0
281
0
  0
CLASS
  1
ACDBDETAILVIEWSTYLE
  2
AcDbDetailViewStyle
  3
ObjectDBX Classes
 90
1025
 91
0
280
0
281
0
  0
CLASS
  1
ACDBSECTIONVIEWSTYLE
  2
AcDbSectionViewStyle
  3
ObjectDBX Classes
 90
1025
 91
0
280
0
281
0
  0
CLASS
  1
RASTERVARIABLES
  2
AcDbRasterVariables
  3
ISM
 90
0
 91
0
280
0
281
0
  0
CLASS
  1
ACDBPLACEHOLDER
  2
AcDbPlaceHolder
  3
ObjectDBX Classes
 90
0
 91
0
280
0
281
0
  0
CLASS
  1
LAYOUT
  2
AcDbLayout
  3
ObjectDBX Classes
 90
0
 91
0
280
0
281
0
  0
ENDSEC
  0
SECTION
  2
TABLES
  0
TABLE
  2
VPORT
  5
8
330
0
100
AcDbSymbolTable
 70
1
  0
VPORT
  5
23
330
8
100
AcDbSymbolTableRecord
100
AcDbViewportTableRecord
  2
*Active
 70
0
 10
0.0
 20
0.0
 11
1.0
 21
1.0
 12
0.0
 22
0.0
 13
0.0
 23
0.0
 14
0.5
 24
0.5
 15
0.5
 25
0.5
 16
0.0
 26
0.0
 36
1.0
 17
0.0
 27
0.0
 37
0.0
 40
1000.0
 41
1.34
 42
50.0
 43
0.0
 44
0.0
 50
0.0
 51
0.0
 71
0
 72
1000
 73
1
 74
3
 75
0
 76
0
 77
0
 78
0
281
0
 65
0
146
0.0
  0
ENDTAB
  0
TABLE
  2
LTYPE
  5
2
330
0
100
AcDbSymbolTable
 70
3
  0
LTYPE
  5
24
330
2
100
AcDbSymbolTableRecord
100
AcDbLinetypeTableRecord
  2
ByBlock
 70
0
  3

 72
65
 73
0
 40
0.0
  0
LTYPE
  5
25
330
2
100
AcDbSymbolTableRecord
100
AcDbLinetypeTableRecord
  2
ByLayer
 70
0
  3

 72
65
 73
0
 40
0.0
  0
LTYPE
  5
26
330
2
100
AcDbSymbolTableRecord
100
AcDbLinetypeTableRecord
  2
Continuous
 70
0
  3

 72
65
 73
0
 40
0.0
  0
ENDTAB
  0
TABLE
  2
LAYER
  5
1
330
0
100
AcDbSymbolTable
 70
2
  0
LAYER
  5
27
330
1
100
AcDbSymbolTableRecord
100
AcDbLayerTableRecord
  2
0
 70
0
 62
7
  6
Continuous
370
-3
390
13
347
21
  0
LAYER
  5
28
330
1
100
AcDbSymbolTableRecord
100
AcDbLayerTableRecord
  2
Defpoints
 70
0
 62
7
  6
Continuous
290
0
370
-3
390
13
347
21
  0
ENDTAB
  0
TABLE
  2
STYLE
  5
5
330
0
100
AcDbSymbolTable
 70
1
  0
STYLE
  5
29
330
5
100
AcDbSymbolTableRecord
100
AcDbTextStyleTableRecord
  2
Standard
 70
0
 40
0.0
 41
1.0
 50
0.0
 71
0
 42
2.5
  3
txt
  4

  0
ENDTAB
  0
TABLE
  2
VIEW
  5
7
330
0
100
AcDbSymbolTable
 70
0
  0
ENDTAB
  0
TABLE
  2
UCS
  5
6
330
0
100
AcDbSymbolTable
 70
0
  0
ENDTAB
  0
TABLE
  2
APPID
  5
3
330
0
100
AcDbSymbolTable
 70
3
  0
APPID
  5
2A
330
3
100
AcDbSymbolTableRecord
100
AcDbRegAppTableRecord
  2
ACAD
 70
0
  0
APPID
  5
13F
330
3
100
AcDbSymbolTableRecord
100
AcDbRegAppTableRecord
  2
HATCHBACKGROUNDCOLOR
 70
0
  0
APPID
  5
140
330
3
100
AcDbSymbolTableRecord
100
AcDbRegAppTableRecord
  2
EZDXF
 70
0
  0
ENDTAB
  0
TABLE
  2
DIMSTYLE
  5
4
330
0
100
AcDbSymbolTable
 70
1
100
AcDbDimStyleTable
  0
DIMSTYLE
105
2B
330
4
100
AcDbSymbolTableRecord
100
AcDbDimStyleTableRecord
  2
Standard
 70
0
 40
1.0
 41
2.5
 42
0.625
 43
3.75
 44
1.25
 45
0.0
 46
0.0
 47
0.0
 48
0.0
 49
2.5
140
2.5
141
2.5
142
0.0
143
0.03937007874
144
1.0
145
0.0
146
1.0
147
0.625
148
0.0
 69
0
 70
0
 71
0
 72
0
 73
0
 74
0
 75
0
 76
0
 77
1
 78
8
 79
3
170
0
171
3
172
1
173
0
174
0
175
0
176
0
177
0
178
0
179
2
271
2
272
2
273
2
274
3
275
0
276
0
277
2
278
44
279
0
280
0
281
0
282
0
283
0
284
8
285
0
286
0
288
0
289
3
290
0
371
-2
372
-2
  0
ENDTAB
  0
TABLE
  2
BLOCK_RECORD
  5
9
330
0
100
AcDbSymbolTable
 70
4
  0
BLOCK_RECORD
  5
17
330
9
100
AcDbSymbolTableRecord
100
AcDbBlockTableRecord
  2
*Model_Space
340
1A
 70
0
280
1
281
0
  0
BLOCK_RECORD
  5
1B
330
9
100
AcDbSymbolTableRecord
100
AcDbBlockTableRecord
  2
*Paper_Space
340
1E
 70
0
280
1
281
0
  0
BLOCK_RECORD
  5
2F
330
9
100
AcDbSymbolTableRecord
100
AcDbBlockTableRecord
  2
FLAG
340
0
 70
0
280
1
281
0
  0
BLOCK_RECORD
  5
38
330
9
100
AcDbSymbolTableRecord
100
AcDbBlockTableRecord
  2
штамп
340
0
 70
0
280
1
281
0
  0
ENDTAB
  0
ENDSEC
  0
SECTION
  2
BLOCKS
  0
BLOCK
  5
18
330
17
100
AcDbEntity
  8
0
100
AcDbBlockBegin
  2
*Model_Space
 70
0
 10
0.0
 20
0.0
 30
0.0
  3
*Model_Space
  1

  0
ENDBLK
  5
19
330
17
100
AcDbEntity
  8
0
100
AcDbBlockEnd
  0
BLOCK
  5
1C
330
1B
100
AcDbEntity
  8
0
100
AcDbBlockBegin
  2
*Paper_Space
 70
0
 10
0.0
 20
0.0
 30
0.0
  3
*Paper_Space
  1

  0
ENDBLK
  5
1D
330
1B
100
AcDbEntity
  8
0
100
AcDbBlockEnd
  0
BLOCK
  5
30
330
2F
100
AcDbEntity
  8
0
100
AcDbBlockBegin
  2
FLAG
 70
2
 10
0.0
 20
0.0
 30
0.0
  3
FLAG
  1

  0
TEXT
  5
32
330
2F
100
AcDbEntity
  8
0
 62
3
100
AcDbText
 10
0.0
 20
-0.5
 30
0.0
 40
0.5
  1
NAME:
100
AcDbText
  0
ATTDEF
  5
33
330
2F
100
AcDbEntity
  8
0
 62
3
100
AcDbText
 10
1.5
 20
-0.5
 30
0.0
 40
0.5
  1

100
AcDbAttributeDefinition
  3

  2
NAME
 70
0
  0
TEXT
  5
34
330
2F
100
AcDbEntity
  8
0
 62
4
100
AcDbText
 10
0.0
 20
-1.0
 30
0.0
 40
0.25
  1
XPOS:
100
AcDbText
  0
ATTDEF
  5
35
330
2F
100
AcDbEntity
  8
0
 62
4
100
AcDbText
 10
1.5
 20
-1.0
 30
0.0
 40
0.25
  1

100
AcDbAttributeDefinition
  3

  2
XPOS
 70
0
  0
TEXT
  5
36
330
2F
100
AcDbEntity
  8
0
 62
4
100
AcDbText
 10
0.0
 20
-1.5
 30
0.0
 40
0.25
  1
YPOS:
100
AcDbText
  0
ATTDEF
  5
37
330
2F
100
AcDbEntity
  8
0
 62
4
100
AcDbText
 10
1.5
 20
-1.5
 30
0.0
 40
0.25
  1

100
AcDbAttributeDefinition
  3

  2
YPOS
 70
0
  0
ENDBLK
  5
31
330
2F
100
AcDbEntity
  8
0
100
AcDbBlockEnd
  0
BLOCK
  5
39
330
38
100
AcDbEntity
  8
0
100
AcDbBlockBegin
  2
штамп
 70
2
 10
0.0
 20
0.0
 30
0.0
  3
штамп
  1

  0
LWPOLYLINE
  5
3D
330
38
100
AcDbEntity
  8
F_TitleBox
 62
4
100
AcDbPolyline
 90
5
 70
1
 10
<<<<<<< HEAD
-87.0
 20
-155.0
 10
-87.0
 20
142.0
 10
123.0
 20
142.0
 10
123.0
 20
-155.0
 10
-87.0
 20
-155.0
=======
-37.0
 20
-210.0
 10
-37.0
 20
87.0
 10
173.0
 20
87.0
 10
173.0
 20
-210.0
 10
-37.0
 20
-210.0
>>>>>>> fa42de9 (dd001)
  0
LWPOLYLINE
  5
3E
330
38
100
AcDbEntity
  8
F_TitleBox
 62
2
100
AcDbPolyline
 90
5
 70
1
 43
0.4
 10
<<<<<<< HEAD
-67.0
 20
-150.0
 10
-67.0
 20
137.0
 10
118.0
 20
137.0
 10
118.0
 20
-150.0
 10
-67.0
 20
-150.0
=======
-17.0
 20
-205.0
 10
-17.0
 20
82.0
 10
168.0
 20
82.0
 10
168.0
 20
-205.0
 10
-17.0
 20
-205.0
>>>>>>> fa42de9 (dd001)
  0
POINT
  5
3F
330
38
100
AcDbEntity
  8
POINTS
 62
1
100
AcDbPoint
 10
0.0
 20
0.0
 30
0.0
  0
TEXT
  5
40
330
38
100
AcDbEntity
  8
0
 62
3
100
AcDbText
 10
0.0
 20
0.0
 30
0.0
 40
0.5
  1
Name:
100
AcDbText
  0
ATTDEF
  5
41
330
38
100
AcDbEntity
  8
0
 62
3
100
AcDbText
 10
1.0
 20
0.0
 30
0.0
 40
0.5
  1

100
AcDbAttributeDefinition
  3

  2
NAME
 70
0
  0
ENDBLK
  5
3A
330
38
100
AcDbEntity
  8
0
100
AcDbBlockEnd
  0
ENDSEC
  0
SECTION
  2
ENTITIES
  0
INSERT
  5
3B
330
17
100
AcDbEntity
  8
F_TitleBox
100
AcDbBlockReference
  2
штамп
 10
0.0
 20
0.0
 30
0.0
  0
INSERT
  5
42
330
17
100
AcDbEntity
  8
0
100
AcDbBlockReference
 66
1
  2
штамп
 10
10.0
 20
20.0
 30
0.0
 41
3.8
 42
3.8
 43
3.8
 50
15.0
  0
ATTRIB
  5
44
330
17
100
AcDbEntity
  8
0
 62
3
100
AcDbText
 10
13.670518139898459
 20
20.98351237138958
 30
0.0
 40
1.9
  1
Object
 50
14.999999999999998
 11
13.670518139898459
 21
20.98351237138958
 31
0.0
100
AcDbAttribute
  2
NAME
 70
0
  0
SEQEND
  5
43
330
42
100
AcDbEntity
  8
0
  0
INSERT
  5
45
330
17
100
AcDbEntity
  8
0
100
AcDbBlockReference
 66
1
  2
FLAG
 10
<<<<<<< HEAD
-57.0
 20
43.0
 30
0.0
 41
0.5605492934950589
 42
0.5605492934950589
 43
0.5605492934950589
=======
-81.0
 20
-43.0
 30
0.0
 41
1.0715790326154075
 42
1.0715790326154075
 43
1.0715790326154075
>>>>>>> fa42de9 (dd001)
 50
15.0
  0
ATTRIB
  5
47
330
17
100
AcDbEntity
  8
0
 62
3
100
AcDbText
 10
<<<<<<< HEAD
-56.11528602431991
 20
42.94689672956544
 30
0.0
 40
0.28027464674752944
=======
-79.30872867524369
 20
-43.10151533829644
 30
0.0
 40
0.5357895163077038
>>>>>>> fa42de9 (dd001)
  1
P(1)
 50
14.999999999999998
 11
<<<<<<< HEAD
-56.11528602431991
 21
42.94689672956544
=======
-79.30872867524369
 21
-43.10151533829644
>>>>>>> fa42de9 (dd001)
 31
0.0
100
AcDbAttribute
  2
NAME
 70
0
  0
ATTRIB
  5
48
330
17
100
AcDbEntity
  8
0
 62
4
100
AcDbText
 10
<<<<<<< HEAD
-56.04274560788227
 20
42.676172209817956
 30
0.0
 40
0.14013732337376472
  1
= -57.000
 50
14.999999999999998
 11
-56.04274560788227
 21
42.676172209817956
=======
-79.17005614425698
 20
-43.61904826955298
 30
0.0
 40
0.2678947581538519
  1
= -81.000
 50
14.999999999999998
 11
-79.17005614425698
 21
-43.61904826955298
>>>>>>> fa42de9 (dd001)
 31
0.0
100
AcDbAttribute
  2
XPOS
 70
0
  0
ATTRIB
  5
49
330
17
100
AcDbEntity
  8
0
 62
4
100
AcDbText
 10
<<<<<<< HEAD
-55.97020519144462
 20
42.405447690070474
 30
0.0
 40
0.14013732337376472
  1
= 43.000
 50
14.999999999999998
 11
-55.97020519144462
 21
42.405447690070474
=======
-79.03138361327028
 20
-44.136581200809516
 30
0.0
 40
0.2678947581538519
  1
= -43.000
 50
14.999999999999998
 11
-79.03138361327028
 21
-44.136581200809516
>>>>>>> fa42de9 (dd001)
 31
0.0
100
AcDbAttribute
  2
YPOS
 70
0
  0
SEQEND
  5
46
330
45
100
AcDbEntity
  8
0
  0
INSERT
  5
4A
330
17
100
AcDbEntity
  8
0
100
AcDbBlockReference
 66
1
  2
FLAG
 10
<<<<<<< HEAD
57.0
 20
-81.0
 30
0.0
 41
2.1544183961230026
 42
2.1544183961230026
 43
2.1544183961230026
=======
93.0
 20
71.0
 30
0.0
 41
1.1106099476003848
 42
1.1106099476003848
 43
1.1106099476003848
>>>>>>> fa42de9 (dd001)
 50
15.0
  0
ATTRIB
  5
4C
330
17
100
AcDbEntity
  8
0
 62
3
100
AcDbText
 10
<<<<<<< HEAD
60.40031481018915
 20
-81.20409741666995
 30
0.0
 40
1.0772091980615013
=======
94.75287375004079
 20
70.89478709351856
 30
0.0
 40
0.5553049738001924
>>>>>>> fa42de9 (dd001)
  1
P(2)
 50
15.000000000000002
 11
<<<<<<< HEAD
60.40031481018915
 21
-81.20409741666995
=======
94.75287375004079
 21
70.89478709351856
>>>>>>> fa42de9 (dd001)
 31
0.0
100
AcDbAttribute
  2
NAME
 70
0
  0
ATTRIB
  5
4D
330
17
100
AcDbEntity
  8
0
 62
4
100
AcDbText
 10
<<<<<<< HEAD
60.679117066207084
 20
-82.2446016013937
 30
0.0
 40
0.5386045990307506
  1
= 57.000
=======
94.89659725310044
 20
70.35840367785818
 30
0.0
 40
0.2776524869000962
  1
= 93.000
>>>>>>> fa42de9 (dd001)
 50
15.000000000000002
 11
<<<<<<< HEAD
60.679117066207084
 21
-82.2446016013937
=======
94.89659725310044
 21
70.35840367785818
>>>>>>> fa42de9 (dd001)
 31
0.0
100
AcDbAttribute
  2
XPOS
 70
0
  0
ATTRIB
  5
4E
330
17
100
AcDbEntity
  8
0
 62
4
100
AcDbText
 10
<<<<<<< HEAD
60.95791932222501
 20
-83.28510578611743
 30
0.0
 40
0.5386045990307506
  1
= -81.000
=======
95.04032075616009
 20
69.8220202621978
 30
0.0
 40
0.2776524869000962
  1
= 71.000
>>>>>>> fa42de9 (dd001)
 50
15.000000000000002
 11
<<<<<<< HEAD
60.95791932222501
 21
-83.28510578611743
=======
95.04032075616009
 21
69.8220202621978
>>>>>>> fa42de9 (dd001)
 31
0.0
100
AcDbAttribute
  2
YPOS
 70
0
  0
SEQEND
  5
4B
330
4A
100
AcDbEntity
  8
0
  0
INSERT
  5
4F
330
17
100
AcDbEntity
  8
0
100
AcDbBlockReference
 66
1
  2
FLAG
 10
<<<<<<< HEAD
-64.0
 20
-83.0
 30
0.0
 41
0.5031743245609597
 42
0.5031743245609597
 43
0.5031743245609597
=======
-55.0
 20
-44.0
 30
0.0
 41
1.5378406351528149
 42
1.5378406351528149
 43
1.5378406351528149
>>>>>>> fa42de9 (dd001)
 50
15.0
  0
ATTRIB
  5
51
330
17
100
AcDbEntity
  8
0
 62
3
100
AcDbText
 10
<<<<<<< HEAD
-63.20584083807003
 20
-83.04766789030504
 30
0.0
 40
0.25158716228047984
  1
P(3)
 50
14.999999999999998
 11
-63.20584083807003
 21
-83.04766789030504
=======
-52.572828798328615
 20
-44.145686326040284
 30
0.0
 40
0.7689203175764074
  1
P(3)
 50
15.000000000000002
 11
-52.572828798328615
 21
-44.145686326040284
>>>>>>> fa42de9 (dd001)
 31
0.0
100
AcDbAttribute
  2
NAME
 70
0
  0
ATTRIB
  5
52
330
17
100
AcDbEntity
  8
0
 62
4
100
AcDbText
 10
<<<<<<< HEAD
-63.14072528896855
 20
-83.29068242791453
 30
0.0
 40
0.12579358114023992
  1
= -64.000
 50
14.999999999999998
 11
-63.14072528896855
 21
-83.29068242791453
=======
-52.37381757597356
 20
-44.88840631914573
 30
0.0
 40
0.3844601587882037
  1
= -55.000
 50
15.000000000000002
 11
-52.37381757597356
 21
-44.88840631914573
>>>>>>> fa42de9 (dd001)
 31
0.0
100
AcDbAttribute
  2
XPOS
 70
0
  0
ATTRIB
  5
53
330
17
100
AcDbEntity
  8
0
 62
4
100
AcDbText
 10
<<<<<<< HEAD
-63.075609739867055
 20
-83.53369696552403
 30
0.0
 40
0.12579358114023992
  1
= -83.000
 50
14.999999999999998
 11
-63.075609739867055
 21
-83.53369696552403
=======
-52.17480635361851
 20
-45.631126312251176
 30
0.0
 40
0.3844601587882037
  1
= -44.000
 50
15.000000000000002
 11
-52.17480635361851
 21
-45.631126312251176
>>>>>>> fa42de9 (dd001)
 31
0.0
100
AcDbAttribute
  2
YPOS
 70
0
  0
SEQEND
  5
50
330
4F
100
AcDbEntity
  8
0
  0
INSERT
  5
54
330
17
100
AcDbEntity
  8
0
100
AcDbBlockReference
 66
1
  2
FLAG
 10
<<<<<<< HEAD
-38.0
 20
-17.0
 30
0.0
 41
1.079990441831999
 42
1.079990441831999
 43
1.079990441831999
=======
9.0
 20
40.0
 30
0.0
 41
1.0538416678798173
 42
1.0538416678798173
 43
1.0538416678798173
>>>>>>> fa42de9 (dd001)
 50
15.0
  0
ATTRIB
  5
56
330
17
100
AcDbEntity
  8
0
 62
3
100
AcDbText
 10
<<<<<<< HEAD
-36.295452962696295
 20
-17.102312187643225
 30
0.0
 40
0.5399952209159995
=======
10.663276472821945
 20
39.90016499934252
 30
0.0
 40
0.5269208339399086
>>>>>>> fa42de9 (dd001)
  1
P(4)
 50
14.999999999999998
 11
<<<<<<< HEAD
-36.295452962696295
 21
-17.102312187643225
=======
10.663276472821945
 21
39.90016499934252
>>>>>>> fa42de9 (dd001)
 31
0.0
100
AcDbAttribute
  2
NAME
 70
0
  0
ATTRIB
  5
57
330
17
100
AcDbEntity
  8
0
 62
4
100
AcDbText
 10
<<<<<<< HEAD
-36.155691915258885
 20
-17.62390751759866
 30
0.0
 40
0.26999761045799975
  1
= -38.000
 50
14.999999999999998
 11
-36.155691915258885
 21
-17.62390751759866
=======
10.799653619906895
 20
39.391198557430194
 30
0.0
 40
0.2634604169699543
  1
= 9.000
 50
14.999999999999998
 11
10.799653619906895
 21
39.391198557430194
>>>>>>> fa42de9 (dd001)
 31
0.0
100
AcDbAttribute
  2
XPOS
 70
0
  0
ATTRIB
  5
58
330
17
100
AcDbEntity
  8
0
 62
4
100
AcDbText
 10
<<<<<<< HEAD
-36.01593086782148
 20
-18.14550284755409
 30
0.0
 40
0.26999761045799975
  1
= -17.000
 50
14.999999999999998
 11
-36.01593086782148
 21
-18.14550284755409
=======
10.936030766991847
 20
38.88223211551786
 30
0.0
 40
0.2634604169699543
  1
= 40.000
 50
14.999999999999998
 11
10.936030766991847
 21
38.88223211551786
>>>>>>> fa42de9 (dd001)
 31
0.0
100
AcDbAttribute
  2
YPOS
 70
0
  0
SEQEND
  5
55
330
54
100
AcDbEntity
  8
0
  0
INSERT
  5
59
330
17
100
AcDbEntity
  8
0
100
AcDbBlockReference
 66
1
  2
FLAG
 10
<<<<<<< HEAD
-93.0
 20
-99.0
 30
0.0
 41
1.924379222824476
 42
1.924379222824476
 43
1.924379222824476
=======
32.0
 20
57.0
 30
0.0
 41
2.413435880613215
 42
2.413435880613215
 43
2.413435880613215
>>>>>>> fa42de9 (dd001)
 50
15.0
  0
ATTRIB
  5
5B
330
17
100
AcDbEntity
  8
0
 62
3
100
AcDbText
 10
<<<<<<< HEAD
-89.96275561721635
 20
-99.18230480615028
 30
0.0
 40
0.962189611412238
=======
35.80912165578374
 20
56.77136473146621
 30
0.0
 40
1.2067179403066075
>>>>>>> fa42de9 (dd001)
  1
P(5)
 50
14.999999999999998
 11
<<<<<<< HEAD
-89.96275561721635
 21
-99.18230480615028
=======
35.80912165578374
 21
56.77136473146621
>>>>>>> fa42de9 (dd001)
 31
0.0
100
AcDbAttribute
  2
NAME
 70
0
  0
ATTRIB
  5
5C
330
17
100
AcDbEntity
  8
0
 62
4
100
AcDbText
 10
<<<<<<< HEAD
-89.71372262078307
 20
-100.1117086016004
 30
0.0
 40
0.481094805706119
  1
= -93.000
 50
14.999999999999998
 11
-89.71372262078307
 21
-100.1117086016004
=======
36.12144324080198
 20
55.605764707877704
 30
0.0
 40
0.6033589701533038
  1
= 32.000
 50
14.999999999999998
 11
36.12144324080198
 21
55.605764707877704
>>>>>>> fa42de9 (dd001)
 31
0.0
100
AcDbAttribute
  2
XPOS
 70
0
  0
ATTRIB
  5
5D
330
17
100
AcDbEntity
  8
0
 62
4
100
AcDbText
 10
<<<<<<< HEAD
-89.46468962434979
 20
-101.04111239705053
 30
0.0
 40
0.481094805706119
  1
= -99.000
 50
14.999999999999998
 11
-89.46468962434979
 21
-101.04111239705053
=======
36.43376482582022
 20
54.4401646842892
 30
0.0
 40
0.6033589701533038
  1
= 57.000
 50
14.999999999999998
 11
36.43376482582022
 21
54.4401646842892
>>>>>>> fa42de9 (dd001)
 31
0.0
100
AcDbAttribute
  2
YPOS
 70
0
  0
SEQEND
  5
5A
330
59
100
AcDbEntity
  8
0
  0
INSERT
  5
5E
330
17
100
AcDbEntity
  8
0
100
AcDbBlockReference
 66
1
  2
FLAG
 10
<<<<<<< HEAD
44.0
 20
-41.0
 30
0.0
 41
2.44434690978204
 42
2.44434690978204
 43
2.44434690978204
=======
-53.0
 20
-30.0
 30
0.0
 41
2.210637973170849
 42
2.210637973170849
 43
2.210637973170849
>>>>>>> fa42de9 (dd001)
 50
15.0
  0
ATTRIB
  5
60
330
17
100
AcDbEntity
  8
0
 62
3
100
AcDbText
 10
<<<<<<< HEAD
47.85790847939706
 20
-41.231563604650546
 30
0.0
 40
1.22217345489102
=======
-49.51095392906671
 20
-30.209423341505346
 30
0.0
 40
1.1053189865854245
>>>>>>> fa42de9 (dd001)
  1
P(6)
 50
14.999999999999998
 11
<<<<<<< HEAD
47.85790847939706
 21
-41.231563604650546
=======
-49.51095392906671
 21
-30.209423341505346
>>>>>>> fa42de9 (dd001)
 31
0.0
100
AcDbAttribute
  2
NAME
 70
0
  0
ATTRIB
  5
61
330
17
100
AcDbEntity
  8
0
 62
4
100
AcDbText
 10
<<<<<<< HEAD
48.17423024594161
 20
-42.41209250893472
 30
0.0
 40
0.61108672744551
  1
= 44.000
 50
14.999999999999998
 11
48.17423024594161
 21
-42.41209250893472
=======
-49.22487632442498
 20
-31.277079496935865
 30
0.0
 40
0.5526594932927122
  1
= -53.000
 50
14.999999999999998
 11
-49.22487632442498
 21
-31.277079496935865
>>>>>>> fa42de9 (dd001)
 31
0.0
100
AcDbAttribute
  2
XPOS
 70
0
  0
ATTRIB
  5
62
330
17
100
AcDbEntity
  8
0
 62
4
100
AcDbText
 10
<<<<<<< HEAD
48.49055201248615
 20
-43.59262141321889
 30
0.0
 40
0.61108672744551
  1
= -41.000
 50
14.999999999999998
 11
48.49055201248615
 21
-43.59262141321889
=======
-48.93879871978326
 20
-32.34473565236639
 30
0.0
 40
0.5526594932927122
  1
= -30.000
 50
14.999999999999998
 11
-48.93879871978326
 21
-32.34473565236639
>>>>>>> fa42de9 (dd001)
 31
0.0
100
AcDbAttribute
  2
YPOS
 70
0
  0
SEQEND
  5
5F
330
5E
100
AcDbEntity
  8
0
  0
INSERT
  5
63
330
17
100
AcDbEntity
  8
0
100
AcDbBlockReference
 66
1
  2
FLAG
 10
<<<<<<< HEAD
96.0
 20
-80.0
 30
0.0
 41
0.5766396060860639
 42
0.5766396060860639
 43
0.5766396060860639
=======
36.0
 20
65.0
 30
0.0
 41
0.5319040461807056
 42
0.5319040461807056
 43
0.5319040461807056
>>>>>>> fa42de9 (dd001)
 50
15.0
  0
ATTRIB
  5
65
330
17
100
AcDbEntity
  8
0
 62
3
100
AcDbText
 10
<<<<<<< HEAD
96.91010928807727
 20
-80.05462757566661
 30
0.0
 40
0.28831980304303195
=======
36.83950323162972
 20
64.94961041832119
 30
0.0
 40
0.2659520230903528
>>>>>>> fa42de9 (dd001)
  1
P(7)
 50
14.999999999999998
 11
<<<<<<< HEAD
96.91010928807727
 21
-80.05462757566661
=======
36.83950323162972
 21
64.94961041832119
>>>>>>> fa42de9 (dd001)
 31
0.0
100
AcDbAttribute
  2
NAME
 70
0
  0
ATTRIB
  5
66
330
17
100
AcDbEntity
  8
0
 62
4
100
AcDbText
 10
<<<<<<< HEAD
96.98473194418501
 20
-80.33312311965645
 30
0.0
 40
0.14415990152151598
  1
= 96.000
 50
14.999999999999998
 11
96.98473194418501
 21
-80.33312311965645
=======
36.908336680289054
 20
64.69272049066439
 30
0.0
 40
0.1329760115451764
  1
= 36.000
 50
14.999999999999998
 11
36.908336680289054
 21
64.69272049066439
>>>>>>> fa42de9 (dd001)
 31
0.0
100
AcDbAttribute
  2
XPOS
 70
0
  0
ATTRIB
  5
67
330
17
100
AcDbEntity
  8
0
 62
4
100
AcDbText
 10
<<<<<<< HEAD
97.05935460029276
 20
-80.6116186636463
 30
0.0
 40
0.14415990152151598
  1
= -80.000
 50
14.999999999999998
 11
97.05935460029276
 21
-80.6116186636463
=======
36.97717012894838
 20
64.43583056300758
 30
0.0
 40
0.1329760115451764
  1
= 65.000
 50
14.999999999999998
 11
36.97717012894838
 21
64.43583056300758
>>>>>>> fa42de9 (dd001)
 31
0.0
100
AcDbAttribute
  2
YPOS
 70
0
  0
SEQEND
  5
64
330
63
100
AcDbEntity
  8
0
  0
INSERT
  5
68
330
17
100
AcDbEntity
  8
0
100
AcDbBlockReference
 66
1
  2
FLAG
 10
<<<<<<< HEAD
-21.0
 20
54.0
 30
0.0
 41
1.4386308782442374
 42
1.4386308782442374
 43
1.4386308782442374
=======
-30.0
 20
60.0
 30
0.0
 41
0.9071186884577283
 42
0.9071186884577283
 43
0.9071186884577283
>>>>>>> fa42de9 (dd001)
 50
15.0
  0
ATTRIB
  5
6A
330
17
100
AcDbEntity
  8
0
 62
3
100
AcDbText
 10
<<<<<<< HEAD
-18.729411385229362
 20
53.86371224534675
 30
0.0
 40
0.7193154391221187
=======
-28.56829615059318
 20
59.914064704766524
 30
0.0
 40
0.4535593442288642
>>>>>>> fa42de9 (dd001)
  1
P(8)
 50
15.000000000000002
 11
<<<<<<< HEAD
-18.729411385229362
 21
53.86371224534675
=======
-28.56829615059318
 21
59.914064704766524
>>>>>>> fa42de9 (dd001)
 31
0.0
100
AcDbAttribute
  2
NAME
 70
0
  0
ATTRIB
  5
6B
330
17
100
AcDbEntity
  8
0
 62
4
100
AcDbText
 10
<<<<<<< HEAD
-18.543238850148278
 20
53.16890688545023
 30
0.0
 40
0.35965771956105935
  1
= -21.000
=======
-28.45090635422254
 20
59.475960020421134
 30
0.0
 40
0.2267796721144321
  1
= -30.000
>>>>>>> fa42de9 (dd001)
 50
15.000000000000002
 11
<<<<<<< HEAD
-18.543238850148278
 21
53.16890688545023
=======
-28.45090635422254
 21
59.475960020421134
>>>>>>> fa42de9 (dd001)
 31
0.0
100
AcDbAttribute
  2
XPOS
 70
0
  0
ATTRIB
  5
6C
330
17
100
AcDbEntity
  8
0
 62
4
100
AcDbText
 10
<<<<<<< HEAD
-18.35706631506719
 20
52.47410152555371
 30
0.0
 40
0.35965771956105935
  1
= 54.000
=======
-28.333516557851897
 20
59.03785533607574
 30
0.0
 40
0.2267796721144321
  1
= 60.000
>>>>>>> fa42de9 (dd001)
 50
15.000000000000002
 11
<<<<<<< HEAD
-18.35706631506719
 21
52.47410152555371
=======
-28.333516557851897
 21
59.03785533607574
>>>>>>> fa42de9 (dd001)
 31
0.0
100
AcDbAttribute
  2
YPOS
 70
0
  0
SEQEND
  5
69
330
68
100
AcDbEntity
  8
0
  0
INSERT
  5
6D
330
17
100
AcDbEntity
  8
0
100
AcDbBlockReference
 66
1
  2
FLAG
 10
<<<<<<< HEAD
44.0
 20
-15.0
 30
0.0
 41
1.8320492789641578
 42
1.8320492789641578
 43
1.8320492789641578
=======
7.0
 20
-33.0
 30
0.0
 41
0.8187273379716913
 42
0.8187273379716913
 43
0.8187273379716913
>>>>>>> fa42de9 (dd001)
 50
15.0
  0
ATTRIB
  5
6F
330
17
100
AcDbEntity
  8
0
 62
3
100
AcDbText
 10
<<<<<<< HEAD
46.89152019285975
 20
-15.173557989349476
 30
0.0
 40
0.916024639482079
=======
8.292195934560214
 20
-33.077561598498136
 30
0.0
 40
0.40936366898584564
>>>>>>> fa42de9 (dd001)
  1
P(9)
 50
14.999999999999998
 11
<<<<<<< HEAD
46.89152019285975
 21
-15.173557989349476
=======
8.292195934560214
 21
-33.077561598498136
>>>>>>> fa42de9 (dd001)
 31
0.0
100
AcDbAttribute
  2
NAME
 70
0
  0
ATTRIB
  5
70
330
17
100
AcDbEntity
  8
0
 62
4
100
AcDbText
 10
<<<<<<< HEAD
47.128604815340886
 20
-16.058369846142348
 30
0.0
 40
0.4580123197410395
  1
= 44.000
 50
14.999999999999998
 11
47.128604815340886
 21
-16.058369846142348
=======
8.398147048466795
 20
-33.47297653871601
 30
0.0
 40
0.20468183449292282
  1
= 7.000
 50
14.999999999999998
 11
8.398147048466795
 21
-33.47297653871601
>>>>>>> fa42de9 (dd001)
 31
0.0
100
AcDbAttribute
  2
XPOS
 70
0
  0
ATTRIB
  5
71
330
17
100
AcDbEntity
  8
0
 62
4
100
AcDbText
 10
<<<<<<< HEAD
47.36568943782201
 20
-16.94318170293522
 30
0.0
 40
0.4580123197410395
  1
= -15.000
 50
14.999999999999998
 11
47.36568943782201
 21
-16.94318170293522
=======
8.504098162373376
 20
-33.86839147893389
 30
0.0
 40
0.20468183449292282
  1
= -33.000
 50
14.999999999999998
 11
8.504098162373376
 21
-33.86839147893389
>>>>>>> fa42de9 (dd001)
 31
0.0
100
AcDbAttribute
  2
YPOS
 70
0
  0
SEQEND
  5
6E
330
6D
100
AcDbEntity
  8
0
  0
INSERT
  5
72
330
17
100
AcDbEntity
  8
0
100
AcDbBlockReference
 66
1
  2
FLAG
 10
<<<<<<< HEAD
18.0
 20
65.0
 30
0.0
 41
0.7503247781529938
 42
0.7503247781529938
 43
0.7503247781529938
=======
30.0
 20
-57.0
 30
0.0
 41
0.816728912043361
 42
0.816728912043361
 43
0.816728912043361
>>>>>>> fa42de9 (dd001)
 50
15.0
  0
ATTRIB
  5
74
330
17
100
AcDbEntity
  8
0
 62
3
100
AcDbText
 10
<<<<<<< HEAD
19.18423629328305
 20
64.92891847323618
 30
0.0
 40
0.3751623890764969
=======
31.289041822390825
 20
-57.0773722789258
 30
0.0
 40
0.4083644560216805
>>>>>>> fa42de9 (dd001)
  1
P(10)
 50
14.999999999999998
 11
<<<<<<< HEAD
19.18423629328305
 21
64.92891847323618
=======
31.289041822390825
 21
-57.0773722789258
>>>>>>> fa42de9 (dd001)
 31
0.0
100
AcDbAttribute
  2
NAME
 70
0
  0
ATTRIB
  5
75
330
17
100
AcDbEntity
  8
0
 62
4
100
AcDbText
 10
<<<<<<< HEAD
19.281335464582206
 20
64.56653943257488
 30
0.0
 40
0.18758119453824845
  1
= 18.000
 50
14.999999999999998
 11
19.281335464582206
 21
64.56653943257488
=======
31.394734320952168
 20
-57.47182205353563
 30
0.0
 40
0.20418222801084024
  1
= 30.000
 50
14.999999999999998
 11
31.394734320952168
 21
-57.47182205353563
>>>>>>> fa42de9 (dd001)
 31
0.0
100
AcDbAttribute
  2
XPOS
 70
0
  0
ATTRIB
  5
76
330
17
100
AcDbEntity
  8
0
 62
4
100
AcDbText
 10
<<<<<<< HEAD
19.378434635881366
 20
64.20416039191359
 30
0.0
 40
0.18758119453824845
  1
= 65.000
 50
14.999999999999998
 11
19.378434635881366
 21
64.20416039191359
=======
31.500426819513507
 20
-57.86627182814546
 30
0.0
 40
0.20418222801084024
  1
= -57.000
 50
14.999999999999998
 11
31.500426819513507
 21
-57.86627182814546
>>>>>>> fa42de9 (dd001)
 31
0.0
100
AcDbAttribute
  2
YPOS
 70
0
  0
SEQEND
  5
73
330
72
100
AcDbEntity
  8
0
  0
INSERT
  5
77
330
17
100
AcDbEntity
  8
0
100
AcDbBlockReference
 66
1
  2
FLAG
 10
<<<<<<< HEAD
-65.0
 20
66.0
 30
0.0
 41
2.3315901763570563
 42
2.3315901763570563
 43
2.3315901763570563
=======
83.0
 20
15.0
 30
0.0
 41
1.8429210596229146
 42
1.8429210596229146
 43
1.8429210596229146
>>>>>>> fa42de9 (dd001)
 50
15.0
  0
ATTRIB
  5
79
330
17
100
AcDbEntity
  8
0
 62
3
100
AcDbText
 10
<<<<<<< HEAD
-61.32005527699468
 20
65.77911833069014
 30
0.0
 40
1.1657950881785282
=======
85.90867910537814
 20
14.825412079625497
 30
0.0
 40
0.9214605298114573
>>>>>>> fa42de9 (dd001)
  1
P(11)
 50
14.999999999999998
 11
<<<<<<< HEAD
-61.32005527699468
 21
65.77911833069014
=======
85.90867910537814
 21
14.825412079625497
>>>>>>> fa42de9 (dd001)
 31
0.0
100
AcDbAttribute
  2
NAME
 70
0
  0
ATTRIB
  5
7A
330
17
100
AcDbEntity
  8
0
 62
4
100
AcDbText
 10
<<<<<<< HEAD
-61.0183253054871
 20
64.65304674685757
 30
0.0
 40
0.5828975440892641
  1
= -65.000
 50
14.999999999999998
 11
-61.0183253054871
 21
64.65304674685757
=======
86.14717063980362
 20
13.935349555974604
 30
0.0
 40
0.46073026490572866
  1
= 83.000
 50
14.999999999999998
 11
86.14717063980362
 21
13.935349555974604
>>>>>>> fa42de9 (dd001)
 31
0.0
100
AcDbAttribute
  2
XPOS
 70
0
  0
ATTRIB
  5
7B
330
17
100
AcDbEntity
  8
0
 62
4
100
AcDbText
 10
<<<<<<< HEAD
-60.71659533397953
 20
63.52697516302498
 30
0.0
 40
0.5828975440892641
  1
= 66.000
 50
14.999999999999998
 11
-60.71659533397953
 21
63.52697516302498
=======
86.38566217422908
 20
13.04528703232371
 30
0.0
 40
0.46073026490572866
  1
= 15.000
 50
14.999999999999998
 11
86.38566217422908
 21
13.04528703232371
>>>>>>> fa42de9 (dd001)
 31
0.0
100
AcDbAttribute
  2
YPOS
 70
0
  0
SEQEND
  5
78
330
77
100
AcDbEntity
  8
0
  0
INSERT
  5
7C
330
17
100
AcDbEntity
  8
0
100
AcDbBlockReference
 66
1
  2
FLAG
 10
<<<<<<< HEAD
-75.0
 20
-40.0
 30
0.0
 41
0.5781723273076105
 42
0.5781723273076105
 43
0.5781723273076105
=======
68.0
 20
15.0
 30
0.0
 41
1.258522184322098
 42
1.258522184322098
 43
1.258522184322098
>>>>>>> fa42de9 (dd001)
 50
15.0
  0
ATTRIB
  5
7E
330
17
100
AcDbEntity
  8
0
 62
3
100
AcDbText
 10
<<<<<<< HEAD
-74.08747162068265
 20
-40.05477277700835
 30
0.0
 40
0.28908616365380524
  1
P(12)
 50
14.999999999999996
 11
-74.08747162068265
 21
-40.05477277700835
=======
69.98632337618496
 20
14.880774724582654
 30
0.0
 40
0.629261092161049
  1
P(12)
 50
15.000000000000002
 11
69.98632337618496
 21
14.880774724582654
>>>>>>> fa42de9 (dd001)
 31
0.0
100
AcDbAttribute
  2
NAME
 70
0
  0
ATTRIB
  5
7F
330
17
100
AcDbEntity
  8
0
 62
4
100
AcDbText
 10
<<<<<<< HEAD
-74.01265061585343
 20
-40.33400856850439
 30
0.0
 40
0.14454308182690262
  1
= -75.000
 50
14.999999999999996
 11
-74.01265061585343
 21
-40.33400856850439
=======
70.14918813117825
 20
14.272955184185431
 30
0.0
 40
0.3146305460805245
  1
= 68.000
 50
15.000000000000002
 11
70.14918813117825
 21
14.272955184185431
>>>>>>> fa42de9 (dd001)
 31
0.0
100
AcDbAttribute
  2
XPOS
 70
0
  0
ATTRIB
  5
80
330
17
100
AcDbEntity
  8
0
 62
4
100
AcDbText
 10
<<<<<<< HEAD
-73.9378296110242
 20
-40.61324436000043
 30
0.0
 40
0.14454308182690262
  1
= -40.000
 50
14.999999999999996
 11
-73.9378296110242
 21
-40.61324436000043
=======
70.31205288617154
 20
13.665135643788208
 30
0.0
 40
0.3146305460805245
  1
= 15.000
 50
15.000000000000002
 11
70.31205288617154
 21
13.665135643788208
>>>>>>> fa42de9 (dd001)
 31
0.0
100
AcDbAttribute
  2
YPOS
 70
0
  0
SEQEND
  5
7D
330
7C
100
AcDbEntity
  8
0
  0
INSERT
  5
81
330
17
100
AcDbEntity
  8
0
100
AcDbBlockReference
 66
1
  2
FLAG
 10
<<<<<<< HEAD
-15.0
 20
98.0
 30
0.0
 41
1.2999216284306052
 42
1.2999216284306052
 43
1.2999216284306052
=======
82.0
 20
97.0
 30
0.0
 41
0.9839727083126102
 42
0.9839727083126102
 43
0.9839727083126102
>>>>>>> fa42de9 (dd001)
 50
15.0
  0
ATTRIB
  5
83
330
17
100
AcDbEntity
  8
0
 62
3
100
AcDbText
 10
<<<<<<< HEAD
-12.948335953131442
 20
97.87685277534135
 30
0.0
 40
0.6499608142153026
  1
P(13)
 50
14.999999999999998
 11
-12.948335953131442
 21
97.87685277534135
=======
83.55300241537033
 20
96.90678398949724
 30
0.0
 40
0.4919863541563051
  1
P(13)
 50
15.000000000000002
 11
83.55300241537033
 21
96.90678398949724
>>>>>>> fa42de9 (dd001)
 31
0.0
100
AcDbAttribute
  2
NAME
 70
0
  0
ATTRIB
  5
84
330
17
100
AcDbEntity
  8
0
 62
4
100
AcDbText
 10
<<<<<<< HEAD
-12.780113715842182
 20
97.24903883881493
 30
0.0
 40
0.3249804071076513
  1
= -15.000
 50
14.999999999999998
 11
-12.780113715842182
 21
97.24903883881493
=======
83.68033785375654
 20
96.43156166383586
 30
0.0
 40
0.24599317707815255
  1
= 82.000
 50
15.000000000000002
 11
83.68033785375654
 21
96.43156166383586
>>>>>>> fa42de9 (dd001)
 31
0.0
100
AcDbAttribute
  2
XPOS
 70
0
  0
ATTRIB
  5
85
330
17
100
AcDbEntity
  8
0
 62
4
100
AcDbText
 10
<<<<<<< HEAD
-12.61189147855292
 20
96.62122490228849
 30
0.0
 40
0.3249804071076513
  1
= 98.000
 50
14.999999999999998
 11
-12.61189147855292
 21
96.62122490228849
=======
83.80767329214274
 20
95.95633933817449
 30
0.0
 40
0.24599317707815255
  1
= 97.000
 50
15.000000000000002
 11
83.80767329214274
 21
95.95633933817449
>>>>>>> fa42de9 (dd001)
 31
0.0
100
AcDbAttribute
  2
YPOS
 70
0
  0
SEQEND
  5
82
330
81
100
AcDbEntity
  8
0
  0
INSERT
  5
86
330
17
100
AcDbEntity
  8
0
100
AcDbBlockReference
 66
1
  2
FLAG
 10
<<<<<<< HEAD
96.0
 20
52.0
 30
0.0
 41
2.188952164597066
 42
2.188952164597066
 43
2.188952164597066
=======
26.0
 20
-52.0
 30
0.0
 41
2.2655708525759612
 42
2.2655708525759612
 43
2.2655708525759612
>>>>>>> fa42de9 (dd001)
 50
15.0
  0
ATTRIB
  5
88
330
17
100
AcDbEntity
  8
0
 62
3
100
AcDbText
 10
<<<<<<< HEAD
99.45481939695155
 20
51.79263104937633
 30
0.0
 40
1.094476082298533
=======
29.575746539024202
 20
-52.21462737188171
 30
0.0
 40
1.1327854262879806
>>>>>>> fa42de9 (dd001)
  1
P(14)
 50
14.999999999999998
 11
<<<<<<< HEAD
99.45481939695155
 21
51.79263104937633
=======
29.575746539024202
 21
-52.21462737188171
>>>>>>> fa42de9 (dd001)
 31
0.0
100
AcDbAttribute
  2
NAME
 70
0
  0
ATTRIB
  5
89
330
17
100
AcDbEntity
  8
0
 62
4
100
AcDbText
 10
<<<<<<< HEAD
99.7380906514596
 20
50.7354483352285
 30
0.0
 40
0.5472380411492666
  1
= 96.000
 50
14.999999999999998
 11
99.7380906514596
 21
50.7354483352285
=======
29.86893298136211
 20
-53.308814070777146
 30
0.0
 40
0.5663927131439903
  1
= 26.000
 50
14.999999999999998
 11
29.86893298136211
 21
-53.308814070777146
>>>>>>> fa42de9 (dd001)
 31
0.0
100
AcDbAttribute
  2
XPOS
 70
0
  0
ATTRIB
  5
8A
330
17
100
AcDbEntity
  8
0
 62
4
100
AcDbText
 10
<<<<<<< HEAD
100.02136190596767
 20
49.67826562108066
 30
0.0
 40
0.5472380411492666
  1
= 52.000
 50
14.999999999999998
 11
100.02136190596767
 21
49.67826562108066
=======
30.16211942370002
 20
-54.40300076967257
 30
0.0
 40
0.5663927131439903
  1
= -52.000
 50
14.999999999999998
 11
30.16211942370002
 21
-54.40300076967257
>>>>>>> fa42de9 (dd001)
 31
0.0
100
AcDbAttribute
  2
YPOS
 70
0
  0
SEQEND
  5
87
330
86
100
AcDbEntity
  8
0
  0
INSERT
  5
8B
330
17
100
AcDbEntity
  8
0
100
AcDbBlockReference
 66
1
  2
FLAG
 10
<<<<<<< HEAD
0.0
 20
-42.0
 30
0.0
 41
2.3407297041934547
 42
2.3407297041934547
 43
2.3407297041934547
=======
-83.0
 20
18.0
 30
0.0
 41
2.119241226428454
 42
2.119241226428454
 43
2.119241226428454
>>>>>>> fa42de9 (dd001)
 50
15.0
  0
ATTRIB
  5
8D
330
17
100
AcDbEntity
  8
0
 62
3
100
AcDbText
 10
<<<<<<< HEAD
3.694369623904872
 20
-42.22174749649753
 30
0.0
 40
1.1703648520967274
=======
-79.6552052556013
 20
17.79923506947728
 30
0.0
 40
1.0596206132142272
>>>>>>> fa42de9 (dd001)
  1
P(15)
 50
14.999999999999998
 11
<<<<<<< HEAD
3.694369623904872
 21
-42.22174749649753
=======
-79.6552052556013
 21
17.79923506947728
>>>>>>> fa42de9 (dd001)
 31
0.0
100
AcDbAttribute
  2
NAME
 70
0
  0
ATTRIB
  5
8E
330
17
100
AcDbEntity
  8
0
 62
4
100
AcDbText
 10
<<<<<<< HEAD
3.9972823373460997
 20
-43.35223313331875
 30
0.0
 40
0.5851824260483637
  1
= 0.000
 50
14.999999999999998
 11
3.9972823373460997
 21
-43.35223313331875
=======
-79.38095526031825
 20
16.775720153105397
 30
0.0
 40
0.5298103066071136
  1
= -83.000
 50
14.999999999999998
 11
-79.38095526031825
 21
16.775720153105397
>>>>>>> fa42de9 (dd001)
 31
0.0
100
AcDbAttribute
  2
XPOS
 70
0
  0
ATTRIB
  5
8F
330
17
100
AcDbEntity
  8
0
 62
4
100
AcDbText
 10
<<<<<<< HEAD
4.300195050787328
 20
-44.48271877013996
 30
0.0
 40
0.5851824260483637
  1
= -42.000
 50
14.999999999999998
 11
4.300195050787328
 21
-44.48271877013996
=======
-79.10670526503519
 20
15.752205236733516
 30
0.0
 40
0.5298103066071136
  1
= 18.000
 50
14.999999999999998
 11
-79.10670526503519
 21
15.752205236733516
>>>>>>> fa42de9 (dd001)
 31
0.0
100
AcDbAttribute
  2
YPOS
 70
0
  0
SEQEND
  5
8C
330
8B
100
AcDbEntity
  8
0
  0
INSERT
  5
90
330
17
100
AcDbEntity
  8
0
100
AcDbBlockReference
 66
1
  2
FLAG
 10
<<<<<<< HEAD
-93.0
 20
-89.0
 30
0.0
 41
1.9667181226901391
 42
1.9667181226901391
 43
1.9667181226901391
=======
-84.0
 20
14.0
 30
0.0
 41
1.6930543388688795
 42
1.6930543388688795
 43
1.6930543388688795
>>>>>>> fa42de9 (dd001)
 50
15.0
  0
ATTRIB
  5
92
330
17
100
AcDbEntity
  8
0
 62
3
100
AcDbText
 10
<<<<<<< HEAD
-89.89593220514402
 20
-89.18631575411786
 30
0.0
 40
0.9833590613450696
=======
-81.32785527951732
 20
13.839609605326977
 30
0.0
 40
0.8465271694344397
>>>>>>> fa42de9 (dd001)
  1
P(16)
 50
14.999999999999998
 11
<<<<<<< HEAD
-89.89593220514402
 21
-89.18631575411786
=======
-81.32785527951732
 21
13.839609605326977
>>>>>>> fa42de9 (dd001)
 31
0.0
100
AcDbAttribute
  2
NAME
 70
0
  0
ATTRIB
  5
93
330
17
100
AcDbEntity
  8
0
 62
4
100
AcDbText
 10
<<<<<<< HEAD
-89.64142015189378
 20
-90.13616766798643
 30
0.0
 40
0.4916795306725348
  1
= -93.000
 50
14.999999999999998
 11
-89.64142015189378
 21
-90.13616766798643
=======
-81.10875792587096
 20
13.02192714971487
 30
0.0
 40
0.42326358471721987
  1
= -84.000
 50
14.999999999999998
 11
-81.10875792587096
 21
13.02192714971487
>>>>>>> fa42de9 (dd001)
 31
0.0
100
AcDbAttribute
  2
XPOS
 70
0
  0
ATTRIB
  5
94
330
17
100
AcDbEntity
  8
0
 62
4
100
AcDbText
 10
<<<<<<< HEAD
-89.38690809864353
 20
-91.08601958185501
 30
0.0
 40
0.4916795306725348
  1
= -89.000
 50
14.999999999999998
 11
-89.38690809864353
 21
-91.08601958185501
=======
-80.8896605722246
 20
12.204244694102762
 30
0.0
 40
0.42326358471721987
  1
= 14.000
 50
14.999999999999998
 11
-80.8896605722246
 21
12.204244694102762
>>>>>>> fa42de9 (dd001)
 31
0.0
100
AcDbAttribute
  2
YPOS
 70
0
  0
SEQEND
  5
91
330
90
100
AcDbEntity
  8
0
  0
INSERT
  5
95
330
17
100
AcDbEntity
  8
0
100
AcDbBlockReference
 66
1
  2
FLAG
 10
<<<<<<< HEAD
100.0
 20
14.0
 30
0.0
 41
1.383607593683815
 42
1.383607593683815
 43
1.383607593683815
=======
-96.0
 20
38.0
 30
0.0
 41
0.8532779165912294
 42
0.8532779165912294
 43
0.8532779165912294
>>>>>>> fa42de9 (dd001)
 50
15.0
  0
ATTRIB
  5
97
330
17
100
AcDbEntity
  8
0
 62
3
100
AcDbText
 10
<<<<<<< HEAD
102.18374546038022
 20
13.868924840196328
 30
0.0
 40
0.6918037968419075
=======
-94.653272947254
 20
37.91916527505002
 30
0.0
 40
0.4266389582956147
>>>>>>> fa42de9 (dd001)
  1
P(17)
 50
14.999999999999998
 11
<<<<<<< HEAD
102.18374546038022
 21
13.868924840196328
=======
-94.653272947254
 21
37.91916527505002
>>>>>>> fa42de9 (dd001)
 31
0.0
100
AcDbAttribute
  2
NAME
 70
0
  0
ATTRIB
  5
98
330
17
100
AcDbEntity
  8
0
 62
4
100
AcDbText
 10
<<<<<<< HEAD
102.36279745847715
 20
13.200693686101895
 30
0.0
 40
0.34590189842095376
  1
= 100.000
 50
14.999999999999998
 11
102.36279745847715
 21
13.200693686101895
=======
-94.54285065946439
 20
37.507063686731215
 30
0.0
 40
0.21331947914780736
  1
= -96.000
 50
14.999999999999998
 11
-94.54285065946439
 21
37.507063686731215
>>>>>>> fa42de9 (dd001)
 31
0.0
100
AcDbAttribute
  2
XPOS
 70
0
  0
ATTRIB
  5
99
330
17
100
AcDbEntity
  8
0
 62
4
100
AcDbText
 10
<<<<<<< HEAD
102.54184945657407
 20
12.53246253200746
 30
0.0
 40
0.34590189842095376
  1
= 14.000
 50
14.999999999999998
 11
102.54184945657407
 21
12.53246253200746
=======
-94.43242837167479
 20
37.09496209841242
 30
0.0
 40
0.21331947914780736
  1
= 38.000
 50
14.999999999999998
 11
-94.43242837167479
 21
37.09496209841242
>>>>>>> fa42de9 (dd001)
 31
0.0
100
AcDbAttribute
  2
YPOS
 70
0
  0
SEQEND
  5
96
330
95
100
AcDbEntity
  8
0
  0
INSERT
  5
9A
330
17
100
AcDbEntity
  8
0
100
AcDbBlockReference
 66
1
  2
FLAG
 10
<<<<<<< HEAD
-95.0
 20
83.0
 30
0.0
 41
1.408731993486436
 42
1.408731993486436
 43
1.408731993486436
=======
-82.0
 20
-94.0
 30
0.0
 41
0.5602199619082877
 42
0.5602199619082877
 43
0.5602199619082877
>>>>>>> fa42de9 (dd001)
 50
15.0
  0
ATTRIB
  5
9C
330
17
100
AcDbEntity
  8
0
 62
3
100
AcDbText
 10
<<<<<<< HEAD
-92.77660074307789
 20
82.86654469662518
 30
0.0
 40
0.704365996743218
=======
-81.11580580779092
 20
-94.05307207142224
 30
0.0
 40
0.28010998095414386
>>>>>>> fa42de9 (dd001)
  1
P(18)
 50
14.999999999999998
 11
<<<<<<< HEAD
-92.77660074307789
 21
82.86654469662518
=======
-81.11580580779092
 21
-94.05307207142224
>>>>>>> fa42de9 (dd001)
 31
0.0
100
AcDbAttribute
  2
NAME
 70
0
  0
ATTRIB
  5
9D
330
17
100
AcDbEntity
  8
0
 62
4
100
AcDbText
 10
<<<<<<< HEAD
-92.59429740839812
 20
82.18617938921106
 30
0.0
 40
0.352182998371609
  1
= -95.000
 50
14.999999999999998
 11
-92.59429740839812
 21
82.18617938921106
=======
-81.0433080099967
 20
-94.32363753622718
 30
0.0
 40
0.14005499047707193
  1
= -82.000
 50
14.999999999999998
 11
-81.0433080099967
 21
-94.32363753622718
>>>>>>> fa42de9 (dd001)
 31
0.0
100
AcDbAttribute
  2
XPOS
 70
0
  0
ATTRIB
  5
9E
330
17
100
AcDbEntity
  8
0
 62
4
100
AcDbText
 10
<<<<<<< HEAD
-92.41199407371836
 20
81.50581408179694
 30
0.0
 40
0.352182998371609
  1
= 83.000
 50
14.999999999999998
 11
-92.41199407371836
 21
81.50581408179694
=======
-80.97081021220245
 20
-94.59420300103213
 30
0.0
 40
0.14005499047707193
  1
= -94.000
 50
14.999999999999998
 11
-80.97081021220245
 21
-94.59420300103213
>>>>>>> fa42de9 (dd001)
 31
0.0
100
AcDbAttribute
  2
YPOS
 70
0
  0
SEQEND
  5
9B
330
9A
100
AcDbEntity
  8
0
  0
INSERT
  5
9F
330
17
100
AcDbEntity
  8
0
100
AcDbBlockReference
 66
1
  2
FLAG
 10
<<<<<<< HEAD
100.0
 20
-69.0
 30
0.0
 41
0.9600280927969804
 42
0.9600280927969804
 43
0.9600280927969804
=======
-81.0
 20
-29.0
 30
0.0
 41
0.5376923683505881
 42
0.5376923683505881
 43
0.5376923683505881
>>>>>>> fa42de9 (dd001)
 50
15.0
  0
ATTRIB
  5
A1
330
17
100
AcDbEntity
  8
0
 62
3
100
AcDbText
 10
<<<<<<< HEAD
101.51521067031811
 20
-69.09094763302386
 30
0.0
 40
0.48001404639849016
=======
-80.15136106954974
 20
-29.050937934591065
 30
0.0
 40
0.26884618417529405
>>>>>>> fa42de9 (dd001)
  1
P(19)
 50
14.999999999999998
 41
1.0000000000000002
 11
<<<<<<< HEAD
101.51521067031811
 21
-69.09094763302386
=======
-80.15136106954974
 21
-29.050937934591065
>>>>>>> fa42de9 (dd001)
 31
0.0
100
AcDbAttribute
  2
NAME
 70
0
  0
ATTRIB
  5
A2
330
17
100
AcDbEntity
  8
0
 62
4
100
AcDbText
 10
<<<<<<< HEAD
101.63944744744278
 20
-69.55460559742168
 30
0.0
 40
0.24000702319924508
  1
= 100.000
=======
-80.08177855688204
 20
-29.31062340718525
 30
0.0
 40
0.13442309208764702
  1
= -81.000
>>>>>>> fa42de9 (dd001)
 50
14.999999999999998
 41
1.0000000000000002
 11
<<<<<<< HEAD
101.63944744744278
 21
-69.55460559742168
=======
-80.08177855688204
 21
-29.31062340718525
>>>>>>> fa42de9 (dd001)
 31
0.0
100
AcDbAttribute
  2
XPOS
 70
0
  0
ATTRIB
  5
A3
330
17
100
AcDbEntity
  8
0
 62
4
100
AcDbText
 10
<<<<<<< HEAD
101.76368422456743
 20
-70.0182635618195
 30
0.0
 40
0.24000702319924508
  1
= -69.000
=======
-80.01219604421433
 20
-29.570308879779432
 30
0.0
 40
0.13442309208764702
  1
= -29.000
>>>>>>> fa42de9 (dd001)
 50
14.999999999999998
 41
1.0000000000000002
 11
<<<<<<< HEAD
101.76368422456743
 21
-70.0182635618195
=======
-80.01219604421433
 21
-29.570308879779432
>>>>>>> fa42de9 (dd001)
 31
0.0
100
AcDbAttribute
  2
YPOS
 70
0
  0
SEQEND
  5
A0
330
9F
100
AcDbEntity
  8
0
  0
INSERT
  5
A4
330
17
100
AcDbEntity
  8
0
100
AcDbBlockReference
 66
1
  2
FLAG
 10
<<<<<<< HEAD
-27.0
 20
-28.0
 30
0.0
 41
1.3198753743033103
 42
1.3198753743033103
 43
1.3198753743033103
=======
-89.0
 20
47.0
 30
0.0
 41
2.184403514227915
 42
2.184403514227915
 43
2.184403514227915
>>>>>>> fa42de9 (dd001)
 50
15.0
  0
ATTRIB
  5
A6
330
17
100
AcDbEntity
  8
0
 62
3
100
AcDbText
 10
<<<<<<< HEAD
-24.916842990700466
 20
-28.125037529713985
 30
0.0
 40
0.6599376871516551
=======
-85.55235973002046
 20
46.79306196279192
 30
0.0
 40
1.0922017571139577
>>>>>>> fa42de9 (dd001)
  1
P(20)
 50
14.999999999999998
 11
<<<<<<< HEAD
-24.916842990700466
 21
-28.125037529713985
=======
-85.55235973002046
 21
46.79306196279192
>>>>>>> fa42de9 (dd001)
 31
0.0
100
AcDbAttribute
  2
NAME
 70
0
  0
ATTRIB
  5
A7
330
17
100
AcDbEntity
  8
0
 62
4
100
AcDbText
 10
<<<<<<< HEAD
-24.74603854868471
 20
-28.762488385475248
 30
0.0
 40
0.32996884357582756
  1
= -27.000
 50
14.999999999999998
 11
-24.74603854868471
 21
-28.762488385475248
=======
-85.26967711418493
 20
45.73807607807725
 30
0.0
 40
0.5461008785569789
  1
= -89.000
 50
14.999999999999998
 11
-85.26967711418493
 21
45.73807607807725
>>>>>>> fa42de9 (dd001)
 31
0.0
100
AcDbAttribute
  2
XPOS
 70
0
  0
ATTRIB
  5
A8
330
17
100
AcDbEntity
  8
0
 62
4
100
AcDbText
 10
<<<<<<< HEAD
-24.57523410666895
 20
-29.399939241236506
 30
0.0
 40
0.32996884357582756
  1
= -28.000
 50
14.999999999999998
 11
-24.57523410666895
 21
-29.399939241236506
=======
-84.98699449834939
 20
44.683090193362574
 30
0.0
 40
0.5461008785569789
  1
= 47.000
 50
14.999999999999998
 11
-84.98699449834939
 21
44.683090193362574
>>>>>>> fa42de9 (dd001)
 31
0.0
100
AcDbAttribute
  2
YPOS
 70
0
  0
SEQEND
  5
A5
330
A4
100
AcDbEntity
  8
0
  0
INSERT
  5
A9
330
17
100
AcDbEntity
  8
0
100
AcDbBlockReference
 66
1
  2
FLAG
 10
<<<<<<< HEAD
38.0
 20
-92.0
 30
0.0
 41
1.5926646061793908
 42
1.5926646061793908
 43
1.5926646061793908
=======
35.0
 20
-33.0
 30
0.0
 41
0.918186816288272
 42
0.918186816288272
 43
0.918186816288272
>>>>>>> fa42de9 (dd001)
 50
15.0
  0
ATTRIB
  5
AB
330
17
100
AcDbEntity
  8
0
 62
3
100
AcDbText
 10
<<<<<<< HEAD
40.51369977985774
 20
-92.1508800390527
 30
0.0
 40
0.7963323030896954
=======
36.449172656325196
 20
-33.08698382707931
 30
0.0
 40
0.459093408144136
>>>>>>> fa42de9 (dd001)
  1
P(21)
 50
14.999999999999998
 11
<<<<<<< HEAD
40.51369977985774
 21
-92.1508800390527
=======
36.449172656325196
 21
-33.08698382707931
>>>>>>> fa42de9 (dd001)
 31
0.0
100
AcDbAttribute
  2
NAME
 70
0
  0
ATTRIB
  5
AC
330
17
100
AcDbEntity
  8
0
 62
4
100
AcDbText
 10
<<<<<<< HEAD
40.719805746127705
 20
-92.92007797691528
 30
0.0
 40
0.3981661515448477
  1
= 38.000
 50
14.999999999999998
 11
40.719805746127705
 21
-92.92007797691528
=======
36.567994773833924
 20
-33.5304340066848
 30
0.0
 40
0.229546704072068
  1
= 35.000
 50
14.999999999999998
 11
36.567994773833924
 21
-33.5304340066848
>>>>>>> fa42de9 (dd001)
 31
0.0
100
AcDbAttribute
  2
XPOS
 70
0
  0
ATTRIB
  5
AD
330
17
100
AcDbEntity
  8
0
 62
4
100
AcDbText
 10
<<<<<<< HEAD
40.92591171239767
 20
-93.68927591477788
 30
0.0
 40
0.3981661515448477
  1
= -92.000
 50
14.999999999999998
 11
40.92591171239767
 21
-93.68927591477788
=======
36.68681689134265
 20
-33.973884186290285
 30
0.0
 40
0.229546704072068
  1
= -33.000
 50
14.999999999999998
 11
36.68681689134265
 21
-33.973884186290285
>>>>>>> fa42de9 (dd001)
 31
0.0
100
AcDbAttribute
  2
YPOS
 70
0
  0
SEQEND
  5
AA
330
A9
100
AcDbEntity
  8
0
  0
INSERT
  5
AE
330
17
100
AcDbEntity
  8
0
100
AcDbBlockReference
 66
1
  2
FLAG
 10
<<<<<<< HEAD
-53.0
 20
94.0
 30
0.0
 41
1.4154871366124864
 42
1.4154871366124864
 43
1.4154871366124864
=======
10.0
 20
-69.0
 30
0.0
 41
0.8475214921183136
 42
0.8475214921183136
 43
0.8475214921183136
>>>>>>> fa42de9 (dd001)
 50
15.0
  0
ATTRIB
  5
B0
330
17
100
AcDbEntity
  8
0
 62
3
100
AcDbText
 10
<<<<<<< HEAD
-50.765939112422586
 20
93.86590475256244
 30
0.0
 40
0.7077435683062432
=======
11.337641698005152
 20
-69.08028939384518
 30
0.0
 40
0.4237607460591568
>>>>>>> fa42de9 (dd001)
  1
P(22)
 50
14.999999999999998
 11
<<<<<<< HEAD
-50.765939112422586
 21
93.86590475256244
=======
11.337641698005152
 21
-69.08028939384518
>>>>>>> fa42de9 (dd001)
 31
0.0
100
AcDbAttribute
  2
NAME
 70
0
  0
ATTRIB
  5
B1
330
17
100
AcDbEntity
  8
0
 62
4
100
AcDbText
 10
<<<<<<< HEAD
-50.58276159789611
 20
93.18227696154545
 30
0.0
 40
0.3538717841531216
  1
= -53.000
 50
14.999999999999998
 11
-50.58276159789611
 21
93.18227696154545
=======
11.447319049652116
 20
-69.48961084263124
 30
0.0
 40
0.2118803730295784
  1
= 10.000
 50
14.999999999999998
 11
11.447319049652116
 21
-69.48961084263124
>>>>>>> fa42de9 (dd001)
 31
0.0
100
AcDbAttribute
  2
XPOS
 70
0
  0
ATTRIB
  5
B2
330
17
100
AcDbEntity
  8
0
 62
4
100
AcDbText
 10
<<<<<<< HEAD
-50.39958408336964
 20
92.49864917052847
 30
0.0
 40
0.3538717841531216
  1
= 94.000
 50
14.999999999999998
 11
-50.39958408336964
 21
92.49864917052847
=======
11.556996401299077
 20
-69.8989322914173
 30
0.0
 40
0.2118803730295784
  1
= -69.000
 50
14.999999999999998
 11
11.556996401299077
 21
-69.8989322914173
>>>>>>> fa42de9 (dd001)
 31
0.0
100
AcDbAttribute
  2
YPOS
 70
0
  0
SEQEND
  5
AF
330
AE
100
AcDbEntity
  8
0
  0
INSERT
  5
B3
330
17
100
AcDbEntity
  8
0
100
AcDbBlockReference
 66
1
  2
FLAG
 10
<<<<<<< HEAD
-62.0
 20
-22.0
 30
0.0
 41
1.7506898152812342
 42
1.7506898152812342
 43
1.7506898152812342
=======
-14.0
 20
-45.0
 30
0.0
 41
1.989336554524377
 42
1.989336554524377
 43
1.989336554524377
>>>>>>> fa42de9 (dd001)
 50
15.0
  0
ATTRIB
  5
B5
330
17
100
AcDbEntity
  8
0
 62
3
100
AcDbText
 10
<<<<<<< HEAD
-59.23688930726703
 20
-22.165850453807995
 30
0.0
 40
0.8753449076406171
=======
-10.86023357349122
 20
-45.1884584964537
 30
0.0
 40
0.9946682772621885
>>>>>>> fa42de9 (dd001)
  1
P(23)
 50
14.999999999999998
 11
<<<<<<< HEAD
-59.23688930726703
 21
-22.165850453807995
=======
-10.86023357349122
 21
-45.1884584964537
>>>>>>> fa42de9 (dd001)
 31
0.0
100
AcDbAttribute
  2
NAME
 70
0
  0
ATTRIB
  5
B6
330
17
100
AcDbEntity
  8
0
 62
4
100
AcDbText
 10
<<<<<<< HEAD
-59.01033337413613
 20
-23.011368707008685
 30
0.0
 40
0.43767245382030856
  1
= -62.000
 50
14.999999999999998
 11
-59.01033337413613
 21
-23.011368707008685
=======
-10.60279447977645
 20
-46.1492342740517
 30
0.0
 40
0.49733413863109427
  1
= -14.000
 50
14.999999999999998
 11
-10.60279447977645
 21
-46.1492342740517
>>>>>>> fa42de9 (dd001)
 31
0.0
100
AcDbAttribute
  2
XPOS
 70
0
  0
ATTRIB
  5
B7
330
17
100
AcDbEntity
  8
0
 62
4
100
AcDbText
 10
<<<<<<< HEAD
-58.78377744100523
 20
-23.856886960209376
 30
0.0
 40
0.43767245382030856
  1
= -22.000
 50
14.999999999999998
 11
-58.78377744100523
 21
-23.856886960209376
=======
-10.345355386061684
 20
-47.1100100516497
 30
0.0
 40
0.49733413863109427
  1
= -45.000
 50
14.999999999999998
 11
-10.345355386061684
 21
-47.1100100516497
>>>>>>> fa42de9 (dd001)
 31
0.0
100
AcDbAttribute
  2
YPOS
 70
0
  0
SEQEND
  5
B4
330
B3
100
AcDbEntity
  8
0
  0
INSERT
  5
B8
330
17
100
AcDbEntity
  8
0
100
AcDbBlockReference
 66
1
  2
FLAG
 10
<<<<<<< HEAD
-45.0
 20
72.0
 30
0.0
 41
1.5343038488479683
 42
1.5343038488479683
 43
1.5343038488479683
=======
35.0
 20
-5.0
 30
0.0
 41
1.7003730113560334
 42
1.7003730113560334
 43
1.7003730113560334
>>>>>>> fa42de9 (dd001)
 50
15.0
  0
ATTRIB
  5
BA
330
17
100
AcDbEntity
  8
0
 62
3
100
AcDbText
 10
<<<<<<< HEAD
-42.57841090200657
 20
71.85464872909544
 30
0.0
 40
0.7671519244239842
=======
37.68369576854919
 20
-5.161083724320955
 30
0.0
 40
0.8501865056780167
>>>>>>> fa42de9 (dd001)
  1
P(24)
 50
14.999999999999998
 11
<<<<<<< HEAD
-42.57841090200657
 21
71.85464872909544
=======
37.68369576854919
 21
-5.161083724320955
>>>>>>> fa42de9 (dd001)
 31
0.0
100
AcDbAttribute
  2
NAME
 70
0
  0
ATTRIB
  5
BB
330
17
100
AcDbEntity
  8
0
 62
4
100
AcDbText
 10
<<<<<<< HEAD
-42.379857373478586
 20
71.11363687260696
 30
0.0
 40
0.3835759622119921
  1
= -45.000
 50
14.999999999999998
 11
-42.379857373478586
 21
71.11363687260696
=======
37.90374022810783
 20
-5.982300827317808
 30
0.0
 40
0.42509325283900834
  1
= 35.000
 50
14.999999999999998
 11
37.90374022810783
 21
-5.982300827317808
>>>>>>> fa42de9 (dd001)
 31
0.0
100
AcDbAttribute
  2
XPOS
 70
0
  0
ATTRIB
  5
BC
330
17
100
AcDbEntity
  8
0
 62
4
100
AcDbText
 10
<<<<<<< HEAD
-42.18130384495061
 20
70.37262501611848
 30
0.0
 40
0.3835759622119921
  1
= 72.000
 50
14.999999999999998
 11
-42.18130384495061
 21
70.37262501611848
=======
38.12378468766646
 20
-6.803517930314662
 30
0.0
 40
0.42509325283900834
  1
= -5.000
 50
14.999999999999998
 11
38.12378468766646
 21
-6.803517930314662
>>>>>>> fa42de9 (dd001)
 31
0.0
100
AcDbAttribute
  2
YPOS
 70
0
  0
SEQEND
  5
B9
330
B8
100
AcDbEntity
  8
0
  0
INSERT
  5
BD
330
17
100
AcDbEntity
  8
0
100
AcDbBlockReference
 66
1
  2
FLAG
 10
<<<<<<< HEAD
36.0
 20
-8.0
 30
0.0
 41
2.178462608678561
 42
2.178462608678561
 43
2.178462608678561
=======
-67.0
 20
-55.0
 30
0.0
 41
1.646645726460119
 42
1.646645726460119
 43
1.646645726460119
>>>>>>> fa42de9 (dd001)
 50
15.0
  0
ATTRIB
  5
BF
330
17
100
AcDbEntity
  8
0
 62
3
100
AcDbText
 10
<<<<<<< HEAD
39.438263749076384
 20
-8.206375229409241
 30
0.0
 40
1.0892313043392803
=======
-64.40110191182319
 20
-55.15599390515135
 30
0.0
 40
0.8233228632300595
>>>>>>> fa42de9 (dd001)
  1
P(25)
 50
14.999999999999998
 41
1.0000000000000002
 11
<<<<<<< HEAD
39.438263749076384
 21
-8.206375229409241
=======
-64.40110191182319
 21
-55.15599390515135
>>>>>>> fa42de9 (dd001)
 31
0.0
100
AcDbAttribute
  2
NAME
 70
0
  0
ATTRIB
  5
C0
330
17
100
AcDbEntity
  8
0
 62
4
100
AcDbText
 10
<<<<<<< HEAD
39.72017755516125
 20
-9.25849187707308
 30
0.0
 40
0.5446156521696401
  1
= 36.000
=======
-64.18801027455092
 20
-55.95126272211952
 30
0.0
 40
0.41166143161502977
  1
= -67.000
>>>>>>> fa42de9 (dd001)
 50
14.999999999999998
 41
1.0000000000000002
 11
<<<<<<< HEAD
39.72017755516125
 21
-9.25849187707308
=======
-64.18801027455092
 21
-55.95126272211952
>>>>>>> fa42de9 (dd001)
 31
0.0
100
AcDbAttribute
  2
XPOS
 70
0
  0
ATTRIB
  5
C1
330
17
100
AcDbEntity
  8
0
 62
4
100
AcDbText
 10
<<<<<<< HEAD
40.002091361246116
 20
-10.31060852473692
 30
0.0
 40
0.5446156521696401
  1
= -8.000
=======
-63.974918637278634
 20
-56.7465315390877
 30
0.0
 40
0.41166143161502977
  1
= -55.000
>>>>>>> fa42de9 (dd001)
 50
14.999999999999998
 41
1.0000000000000002
 11
<<<<<<< HEAD
40.002091361246116
 21
-10.31060852473692
=======
-63.974918637278634
 21
-56.7465315390877
>>>>>>> fa42de9 (dd001)
 31
0.0
100
AcDbAttribute
  2
YPOS
 70
0
  0
SEQEND
  5
BE
330
BD
100
AcDbEntity
  8
0
  0
INSERT
  5
C2
330
17
100
AcDbEntity
  8
0
100
AcDbBlockReference
 66
1
  2
FLAG
 10
<<<<<<< HEAD
-77.0
 20
13.0
 30
0.0
 41
1.6786672119142103
 42
1.6786672119142103
 43
1.6786672119142103
=======
-89.0
 20
-60.0
 30
0.0
 41
1.7366552770900439
 42
1.7366552770900439
 43
1.7366552770900439
>>>>>>> fa42de9 (dd001)
 50
15.0
  0
ATTRIB
  5
C4
330
17
100
AcDbEntity
  8
0
 62
3
100
AcDbText
 10
<<<<<<< HEAD
-74.35056245698483
 20
12.84097256038252
 30
0.0
 40
0.839333605957105
=======
-86.25903999450195
 20
-60.164520901018186
 30
0.0
 40
0.8683276385450219
>>>>>>> fa42de9 (dd001)
  1
P(26)
 50
14.999999999999998
 11
<<<<<<< HEAD
-74.35056245698483
 21
12.84097256038252
=======
-86.25903999450195
 21
-60.164520901018186
>>>>>>> fa42de9 (dd001)
 31
0.0
100
AcDbAttribute
  2
NAME
 70
0
  0
ATTRIB
  5
C5
330
17
100
AcDbEntity
  8
0
 62
4
100
AcDbText
 10
<<<<<<< HEAD
-74.13332693456856
 20
12.03023855351622
 30
0.0
 40
0.4196668029785525
  1
= -77.000
 50
14.999999999999998
 11
-74.13332693456856
 21
12.03023855351622
=======
-86.0343002642576
 20
-61.00326099276943
 30
0.0
 40
0.43416381927251096
  1
= -89.000
 50
14.999999999999998
 11
-86.0343002642576
 21
-61.00326099276943
>>>>>>> fa42de9 (dd001)
 31
0.0
100
AcDbAttribute
  2
XPOS
 70
0
  0
ATTRIB
  5
C6
330
17
100
AcDbEntity
  8
0
 62
4
100
AcDbText
 10
<<<<<<< HEAD
-73.91609141215228
 20
11.21950454664992
 30
0.0
 40
0.4196668029785525
  1
= 13.000
 50
14.999999999999998
 11
-73.91609141215228
 21
11.21950454664992
=======
-85.80956053401324
 20
-61.84200108452066
 30
0.0
 40
0.43416381927251096
  1
= -60.000
 50
14.999999999999998
 11
-85.80956053401324
 21
-61.84200108452066
>>>>>>> fa42de9 (dd001)
 31
0.0
100
AcDbAttribute
  2
YPOS
 70
0
  0
SEQEND
  5
C3
330
C2
100
AcDbEntity
  8
0
  0
INSERT
  5
C7
330
17
100
AcDbEntity
  8
0
100
AcDbBlockReference
 66
1
  2
FLAG
 10
<<<<<<< HEAD
-69.0
 20
8.0
 30
0.0
 41
1.1733190835722167
 42
1.1733190835722167
 43
1.1733190835722167
=======
74.0
 20
-84.0
 30
0.0
 41
0.7056665385537764
 42
0.7056665385537764
 43
0.7056665385537764
>>>>>>> fa42de9 (dd001)
 50
15.0
  0
ATTRIB
  5
C9
330
17
100
AcDbEntity
  8
0
 62
3
100
AcDbText
 10
<<<<<<< HEAD
-67.14815252964429
 20
7.8888463845659755
 30
0.0
 40
0.5866595417861084
=======
75.1137522713403
 20
-84.06685085766462
 30
0.0
 40
0.3528332692768882
>>>>>>> fa42de9 (dd001)
  1
P(27)
 50
14.999999999999998
 11
<<<<<<< HEAD
-67.14815252964429
 21
7.8888463845659755
=======
75.1137522713403
 21
-84.06685085766462
>>>>>>> fa42de9 (dd001)
 31
0.0
100
AcDbAttribute
  2
NAME
 70
0
  0
ATTRIB
  5
CA
330
17
100
AcDbEntity
  8
0
 62
4
100
AcDbText
 10
<<<<<<< HEAD
-66.99631386723894
 20
7.3221767819158625
 30
0.0
 40
0.2933297708930542
  1
= -69.000
 50
14.999999999999998
 11
-66.99631386723894
 21
7.3221767819158625
=======
75.20507224117495
 20
-84.40766162483317
 30
0.0
 40
0.1764166346384441
  1
= 74.000
 50
14.999999999999998
 11
75.20507224117495
 21
-84.40766162483317
>>>>>>> fa42de9 (dd001)
 31
0.0
100
AcDbAttribute
  2
XPOS
 70
0
  0
ATTRIB
  5
CB
330
17
100
AcDbEntity
  8
0
 62
4
100
AcDbText
 10
<<<<<<< HEAD
-66.84447520483357
 20
6.75550717926575
 30
0.0
 40
0.2933297708930542
  1
= 8.000
 50
14.999999999999998
 11
-66.84447520483357
 21
6.75550717926575
=======
75.29639221100959
 20
-84.74847239200172
 30
0.0
 40
0.1764166346384441
  1
= -84.000
 50
14.999999999999998
 11
75.29639221100959
 21
-84.74847239200172
>>>>>>> fa42de9 (dd001)
 31
0.0
100
AcDbAttribute
  2
YPOS
 70
0
  0
SEQEND
  5
C8
330
C7
100
AcDbEntity
  8
0
  0
INSERT
  5
CC
330
17
100
AcDbEntity
  8
0
100
AcDbBlockReference
 66
1
  2
FLAG
 10
<<<<<<< HEAD
6.0
 20
-78.0
 30
0.0
 41
0.9405760114302968
 42
0.9405760114302968
 43
0.9405760114302968
=======
10.0
 20
-54.0
 30
0.0
 41
1.6936723352615546
 42
1.6936723352615546
 43
1.6936723352615546
>>>>>>> fa42de9 (dd001)
 50
15.0
  0
ATTRIB
  5
CE
330
17
100
AcDbEntity
  8
0
 62
3
100
AcDbText
 10
<<<<<<< HEAD
7.484509484105092
 20
-78.08910485282715
 30
0.0
 40
0.4702880057151484
=======
12.673120103115156
 20
-54.1604489401568
 30
0.0
 40
0.8468361676307773
>>>>>>> fa42de9 (dd001)
  1
P(28)
 50
14.999999999999998
 11
<<<<<<< HEAD
7.484509484105092
 21
-78.08910485282715
=======
12.673120103115156
 21
-54.1604489401568
>>>>>>> fa42de9 (dd001)
 31
0.0
100
AcDbAttribute
  2
NAME
 70
0
  0
ATTRIB
  5
CF
330
17
100
AcDbEntity
  8
0
 62
4
100
AcDbText
 10
<<<<<<< HEAD
7.606228976667456
 20
-78.5433681833414
 30
0.0
 40
0.2351440028575742
  1
= 6.000
 50
14.999999999999998
 11
7.606228976667456
 21
-78.5433681833414
=======
12.892297431379632
 20
-54.978429865107024
 30
0.0
 40
0.42341808381538865
  1
= 10.000
 50
14.999999999999998
 11
12.892297431379632
 21
-54.978429865107024
>>>>>>> fa42de9 (dd001)
 31
0.0
100
AcDbAttribute
  2
XPOS
 70
0
  0
ATTRIB
  5
D0
330
17
100
AcDbEntity
  8
0
 62
4
100
AcDbText
 10
<<<<<<< HEAD
7.727948469229819
 20
-78.99763151385564
 30
0.0
 40
0.2351440028575742
  1
= -78.000
 50
14.999999999999998
 11
7.727948469229819
 21
-78.99763151385564
=======
13.111474759644107
 20
-55.79641079005725
 30
0.0
 40
0.42341808381538865
  1
= -54.000
 50
14.999999999999998
 11
13.111474759644107
 21
-55.79641079005725
>>>>>>> fa42de9 (dd001)
 31
0.0
100
AcDbAttribute
  2
YPOS
 70
0
  0
SEQEND
  5
CD
330
CC
100
AcDbEntity
  8
0
  0
INSERT
  5
D1
330
17
100
AcDbEntity
  8
0
100
AcDbBlockReference
 66
1
  2
FLAG
 10
<<<<<<< HEAD
19.0
 20
15.0
 30
0.0
 41
1.6250323396175659
 42
1.6250323396175659
 43
1.6250323396175659
=======
89.0
 20
-76.0
 30
0.0
 41
0.8665094105911486
 42
0.8665094105911486
 43
0.8665094105911486
>>>>>>> fa42de9 (dd001)
 50
15.0
  0
ATTRIB
  5
D3
330
17
100
AcDbEntity
  8
0
 62
3
100
AcDbText
 10
<<<<<<< HEAD
21.5647857172876
 20
14.846053624905023
 30
0.0
 40
0.8125161698087829
=======
90.36761029672954
 20
-76.08208820187393
 30
0.0
 40
0.4332547052955743
>>>>>>> fa42de9 (dd001)
  1
P(29)
 50
14.999999999999998
 11
<<<<<<< HEAD
21.5647857172876
 21
14.846053624905023
=======
90.36761029672954
 21
-76.08208820187393
>>>>>>> fa42de9 (dd001)
 31
0.0
100
AcDbAttribute
  2
NAME
 70
0
  0
ATTRIB
  5
D4
330
17
100
AcDbEntity
  8
0
 62
4
100
AcDbText
 10
<<<<<<< HEAD
21.775080376487868
 20
14.061223272209245
 30
0.0
 40
0.40625808490439147
  1
= 19.000
 50
14.999999999999998
 11
21.775080376487868
 21
14.061223272209245
=======
90.47974486584032
 20
-76.50058011108018
 30
0.0
 40
0.21662735264778715
  1
= 89.000
 50
14.999999999999998
 11
90.47974486584032
 21
-76.50058011108018
>>>>>>> fa42de9 (dd001)
 31
0.0
100
AcDbAttribute
  2
XPOS
 70
0
  0
ATTRIB
  5
D5
330
17
100
AcDbEntity
  8
0
 62
4
100
AcDbText
 10
<<<<<<< HEAD
21.985375035688133
 20
13.276392919513468
 30
0.0
 40
0.40625808490439147
  1
= 15.000
 50
14.999999999999998
 11
21.985375035688133
 21
13.276392919513468
=======
90.59187943495108
 20
-76.91907202028644
 30
0.0
 40
0.21662735264778715
  1
= -76.000
 50
14.999999999999998
 11
90.59187943495108
 21
-76.91907202028644
>>>>>>> fa42de9 (dd001)
 31
0.0
100
AcDbAttribute
  2
YPOS
 70
0
  0
SEQEND
  5
D2
330
D1
100
AcDbEntity
  8
0
  0
INSERT
  5
D6
330
17
100
AcDbEntity
  8
0
100
AcDbBlockReference
 66
1
  2
FLAG
 10
<<<<<<< HEAD
30.0
 20
73.0
 30
0.0
 41
1.54441656899053
 42
1.54441656899053
 43
1.54441656899053
=======
35.0
 20
17.0
 30
0.0
 41
0.5933153835442668
 42
0.5933153835442668
 43
0.5933153835442668
>>>>>>> fa42de9 (dd001)
 50
15.0
  0
ATTRIB
  5
D8
330
17
100
AcDbEntity
  8
0
 62
3
100
AcDbText
 10
<<<<<<< HEAD
32.43754998661838
 20
72.85369070717161
 30
0.0
 40
0.772208284495265
=======
35.9364286386568
 20
16.94379265547034
 30
0.0
 40
0.2966576917721334
>>>>>>> fa42de9 (dd001)
  1
P(30)
 50
14.999999999999998
 11
<<<<<<< HEAD
32.43754998661838
 21
72.85369070717161
=======
35.9364286386568
 21
16.94379265547034
>>>>>>> fa42de9 (dd001)
 31
0.0
100
AcDbAttribute
  2
NAME
 70
0
  0
ATTRIB
  5
D9
330
17
100
AcDbEntity
  8
0
 62
4
100
AcDbText
 10
<<<<<<< HEAD
32.6374121974317
 20
72.10779478190325
 30
0.0
 40
0.3861041422476325
  1
= 30.000
 50
14.999999999999998
 11
32.6374121974317
 21
72.10779478190325
=======
36.01320929916358
 20
16.657243329420332
 30
0.0
 40
0.1483288458860667
  1
= 35.000
 50
14.999999999999998
 11
36.01320929916358
 21
16.657243329420332
>>>>>>> fa42de9 (dd001)
 31
0.0
100
AcDbAttribute
  2
XPOS
 70
0
  0
ATTRIB
  5
DA
330
17
100
AcDbEntity
  8
0
 62
4
100
AcDbText
 10
<<<<<<< HEAD
32.83727440824502
 20
71.36189885663491
 30
0.0
 40
0.3861041422476325
  1
= 73.000
 50
14.999999999999998
 11
32.83727440824502
 21
71.36189885663491
=======
36.08998995967036
 20
16.37069400337033
 30
0.0
 40
0.1483288458860667
  1
= 17.000
 50
14.999999999999998
 11
36.08998995967036
 21
16.37069400337033
>>>>>>> fa42de9 (dd001)
 31
0.0
100
AcDbAttribute
  2
YPOS
 70
0
  0
SEQEND
  5
D7
330
D6
100
AcDbEntity
  8
0
  0
INSERT
  5
DB
330
17
100
AcDbEntity
  8
0
100
AcDbBlockReference
 66
1
  2
FLAG
 10
<<<<<<< HEAD
24.0
 20
-38.0
 30
0.0
 41
0.5542799625611612
 42
0.5542799625611612
 43
0.5542799625611612
=======
73.0
 20
-45.0
 30
0.0
 41
0.7564864722963436
 42
0.7564864722963436
 43
0.7564864722963436
>>>>>>> fa42de9 (dd001)
 50
15.0
  0
ATTRIB
  5
DD
330
17
100
AcDbEntity
  8
0
 62
3
100
AcDbText
 10
<<<<<<< HEAD
24.874819101563315
 20
-38.05250934947187
 30
0.0
 40
0.2771399812805806
=======
74.19396128444038
 20
-45.0716652508256
 30
0.0
 40
0.3782432361481718
>>>>>>> fa42de9 (dd001)
  1
P(31)
 50
14.999999999999998
 11
<<<<<<< HEAD
24.874819101563315
 21
-38.05250934947187
=======
74.19396128444038
 21
-45.0716652508256
>>>>>>> fa42de9 (dd001)
 31
0.0
100
AcDbAttribute
  2
NAME
 70
0
  0
ATTRIB
  5
DE
330
17
100
AcDbEntity
  8
0
 62
4
100
AcDbText
 10
<<<<<<< HEAD
24.946548206878084
 20
-38.32020601488805
 30
0.0
 40
0.1385699906402903
  1
= 24.000
=======
74.29185783763674
 20
-45.43702016124028
 30
0.0
 40
0.1891216180740859
  1
= 73.000
>>>>>>> fa42de9 (dd001)
 50
14.999999999999998
 11
<<<<<<< HEAD
24.946548206878084
 21
-38.32020601488805
=======
74.29185783763674
 21
-45.43702016124028
>>>>>>> fa42de9 (dd001)
 31
0.0
100
AcDbAttribute
  2
XPOS
 70
0
  0
ATTRIB
  5
DF
330
17
100
AcDbEntity
  8
0
 62
4
100
AcDbText
 10
<<<<<<< HEAD
25.018277312192858
 20
-38.58790268030423
 30
0.0
 40
0.1385699906402903
  1
= -38.000
=======
74.38975439083309
 20
-45.80237507165495
 30
0.0
 40
0.1891216180740859
  1
= -45.000
>>>>>>> fa42de9 (dd001)
 50
14.999999999999998
 11
<<<<<<< HEAD
25.018277312192858
 21
-38.58790268030423
=======
74.38975439083309
 21
-45.80237507165495
>>>>>>> fa42de9 (dd001)
 31
0.0
100
AcDbAttribute
  2
YPOS
 70
0
  0
SEQEND
  5
DC
330
DB
100
AcDbEntity
  8
0
  0
INSERT
  5
E0
330
17
100
AcDbEntity
  8
0
100
AcDbBlockReference
 66
1
  2
FLAG
 10
<<<<<<< HEAD
78.0
 20
-45.0
 30
0.0
 41
2.335461181761095
 42
2.335461181761095
 43
2.335461181761095
=======
43.0
 20
-39.0
 30
0.0
 41
1.4157540511132762
 42
1.4157540511132762
 43
1.4157540511132762
>>>>>>> fa42de9 (dd001)
 50
15.0
  0
ATTRIB
  5
E2
330
17
100
AcDbEntity
  8
0
 62
3
100
AcDbText
 10
<<<<<<< HEAD
81.68605432410665
 20
-45.2212483864732
 30
0.0
 40
1.1677305908805475
  1
P(32)
 50
15.000000000000002
 11
81.68605432410665
 21
-45.2212483864732
=======
45.23448215827011
 20
-39.1341205334081
 30
0.0
 40
0.707877025556638
  1
P(32)
 50
14.999999999999998
 41
1.0000000000000002
 11
45.23448215827011
 21
-39.1341205334081
>>>>>>> fa42de9 (dd001)
 31
0.0
100
AcDbAttribute
  2
NAME
 70
0
  0
ATTRIB
  5
E3
330
17
100
AcDbEntity
  8
0
 62
4
100
AcDbText
 10
<<<<<<< HEAD
81.98828524057535
 20
-46.34918952235251
 30
0.0
 40
0.5838652954402738
  1
= 78.000
 50
15.000000000000002
 11
81.98828524057535
 21
-46.34918952235251
=======
45.41769421407469
 20
-39.81787723422994
 30
0.0
 40
0.353938512778319
  1
= 43.000
 50
14.999999999999998
 41
1.0000000000000002
 11
45.41769421407469
 21
-39.81787723422994
>>>>>>> fa42de9 (dd001)
 31
0.0
100
AcDbAttribute
  2
XPOS
 70
0
  0
ATTRIB
  5
E4
330
17
100
AcDbEntity
  8
0
 62
4
100
AcDbText
 10
<<<<<<< HEAD
82.29051615704407
 20
-47.47713065823183
 30
0.0
 40
0.5838652954402738
  1
= -45.000
 50
15.000000000000002
 11
82.29051615704407
 21
-47.47713065823183
=======
45.600906269879275
 20
-40.501633935051785
 30
0.0
 40
0.353938512778319
  1
= -39.000
 50
14.999999999999998
 41
1.0000000000000002
 11
45.600906269879275
 21
-40.501633935051785
>>>>>>> fa42de9 (dd001)
 31
0.0
100
AcDbAttribute
  2
YPOS
 70
0
  0
SEQEND
  5
E1
330
E0
100
AcDbEntity
  8
0
  0
INSERT
  5
E5
330
17
100
AcDbEntity
  8
0
100
AcDbBlockReference
 66
1
  2
FLAG
 10
<<<<<<< HEAD
-86.0
 20
-77.0
 30
0.0
 41
2.3716612021135175
 42
2.3716612021135175
 43
2.3716612021135175
=======
-24.0
 20
-37.0
 30
0.0
 41
1.676314606980557
 42
1.676314606980557
 43
1.676314606980557
>>>>>>> fa42de9 (dd001)
 50
15.0
  0
ATTRIB
  5
E7
330
17
100
AcDbEntity
  8
0
 62
3
100
AcDbText
 10
<<<<<<< HEAD
-82.2568112466873
 20
-77.22467777170803
 30
0.0
 40
1.1858306010567587
=======
-21.354275569262747
 20
-37.15880456712889
 30
0.0
 40
0.8381573034902784
>>>>>>> fa42de9 (dd001)
  1
P(33)
 50
14.999999999999998
 41
1.0000000000000002
 11
<<<<<<< HEAD
-82.2568112466873
 21
-77.22467777170803
=======
-21.354275569262747
 21
-37.15880456712889
>>>>>>> fa42de9 (dd001)
 31
0.0
100
AcDbAttribute
  2
NAME
 70
0
  0
ATTRIB
  5
E8
330
17
100
AcDbEntity
  8
0
 62
4
100
AcDbText
 10
<<<<<<< HEAD
-81.94989570286845
 20
-78.37010217487264
 30
0.0
 40
0.5929153005283794
  1
= -86.000
=======
-21.137344496327692
 20
-37.968402353062956
 30
0.0
 40
0.4190786517451392
  1
= -24.000
>>>>>>> fa42de9 (dd001)
 50
14.999999999999998
 41
1.0000000000000002
 11
<<<<<<< HEAD
-81.94989570286845
 21
-78.37010217487264
=======
-21.137344496327692
 21
-37.968402353062956
>>>>>>> fa42de9 (dd001)
 31
0.0
100
AcDbAttribute
  2
XPOS
 70
0
  0
ATTRIB
  5
E9
330
17
100
AcDbEntity
  8
0
 62
4
100
AcDbText
 10
<<<<<<< HEAD
-81.64298015904959
 20
-79.51552657803727
 30
0.0
 40
0.5929153005283794
  1
= -77.000
=======
-20.920413423392635
 20
-38.77800013899702
 30
0.0
 40
0.4190786517451392
  1
= -37.000
>>>>>>> fa42de9 (dd001)
 50
14.999999999999998
 41
1.0000000000000002
 11
<<<<<<< HEAD
-81.64298015904959
 21
-79.51552657803727
=======
-20.920413423392635
 21
-38.77800013899702
>>>>>>> fa42de9 (dd001)
 31
0.0
100
AcDbAttribute
  2
YPOS
 70
0
  0
SEQEND
  5
E6
330
E5
100
AcDbEntity
  8
0
  0
INSERT
  5
EA
330
17
100
AcDbEntity
  8
0
100
AcDbBlockReference
 66
1
  2
FLAG
 10
19.0
 20
<<<<<<< HEAD
78.0
 30
0.0
 41
0.6714277608743813
 42
0.6714277608743813
 43
0.6714277608743813
=======
-22.0
 30
0.0
 41
2.336111448952207
 42
2.336111448952207
 43
2.336111448952207
>>>>>>> fa42de9 (dd001)
 50
15.0
  0
ATTRIB
  5
EC
330
17
100
AcDbEntity
  8
0
 62
3
100
AcDbText
 10
<<<<<<< HEAD
20.059713268036425
 20
77.93639273052925
 30
0.0
 40
0.33571388043719064
=======
22.687080639684208
 20
-22.22130998910994
 30
0.0
 40
1.1680557244761036
>>>>>>> fa42de9 (dd001)
  1
P(34)
 50
14.999999999999998
 11
<<<<<<< HEAD
20.059713268036425
 21
77.93639273052925
=======
22.687080639684208
 21
-22.22130998910994
>>>>>>> fa42de9 (dd001)
 31
0.0
100
AcDbAttribute
  2
NAME
 70
0
  0
ATTRIB
  5
ED
330
17
100
AcDbEntity
  8
0
 62
4
100
AcDbText
 10
<<<<<<< HEAD
20.14660241399884
 20
77.61211802317123
 30
0.0
 40
0.16785694021859532
=======
22.989395706919645
 20
-23.3495651799262
 30
0.0
 40
0.5840278622380518
>>>>>>> fa42de9 (dd001)
  1
= 19.000
 50
14.999999999999998
 11
<<<<<<< HEAD
20.14660241399884
 21
77.61211802317123
=======
22.989395706919645
 21
-23.3495651799262
>>>>>>> fa42de9 (dd001)
 31
0.0
100
AcDbAttribute
  2
XPOS
 70
0
  0
ATTRIB
  5
EE
330
17
100
AcDbEntity
  8
0
 62
4
100
AcDbText
 10
<<<<<<< HEAD
20.233491559961255
 20
77.28784331581323
 30
0.0
 40
0.16785694021859532
  1
= 78.000
 50
14.999999999999998
 11
20.233491559961255
 21
77.28784331581323
=======
23.291710774155085
 20
-24.477820370742457
 30
0.0
 40
0.5840278622380518
  1
= -22.000
 50
14.999999999999998
 11
23.291710774155085
 21
-24.477820370742457
>>>>>>> fa42de9 (dd001)
 31
0.0
100
AcDbAttribute
  2
YPOS
 70
0
  0
SEQEND
  5
EB
330
EA
100
AcDbEntity
  8
0
  0
INSERT
  5
EF
330
17
100
AcDbEntity
  8
0
100
AcDbBlockReference
 66
1
  2
FLAG
 10
<<<<<<< HEAD
-65.0
 20
-97.0
 30
0.0
 41
0.5231706610621145
 42
0.5231706610621145
 43
0.5231706610621145
=======
-67.0
 20
-96.0
 30
0.0
 41
1.9090423974421153
 42
1.9090423974421153
 43
1.9090423974421153
>>>>>>> fa42de9 (dd001)
 50
15.0
  0
ATTRIB
  5
F1
330
17
100
AcDbEntity
  8
0
 62
3
100
AcDbText
 10
<<<<<<< HEAD
-64.17428065492419
 20
-97.04956223015569
 30
0.0
 40
0.2615853305310573
=======
-63.98696170206169
 20
-96.18085188203578
 30
0.0
 40
0.9545211987210577
>>>>>>> fa42de9 (dd001)
  1
P(35)
 50
14.999999999999996
 11
<<<<<<< HEAD
-64.17428065492419
 21
-97.04956223015569
=======
-63.98696170206169
 21
-96.18085188203578
>>>>>>> fa42de9 (dd001)
 31
0.0
100
AcDbAttribute
  2
NAME
 70
0
  0
ATTRIB
  5
F2
330
17
100
AcDbEntity
  8
0
 62
4
100
AcDbText
 10
<<<<<<< HEAD
-64.10657738946331
 20
-97.30223425669399
 30
0.0
 40
0.13079266526552866
  1
= -65.000
=======
-63.739913436878595
 20
-97.10284855962085
 30
0.0
 40
0.47726059936052884
  1
= -67.000
>>>>>>> fa42de9 (dd001)
 50
14.999999999999996
 11
<<<<<<< HEAD
-64.10657738946331
 21
-97.30223425669399
=======
-63.739913436878595
 21
-97.10284855962085
>>>>>>> fa42de9 (dd001)
 31
0.0
100
AcDbAttribute
  2
XPOS
 70
0
  0
ATTRIB
  5
F3
330
17
100
AcDbEntity
  8
0
 62
4
100
AcDbText
 10
<<<<<<< HEAD
-64.03887412400245
 20
-97.5549062832323
 30
0.0
 40
0.13079266526552866
  1
= -97.000
=======
-63.4928651716955
 20
-98.02484523720591
 30
0.0
 40
0.47726059936052884
  1
= -96.000
>>>>>>> fa42de9 (dd001)
 50
14.999999999999996
 11
<<<<<<< HEAD
-64.03887412400245
 21
-97.5549062832323
=======
-63.4928651716955
 21
-98.02484523720591
>>>>>>> fa42de9 (dd001)
 31
0.0
100
AcDbAttribute
  2
YPOS
 70
0
  0
SEQEND
  5
F0
330
EF
100
AcDbEntity
  8
0
  0
INSERT
  5
F4
330
17
100
AcDbEntity
  8
0
100
AcDbBlockReference
 66
1
  2
FLAG
 10
<<<<<<< HEAD
44.0
 20
96.0
 30
0.0
 41
0.7358834116321631
 42
0.7358834116321631
 43
0.7358834116321631
=======
85.0
 20
49.0
 30
0.0
 41
1.5278571345853842
 42
1.5278571345853842
 43
1.5278571345853842
>>>>>>> fa42de9 (dd001)
 50
15.0
  0
ATTRIB
  5
F6
330
17
100
AcDbEntity
  8
0
 62
3
100
AcDbText
 10
<<<<<<< HEAD
45.161443509602535
 20
95.93028656664153
 30
0.0
 40
0.36794170581608154
=======
87.41141426007728
 20
48.855259454351675
 30
0.0
 40
0.7639285672926921
>>>>>>> fa42de9 (dd001)
  1
P(36)
 50
14.999999999999998
 11
<<<<<<< HEAD
45.161443509602535
 21
95.93028656664153
=======
87.41141426007728
 21
48.855259454351675
>>>>>>> fa42de9 (dd001)
 31
0.0
100
AcDbAttribute
  2
NAME
 70
0
  0
ATTRIB
  5
F7
330
17
100
AcDbEntity
  8
0
 62
4
100
AcDbText
 10
<<<<<<< HEAD
45.25667383055524
 20
95.57488217042491
 30
0.0
 40
0.18397085290804077
  1
= 44.000
 50
14.999999999999998
 11
45.25667383055524
 21
95.57488217042491
=======
87.60913352239052
 20
48.11736112176366
 30
0.0
 40
0.38196428364634605
  1
= 85.000
 50
14.999999999999998
 11
87.60913352239052
 21
48.11736112176366
>>>>>>> fa42de9 (dd001)
 31
0.0
100
AcDbAttribute
  2
XPOS
 70
0
  0
ATTRIB
  5
F8
330
17
100
AcDbEntity
  8
0
 62
4
100
AcDbText
 10
<<<<<<< HEAD
45.35190415150796
 20
95.21947777420831
 30
0.0
 40
0.18397085290804077
  1
= 96.000
 50
14.999999999999998
 11
45.35190415150796
 21
95.21947777420831
=======
87.80685278470375
 20
47.37946278917564
 30
0.0
 40
0.38196428364634605
  1
= 49.000
 50
14.999999999999998
 11
87.80685278470375
 21
47.37946278917564
>>>>>>> fa42de9 (dd001)
 31
0.0
100
AcDbAttribute
  2
YPOS
 70
0
  0
SEQEND
  5
F5
330
F4
100
AcDbEntity
  8
0
  0
INSERT
  5
F9
330
17
100
AcDbEntity
  8
0
100
AcDbBlockReference
 66
1
  2
FLAG
 10
<<<<<<< HEAD
2.0
 20
70.0
 30
0.0
 41
1.4971851021791254
 42
1.4971851021791254
 43
1.4971851021791254
=======
41.0
 20
-25.0
 30
0.0
 41
0.8410139749399452
 42
0.8410139749399452
 43
0.8410139749399452
>>>>>>> fa42de9 (dd001)
 50
15.0
  0
ATTRIB
  5
FB
330
17
100
AcDbEntity
  8
0
 62
3
100
AcDbText
 10
<<<<<<< HEAD
4.363004644638943
 20
69.85816514926655
 30
0.0
 40
0.7485925510895628
=======
42.32737089495269
 20
-25.079672908464513
 30
0.0
 40
0.42050698746997267
>>>>>>> fa42de9 (dd001)
  1
P(37)
 50
14.999999999999998
 11
<<<<<<< HEAD
4.363004644638943
 21
69.85816514926655
=======
42.32737089495269
 21
-25.079672908464513
>>>>>>> fa42de9 (dd001)
 31
0.0
100
AcDbAttribute
  2
NAME
 70
0
  0
ATTRIB
  5
FC
330
17
100
AcDbEntity
  8
0
 62
4
100
AcDbText
 10
<<<<<<< HEAD
4.556754653882804
 20
69.13508027080152
 30
0.0
 40
0.3742962755447814
  1
= 2.000
 50
14.999999999999998
 11
4.556754653882804
 21
69.13508027080152
=======
42.43620611190861
 20
-25.485851467796774
 30
0.0
 40
0.21025349373498634
  1
= 41.000
 50
14.999999999999998
 11
42.43620611190861
 21
-25.485851467796774
>>>>>>> fa42de9 (dd001)
 31
0.0
100
AcDbAttribute
  2
XPOS
 70
0
  0
ATTRIB
  5
FD
330
17
100
AcDbEntity
  8
0
 62
4
100
AcDbText
 10
<<<<<<< HEAD
4.750504663126664
 20
68.4119953923365
 30
0.0
 40
0.3742962755447814
  1
= 70.000
 50
14.999999999999998
 11
4.750504663126664
 21
68.4119953923365
=======
42.54504132886453
 20
-25.89203002712903
 30
0.0
 40
0.21025349373498634
  1
= -25.000
 50
14.999999999999998
 11
42.54504132886453
 21
-25.89203002712903
>>>>>>> fa42de9 (dd001)
 31
0.0
100
AcDbAttribute
  2
YPOS
 70
0
  0
SEQEND
  5
FA
330
F9
100
AcDbEntity
  8
0
  0
INSERT
  5
FE
330
17
100
AcDbEntity
  8
0
100
AcDbBlockReference
 66
1
  2
FLAG
 10
<<<<<<< HEAD
2.0
 20
86.0
 30
0.0
 41
1.978351373616358
 42
1.978351373616358
 43
1.978351373616358
=======
62.0
 20
28.0
 30
0.0
 41
2.442544394527033
 42
2.442544394527033
 43
2.442544394527033
>>>>>>> fa42de9 (dd001)
 50
15.0
  0
ATTRIB
  5
100
330
17
100
AcDbEntity
  8
0
 62
3
100
AcDbText
 10
<<<<<<< HEAD
5.122428534574064
 20
85.81258217746972
 30
0.0
 40
0.989175686808179
=======
65.85506357270289
 20
27.768607155452372
 30
0.0
 40
1.2212721972635165
>>>>>>> fa42de9 (dd001)
  1
P(38)
 50
14.999999999999998
 41
1.0000000000000002
 11
<<<<<<< HEAD
5.122428534574064
 21
85.81258217746972
=======
65.85506357270289
 21
27.768607155452372
>>>>>>> fa42de9 (dd001)
 31
0.0
100
AcDbAttribute
  2
NAME
 70
0
  0
ATTRIB
  5
101
330
17
100
AcDbEntity
  8
0
 62
4
100
AcDbText
 10
<<<<<<< HEAD
5.378446041272387
 20
84.85711183484447
 30
0.0
 40
0.4945878434040895
  1
= 2.000
=======
66.17115207660889
 20
26.588948799186745
 30
0.0
 40
0.6106360986317583
  1
= 62.000
>>>>>>> fa42de9 (dd001)
 50
14.999999999999998
 41
1.0000000000000002
 11
<<<<<<< HEAD
5.378446041272387
 21
84.85711183484447
=======
66.17115207660889
 21
26.588948799186745
>>>>>>> fa42de9 (dd001)
 31
0.0
100
AcDbAttribute
  2
XPOS
 70
0
  0
ATTRIB
  5
102
330
17
100
AcDbEntity
  8
0
 62
4
100
AcDbText
 10
<<<<<<< HEAD
5.63446354797071
 20
83.90164149221923
 30
0.0
 40
0.4945878434040895
  1
= 86.000
=======
66.4872405805149
 20
25.40929044292112
 30
0.0
 40
0.6106360986317583
  1
= 28.000
>>>>>>> fa42de9 (dd001)
 50
14.999999999999998
 41
1.0000000000000002
 11
<<<<<<< HEAD
5.63446354797071
 21
83.90164149221923
=======
66.4872405805149
 21
25.40929044292112
>>>>>>> fa42de9 (dd001)
 31
0.0
100
AcDbAttribute
  2
YPOS
 70
0
  0
SEQEND
  5
FF
330
FE
100
AcDbEntity
  8
0
  0
INSERT
  5
103
330
17
100
AcDbEntity
  8
0
100
AcDbBlockReference
 66
1
  2
FLAG
 10
<<<<<<< HEAD
-18.0
 20
39.0
 30
0.0
 41
1.4331344827080148
 42
1.4331344827080148
 43
1.4331344827080148
=======
-74.0
 20
-41.0
 30
0.0
 41
0.7573205107599266
 42
0.7573205107599266
 43
0.7573205107599266
>>>>>>> fa42de9 (dd001)
 50
15.0
  0
ATTRIB
  5
105
330
17
100
AcDbEntity
  8
0
 62
3
100
AcDbText
 10
<<<<<<< HEAD
-15.738086336751365
 20
38.864232942780426
 30
0.0
 40
0.7165672413540074
=======
-72.80472235410213
 20
-41.07174426291356
 30
0.0
 40
0.3786602553799633
>>>>>>> fa42de9 (dd001)
  1
P(39)
 50
14.999999999999998
 41
1.0000000000000002
 11
<<<<<<< HEAD
-15.738086336751365
 21
38.864232942780426
=======
-72.80472235410213
 21
-41.07174426291356
>>>>>>> fa42de9 (dd001)
 31
0.0
100
AcDbAttribute
  2
NAME
 70
0
  0
ATTRIB
  5
106
330
17
100
AcDbEntity
  8
0
 62
4
100
AcDbText
 10
<<<<<<< HEAD
-15.552625087592373
 20
38.17208213808388
 30
0.0
 40
0.3582836206770037
  1
= -18.000
=======
-72.7067178683864
 20
-41.43750198297428
 30
0.0
 40
0.18933012768998164
  1
= -74.000
>>>>>>> fa42de9 (dd001)
 50
14.999999999999998
 41
1.0000000000000002
 11
<<<<<<< HEAD
-15.552625087592373
 21
38.17208213808388
=======
-72.7067178683864
 21
-41.43750198297428
>>>>>>> fa42de9 (dd001)
 31
0.0
100
AcDbAttribute
  2
XPOS
 70
0
  0
ATTRIB
  5
107
330
17
100
AcDbEntity
  8
0
 62
4
100
AcDbText
 10
<<<<<<< HEAD
-15.367163838433381
 20
37.479931333387334
 30
0.0
 40
0.3582836206770037
  1
= 39.000
=======
-72.60871338267069
 20
-41.803259703035
 30
0.0
 40
0.18933012768998164
  1
= -41.000
>>>>>>> fa42de9 (dd001)
 50
14.999999999999998
 41
1.0000000000000002
 11
<<<<<<< HEAD
-15.367163838433381
 21
37.479931333387334
=======
-72.60871338267069
 21
-41.803259703035
>>>>>>> fa42de9 (dd001)
 31
0.0
100
AcDbAttribute
  2
YPOS
 70
0
  0
SEQEND
  5
104
330
103
100
AcDbEntity
  8
0
  0
INSERT
  5
108
330
17
100
AcDbEntity
  8
0
100
AcDbBlockReference
 66
1
  2
FLAG
 10
<<<<<<< HEAD
1.0
 20
30.0
 30
0.0
 41
1.2058933284674607
 42
1.2058933284674607
 43
1.2058933284674607
=======
97.0
 20
1.0
 30
0.0
 41
1.4592148106635559
 42
1.4592148106635559
 43
1.4592148106635559
>>>>>>> fa42de9 (dd001)
 50
15.0
  0
ATTRIB
  5
10A
330
17
100
AcDbEntity
  8
0
 62
3
100
AcDbText
 10
<<<<<<< HEAD
2.9032593444593346
 20
29.88576048479597
 30
0.0
 40
0.6029466642337303
=======
99.30307619953287
 20
0.8617622399813748
 30
0.0
 40
0.7296074053317779
>>>>>>> fa42de9 (dd001)
  1
P(40)
 50
14.999999999999996
 41
1.0000000000000002
 11
<<<<<<< HEAD
2.9032593444593346
 21
29.88576048479597
=======
99.30307619953287
 21
0.8617622399813748
>>>>>>> fa42de9 (dd001)
 31
0.0
100
AcDbAttribute
  2
NAME
 70
0
  0
ATTRIB
  5
10B
330
17
100
AcDbEntity
  8
0
 62
4
100
AcDbText
 10
<<<<<<< HEAD
3.059313424344059
 20
29.303358729937766
 30
0.0
 40
0.30147333211686517
  1
= 1.000
=======
99.49191249148056
 20
0.15701560411965398
 30
0.0
 40
0.36480370266588896
  1
= 97.000
>>>>>>> fa42de9 (dd001)
 50
14.999999999999996
 41
1.0000000000000002
 11
<<<<<<< HEAD
3.059313424344059
 21
29.303358729937766
=======
99.49191249148056
 21
0.15701560411965398
>>>>>>> fa42de9 (dd001)
 31
0.0
100
AcDbAttribute
  2
XPOS
 70
0
  0
ATTRIB
  5
10C
330
17
100
AcDbEntity
  8
0
 62
4
100
AcDbText
 10
<<<<<<< HEAD
3.2153675042287833
 20
28.720956975079563
 30
0.0
 40
0.30147333211686517
  1
= 30.000
=======
99.68074878342826
 20
-0.5477310317420669
 30
0.0
 40
0.36480370266588896
  1
= 1.000
>>>>>>> fa42de9 (dd001)
 50
14.999999999999996
 41
1.0000000000000002
 11
<<<<<<< HEAD
3.2153675042287833
 21
28.720956975079563
=======
99.68074878342826
 21
-0.5477310317420669
>>>>>>> fa42de9 (dd001)
 31
0.0
100
AcDbAttribute
  2
YPOS
 70
0
  0
SEQEND
  5
109
330
108
100
AcDbEntity
  8
0
  0
INSERT
  5
10D
330
17
100
AcDbEntity
  8
0
100
AcDbBlockReference
 66
1
  2
FLAG
 10
<<<<<<< HEAD
-26.0
 20
31.0
 30
0.0
 41
1.5137057392104174
 42
1.5137057392104174
 43
1.5137057392104174
=======
-33.0
 20
17.0
 30
0.0
 41
1.879426193495714
 42
1.879426193495714
 43
1.879426193495714
>>>>>>> fa42de9 (dd001)
 50
15.0
  0
ATTRIB
  5
10F
330
17
100
AcDbEntity
  8
0
 62
3
100
AcDbText
 10
<<<<<<< HEAD
-23.610920862647685
 20
30.856600077530306
 30
0.0
 40
0.7568528696052088
=======
-30.03370490527689
 20
16.821953789661006
 30
0.0
 40
0.939713096747857
>>>>>>> fa42de9 (dd001)
  1
P(41)
 50
14.999999999999996
 11
<<<<<<< HEAD
-23.610920862647685
 21
30.856600077530306
=======
-30.03370490527689
 21
16.821953789661006
>>>>>>> fa42de9 (dd001)
 31
0.0
100
AcDbAttribute
  2
NAME
 70
0
  0
ATTRIB
  5
110
330
17
100
AcDbEntity
  8
0
 62
4
100
AcDbText
 10
<<<<<<< HEAD
-23.415032925653364
 20
30.12553634407764
 30
0.0
 40
0.3784264348026044
  1
= -26.000
=======
-29.790489258906277
 20
15.914260640210173
 30
0.0
 40
0.4698565483739285
  1
= -33.000
>>>>>>> fa42de9 (dd001)
 50
14.999999999999996
 11
<<<<<<< HEAD
-23.415032925653364
 21
30.12553634407764
=======
-29.790489258906277
 21
15.914260640210173
>>>>>>> fa42de9 (dd001)
 31
0.0
100
AcDbAttribute
  2
XPOS
 70
0
  0
ATTRIB
  5
111
330
17
100
AcDbEntity
  8
0
 62
4
100
AcDbText
 10
<<<<<<< HEAD
-23.21914498865904
 20
29.394472610624977
 30
0.0
 40
0.3784264348026044
  1
= 31.000
=======
-29.547273612535662
 20
15.006567490759341
 30
0.0
 40
0.4698565483739285
  1
= 17.000
>>>>>>> fa42de9 (dd001)
 50
14.999999999999996
 11
<<<<<<< HEAD
-23.21914498865904
 21
29.394472610624977
=======
-29.547273612535662
 21
15.006567490759341
>>>>>>> fa42de9 (dd001)
 31
0.0
100
AcDbAttribute
  2
YPOS
 70
0
  0
SEQEND
  5
10E
330
10D
100
AcDbEntity
  8
0
  0
INSERT
  5
112
330
17
100
AcDbEntity
  8
0
100
AcDbBlockReference
 66
1
  2
FLAG
 10
<<<<<<< HEAD
-98.0
 20
6.0
 30
0.0
 41
1.055877113563471
 42
1.055877113563471
 43
1.055877113563471
=======
100.0
 20
53.0
 30
0.0
 41
0.6896751618968497
 42
0.6896751618968497
 43
0.6896751618968497
>>>>>>> fa42de9 (dd001)
 50
15.0
  0
ATTRIB
  5
114
330
17
100
AcDbEntity
  8
0
 62
3
100
AcDbText
 10
<<<<<<< HEAD
-96.33351098679319
 20
5.899972172727899
 30
0.0
 40
0.5279385567817355
=======
101.08851310935593
 20
52.93466407493647
 30
0.0
 40
0.34483758094842487
>>>>>>> fa42de9 (dd001)
  1
P(42)
 50
14.999999999999998
 41
1.0000000000000002
 11
<<<<<<< HEAD
-96.33351098679319
 21
5.899972172727899
=======
101.08851310935593
 21
52.93466407493647
>>>>>>> fa42de9 (dd001)
 31
0.0
100
AcDbAttribute
  2
NAME
 70
0
  0
ATTRIB
  5
115
330
17
100
AcDbEntity
  8
0
 62
4
100
AcDbText
 10
<<<<<<< HEAD
-96.19687043365413
 20
5.390022686038643
 30
0.0
 40
0.26396927839086776
  1
= -98.000
=======
101.17776364277246
 20
52.60157654962334
 30
0.0
 40
0.17241879047421244
  1
= 100.000
>>>>>>> fa42de9 (dd001)
 50
14.999999999999998
 41
1.0000000000000002
 11
<<<<<<< HEAD
-96.19687043365413
 21
5.390022686038643
=======
101.17776364277246
 21
52.60157654962334
>>>>>>> fa42de9 (dd001)
 31
0.0
100
AcDbAttribute
  2
XPOS
 70
0
  0
ATTRIB
  5
116
330
17
100
AcDbEntity
  8
0
 62
4
100
AcDbText
 10
<<<<<<< HEAD
-96.06022988051508
 20
4.880073199349387
 30
0.0
 40
0.26396927839086776
  1
= 6.000
=======
101.267014176189
 20
52.26848902431021
 30
0.0
 40
0.17241879047421244
  1
= 53.000
>>>>>>> fa42de9 (dd001)
 50
14.999999999999998
 41
1.0000000000000002
 11
<<<<<<< HEAD
-96.06022988051508
 21
4.880073199349387
=======
101.267014176189
 21
52.26848902431021
>>>>>>> fa42de9 (dd001)
 31
0.0
100
AcDbAttribute
  2
YPOS
 70
0
  0
SEQEND
  5
113
330
112
100
AcDbEntity
  8
0
  0
INSERT
  5
117
330
17
100
AcDbEntity
  8
0
100
AcDbBlockReference
 66
1
  2
FLAG
 10
<<<<<<< HEAD
74.0
 20
-69.0
 30
0.0
 41
0.8877114732050893
 42
0.8877114732050893
 43
0.8877114732050893
=======
-82.0
 20
-10.0
 30
0.0
 41
1.4713621458959234
 42
1.4713621458959234
 43
1.4713621458959234
>>>>>>> fa42de9 (dd001)
 50
15.0
  0
ATTRIB
  5
119
330
17
100
AcDbEntity
  8
0
 62
3
100
AcDbText
 10
<<<<<<< HEAD
75.40107347530362
 20
-69.08409676539871
 30
0.0
 40
0.4438557366025446
=======
-79.67775168238215
 20
-10.13938852987132
 30
0.0
 40
0.7356810729479617
>>>>>>> fa42de9 (dd001)
  1
P(43)
 50
14.999999999999998
 11
<<<<<<< HEAD
75.40107347530362
 21
-69.08409676539871
=======
-79.67775168238215
 21
-10.13938852987132
>>>>>>> fa42de9 (dd001)
 31
0.0
100
AcDbAttribute
  2
NAME
 70
0
  0
ATTRIB
  5
11A
330
17
100
AcDbEntity
  8
0
 62
4
100
AcDbText
 10
<<<<<<< HEAD
75.51595179321436
 20
-69.51282848452968
 30
0.0
 40
0.2219278683012723
  1
= 74.000
 50
14.999999999999998
 11
75.51595179321436
 21
-69.51282848452968
=======
-79.48734340958175
 20
-10.850001878143809
 30
0.0
 40
0.36784053647398085
  1
= -82.000
 50
14.999999999999998
 11
-79.48734340958175
 21
-10.850001878143809
>>>>>>> fa42de9 (dd001)
 31
0.0
100
AcDbAttribute
  2
XPOS
 70
0
  0
ATTRIB
  5
11B
330
17
100
AcDbEntity
  8
0
 62
4
100
AcDbText
 10
<<<<<<< HEAD
75.6308301111251
 20
-69.94156020366063
 30
0.0
 40
0.2219278683012723
  1
= -69.000
 50
14.999999999999998
 11
75.6308301111251
 21
-69.94156020366063
=======
-79.29693513678137
 20
-11.560615226416296
 30
0.0
 40
0.36784053647398085
  1
= -10.000
 50
14.999999999999998
 11
-79.29693513678137
 21
-11.560615226416296
>>>>>>> fa42de9 (dd001)
 31
0.0
100
AcDbAttribute
  2
YPOS
 70
0
  0
SEQEND
  5
118
330
117
100
AcDbEntity
  8
0
  0
INSERT
  5
11C
330
17
100
AcDbEntity
  8
0
100
AcDbBlockReference
 66
1
  2
FLAG
 10
-77.0
 20
<<<<<<< HEAD
42.0
 30
0.0
 41
0.9403591530178512
 42
0.9403591530178512
 43
0.9403591530178512
=======
-53.0
 30
0.0
 41
0.6435723933792483
 42
0.6435723933792483
 43
0.6435723933792483
>>>>>>> fa42de9 (dd001)
 50
15.0
  0
ATTRIB
  5
11E
330
17
100
AcDbEntity
  8
0
 62
3
100
AcDbText
 10
<<<<<<< HEAD
-75.51583278315037
 20
41.91091569111261
 30
0.0
 40
0.4701795765089256
=======
-75.98425081006809
 20
-53.0609684094627
 30
0.0
 40
0.32178619668962416
>>>>>>> fa42de9 (dd001)
  1
P(44)
 50
15.000000000000002
 11
<<<<<<< HEAD
-75.51583278315037
 21
41.91091569111261
=======
-75.98425081006809
 21
-53.0609684094627
>>>>>>> fa42de9 (dd001)
 31
0.0
100
AcDbAttribute
  2
NAME
 70
0
  0
ATTRIB
  5
11F
330
17
100
AcDbEntity
  8
0
 62
4
100
AcDbText
 10
<<<<<<< HEAD
-75.39414135413162
 20
41.45675709516899
 30
0.0
 40
0.2350897882544628
=======
-75.90096641391371
 20
-53.37179000738854
 30
0.0
 40
0.16089309834481208
>>>>>>> fa42de9 (dd001)
  1
= -77.000
 50
15.000000000000002
 11
<<<<<<< HEAD
-75.39414135413162
 21
41.45675709516899
=======
-75.90096641391371
 21
-53.37179000738854
>>>>>>> fa42de9 (dd001)
 31
0.0
100
AcDbAttribute
  2
XPOS
 70
0
  0
ATTRIB
  5
120
330
17
100
AcDbEntity
  8
0
 62
4
100
AcDbText
 10
<<<<<<< HEAD
-75.27244992511287
 20
41.00259849922536
 30
0.0
 40
0.2350897882544628
  1
= 42.000
=======
-75.81768201775934
 20
-53.682611605314385
 30
0.0
 40
0.16089309834481208
  1
= -53.000
>>>>>>> fa42de9 (dd001)
 50
15.000000000000002
 11
<<<<<<< HEAD
-75.27244992511287
 21
41.00259849922536
=======
-75.81768201775934
 21
-53.682611605314385
>>>>>>> fa42de9 (dd001)
 31
0.0
100
AcDbAttribute
  2
YPOS
 70
0
  0
SEQEND
  5
11D
330
11C
100
AcDbEntity
  8
0
  0
INSERT
  5
121
330
17
100
AcDbEntity
  8
0
100
AcDbBlockReference
 66
1
  2
FLAG
 10
<<<<<<< HEAD
73.0
 20
-13.0
 30
0.0
 41
1.2096748527786594
 42
1.2096748527786594
 43
1.2096748527786594
=======
46.0
 20
-78.0
 30
0.0
 41
1.825479248999512
 42
1.825479248999512
 43
1.825479248999512
>>>>>>> fa42de9 (dd001)
 50
15.0
  0
ATTRIB
  5
123
330
17
100
AcDbEntity
  8
0
 62
3
100
AcDbText
 10
<<<<<<< HEAD
74.90922771770735
 20
-13.114597755434609
 30
0.0
 40
0.6048374263893298
=======
48.881150725985364
 20
-78.17293558186093
 30
0.0
 40
0.912739624499756
>>>>>>> fa42de9 (dd001)
  1
P(45)
 50
14.999999999999998
 11
<<<<<<< HEAD
74.90922771770735
 21
-13.114597755434609
=======
48.881150725985364
 21
-78.17293558186093
>>>>>>> fa42de9 (dd001)
 31
0.0
100
AcDbAttribute
  2
NAME
 70
0
  0
ATTRIB
  5
124
330
17
100
AcDbEntity
  8
0
 62
4
100
AcDbText
 10
<<<<<<< HEAD
75.06577116284771
 20
-13.698825846290276
 30
0.0
 40
0.3024187131946649
  1
= 73.000
 50
14.999999999999998
 11
75.06577116284771
 21
-13.698825846290276
=======
49.117385124025624
 20
-79.05457435784263
 30
0.0
 40
0.456369812249878
  1
= 46.000
 50
14.999999999999998
 11
49.117385124025624
 21
-79.05457435784263
>>>>>>> fa42de9 (dd001)
 31
0.0
100
AcDbAttribute
  2
XPOS
 70
0
  0
ATTRIB
  5
125
330
17
100
AcDbEntity
  8
0
 62
4
100
AcDbText
 10
<<<<<<< HEAD
75.22231460798805
 20
-14.283053937145944
 30
0.0
 40
0.3024187131946649
  1
= -13.000
 50
14.999999999999998
 11
75.22231460798805
 21
-14.283053937145944
=======
49.353619522065884
 20
-79.93621313382432
 30
0.0
 40
0.456369812249878
  1
= -78.000
 50
14.999999999999998
 11
49.353619522065884
 21
-79.93621313382432
>>>>>>> fa42de9 (dd001)
 31
0.0
100
AcDbAttribute
  2
YPOS
 70
0
  0
SEQEND
  5
122
330
121
100
AcDbEntity
  8
0
  0
INSERT
  5
126
330
17
100
AcDbEntity
  8
0
100
AcDbBlockReference
 66
1
  2
FLAG
 10
<<<<<<< HEAD
37.0
=======
100.0
>>>>>>> fa42de9 (dd001)
 20
31.0
 30
0.0
 41
<<<<<<< HEAD
2.432006477929522
 42
2.432006477929522
 43
2.432006477929522
=======
1.3254454741825534
 42
1.3254454741825534
 43
1.3254454741825534
>>>>>>> fa42de9 (dd001)
 50
15.0
  0
ATTRIB
  5
128
330
17
100
AcDbEntity
  8
0
 62
3
100
AcDbText
 10
<<<<<<< HEAD
40.83843159725209
 20
34.76960545808407
 30
0.0
 40
1.2160032389647613
=======
102.09194828825802
 20
30.874434790519636
 30
0.0
 40
0.6627227370912767
>>>>>>> fa42de9 (dd001)
  1
P(46)
 50
14.999999999999998
 11
<<<<<<< HEAD
40.83843159725209
 21
34.76960545808407
=======
102.09194828825802
 21
30.874434790519636
>>>>>>> fa42de9 (dd001)
 31
0.0
100
AcDbAttribute
  2
NAME
 70
0
  0
ATTRIB
  5
129
330
17
100
AcDbEntity
  8
0
 62
4
100
AcDbText
 10
<<<<<<< HEAD
41.15315639440252
 20
33.59503652471685
 30
0.0
 40
0.6080016194823806
  1
= 37.000
 50
14.999999999999998
 11
41.15315639440252
 21
33.59503652471685
=======
102.26347355423972
 20
30.23429378309419
 30
0.0
 40
0.33136136854563836
  1
= 100.000
 50
14.999999999999998
 11
102.26347355423972
 21
30.23429378309419
>>>>>>> fa42de9 (dd001)
 31
0.0
100
AcDbAttribute
  2
XPOS
 70
0
  0
ATTRIB
  5
12A
330
17
100
AcDbEntity
  8
0
 62
4
100
AcDbText
 10
<<<<<<< HEAD
41.467881191552955
 20
32.420467591349635
 30
0.0
 40
0.6080016194823806
=======
102.43499882022141
 20
29.594152775668746
 30
0.0
 40
0.33136136854563836
>>>>>>> fa42de9 (dd001)
  1
= 31.000
 50
14.999999999999998
 11
<<<<<<< HEAD
41.467881191552955
 21
32.420467591349635
=======
102.43499882022141
 21
29.594152775668746
>>>>>>> fa42de9 (dd001)
 31
0.0
100
AcDbAttribute
  2
YPOS
 70
0
  0
SEQEND
  5
127
330
126
100
AcDbEntity
  8
0
  0
INSERT
  5
12B
330
17
100
AcDbEntity
  8
0
100
AcDbBlockReference
 66
1
  2
FLAG
 10
<<<<<<< HEAD
-26.0
 20
72.0
 30
0.0
 41
0.6782269925832913
 42
0.6782269925832913
 43
0.6782269925832913
=======
-71.0
 20
35.0
 30
0.0
 41
0.6508773631589966
 42
0.6508773631589966
 43
0.6508773631589966
>>>>>>> fa42de9 (dd001)
 50
15.0
  0
ATTRIB
  5
12D
330
17
100
AcDbEntity
  8
0
 62
3
100
AcDbText
 10
<<<<<<< HEAD
-24.92955551637457
 20
71.93574860976346
 30
0.0
 40
0.33911349629164567
=======
-69.97272138896086
 20
34.93833955900639
 30
0.0
 40
0.3254386815794983
>>>>>>> fa42de9 (dd001)
  1
P(47)
 50
14.999999999999998
 11
<<<<<<< HEAD
-24.92955551637457
 21
71.93574860976346
=======
-69.97272138896086
 21
34.93833955900639
>>>>>>> fa42de9 (dd001)
 31
0.0
100
AcDbAttribute
  2
NAME
 70
0
  0
ATTRIB
  5
12E
330
17
100
AcDbEntity
  8
0
 62
4
100
AcDbText
 10
<<<<<<< HEAD
-24.84178648508299
 20
71.60819012565217
 30
0.0
 40
0.16955674814582283
  1
= -26.000
 50
14.999999999999998
 11
-24.84178648508299
 21
71.60819012565217
=======
-69.88849166015504
 20
34.62398993159528
 30
0.0
 40
0.16271934078974915
  1
= -71.000
 50
14.999999999999998
 11
-69.88849166015504
 21
34.62398993159528
>>>>>>> fa42de9 (dd001)
 31
0.0
100
AcDbAttribute
  2
XPOS
 70
0
  0
ATTRIB
  5
12F
330
17
100
AcDbEntity
  8
0
 62
4
100
AcDbText
 10
<<<<<<< HEAD
-24.75401745379141
 20
71.2806316415409
 30
0.0
 40
0.16955674814582283
  1
= 72.000
 50
14.999999999999998
 11
-24.75401745379141
 21
71.2806316415409
=======
-69.8042619313492
 20
34.30964030418418
 30
0.0
 40
0.16271934078974915
  1
= 35.000
 50
14.999999999999998
 11
-69.8042619313492
 21
34.30964030418418
>>>>>>> fa42de9 (dd001)
 31
0.0
100
AcDbAttribute
  2
YPOS
 70
0
  0
SEQEND
  5
12C
330
12B
100
AcDbEntity
  8
0
  0
INSERT
  5
130
330
17
100
AcDbEntity
  8
0
100
AcDbBlockReference
 66
1
  2
FLAG
 10
<<<<<<< HEAD
-46.0
=======
-92.0
>>>>>>> fa42de9 (dd001)
 20
39.0
 30
0.0
 41
<<<<<<< HEAD
0.9513052976135559
 42
0.9513052976135559
 43
0.9513052976135559
=======
2.4516963128020564
 42
2.4516963128020564
 43
2.4516963128020564
>>>>>>> fa42de9 (dd001)
 50
15.0
  0
ATTRIB
  5
132
330
17
100
AcDbEntity
  8
0
 62
3
100
AcDbText
 10
<<<<<<< HEAD
-44.49855650215953
 20
38.9098787152687
 30
0.0
 40
0.47565264880677793
=======
-88.13049197058982
 20
38.767740154464605
 30
0.0
 40
1.2258481564010282
>>>>>>> fa42de9 (dd001)
  1
P(48)
 50
14.999999999999998
 11
<<<<<<< HEAD
-44.49855650215953
 21
38.9098787152687
=======
-88.13049197058982
 21
38.767740154464605
>>>>>>> fa42de9 (dd001)
 31
0.0
100
AcDbAttribute
  2
NAME
 70
0
  0
ATTRIB
  5
133
330
17
100
AcDbEntity
  8
0
 62
4
100
AcDbText
 10
<<<<<<< HEAD
-44.375448537794874
 20
38.45043353744342
 30
0.0
 40
0.23782632440338897
  1
= -46.000
 50
14.999999999999998
 11
-44.375448537794874
 21
38.45043353744342
=======
-87.81321912130942
 20
37.58366176108801
 30
0.0
 40
0.6129240782005141
  1
= -92.000
 50
14.999999999999998
 11
-87.81321912130942
 21
37.58366176108801
>>>>>>> fa42de9 (dd001)
 31
0.0
100
AcDbAttribute
  2
XPOS
 70
0
  0
ATTRIB
  5
134
330
17
100
AcDbEntity
  8
0
 62
4
100
AcDbText
 10
<<<<<<< HEAD
-44.252340573430224
 20
37.99098835961815
 30
0.0
 40
0.23782632440338897
=======
-87.49594627202902
 20
36.399583367711415
 30
0.0
 40
0.6129240782005141
>>>>>>> fa42de9 (dd001)
  1
= 39.000
 50
14.999999999999998
 11
<<<<<<< HEAD
-44.252340573430224
 21
37.99098835961815
=======
-87.49594627202902
 21
36.399583367711415
>>>>>>> fa42de9 (dd001)
 31
0.0
100
AcDbAttribute
  2
YPOS
 70
0
  0
SEQEND
  5
131
330
130
100
AcDbEntity
  8
0
  0
INSERT
  5
135
330
17
100
AcDbEntity
  8
0
100
AcDbBlockReference
 66
1
  2
FLAG
 10
29.0
 20
<<<<<<< HEAD
12.0
 30
0.0
 41
1.9641055169894797
 42
1.9641055169894797
 43
1.9641055169894797
=======
67.0
 30
0.0
 41
2.0861462472483816
 42
2.0861462472483816
 43
2.0861462472483816
>>>>>>> fa42de9 (dd001)
 50
15.0
  0
ATTRIB
  5
137
330
17
100
AcDbEntity
  8
0
 62
3
100
AcDbText
 10
<<<<<<< HEAD
32.09994432381938
 20
11.813931749373225
 30
0.0
 40
0.9820527584947398
=======
11.292560996278365
 20
66.80237030066894
 30
0.0
 40
1.0430731236241908
>>>>>>> fa42de9 (dd001)
  1
P(49)
 50
14.999999999999998
 11
<<<<<<< HEAD
32.09994432381938
 21
11.813931749373225
=======
11.292560996278365
 21
66.80237030066894
>>>>>>> fa42de9 (dd001)
 31
0.0
100
AcDbAttribute
  2
NAME
 70
0
  0
ATTRIB
  5
138
330
17
100
AcDbEntity
  8
0
 62
4
100
AcDbText
 10
<<<<<<< HEAD
32.35411828101328
 20
10.865341627164733
 30
0.0
 40
0.4910263792473699
=======
11.562528186106881
 20
65.79483903185232
 30
0.0
 40
0.5215365618120954
>>>>>>> fa42de9 (dd001)
  1
= 29.000
 50
14.999999999999998
 11
<<<<<<< HEAD
32.35411828101328
 21
10.865341627164733
=======
11.562528186106881
 21
65.79483903185232
>>>>>>> fa42de9 (dd001)
 31
0.0
100
AcDbAttribute
  2
XPOS
 70
0
  0
ATTRIB
  5
139
330
17
100
AcDbEntity
  8
0
 62
4
100
AcDbText
 10
<<<<<<< HEAD
32.608292238207184
 20
9.916751504956244
 30
0.0
 40
0.4910263792473699
  1
= 12.000
 50
14.999999999999998
 11
32.608292238207184
 21
9.916751504956244
=======
11.832495375935398
 20
64.7873077630357
 30
0.0
 40
0.5215365618120954
  1
= 67.000
 50
14.999999999999998
 11
11.832495375935398
 21
64.7873077630357
>>>>>>> fa42de9 (dd001)
 31
0.0
100
AcDbAttribute
  2
YPOS
 70
0
  0
SEQEND
  5
136
330
135
100
AcDbEntity
  8
0
  0
INSERT
  5
13A
330
17
100
AcDbEntity
  8
0
100
AcDbBlockReference
 66
1
  2
FLAG
 10
<<<<<<< HEAD
35.0
 20
-21.0
 30
0.0
 41
1.4522190613500154
 42
1.4522190613500154
 43
1.4522190613500154
=======
-22.0
 20
42.0
 30
0.0
 41
0.7468857106647224
 42
0.7468857106647224
 43
0.7468857106647224
>>>>>>> fa42de9 (dd001)
 50
15.0
  0
ATTRIB
  5
13C
330
17
100
AcDbEntity
  8
0
 62
3
100
AcDbText
 10
<<<<<<< HEAD
37.292034820550015
 20
-21.13757502228619
 30
0.0
 40
0.7261095306750076
=======
-20.82119158095654
 20
41.92924427104378
 30
0.0
 40
0.3734428553323612
>>>>>>> fa42de9 (dd001)
  1
P(50)
 50
14.999999999999998
 41
1.0000000000000002
 11
<<<<<<< HEAD
37.292034820550015
 21
-21.13757502228619
=======
-20.82119158095654
 21
41.92924427104378
>>>>>>> fa42de9 (dd001)
 31
0.0
100
AcDbAttribute
  2
NAME
 70
0
  0
ATTRIB
  5
13D
330
17
100
AcDbEntity
  8
0
 62
4
100
AcDbText
 10
<<<<<<< HEAD
37.47996579591916
 20
-21.838942970679813
 30
0.0
 40
0.3630547653375038
  1
= 35.000
=======
-20.72453745773906
 20
41.56852617243512
 30
0.0
 40
0.1867214276661806
  1
= -22.000
>>>>>>> fa42de9 (dd001)
 50
14.999999999999998
 41
1.0000000000000002
 11
<<<<<<< HEAD
37.47996579591916
 21
-21.838942970679813
=======
-20.72453745773906
 21
41.56852617243512
>>>>>>> fa42de9 (dd001)
 31
0.0
100
AcDbAttribute
  2
XPOS
 70
0
  0
ATTRIB
  5
13E
330
17
100
AcDbEntity
  8
0
 62
4
100
AcDbText
 10
<<<<<<< HEAD
37.667896771288305
 20
-22.540310919073438
 30
0.0
 40
0.3630547653375038
  1
= -21.000
=======
-20.627883334521577
 20
41.20780807382646
 30
0.0
 40
0.1867214276661806
  1
= 42.000
>>>>>>> fa42de9 (dd001)
 50
14.999999999999998
 41
1.0000000000000002
 11
<<<<<<< HEAD
37.667896771288305
 21
-22.540310919073438
=======
-20.627883334521577
 21
41.20780807382646
>>>>>>> fa42de9 (dd001)
 31
0.0
100
AcDbAttribute
  2
YPOS
 70
0
  0
SEQEND
  5
13B
330
13A
100
AcDbEntity
  8
0
  0
ENDSEC
  0
SECTION
  2
OBJECTS
  0
DICTIONARY
  5
A
330
0
100
AcDbDictionary
280
0
281
1
  3
ACAD_COLOR
350
B
  3
ACAD_GROUP
350
C
  3
ACAD_LAYOUT
350
D
  3
ACAD_MATERIAL
350
E
  3
ACAD_MLEADERSTYLE
350
F
  3
ACAD_MLINESTYLE
350
10
  3
ACAD_PLOTSETTINGS
350
11
  3
ACAD_PLOTSTYLENAME
350
12
  3
ACAD_SCALELIST
350
14
  3
ACAD_TABLESTYLE
350
15
  3
ACAD_VISUALSTYLE
350
16
  3
EZDXF_META
350
2D
  0
DICTIONARY
  5
B
330
A
100
AcDbDictionary
280
0
281
1
  0
DICTIONARY
  5
C
330
A
100
AcDbDictionary
280
0
281
1
  0
DICTIONARY
  5
D
330
A
100
AcDbDictionary
280
0
281
1
  3
Model
350
1A
  3
Layout1
350
1E
  0
DICTIONARY
  5
E
330
A
100
AcDbDictionary
280
0
281
1
  3
ByBlock
350
1F
  3
ByLayer
350
20
  3
Global
350
21
  0
DICTIONARY
  5
F
330
A
100
AcDbDictionary
280
0
281
1
  3
Standard
350
2C
  0
DICTIONARY
  5
10
330
A
100
AcDbDictionary
280
0
281
1
  3
Standard
350
22
  0
DICTIONARY
  5
11
330
A
100
AcDbDictionary
280
0
281
1
  0
ACDBDICTIONARYWDFLT
  5
12
330
A
100
AcDbDictionary
280
0
281
1
  3
Normal
350
13
100
AcDbDictionaryWithDefault
340
13
  0
ACDBPLACEHOLDER
  5
13
330
12
  0
DICTIONARY
  5
14
330
A
100
AcDbDictionary
280
0
281
1
  0
DICTIONARY
  5
15
330
A
100
AcDbDictionary
280
0
281
1
  0
DICTIONARY
  5
16
330
A
100
AcDbDictionary
280
0
281
1
  0
LAYOUT
  5
1A
330
D
100
AcDbPlotSettings
  1

  4
A3
  6

 40
7.5
 41
20.0
 42
7.5
 43
20.0
 44
420.0
 45
297.0
 46
0.0
 47
0.0
 48
0.0
 49
0.0
140
0.0
141
0.0
142
1.0
143
1.0
 70
1024
 72
1
 73
0
 74
5
  7

 75
16
 76
0
 77
2
 78
300
147
1.0
148
0.0
149
0.0
100
AcDbLayout
  1
Model
 70
1
 71
0
 10
0.0
 20
0.0
 11
420.0
 21
297.0
 12
0.0
 22
0.0
 32
0.0
 14
1e+20
 24
1e+20
 34
1e+20
 15
-1e+20
 25
-1e+20
 35
-1e+20
146
0.0
 13
0.0
 23
0.0
 33
0.0
 16
1.0
 26
0.0
 36
0.0
 17
0.0
 27
1.0
 37
0.0
 76
1
330
17
  0
LAYOUT
  5
1E
330
D
100
AcDbPlotSettings
  1

  4
A3
  6

 40
7.5
 41
20.0
 42
7.5
 43
20.0
 44
420.0
 45
297.0
 46
0.0
 47
0.0
 48
0.0
 49
0.0
140
0.0
141
0.0
142
1.0
143
1.0
 70
0
 72
1
 73
0
 74
5
  7

 75
16
 76
0
 77
2
 78
300
147
1.0
148
0.0
149
0.0
100
AcDbLayout
  1
Layout1
 70
1
 71
1
 10
0.0
 20
0.0
 11
420.0
 21
297.0
 12
0.0
 22
0.0
 32
0.0
 14
1e+20
 24
1e+20
 34
1e+20
 15
-1e+20
 25
-1e+20
 35
-1e+20
146
0.0
 13
0.0
 23
0.0
 33
0.0
 16
1.0
 26
0.0
 36
0.0
 17
0.0
 27
1.0
 37
0.0
 76
1
330
1B
  0
MATERIAL
  5
1F
102
{ACAD_REACTORS
330
E
102
}
330
E
100
AcDbMaterial
  1
ByBlock
  2

 70
0
 40
1.0
 71
1
 41
1.0
 91
-1023410177
 42
1.0
 72
1
  3

 73
1
 74
1
 75
1
 44
0.5
 73
0
 45
1.0
 46
1.0
 77
1
  4

 78
1
 79
1
170
1
 48
1.0
171
1
  6

172
1
173
1
174
1
140
1.0
141
1.0
175
1
  7

176
1
177
1
178
1
143
1.0
179
1
  8

270
1
271
1
272
1
145
1.0
146
1.0
273
1
  9

274
1
275
1
276
1
 42
1.0
 72
1
  3

 73
1
 74
1
 75
1
 94
63
  0
MATERIAL
  5
20
102
{ACAD_REACTORS
330
E
102
}
330
E
100
AcDbMaterial
  1
ByLayer
  2

 70
0
 40
1.0
 71
1
 41
1.0
 91
-1023410177
 42
1.0
 72
1
  3

 73
1
 74
1
 75
1
 44
0.5
 73
0
 45
1.0
 46
1.0
 77
1
  4

 78
1
 79
1
170
1
 48
1.0
171
1
  6

172
1
173
1
174
1
140
1.0
141
1.0
175
1
  7

176
1
177
1
178
1
143
1.0
179
1
  8

270
1
271
1
272
1
145
1.0
146
1.0
273
1
  9

274
1
275
1
276
1
 42
1.0
 72
1
  3

 73
1
 74
1
 75
1
 94
63
  0
MATERIAL
  5
21
102
{ACAD_REACTORS
330
E
102
}
330
E
100
AcDbMaterial
  1
Global
  2

 70
0
 40
1.0
 71
1
 41
1.0
 91
-1023410177
 42
1.0
 72
1
  3

 73
1
 74
1
 75
1
 44
0.5
 73
0
 45
1.0
 46
1.0
 77
1
  4

 78
1
 79
1
170
1
 48
1.0
171
1
  6

172
1
173
1
174
1
140
1.0
141
1.0
175
1
  7

176
1
177
1
178
1
143
1.0
179
1
  8

270
1
271
1
272
1
145
1.0
146
1.0
273
1
  9

274
1
275
1
276
1
 42
1.0
 72
1
  3

 73
1
 74
1
 75
1
 94
63
  0
MLINESTYLE
  5
22
102
{ACAD_REACTORS
330
10
102
}
330
10
100
AcDbMlineStyle
  2
Standard
 70
0
  3

 62
256
 51
90.0
 52
90.0
 71
2
 49
0.5
 62
256
  6
BYLAYER
 49
-0.5
 62
256
  6
BYLAYER
  0
MLEADERSTYLE
  5
2C
102
{ACAD_REACTORS
330
F
102
}
330
F
100
AcDbMLeaderStyle
179
2
170
2
171
1
172
0
 90
2
 40
0.0
 41
0.0
173
1
 91
-1056964608
 92
-2
290
1
 42
2.0
291
1
 43
8.0
  3
Standard
 44
4.0
300

342
29
174
1
175
1
176
0
178
1
 93
-1056964608
 45
4.0
292
0
297
0
 46
4.0
 94
-1056964608
 47
1.0
 49
1.0
140
1.0
294
1
141
0.0
177
0
142
1.0
295
0
296
0
143
3.75
271
0
272
9
273
9
  0
DICTIONARY
  5
2D
330
A
100
AcDbDictionary
280
1
281
1
  3
CREATED_BY_EZDXF
350
2E
  3
WRITTEN_BY_EZDXF
350
141
  0
DICTIONARYVAR
  5
2E
330
2D
100
DictionaryVariables
280
0
  1
<<<<<<< HEAD
1.3.5 @ 2025-04-21T07:44:00.565030+00:00
=======
1.3.5 @ 2025-04-21T17:42:15.826195+00:00
>>>>>>> fa42de9 (dd001)
  0
DICTIONARYVAR
  5
141
330
2D
100
DictionaryVariables
280
0
  1
<<<<<<< HEAD
1.3.5 @ 2025-04-21T07:44:00.577077+00:00
=======
1.3.5 @ 2025-04-21T17:42:15.841137+00:00
>>>>>>> fa42de9 (dd001)
  0
ENDSEC
  0
EOF
